<?xml version="1.0" encoding="utf-8"?>
<!-- Generator: Adobe Illustrator 22.1.0, SVG Export Plug-In . SVG Version: 6.00 Build 0)  -->
<svg version="1.1" id="Layer_1" xmlns="http://www.w3.org/2000/svg" xmlns:xlink="http://www.w3.org/1999/xlink" x="0px" y="0px"
	 viewBox="0 0 382.2 201.7" style="enable-background:new 0 0 382.2 201.7;" xml:space="preserve">
<style type="text/css">
	.st0{fill:#FFEB88;}
	.st1{fill:#A7E0A6;stroke:#A7E0A6;stroke-miterlimit:10;}
	.st2{fill:#A7E0A6;}
	.st3{fill:#F8F8F8;}
	.st4{fill:#40938D;}
	.st5{fill:#71B79C;}
	.st6{fill:#3C8A84;}
	.st7{fill:#170040;}
	.st8{fill:#D94C72;stroke:#D94C72;stroke-miterlimit:10;}
	.st9{fill:#D92C5B;stroke:#D92C5B;stroke-miterlimit:10;}
	.st10{fill:#FF346B;stroke:#FF346B;stroke-miterlimit:10;}
	.st11{fill:#170040;stroke:#170040;stroke-miterlimit:10;}
</style>
<path class="st0" d="M314.6,63c3.1,4,6.5,10,4.7,15.2c-3,9-13,9-15,0c-1.6-7.2,1.3-13.1,4-17.2c1.9,8.9,4.3,12.3,6,7.2
	C314.8,67.1,314.9,65.3,314.6,63z"/>
<path class="st0" d="M314.6,63c0.2,2.3,0.1,4.1-0.3,5.2c-1.7,5-4,1.6-6-7.2c0.7-1,1.4-2,2-2.8C310.4,58.3,312.4,60.2,314.6,63z"/>
<path class="st1" d="M129.4,3.3c9.8-3,9.8,11.2,9.8,11.6c-5.6,0.4-10.9,1.5-15.8,3.4c-14.9,5.6-26.3,11.5-37.8,15.3
	C79.4,23.3,68.4,7.3,83.4,7.3S119.4,6.3,129.4,3.3z"/>
<path class="st2" d="M33.8,45.6c-0.5,0.8-1,1.7-1.4,2.7c-1.2,2.7,0.4,8.3,3.3,15.4C10,64.9,2.1,53.9,0,49.8
	c1.2,1.6,4.7,2.2,14.4-9.5c14-17-7-37-7-37c18,1,37,19,38,35.1C39.4,39.5,36.1,41.7,33.8,45.6z"/>
<path class="st3" d="M230.4,152.3c5,2-1,19-4,22c0,0-5.7-3.1-14.3-7.9C215.4,161.3,225.4,150.3,230.4,152.3z"/>
<path class="st3" d="M227.4,104.3c1,10-3,30-7,30s-8-16-8.3-27C218.5,106.5,223.8,105.5,227.4,104.3z"/>
<path class="st4" d="M139.2,14.9c14.7-1.1,31,2.9,46,11.9c-6.7,10.3-6.2,22-6.8,34.2c-0.7,14.4-0.7,28.8,7,41
	c1.5,2.4,3.2,4.8,4.9,7.1c-0.8,0-1.6,0.1-2.4,0.1c-2.6,0.1-5.3,0.3-7.9,0.4c-4.7,0.2-9.4,0.3-14,0.4c-19.4,0.4-35.6,0.2-35.6,0.2
	c3.1,4.4,9.5,10,17.5,16c3.9,2.9,8.2,5.9,12.7,8.9c3.6,2.4,7.3,4.8,11,7.2c4.2,2.6,8.4,5.3,12.6,7.8c2.1,1.3,4.2,2.5,6.2,3.7
	c4.7,2.8,9.2,5.4,13.3,7.8c3,1.7,5.8,3.3,8.4,4.8c8.6,4.9,14.3,7.9,14.3,7.9c-9.5,12.1-30,21.5-53.2,24.6
	c-15.5-4.4-55.3-23-67.2-34.1C90.9,150.7,44.6,66,33.8,45.6c2.4-3.9,5.6-6.1,11.6-7.2c4.4-0.8,10.1-1.1,18-1.1
	c8,0,15.1-1.4,22.2-3.7c11.5-3.7,23-9.7,37.8-15.3C128.3,16.4,133.6,15.3,139.2,14.9z"/>
<path class="st3" d="M208.4,142.3c3,2-1.4,17.6-4.7,19.3c-4.1-2.4-8.6-5-13.3-7.8C194.4,150.3,205.4,140.3,208.4,142.3z"/>
<path class="st5" d="M300.4,24.3c-10-15-26-27-53-18c-27,9-33,35-35.2,45.6l0,0c-2.2-3.3-4.8-6.6-7.8-9.6
	c-5.9-6.2-12.4-11.3-19.2-15.4c-6.7,10.3-11.3,22-11.9,34.2c-0.7,14.5,4.4,28.7,12.1,41c1.5,2.4,3.2,4.8,4.9,7.1
	c4.6-0.3,9.2-0.6,13.4-1c3-0.3,5.8-0.5,8.4-0.9c6.4-0.8,11.8-1.8,15.3-3c0,0,0.5-17.6-7.1-36.7c0.6-11.1,3.4-26.7,10.1-36.3
	c9-13,28-23,46-17s29,28,31,41c0.3,2.1,0.7,4,1,5.8c0.7-1,1.4-2,2-2.8c0,0,2.1,1.9,4.3,4.8C313.9,53.6,308.4,36.3,300.4,24.3z"/>
<path class="st3" d="M190.2,109.1L190.2,109.1c-0.8,0-1.6,0.1-2.4,0.1v0c0.6,9,5.6,16,8.6,16c1.3,0,2.9-1.4,4.3-3.8
	c1.8-3.1,3.2-7.8,3-13.3C199.4,108.5,194.9,108.8,190.2,109.1z"/>
<path class="st3" d="M183.4,135.3c3,1,1.5,12.6,0.8,14.8c-4.2-2.5-8.4-5.1-12.6-7.8C174.4,140.3,180.4,134.3,183.4,135.3z"/>
<path class="st3" d="M179.9,109.6c-1.5,5.3-6.5,11.7-8.5,11.7s-4-2-5.4-11.2C170.5,109.9,175.2,109.8,179.9,109.6z"/>
<path class="st3" d="M159.4,121.3c2,2,2.4,11.7,1.2,13.9c-4.5-3-8.8-6-12.7-8.9C153.4,122.3,157.4,119.3,159.4,121.3z"/>
<path class="st6" d="M131.6,174c-15.1-14-27.2-30.9-40.3-46.8c-2.5-3.1-5-6.1-7.6-9.1c-4-4.8-8.1-9.7-12-14.6
	C57.3,85.4,44.6,66,33.8,45.6c-0.5,0.8-1,1.7-1.4,2.7c-1.2,2.7,0.4,8.3,3.3,15.4c6.3,15.2,18.7,37.2,23.3,50.2
	c8.6-0.7,19.6-0.8,24.1,4.6c0.8,0.9,1.3,2,1.6,3.2c2,7.4-8.4,17.3-15.4,19.6c6.3,12.9,13.9,25.3,17,28.9
	c21.4,25.7,56.4,32.5,86.8,28.6C157.6,194.4,143.5,185.1,131.6,174z"/>
<path class="st1" d="M84.8,121.7c-0.3-1.2-0.9-2.3-1.6-3.2c-4.4-5.4-15.4-5.3-24.1-4.6c-1.3,0.1-2.5,0.2-3.7,0.3
	c-10,1-15.2,10.3-13,19c3,12,18.5,9.6,25.4,8.5c0.5-0.1,1-0.2,1.6-0.4C76.4,139,86.7,129.1,84.8,121.7z"/>
<circle class="st7" cx="178.4" cy="80.3" r="9"/>
<path class="st8" d="M366.8,165.7c17.4,8.5,13.6,13.5,12.6,16.5s-6,8-15,8s-7-8-6.8-17.4v0c2.7-0.1,5-0.9,6.8-2.6
	C365.6,169.1,366.3,167.5,366.8,165.7z"/>
<path class="st8" d="M370.4,136.3c4,8,6.6,21.8-3.2,22.9l-0.2,0c-1.1-9.9-7.5-22.4-11.6-27.9c-1-1.3-2.2-2.6-3.6-3.8
	C357.4,127.3,366.4,128.3,370.4,136.3z"/>
<path class="st8" d="M340.9,167.6c-0.5,2.4-2.5,4.6-9.5,1.6s-8-8-5.3-13.8c1.1,1.5,2.3,2.8,3.3,3.8
	C331.9,161.8,336.1,165,340.9,167.6z"/>
<path class="st9" d="M348.7,136.4c1.2-3.3,1.2-6.9,1.1-10.4c0.7,0.5,1.4,1,2,1.5c1.4,1.2,2.7,2.5,3.6,3.8c4.1,5.5,10.5,18,11.6,27.9
	c0.3,2.4,0.2,4.6-0.3,6.6c-0.4,1.8-1.2,3.3-2.4,4.5c-1.8,1.8-4.1,2.6-6.8,2.6c-5,0.2-11.2-2.2-16.7-5.3c-4.7-2.6-9-5.8-11.5-8.4
	c-1.1-1.1-2.2-2.4-3.3-3.8c-0.5-0.6-1-1.3-1.4-2c4.2,0.1,8.5-0.5,12.1-2.7c2.2-1.3,4.1-3.2,5.8-5.1
	C345.1,142.9,347.4,139.9,348.7,136.4z"/>
<path class="st10" d="M349.8,126c0.2,3.5,0.1,7.1-1.1,10.4c-1.2,3.5-3.6,6.5-6.1,9.3c-1.7,1.9-3.6,3.8-5.8,5.1
	c-3.6,2.1-7.9,2.8-12.1,2.7c-5.7-8.2-10.1-20.4-2.3-28.2C330.1,117.5,342,120.5,349.8,126z M336.9,134.8c0-1.7-1.3-3-3-3s-3,1.3-3,3
	s1.3,3,3,3S336.9,136.4,336.9,134.8z"/>
<circle class="st11" cx="333.9" cy="134.8" r="3"/>
</svg>
