<?xml version="1.0" encoding="utf-8"?>
<!-- Generator: Adobe Illustrator 22.1.0, SVG Export Plug-In . SVG Version: 6.00 Build 0)  -->
<svg version="1.1" xmlns="http://www.w3.org/2000/svg" xmlns:xlink="http://www.w3.org/1999/xlink" x="0px" y="0px"
	 viewBox="0 0 897.9 340" style="enable-background:new 0 0 897.9 340;" xml:space="preserve">
<style type="text/css">
	.st0{fill:#0051BB;}
	.st1{fill:#128DFF;}
	.st2{fill:#3696FF;stroke:#3696FF;stroke-miterlimit:10;}
	.st3{fill:#0AB2FF;stroke:#0AB2FF;stroke-miterlimit:10;}
	.st4{fill:#0050CB;}
	.st5{fill:#006EF1;}
	.st6{fill:#008077;}
	.st7{fill:#00A47F;}
	.st8{fill:#00AA83;stroke:#00AA83;stroke-miterlimit:10;}
	.st9{fill:#00B999;stroke:#00B999;stroke-miterlimit:10;}
	.st10{fill:#009684;}
	.st11{fill:#004ED0;}
	.st12{fill:#82D8FF;}
	.st13{fill:#B8E9FF;}
	.st14{fill:#FFFFFF;}
	.st15{fill:#D4F1FF;}
</style>
<g id="Layer_1">
	<path d="M859.8,90.8c0.3,0.7,0,1.4-0.7,1.8c-0.7,0.3-1.4,0-1.7-0.7s0-1.4,0.6-1.7C858.7,89.8,859.5,90.1,859.8,90.8z"/>
	<path class="st0" d="M846.4,118.5c-4.8,8.7-12.7,19.5-27.7,22.4c0,0,11.4-13.6,10-17.7c2.5-0.4,5.1-1.1,7.7-1.8
		C839.3,120.5,842.8,119.7,846.4,118.5z"/>
	<path class="st1" d="M838.5,83.5c-1.4,0.1-2.7,0.3-4,0.6c-5.1,1-8.5,2.9-11,5.4c-1.4-3.3-16.5,2.2-17.2,2.5
		c2-1.8,7.8-7.1,11.7-10.6C821.8,77.9,834.7,80.4,838.5,83.5z"/>
	<path class="st2" d="M813.1,117.7c20.7-0.6,41.1-9.6,55.6-24.3c-3.6,16.1-13.2,22-22.3,25.1c-3.6,1.3-7.1,2-10.1,2.9
		c-2.7,0.7-5.2,1.4-7.7,1.8c-6.8,1.2-13.4,1-21.7-2.6c-1-0.4-1.9-0.9-3-1.4l0.2-0.5C807,117.7,810.1,117.8,813.1,117.7z"/>
	<path class="st3" d="M857.4,91.9c0.3,0.7,1.1,0.9,1.7,0.7c0.7-0.3,0.9-1.1,0.7-1.8c-0.3-0.7-1.1-0.9-1.8-0.6
		C857.4,90.5,857.1,91.2,857.4,91.9z M868.7,93.3c-14.5,14.8-34.9,23.7-55.6,24.3c-3,0.1-6.1,0-8.9,1.1l-0.2,0.5
		c-0.9-0.4-1.8-0.9-2.7-1.4c0.9-0.3,1.7-0.5,2.4-0.8c3.9-1.6,5.6-4.2,9.3-9.7c4-6,5.6-12.9,10.6-17.7v0c2.5-2.5,6-4.4,11-5.4
		c1.3-0.3,2.6-0.4,4-0.6c14.4-1.3,31.1,4.1,31.1,4.1C869.4,89.7,869.1,91.6,868.7,93.3z"/>
	<path class="st4" d="M803.9,119.2c-0.9-0.4-1.8-0.9-2.7-1.4c-2.6-0.1-10.2,0.4-16.2,1.3c-2.5,0.4-4.8,0.8-6.2,1.3
		c-6.9,2.3-18.6,2-18.6,2c3.3,7.6,18.1,9.2,21.8,9.3c3.7,0.2,18.7-2.8,24.9-11.1C805.9,120.2,805,119.7,803.9,119.2z"/>
	<path class="st5" d="M783.4,102c9.2,2.3,16.2,10.1,20.2,14.9c-0.7,0.3-1.5,0.6-2.4,0.8c-2.6-0.1-10.2,0.4-16.2,1.3
		c-4.2-0.8-8.8-2.7-13.3-6.5c-14.3-11.8-17.4-23.2-17.4-23.2C761.4,97.2,774.2,99.7,783.4,102z"/>
	<path d="M840.5,196.5c2.2,0,4,1.8,4,4c0,2.2-1.8,4-4,4s-4-1.8-4-4C836.5,198.3,838.3,196.5,840.5,196.5z"/>
	<path class="st6" d="M803.5,238.5c0.2,0,0.3-0.1,0.5-0.1c-14.3,7.9-38.3,21.6-53.3,18.2c0,0,11.2-5,16.4-11.4
		c1.3-1.6,2.4-2.9,3.3-4.1C780.5,241.5,791.6,240.8,803.5,238.5z"/>
	<path class="st7" d="M767.6,196.6c-2-1.3-2.2-1.9-13.3-0.8c-11.6,1.2-16.2-6.2-16.2-6.2c8.1,3.1,21.4-0.2,34.4-7.3
		c12.9-7.2,22.4-10.1,30-7.8l0.2,1c-9.3,2.2-19.2,7.4-29.2,16.1C771.6,193.2,769.6,194.9,767.6,196.6z"/>
	<path class="st8" d="M807.5,227.7c-9.3,0.7-18.7,1-28,1.1v0c-4.8,0.1-9.7,0-14.5-0.2c-9.9-0.3-20.1-1-28.9-5.5v0l-1.4-0.2
		c-3.1,2.4-5.7,4.4-7.7,5.9c-2.3,1.7-3.6,2.7-3.6,2.7c0.3,0.1,0.6,0.3,0.9,0.4c1.4,0.6,2.9,1.2,4.5,1.8c9.8,3.5,24,7,41.5,7.5
		c3-3.6,5.1-5.7,9.1-9v0c-4,3.3-6.1,5.4-9.1,9c10,0.3,21.1-0.4,33.1-2.7c0.2,0,0.3-0.1,0.5-0.1c17.1-3.3,31.2-7.6,41.6-12.1
		C832.9,225.3,820.2,226.8,807.5,227.7z"/>
	<path class="st9" d="M767.6,196.6c2-1.7,3.9-3.4,5.9-5.1c10-8.7,19.9-13.8,29.2-16.1c12-2.9,23.2-1,32.8,4c17,9,32,24,30,32
		c-1.1,4.3-8.1,9.6-20,14.8c-12.6-1.1-25.4,0.5-38.1,1.4c-9.3,0.7-18.7,1.1-28,1.1c-4.8,0.1-9.7,0-14.5-0.2
		c-9.9-0.3-20.1-1-28.9-5.5v0l-1.4-0.2C743.3,216.3,755.7,206.7,767.6,196.6z M844.5,200.5c0-2.2-1.8-4-4-4s-4,1.8-4,4
		c0,2.2,1.8,4,4,4S844.5,202.7,844.5,200.5z"/>
	<path class="st10" d="M724.5,231.9c-3.8,1.3-7.8,2-11.9,2.1c-4.9-5.5-27.1-21.5-27.1-21.5c31,1,41,10,41.6,16.3
		c-2.3,1.7-3.6,2.7-3.6,2.7C723.8,231.6,724.1,231.8,724.5,231.9z"/>
	<path class="st6" d="M712.6,234c4-0.1,8-0.8,11.9-2.1c1.4,0.6,2.9,1.2,4.5,1.8l-0.1,0.3c-20.7,23.5-43.3,8.6-43.3,8.6
		C694.5,241.5,712.6,234,712.6,234L712.6,234z"/>
	<circle cx="734.7" cy="304.9" r="1.3"/>
	<path class="st3" d="M736,304.9c0-0.7-0.6-1.3-1.3-1.3c-0.7,0-1.3,0.6-1.3,1.3c0,0.7,0.6,1.3,1.3,1.3
		C735.4,306.2,736,305.6,736,304.9z M714.7,317.3c-11.8,0.6-24.3-7-36.9-10.4c1.4,0.1,2.7,0.1,3.8,0c9.5-0.4,13.2-3.6,17-6.7
		c2.4-1.9,4.8-3.8,8.8-4.8c0.6-0.2,1.3-0.3,1.9-0.4c13.2-2.1,28.7,3.9,33.9,6.7c0,0-0.2,4.1-3.5,8.7l-0.1-0.1
		C737.3,314.2,719.2,317.1,714.7,317.3z"/>
	<path class="st2" d="M739.8,310.5c-3.2,4.4-9.3,9.2-21,11.3c-3.7,0.7-7.2,0.9-10.4,0.9c-3.6,0-6.9-0.4-9.9-1.1
		c-7.7-1.8-13.3-5.6-17.1-9.5h0c-1.7-1.7-3-3.5-4-5.2c0.2,0,0.3,0,0.4,0c12.6,3.4,25.1,11,36.9,10.4
		C719.2,317.1,737.3,314.2,739.8,310.5L739.8,310.5z"/>
	<path class="st1" d="M680.5,296.6c5.1,2.8,18.5-1.9,27-1c-4,1-6.4,2.8-8.8,4.8C690.6,302.9,680.5,296.6,680.5,296.6z"/>
	<path class="st0" d="M695,326.1c-5.2-0.2-13-3.2-15.5-5.9c0,0,11.9,4.5,19.1,1.5c3,0.7,6.2,1.1,9.9,1.1v0
		C705.5,326.5,700.2,326.3,695,326.1z"/>
	<path class="st5" d="M662,298.4c7.9,0.3,18.8,5.7,19.7,8.6c-1.2,0-2.4,0.1-3.8,0c-5.9-1.6-11.8-2.3-17.6-0.9H659
		c-1.1-0.9-10.1-8.5-9.8-13.5C649.1,292.6,654.2,298.1,662,298.4z"/>
	<path class="st11" d="M653.6,311.2c-7.7-3-12.8-8.4-15.1-16.4c0,0,12.7,11.1,20.6,11.4c0,0,0,0-0.1-0.1h1.3
		c5.9-1.4,11.8-0.7,17.6,0.9c-0.1,0-0.3,0-0.4,0c1,1.7,2.3,3.5,4,5.2C671.8,314.6,661.3,314.1,653.6,311.2z"/>
	<path class="st9" d="M693,82.4c1.6-0.9,2.1-3,1.1-4.5c-0.9-1.5-2.9-2.1-4.5-1.1c-1.6,0.9-2.1,3-1.2,4.5
		C689.4,82.9,691.4,83.4,693,82.4z M681.4,60.9c7,4,27.4,18.6,26.5,24.9c-0.4,2.5-1.5,4.3-3.7,5.8c-22.5,1-45.1-0.4-67.6-1.8
		c-3.3-0.2-6.6-0.4-9.9-0.6c-4.7-0.3-9.4-0.6-14-1.4c6.7-4.3,15.3-10.3,24.4-17.7c0.5-0.4,0.9-0.7,1.4-1.1
		c9.4-7.8,17.8-10.9,24.8-11.7C671.4,56.4,677.6,58.8,681.4,60.9z"/>
	<path d="M694.1,77.9c0.9,1.6,0.4,3.6-1.1,4.5s-3.6,0.4-4.5-1.2c-0.9-1.5-0.4-3.6,1.2-4.5C691.2,75.8,693.2,76.4,694.1,77.9z"/>
	<path class="st8" d="M636,104.2c-7-0.8-15.9-2.7-23.3-4.7c-3.4-0.9-6.6-1.8-9-2.5c-1.8-0.5-3.2-1-4.1-1.3c0,0,0.1,0,0.2-0.1
		c0.5-0.3,2.2-1.2,4.7-2.7c2.2-1.3,5-3,8.2-5.1c4.6,0.8,9.3,1.1,14,1.4c3.3,0.2,6.6,0.4,9.9,0.6c22.5,1.4,45,2.8,67.6,1.8
		c-3.2,2.3-8.6,4.1-16.4,7.4c-7.9,3.3-18.5,4.4-28.1,4.8c-6.2,0.3-11.9,0.4-16.3,0.7C641.4,104.7,638.9,104.6,636,104.2z"/>
	<path class="st6" d="M643.4,104.5c4.4-0.3,10.1-0.4,16.3-0.7c-10.2,8.3-28,24-41.8,23.5c0,0,8.3-5.7,11.3-11.6
		c2.8-5.5,3.9-7.7,6.8-11.4C638.9,104.6,641.4,104.7,643.4,104.5z"/>
	<path class="st7" d="M637.1,70.2c-1-1.1-2.3-1.7-10.5-3c-10.3-1.6-12.1-8.9-12.1-8.9c6,4.5,18.4,4.7,31.6,1.5
		c6.8-1.6,12.5-2.5,17.2-2.5c-7,0.8-15.4,3.9-24.8,11.7C638,69.4,637.6,69.8,637.1,70.2z"/>
	<path class="st10" d="M588.6,79c9.1,1.5,13.7,9.3,16,13.9c-2.5,1.5-4.2,2.4-4.7,2.7c-3.2-0.7-6.3-1.1-9.5-1.4
		c0.2-0.1,0.3-0.1,0.3-0.1c-5-0.5-21.1-17.7-21.1-17.7S579.5,77.5,588.6,79z"/>
	<path class="st6" d="M590.3,94.2c3.2,0.2,6.4,0.7,9.5,1.4c-0.1,0.1-0.2,0.1-0.2,0.1c0.9,0.3,2.3,0.8,4.1,1.3v0
		c-9.3,14-32.9,3-32.9,3C575.8,99.3,588.3,94.9,590.3,94.2z"/>
	<path class="st9" d="M575.1,152.3c7.1-3.6,14.7-6.7,22.8-8c4.4-0.7,8.5-0.6,12.4,0.2c15.5,2.9,27,15.8,34.9,26
		c9.9,12.7,5.6,14.8,0,18.4c-0.9,0.6-2.2,1.2-3.9,1.9c-5.5-0.6-11.1-1-16.7-0.6c-3.6,0.2-7.1,0.8-10.7,0.8c-8.2,0-16-3.1-24.1-4.1
		c-10-1.3-20.6,0.5-30.1-2.9c-4.2-1.5-8.1-4-12.3-5.6c-3.5-1.4-7.2-2.1-11-2.2l-0.2-0.5c2.6-1.2,5.6-2.6,8.7-4.4
		C552.6,166.7,563,158.6,575.1,152.3z M632.5,171.9c0-1.9-1.6-3.5-3.5-3.5c-1.9,0-3.5,1.6-3.5,3.5s1.6,3.5,3.5,3.5
		C630.9,175.4,632.5,173.8,632.5,171.9z"/>
	<path d="M629,168.4c1.9,0,3.5,1.6,3.5,3.5s-1.6,3.5-3.5,3.5c-1.9,0-3.5-1.6-3.5-3.5S627,168.4,629,168.4z"/>
	<path class="st7" d="M597.9,144.3c-8.1,1.3-15.7,4.3-22.8,8c-1.4-1.8-1.6-2.5-11.6-5.8c-10.8-3.5-13-12.1-13-12.1
		c6.5,6.1,19.4,8.3,32.9,6.9c12-1.3,20.7-0.6,26.9,3.2C606.5,143.8,602.3,143.6,597.9,144.3z"/>
	<path class="st6" d="M600.1,198.3c-8.6,4.2-29.9,18.2-42.3,15.4c0,0,7.9-3.5,11.6-8.1c3.3-4,4.7-5.7,7.6-8.2
		c2.4,0.3,4.9,0.5,7.5,0.7C590,198.4,595.2,198.4,600.1,198.3z"/>
	<path class="st8" d="M577,197.3c-23.5-2.6-38-9.3-48.2-14.9c-0.9-0.4-1.7-0.9-2.5-1.4c-0.9-0.5-1.8-1-2.6-1.4c0,0,1.7-0.3,4.7-1.2
		c2.1-0.6,4.8-1.5,7.8-2.9l0.2,0.5c3.8,0.1,7.5,0.8,11,2.2c4.2,1.6,8,4.1,12.3,5.6c9.5,3.4,20.1,1.6,30.1,2.9
		c8.1,1.1,16,4.1,24.1,4.1c3.6,0,7.2-0.6,10.7-0.8c5.6-0.4,11.1,0,16.7,0.6c-7.2,3-21.7,7-41.2,7.6c-4.9,0.2-10.1,0.1-15.6-0.3
		C581.9,197.8,579.4,197.6,577,197.3z"/>
	<path class="st6" d="M528.5,183.2c-13,16.2-40,0-40,0c2.1-1.4,25.8-3.5,26.9-3.6c0,0,0,0,0,0c3.6,1.2,7.2,2,10.9,1.5l0-0.1
		c0.8,0.4,1.6,0.9,2.5,1.4L528.5,183.2z"/>
	<path class="st10" d="M526.3,181.1c-3.7,0.5-7.4-0.4-10.9-1.5c0,0,0,0,0,0c-0.2-0.1-0.4-0.1-0.6-0.2c-6.6-2.5-20.7-21.7-20.7-21.7
		c29,5.6,33.9,13.4,34.3,20.7c-2.9,0.9-4.7,1.2-4.7,1.2C524.6,180.1,525.5,180.6,526.3,181.1L526.3,181.1z"/>
	<circle cx="564.3" cy="278.6" r="1.3"/>
	<path class="st1" d="M533.1,262.2c0.2-3.6-16.7-5-16.7-5c2.5-0.8,10-3.1,15-4.7c5-1.6,15.7,6.1,17.8,10.6c-1.3-0.4-2.6-0.8-3.9-1.2
		C540.4,260.7,536.5,261,533.1,262.2L533.1,262.2L533.1,262.2z"/>
	<path class="st0" d="M531.5,296.6c3,0.5,6.5,1.2,10.3,1.6c-8,5.9-19.7,12.3-34.5,8.7c0,0,16.1-7.6,16.5-11.9
		C526.2,295.6,528.8,296.1,531.5,296.6z"/>
	<path class="st2" d="M511.9,283.5c19.1,8.1,41.3,8.5,60.7,1.2c-10,13.2-21.3,14.5-30.8,13.5c-3.8-0.4-7.2-1.1-10.3-1.6
		c-2.7-0.4-5.3-0.9-7.8-1.6c-6.6-1.8-12.6-4.8-18.6-11.5c-0.7-0.8-1.4-1.6-2.1-2.5l0.4-0.3C506.4,280.9,509.2,282.3,511.9,283.5z"/>
	<path class="st3" d="M564.3,279.9c0.7,0,1.3-0.6,1.3-1.3c0-0.7-0.6-1.3-1.3-1.3c-0.7,0-1.3,0.6-1.3,1.3
		C563,279.4,563.6,279.9,564.3,279.9z M503.6,278.8c4.2,0.2,6.9-1.5,12.5-4.9c6.1-3.7,10.4-9.3,17-11.6c3.3-1.2,7.2-1.5,12.3-0.3
		c1.3,0.3,2.6,0.7,3.9,1.2c13.6,4.8,26.5,16.8,26.5,16.8c-1,1.7-2.1,3.3-3.2,4.7c-19.4,7.3-41.6,7-60.7-1.2
		c-2.8-1.2-5.5-2.5-8.5-2.8L503,281c-0.6-0.8-1.2-1.6-1.9-2.5C502,278.7,502.9,278.8,503.6,278.8z"/>
	<path class="st5" d="M491.6,256.8c7.4,5.9,10.5,15.9,12.1,22c-0.8,0-1.6-0.1-2.5-0.2c-2.3-1.2-9.5-3.9-15.3-5.6
		c-3.4-2.5-6.8-6.1-9.3-11.4c-8-16.7-6.1-28.3-6.1-28.3C473.5,243.2,484.2,250.9,491.6,256.8z"/>
	<path class="st4" d="M505.1,283.5c-9.1,4.9-24,1.3-27.3-0.4c-3.3-1.7-16-9.3-15.9-17.6c0,0,10.5,5.2,17.7,6
		c1.5,0.2,3.8,0.7,6.2,1.4c7.5,5.5,15.3,5.6,15.3,5.6c0.6,0.9,1.2,1.7,1.9,2.5C503.7,281.9,504.4,282.7,505.1,283.5z"/>
	<path class="st4" d="M485.8,272.9c5.8,1.7,13,4.4,15.3,5.6C501.1,278.6,493.3,278.4,485.8,272.9z"/>
	<path class="st3" d="M530.5,102.9c0.2-0.7-0.3-1.4-1-1.5c-0.7-0.2-1.4,0.3-1.6,1c-0.2,0.7,0.3,1.4,1,1.5S530.3,103.7,530.5,102.9z
		 M509.3,119.9c-11.6,2.1-25-3.7-37.9-5.4c1.4-0.1,2.7-0.3,3.8-0.5c9.4-1.6,12.6-5.3,16-8.8c2.1-2.2,4.3-4.4,8.1-5.9
		c0.6-0.2,1.2-0.4,1.9-0.6c12.8-3.8,29,0,34.5,2.2c0,0,0.4,4.1-2.3,9l-0.1-0.1v0C531.3,113.8,513.8,119,509.3,119.9z"/>
	<path d="M529.5,101.4c0.7,0.1,1.2,0.8,1,1.5c-0.2,0.7-0.9,1.2-1.6,1s-1.2-0.8-1-1.5C528.1,101.7,528.8,101.2,529.5,101.4z"/>
	<path class="st0" d="M474.8,127.3c0.9,0.2,12.6,2.7,19.1-1.1v0c3,0.3,6.4,0.3,9.9-0.2v0.1c-2.5,4.1-7.7,4.5-12.9,5
		C485.7,131.6,477.7,129.7,474.8,127.3z"/>
	<path class="st1" d="M499.3,99.2c-3.8,1.5-6,3.6-8.1,5.9c-7.3,3.5-17.5-0.8-18.5-1.3C478.2,105.9,490.8,99.5,499.3,99.2z"/>
	<path class="st2" d="M475.7,119.1c-1.9-1.5-3.5-3.1-4.7-4.6c0.2,0,0.3,0,0.4-0.1c12.9,1.7,26.4,7.6,37.9,5.4
		c4.4-0.8,21.9-6.1,23.9-10.1v0l0.1,0.1c-2.6,4.8-8,10.4-19.3,14c-3.6,1.2-7,1.9-10.1,2.3c-3.6,0.5-6.9,0.5-9.9,0.2
		C486,125.5,480,122.5,475.7,119.1z"/>
	<path class="st5" d="M454.6,108c7.8-0.7,19.4,3.2,20.6,5.9c-1.2,0.2-2.4,0.4-3.8,0.5c-6.1-0.8-12-0.7-17.6,1.5l-1.6-0.1
		c-2.2-1.4-10.7-7.2-11.2-11.8C441,104,446.7,108.7,454.6,108z"/>
	<path class="st11" d="M475.7,119.1c-9.2,3.7-19.7,4.6-27.8,2.7c-8.1-1.9-13.8-6.6-17.1-14.2c0.8,0.5,14.2,9.2,21.8,8.5
		c0,0-0.2-0.1-0.5-0.3l1.6,0.1c5.6-2.2,11.5-2.3,17.6-1.5c-0.1,0-0.3,0-0.4,0.1C472.2,116,473.8,117.6,475.7,119.1z"/>
	<path class="st9" d="M405.2,147.9c1.8,0.3,3.2,0.6,4.3,1.1c7.3,3.4,24,23,20.8,32.3c-0.7,1.9-2.2,3.4-4.5,4.4
		c-13.4-1.3-26.5-5.1-39.5-8.9c-4.7-1.4-9.4-2.7-14.1-4.1c-3.8-1.1-7.7-2.2-11.3-3.9c-5.7-2.7-10.7-6.6-15.5-10.6h0v0l0-0.1
		c4.2-1.3,9.4-3,15.3-5c2.5-0.9,5.2-1.6,8.1-2.3C381.4,148,396.8,146.7,405.2,147.9z M417.2,174.5c1.4-0.1,2.4-1.3,2.3-2.7
		c-0.1-1.4-1.3-2.4-2.7-2.3c-1.4,0.1-2.4,1.3-2.3,2.7C414.6,173.6,415.8,174.6,417.2,174.5z"/>
	<path d="M419.5,171.8c0.1,1.4-0.9,2.6-2.3,2.7c-1.4,0.1-2.6-0.9-2.7-2.3c-0.1-1.4,0.9-2.6,2.3-2.7
		C418.2,169.4,419.4,170.4,419.5,171.8z"/>
	<path class="st6" d="M382.5,185.5c1.9,0.3,3.9,0.6,5.8,0.9c-8.8,2.4-32.2,12.3-43.8,7.3c0,0,8.3-2,12.6-5.7
		c4.2-3.6,5.8-4.9,9.7-7.1C371.9,183,377.2,184.7,382.5,185.5z"/>
	<path class="st7" d="M351.3,136.8c4.8,5.4,16.6,8,30,7.6c11.1-0.3,18.9,0.6,23.9,3.5c-8.4-1.3-23.8,0-36.4,3
		c-1.2-0.8-3.4-1.7-8-3.5C351.3,144,351.3,136.8,351.3,136.8z"/>
	<path class="st8" d="M366.8,180.9c-12.1-5-22.9-12.4-29.4-17c-1.2-0.9-2.3-1.7-3.2-2.3c0,0,0.7-0.2,2-0.6c0.9-0.3,2-0.6,3.4-1
		c1.6-0.5,3.5-1.1,5.7-1.8l0,0.1v0h0c4.9,4,9.8,8,15.5,10.6c3.6,1.7,7.5,2.8,11.3,3.9c4.7,1.4,9.4,2.7,14.1,4.1
		c13,3.8,26,7.5,39.5,8.9c-7.6,3.5-22.9,2.6-37.5,0.6c-1.9-0.3-3.9-0.6-5.8-0.9C377.2,184.7,371.9,183,366.8,180.9z"/>
	<path class="st6" d="M337.5,163.8c-18.7,5.1-29.7-7-29.7-7c8.7-1.8,13.3-1.9,15.8-1.5c4.3,1.7,8.5,3.6,12.7,5.7
		c-1.3,0.4-2,0.6-2,0.6C335.2,162.2,336.2,163,337.5,163.8z"/>
	<path class="st10" d="M323.6,155.3c2.3,0.3,2.7,1,2.7,1c1.3-3.1-9-17.3-9-17.3c17.5,5.5,21.5,17.2,22.4,21.1
		c-1.4,0.4-2.5,0.7-3.4,1C332.1,158.9,327.9,157,323.6,155.3z"/>
	<path d="M447.3,305c1,2.3-0.1,4.9-2.3,5.9s-4.9-0.1-5.9-2.3c-1-2.3,0.1-4.9,2.3-5.9C443.6,301.7,446.3,302.7,447.3,305z"/>
	<path class="st7" d="M353.5,256.1c7.1,7.4,22.3,10.6,38.5,9.6c16.3-1,27.2,0.7,34.1,7l0,0.1c-8.7-2.7-19-3.6-30.2-0.6
		c-5,1.4-10.5,2.8-16.2,4.2c-1.3-1.3-3.8-2.6-12-5.6C355.3,266.2,353.5,256.1,353.5,256.1z"/>
	<path class="st6" d="M369.5,317.2c8.9,4.3,18.1,8.1,26.6,10.4c-15.5,3.9-44,12-58.2,4.7c0,0,12.1-2,18.8-6.9
		C362.4,321.3,365,319.5,369.5,317.2z"/>
	<path class="st9" d="M379.7,276.4c5.7-1.4,11.3-2.9,16.2-4.2c11.1-3,21.4-2.1,30.2,0.6c12.6,4,21.9,11.8,25.3,16.7
		c5.8,8.4,19.8,30.6,13.2,37.9c-0.4,0.4-0.9,0.8-1.4,1.2c-4-2.1-8.6-2.9-13.1-3.7c-10.8-1.9-21.6-3.7-32.4-5.6
		c-3.8-0.7-7.6-1.3-11.2-2.7c-5.2-1.9-9.8-5.2-14.8-7.6c-12.6-6.2-27.4-7.1-39.9-13.5c-4.4-2.3-8.6-5.4-11-9.7h0l-0.1-0.3
		C351.6,283.1,366.2,279.8,379.7,276.4z M444.9,310.9c2.3-1,3.3-3.6,2.3-5.9c-1-2.3-3.6-3.3-5.9-2.3c-2.3,1-3.3,3.6-2.3,5.9
		C440,310.8,442.6,311.9,444.9,310.9z"/>
	<path class="st8" d="M369.5,317.2c-15.6-7.6-30.4-16.9-39.5-23.8c-2.1-1.6-3.9-3.1-5.3-4.4c0,0,1.7-0.3,4.6-1
		c0.6-0.1,1.2-0.3,1.9-0.4c2.6-0.6,5.9-1.3,9.7-2.1l0.1,0.3h0c2.3,4.4,6.5,7.5,11,9.7c12.5,6.5,27.3,7.3,39.9,13.5
		c5,2.5,9.6,5.7,14.8,7.6c3.6,1.3,7.4,2,11.2,2.7c10.8,1.9,21.6,3.7,32.4,5.6c4.5,0.8,9.1,1.6,13.1,3.7c-8,5.9-29.3,4.6-55.2,1.5
		c-3.7-0.4-7.7-1.3-11.9-2.5C387.6,325.3,378.4,321.5,369.5,317.2z"/>
	<path class="st10" d="M331.2,287.6c-0.7,0.2-1.3,0.3-1.9,0.4c-2.2-0.3-4.4-0.7-6.6-1.1c-1.9-0.4-3.8-0.8-5.7-1.5
		c-1.2-0.4-2.2-1-3.3-1.6c-1.3-5.2-14.6-26.2-14.6-26.2C325.9,266.6,328.1,276.6,331.2,287.6z"/>
	<path class="st6" d="M330,293.4c-25.5,11.3-52.6-15.5-44.3-11.5c0.6,0.3,1.3,0.6,2,0.8c9.1,3,26.1,1.2,26.1,1.2
		c0-0.1,0-0.1-0.1-0.2c1,0.6,2.1,1.2,3.3,1.6c1.8,0.7,3.8,1.2,5.7,1.5c2.2,0.4,4.4,0.8,6.6,1.1c-2.9,0.6-4.6,1-4.6,1
		C326.1,290.3,327.9,291.8,330,293.4z"/>
	<circle cx="290.9" cy="97.3" r="2.6"/>
	<path class="st1" d="M249.1,50.8c14.1,1.1,23.2,3.8,28,9.5c-10.9-5.2-22.7-4.3-29.8-2.1c-2.4,0.8-5.7,1.3-9.5,1.7
		c-1.1-2.3-0.4-2.7-10.3-7.8c-9.6-5-9.7-13-9.7-13.4C222.7,45.4,235.1,49.8,249.1,50.8z"/>
	<path class="st0" d="M228.5,94.5c8.6,8.6,16.6,15.1,24.2,18.5c-12.2-1.7-47.9-1.5-60.1-14.2c0,0,11.6,1.9,19.1-0.5
		C219.3,96,222,95.2,228.5,94.5z"/>
	<path class="st5" d="M192.1,35.7c11.5,6.5,11.7,19.1,13.5,24.6c-2.6-0.1-5.1-0.3-7.2-0.4l-0.7-0.6c-5.2-2.6-10.5-2.6-15.7-5.2
		l-0.9-1.1c-6.6-3.4-9.6-12-12.2-19.9s-2.6-18.4,0-28.9C171.4,14.6,183.9,31.1,192.1,35.7z"/>
	<path class="st3" d="M293.5,97.3c0-1.4-1.2-2.6-2.6-2.6s-2.6,1.2-2.6,2.6s1.2,2.6,2.6,2.6S293.5,98.8,293.5,97.3z M198.9,60.6
		c-0.2-0.2-0.4-0.5-0.6-0.7c2.2,0.2,4.6,0.3,7.2,0.4c10.2,0.5,22.8,0.6,32.3-0.4c3.8-0.4,7.1-0.9,9.5-1.7c7.1-2.3,18.9-3.1,29.8,2.1
		c4.4,2.1,8.6,5.1,12.3,9.5c12,14,11.2,35.6,10.9,38.8c-16.2-3.5-32.7-7.3-46.6-16.2c-5.1-3.3-9.7-7.2-14.6-10.7
		C227,72.7,213.4,65.5,198.9,60.6z"/>
	<path class="st2" d="M206.5,69.7L206.5,69.7c-2.5-2.9-5-6-7.5-9.1c14.4,4.9,28.1,12,40.3,21.1c4.9,3.6,9.5,7.5,14.6,10.7
		c13.9,8.9,30.4,12.7,46.6,16.2c0,0.3,0,0.4,0,0.4c-10,3.2-15.9,6.4-35,6.9c-4.1,0.1-8.3-0.9-12.7-2.9c-7.6-3.5-15.6-9.9-24.2-18.5
		C221.6,87.5,214.3,79.1,206.5,69.7z"/>
	<path class="st4" d="M198.3,59.9c0.2,0.2,0.4,0.5,0.6,0.7c2.6,3.2,5.1,6.2,7.5,9.1c-1.7,0.5-8.5,10.9-25.9,8.1S155,66.6,150.3,51.6
		c-4.7-15-2.5-29.1-2.5-29.1c2.6,5.2,5.2,15.7,11.8,23.4c5.6,6.6,21.4,7,21.4,7l0.9,1.1c5.2,2.6,10.5,2.6,15.7,5.2L198.3,59.9z"/>
	<path class="st3" d="M288.1,228.8c1.4-0.2,2.5-1.5,2.3-2.9c-0.2-1.4-1.5-2.5-2.9-2.3c-1.4,0.2-2.5,1.5-2.3,2.9
		C285.4,228,286.7,229,288.1,228.8z M298.6,236.4c-16.5-1.5-33.3-3.4-48.2-10.6c-5.4-2.6-10.5-6-15.7-9c-13.3-7.5-27.7-13-42.6-16.2
		c-0.2-0.2-0.4-0.4-0.7-0.6c2.2-0.1,4.6-0.2,7.3-0.4c10.2-0.7,22.7-2.1,32-4.2c3.7-0.8,6.9-1.8,9.2-2.8c6.9-3.1,18.5-5.4,29.9-1.5
		c4.6,1.5,9.1,4.1,13.3,8C296.8,211.6,298.5,233.3,298.6,236.4z"/>
	<path d="M285.2,226.5c-0.2-1.4,0.9-2.8,2.3-2.9c1.4-0.2,2.7,0.8,2.9,2.3c0.2,1.4-0.9,2.8-2.3,2.9C286.7,229,285.4,228,285.2,226.5z
		"/>
	<path class="st2" d="M250.5,225.8c14.9,7.2,31.7,9.1,48.2,10.6c0,0.2,0,0.4,0,0.4c-9.6,4.3-15,8.2-33.9,10.9
		c-4.1,0.6-8.4,0.1-12.9-1.4h0c-8-2.5-16.7-8-26.2-15.6h0c-7.7-6.1-16-13.5-24.8-21.9c-2.8-2.7-5.6-5.4-8.6-8.2
		c14.9,3.2,29.3,8.7,42.6,16.2C240,219.8,245,223.1,250.5,225.8z"/>
	<path class="st0" d="M251.8,246.3c-12.3-0.3-47.7,4.1-61.3-7c0,0,11.7,0.5,18.9-2.7c7.2-3.2,9.8-4.4,16.2-5.9h0
		C235.1,238.3,243.8,243.7,251.8,246.3z"/>
	<path class="st1" d="M240.9,185c14.1-0.6,23.4,1,29,6.1c-11.4-3.9-23-1.6-29.9,1.5c-2.3,1-5.5,1.9-9.2,2.8
		c-1.4-2.2-0.8-2.6-11.2-6.6c-10.4-3.9-11.2-12.2-11.2-12.2C214,182.7,226.8,185.6,240.9,185z"/>
	<path class="st5" d="M182.5,176.7c12.2,5.1,13.8,17.6,16.3,22.9c-2.6,0.2-5.1,0.3-7.3,0.4l-0.7-0.6c-5.5-2-10.7-1.4-16.2-3.4
		l-5.1-0.8c2.4,0,4.1-0.2,4.1-0.2c-6.9-2.6-10.9-10.8-14.5-18.3c-3.5-7.5-4.8-17.9-3.4-28.7C159.4,158.2,173.8,173.1,182.5,176.7z"
		/>
	<path class="st4" d="M192.1,200.6c2.9,2.8,5.8,5.5,8.6,8.2c-1.6,0.7-7.1,11.8-24.7,11.1c-17.6-0.7-26.7-8.2-33.1-22.5
		c-6.5-14.4-5.9-28.5-5.9-28.5c3.2,4.9,7.1,15,14.4,21.8c4.3,3.9,12.9,4.6,18,4.6l5.1,0.8c5.5,2,10.7,1.4,16.2,3.4l0.7,0.6
		C191.7,200.2,191.9,200.4,192.1,200.6z"/>
	<path class="st9" d="M132.5,277c0,1.9,1.5,3.5,3.5,3.5c1.9,0,3.5-1.5,3.5-3.5s-1.6-3.5-3.5-3.5C134.1,273.5,132.5,275.1,132.5,277z
		 M121.5,243.9c10.6,3.6,17.3,10.6,20,14.4c3.9,5.5,14.9,24,13.2,31.3l-1.2,0.5c-6.6,1.2-13.3-0.8-19.6-3.3
		c-6.2-2.4-12.4-5.4-19-6.2c-4.1-0.5-8.3-0.2-12.4-0.9c-4-0.7-7.7-2.4-11.3-4.1c-14.4-6.6-28.9-13.3-43.3-19.9
		c10.1-2.3,21.2-6.2,33-9.4c6.2-1.7,12.7-3.2,19.2-4.2C108.4,240.8,115.5,241.8,121.5,243.9z"/>
	<circle cx="136" cy="277" r="3.5"/>
	<path class="st7" d="M92.7,237.2c13.8,0.1,23.1,1.9,28.8,6.7c-5.9-2-13.1-3-21.3-1.8c-6.6,1-13,2.5-19.2,4.2
		c-0.9-1.4-2.2-2.5-10.7-6.1c-10.7-4.6-11.2-13.3-11.2-13.3C64.7,233.5,77.9,237.1,92.7,237.2z"/>
	<path class="st6" d="M73.2,281.9c6.8,3.5,14.3,6.7,22.5,9.2c-12,2.7-35,9.1-47,2.6c0,0,9.6-1.4,14.6-5.2
		C67.7,285.1,69.6,283.6,73.2,281.9z"/>
	<path class="st10" d="M29,235.5c8.2,6.8,12.2,10.8,13.5,21.2c-1.2,0.2-2.5,0.4-3.7,0.5c-2.7-0.7-5.4-1.6-8-2.6
		c-1.4-0.5-2.8-1.1-3.7-2.2c0.2,0,0.3,0.1,0.3,0.1c-1-2-6.2-11-7.3-14.9c-1.1-4-8.3-12.8-8.3-12.8C14.8,227.8,20.8,228.7,29,235.5z"
		/>
	<path class="st8" d="M38.8,257.3c1.2-0.1,2.4-0.3,3.7-0.5c1.8-0.3,3.6-0.6,5.4-1.1c14.4,6.6,28.9,13.2,43.3,19.9
		c3.6,1.7,7.3,3.4,11.3,4.1c4.1,0.8,8.3,0.4,12.4,0.9c6.6,0.8,12.8,3.8,19,6.2c6.2,2.4,13,4.4,19.6,3.3l1.2-0.5
		c-0.1,0.5-0.3,1-0.6,1.4c-0.1,0.2-0.2,0.3-0.4,0.5c-4.7,5.8-25.3,8.8-54.6,0.6c-1.2-0.3-2.4-0.7-3.5-1c-8.2-2.5-15.7-5.7-22.5-9.2
		C58.9,274.5,48,266,41.4,260.1c-1.1-1-2.2-1.9-3-2.8C38.5,257.3,38.7,257.3,38.8,257.3z"/>
	<path class="st6" d="M38.4,257.3c0.9,0.8,1.9,1.8,3,2.8c0,0-7.8,6.3-23-0.4S4.2,249,4.2,249c8.3,0.8,20.8,3.1,22.8,3.5
		c0.9,1.1,2.4,1.7,3.7,2.2c2.6,1,5.3,1.9,8,2.6C38.7,257.3,38.5,257.3,38.4,257.3z"/>
</g>
<g id="Layer_2">
	<path class="st12" d="M167,281.1c-2.2,0-3.3,1.1-3.1,2.7c-1.3,3.3,3.5,7,6.4,4.8S170.5,280.7,167,281.1"/>
	<path class="st13" d="M441.6,171.2c0,4.4,8.3,7.1,9.8,4.7c1.4-2.3-0.2-5.5-2.6-6.5C446.3,168.4,443.8,167.9,441.6,171.2"/>
	<path class="st13" d="M184.2,278.2c-0.5,2.1-0.4,3.3,0.3,5.4s3.2,3.7,5.1,2.6c1.9-1.1,2.8-7.5,1.2-9.1
		C189.3,275.5,186.4,276,184.2,278.2"/>
	<path class="st12" d="M431.8,151.5c-1.9,2.8,0,7.2,3.4,7.7c3.3,0.5,6.5-3.1,5.6-6.4c-0.9-3.2-5.6-4.6-8.1-2.3"/>
	<path class="st14" d="M160.3,250c-2.2,3.3,0.8,7.7,2,8c1.2,0.2,2.4-0.5,3.2-1.3c1.6-1.8,2.1-4.7,0.6-6.5s-4.9-1.8-6,0.3"/>
	<path class="st14" d="M313.3,95.3c1.2,3.6,10.6,4.5,12.3,1.1c1.7-3.4-1.4-7.9-5.1-8.1C316.8,88.1,313.6,91.5,313.3,95.3"/>
	<path class="st15" d="M279.2,150.3c-1.1,1.2-1.3,3.9-0.1,5s2.9,1.4,4.5,1.4c1.7-0.1,3.6-0.6,4.3-2.1
		C289.2,152.2,282.6,145.9,279.2,150.3"/>
	<path class="st15" d="M309.1,73.2c0,3.3,3.9,4.5,5.9,3.8s3.3-3.2,2.2-5S309.1,68.8,309.1,73.2"/>
	<path class="st14" d="M534.9,86.1c1,1.9,4.2,2.2,5.5,0.5c1.3-1.7,0.3-4.7-1.9-5.2s-4.4,1.7-4,3.9"/>
	<path class="st12" d="M332.1,64.1c-0.8,1,1.1,6.1,2.1,6.9c1,0.8,2.5,0.8,3.6,0.3c2.8-1.1,3.9-5,2.3-7.5
		C338.5,61.3,334.2,62,332.1,64.1"/>
	<path class="st12" d="M566.2,233.2c-1,1-3.6,3.7-4,5c-1.3,3.8-1,6.3,2.4,8.5c2.3,1.5,5.4,0.6,7.4-1.2s3-4.4,4-6.9
		c0.4-0.9,0.8-2,0.5-2.9c-0.3-0.9-1-1.6-1.8-2.1C571.5,231.5,568.2,231.2,566.2,233.2"/>
	<path class="st13" d="M762.2,295.2c1.6,0.7,4.8-0.8,4.5-2.5c-0.3-1.8-3.2-1.7-4.5-0.5C761.2,293.2,761.2,294.2,762.2,295.2"/>
	<path class="st15" d="M860.2,61.2c1,2,4.9,2.3,7,2c1-0.2,4-1,4-3c0-3-0.5-4.3-2.2-5.8c-1.6-1.4-4.4-0.3-6,1.1
		C861.4,57,859.2,59.2,860.2,61.2"/>
	<path class="st14" d="M584.2,262.2c1.4,1.1,4.9-2,4.5-3.7s-2.8-2.6-4.2-1.5C583,258,582.2,261.2,584.2,262.2"/>
	<path class="st14" d="M875.2,195.2c1.4,1.1,4.9-2,4.5-3.7s-2.8-2.6-4.2-1.5C874,191,873.2,194.2,875.2,195.2"/>
	<path class="st14" d="M725.2,67.2c-1,1-1.7,1.8-1,3.5c0.6,1.7,2.7,3.1,4.4,2.4c1.6-0.7,2-3.1,1-4.5
		C728.4,67.2,726.8,66.6,725.2,67.2"/>
	<path class="st14" d="M741.2,275.2c-1,1-1.7,1.8-1,3.5c0.6,1.7,2.7,3.1,4.4,2.4c1.6-0.7,2-3.1,1-4.5
		C744.4,275.2,742.8,274.6,741.2,275.2"/>
	<path class="st12" d="M879.2,26.2c-1,1-3.6,3.7-4,5c-1.3,3.8-1,6.3,2.4,8.5c2.3,1.5,5.4,0.6,7.4-1.2s3-4.4,4-6.9
		c0.4-0.9,0.8-2,0.5-2.9c-0.3-0.9-1-1.6-1.8-2.1C884.5,24.5,881.2,24.2,879.2,26.2"/>
	<path class="st13" d="M863.2,171.2c1.6,0.7,4.8-0.8,4.5-2.5s-3.2-1.7-4.5-0.5C862.2,169.2,862.2,170.2,863.2,171.2"/>
	<path class="st15" d="M877.2,167.2c1,2,4.9,2.3,7,2c1-0.2,4-1,4-3c0-3-0.5-4.4-2.2-5.8c-1.6-1.4-4.4-0.3-6,1.1
		S876.2,165.2,877.2,167.2"/>
	<path class="st14" d="M653.7,156.6c-1.9,2.9,0.3,7.4,3.7,8.1c3.4,0.7,6.8-0.9,9.8-2.6c1.2-0.6,2.1-3.1,2.1-4.4
		c0-1.3-2.2-3.8-3.3-4.4C662.4,151.4,657,154.3,653.7,156.6"/>
</g>
</svg>
