<?xml version="1.0" encoding="utf-8"?>
<!-- Generator: Adobe Illustrator 22.1.0, SVG Export Plug-In . SVG Version: 6.00 Build 0)  -->
<svg version="1.1" id="Layer_1" xmlns="http://www.w3.org/2000/svg" xmlns:xlink="http://www.w3.org/1999/xlink" x="0px" y="0px"
	 viewBox="0 0 1280 502" style="enable-background:new 0 0 1280 502;" xml:space="preserve">
<style type="text/css">
	.st0{fill:#002136;}
</style>
<g>
	<path class="st0" d="M1172,124c1.1,0.6,1.3,2.3,0.7,4c-3.1-1.4-7.1-3.1-9.8-4.2c0.1-1.6,0.1-2.8,0.1-2.8S1170,123,1172,124z"/>
	<path class="st0" d="M1163.2,104.9c0.1,2.2-0.2,5.3-0.2,8.1c0,0.4-0.1,0.9-0.2,1.3c-2.6-1.6-5.5-2.9-9-3.2c1-1.9,2.4-4,4.2-6.1
		c0.5-0.5,0.9-1,1.3-1.4C1160.6,104.1,1161.9,104.5,1163.2,104.9z"/>
	<path class="st0" d="M1163.2,104.9c-1.3-0.4-2.7-0.9-4-1.3C1162.4,100.5,1163.2,101.9,1163.2,104.9z"/>
	<path class="st0" d="M1153.8,111.1c3.5,0.3,6.4,1.7,9,3.2c-0.6,2.3-2.7,5.2-5.2,8.1c-1.9-0.6-4.6-1.5-7.3-2.5
		C1151.1,118,1151.9,114.7,1153.8,111.1z"/>
	<path class="st0" d="M1152,111c0.6,0,1.2,0,1.8,0.1c-1.9,3.7-2.8,6.9-3.5,8.9c-4.7-1.8-9.3-3.9-9.3-5C1141,113,1145,111,1152,111z"
		/>
	<path class="st0" d="M1133.7,93.1c0.2,1,0.3,2.1,0.4,3.3c-2.2-0.4-4.3-0.8-5.7-1.2c0-0.7,0-1.3,0.1-1.9
		C1129.8,93.1,1131.6,93.1,1133.7,93.1z"/>
	<path class="st0" d="M1133.7,93.1c-2,0-3.9,0-5.2,0.2c0.2-1.9,0.8-3.3,2.6-3.3C1132.4,90,1133.2,91.3,1133.7,93.1z"/>
	<path class="st0" d="M1128.4,93.3c-0.1,0.6-0.1,1.3-0.1,1.9c-1.4-0.4-2.3-0.8-2.3-1.2C1126,93.6,1126.9,93.4,1128.4,93.3z"/>
	<path class="st0" d="M1047.3,183.6l0.1,2.6c-3.4-0.9-7.6-1.3-9.4-1.3c-3,0-5-4-4-7s5,2,9,4C1044.8,182.9,1046.3,183.6,1047.3,183.6
		z"/>
	<path class="st0" d="M910,227c2,0,0,16,0,17l-2.6,0.3c-0.8-5.5-1.8-11.2-2.4-13.3C904,227,908,227,910,227z"/>
	<path class="st0" d="M574,331c-0.7,0.7-1.5,1.3-2.5,1.9c-0.6-1.2-1.2-2.4-1.8-3.5C570.9,329.8,572.3,330.4,574,331z"/>
	<path class="st0" d="M568.7,334.2c-0.5-2.1-1.3-4.4-2.1-6.2c0.8,0.4,1.8,0.8,3.1,1.3c0.6,1.2,1.3,2.4,1.8,3.5
		C570.7,333.4,569.7,333.8,568.7,334.2z"/>
	<path class="st0" d="M566,321c0,1.5,1.8,4.8,3.7,8.3c-1.3-0.5-2.3-1-3.1-1.3c-0.5-1.2-1.1-2.3-1.6-3c-2-3-1-7-1-10s-3-12-3-12
		C565,306,566,318,566,321z"/>
	<path class="st0" d="M197.7,209.6c-2.9-2.6-7-7.8-7.7-8.6c-1-1,4-8,6-1c1.4,5,3.4,7.5,4.4,8.5L197.7,209.6z"/>
	<path class="st0" d="M1097.9,188.2c-0.1-2-0.1-4-0.2-6c0-0.2,0-0.4-0.1-0.5c-0.2-0.2-0.7,0-0.9,0.3c-0.8,0.8-1.4,1.6-2.1,2.5
		c-0.1,0.1-0.2,0.3-0.2,0.4c0,0.2,0.1,0.4,0.2,0.6c0.7,0.9,1.5,1.9,2.3,2.8L1097.9,188.2z M1111.5,185.5c0,1.3,0.3,2.6,0.9,3.7
		c0.1,0.1,0.1,0.2,0.2,0.2c0.1,0.1,0.2,0.1,0.4,0c1.1-0.1,2.1-0.2,3.2-0.3c-1.3-1.3-2.7-2.6-4.2-3.7H1111.5z M1091.2,256.5
		c0.8-1.3,1.7-2.4,2.8-3.4c-1.3-1.9-4.1-2.1-6.4-2.4c-2.6-0.4-5.1-1.4-7.5-2.4c-1.2-0.5-2.5-1-3.6-1.8c-1.1-0.9-2-2.1-2.7-3.3
		c-0.4-0.8-0.8-1.6-1.2-2.3c-0.2-0.4-0.4-0.8-0.3-1.2c0-0.6,0.6-1.2,1.1-1.5c1.5-0.7,3.3,0.1,4.6,1.2c1.2,1.1,2.2,2.6,3.5,3.6
		c0.2,0.2,0.4,0.3,0.7,0.3c0.6,0,0.8-0.7,0.8-1.2c0-2.1-1.8-3.8-3.6-5.1c-3-2.2-6.3-4.1-8.2-7.3c-0.2-0.3-0.3-0.6-0.4-0.9
		c-0.1-1,1-1.7,1.9-1.9c2.9-0.7,5.9,0.7,8.1,2.7c2.2,2,3.7,4.6,5.4,7.1c2.7,4,5.9,7.6,9.2,11.2c0.2,0.2,0.3,0.4,0.6,0.4
		c0.2,0,0.3-0.1,0.5-0.2c3-2.2,5.9-4.5,8.8-6.9c0.3-0.2,0.6-0.5,0.6-0.9c0-0.3-0.2-0.5-0.3-0.7c-2.7-3.9-6.3-7.1-10.5-9.3
		c-2.6-1.4-5.5-2.4-7.9-4.1c-2.5-1.7-4.6-4.2-4.8-7.2c-0.2-2.2,0.7-4.3,1.6-6.3c-2.9-0.5-5.6-1.6-8.1-3.1c-1.1-0.6-2.1-1.4-2.6-2.6
		c-0.5-1.1-0.2-2.7,1-3.2c0.3-0.1,0.6-0.2,0.8-0.2c0.8,0,1.5,0.4,2.2,0.7c2.1,1.1,4.3,2.2,6.4,3.3c0.3-1.2,0.5-2.4,0.5-3.6
		c0-0.4-0.1-0.7-0.2-1c-0.3-0.4-0.8-0.6-1.2-0.6c-2.3-0.4-4.8,0.1-7-0.4c-0.7-0.2-1.4-0.5-1.9-1c-0.6-0.5-1-1.2-1.5-1.8
		c-1.5-1.9-3.6-3.3-5.7-4.7c-0.8,5.1-1.6,10.3-1.8,15.5c-0.2,4.1-0.1,8.2,0.1,12.3c0.1,3.4,0.2,6.8,1.1,10.1
		c1.1,4.3,3.5,8.1,5.8,11.9c0.7,1.1,1.3,2.2,2.2,3.1c1.1,1.2,2.4,2.1,3.7,2.9c4,2.5,8.3,4.5,12.7,6L1091.2,256.5z M2,156
		c0,5,1,10,3,11s1-13,1-16s-4-20-1-25s10-2,14,2s2,32,1,35s0,12,3,11s2-6,3-13s9-8,12-6s3,12,0,17s-4,17-4,19s3-1,6-4s3-11,4-15
		s8-11,7-11s-9-6-10-7s2-2,5-3s2-3,2-6s-5-8-8-12s-3-11,0-13s8,2,9,8s3,9,6,9s4-22,6-33s6-12,11-12s2,18,0,28s-16,48-17,52
		s-3,14,0,17s12-15,12-18s9-15,10-18s3-14,8-16s7,2,8,5s-6,20-10,24s-4,11-4,12s10-1,10,1s-5,6-8,8s-6,4-6,10s6,6,8,5s4-10,5-13
		s6-3,8,0s0,13-3,17s-3,10-3,14s2,3,5,1s3-9,4-14s6-10,6-13s0-7-2-10s-6-14-7-17s-1-8,3-12s6,1,7,7s4,16,6,17s3-20,3-23s-3-6-4-11
		s0-7,3-8s6,1,6,4s1,6,2,5s2-16,6-16s5,2,5,9s-10,43-13,53s-10,24-13,27s-6,13-5,14s5-1,8-3s9-10,12-14s13-25,15-29s4-6,7-5
		s0,10-1,14s-12,29-12,30s9,0,11,1c0.7,0.3,0,1.4-1.2,2.8c-0.3,0-0.6,0-0.8,0.2c-0.2,0.2-0.4,0.6-0.4,1c-2.5,2.5-6.1,5.4-6.6,6
		c-1,1,8,0,10,0s0,7-2,12s-12,10-12,10c14-1,26,13,31,17s13,5,13,5s-4-2-7-4c-0.2-0.1-0.4-0.2-0.5-0.4l2.6-1.1
		c1.9,0.9,4.3,0.4,5,0.4c1,0-7-11-7-12s-4,1-5-1s2-4,3-4c0.1,0,0.1-0.3-0.1-0.7l2.7-0.3c0.2,0.4,0.4,0.8,0.5,1c2,4,12,19,12,19
		s-1-9-1-12s2-9,2-11s-7-9-9-11s-3-11-4-15s1-4,2-4s5,5,5,9s1,7,3,10s4,2,5-1s-3-10-4-12s-4-8-3-10s1-9,2-13s0-11-1-13s-4-6-1-7
		s5,0,7,4s0,20,0,22s-3,9-2,12s4,3,6,2s2-6,4-7c1.6-0.8,2.6,0.3,3.4,1.8c0.2,0.4,0.4,0.8,0.6,1.2c1,2-2,6-4,7s-5,5-3,7s4,0,7-2
		s3-8,4-11c-0.6,0-1.4-1-2.3-2.4c-1.9-3.1-4-8.2-4.7-9.6c-1-2,0-4,1-4s2,6,3,9s4,5,4,5c2-3,1-12,1-12c-0.5,0-1.3-0.6-2.3-1.4
		l2.6-1.1c0.4,0.4,0.6,0.5,0.6,0.5c4-2,1-9,1-11s-5-12-6-15s1-6,4-7s4,9,4,14s2,7,2,7c2-1,3-6,3-9s0-4,3-3s2,2,2,6s-2,9-5,13
		s0,5,3,7s6-4,6-7s0-5,3-7s3,0,3,5s-3,9-4,11s-11,6-13,9s-9,20-13,22s-8,12-9,14c-0.5,1-0.5,3.7-0.2,7.2c0.4,3.8,1.1,8.6,2.2,12.8
		c2,7.9,17.5,19.6,18,20c-1-1.1-11-20-12-22c-1-2-3-2-5-5c-1.4-2.1-1.8-4.1-1.9-5.9c-0.1-0.8-0.1-1.5-0.1-2.1c0-2,1-3,3-3s2,2,2,3
		s1,5,3,6c1-3-1-14-2-16s3-2,5-2s1,23,1,26s3,6,5,8s6,12,7,13s0-28,0-31s-4-6-4-11s2-8,6-11s4-6,7-9s9-7,13-8s5-5,5-7s4-5,6-7
		s3-1,4,3s-4,8-5,10s-16,11-18,14s-11,9-13,12s0,6,1,7s2-2,2-4s3-3,4-4s1,3,1,6s3,3,6,1s4-4,5-6s-3-5-3-7s4-5,5-4s0,8,2,9s2-3,3-7
		s3-5,4-6s3-7,7-8s5,1,6,3s-6,8-9,9s-3,6-3,7s4,0,8-3s5-2,8-1s1,2-4,5s-17,3-20,8s-8,6-14,9s-5,7-5,12s1,7,4,7s8-7,12-10s5-5,5-7
		s1-7,5-9s6,1,7,3s-2,5-5,7s-3,5-1,6s7-4,9-5s1,3,1,5s-7,3-10,4s-12,7-15,9s-9,11-10,12s22,3,28,4s26,8,29,8s3-7,3-10s-5-5-6-2
		s-4,4-7,3s-6-4-4-8s9-5,10-6s2-3,0-4s-6-2-7-2s-2-5,0-5s2-3,2-4s-5-2-8-3s-3-4-2-6s6-1,8-2s1-9,1-12s6-4,7-4s1,10,1,11s4,0,6,0
		s-1,10-2,11s4,1,5,2s-1,7-3,9s-2,3,1,4s4,6,3,9s2,5,4,7s7,6,10,4s0-7-2-10s0-4,2-4s2-3,2-4s-3-1-7-1s-6-3-7-5s0-7,3-8s-1-7-2-9
		s1-6,3-6c0.7,0,1.5,1.3,2.3,3.1c1.5,3.4,3,8.6,3.7,9.9c1,2,4,0,5,0s0-1,0-4s-3-4-5-5c-0.4-0.2-0.8-0.6-1-1.2c-1-2-1-5.7-1-8.8
		c0-4-4-8-5-11s-2-6,2-9s10-2,12-1s-1,8-2,9s3,1,6,1s3,1,3,4s1,5-4,5s-7,4-7,5s5,0,7,1s1,11,1,12s2,1,5-1s2-10,2-12s1-3,2-3
		s0-9,0-10s7-8,8-8s2,9,0,13s0,3,3,3s4,0,4,3s0,4-4,5s-5,3-5,7s0,10-4,12s-5,5-4,8s5,0,5,4s-5,5-9,6s-3,3,0,6s7,2,8,2s0-5,2-8
		s5-6,6-6s-1-4-1-7s0-5,2-8s16-4,17-4s1,7,1,8s-9,3-10,7s4,8,5,9s-8,5-13,7s-5,6-5,9s-4,8-4,8c9,2,12-8,12-11s11-4,13-4s3-9,3-10
		s2,7,2,11s-9,8-12,9s2,21,2,22s16-12,17-13s10,10,14,12c0,0-1-7-1-8s-7-9-9-14s-3-17-3-18s5-4,8-5s10-2,12-2s2,24,2,30s2,7,3,7
		s1-17,1-21s3-6,6-6s7,0,7,6s-2,17-3,22c2,0,4,1,9-2s7-9,10-13s5,1,8,5s-1,11-4,15s-6,8-6,12s11,8,19,10s18-4,19-7s6-2,9-2s3-3,3-5
		s1-3-4-3s-5-1-5-3s1-3-3-2s-4-1-2-4s1-4-2-4s-5,0-4-3s0-3-4-3s-6-1-5-5s-1-3-4-3s-4,0-4-2s-1-3-4-3s-4-2-4-3s-2-3-5-3s-4-2-4-5
		s0-4-2-5s-4-1-3-4s-1-5-4-6s-3-5-2-8s-1-4-3-8s-1-13-1-13c0,5,11,11,10,14s-2,5,1,5s2,2,2,3s4,0,7,0s2,1,2,5s9,1,8,4s0,7,4,7
		s3,3,3,6c3,1,8-3,8,0s1,6,4,7s4,0,4,4s2,4,4,4s3,2,3,4s1,4,6,3s5,2,5,4s1,3,5,3s5,2,4,6s3,4,7,5s4-3,3-6s0-4,2-4s2-4,2-8s2-5,3-6
		s-1-7-2-9s5-6,8-7s-2-6-3-8s-1-8,1-13s4-6,7-8c0-1,1-11,1-14s2-15,3-15s2,5,2,9s2,8,2,11s-2,8,0,11s0,6-3,9s6,8,3,11s-2,7-2,9
		s2,3,2,4s-4,1-6,3s0,7,2,10s0,8-2,9s-2,6,0,7s3,4-2,7s-3,9-1,10s12-9,14-11s2-7,3-7s1,1,2,5c2-2,6-4,8-4s4,2,6-1s5-4,6-4s-1,3,0,4
		s5-2,7-3s4,0,4,2s4,0,7,0s2,3,4,3s2-2,5-2c2,0,2.2,0.5,5.6,2c0.8,1.8,1.6,4,2.1,6.2c-4.4,1.8-9.7,2.5-11.7,1.8c-3-1-4,1-6,2
		s-3,0-5-1s-6,4-8,4s-9-3-10-3s-8,7-12,9s0,3,2,4s14,0,17,2s12,2,17,2s9,3,10,3s6-14,7-18c0.4-1.5,0.2-3.6-0.3-5.8
		c1-0.4,2-0.9,2.8-1.4c1.2,2.3,2.2,4.5,2.5,6.1c1,5-3,20-3,20c2-3,13-9,14-9s3-8,7-11s11-10,12-13s16-27,16-27c0,5-4,15-5,20
		s-11,13-14,16c1,1,0,7-4,9s-7,6-9,8s-3,10-4,11s25,0,28,0s23-17,24-19s7-18,10-22s5-16,6-17s1,16-2,19s-9,18-11,23s-14,17-14,17
		s10-1,15-1s17,4,18,4s2-2,5-3s3,1,3,3s2,2,3,2c2-7,7-10,8-10s1,7-1,11c0,0,4,0,8,0s2-9,2-13s6-7,7-7s-1,10-1,11s4,0,6-1s0,5-1,8
		s-1,3,3,3s7-17,8-19s4,1,4,5s-2,8-2,9s9-3,10-4s-1-6,4-9s5-13,5-19s-4-6-5-7s-1-8-1-10s2-4,5-5s2,8,2,10s5,2,5,6s3,6,4,6
		s-2-13-3-18s2-4,5-3s2,6,2,10s5,6,5,10s-5,7-9,8s-3,8-2,11s-1,6-3,9s-11,8-11,9s10,1,12,2s1,5,1,5c8-2,19,2,19,2c1-1-3-8-3-8
		c6,2,9,8,9,8h14c0-2-11-8-11-8c7,0,16,7,17,8s9,1,9,1c-1-3-37-25-37-25c3-1,33,16,33,16c-4-11-28-33-28-33c4-4,24,19,24,19
		c0-3-4-22-4-22c7,8,9,28,9,28c6,5,8,8,8,8c0-13-8-32-8-32c1,0,3,3,3,3c0-10-7-21-7-21c19,12,17,49,17,49c5-5,8-29,8-29
		c3,4,2,14,2,14c3-1,6-10,6-10c1,7.9-8.7,27.4-9,28c4-2,19-17,19-17c0,4-6,14-6,14c22-17,30-12,30-12c-13,3-26,18-26,18
		c4,1,16-8,16-8c0,2-6,10-6,10c3,0,11-9,11-9s-1,5-3,7s15-2,20-4s31-6,31-6c0-1-2-5-5-8s-14-1-18-2s-11-5-19-6s-15,2-17,3s-8-1-11-1
		s-2-4-1-6s14,4,14-1s-11-6-15-8s3-9,9-9s9,11,13,11s18,5,23,5s6-5,2-13s-19-8-23-9s-21-1-25-1s-21,6-22,1s7-6,13-4s7-8,0-8
		s-16-4-17-6s5-9,9-6s13,6,15,6s4,8,8,8s4-3,1-7s-1-5,3-5s5,9,4,13s15,3,17,3s0-4-2-6s-1-6,2-6s6,6,8,6s-1-6-4-10s-17-3-21-5
		s-22-3-28-5s-13-6-14-9s1-4,6-4s9,5,10,7s21-1,29,3s12,2,20,7s9,14,9,17s3,15,6,16c3,1,13.7,22.3,14,23c-2-6,1-28,0-32
		c-3-2-12-22-13-26s2-4,4-4s3,2,3,6s6,13,7,14s0-6-1-10s0-4,2-4s4,9,5,15s-2,31-2,37c0,5.8,4.7,8.8,5,9c-0.2-0.4-4.9-11.2,1-21
		c6-10,1-29-3-38s-20-17-26-17s-18-8-22-14s-17-3-23-4s-13-7-15-13s2-5,4-5s4,5,5,8s12,5,14-1s-12-12-16-17s-4-11-1-11s5,0,6,6
		s7,5,7,5c1-7-7-18-7-23s3-4,5-4s3,3,3,6s4,19,4,24s8,9,9,9s1-11,0-15s3-4,5-4s-1,18-1,23s12,19,22,22s7-6,7-7s-16-5-17-6s0-9,1-9
		s7,5,12,7s4-4,4-8s-7-9-12-14s-9-18-10-24s2-6,5-6s2,8,3,13s16,22,19,26s1,27,5,30s7-5,5-11s-3-17-3-19s4-3,5-1s2,12,4,19
		s-1,14-3,23c12,6,17,26,17,26c5-5-2-50-1-54c0.5-1.9,0-6.7-0.6-11.7l2.6-0.3c0,1,5-5,9-11s7-1,7,0s-9,11-10,12s8,0,8,3s-8,6-9,6
		s-1,22-1,23s7,0,7,4s-6,3-6,3l1,18c5,1,5-9,5-11s3-2,3,2s1,9-5,13s-6,9-6,12s-8,15-8,20s7,9,7,9s2-3,6-8s4-14,3-17s-5-10-3-11
		s4,2,5,5s3,2,3,2s1-6,1-11s6-11,8-12s1-12,1-16s4-6,6-5s2,4,0,6s-1,18-1,20c0,0.9-1.8,2.3-3.7,3.6c-2.2,1.5-4.8,2.9-5.3,3.4
		c-1,1-1,5-1,5s2,1,4,1s2-5,3-7c0.4-0.8,1-1.5,1.8-2.1c1.3-1.1,2.9-1.9,4.2-1.9c2,0-2,9-5,14s-10,5-10,5c0,11-3,18-8,24s-2,9,2,10
		s11-7,18-19s25-15,25-15s-10-5-16-7s-2-13,0-16s10-4,12,0s7,5,7,5s1-9-1-10s-16-16-19-18s-4-16,3-24s15-6,18-6s5,5,4,11s3,23,6,27
		s3,23,3,23c5-2,6-21,8-25s1-15,5-18s15-1,17,9s-5,17-6,20s-8,9-7,11s4-2,6-4s3-8,6-9s6,3,6,7s-7,12-7,12c9,4,34-17,39-23
		s19-13,24-14s11-5,11-5s-7,0-13,0c-3,2-6,2-10,2s-6-4-6-5s4,1,8,2s6-2,4-2s-14-6-14-6c0,3-3,2-6,1s2-3,1-5s-14-6-17-7s-7,4-10,5
		s0-5,1-8c-1-2-10,4-12,4s-3-3-1-6s13-1,13-3s-8-4-10-5s-3-5,1-5s16,12,23,14s18,8,23,12s16,6,16,6s-13-16-15-21s-11-3-13-3
		s-10-9-14-11s-6-7-2-7s10,6,13,9s10,3,10,2s-8-10-13-12s-8-4-10-9s-11-18-13-20s-11-4-9-8s8-3,11,0s15,17,16,24s6,10,9,9s2-7,1-12
		c-0.7-3.3,1.7-4,4-3.2c1.2,0.4,2.3,1.2,3,2.2c2,3-1,14-1,18c2,1,6-1,8-6s-3-12-4-13c-0.5-0.5-3.1-1.4-5.8-2.1
		c-2.4-0.7-4.8-1.4-6.2-1.9c-3-1-6-4-6-5s4-2,6,1s11,6,11,6s-3-6-4-9c-0.4-1.2-2.3-2.1-4.6-2.7l-0.1-2.6c1.2,0,1.7-1,1.7-3.6
		c0-5-6-8-9-9s-8-8-13-10s-2-5-2-8c2-1,6-1,10,6s11,9,11,9c0-4-3-9-5-9s0-4,0-7c8,0,11,11,13,21s9,1,10-2s-7-12-11-15c0,0,5-2,5-4
		s-5-2-7-2s-6-1-7-6c4-2,14,4,16,4s2-3-3-6s-5-10-2-10s10,10,10,14s11,15,13,17s11,18,11,18c0-2,4-4,3-7s-1-15-1-15c-2,0-3-2-6-4
		s-8-12-10-17s1-6,3-6s7,14,10,19s8,2,8,0s-11-18-13-20s-2-27-2-30s-8-8-5-12s8,2,10,7s3,22,2,27s0,11,5,12s4-14,9-13
		c0.9,0.2,1.6,0.6,2,1.1c1.9,2.3-0.2,7.4-1,9.9c-1,3-7,6-4,9s5,2,8-2s2-13,2-13c-1.3-0.4-3-2-4.8-4.1c-2.2-2.5-4.5-5.7-6.2-7.9
		c-3-4-1-5,1-5s2,5,4,8s6,7,6,7v-12c-1,0-6-5-10-8s-4-8-1-8s4,3,5,6s6,6,6,6l1-9c-2-2-9-18-11-21s1-9,4-7s6,12,6,15s3,8,3,8s1-2,2-6
		s-2-6-1-8s3-6,5-3s2,11,0,19s1,9,2,10s7,0,8-5c0.4-2.1,0.3-4.6,0.3-6.8c1.5,0.4,3.5,0.8,5.7,1.2c0.1,2.8-0.1,5.8-0.1,7.6
		c0,4-10,11-14,15s-5,22-11,28s-7,19-6,27s3,9,3,9c1-2-2-12-2-14s8-2,8-2s-1-1-3-4s0-6,3-6s5,8,5,13s3,11,3,11c2-2,5-5,7-4s0,4-3,9
		s2,7,4,8s9,12,9,12s1-8-1-12s-2-12-3-18s-8-11-9-18s7-12,9-19s14-16,16-17c0.5-0.3,0.9-1,1.3-2c2.7,1,5.4,2,7.3,2.5
		c-5.3,6.1-12.6,12.2-12.6,13.5c0,2-15,16-16,21s5,6,5,6c-1-6,1-10,3-10s3,7,3,9s3-2,6-3s6-8,6-8c-2,0-4-3-5-6s1-4,3-6s3,4,3,7
		s1,4,3,2s1-2,1-7s4-10,5-11c0.6-0.6,0.8-3.7,0.9-6.2c2.7,1,6.7,2.8,9.8,4.2c-0.5,1.3-1.4,2.6-2.7,3c-3,1-6,7-6,11s5,2,9-3s9-3,9-1
		s-13,10-15,10s-9,5-11,9s-8,8-13,11s-4,12-3,18s6,7,8,4s9-13,12-16s-1-6,2-13s10-5,12-2s-2,6-5,9s-1,7,1,7s8-7,10-6s2,6-5,8
		s-10,7-12,8s-10,8-10,12c0,1.5-0.3,2.7-0.8,3.8c-0.9,1.7-2.7,3-5.2,4.2c-4,2-7,12-6,12c0.9,0,7.8-9.3,11.2-16.2
		c0.3-0.6,0.6-1.2,0.8-1.8c3-7,11-11,20-16s24-19,25-26s13-13,13-13c-7,0-32-13-34-14c-0.6-0.3-2.2-1.1-4.3-2c0.6-1.7,0.4-3.4-0.7-4
		c-2-1-9-3-9-3s0,1.3-0.1,2.8c-1.4-0.5-2.5-0.8-2.9-0.8c-0.4,0-1.2-0.2-2.4-0.5c2.5-2.9,4.6-5.8,5.2-8.1c1.9,1.2,3.6,2.5,5.2,3.7
		c4,3,18,11,23,11s18,4,18,3s-9-9-14-10s-15-9-19-12c-1.9-1.4-7.3-3.3-12.8-5.1c-0.1-3-0.8-4.5-4-1.3c-4.6-1.5-8.4-2.8-9.3-3.6
		c-1.2-1.2-9.4-2.4-15.9-3.6c-0.1-1.2-0.2-2.3-0.4-3.3c8,0.1,19.4,0.9,19.4,0.9c5,6,28,7,33,10s21,7,21,5s-16-11-19-12s-22-13-22-14
		s14-1,17,0s4,4,7,6s8,3,8,3c-2-8-25-24-30-28s-19-10-19-11s9,2,14,2s20,14,22,15s13,7,14,11s4,6,6,9s2,5,2,5c5,0,18,9,18,9
		s1-9,0-14s-10-17-19-20s-19-9-23-13s-10-18-9-19s2-1,6,4s15,11,22,14s20,12,26,17s10,14,10,14c0-3,0-14-3-22s-7-11-14-19
		s-11-7-11-9s8,1,13,3s18,11,22,25s0,18,2,19s5-4,6-9s0-14-2-23s-15-17-20-22s-6-18-5-19s4,14,17,17s17,24,18,31s0,36,2,38s3-1,5-3
		s11.9-5.7,11.9-5.7L1280,502H0l-0.1-353.3C-0.1,148.7,2,151,2,156z M1124.7,198.1c0.2-0.2,0.4-0.4,0.3-0.6c0-0.2-0.2-0.3-0.3-0.4
		c-1.5-1.2-3-2.5-4.4-3.7c-0.1-0.1-0.3-0.2-0.4-0.2c-0.1,0-0.3,0.1-0.4,0.2c-1.3,0.9-2.7,2.3-4,3.2c0.4,1.7,3.3,3.2,4.9,4
		c0.3,0.1,0.6,0.3,0.9,0.2c0.3,0,0.6-0.2,0.9-0.5C1123.1,199.6,1123.9,198.9,1124.7,198.1z M1116.7,216.9c0.1-3.1,0.1-6.1-0.1-9.2
		c0-0.4-0.1-0.9-0.5-1.1c-0.4-0.2-0.9,0.1-1.3,0.5c-1.9,1.9-3.2,4.9-4.2,7.4c1.4,0.9,3.2,1.9,4.7,2.8c0.5,0.3,1.2,0.5,1.4,0
		C1116.6,217.2,1116.7,217,1116.7,216.9z M1115,229.6c0-1.7,0-3.4,0-5.1c0-0.1,0-0.3-0.1-0.4c-0.1-0.2-0.3-0.3-0.5-0.4
		c-2.8-1-5.7-2.1-8.2-3.8l-0.3,0.9c-0.6,4.9,0.4,9.9,2.7,14.3c0.1,0.2,0.3,0.5,0.5,0.6c0.3,0.1,0.6-0.1,0.8-0.3
		c1.4-1.2,2.8-2.5,4.2-3.9c0.2-0.2,0.5-0.5,0.7-0.8C1115,230.4,1115,230,1115,229.6z M1105.1,213c0.6-2.9,0.9-6,0.9-9
		c0-0.3,0-0.7-0.2-1c-0.2-0.4-0.7-0.6-1.1-0.8c-4.3-2-8.6-5.8-11.2-9.7c-0.2,0.7-1,1.7-0.9,2.4c0.1,0.7,0.5,1.4,1.2,1.7
		c0.8,0.3,1.9,0,2.3,0.7c0.1,0.3,0.1,0.6,0.1,0.9c-0.2,3.1,0.4,6.2,1.9,8.9S1102.1,212.1,1105.1,213z M1084.3,188.1
		c1.2-0.7,1.6-2.3,1.2-3.7c-0.4-1.3-1.4-2.4-2.5-3.3c-0.7-0.6-1.5-1.2-2.4-1.5c-1.6-0.6-3.4-0.5-4.8-1.5c-2-1.4-1.8-4.8,0.2-6
		c0.4-0.3,1-0.6,1-1.1c0-0.2-0.2-0.4-0.4-0.6c-1.4-1.6-2.1-3.7-3.4-5.4c-2.3-3-6.4-4.2-8.7-7.2c2.3,4.5,3.6,9.5,4,14.6
		c0.1,2.2,0.1,4.4-0.6,6.5c-0.7,2.1-2,4-4,5l-0.1,0.9c2.3,3.5,5.7,6.2,9.4,8.2c3.7,2,7.7,3.3,11.7,4.6c0.1-1,0.1-2,0.2-3
		c0-0.4,0.1-0.9-0.1-1.2c-0.3-0.6-0.9-0.9-1.5-1.2c-2.5-1.4-4-4.5-3.6-7.3C1081.4,185.9,1082.8,187,1084.3,188.1z"/>
	<path class="st0" d="M168,275.6l-2.6,1.1c-2.6-1.9-3.5-3.7-3.5-5.6c0-2,3-2,4,2C166.3,274.3,167.1,275.1,168,275.6z"/>
	<path class="st0" d="M152,223c0.9,0.9,11.5,28.2,14.5,35l-2.7,0.3c-1.4-2.9-8.9-13.6-8.9-15.3c0-2-1-1-3,0s-4,0-5-1s3-4,4-4
		s-3-2-7-3c-3-0.8-4.4-2.7-4.4-4c0.4-0.4,0.8-0.8,1.1-1.2c1.8,0.1,5.7,2.5,8.2,4.2c3,2,5,1,5,0s-5-7-6-9S151,222,152,223z"/>
</g>
</svg>
