<?xml version="1.0" encoding="utf-8"?>
<!-- Generator: Adobe Illustrator 22.1.0, SVG Export Plug-In . SVG Version: 6.00 Build 0)  -->
<svg version="1.1" id="Layer_1" xmlns="http://www.w3.org/2000/svg" xmlns:xlink="http://www.w3.org/1999/xlink" x="0px" y="0px"
	 viewBox="0 0 433.6 190" style="enable-background:new 0 0 433.6 190;" xml:space="preserve">
<style type="text/css">
	.st0{fill:#A4DFDA;}
	.st1{fill:#21453A;stroke:#21453A;stroke-miterlimit:10;}
	.st2{fill:#334E4E;stroke:#334E4E;stroke-miterlimit:10;}
	.st3{fill:#2B6053;stroke:#2B6053;stroke-miterlimit:10;}
	.st4{fill:#2C3B48;stroke:#2C3B48;stroke-miterlimit:10;}
	.st5{fill:#203B39;stroke:#203B39;stroke-miterlimit:10;}
	.st6{fill:#19202F;stroke:#19202F;stroke-miterlimit:10;}
	.st7{fill:#20213B;stroke:#20213B;stroke-miterlimit:10;}
	.st8{fill:#A4DFDA;stroke:#A4DFDA;stroke-miterlimit:10;}
	.st9{fill:#79B9B8;stroke:#79B9B8;stroke-miterlimit:10;}
	.st10{fill:#D4F1FF;}
	.st11{fill:#82D8FF;}
	.st12{fill:#B4DCFA;}
	.st13{fill:#DFEEFA;}
	.st14{fill:#E8F2FF;}
	.st15{fill:#FFFFFF;}
</style>
<path class="st0" d="M369.5,120.5c11,0,19,4.1,29.2,7.2c0,0.3-0.1,0.6-0.2,0.8c-1.2,2.9-12-1-22,0c-9.9,1-18.8,3.9-14.2,10.8
	c-2.6-0.8-5.2-1.7-7.8-2.8c-1.2-0.5-2.7-2-3.4-3.2c-1.5-2.3,0.2-5.3,1.9-7.5C354.5,123.8,363.5,120.5,369.5,120.5z"/>
<path class="st1" d="M324.6,90.5c6,3.5,9.5,6.1,8.9,10c-1,6-62,3-62,11s50,13,49,26c-0.6,8.2-23.9,13.9-44.6,16
	c-8.2-10.2-14.9-21.8-21.5-33.2c-7.5-13-15.1-26.2-19.7-40.5c4.4-2.6,7.8-5.1,9.8-7.4c15-17,12-47,11-52s-2-14,4-17
	c4.9-2.5,13.1-1.6,23.1,10.3c5.9,14.7,16.9,40.7,18.9,50.7s-2,11,11,19C317.1,86.3,321.2,88.6,324.6,90.5z"/>
<path class="st2" d="M338.7,160.2c-2.5-0.5-5-0.9-7.4-0.6c-2.5,0.3-5.5,1.8-6.8,3.9h-1c-1.1-4.3,2.2-10.6,6.6-11.2
	c4.4-0.6,9,3.1,9.2,7.5c0,0.1,0,0.2,0,0.3C339.2,160.3,338.9,160.3,338.7,160.2z"/>
<path class="st3" d="M369.5,120.5c11,0,19,4.1,29.2,7.2c0.8-5-7.9-12.6-19.2-19.2c-11.1-6.5-39-14-51-18c-0.6-0.2-1.1-0.5-1.7-0.8h0
	l0,0c-11.6-7.1-24.9-46.2-37.3-66.2c-2.4-3.8-4.7-7-6.9-9.7c5.9,14.7,16.9,40.7,18.9,50.7s-2,11,11,19c4.6,2.8,8.8,5.1,12.1,7
	c6.1,3.5,9.6,6.1,8.9,10c-1,6-62,3-62,11s50,13,49,26c-0.6,8.2-23.9,13.9-44.6,16c3.8,4.7,7.8,9.2,12.3,13.2l0.1,1
	c10.3-1.4,18.3-7.4,31.2-17.2c21-16,32.3,7.1,46,10c8.6,1.8,19.8,2.5,28.4,2.1c0.2-0.4,0.5-0.8,0.6-1.1c3.2-6.3-32-22-32-22
	c-0.1-0.1-0.1-0.2-0.2-0.2c-2.6-0.8-5.2-1.7-7.8-2.8c-1.2-0.5-2.7-2-3.4-3.2c-1.5-2.3,0.2-5.3,1.9-7.5
	C354.5,123.8,363.5,120.5,369.5,120.5z"/>
<path class="st4" d="M288.2,166.7l0.1,1c-6.5,0.9-13.8-0.2-23.8-3.2c-6.5-2-12.3-5.8-17.6-11.1c5.3,1.4,16.7,1.4,29,0.1
	C279.6,158.2,283.7,162.7,288.2,166.7z"/>
<path class="st5" d="M227.2,122.7c-4.5-9.8-8.5-20.9-12.3-32.8c7.6-3.5,14.4-6.9,19.8-10.1c4.5,14.3,12.1,27.5,19.7,40.5
	c6.6,11.4,13.3,22.9,21.5,33.2c-12.2,1.3-23.6,1.3-29-0.1C239.4,145.8,232.9,135.2,227.2,122.7z"/>
<path class="st6" d="M154.7,142.2c-3.7,0.3-7.4,0.1-11.1-0.2c-5.2-4.4-7.4-11.3-9.5-17.8c-0.3-1.1-0.7-2.2-1-3.3
	c2.5-0.8,7.7-2.6,14.6-5C149.1,125.1,151.5,134,154.7,142.2z"/>
<path class="st7" d="M134.1,124.3c2,6.5,4.3,13.4,9.5,17.8c-11.3-1-22.6-4.1-34-4.4c-14.8-0.4-29.6,4.1-41.7,12.5
	c-42.3,8-66.4,29.4-66.4,29.4c20-24,73-42,110-51c0,0,6-12,0-18c0.6,0.2,18,6.1,20,11c0,0,0.6-0.2,1.6-0.5
	C133.4,122.1,133.8,123.2,134.1,124.3z"/>
<path class="st8" d="M143.6,142.1c3.7,0.3,7.4,0.5,11.1,0.2c0,0,0,0,0,0c0.8,2.3,1.6,4.6,2.5,6.9c-4.8-1.3-9.7-1.8-14.7-2.3
	c-8.2-0.8-16.4-1.5-24.6-2.3c-5.6-0.5-11.2-1.1-16.8-1.6c-3.2-0.3-6.3-0.6-9.5-0.3c-5.2,0.5-10,2.5-14.8,4.5c-2,0.8-4,1.6-5.9,2.5
	c-1,0.2-2,0.4-3,0.5c12.2-8.4,27-12.9,41.7-12.5C121,137.9,132.3,141,143.6,142.1z"/>
<path class="st8" d="M365.5,160.5c-13.7-2.9-25-26-46-10c-12.9,9.8-20.9,15.9-31.2,17.2c-6.5,0.8-13.8-0.2-23.8-3.2
	c-6.5-2-12.3-5.8-17.6-11.1c-7.5-7.6-14-18.1-19.7-30.7c-4.1-4.9-9.7-18.1-14.8-31.7c-5.1-13.8-9.5-28-11-34.5c-3-13-2-43-13-45
	c-9.8-1.8-16,11-21,18c-2.4,3.4-5.5,8.8-8.6,14.6c-1.8,13.2-2.5,26.5,0.7,39.4c1.6,6.8,4.3,13.2,7,19.7c0.7,1.8,1.5,3.6,2.2,5.3
	c1.8,4.3,3.6,8.7,5.4,13c0.4,1,0.8,2,1.6,2.8c1,1,2.5,1.4,3.9,1.7c10,2.1,20.2,3.1,30.4,3c-8,5.4-16.5,10.2-25.4,14.1
	c12.7,0.3,25.5,0.7,38.2,1c-8.5,4.2-17,8.4-25.4,12.6c14.4,5.8,30,8.7,45.6,8.4c2.3,0,5.4,0.8,5.1,3c-7.8,1.2-15.7,2.4-23.5,3.6
	c17.7,5.5,36.6,7.2,55,5.1c5.8-0.7,11.5-1.7,17.2-2.8c7.3-1.3,15.5-1.6,23.3-2.4c0.1,0,0.2-0.1,0.3-0.1c9-3,35-1,51-1
	c14.5,0,20-4.1,22.4-7.9C385.3,163,374.1,162.3,365.5,160.5z M339.3,160.1c-0.1,0.2-0.4,0.2-0.6,0.1c-2.5-0.5-5-0.9-7.4-0.6
	c-2.5,0.3-5.5,1.8-6.8,3.9h-1c-1.1-4.3,2.2-10.6,6.6-11.2c4.4-0.6,9,3.1,9.2,7.5C339.3,159.9,339.3,160,339.3,160.1z"/>
<path class="st9" d="M296.8,174.1c-5.7,1-11.5,2.1-17.2,2.8c-18.4,2.1-37.3,0.4-55-5.1c7.8-1.2,15.7-2.4,23.5-3.6
	c0.3-2.2-2.8-3.1-5.1-3c-15.6,0.3-31.2-2.6-45.6-8.4c8.5-4.2,17-8.4,25.4-12.6c-12.7-0.3-25.5-0.7-38.2-1
	c8.9-3.9,17.4-8.7,25.4-14.1c-10.2,0.2-20.4-0.8-30.4-3c-1.4-0.3-2.9-0.7-3.9-1.7c-0.8-0.8-1.2-1.8-1.6-2.8c-1.8-4.3-3.6-8.7-5.4-13
	c-0.7-1.8-1.5-3.6-2.2-5.3c-2.7-6.4-5.3-12.9-7-19.7c-3.1-12.9-2.5-26.2-0.7-39.4c-3.3,6.2-6.6,12.7-8.9,17.4l0,0
	c-4.4,16.8-5.1,36.1-2.2,54.5c1.4,9.1,3.8,18,7,26.2c0,0,0,0,0,0c0.8,2.3,1.7,4.6,2.5,6.8c-4.8-1.3-9.7-1.8-14.7-2.3
	c-8.2-0.8-16.4-1.5-24.6-2.3c-5.6-0.5-11.2-1-16.8-1.6c-3.1-0.3-6.3-0.6-9.5-0.3c-5.2,0.5-10,2.5-14.8,4.5c-2,0.8-4,1.7-6,2.5
	c14.8-2.5,31.7-3.3,50.6-1.1c75,9,71,36,119,38c47.4,2,70.4-11.7,79.7-14.9C312.4,172.4,304.1,172.7,296.8,174.1z"/>
<path class="st1" d="M214.9,89.9c-1.5-4.7-3-9.5-4.4-14.4c-13-44-4-60-16-67c-10.4-6.1-23.4,7-34.5,28.1c-1.7,3.3-3.4,6.8-5,10.4
	c-2,4.5-3.7,9.4-5,14.5c2.3-4.7,5.6-11.2,8.9-17.4c3.1-5.8,6.2-11.2,8.6-14.6c5-7,11.2-19.8,21-18c11,2,10,32,13,45
	c1.5,6.5,5.9,20.8,11,34.5c5,13.6,10.7,26.8,14.8,31.7C222.8,112.8,218.7,101.8,214.9,89.9z"/>
<g>
	<path class="st10" d="M398.9,84.6c0,3.3,3.9,4.5,5.9,3.8s3.3-3.2,2.2-5S398.9,80.1,398.9,84.6"/>
	<path class="st11" d="M421.9,75.5c-0.8,1,1.1,6.1,2.1,6.9c1,0.8,2.5,0.8,3.6,0.3c2.8-1.1,3.9-5,2.3-7.5
		C428.3,72.6,424,73.3,421.9,75.5"/>
	<path class="st12" d="M69.6,100.1c-2.5,2.5-4.3,6.8-2,9c0.5,0.5,2.4,0.8,3,1.2c0.4,0.2,0.8,0.2,1.2,0.1c1.2-0.2,2.3-0.8,3-1.8
		C78.9,103.1,73.6,98.2,69.6,100.1"/>
	<path class="st12" d="M128.7,164.8c0.6,3.1,4.5,5.1,7.3,3.8s3.9-5.5,2-8s-6.9,1.5-8.9,4"/>
	<path class="st13" d="M50.6,132.1c2,1.1,5.4,0.1,5.5-2.2s-2.7-4.1-4.8-3.2C49.6,129.1,48.6,130.1,50.6,132.1"/>
	<path class="st14" d="M390.1,65.6c1,4,6.6,2.5,8.2-0.5s-0.5-7.1-3.8-7.7C391.2,56.8,388.1,61.6,390.1,65.6"/>
	<path class="st15" d="M403.1,106.6c1.2,3.6,10.6,4.5,12.3,1.1c1.7-3.4-1.4-7.9-5.1-8.1C406.5,99.4,403.4,102.9,403.1,106.6"/>
</g>
</svg>
