<?xml version="1.0" encoding="utf-8"?>
<!-- Generator: Adobe Illustrator 22.1.0, SVG Export Plug-In . SVG Version: 6.00 Build 0)  -->
<svg version="1.1" id="Layer_1" xmlns:serif="http://www.serif.com/"
	 xmlns="http://www.w3.org/2000/svg" xmlns:xlink="http://www.w3.org/1999/xlink" x="0px" y="0px" viewBox="0 0 696.5 700.8"
	 style="enable-background:new 0 0 696.5 700.8;" xml:space="preserve">
<style type="text/css">
	.st0{fill:#22ACEA;}
</style>
<g transform="matrix(0.942726,-0.942271,0.942726,0.942271,-152.373,446.844)">
	<path class="st0" d="M495.4,35.6C505.9,46.3,512.1,61,512.2,76c0.3,91.8,0,183.6,0,275.5c-0.1,23.7-15.9,46.6-38.7,54.7
		c-6,2.1-12.5,3.2-18.9,3.3c-91.8,0.3-183.6,0-275.5,0c-23.7-0.1-46.6-15.9-54.7-38.7c-2.1-6-3.2-12.5-3.3-18.9
		c-0.3-91.8,0-183.6,0-275.5c0.1-23.8,16.1-46.6,38.7-54.7c6-2.1,12.5-3.2,18.9-3.3c91.8-0.3,183.6,0,275.5,0
		c14.9,0.1,29.7,6,40.5,16.5C494.9,35.1,495.2,35.4,495.4,35.6z M459.1,71.4c-1.3-1.2-3.1-2-4.9-2c-91.7-0.3-183.4,0-275,0
		c-3.7,0-7,3.2-7,6.9c-0.3,91.7,0,183.4,0,275c0,3.7,3.2,7,6.9,7c91.7,0.3,183.4,0,275,0c3.7,0,7-3.2,7-6.9c0.3-91.7,0-183.4,0-275
		C461.2,74.5,460.4,72.7,459.1,71.4z"/>
</g>
<g transform="matrix(1.49812,0,0,1.4974,-336.372,-167.899)">
	<path class="st0" d="M367,311.5c9.2,0,15.9,2.2,20.4,6.8c4.4,4.5,6.7,11.5,6.7,20.7v32.9c0,2.4-0.7,4.4-2.2,5.7
		c-1.4,1.4-3.4,2.1-5.9,2.1c-2.4,0-4.2-0.7-5.7-2.2c-1.5-1.4-2.2-3.3-2.2-5.7v-3c-1.6,3.5-3.9,6.2-7.2,8.2c-3.3,2-7.1,3-11.4,3
		c-4.4,0-8.4-0.9-12-2.7c-3.6-1.8-6.4-4.3-8.5-7.4c-2.1-3.1-3.1-6.7-3.1-10.5c0-4.9,1.2-8.7,3.7-11.5c2.5-2.8,6.5-4.8,12.1-6
		c5.5-1.2,13.3-1.9,23-1.9h3.4v-3.1c0-4.4-0.9-7.6-2.8-9.7c-1.9-2-4.9-3.1-9.2-3.1c-2.6,0-5.2,0.4-8,1.1c-2.7,0.7-5.9,1.9-9.6,3.3
		c-2.4,1.2-4,1.7-5.1,1.7c-1.6,0-2.9-0.6-4-1.7c-1.1-1.2-1.6-2.7-1.6-4.6c0-1.6,0.4-2.9,1.1-4s2.1-2.2,3.9-3.2
		c3.1-1.7,6.9-3.1,11.3-4C358.5,312,362.8,311.5,367,311.5z M362.8,367.9c4.5,0,8.2-1.5,11-4.5c2.8-3,4.2-6.9,4.2-11.6V349h-2.4
		c-6,0-10.7,0.2-14,0.8c-3.3,0.6-5.7,1.5-7.2,2.8c-1.4,1.4-2.2,3.2-2.2,5.5c0,2.9,1,5.2,3.1,7.1C357.4,367,359.9,367.9,362.8,367.9z
		"/>
	<path class="st0" d="M440.5,380.1c-6.5,0-12.3-1.4-17.3-4.2c-5-2.8-8.8-6.7-11.5-11.8c-2.7-5.1-4-11.1-4-17.9
		c0-6.8,1.4-12.9,4.2-18.1c2.8-5.2,6.8-9.3,11.9-12.2c5.1-2.9,11-4.3,17.6-4.3c3.5,0,7,0.5,10.6,1.5s6.7,2.4,9.3,4
		c2.9,1.9,4.3,4.3,4.3,7.2c0,2-0.5,3.5-1.4,4.8c-0.9,1.2-2.2,1.8-3.7,1.8c-1,0-2-0.2-3.1-0.7c-1.1-0.4-2.2-1-3.2-1.6
		c-2-1.2-3.9-2.1-5.7-2.7c-1.8-0.7-3.9-1-6.2-1c-5.5,0-9.8,1.8-12.9,5.5c-3,3.6-4.5,8.8-4.5,15.7c0,6.7,1.5,11.9,4.5,15.6
		c3,3.6,7.3,5.5,12.9,5.5c2.2,0,4.2-0.3,6-1c1.7-0.7,3.7-1.6,5.9-2.7c1.4-0.8,2.5-1.4,3.5-1.8c1-0.4,2-0.6,3-0.6
		c1.4,0,2.7,0.6,3.6,1.9c1,1.2,1.5,2.8,1.5,4.7c0,1.6-0.3,2.9-1,4c-0.7,1.1-1.7,2.1-3.3,3.1c-2.8,1.8-6,3.2-9.7,4.2
		C448.1,379.6,444.3,380.1,440.5,380.1z"/>
	<path class="st0" d="M555.2,311.5c7.2,0,12.7,2.1,16.5,6.4c3.8,4.3,5.7,11.1,5.7,20.7v33.2c0,2.6-0.8,4.6-2.4,6
		c-1.6,1.4-3.6,2.1-6.1,2.1c-2.4,0-4.4-0.7-6-2.1c-1.6-1.4-2.4-3.4-2.4-6v-33.1c0-4.9-0.9-8.5-2.6-10.6s-4.4-3.2-8-3.2
		c-4.4,0-7.9,1.5-10.5,4.5s-3.9,7.1-3.9,12.3v30.1c0,2.6-0.8,4.6-2.4,6c-1.6,1.4-3.5,2.1-6,2.1c-2.4,0-4.4-0.7-6-2.1
		c-1.6-1.4-2.4-3.4-2.4-6v-33.1c0-4.9-0.9-8.5-2.6-10.6c-1.7-2.1-4.4-3.2-8-3.2c-4.4,0-7.9,1.5-10.5,4.5s-3.9,7.1-3.9,12.3v30.1
		c0,2.6-0.8,4.6-2.4,6c-1.6,1.4-3.6,2.1-6,2.1s-4.4-0.7-6-2.1c-1.6-1.4-2.4-3.4-2.4-6v-52.1c0-2.5,0.8-4.4,2.4-5.8
		c1.6-1.4,3.6-2,6-2c2.4,0,4.2,0.6,5.7,1.9c1.5,1.3,2.2,3.2,2.2,5.6v3.2c2.1-3.6,4.9-6.4,8.3-8.2c3.5-1.9,7.4-2.8,11.9-2.8
		c9.9,0,16.5,4.1,19.8,12.4c2-3.8,4.9-6.8,8.8-9C546,312.6,550.4,311.5,555.2,311.5z"/>
</g>
</svg>
