<?xml version="1.0" encoding="utf-8"?>
<!-- Generator: Adobe Illustrator 22.1.0, SVG Export Plug-In . SVG Version: 6.00 Build 0)  -->
<svg version="1.1" id="Layer_1" xmlns="http://www.w3.org/2000/svg" xmlns:xlink="http://www.w3.org/1999/xlink" x="0px" y="0px"
	 viewBox="0 0 598.2 689.7" style="enable-background:new 0 0 598.2 689.7;" xml:space="preserve">
<style type="text/css">
	.st0{fill:#181247;}
	.st1{fill:#FBE606;}
</style>
<path class="st0" d="M319,160.1c-12.2,18.8-34.3,26.2-49.6,16.4c-15.2-9.8-17.6-33.1-5.5-51.9c12.2-18.8,34.4-26.7,49.6-16.9
	C328.8,117.5,331.2,141.3,319,160.1z"/>
<path class="st0" d="M247.8,86.5c0,0-4.6,6.9-7.9,12.7c-3.3,5.8-8.3,15.7-12.3,25.5c-4,9.8-7.5,19.4-10.1,30.4
	c-2.7,11-3.5,16.6-5,28.8s-0.6,20.8-0.6,27.3s1.3,14.1,2.1,19.1c0.8,5,3.1,14.3,4.8,20c0,0-10,7.9-21.4,18.6
	c-11.4,10.8-27.1,27.5-36.7,39.1c-9.6,11.6-19.1,24-26,34.1c-7,10-18.6,27.5-27.5,43.1c-8.8,15.5-20.5,37.3-29.3,56.6
	c-8.8,19.3-13,29.9-20.4,48.7s-12,34.1-15.9,46c-3.8,12-9.7,32.9-12.3,43.4c-2.6,10.6-5.5,23.7-8,35.7s-4.1,23.5-5.3,32.4
	c-1.2,8.8-1.8,19.5-0.9,21.9c0,0,3.1-3.1,21-11.1c18-8,39.5-17.7,49-21.8s64.9-27.1,64.9-27.1s-2.2-15.7-3.1-28.9
	c-0.9-13.2-2.3-37.9-0.8-56.8l135.9,13.4l8.1-19.9l-142.2-15.4c0,0,4.3-36.3,11.2-59.4s11.7-39.3,23.8-64.5
	c12.1-25.2,22.1-40.5,22.1-40.5l39.9,3.8l2.3-13.7l-33.4-4.2c0,0,16.9-24.5,23.5-32c0,0,11.3,18.3,17.7,27
	c6.5,8.7,22.2,28.9,28.6,36.5c6.5,7.5,17,19,24.7,27.5c7.7,8.6,41.3,42.2,48.9,49l-73.5-9.5l4.3,15.9l90.5,13.6
	c0,0,23.6,23.4,30.8,29.9c7.2,6.5,29.5,24.7,45.6,42c16.1,17.4,32.6,37.8,47.2,62.1c14.6,24.3,17.1,30.6,25,47
	c7.9,16.4,18.3,43.1,20.9,50.4c0,0,4.6-9.1,7.3-23c2.7-13.9,8.6-38.5,3.1-75.3c-5.5-36.8-15.9-55.6-30.2-80.1s-38.5-45.2-48.9-54.2
	c-10.4-9-55.6-44.2-64.6-51.3c-9-7.2-55.8-44.8-65.3-52.8s-31.6-27.5-43.7-40s-26-27.4-34.7-52.4c0,0,12.5-13.2,29.7-28.2
	c17.1-15,41.5-33.3,57.7-44.7c16.3-11.4,48.9-31.7,71.3-43.5c22.5-11.8,75.8-37.8,100.8-44.5c0,0-11.2-1.6-40,4.8
	c-28.8,6.5-44.2,12.8-76.2,26.5s-67.3,34.5-93.7,51.1c-26.5,16.6-51.8,36-62.6,43.8c0,0-4.6-6.5-7.7-31.3
	C247.6,162.9,247.4,129.4,247.8,86.5z"/>
<polygon class="st1" points="292.9,517.9 285.1,537.8 481.7,557.4 466.4,537.6 "/>
<polygon class="st1" points="280.7,421.8 285.4,438.1 167,420.8 171.6,407.5 "/>
<polygon class="st1" points="249.2,328.3 247,341.7 273.9,344.5 262.7,330 "/>
<path class="st1" d="M589.6,173.4c0-94.6-76.7-171.2-171.2-171.2c-42.6,0-81.6,15.6-111.6,41.3C335.5,21.8,371.2,9,409.9,9
	c94.6,0,171.2,76.7,171.2,171.2c0,52-23.2,98.5-59.7,129.9C562.8,278.8,589.6,229.3,589.6,173.4z"/>
</svg>
