<?xml version="1.0" encoding="utf-8"?>
<!-- Generator: Adobe Illustrator 22.1.0, SVG Export Plug-In . SVG Version: 6.00 Build 0)  -->
<svg version="1.1" id="Layer_1" xmlns="http://www.w3.org/2000/svg" xmlns:xlink="http://www.w3.org/1999/xlink" x="0px" y="0px"
	 viewBox="0 0 796 221.1" style="enable-background:new 0 0 796 221.1;" xml:space="preserve">
<style type="text/css">
	.st0{fill:#0C85A9;}
	.st1{fill:#0D85AA;}
	.st2{fill:#EAB011;}
	.st3{fill:#F9EAC2;}
</style>
<title>cses_logo_vector</title>
<g>
	<path class="st0" d="M313.7,2c1.8,0.2,3.6,0.4,5.3,0.6c21.9,2.1,42.4,8.6,61.3,20c0.3,0.2,0.5,0.4,0.9,0.6l-14.9,31.7
		c-4.1-2.3-8.1-4.6-12.2-6.6c-12.1-6.1-24.8-10.5-38.1-12.6c-10.1-1.6-20.3-1.8-30.2,1.3c-5.2,1.6-9.9,4.1-13.3,8.5
		c-5.2,6.8-5.3,14.3-2.3,21.8c2.8,7.1,8.4,11.5,14.9,14.9c7,3.6,14.5,5.8,21.9,8.3c12.5,4.3,25,8.4,37.4,13
		c8.2,3.1,15.5,7.8,22.3,13.5c8.3,6.9,13.4,15.8,15.7,26.2c2.9,13.1,2.5,26.1-3.1,38.5c-4.6,10.2-12.2,17.8-21.4,23.8
		c-10.6,6.9-22.3,10.7-34.6,12.6c-11.1,1.7-22.3,2-33.4,0.9c-16.3-1.6-31.7-6.1-46.4-13.3c-9.9-4.7-19-10.8-27.3-17.9
		c-0.3-0.2-0.5-0.5-0.8-0.8l15.7-31.9c2.5,2.1,4.8,4.2,7.2,6.2c14.6,11.8,30.9,20.2,49.4,24.1c12.1,2.5,24.2,2.5,36.2-1
		c5.9-1.7,11.3-4.6,15.1-9.6c7.3-9.3,6.2-23.5-2.4-32.3c-4.8-4.9-10.7-7.9-17-10.1c-10.8-3.7-21.6-7.1-32.5-10.6
		c-7.8-2.5-15.7-4.7-23.2-8.3c-6.5-3.1-12.6-6.9-18.1-11.3c-8.1-6.6-13.3-15-15.8-25c-2.8-10.8-2.9-21.6,0.2-32.3
		c3.5-12.2,11.1-21.4,21.5-28.5c10.3-7.1,21.8-11,34-12.9c3.6-0.6,7.2-0.8,10.8-1.2c0.2-0.1,0.4-0.1,0.6-0.3L313.7,2z"/>
	<path class="st1" d="M788.6,162c-0.3,1.9-0.5,3.8-0.8,5.7c-2.3,15.1-10.1,26.7-22.3,35.6c-10.3,7.5-21.9,12.1-34.4,14.2
		c-37.2,6.3-71.3-1.7-102.3-23.2c-2.9-2-5.6-4.4-8.4-6.6c-0.2-0.2-0.5-0.4-0.7-0.5l15.8-32.1c2.2,1.9,4.2,3.7,6.3,5.4
		c14.1,11.6,29.8,20,47.6,24.2c12.9,3.1,25.9,3.3,38.8-0.4c5.6-1.6,10.7-4.3,14.6-8.8c7.9-9.1,7.1-23.9-1.5-32.8
		c-5-5.2-11.3-8.3-17.9-10.6c-11.2-3.8-22.5-7.3-33.8-10.9c-8.3-2.6-16.6-5.1-24.4-9.2c-7.9-4.2-15.4-9.1-21.3-15.9
		c-6-7-9.4-15.2-10.7-24.2c-1.5-9.6-1.2-19.1,1.8-28.3c3.9-12.3,12-21.3,22.6-28.1c9.9-6.4,20.8-10,32.4-11.8
		c3.6-0.6,7.3-0.8,10.9-1.2c0.2-0.1,0.4-0.1,0.6-0.3H718c0.2,0.1,0.4,0.2,0.6,0.2c3.8,0.4,7.6,0.8,11.4,1.2
		c8.1,0.9,15.9,2.9,23.7,5.3c7.9,2.4,15.4,5.5,22.7,9.3c3.1,1.6,6.1,3.4,9.3,5.1c-5.1,10.8-10.1,21.3-15,31.8
		c-5.4-2.8-10.7-5.7-16.1-8.3c-3.5-1.7-7.1-3.2-10.8-4.5c-5-1.7-10-3.1-15.1-4.6c-5.8-1.6-11.7-2.5-17.7-2.8
		c-3.4-0.1-6.9,0.1-10.3,0.2c-5.8,0.3-11.4,1.7-16.6,4.5c-10.2,5.5-12.4,12.9-11.5,21.6c0.7,7.1,4.6,12.7,10.1,17.1
		c4.9,3.8,10.4,6.3,16.1,8.3c13.3,4.5,26.6,8.8,39.9,13.3c11.4,3.9,22.1,9.1,31.5,16.9c10.1,8.4,15.5,19.2,17.2,32
		c0.3,2.1,0.6,4.2,0.8,6.3L788.6,162z"/>
	<path class="st0" d="M4,103.2c0.3-1.9,0.6-3.9,0.9-5.9c2.4-18.9,9.3-36,20.6-51.3c15.2-20.4,35.6-33.4,60-39.5
		c41.4-10.3,78.3-0.9,110.3,27.3c0.7,0.6,1.4,1.4,2.2,2.2l-21.3,26.9c-1.8-1.9-3.4-3.8-5.2-5.5c-13.3-12.1-28.8-20-46.7-21.8
		c-27.7-2.8-50.8,6.7-68.5,28.4c-10.2,12.5-15.3,27.1-15.9,43.1c-0.6,15,2,29.2,9.9,42.1c12.3,20.2,29.9,33.1,53.5,37
		c16.8,2.7,32.8,0,48.1-7.4c9-4.3,17.3-10,24.6-16.9c0.1-0.1,0.3-0.2,0.4-0.3l21.5,24.2c-2.3,2-4.4,4-6.8,5.9
		c-17.6,14.3-37.6,23.7-60.1,26.8c-32.8,4.6-62.6-3.2-88.8-23.8c-15.5-12.2-25.9-28.2-32.6-46.7C7,139.2,5,130,4.3,120.5
		c-0.1-0.3-0.2-0.6-0.3-0.9V103.2z"/>
	<path class="st2" d="M446.3,127c0.8,3.1,1.4,6.3,2.4,9.3c2.8,8.6,7.3,16.3,13.1,23.2c4.8,5.8,10.3,10.9,16.5,15.1
		c8.2,5.6,17.4,9.4,27.1,11.2c6.8,1.3,13.7,1.8,20.6,1.3c8.9-0.6,17.5-2.9,25.8-6.2c1.7-0.7,4-0.2,6-0.1c2.6,0.1,5.1,0.5,7.7,0.8
		c4.1,0.4,8.2,0.8,12.3,1.2c5.2,0.6,10.3,1.2,15.5,1.8c3.1,0.4,6.1,0.8,9.4,1.2c-1.4,1.3-2.6,2.6-4,3.6c-5.1,3.8-10.1,7.7-15.4,11.3
		c-6.5,4.4-13.6,7.7-20.8,10.6c-7.3,2.9-14.8,5.2-22.6,6.6c-4.3,0.7-8.6,1.3-12.9,1.6c-4.2,0.4-8.5,0.4-12.7,0.3
		c-4.9-0.2-9.8-0.7-14.6-1.6c-6-1.1-11.9-2.7-17.8-4.4c-3.3-0.9-6.5-2.4-9.6-3.7c-7.1-3.1-13.9-6.8-20.1-11.4
		c-2.9-2.2-5.8-4.5-8.6-6.9c-1.9-1.6-3.8-3.4-5.5-5.2c-6.8-7-12.4-14.9-17-23.6c-4.5-8.5-7.9-17.5-10.1-26.8
		c-0.7-3.1-1.2-6.2-1.8-9.6h-1.4c-5.1,0-10.3,0-15.4,0c-0.9,0-1.5-0.2-2-1.1c-3-4.9-7.2-8.7-11.4-12.6c-7.4-7-16.1-12.1-24.8-17.3
		c-0.2-0.1-0.3-0.2-0.5-0.3c-0.2-0.1-0.4-0.3-0.7-0.6h56.3c0.4-2,0.9-3.9,1.3-5.9c2.2-10.9,6.1-21.1,11.4-30.8
		c3.2-5.9,6.9-11.4,11.2-16.6c8-9.6,17.6-17.6,28.5-23.7C476,9.9,491.3,4.9,507.5,3.3c6.1-0.6,12.2-0.8,18.3-0.6
		c6.8,0.2,13.6,1.1,20.3,2.7c8.1,1.9,15.9,4.6,23.5,8c8.1,3.6,15.7,8.1,22.7,13.5c3.5,2.6,6.6,5.7,9.9,8.6c0.1,0.2,0.3,0.4,0.4,0.6
		c-4.8,0.7-9.5,1.4-14.1,2.1c-7.3,1-14.5,2-21.8,2.9c-4.1,0.5-8.2,1-12.4,1.4c-0.4,0-0.9-0.1-1.2-0.3c-7.5-3.4-15.3-5.9-23.5-6.6
		c-25-2.3-46.5,5-64,23.3c-9.4,9.7-16.1,21.6-19,36h1.7c35.7,0,71.4,0,107,0c1.6,0,3.1,0.4,4.5,1.1c4.1,1.9,8.2,3.7,12.4,5.1
		c9.9,3.1,20,6,29.9,8.9c0.3,0.1,0.6,0.2,0.9,0.4c-9.6,3.1-19.1,6.1-28.6,9.4c-4.9,1.7-9.8,3.7-14.6,5.9c-1.6,0.8-3.4,1.1-5.1,1.1
		c-35.4,0-70.8,0-106.2,0c-0.6,0-1.3,0-1.9,0L446.3,127z"/>
	<path class="st2" d="M81.7,126.7V94.9h1.7c45.5,0,91,0,136.4,0c1.1,0,1.7,0.3,2.4,1.2c4.2,5.7,9.7,10,15.4,14.2
		c9.5,7.1,20.3,11.4,31.1,15.6c0.6,0.2,1.1,0.5,1.5,0.9L81.7,126.7L81.7,126.7z"/>
	<path class="st3" d="M446.3,127l0.2-0.2L446.3,127z"/>
</g>
</svg>
