<svg id="svg" version="1.1" xmlns="http://www.w3.org/2000/svg" xmlns:xlink="http://www.w3.org/1999/xlink" width="400" height="346.15947329919527" viewBox="0, 0, 400,346.15947329919527"><g id="svgg"><path id="path0" d="M12.000 1.621 C 12.000 2.537,12.048 3.635,12.106 4.060 L 12.212 4.833 13.481 4.836 C 17.129 4.843,25.278 5.687,29.083 6.451 C 30.275 6.690,31.625 6.954,32.083 7.037 C 32.542 7.121,33.779 7.417,34.833 7.697 C 35.887 7.976,37.081 8.271,37.485 8.352 C 38.294 8.515,40.217 9.142,44.333 10.586 C 47.270 11.616,53.623 14.650,56.098 16.204 C 56.456 16.430,56.825 16.645,56.917 16.682 C 57.125 16.767,61.052 19.370,61.167 19.499 C 61.212 19.550,61.925 20.109,62.750 20.741 C 64.974 22.444,66.381 23.687,68.355 25.697 C 70.407 27.785,70.153 27.682,71.167 26.833 C 72.159 26.003,71.981 25.955,73.118 27.357 C 74.974 29.645,75.255 30.023,76.571 32.011 C 77.023 32.692,77.438 33.287,77.493 33.333 C 77.623 33.441,78.894 35.602,79.540 36.813 C 84.656 46.415,87.220 55.431,88.503 68.333 C 88.966 72.978,88.660 82.483,87.904 86.988 C 87.682 88.311,87.500 89.577,87.500 89.803 C 87.500 90.950,85.588 97.871,84.476 100.750 C 84.122 101.667,83.832 102.474,83.833 102.545 C 83.833 102.616,83.615 103.141,83.347 103.712 C 83.080 104.283,82.504 105.537,82.067 106.500 C 81.629 107.462,81.061 108.596,80.803 109.018 C 80.544 109.441,80.333 109.836,80.333 109.897 C 80.333 109.957,80.144 110.306,79.913 110.672 L 79.493 111.338 78.955 111.066 C 78.659 110.916,78.178 110.615,77.886 110.397 C 77.131 109.832,77.153 109.816,75.936 111.814 C 75.327 112.812,74.718 113.721,74.582 113.835 C 74.445 113.948,74.333 114.103,74.333 114.178 C 74.333 114.304,73.187 115.879,72.219 117.083 C 70.697 118.977,69.956 119.834,68.958 120.859 C 68.615 121.211,68.333 121.532,68.333 121.571 C 68.333 121.728,63.760 125.980,62.465 127.026 C 62.163 127.270,61.654 127.687,61.333 127.954 C 60.645 128.525,58.754 129.977,58.234 130.333 C 56.244 131.698,52.869 133.911,52.000 134.421 C 51.404 134.771,50.654 135.226,50.333 135.434 C 49.578 135.921,48.393 136.547,44.917 138.294 C 40.048 140.742,39.857 140.833,39.592 140.833 C 39.307 140.833,39.248 141.334,39.478 141.794 C 39.558 141.953,39.781 142.438,39.975 142.872 L 40.326 143.660 39.439 144.080 C 38.950 144.311,38.474 144.500,38.379 144.500 C 38.284 144.500,37.767 144.693,37.228 144.930 C 36.117 145.419,35.819 145.537,35.000 145.815 C 30.957 147.189,28.716 147.917,27.750 148.168 C 27.108 148.335,26.021 148.625,25.333 148.813 C 19.755 150.338,16.898 150.775,16.575 150.150 C 14.426 145.994,7.869 147.362,7.383 152.067 C 6.793 157.785,15.811 159.322,16.883 153.686 C 17.070 152.700,17.093 152.667,17.592 152.667 C 18.064 152.667,18.694 152.545,22.333 151.750 C 24.197 151.343,27.831 150.376,30.000 149.711 C 32.685 148.887,33.019 148.777,35.083 148.037 C 38.342 146.868,39.643 146.363,40.510 145.927 C 40.978 145.692,41.441 145.500,41.540 145.500 C 41.639 145.500,42.289 145.231,42.985 144.903 C 45.978 143.490,46.619 143.182,47.250 142.855 C 47.617 142.664,48.442 142.246,49.083 141.925 C 50.803 141.065,52.335 140.215,52.645 139.950 C 52.794 139.822,53.048 139.671,53.208 139.614 C 53.368 139.557,53.913 139.246,54.419 138.922 C 54.926 138.598,55.371 138.333,55.409 138.333 C 55.546 138.333,58.585 136.263,58.639 136.133 C 58.669 136.060,58.770 136.000,58.862 136.000 C 59.007 136.000,60.244 135.120,63.140 132.957 C 63.943 132.358,64.178 132.158,67.167 129.536 C 69.757 127.264,73.025 123.918,74.833 121.685 C 75.154 121.289,75.706 120.621,76.059 120.202 C 76.697 119.445,78.325 117.217,78.865 116.362 C 79.020 116.117,79.211 115.841,79.291 115.750 C 79.430 115.590,80.202 114.343,81.539 112.118 C 81.881 111.549,82.415 110.596,82.726 110.000 C 83.037 109.404,83.409 108.692,83.552 108.417 C 84.264 107.048,85.743 103.598,86.301 102.000 C 86.477 101.496,86.811 100.558,87.043 99.917 C 87.924 97.484,89.499 91.271,89.747 89.250 C 89.792 88.883,89.979 87.458,90.163 86.083 C 91.541 75.768,90.755 63.323,88.063 52.833 C 87.303 49.873,84.766 42.290,84.362 41.774 C 84.280 41.669,84.074 41.208,83.904 40.750 C 83.486 39.628,81.438 35.626,80.734 34.555 C 80.422 34.081,80.167 33.640,80.167 33.575 C 80.167 33.510,79.904 33.091,79.583 32.645 C 79.263 32.198,79.000 31.763,79.000 31.678 C 79.000 31.593,78.902 31.425,78.783 31.304 C 78.663 31.182,78.259 30.633,77.884 30.083 C 77.510 29.533,77.045 28.903,76.852 28.683 C 76.658 28.463,76.500 28.223,76.500 28.150 C 76.500 28.077,76.331 27.829,76.125 27.599 C 75.919 27.368,75.262 26.564,74.667 25.812 C 74.071 25.060,72.571 23.423,71.333 22.176 C 69.378 20.205,68.298 19.236,64.722 16.247 C 64.339 15.928,63.969 15.667,63.897 15.667 C 63.826 15.667,63.577 15.491,63.342 15.276 C 62.480 14.484,58.382 11.850,56.445 10.842 C 55.911 10.565,55.262 10.186,55.003 10.002 C 54.744 9.818,54.485 9.667,54.428 9.667 C 54.371 9.667,53.159 9.104,51.734 8.417 C 50.309 7.729,49.071 7.167,48.983 7.167 C 48.894 7.167,48.468 6.989,48.036 6.773 C 47.604 6.556,46.950 6.287,46.583 6.175 C 46.217 6.063,45.684 5.867,45.401 5.740 C 43.989 5.107,36.290 2.787,34.650 2.500 C 34.155 2.413,32.943 2.155,31.956 1.926 C 30.970 1.696,29.511 1.428,28.716 1.329 C 27.920 1.230,26.927 1.078,26.509 0.991 C 24.089 0.487,20.296 0.138,16.292 0.050 L 12.000 -0.045 12.000 1.621 M0.000 76.750 L 0.000 152.667 1.083 152.667 L 2.167 152.667 2.167 76.750 L 2.167 0.833 1.083 0.833 L 0.000 0.833 0.000 76.750 M12.542 9.612 C 12.025 9.684,12.000 9.721,12.000 10.414 C 12.000 11.726,11.853 11.667,15.143 11.665 C 20.188 11.663,22.525 11.900,29.333 13.103 C 31.768 13.533,36.892 15.016,39.750 16.117 C 42.326 17.110,47.104 19.362,48.024 20.017 C 48.268 20.191,48.524 20.333,48.592 20.333 C 48.660 20.333,49.136 20.605,49.649 20.938 C 50.163 21.270,51.033 21.831,51.583 22.184 C 52.133 22.538,52.687 22.915,52.813 23.023 C 52.939 23.131,53.652 23.668,54.396 24.216 C 58.312 27.097,64.564 33.556,67.167 37.409 C 68.455 39.315,69.454 40.863,69.753 41.417 C 71.815 45.230,73.166 47.986,73.167 48.378 C 73.168 48.491,73.402 49.183,73.688 49.917 C 74.183 51.183,74.362 51.800,75.143 54.917 C 75.497 56.329,76.091 59.994,76.272 61.875 L 76.379 63.000 64.856 63.000 C 54.614 63.000,53.333 62.972,53.333 62.744 C 53.333 61.715,51.869 60.035,50.500 59.495 C 49.495 59.098,47.182 59.085,46.794 59.473 C 46.687 59.579,46.481 59.667,46.335 59.667 C 45.390 59.667,43.833 62.295,43.833 63.893 C 43.833 69.368,51.342 70.693,53.203 65.547 L 53.400 65.000 65.975 65.000 L 78.550 65.000 78.446 63.375 C 78.153 58.845,76.978 52.453,75.977 49.955 C 75.785 49.476,75.555 48.821,75.467 48.500 C 75.246 47.694,73.376 43.441,72.793 42.417 C 72.689 42.233,72.314 41.560,71.961 40.921 C 71.607 40.282,71.213 39.643,71.084 39.501 C 70.956 39.359,70.790 39.095,70.716 38.913 C 70.521 38.438,68.964 36.094,68.799 36.027 C 68.722 35.995,68.537 35.733,68.388 35.443 C 68.238 35.154,67.945 34.729,67.737 34.500 C 67.528 34.271,66.973 33.596,66.502 33.000 C 64.992 31.090,63.517 29.525,59.745 25.825 C 59.375 25.463,58.990 25.167,58.888 25.167 C 58.786 25.167,58.663 25.065,58.616 24.940 C 58.528 24.713,56.768 23.249,55.281 22.167 C 54.840 21.846,54.278 21.427,54.031 21.235 C 53.785 21.044,52.946 20.490,52.167 20.005 C 51.387 19.520,50.559 18.991,50.325 18.831 C 50.092 18.671,49.492 18.334,48.992 18.082 C 48.492 17.830,47.896 17.496,47.667 17.339 C 47.438 17.182,46.462 16.698,45.500 16.263 C 44.538 15.828,43.262 15.242,42.667 14.961 C 42.071 14.680,41.358 14.392,41.083 14.320 C 40.808 14.249,39.983 13.965,39.250 13.691 C 36.312 12.589,29.905 10.834,28.818 10.833 C 28.597 10.833,27.667 10.688,26.750 10.512 C 23.173 9.825,14.803 9.295,12.542 9.612 M69.528 30.138 L 68.806 30.771 69.861 32.188 C 71.090 33.838,71.695 34.690,72.216 35.500 C 73.222 37.068,74.173 38.672,74.586 39.500 C 74.838 40.004,75.091 40.454,75.149 40.500 C 75.254 40.583,76.056 42.234,77.214 44.750 C 78.251 47.003,80.101 52.213,80.381 53.667 C 80.425 53.896,80.690 54.983,80.970 56.083 C 81.755 59.165,82.331 63.349,82.567 67.681 L 82.654 69.278 62.952 69.391 C 52.116 69.453,41.855 69.552,40.149 69.610 L 37.049 69.718 36.930 69.234 C 36.755 68.523,35.680 67.033,35.137 66.748 C 34.878 66.611,34.423 66.369,34.125 66.208 C 33.178 65.698,31.125 65.803,30.013 66.417 C 25.634 68.837,27.271 75.500,32.244 75.500 C 34.445 75.500,37.000 73.593,37.000 71.951 C 37.000 71.759,39.888 71.704,54.958 71.611 C 64.835 71.550,75.572 71.450,78.817 71.389 L 84.718 71.278 84.612 68.098 C 84.555 66.348,84.390 64.017,84.248 62.917 C 84.105 61.817,83.922 60.316,83.842 59.581 C 83.553 56.948,81.930 50.820,80.731 47.833 C 80.418 47.054,80.163 46.324,80.164 46.211 C 80.167 46.019,79.819 45.231,78.379 42.167 C 76.950 39.124,74.754 35.284,73.231 33.167 C 70.208 28.961,70.551 29.242,69.528 30.138 M50.062 61.653 C 50.969 62.214,51.611 63.639,51.350 64.511 C 50.550 67.182,47.425 67.467,46.159 64.986 C 44.995 62.704,47.836 60.278,50.062 61.653 M34.115 68.723 C 35.629 70.123,35.120 72.481,33.142 73.236 C 31.126 74.006,28.983 71.902,29.747 69.902 C 30.497 67.936,32.640 67.358,34.115 68.723 M29.958 76.958 L 11.166 77.001 11.208 111.292 L 11.250 145.583 14.000 145.525 C 16.638 145.469,17.740 145.331,22.833 144.419 C 25.303 143.976,30.454 142.408,33.083 141.299 C 34.971 140.502,38.667 138.649,38.667 138.499 C 38.667 137.713,37.782 136.530,37.419 136.831 C 37.141 137.062,34.304 138.499,34.125 138.500 C 34.057 138.500,33.532 138.720,32.959 138.988 C 31.969 139.452,31.394 139.673,29.083 140.481 C 27.473 141.044,24.332 141.945,23.250 142.154 C 22.700 142.260,21.575 142.496,20.750 142.677 C 19.925 142.859,18.462 143.078,17.500 143.163 C 16.537 143.249,15.169 143.371,14.458 143.434 L 13.167 143.549 13.167 111.274 L 13.167 79.000 37.042 79.000 C 50.173 79.000,65.933 78.950,72.065 78.889 L 83.214 78.778 83.094 80.514 C 82.869 83.782,82.501 86.917,82.157 88.500 C 81.967 89.371,81.704 90.588,81.571 91.204 C 81.321 92.371,80.582 94.802,79.910 96.667 C 79.696 97.263,79.430 98.013,79.320 98.333 C 78.592 100.450,75.428 106.917,74.758 107.658 C 74.369 108.087,74.442 108.305,75.063 108.564 C 75.373 108.693,75.677 108.882,75.739 108.983 C 76.086 109.544,76.489 109.124,77.647 107.000 C 77.722 106.862,77.908 106.525,78.062 106.250 C 78.504 105.456,80.167 102.014,80.167 101.892 C 80.167 101.832,80.365 101.362,80.608 100.849 C 81.105 99.801,82.282 96.599,82.545 95.583 C 82.640 95.217,82.883 94.392,83.085 93.750 C 83.288 93.108,83.535 92.208,83.635 91.750 C 84.023 89.973,84.500 87.518,84.738 86.083 C 85.011 84.433,85.279 77.972,85.104 77.273 L 84.994 76.833 66.872 76.874 C 56.905 76.897,40.294 76.935,29.958 76.958 M13.442 150.088 C 16.007 151.302,15.091 155.167,12.238 155.167 C 11.379 155.167,11.045 154.999,10.068 154.081 C 8.056 152.189,10.862 148.868,13.442 150.088 " stroke="none" fill="#14b4cb" fill-rule="evenodd"></path><path id="path1" d="M130.667 103.945 C 130.254 103.984,128.904 104.162,127.667 104.340 C 123.339 104.962,123.448 104.940,118.833 106.099 C 117.400 106.459,114.008 107.601,112.167 108.342 C 109.378 109.465,103.725 112.324,102.838 113.060 C 102.698 113.176,102.152 113.526,101.625 113.837 C 101.098 114.149,100.667 114.463,100.667 114.535 C 100.667 114.608,100.561 114.667,100.432 114.667 C 100.304 114.667,99.896 114.910,99.526 115.208 C 99.157 115.506,98.345 116.125,97.722 116.583 C 93.996 119.326,89.226 124.040,86.302 127.871 C 84.576 130.132,82.667 132.888,82.667 133.118 C 82.667 133.176,82.556 133.346,82.421 133.495 C 81.885 134.088,78.000 141.562,78.000 142.001 C 78.000 142.087,77.826 142.553,77.613 143.037 C 76.581 145.379,74.917 150.771,74.512 153.083 C 74.415 153.633,74.228 154.683,74.095 155.417 C 73.324 159.679,73.250 160.628,73.254 166.167 C 73.259 171.714,73.314 172.382,74.076 176.083 C 74.208 176.725,74.386 177.588,74.471 178.000 C 74.786 179.524,75.619 182.070,76.363 183.783 C 76.530 184.167,76.667 184.543,76.667 184.618 C 76.667 184.986,79.608 190.470,80.097 191.013 C 80.227 191.158,80.333 191.347,80.333 191.434 C 80.333 191.521,80.636 192.003,81.006 192.504 C 81.376 193.006,81.920 193.743,82.214 194.141 C 82.713 194.815,84.899 197.407,85.489 198.023 C 85.632 198.173,86.171 198.739,86.686 199.280 C 87.768 200.419,91.742 204.000,91.923 204.000 C 91.990 204.000,92.204 204.169,92.398 204.375 C 92.903 204.914,96.587 207.667,96.803 207.667 C 96.902 207.667,97.043 207.764,97.117 207.884 C 97.190 208.003,97.962 208.562,98.833 209.127 C 99.704 209.691,100.492 210.217,100.584 210.295 C 100.822 210.497,103.268 211.989,105.562 213.333 C 108.043 214.787,109.258 215.483,110.000 215.876 C 112.243 217.063,113.787 217.909,114.079 218.108 C 114.260 218.232,114.516 218.333,114.649 218.333 C 114.782 218.333,115.009 218.435,115.154 218.559 C 115.437 218.801,115.694 218.937,118.769 220.466 C 119.880 221.018,120.930 221.545,121.103 221.638 C 121.275 221.730,121.792 221.991,122.250 222.218 C 123.278 222.726,123.866 223.022,124.833 223.516 C 125.758 223.988,126.504 224.355,126.833 224.499 C 126.971 224.559,127.496 224.818,128.000 225.073 C 128.504 225.328,129.029 225.591,129.167 225.656 C 129.304 225.722,129.792 225.967,130.250 226.200 C 132.755 227.478,135.213 228.674,135.247 228.632 C 135.461 228.358,136.167 227.013,136.167 226.878 C 136.167 226.781,134.760 226.010,133.042 225.163 C 128.122 222.741,120.998 219.205,120.083 218.733 C 119.625 218.496,119.025 218.184,118.750 218.039 C 118.475 217.895,117.350 217.311,116.250 216.741 C 112.666 214.887,111.007 213.980,110.910 213.822 C 110.857 213.737,110.703 213.667,110.567 213.667 C 110.431 213.667,109.930 213.404,109.454 213.083 C 108.978 212.762,108.520 212.500,108.436 212.500 C 108.353 212.500,107.889 212.237,107.406 211.917 C 106.922 211.596,106.457 211.333,106.372 211.333 C 106.286 211.333,105.924 211.125,105.567 210.870 C 105.209 210.615,104.354 210.073,103.667 209.664 C 102.017 208.682,102.057 208.707,100.643 207.770 C 99.969 207.323,99.379 206.903,99.333 206.838 C 99.287 206.772,99.050 206.613,98.806 206.484 C 98.043 206.082,94.915 203.689,92.540 201.691 C 89.599 199.216,84.958 194.395,83.857 192.671 C 83.709 192.439,83.481 192.139,83.350 192.003 C 83.220 191.867,82.849 191.342,82.526 190.836 C 82.202 190.330,81.840 189.818,81.719 189.696 C 81.599 189.575,81.500 189.388,81.500 189.280 C 81.500 189.172,81.200 188.651,80.833 188.123 C 80.467 187.595,80.167 187.083,80.167 186.985 C 80.167 186.886,79.904 186.358,79.583 185.811 C 79.263 185.263,79.000 184.751,79.000 184.672 C 79.000 184.593,78.749 183.941,78.442 183.222 C 77.387 180.757,76.501 177.572,75.642 173.167 C 75.494 172.405,75.434 170.251,75.441 165.917 C 75.453 159.189,75.350 160.297,76.587 153.610 C 76.720 152.891,76.976 151.803,77.155 151.193 C 77.335 150.583,77.640 149.490,77.833 148.765 C 78.025 148.040,78.322 147.140,78.492 146.765 C 78.662 146.390,78.891 145.746,79.001 145.333 C 79.111 144.921,79.418 144.144,79.684 143.608 C 79.949 143.071,80.167 142.546,80.167 142.440 C 80.167 142.214,82.849 136.853,83.389 136.000 C 83.592 135.679,83.849 135.267,83.960 135.083 C 84.873 133.571,86.036 131.788,86.459 131.250 C 86.531 131.158,86.954 130.601,87.399 130.012 C 87.845 129.423,88.271 128.860,88.347 128.762 C 88.597 128.437,91.147 125.500,91.619 124.992 C 94.173 122.248,98.598 118.410,100.750 117.073 C 101.025 116.902,101.545 116.515,101.905 116.214 C 102.265 115.913,102.627 115.667,102.708 115.667 C 102.790 115.667,103.208 115.425,103.637 115.129 C 104.066 114.833,104.642 114.467,104.917 114.317 C 105.192 114.166,105.904 113.770,106.500 113.437 C 107.831 112.693,110.875 111.211,111.667 110.922 C 111.987 110.805,112.658 110.512,113.156 110.271 C 113.655 110.030,114.139 109.833,114.232 109.833 C 114.326 109.833,115.193 109.544,116.160 109.191 C 118.369 108.384,121.256 107.567,123.041 107.243 C 128.581 106.239,129.123 106.177,133.193 106.072 C 138.135 105.944,141.678 106.161,144.417 106.761 C 145.517 107.002,146.792 107.266,147.250 107.347 C 147.708 107.429,148.720 107.721,149.499 107.998 C 150.277 108.274,151.018 108.500,151.145 108.500 C 151.633 108.500,156.836 110.826,158.959 111.994 C 159.715 112.410,160.643 112.915,161.021 113.118 C 161.398 113.320,161.830 113.589,161.979 113.715 C 162.128 113.841,162.662 114.192,163.167 114.494 C 163.671 114.796,164.134 115.123,164.196 115.220 C 164.258 115.317,164.532 115.514,164.804 115.657 C 165.365 115.951,167.614 117.674,168.895 118.791 C 171.354 120.933,172.244 121.768,174.187 123.750 C 177.475 127.105,179.030 128.848,180.530 130.859 C 180.895 131.349,181.399 131.975,181.650 132.250 C 181.900 132.525,182.213 132.911,182.344 133.107 C 182.476 133.303,183.183 134.304,183.917 135.329 C 184.650 136.355,185.397 137.432,185.577 137.722 C 185.757 138.013,186.001 138.349,186.119 138.470 C 186.237 138.591,186.535 139.041,186.782 139.470 C 187.029 139.899,187.442 140.511,187.699 140.830 C 187.956 141.148,188.167 141.472,188.167 141.550 C 188.167 141.627,188.409 142.041,188.706 142.470 C 189.003 142.899,189.359 143.455,189.498 143.705 C 189.636 143.955,189.964 144.507,190.226 144.931 L 190.701 145.702 190.059 146.393 C 188.594 147.966,188.250 148.891,188.250 151.254 C 188.250 158.918,198.313 161.193,201.600 154.271 C 204.214 148.766,199.286 143.136,193.075 144.531 C 192.540 144.651,192.281 144.318,190.528 141.262 C 190.314 140.889,189.920 140.306,189.653 139.968 C 189.385 139.630,189.167 139.304,189.167 139.244 C 189.167 139.069,187.350 136.388,187.079 136.163 C 186.944 136.051,186.833 135.863,186.833 135.745 C 186.833 135.628,186.590 135.231,186.292 134.863 C 185.994 134.495,185.362 133.644,184.888 132.971 C 184.413 132.298,183.866 131.560,183.671 131.332 C 183.476 131.103,182.603 130.017,181.731 128.917 C 179.399 125.977,178.473 124.945,175.167 121.602 C 173.187 119.600,171.149 117.775,169.000 116.080 C 168.313 115.537,167.675 115.034,167.583 114.960 C 167.262 114.704,165.948 113.748,165.689 113.583 C 165.546 113.492,165.035 113.135,164.555 112.792 C 164.074 112.448,163.608 112.167,163.520 112.167 C 163.431 112.167,163.147 111.992,162.888 111.778 C 162.028 111.068,155.078 107.500,154.555 107.500 C 154.449 107.500,153.750 107.237,153.000 106.917 C 152.250 106.596,151.526 106.333,151.390 106.333 C 151.253 106.333,150.604 106.153,149.946 105.933 C 148.340 105.396,147.645 105.216,145.987 104.910 C 145.215 104.768,143.758 104.500,142.750 104.314 C 140.952 103.984,132.837 103.735,130.667 103.945 M134.500 131.648 L 134.500 150.296 133.883 150.412 C 133.272 150.527,131.994 151.100,131.833 151.331 C 131.787 151.398,131.557 151.556,131.321 151.684 C 130.664 152.040,129.722 153.180,129.258 154.182 L 128.841 155.083 106.645 155.167 L 84.450 155.250 84.236 155.870 C 82.992 159.461,82.679 166.725,83.553 171.722 C 84.051 174.573,85.077 178.137,86.008 180.250 C 86.169 180.617,86.443 181.254,86.615 181.667 C 86.917 182.390,88.119 184.731,88.540 185.417 C 89.846 187.543,90.447 188.469,90.699 188.740 C 90.865 188.917,91.000 189.111,91.000 189.169 C 91.000 189.290,92.055 190.663,93.167 191.990 C 94.100 193.104,98.323 197.343,99.429 198.275 C 99.881 198.656,100.737 199.345,101.333 199.806 C 101.929 200.268,102.642 200.826,102.917 201.048 C 103.192 201.269,103.604 201.549,103.833 201.669 C 104.063 201.789,104.325 201.980,104.417 202.092 C 104.508 202.204,105.258 202.717,106.083 203.230 C 106.908 203.744,107.762 204.297,107.980 204.457 C 108.432 204.791,109.716 205.523,111.417 206.417 C 112.058 206.755,112.658 207.092,112.750 207.167 C 113.079 207.435,117.029 209.338,119.833 210.578 C 120.612 210.923,121.795 211.459,122.461 211.769 C 123.127 212.079,123.752 212.333,123.849 212.333 C 123.946 212.333,124.572 212.596,125.239 212.917 C 125.906 213.237,126.532 213.500,126.630 213.500 C 126.728 213.500,127.429 213.800,128.187 214.167 C 128.945 214.533,129.655 214.833,129.765 214.833 C 129.874 214.833,130.495 215.096,131.144 215.417 C 131.793 215.737,132.414 216.000,132.523 216.000 C 132.632 216.000,133.275 216.262,133.950 216.583 C 134.626 216.904,135.255 217.167,135.347 217.167 C 135.440 217.167,136.076 217.429,136.761 217.750 C 137.447 218.071,138.079 218.333,138.166 218.333 C 138.253 218.333,138.864 218.596,139.523 218.917 C 140.182 219.237,140.809 219.500,140.917 219.500 C 141.024 219.500,141.651 219.762,142.310 220.083 C 142.969 220.404,143.581 220.667,143.669 220.667 C 143.757 220.667,144.448 220.958,145.206 221.315 C 145.963 221.671,147.221 222.245,148.000 222.591 C 153.931 225.221,161.288 228.852,162.645 229.818 C 162.908 230.005,163.326 230.236,163.574 230.330 C 163.822 230.424,164.352 230.726,164.751 231.001 C 165.150 231.275,165.526 231.500,165.586 231.500 C 165.646 231.500,166.008 231.713,166.389 231.973 C 167.538 232.756,169.057 233.729,169.500 233.965 C 169.729 234.088,170.108 234.371,170.342 234.594 C 170.577 234.817,170.820 235.000,170.883 235.000 C 170.946 235.000,171.354 235.265,171.790 235.588 C 178.816 240.799,183.796 246.312,187.191 252.637 C 187.551 253.309,187.916 253.984,188.001 254.137 C 190.022 257.783,192.502 266.662,192.794 271.292 L 192.880 272.667 193.507 272.667 L 194.133 272.667 194.257 274.792 C 194.787 283.921,193.233 292.738,189.532 301.592 C 188.486 304.096,186.157 308.532,184.891 310.435 C 184.714 310.700,184.498 311.036,184.410 311.181 C 183.808 312.175,182.675 313.788,182.444 313.979 C 182.291 314.105,182.167 314.273,182.167 314.352 C 182.167 314.833,177.874 319.812,175.171 322.466 C 172.270 325.314,172.095 325.474,170.500 326.765 C 169.721 327.395,169.046 327.954,169.000 328.006 C 168.954 328.058,168.635 328.272,168.292 328.481 C 167.948 328.690,167.667 328.913,167.667 328.978 C 167.667 329.042,167.423 329.237,167.125 329.410 C 166.827 329.583,166.546 329.771,166.500 329.827 C 166.454 329.883,165.929 330.259,165.333 330.661 C 164.738 331.063,164.151 331.492,164.030 331.613 C 163.909 331.734,163.740 331.833,163.655 331.833 C 163.570 331.833,163.135 332.096,162.689 332.417 C 162.242 332.737,161.824 333.000,161.758 333.000 C 161.693 333.000,161.252 333.245,160.778 333.544 C 159.849 334.131,159.892 334.107,157.917 335.161 C 156.140 336.109,155.655 336.347,154.083 337.039 C 153.350 337.363,152.225 337.860,151.583 338.144 C 150.942 338.429,150.004 338.801,149.500 338.971 C 148.996 339.142,148.058 339.470,147.417 339.701 C 145.081 340.541,142.576 341.339,142.281 341.336 C 142.115 341.335,141.304 341.528,140.478 341.765 C 138.932 342.210,136.047 342.757,132.250 343.327 C 129.956 343.671,123.229 343.992,120.500 343.888 C 114.804 343.671,112.203 343.472,109.917 343.079 C 108.542 342.843,106.929 342.588,106.333 342.512 C 102.172 341.982,94.614 339.404,89.500 336.770 C 88.446 336.227,87.283 335.628,86.917 335.440 C 86.550 335.251,86.149 334.998,86.026 334.878 C 85.903 334.757,85.565 334.539,85.276 334.393 C 84.987 334.247,84.492 333.930,84.176 333.689 C 83.861 333.447,83.399 333.137,83.150 333.000 C 81.300 331.977,76.134 327.352,73.750 324.582 C 73.383 324.157,72.959 323.671,72.808 323.504 C 72.540 323.208,70.958 321.177,70.078 320.000 C 69.838 319.679,69.238 318.779,68.745 318.000 C 68.252 317.221,67.780 316.503,67.697 316.406 C 67.613 316.308,67.299 315.783,67.000 315.239 C 66.701 314.695,66.388 314.164,66.305 314.059 C 66.112 313.814,63.505 308.620,63.502 308.475 C 63.497 308.200,62.138 305.483,62.029 305.530 C 61.961 305.559,61.552 305.733,61.120 305.917 C 60.189 306.312,60.203 306.220,60.838 307.722 C 62.161 310.850,64.357 315.203,65.434 316.830 C 65.673 317.191,65.992 317.706,66.143 317.974 C 66.294 318.241,66.792 319.007,67.250 319.676 C 67.708 320.345,68.205 321.090,68.354 321.332 C 68.503 321.574,68.822 321.984,69.063 322.244 C 69.303 322.503,69.500 322.774,69.500 322.846 C 69.500 322.917,69.602 323.078,69.726 323.202 C 69.851 323.327,70.315 323.876,70.757 324.423 C 72.678 326.796,76.408 330.527,78.583 332.252 C 79.500 332.979,80.325 333.633,80.417 333.706 C 80.971 334.148,84.451 336.500,84.551 336.500 C 84.596 336.500,84.999 336.744,85.447 337.042 C 86.691 337.869,92.274 340.598,93.852 341.149 C 94.346 341.321,95.388 341.690,96.167 341.969 C 98.028 342.634,101.202 343.585,102.250 343.790 C 102.708 343.880,103.983 344.149,105.083 344.387 C 113.718 346.254,125.028 346.558,134.232 345.169 C 136.360 344.848,137.411 344.638,141.750 343.664 C 143.462 343.280,145.321 342.708,149.083 341.409 C 149.542 341.251,150.517 340.869,151.250 340.559 C 151.983 340.250,152.644 339.998,152.719 339.999 C 152.978 340.001,158.250 337.451,160.083 336.436 C 160.633 336.132,161.449 335.681,161.896 335.435 C 162.343 335.188,163.032 334.765,163.426 334.493 C 163.821 334.222,164.198 334.000,164.264 334.000 C 164.331 334.000,164.652 333.794,164.977 333.542 C 165.303 333.290,165.809 332.933,166.102 332.750 C 167.241 332.037,168.756 330.932,168.883 330.721 C 168.957 330.600,169.097 330.500,169.196 330.500 C 169.295 330.500,169.648 330.272,169.980 329.994 C 170.312 329.715,170.965 329.172,171.433 328.785 C 173.677 326.930,174.456 326.213,177.175 323.501 C 178.783 321.896,180.664 319.871,181.355 319.000 C 182.045 318.129,182.735 317.314,182.888 317.188 C 183.041 317.062,183.167 316.865,183.167 316.750 C 183.167 316.635,183.288 316.440,183.436 316.317 C 183.670 316.123,185.096 314.153,185.583 313.351 C 185.675 313.200,185.908 312.853,186.102 312.580 C 186.296 312.307,186.806 311.483,187.236 310.750 C 187.667 310.017,188.107 309.267,188.214 309.083 C 190.266 305.591,192.631 300.143,193.749 296.333 C 194.353 294.278,195.043 291.553,195.175 290.703 C 195.257 290.179,195.521 288.737,195.763 287.500 C 196.180 285.367,196.207 284.915,196.283 278.792 L 196.363 272.333 196.948 272.333 L 197.533 272.333 197.417 271.292 C 197.354 270.719,197.166 269.462,197.000 268.500 C 196.834 267.537,196.609 266.188,196.501 265.500 C 196.258 263.960,195.278 260.155,194.720 258.583 C 194.492 257.942,194.207 257.079,194.088 256.667 C 193.620 255.055,190.880 249.492,189.708 247.776 C 189.410 247.340,189.165 246.931,189.163 246.867 C 189.161 246.802,189.009 246.563,188.824 246.333 C 188.640 246.104,188.232 245.542,187.918 245.083 C 187.271 244.140,185.255 241.582,184.550 240.810 C 183.637 239.810,180.520 236.739,179.725 236.056 C 179.280 235.675,178.617 235.103,178.250 234.786 C 177.611 234.233,176.065 233.008,174.833 232.077 C 173.639 231.175,170.670 229.167,170.530 229.167 C 170.450 229.167,170.204 229.009,169.984 228.817 C 169.764 228.624,169.246 228.293,168.833 228.080 C 168.421 227.867,167.825 227.500,167.509 227.263 C 167.194 227.027,166.871 226.833,166.793 226.833 C 166.715 226.833,166.261 226.585,165.784 226.281 C 165.307 225.977,164.692 225.615,164.417 225.476 C 164.142 225.337,163.173 224.829,162.264 224.346 C 161.356 223.864,160.493 223.414,160.348 223.346 C 159.813 223.097,159.066 222.723,158.417 222.378 C 157.360 221.818,152.841 219.667,152.719 219.667 C 152.658 219.667,152.003 219.374,151.263 219.015 C 150.522 218.657,149.392 218.136,148.750 217.858 C 148.108 217.580,146.901 217.049,146.068 216.677 C 145.235 216.304,144.495 216.000,144.424 216.000 C 144.353 216.000,143.734 215.737,143.049 215.417 C 142.364 215.096,141.733 214.833,141.647 214.833 C 141.561 214.833,141.061 214.619,140.537 214.356 C 140.012 214.094,139.283 213.784,138.917 213.667 C 138.550 213.550,137.821 213.239,137.296 212.977 C 136.772 212.715,136.229 212.500,136.091 212.500 C 135.952 212.500,135.294 212.245,134.628 211.934 C 133.482 211.398,132.219 210.857,128.750 209.414 C 127.925 209.071,126.702 208.537,126.033 208.228 C 125.363 207.919,124.746 207.667,124.661 207.667 C 124.575 207.667,123.961 207.413,123.294 207.102 C 122.628 206.792,121.446 206.255,120.667 205.909 C 117.102 204.327,112.476 201.873,110.000 200.252 C 109.313 199.802,108.544 199.317,108.293 199.175 C 107.818 198.906,104.437 196.454,104.000 196.061 C 103.862 195.938,103.112 195.291,102.333 194.625 C 99.968 192.601,96.768 189.238,95.286 187.216 C 95.030 186.868,94.487 186.139,94.077 185.596 C 93.668 185.053,93.333 184.534,93.333 184.442 C 93.333 184.351,93.228 184.158,93.100 184.013 C 92.630 183.482,91.556 181.433,90.343 178.750 C 89.408 176.682,88.648 173.985,87.900 170.083 C 87.402 167.482,87.423 162.108,87.940 160.048 L 88.036 159.667 108.414 159.667 C 124.562 159.667,128.829 159.710,128.966 159.876 C 129.062 159.991,129.194 160.299,129.259 160.561 C 129.622 162.006,132.340 163.945,134.583 164.358 C 136.979 164.799,140.283 163.401,141.316 161.509 C 141.444 161.275,141.608 161.044,141.680 160.997 C 142.626 160.375,142.916 156.105,142.123 154.483 C 141.083 152.357,138.500 150.333,136.828 150.333 C 136.504 150.333,136.500 150.117,136.500 132.667 L 136.500 115.000 137.125 115.003 C 137.469 115.005,138.575 115.122,139.583 115.262 C 140.592 115.403,141.904 115.586,142.500 115.670 C 144.110 115.896,148.579 117.333,151.167 118.457 C 153.305 119.386,157.456 121.679,158.388 122.446 C 158.647 122.659,158.959 122.833,159.082 122.833 C 159.205 122.833,159.331 122.892,159.361 122.963 C 159.392 123.034,160.129 123.626,161.000 124.278 C 161.871 124.930,162.824 125.678,163.117 125.940 C 163.411 126.202,163.956 126.679,164.328 127.000 C 166.494 128.866,171.522 134.160,172.506 135.609 C 172.640 135.806,173.256 136.614,173.875 137.403 C 174.494 138.193,175.000 138.903,175.000 138.982 C 175.000 139.061,175.111 139.218,175.246 139.330 C 175.382 139.443,175.844 140.071,176.273 140.726 C 176.702 141.381,177.098 141.954,177.152 142.000 C 177.206 142.046,177.362 142.285,177.500 142.533 C 179.387 145.923,179.426 145.961,180.494 145.420 C 181.225 145.049,181.633 144.500,181.178 144.500 C 181.092 144.500,180.977 144.358,180.922 144.183 C 180.819 143.858,179.478 141.577,178.953 140.833 C 178.791 140.604,178.386 140.004,178.052 139.500 C 177.718 138.996,177.383 138.558,177.306 138.528 C 177.229 138.497,177.167 138.377,177.167 138.260 C 177.167 138.144,176.970 137.836,176.729 137.577 C 176.489 137.317,176.170 136.903,176.021 136.655 C 174.956 134.888,170.369 129.604,168.008 127.423 C 167.508 126.961,166.817 126.321,166.472 126.000 C 165.173 124.793,163.433 123.372,162.086 122.417 C 161.569 122.050,160.906 121.558,160.614 121.323 C 160.322 121.089,159.821 120.743,159.500 120.556 C 159.179 120.368,158.300 119.834,157.546 119.368 C 156.033 118.433,151.300 116.081,150.556 115.895 C 150.296 115.830,149.686 115.602,149.201 115.388 C 146.292 114.103,140.434 112.997,136.542 112.999 L 134.500 113.000 134.500 131.648 M126.750 113.506 C 125.742 113.573,124.392 113.744,123.750 113.885 C 123.108 114.026,122.021 114.266,121.333 114.419 C 120.646 114.571,119.521 114.884,118.833 115.114 C 118.146 115.343,117.219 115.634,116.774 115.761 C 113.157 116.787,106.587 120.711,102.863 124.068 C 100.583 126.122,97.956 128.948,96.187 131.250 C 94.964 132.840,92.333 136.730,92.333 136.947 C 92.333 137.031,92.240 137.194,92.125 137.308 C 91.605 137.828,87.500 145.982,87.500 146.496 C 87.500 146.585,87.307 147.091,87.072 147.620 C 86.657 148.555,86.214 149.956,86.048 150.858 C 85.962 151.328,85.880 151.286,87.468 151.590 C 87.927 151.677,87.947 151.649,88.415 150.215 C 88.678 149.409,89.105 148.279,89.363 147.704 C 89.622 147.129,89.833 146.583,89.833 146.492 C 89.833 146.400,90.096 145.804,90.417 145.167 C 90.737 144.530,91.000 143.934,91.000 143.843 C 91.000 143.641,93.558 138.916,94.163 138.000 C 94.315 137.771,94.752 137.109,95.136 136.529 C 95.520 135.950,95.833 135.415,95.833 135.342 C 95.833 135.268,95.946 135.114,96.084 134.999 C 96.222 134.885,96.739 134.214,97.233 133.509 C 99.142 130.786,101.877 127.835,105.200 124.917 C 106.065 124.156,108.475 122.374,109.482 121.750 C 110.956 120.836,111.811 120.354,112.125 120.258 C 112.331 120.196,112.500 120.083,112.500 120.009 C 112.500 119.935,112.894 119.706,113.375 119.501 C 113.856 119.296,114.716 118.912,115.285 118.647 C 115.854 118.383,116.379 118.167,116.451 118.168 C 116.524 118.168,117.146 117.945,117.833 117.671 C 119.871 116.860,124.320 115.838,126.583 115.662 C 127.683 115.576,128.977 115.462,129.458 115.408 L 130.333 115.309 130.333 114.321 L 130.333 113.333 129.458 113.359 C 128.977 113.373,127.758 113.439,126.750 113.506 M196.572 146.613 C 199.885 147.529,201.160 151.421,199.090 154.302 C 196.100 158.464,189.496 155.531,190.367 150.426 C 190.863 147.520,193.653 145.806,196.572 146.613 M136.700 152.522 C 140.610 153.356,141.936 159.526,138.585 161.289 C 138.401 161.386,137.881 161.661,137.430 161.900 C 134.112 163.655,129.683 159.896,130.749 156.229 C 131.224 154.596,132.657 153.019,133.974 152.682 C 135.511 152.287,135.582 152.283,136.700 152.522 M155.833 234.785 C 155.833 234.942,156.093 242.424,156.410 251.410 C 156.728 260.397,157.009 269.531,157.035 271.708 L 157.083 275.667 156.667 275.670 C 153.088 275.701,150.291 281.212,151.851 285.159 C 154.731 292.449,165.333 290.346,165.333 282.485 C 165.333 279.098,162.674 275.667,160.049 275.667 C 159.758 275.667,159.476 275.597,159.423 275.511 C 159.182 275.120,158.001 237.833,158.230 237.833 C 158.382 237.833,161.190 239.444,162.250 240.140 C 162.892 240.561,163.540 240.983,163.691 241.078 C 165.187 242.016,168.750 244.952,170.485 246.675 C 172.338 248.515,176.167 253.069,176.167 253.432 C 176.167 253.491,176.429 253.896,176.750 254.333 C 177.071 254.770,177.333 255.179,177.333 255.242 C 177.333 255.305,177.547 255.670,177.809 256.053 C 178.070 256.436,178.697 257.612,179.201 258.667 C 180.516 261.415,180.664 261.759,180.908 262.632 C 181.028 263.064,181.359 264.092,181.643 264.917 C 182.178 266.465,182.835 269.409,183.171 271.763 C 183.495 274.030,183.290 282.831,182.863 285.000 C 182.673 285.962,182.433 287.200,182.329 287.750 C 181.403 292.635,179.227 298.883,177.076 302.833 C 176.951 303.063,176.651 303.625,176.408 304.083 C 176.166 304.542,175.825 305.142,175.650 305.417 C 173.349 309.040,173.359 309.026,171.284 311.667 C 167.739 316.177,163.147 320.364,158.000 323.779 C 157.496 324.114,157.046 324.436,157.000 324.495 C 156.954 324.554,156.673 324.701,156.375 324.821 C 156.077 324.942,155.833 325.089,155.833 325.149 C 155.833 325.209,155.552 325.404,155.208 325.582 C 154.865 325.761,154.283 326.094,153.917 326.323 C 153.550 326.552,152.800 326.971,152.250 327.254 C 151.700 327.537,151.100 327.852,150.917 327.954 C 150.733 328.057,150.021 328.400,149.333 328.718 C 148.646 329.035,147.513 329.566,146.816 329.897 C 146.118 330.229,145.468 330.500,145.370 330.500 C 145.272 330.500,144.492 330.791,143.638 331.147 C 142.783 331.503,141.633 331.946,141.083 332.132 C 140.533 332.319,139.746 332.585,139.333 332.726 C 137.983 333.185,134.451 334.139,132.750 334.505 C 131.833 334.702,130.952 334.899,130.792 334.943 C 130.515 335.018,130.500 334.187,130.500 319.170 L 130.500 303.317 129.458 303.367 L 128.417 303.417 128.374 320.466 L 128.332 337.515 128.958 337.405 C 129.302 337.345,130.296 337.151,131.167 336.975 C 132.037 336.798,133.125 336.589,133.583 336.509 C 135.860 336.112,143.311 333.757,144.706 332.992 C 144.865 332.905,145.107 332.833,145.244 332.833 C 145.381 332.833,146.053 332.571,146.739 332.250 C 147.424 331.929,148.029 331.667,148.084 331.667 C 148.416 331.667,154.688 328.433,156.233 327.466 C 156.701 327.173,157.281 326.817,157.522 326.675 C 157.763 326.533,158.507 326.042,159.176 325.583 C 159.845 325.125,160.623 324.613,160.905 324.446 C 161.186 324.278,161.492 324.053,161.583 323.946 C 161.675 323.838,162.350 323.300,163.082 322.750 C 166.702 320.033,170.411 316.358,173.342 312.583 C 173.840 311.942,174.380 311.271,174.541 311.094 C 174.702 310.916,174.833 310.701,174.833 310.616 C 174.833 310.530,175.040 310.219,175.292 309.924 C 175.714 309.429,176.379 308.428,177.002 307.352 C 177.141 307.113,177.523 306.467,177.852 305.917 C 178.578 304.701,180.834 300.153,180.834 299.906 C 180.834 299.809,181.011 299.359,181.227 298.906 C 181.444 298.454,181.716 297.783,181.831 297.417 C 181.947 297.050,182.295 296.048,182.604 295.189 C 182.914 294.331,183.167 293.532,183.167 293.414 C 183.167 293.296,183.432 292.236,183.757 291.058 C 184.081 289.880,184.415 288.429,184.499 287.833 C 184.582 287.237,184.803 285.813,184.990 284.667 C 185.772 279.869,185.772 274.476,184.990 270.133 C 184.804 269.097,184.585 267.837,184.503 267.333 C 184.422 266.829,184.156 265.779,183.913 265.000 C 183.670 264.221,183.365 263.210,183.235 262.754 C 182.762 261.092,181.296 257.865,179.674 254.917 C 179.197 254.049,177.825 251.977,177.489 251.617 C 177.312 251.426,177.167 251.204,177.167 251.123 C 177.167 250.416,171.582 244.526,168.438 241.918 C 166.993 240.719,162.352 237.500,162.068 237.500 C 161.999 237.500,161.825 237.397,161.680 237.270 C 161.205 236.855,156.372 234.500,155.996 234.500 C 155.906 234.500,155.833 234.628,155.833 234.785 M120.066 265.992 C 113.997 267.522,111.768 275.477,116.099 280.154 C 117.399 281.559,119.665 282.833,120.862 282.833 L 121.383 282.833 121.275 297.125 C 121.215 304.985,121.117 316.771,121.058 323.316 L 120.950 335.215 118.767 335.105 C 116.768 335.004,115.652 334.896,110.750 334.327 C 109.833 334.221,108.183 333.944,107.083 333.712 C 105.983 333.480,104.596 333.199,104.000 333.088 C 101.700 332.659,97.032 330.991,93.917 329.484 C 92.053 328.583,91.465 328.247,89.681 327.067 C 87.708 325.762,87.440 325.565,87.013 325.103 C 86.790 324.863,86.555 324.667,86.489 324.667 C 86.323 324.667,83.623 321.944,82.688 320.833 C 82.264 320.329,81.823 319.857,81.708 319.783 C 81.594 319.710,81.500 319.573,81.500 319.478 C 81.500 319.383,81.248 318.993,80.940 318.611 C 80.633 318.229,80.179 317.567,79.933 317.139 C 79.686 316.712,79.376 316.271,79.242 316.160 C 79.109 316.050,79.000 315.843,79.000 315.701 C 79.000 315.559,78.897 315.325,78.770 315.180 C 78.644 315.035,78.140 314.148,77.650 313.208 C 77.017 311.995,76.672 311.500,76.456 311.500 C 76.148 311.500,74.833 312.109,74.833 312.252 C 74.833 312.471,77.179 316.986,77.504 317.390 C 77.589 317.497,78.083 318.221,78.601 319.000 C 79.120 319.779,79.756 320.679,80.015 321.000 C 81.697 323.080,83.097 324.578,84.379 325.667 C 85.188 326.354,86.015 327.071,86.217 327.260 C 86.418 327.449,87.183 328.004,87.917 328.494 C 88.650 328.983,89.458 329.526,89.712 329.700 C 90.329 330.122,95.305 332.599,95.833 332.747 C 96.063 332.811,96.737 333.057,97.333 333.292 C 97.929 333.528,98.867 333.849,99.417 334.005 C 99.967 334.162,101.092 334.493,101.917 334.742 C 102.742 334.990,103.792 335.254,104.250 335.327 C 104.708 335.401,106.058 335.661,107.250 335.906 C 108.442 336.152,110.167 336.422,111.083 336.506 C 112.000 336.591,113.875 336.768,115.250 336.900 C 116.625 337.031,118.956 337.191,120.431 337.254 L 123.112 337.369 123.223 330.074 C 123.283 326.061,123.333 313.801,123.333 302.829 L 123.333 282.880 124.233 282.787 C 125.979 282.607,128.078 281.244,129.597 279.305 C 131.431 276.961,131.607 272.362,129.957 269.847 C 129.752 269.533,129.508 269.154,129.417 269.003 C 127.913 266.537,123.518 265.122,120.066 265.992 M123.750 267.905 C 125.613 268.428,125.950 268.618,127.184 269.850 C 128.533 271.195,129.321 273.476,129.007 275.127 C 127.808 281.454,120.050 282.934,116.796 277.457 L 116.089 276.267 116.091 274.342 C 116.092 272.640,116.137 272.330,116.487 271.667 C 116.935 270.815,117.674 269.782,117.905 269.684 C 117.990 269.648,118.224 269.443,118.423 269.227 C 119.452 268.118,122.135 267.451,123.750 267.905 M160.000 277.875 C 165.120 279.593,163.861 287.487,158.459 287.535 C 155.136 287.565,152.347 283.638,153.700 280.833 C 154.137 279.929,154.562 279.263,154.802 279.111 C 154.922 279.035,155.259 278.763,155.552 278.508 C 156.557 277.631,158.462 277.360,160.000 277.875 " stroke="none" fill="#f48334" fill-rule="evenodd"></path><path id="path2" d="M144.167 62.250 L 144.167 66.667 140.500 66.667 L 136.833 66.667 136.833 67.917 L 136.833 69.167 140.500 69.167 L 144.167 69.167 144.167 84.333 L 144.167 99.500 145.583 99.500 L 147.000 99.500 147.000 84.333 L 147.000 69.167 150.583 69.167 L 154.167 69.167 154.167 67.917 L 154.167 66.667 150.583 66.667 L 147.000 66.667 147.000 62.250 L 147.000 57.833 145.583 57.833 L 144.167 57.833 144.167 62.250 M112.011 65.840 C 108.738 66.315,105.109 68.165,102.986 70.442 C 98.948 74.772,97.203 82.334,98.914 88.083 C 99.160 88.908,99.404 89.771,99.458 90.000 C 100.383 93.986,105.126 98.409,110.105 99.930 C 111.623 100.394,117.183 100.359,118.583 99.877 C 120.880 99.087,121.593 98.786,122.267 98.322 C 122.657 98.053,123.062 97.833,123.166 97.833 C 123.394 97.833,127.000 94.257,127.000 94.031 C 127.000 93.945,127.263 93.438,127.583 92.905 L 128.167 91.936 128.167 95.718 L 128.167 99.500 129.417 99.500 L 130.667 99.500 130.667 83.083 L 130.667 66.667 129.417 66.667 L 128.167 66.667 128.164 70.458 L 128.161 74.250 127.751 73.583 C 127.525 73.217,127.229 72.681,127.092 72.393 C 126.850 71.882,124.577 69.467,123.590 68.672 C 120.927 66.527,115.843 65.284,112.011 65.840 M171.711 65.915 C 169.153 66.379,166.699 67.455,164.833 68.931 C 163.751 69.787,161.833 71.726,161.833 71.965 C 161.833 72.034,161.620 72.352,161.359 72.670 C 158.703 75.913,157.697 82.920,159.104 88.378 C 161.579 97.981,171.468 102.892,180.750 99.127 C 183.608 97.968,187.352 94.464,188.009 92.333 C 188.080 92.104,188.144 93.623,188.152 95.708 L 188.167 99.500 189.500 99.500 L 190.833 99.500 190.833 83.083 L 190.833 66.667 189.500 66.667 L 188.167 66.667 188.154 70.375 C 188.146 72.415,188.100 73.971,188.051 73.833 C 186.210 68.699,178.082 64.760,171.711 65.915 M118.167 68.812 C 121.445 69.797,124.691 72.281,125.924 74.750 C 126.108 75.117,126.415 75.717,126.607 76.083 C 127.609 77.993,128.247 81.272,128.116 83.841 C 127.993 86.257,127.116 89.548,126.243 90.871 C 126.018 91.213,125.833 91.601,125.833 91.733 C 125.833 91.864,125.776 91.997,125.705 92.028 C 125.635 92.058,125.406 92.308,125.197 92.583 C 123.846 94.359,121.452 96.213,119.687 96.851 C 117.513 97.637,117.204 97.698,115.000 97.776 C 113.105 97.844,112.566 97.805,111.583 97.530 C 109.950 97.073,108.176 96.394,107.854 96.102 C 107.705 95.967,107.366 95.744,107.102 95.607 C 106.612 95.353,104.167 93.068,104.166 92.863 C 104.165 92.801,103.978 92.525,103.749 92.250 C 103.208 91.599,102.017 89.103,101.840 88.250 C 101.765 87.883,101.577 87.021,101.424 86.333 C 99.888 79.444,103.313 72.009,109.250 69.342 C 111.607 68.283,115.613 68.045,118.167 68.812 M177.313 68.589 C 178.996 68.986,180.360 69.474,181.036 69.921 C 181.379 70.148,181.708 70.333,181.767 70.333 C 181.995 70.333,184.023 72.089,184.635 72.817 C 191.417 80.886,188.322 93.880,178.833 97.177 C 174.714 98.609,168.809 97.525,166.294 94.875 C 166.011 94.577,165.695 94.333,165.592 94.333 C 165.489 94.333,165.273 94.109,165.111 93.835 C 164.948 93.560,164.680 93.263,164.514 93.174 C 164.348 93.085,164.118 92.785,164.003 92.506 C 163.887 92.228,163.746 92.000,163.688 92.000 C 163.373 92.000,161.826 88.275,161.645 87.083 C 161.178 83.997,161.126 83.111,161.321 81.521 C 161.677 78.608,161.789 78.091,162.314 76.934 C 162.599 76.303,162.833 75.723,162.833 75.645 C 162.833 75.230,164.532 72.951,165.618 71.910 C 167.445 70.158,169.332 69.199,172.417 68.453 C 173.190 68.266,176.310 68.352,177.313 68.589 M172.833 161.000 L 172.833 163.167 174.250 163.167 L 175.667 163.167 175.667 161.000 L 175.667 158.833 174.250 158.833 L 172.833 158.833 172.833 161.000 M152.417 170.659 C 151.683 170.732,150.521 170.995,149.833 171.243 C 149.146 171.492,148.396 171.754,148.167 171.826 C 146.602 172.317,144.387 174.035,142.147 176.494 C 141.735 176.946,140.167 179.548,140.167 179.778 C 140.167 179.858,139.947 180.447,139.678 181.086 C 138.530 183.818,138.288 187.686,138.978 192.250 C 139.264 194.140,141.039 198.015,142.184 199.250 C 148.002 205.527,156.125 207.014,163.792 203.205 L 165.333 202.440 165.333 200.970 C 165.333 199.343,165.330 199.338,164.599 199.888 C 158.949 204.139,148.428 203.012,144.651 197.753 C 144.353 197.339,144.053 197.000,143.983 197.000 C 143.913 197.000,143.803 196.832,143.737 196.627 C 143.672 196.422,143.438 195.980,143.216 195.645 C 141.731 193.401,140.846 187.790,141.510 184.833 C 141.878 183.197,142.737 180.779,143.186 180.116 C 143.447 179.732,143.662 179.352,143.664 179.274 C 143.675 178.746,146.178 176.174,147.417 175.418 C 147.692 175.251,148.179 174.944,148.500 174.737 C 149.894 173.838,153.139 173.006,155.269 173.002 C 157.861 172.998,161.699 173.977,163.192 175.023 C 163.436 175.194,163.722 175.333,163.829 175.333 C 163.935 175.333,164.268 175.521,164.569 175.750 C 165.341 176.339,165.352 176.325,165.298 174.723 L 165.250 173.279 164.583 172.886 C 161.272 170.935,157.181 170.186,152.417 170.659 M195.566 170.663 C 195.007 170.743,194.040 171.039,193.418 171.321 C 192.796 171.603,192.221 171.833,192.140 171.833 C 191.955 171.833,190.603 172.707,190.528 172.875 C 190.497 172.944,190.369 173.000,190.244 173.000 C 189.587 173.000,186.441 176.596,185.471 178.456 C 181.808 185.479,182.899 195.039,187.977 200.427 C 188.910 201.417,190.672 202.833,190.970 202.833 C 191.054 202.833,191.320 202.989,191.561 203.179 C 192.518 203.932,196.017 204.922,198.351 205.102 C 201.087 205.312,206.024 204.396,207.956 203.320 C 208.436 203.052,208.899 202.833,208.985 202.833 C 209.072 202.833,209.598 202.519,210.154 202.135 L 211.167 201.436 211.167 200.135 C 211.167 198.836,211.059 198.610,210.667 199.083 C 210.553 199.221,210.365 199.333,210.250 199.333 C 210.135 199.333,209.942 199.453,209.821 199.598 C 209.100 200.467,204.802 202.102,202.159 202.513 C 198.883 203.023,193.643 201.706,191.445 199.821 C 189.110 197.818,187.073 194.657,186.782 192.583 C 186.731 192.217,186.572 191.392,186.430 190.750 C 186.284 190.086,186.171 188.776,186.170 187.708 L 186.167 185.833 198.659 185.833 L 211.152 185.833 211.270 185.208 C 211.679 183.061,211.165 179.044,210.280 177.456 C 210.080 177.098,209.793 176.583,209.642 176.311 C 208.431 174.133,205.712 172.101,202.500 170.973 C 201.440 170.601,197.302 170.416,195.566 170.663 M232.917 170.662 C 232.275 170.736,231.338 170.963,230.833 171.166 C 230.329 171.368,229.620 171.644,229.258 171.778 C 228.896 171.912,228.274 172.241,227.875 172.511 C 227.476 172.780,227.112 173.000,227.066 173.000 C 226.639 173.000,222.840 176.689,222.830 177.113 C 222.829 177.188,222.604 177.580,222.330 177.983 L 221.833 178.717 221.833 175.108 L 221.833 171.500 220.583 171.500 L 219.333 171.500 219.333 187.833 L 219.333 204.167 220.744 204.167 L 222.155 204.167 222.209 193.708 C 222.270 182.003,222.211 182.602,223.546 180.105 C 224.386 178.533,226.968 175.761,228.083 175.234 C 228.358 175.104,228.826 174.842,229.122 174.652 C 233.570 171.798,240.018 172.930,242.393 176.982 C 243.958 179.652,244.167 181.647,244.167 193.929 L 244.167 204.167 245.500 204.167 L 246.833 204.167 246.831 193.792 C 246.828 181.686,246.746 180.249,245.927 177.840 C 244.019 172.228,239.742 169.869,232.917 170.662 M268.417 170.673 C 266.600 170.844,264.410 171.577,262.650 172.603 C 260.958 173.590,257.500 176.780,257.500 177.354 C 257.500 177.416,257.237 177.857,256.917 178.333 C 256.596 178.810,256.333 179.274,256.333 179.365 C 256.333 179.455,256.101 180.029,255.818 180.640 C 255.299 181.758,255.230 182.042,254.738 185.083 C 254.313 187.711,254.607 191.482,255.439 194.083 C 255.796 195.202,257.162 198.000,257.350 198.000 C 257.432 198.000,257.500 198.110,257.500 198.244 C 257.500 198.846,260.782 202.014,262.250 202.830 C 263.791 203.686,264.157 203.847,265.647 204.328 C 270.184 205.794,275.864 205.327,279.992 203.151 L 281.333 202.443 281.333 200.972 C 281.333 199.385,281.272 199.299,280.554 199.886 C 278.708 201.399,273.346 202.843,270.500 202.595 C 266.644 202.258,262.874 200.456,260.812 197.965 C 260.411 197.480,260.027 197.058,259.958 197.028 C 259.890 196.997,259.833 196.905,259.833 196.822 C 259.833 196.739,259.609 196.307,259.335 195.862 C 259.061 195.417,258.729 194.760,258.597 194.401 C 258.465 194.043,258.199 193.338,258.007 192.833 C 256.946 190.051,257.197 184.759,258.550 181.392 C 261.104 175.036,268.653 171.543,275.417 173.589 C 276.242 173.839,277.098 174.082,277.319 174.129 C 277.541 174.177,278.167 174.468,278.710 174.775 C 279.254 175.082,279.774 175.333,279.867 175.333 C 279.959 175.333,280.258 175.521,280.530 175.750 C 281.273 176.375,281.333 176.294,281.333 174.683 C 281.333 173.220,281.327 173.197,280.875 173.014 C 280.623 172.912,280.175 172.674,279.879 172.485 C 279.330 172.133,278.352 171.735,276.583 171.145 C 274.992 170.613,271.316 170.401,268.417 170.673 M299.333 170.659 C 297.955 170.869,295.578 171.836,294.589 172.590 C 294.294 172.816,293.995 173.000,293.927 173.000 C 293.424 173.000,290.712 175.892,289.714 177.492 C 286.289 182.982,286.220 191.668,289.555 197.575 C 290.441 199.145,293.207 202.141,294.254 202.665 C 294.527 202.801,295.087 203.107,295.500 203.344 C 297.690 204.602,301.872 205.348,304.971 205.032 C 308.035 204.720,312.703 203.249,313.701 202.282 C 313.820 202.167,314.160 201.901,314.458 201.691 C 314.987 201.320,315.000 201.280,315.000 200.072 C 315.000 198.621,315.000 198.621,313.636 199.549 C 308.657 202.935,302.164 203.521,297.174 201.036 C 292.593 198.754,289.838 193.719,289.834 187.625 L 289.833 185.833 302.417 185.833 L 315.000 185.833 315.000 183.001 C 315.000 180.098,314.764 178.780,314.059 177.755 C 313.935 177.574,313.832 177.311,313.830 177.171 C 313.817 176.166,309.386 171.833,308.370 171.833 C 308.293 171.833,307.934 171.692,307.573 171.519 C 305.761 170.650,301.986 170.256,299.333 170.659 M172.833 187.833 L 172.833 204.167 174.250 204.167 L 175.667 204.167 175.667 187.833 L 175.667 171.500 174.250 171.500 L 172.833 171.500 172.833 187.833 M200.333 172.983 C 201.168 173.071,201.961 173.289,202.720 173.641 C 203.345 173.930,203.913 174.167,203.982 174.167 C 204.050 174.167,204.413 174.429,204.788 174.750 C 205.163 175.071,205.545 175.333,205.638 175.333 C 205.730 175.333,205.964 175.588,206.156 175.900 C 206.349 176.212,206.607 176.505,206.729 176.552 C 207.457 176.832,208.510 179.710,208.615 181.708 L 208.718 183.667 197.609 183.667 C 191.499 183.667,186.503 183.610,186.506 183.542 C 186.697 179.521,190.459 175.007,195.083 173.250 C 195.954 172.919,198.496 172.790,200.333 172.983 M305.481 173.246 C 308.006 174.148,311.500 176.969,311.500 178.105 C 311.500 178.170,311.698 178.717,311.939 179.320 C 312.297 180.215,312.382 180.708,312.397 182.000 L 312.417 183.583 301.292 183.626 C 293.660 183.656,290.167 183.615,290.167 183.495 C 290.167 183.279,290.981 180.673,291.155 180.333 C 292.406 177.892,292.571 177.646,293.926 176.221 C 294.998 175.095,296.467 174.187,298.667 173.292 C 299.807 172.827,304.228 172.798,305.481 173.246 M301.126 231.208 C 301.085 240.664,301.071 241.058,300.799 240.480 C 300.232 239.279,297.689 236.345,297.208 236.337 C 297.094 236.335,297.000 236.274,297.000 236.202 C 297.000 235.930,293.924 234.241,292.979 233.994 C 289.332 233.042,287.947 232.881,285.833 233.160 C 285.054 233.262,283.951 233.494,283.382 233.673 C 282.813 233.853,282.224 234.000,282.074 234.000 C 281.390 234.000,278.452 235.779,277.000 237.073 C 271.104 242.325,269.860 252.858,274.237 260.471 C 274.792 261.435,277.914 264.833,278.246 264.833 C 278.310 264.833,278.674 265.056,279.056 265.327 C 281.815 267.292,286.443 268.128,290.667 267.425 C 294.895 266.721,299.125 263.745,300.845 260.264 L 301.250 259.446 301.355 261.181 C 301.412 262.136,301.468 263.798,301.480 264.875 L 301.500 266.833 302.750 266.833 L 304.000 266.833 304.000 244.083 L 304.000 221.333 302.585 221.333 L 301.169 221.333 301.126 231.208 M220.333 229.583 L 220.333 234.000 216.667 234.000 L 213.000 234.000 213.000 235.250 L 213.000 236.500 216.667 236.500 L 220.333 236.500 220.333 251.667 L 220.333 266.833 221.667 266.833 L 223.000 266.833 223.000 251.667 L 223.000 236.500 226.583 236.500 L 230.167 236.500 230.167 235.250 L 230.167 234.000 226.583 234.000 L 223.000 234.000 223.000 229.583 L 223.000 225.167 221.667 225.167 L 220.333 225.167 220.333 229.583 M388.500 229.583 L 388.500 234.000 384.917 234.000 L 381.333 234.000 381.333 235.250 L 381.333 236.500 384.917 236.500 L 388.500 236.500 388.500 251.667 L 388.500 266.833 389.917 266.833 L 391.333 266.833 391.333 251.667 L 391.333 236.500 395.000 236.500 L 398.667 236.500 398.667 235.250 L 398.667 234.000 395.000 234.000 L 391.333 234.000 391.333 229.583 L 391.333 225.167 389.917 225.167 L 388.500 225.167 388.500 229.583 M324.250 233.179 C 322.846 233.529,320.965 234.179,320.307 234.540 C 318.828 235.353,318.772 235.391,317.237 236.667 C 316.402 237.360,315.000 238.900,315.000 239.124 C 315.000 239.211,314.855 239.413,314.678 239.573 C 314.501 239.733,314.004 240.585,313.572 241.466 C 311.577 245.540,311.088 251.088,312.320 255.667 C 312.993 258.170,314.369 260.969,315.595 262.333 C 319.529 266.708,323.985 268.196,330.846 267.425 C 332.804 267.205,333.272 267.082,336.076 266.053 C 336.830 265.777,338.569 264.761,339.125 264.272 C 339.454 263.982,339.500 263.781,339.500 262.638 C 339.500 261.340,339.392 261.110,339.004 261.579 C 337.992 262.797,333.478 264.717,330.926 265.012 C 321.113 266.150,314.507 260.163,314.501 250.125 L 314.500 248.333 326.989 248.333 L 339.478 248.333 339.587 247.987 C 339.870 247.098,339.727 243.751,339.343 242.250 C 338.779 240.047,336.501 236.333,335.713 236.333 C 335.590 236.333,335.446 236.221,335.394 236.084 C 334.741 234.382,327.251 232.430,324.250 233.179 M361.750 233.174 C 359.591 233.501,356.614 234.692,354.928 235.904 C 353.816 236.703,352.167 238.211,352.167 238.428 C 352.167 238.540,352.060 238.672,351.930 238.722 C 351.800 238.772,351.369 239.359,350.972 240.028 L 350.250 241.244 350.205 237.622 L 350.160 234.000 348.913 234.000 L 347.667 234.000 347.667 250.417 L 347.667 266.833 349.083 266.833 L 350.500 266.833 350.500 256.875 C 350.500 243.814,350.630 243.211,354.191 239.683 C 358.829 235.088,366.456 234.375,369.714 238.232 C 372.229 241.210,372.498 242.979,372.499 256.542 L 372.500 266.833 373.833 266.833 L 375.167 266.833 375.165 256.375 C 375.163 245.254,375.021 242.500,374.359 240.750 C 374.185 240.292,373.877 239.484,373.675 238.956 C 373.473 238.427,373.126 237.779,372.904 237.515 C 372.682 237.251,372.500 236.986,372.500 236.926 C 372.500 236.764,370.872 235.167,370.706 235.167 C 370.627 235.167,370.413 235.027,370.229 234.856 C 368.922 233.638,364.489 232.759,361.750 233.174 M236.170 243.625 C 236.176 256.599,236.419 259.102,237.985 262.262 C 238.699 263.705,240.305 265.530,241.344 266.082 C 243.033 266.978,243.630 267.205,244.879 267.425 C 251.393 268.571,257.372 265.915,260.789 260.356 L 261.161 259.750 261.164 263.292 L 261.167 266.833 262.500 266.833 L 263.833 266.833 263.833 250.417 L 263.833 234.000 262.508 234.000 L 261.183 234.000 261.125 244.292 C 261.059 255.922,261.030 256.155,259.381 258.542 C 259.080 258.978,258.833 259.395,258.833 259.470 C 258.833 259.957,254.271 263.833,253.697 263.833 C 253.614 263.833,253.029 264.075,252.398 264.370 C 251.084 264.983,247.037 265.259,245.590 264.834 C 242.055 263.794,240.061 261.312,239.393 257.121 C 239.169 255.716,239.108 253.534,239.048 244.708 L 238.974 234.000 237.571 234.000 L 236.167 234.000 236.170 243.625 M329.739 235.845 C 330.295 236.020,330.852 236.163,330.977 236.165 C 331.416 236.169,333.592 237.660,334.434 238.534 C 336.188 240.354,337.000 242.438,337.000 245.125 L 337.000 246.167 325.909 246.167 L 314.818 246.167 314.925 245.542 C 315.137 244.297,316.287 241.617,317.089 240.500 C 317.589 239.804,319.831 237.500,320.008 237.500 C 320.077 237.500,320.609 237.215,321.191 236.867 C 322.122 236.311,323.896 235.743,325.667 235.434 C 326.448 235.297,328.725 235.528,329.739 235.845 M290.417 235.934 C 293.713 236.525,296.845 238.567,298.701 241.333 C 301.328 245.252,301.923 249.448,300.683 255.333 C 299.806 259.501,295.980 263.341,291.252 264.799 C 289.754 265.261,285.368 265.160,283.917 264.630 C 281.757 263.843,281.550 263.745,280.359 262.946 C 272.542 257.701,272.266 244.047,279.860 238.282 C 280.993 237.421,283.131 236.365,284.176 236.150 C 284.675 236.047,285.346 235.905,285.667 235.834 C 286.682 235.609,288.864 235.655,290.417 235.934 M274.444 285.278 C 274.383 285.339,274.333 286.351,274.333 287.528 L 274.333 289.667 275.750 289.667 L 277.167 289.667 277.167 287.417 L 277.167 285.167 275.861 285.167 C 275.143 285.167,274.506 285.217,274.444 285.278 M324.667 293.500 L 324.667 298.000 321.083 298.000 L 317.500 298.000 317.500 299.167 L 317.500 300.333 321.083 300.333 L 324.667 300.333 324.667 315.500 L 324.667 330.667 326.083 330.667 L 327.500 330.667 327.500 315.500 L 327.500 300.333 331.083 300.333 L 334.667 300.333 334.667 299.167 L 334.667 298.000 331.083 298.000 L 327.500 298.000 327.500 293.500 L 327.500 289.000 326.083 289.000 L 324.667 289.000 324.667 293.500 M214.583 297.157 C 213.942 297.232,212.817 297.527,212.083 297.812 C 211.350 298.098,210.675 298.333,210.583 298.335 C 209.677 298.355,206.082 301.218,204.437 303.231 C 200.354 308.227,199.683 318.078,203.068 323.333 C 203.274 323.654,203.637 324.217,203.873 324.583 C 207.669 330.476,215.967 333.224,223.000 330.917 C 224.054 330.571,224.992 330.234,225.083 330.168 C 225.175 330.102,225.696 329.807,226.242 329.511 C 234.553 325.014,237.216 312.207,231.536 304.050 C 230.310 302.289,227.463 299.500,226.893 299.500 C 226.824 299.500,226.494 299.310,226.159 299.078 C 225.519 298.634,224.567 298.238,222.500 297.554 C 221.107 297.094,216.927 296.884,214.583 297.157 M253.917 297.171 C 253.183 297.239,252.246 297.414,251.833 297.559 C 249.941 298.226,249.367 298.460,248.686 298.841 C 248.285 299.066,247.745 299.362,247.488 299.500 C 246.405 300.078,243.935 302.513,243.235 303.692 C 243.135 303.860,242.937 304.129,242.794 304.291 C 241.217 306.071,239.814 311.863,240.078 315.500 C 240.193 317.095,240.244 317.417,240.731 319.629 C 241.061 321.133,242.135 323.587,242.826 324.417 C 242.978 324.600,243.191 324.956,243.298 325.208 C 243.405 325.460,243.562 325.667,243.647 325.667 C 243.731 325.667,243.939 325.879,244.109 326.138 C 244.374 326.544,244.866 327.012,246.750 328.651 C 248.672 330.321,253.082 331.667,256.638 331.667 C 259.252 331.667,263.693 330.823,264.583 330.158 C 264.675 330.090,265.219 329.796,265.792 329.506 L 266.833 328.979 266.833 327.489 C 266.833 325.915,266.774 325.804,266.209 326.330 C 263.777 328.595,256.918 329.692,252.825 328.471 C 244.891 326.102,240.656 316.939,243.750 308.833 C 244.048 308.054,244.330 307.300,244.378 307.158 C 245.437 303.992,249.861 300.695,254.333 299.738 C 257.712 299.014,263.287 300.223,266.099 302.288 C 266.831 302.826,266.833 302.823,266.833 301.183 C 266.833 299.720,266.827 299.697,266.375 299.515 C 266.123 299.414,265.577 299.119,265.162 298.859 C 264.747 298.599,264.222 298.341,263.995 298.285 C 263.769 298.229,263.024 297.986,262.340 297.743 C 260.543 297.105,257.131 296.874,253.917 297.171 M297.167 297.171 C 295.820 297.358,293.387 298.339,292.386 299.098 C 292.094 299.319,291.792 299.500,291.714 299.500 C 291.318 299.500,287.500 303.597,287.500 304.022 C 287.500 304.105,287.310 304.461,287.077 304.813 C 283.724 309.880,284.417 320.458,288.446 325.700 C 292.935 331.542,302.709 333.455,309.488 329.819 C 309.985 329.552,310.458 329.333,310.538 329.333 C 310.618 329.333,311.129 329.019,311.675 328.634 L 312.667 327.934 312.667 326.624 C 312.667 325.622,312.618 325.342,312.458 325.435 C 312.344 325.502,311.929 325.774,311.537 326.040 C 305.887 329.866,297.568 330.037,293.120 326.418 C 292.341 325.784,290.833 324.314,290.833 324.188 C 290.833 324.128,290.664 323.893,290.458 323.665 C 288.944 321.993,287.667 317.639,287.667 314.152 L 287.667 312.333 300.159 312.333 L 312.652 312.333 312.734 311.792 C 313.011 309.956,312.981 308.929,312.568 306.167 C 312.430 305.239,311.372 302.967,310.634 302.012 C 309.992 301.181,308.312 299.509,308.114 299.504 C 308.039 299.502,307.739 299.319,307.447 299.097 C 305.230 297.413,301.053 296.631,297.167 297.171 M274.333 314.333 L 274.333 330.667 275.750 330.667 L 277.167 330.667 277.167 314.333 L 277.167 298.000 275.750 298.000 L 274.333 298.000 274.333 314.333 M337.438 299.042 C 337.833 300.003,338.382 301.348,339.325 303.667 C 339.530 304.171,339.841 304.975,340.015 305.453 C 340.190 305.931,340.517 306.718,340.743 307.203 C 340.969 307.687,341.278 308.456,341.429 308.912 C 341.581 309.367,341.921 310.187,342.186 310.733 C 342.450 311.279,342.667 311.818,342.667 311.931 C 342.667 312.044,342.929 312.697,343.250 313.383 C 343.571 314.068,343.833 314.712,343.833 314.813 C 343.833 314.915,344.096 315.567,344.417 316.261 C 344.738 316.956,345.000 317.603,345.000 317.698 C 345.000 317.794,345.262 318.432,345.583 319.117 C 345.904 319.803,346.167 320.436,346.167 320.524 C 346.167 320.613,346.439 321.337,346.772 322.134 C 347.368 323.562,347.807 324.635,349.140 327.917 C 350.152 330.410,350.153 330.260,349.115 332.500 C 348.625 333.558,347.964 335.149,347.418 336.583 C 346.943 337.831,346.295 339.376,345.564 341.007 C 345.254 341.699,345.000 342.345,345.000 342.442 C 345.000 342.540,344.738 343.188,344.417 343.882 C 344.096 344.577,343.833 345.187,343.833 345.239 C 343.833 345.291,344.468 345.333,345.244 345.333 C 346.846 345.333,346.758 345.404,347.426 343.583 C 347.894 342.307,348.400 341.075,349.106 339.493 C 349.414 338.801,349.667 338.148,349.667 338.041 C 349.667 337.934,349.929 337.293,350.250 336.617 C 350.571 335.941,350.833 335.301,350.833 335.195 C 350.833 335.088,351.101 334.422,351.428 333.713 C 351.756 333.004,352.163 332.048,352.332 331.587 C 352.830 330.240,354.350 326.527,354.961 325.167 C 355.188 324.662,355.505 323.875,355.665 323.417 C 355.826 322.958,356.165 322.096,356.418 321.500 C 357.528 318.890,358.141 317.387,358.255 317.000 C 358.322 316.771,358.592 316.154,358.855 315.630 C 359.118 315.105,359.333 314.576,359.333 314.453 C 359.333 314.330,359.530 313.821,359.771 313.323 C 360.012 312.824,360.314 312.117,360.441 311.750 C 360.690 311.035,361.366 309.383,362.272 307.278 C 362.581 306.559,362.833 305.909,362.833 305.831 C 362.833 305.754,363.096 305.123,363.417 304.428 C 363.738 303.734,364.000 303.092,364.000 303.003 C 364.000 302.914,364.236 302.334,364.524 301.713 C 364.812 301.091,365.214 300.133,365.417 299.583 C 365.620 299.033,365.842 298.452,365.911 298.292 C 366.024 298.027,365.904 298.000,364.596 298.000 C 363.371 298.000,363.142 298.044,363.063 298.292 C 363.012 298.452,362.715 299.171,362.402 299.889 C 362.089 300.607,361.833 301.288,361.833 301.401 C 361.833 301.515,361.617 302.054,361.352 302.600 C 361.088 303.146,360.747 303.966,360.596 304.422 C 360.444 304.877,360.138 305.642,359.915 306.120 C 359.691 306.599,359.457 307.199,359.394 307.454 C 359.331 307.708,359.029 308.461,358.723 309.126 C 358.417 309.791,358.167 310.414,358.167 310.511 C 358.167 310.609,357.971 311.114,357.732 311.636 C 357.493 312.157,357.125 313.071,356.916 313.667 C 356.480 314.906,356.059 315.954,355.141 318.083 C 354.786 318.908,354.496 319.644,354.497 319.718 C 354.499 319.791,354.229 320.504,353.897 321.301 C 352.738 324.089,352.201 325.423,351.917 326.219 L 351.631 327.022 351.232 326.161 C 351.013 325.688,350.833 325.201,350.833 325.079 C 350.833 324.957,350.582 324.308,350.274 323.637 C 349.967 322.966,349.665 322.207,349.602 321.950 C 349.540 321.694,349.267 321.024,348.995 320.462 C 348.723 319.901,348.500 319.347,348.500 319.233 C 348.500 319.118,348.238 318.456,347.917 317.761 C 347.596 317.067,347.333 316.420,347.333 316.323 C 347.333 316.227,347.079 315.534,346.767 314.782 C 346.456 314.031,345.885 312.629,345.499 311.667 C 344.828 309.996,344.155 308.331,343.342 306.333 C 343.137 305.829,342.822 305.004,342.643 304.500 C 342.464 303.996,342.108 303.133,341.852 302.583 C 341.595 302.033,341.334 301.374,341.271 301.119 C 341.209 300.863,340.934 300.168,340.662 299.573 C 340.390 298.978,340.167 298.381,340.167 298.246 C 340.167 298.046,339.868 298.000,338.588 298.000 L 337.010 298.000 337.438 299.042 M303.251 299.745 C 307.686 301.229,310.333 304.727,310.333 309.106 L 310.333 310.167 299.167 310.167 C 292.103 310.167,288.000 310.108,288.000 310.006 C 288.000 309.917,288.107 309.524,288.237 309.131 C 288.368 308.738,288.554 308.113,288.651 307.742 C 289.664 303.878,294.139 299.924,298.000 299.484 C 299.446 299.319,302.420 299.467,303.251 299.745 M221.250 299.826 C 224.604 300.912,225.900 301.686,227.893 303.795 C 228.349 304.278,228.804 304.811,228.903 304.980 C 229.002 305.148,229.275 305.578,229.509 305.935 C 231.954 309.662,232.433 316.798,230.500 320.694 C 230.225 321.248,230.000 321.771,230.000 321.856 C 230.000 322.257,228.197 324.589,227.123 325.578 C 222.741 329.612,215.379 330.445,210.812 327.422 C 210.461 327.190,210.114 327.000,210.041 327.000 C 209.456 327.000,206.755 324.147,205.798 322.519 C 203.045 317.836,202.919 310.452,205.527 306.605 C 205.784 306.227,205.995 305.852,205.997 305.774 C 206.007 305.285,209.300 301.844,209.773 301.829 C 209.852 301.826,210.208 301.604,210.564 301.334 C 210.920 301.065,211.482 300.758,211.814 300.653 C 212.145 300.547,212.642 300.361,212.917 300.240 C 214.784 299.415,219.289 299.192,221.250 299.826 " stroke="none" fill="#3c3c3c" fill-rule="evenodd"></path><path id="path3" d="" stroke="none" fill="#c87884" fill-rule="evenodd"></path><path id="path4" d="" stroke="none" fill="#6c785c" fill-rule="evenodd"></path></g></svg>