<?xml version="1.0" encoding="utf-8"?>
<!-- Generator: Adobe Illustrator 22.1.0, SVG Export Plug-In . SVG Version: 6.00 Build 0)  -->
<svg version="1.1" id="Layer_1" xmlns="http://www.w3.org/2000/svg" xmlns:xlink="http://www.w3.org/1999/xlink" x="0px" y="0px"
	 viewBox="0 0 771.3 340.2" style="enable-background:new 0 0 771.3 340.2;" xml:space="preserve">
<style type="text/css">
	.st0{fill:#00B9CC;}
	.st1{fill:#FF7B12;}
	.st2{fill:#3B3B3D;}
</style>
<g>
	<g>
		<path class="st0" d="M131.8,116.3h-26.3c-1.8,0-3.3,1.4-3.3,3.3v97.1c0,1.8,1.4,3.3,3.3,3.3h24.4c14.4,0,26-11.6,26-26v-53.6
			C155.8,127.1,145.1,116.3,131.8,116.3z"/>
		<path class="st0" d="M179.3,6.7H69.3C33.2,6.7,4,36,4,72v190.7c0,36,29.2,65.3,65.3,65.3h110.1c36,0,65.3-29.2,65.3-65.3V72
			C244.6,36,215.4,6.7,179.3,6.7z M187.3,198.1c0,28.3-22.9,51.2-51.2,51.2H87.2c-8.7,0-15.7-7-15.7-15.7V102.2
			c0-8.7,7-15.7,15.7-15.7h50c27.7,0,50.2,22.5,50.2,50.2V198.1z"/>
	</g>
	<path class="st1" d="M440.7,7.3H330.6c-36,0-65.3,29.2-65.3,65.3v190.7c0,36,29.2,65.3,65.3,65.3h110.1c36,0,65.3-29.2,65.3-65.3
		V72.5C505.9,36.5,476.7,7.3,440.7,7.3z M396,251.1c-26,0.3-65.4,2.5-65.8-21c-0.3-23.5,24.5-11,33.4-8.5c8.9,2.5,48,5,48-14.9
		c0-19.9-12.1-20.6-34.1-25.6c-22-5-44.4-8.5-45.2-47.3s34.9-49.1,54.7-49.1c19.9,0,52.6,3.2,46.9,22.8c-3.4,11.8-8.9,13.9-22.8,9.6
		s-46.9-8.2-46.9,13.5s16.7,16.3,40.5,24.5c23.8,8.2,39.1,13.5,39.1,44.4C444,230.4,422,250.7,396,251.1z"/>
	<path class="st2" d="M701,7.3H590.9c-36,0-65.3,29.2-65.3,65.3v190.7c0,36,29.2,65.3,65.3,65.3H701c36,0,65.3-29.2,65.3-65.3V72.5
		C766.3,36.5,737,7.3,701,7.3z M643.5,253.5c-32.7,0.3-42.7-14.6-43.7-24.2c-1.1-9.6,8.9-13.9,14.6-14.2c5.7-0.3,10.3,13.2,27,12.4
		s27-5.7,26.9-26.3c-0.2-20.6-25.4-19.2-31.2-19.5s-11.3-5.3-11.3-13.8s7.1-12.8,11.3-13.2c4.2-0.3,17.2,1.1,25.7-5.7
		c8.5-6.8,6-22,0-29.9s-26.7-6-32.7,0c-6,6-18.5,9.3-24.2,2.1c-12.4-15.6,12.8-34.5,40.2-34.5s51.6,12.4,51.6,43.7
		S672.3,168,672.3,168s27.7,6,27.4,37.3C699.3,236.5,676.2,253.2,643.5,253.5z"/>
</g>
</svg>
