<?xml version="1.0" encoding="utf-8"?>
<!-- Generator: Adobe Illustrator 22.1.0, SVG Export Plug-In . SVG Version: 6.00 Build 0)  -->
<svg version="1.1" id="Layer_1" xmlns="http://www.w3.org/2000/svg" xmlns:xlink="http://www.w3.org/1999/xlink" x="0px" y="0px"
	 viewBox="0 0 821.3 334.4" style="enable-background:new 0 0 821.3 334.4;" xml:space="preserve">
<style type="text/css">
	.st0{fill:#21BF27;}
	.st1{fill:#1F2120;}
</style>
<g id="g3049_8_">
	<g id="g3051_8_">
		<path id="path3053_8_" class="st0" d="M625.2,10.2c0.8,0,1.7,0,2.5,0c4.8,5.4,7.3,11.6,10.8,18.7c1.4,3,3.8,10,6.8,10.8
			c4,1,10.2-0.8,15.4-0.8c5.6,0.2,10.2,0.8,14.8,0.8c3.8-3.5,6.2-9.2,9-14.8c1.9-3.8,5.2-13.3,10-14c3.8-0.6,11.4,2.5,15.4,4
			c10.5,3.5,17.8,6.7,27.3,11.9c3.2,1.7,11,5.9,11.4,8.3c1.1,4.4-2.7,10.5-4.6,15.4c-1.1,2.9-5.7,12.1-5.1,15.4
			c0.5,1.9,3.5,3.5,6,5.7c5.1,4.4,7.8,7.1,12.2,12.2c1.9,2.2,3,5.9,5.7,6.5c4.8,1.1,11-2.7,15.9-4.3c4.4-1.4,11.6-5.4,16.2-3.7
			c3,1.1,5.6,8.6,7.1,11.9c4.9,9.7,8.3,16.4,11.4,27.3c1.3,4.1,4.1,12.7,3.2,15.4c-1.1,3.7-9.5,6.8-14.8,9.4
			c-4.1,2.1-13.7,5.1-14.8,9.4c-1,3.7,0.6,8.3,0.8,11.9c0,5.7-0.8,11-1.1,16.5c7.9,8.4,22.4,10.3,29.1,20.2
			c-4,15.4-9,29.5-16.5,42.4c-1.9,3.3-5.1,10.6-8.3,11.4c-4.6,1.3-11-2.5-15.4-4.3c-3.2-1.3-11.4-6.2-15.4-5.4
			c-1.7,0.3-4.6,4.1-6,5.7c-2.1,2.2-4.1,4.4-5.7,6c-1.7,1.7-11.7,9.2-12.2,11.4c-0.8,4.1,3.3,12.2,4.3,15.4c1.6,4.8,5.4,11.4,4,16.2
			c-0.6,2.4-8.3,5.7-11.9,7.6c-13.7,7.1-27.3,11-43.5,14.8c-6.4-8.1-8.4-20.3-14.8-28.4c-11.9-0.3-23.7-0.8-34.8-1.7
			c-3.7,4-5.4,9-8.3,15.1c-1.7,3.8-5.2,13.3-9.4,14c-1.6,0.2-5.1-1.4-7.5-2.2c-14.3-4.1-23.5-7.8-35.2-14.3
			c-2.9-1.6-10.8-5.7-11.4-8.6c-1.1-4.6,2.2-10.8,4-16.2c1.6-4.8,5.2-11.1,4.3-15.9c-0.3-1.4-2.9-3.3-5.1-5.4
			c-5.1-4.8-6.7-6.4-10.5-10.8c-1.4-1.7-3.3-4.9-5.4-5.4c-2.1-0.5-5.7,1-8.3,1.7c-8.4,2.7-13.8,6.4-23.7,6.5
			c-7.9-10.5-13.8-24.3-18.3-38.7c-1.3-3.8-4.8-11.7-4-15.4c0.8-4,9.4-7,14.3-9.4c4.1-1.9,14.1-5.2,15.1-9c0.5-2.1-0.3-5.7-0.3-8.3
			c-0.5-9.2,0-15.7,0.8-23.7c-4.3-3.5-9-5.6-14.8-8.3c-4-1.9-13.7-4.6-14.3-9c-0.5-3.3,2.5-11.3,4-15.4c3.3-10.2,7.1-17.9,12.2-27
			c1.9-3.3,4.8-11,7.9-11.9c5.1-1.4,11.9,2.4,16.2,4c3.3,1.3,12.1,5.4,15.9,4.6c1.3-0.3,4.1-3.7,5.7-5.4c4.9-5.4,6-7,11.4-11.4
			c1.7-1.4,5.4-3.5,5.7-5.7c0.6-4-3-9.7-4.6-15.1c-1.7-5.4-5.2-11.9-4-16.2c0.8-2.7,8.3-5.6,11.4-7.1
			C596.5,19.1,611.2,13.3,625.2,10.2z M608.4,72c-12.4,5.9-22.5,14.6-30.5,23.7c-9,10.2-14.1,20.3-20.2,34.1
			c-5.6,13-8.3,28.6-6.8,46.7c1.3,16,6.4,29.8,12.2,42.1c5.9,11.9,14.6,21.7,24.1,30.2c18.7,16.7,47.6,30.2,80.8,27.3
			c15.7-1.3,29.8-6.5,42.1-12.2c11.9-5.7,21.9-14.6,30.2-24.1c16-18.6,29.8-45.9,27.3-78.9c-2.5-32.5-17-56-35.2-73.2
			c-17.3-16.4-47-30.2-81.1-27.6C634.7,61,620.4,66.3,608.4,72z"/>
		<path id="path3055_8_" class="st0" d="M652.8,63.7c33.3-2.4,60.3,12.1,77.2,27.3c17.6,15.9,31,39.8,33,71.1
			c2.2,33.7-11.4,58.4-27.3,76c-16.7,18.7-40,31.1-70.6,33.3c-32.1,2.4-59.2-10.8-76.8-27c-18.4-16.8-31.1-39.2-33.3-70.6
			c-2.4-33.8,10.8-59.2,27-76.5c8.3-8.7,17.3-16.2,29.4-22.5C622.5,69,637.3,64.8,652.8,63.7z M637.7,67.1c-1,0.8-1,2.7-1.4,4
			c2.1-1,3.2-2.7,4.6-4.3C639.6,66.4,639.2,67.2,637.7,67.1z M674.1,74.2c-4.3,1.1-12.7-3.8-15.9-4.3c-4.6-0.8-7.9,1.4-12.5,0.8
			c-1,1-1.3,2.7-2.2,3.7c-1.7-0.6-7.6,1.3-8.3-1.4c-1.9,2.9-4.4,4.6-9.4,3.7c-2.4,1.3-2.9,3-2.2,5.1c-2.9,0.3-4.6,2.7-7.9,2.2
			c-1.3-0.2-2.2-1.6-3.7-1.7c-3.2-0.5-6,1-7.1-1.7c-1.4,1.6-3.8,2.4-5.4,4c2.4,0.2,3-1.4,5.1-1.7c1.9,1,3.8,1.7,4.6,3.7
			c-1.3,1.3-4,4.9-3.2,5.7c3.8,1,4.4-2.4,6.5-3.2c1.6-0.6,3,0.5,5.1-0.8c0.5,2.4,3.3,4,2.5,6.5c-0.2,0.8-1.6,0.2-1.7,0.8
			c0,1.7,0,3.3,0,5.1c-3.7,1.9-5.1,7.8-10.5,6.8c-1.1,0.5-0.3,2.7-1.4,2.9c-7.6-1-9.4,5.2-15.7,4.3c-1.7,5.9-5.6,9.7-11.1,11.9
			c-0.3,2.2-0.5,4.8-1.1,6.8c-4.1-1.1-1.7-8.6-3.7-11.9c-3,0.8-3.2,4.4-6,5.4c-2.1-0.2-2.1-0.8-4,0c0.5,6.5,0.6,10.8,0,17.3
			c0.6,1.1,1.7-1.3,2.5,0c-0.2,4.1-2.4,6.2-2.9,10c7.9,5.1,19.2,7,21.6,17.6c6.4,2.9,10.8,7.6,12.9,14.8c2.4,0.2,2.7,2.5,3.7,4.3
			c4.3,0,4.8,4,9,4c1.7,2.4,4.3,4,7.1,5.4c0.5,2.4,1.7,4,1.4,7.1c-1,0.5-2.4,0.6-3.2,1.4c1.3,2.7-1.4,4.3-1.7,6.8
			c-0.6,4.9,2.7,11-2.9,12.9c-0.5-1.3-1.4-2.2-2.2-3.2c-1.7,1.3-2.5,2.1-5.7,1.4c-4.1,1.6-4.3,8.7-2.2,12.9
			c-1.7,2.1-1.1,4.3-1.1,7.9c2.1,1.9,3.8,5.2,7.6,4.3c2.1,2.7,3.5,5.9,5.1,9c8.4,3.3,15.6,7.6,25.1,8.6c6.2,0.6,13.3,0,20.2,0
			c6.7,0,14,0.8,20.5,0c10.3-1.1,22.4-6.7,31.6-12.2c26.5-15.7,48.6-44.3,50.6-81.1c0.5-8.7-3.8-14.8-6.5-21.1
			c-2.4-5.6-4.3-11-7.9-15.1c-6,1.9-7.3-9.4-11.1-9.7c-0.3,0-1.7,1.7-2.5,1.7c-1.4,0.2-1-1.3-2.5-0.3c-0.3,2.2,0.8,2.7,0.8,4.6
			c5.9,2.5,11.3,5.4,12.5,12.5c0.8,1.1,1.6-1.7,2.5-0.3c-0.5,4.9,1.3,8.7,3.2,12.2c-3.3-0.3-4.8-0.6-8.3-0.3
			c-4.1-5.9-9.7-10.5-13.7-16.5c-1.3,0-2.7,0-4,0c0.5,2.7,0.6,5.6,1.1,8.3c6.5,2.9,7.5,11.3,12.2,15.9c5.1,1.7,6.8-2.2,11.9-1.7
			c5.1,4.9-3.2,8.6-1.4,15.7c-1.1,2.9-4.8,2.4-6.5,4.6c-2.4,3.3,0,8.3-1.1,12.5c-1.3,4.6-6.8,9.4-7.1,14.3c-4,2.7-5.9,6.4-8.3,10.5
			c-1.6,2.7-2.2,6-4,8.6c-2.9,4.1-8.6,5.1-11.4,8.6c-1.3,1.6-1.3,4.1-2.5,5.7c-2.4,3.2-5.6,4-9.7,4.6c-3.7-2.1-1.4-7.1-2.2-11.1
			c-0.3-1.9-1.9-3.7-2.2-5.4c-0.6-5.6,0.8-11.9,0-18.3c0.8-1.1,2.2-1.6,3.2-2.5c0.5-3.2,0.8-6.5,0.8-10.5c-1.4-2.2-3.7-2.9-4-5.4
			c-0.5-4.4,5.9-7.5,3.7-12.9c-2.4,1-4.4,2.2-7.5,2.5c-1.9-1-2.5-4.9-5.1-4.3c-0.6,1.3,0.5,3.8-0.3,5.4c-7.3,0.3-18.9,1.3-24.4-2.2
			c-2.5-3.5-1.7-8.7-4-12.2c-1.1-1.7-3.3-1.7-4-3.7c-2.7-7.3,4.3-12.4,3.7-20.5c3.2-4.8,6.4-9.4,11.1-12.5c3.8,1,5.2-2.9,8.3-4
			c1,0.6,1.9,1.6,3.2,1.7c2.4-2.5,5.4-4.3,10.5-4.3c4,4.8,8.9,8.6,17.6,8.6c-0.2-0.8-1-2.7,0-3.2c3.3,1.4,6.7-1.7,10-0.3
			c-1.1-4.3-0.8-9.2-3.2-12.9c-1.3-0.3-2.9,1.6-3.2,3.2c0.2,1.9,2.1,1.9,2.2,4c-3.2,2.1-8.4-1.3-10-4c1.4-4.4-3.2-5.9-4.3-9
			c-1.3,1.7-1.3,0-3.7,0c-1.4,6.5,3.5,6.5,4.3,10.8c-1.7-0.3-2.5,0.5-4,0.3c-2.5-2.5-4.4-5.6-6.5-8.6c-2.5,0.8-2.7,4-6.5,3.7
			c-2.1,3.3-4.4,6.4-9,7.1c-2.4-1.4-4.3-2.2-7.5-1.1c-2.9-3-4.9-3.7-5.1-10c3.5-0.2,2.7-3.5,5.7-3.2c2.7,0.2,4.6,6.8,9.4,3.2
			c0.2-4.8-2.2-12.5,4.3-10.5c0.3-5.4,4-7.5,9.7-7.5c-0.8-3.2,1.9-4.6,1.1-6.5c-1.1,2.1-4.1,0.5-6,0.3c-1,0.5-0.5,2.4-1.4,2.9
			c-2.1,0.3-3-0.3-3.7-1.4c-0.2-1.3,1.6-1.6,0.8-2.5c-0.5-1.6-2.7-1.4-2.9-3.2c1.3-1,3-1.3,5.1-1.4c0.3-1.3-2.1-1.6-1.1-2.2
			c2.5-0.3,4.9-0.8,7.9-0.8c0.3,1,0.8,1.6,0.8,2.9c1.6,0,3.2,0,4.6,0c0.3-1.4,1-2.4,1.4-3.7c-2.2,0-1.9-1-2.2-2.2
			c-4.3-4.4-10.8-7-14.3-12.2c4.9,0,9.2-0.6,13.7-1.1c-4.6-1.1-8.6-2.7-13.7-3.2C677.3,70.1,676.8,73.4,674.1,74.2z M556.3,174.4
			c2.2,0.5,3.8,1.7,6.8,1.4c1.1-4.1,1.4-8.9,5.1-10.5c-4.8-5.1-6.7-13.2-9.7-20.2C556.6,153.9,556,163.6,556.3,174.4z M574.2,225.7
			c-5.6-12.9-9.2-27.3-16.2-38.7C560.7,202.5,566.8,214.9,574.2,225.7z"/>
		<path id="path3057_8_" class="st0" d="M660.4,79.9c-2.5,0-3.5,1.4-5.4,2.2c0,1.4,0,2.7-0.3,3.7c-2.7,1.4-5.7,2.5-7.1,5.4
			c-6.5-2.4-9.8,6.7-17.6,2.9c3.7-8.4,10.6-13.5,17.3-19.1c1.9,0.5,3,1.7,4.6,2.5C655.4,77.5,660.1,75.8,660.4,79.9z"/>
		<path id="path3059_8_" class="st0" d="M580.7,137.4c-1.6-0.3-3.5-0.2-4-1.4c-0.5,0.5-1.4,0.6-1.7,1.1c-1.4-1-3-1.7-3.7-3.7
			C575,131.7,578.7,135,580.7,137.4z"/>
		<path id="path3061_8_" class="st0" d="M732.8,219.2c0.8,2.5-2.2,3.3-2.9,5.4c-0.5,1.4,0.5,3,0,4.6c-1,3.5-6.8,7.9-10,9.4
			c-0.5-7,5.4-7.5,7.9-11.4C727.6,222.6,727.1,217.7,732.8,219.2z"/>
	</g>
</g>
<g>
	<path class="st1" d="M5.4,9.1h106.7v47.9h-60v83.3h43.2v51H52.1v87.2h60v47.9H5.4V9.1z"/>
	<path class="st1" d="M215.8,94.2c0-10.3-0.5-22.1-3.5-31.1c-3-8.6-7.8-14.6-15.1-14.6c-12.1,0.5-16,13-16,31.6
		c0,10.8,4.8,22.1,11.6,34.1c7,12.1,16,24.6,25.1,37.9c10.8,16,21.6,32.4,29.8,48.4c8.3,16,13.8,32.4,13.8,49.7
		c0,21.1-3.5,41-13.3,55.7c-10,14.6-25.9,24.1-51.4,24.1c-29.8,0-46.7-11.3-56.2-28.4c-9.5-17.3-11.6-40.2-11.6-64l45.7-4.3
		c0,13.3,0.5,26.8,3.8,36.7c3,10.3,8.3,17.3,18.1,17.3c13.8,0,19.1-14.6,19.1-34.9c0-10.3-5.2-22.4-12.1-34.9
		c-4-6-7.8-12.5-12.1-19.1c-9-13-19.1-27.6-29.4-43.7s-18.1-32.4-22.9-49.2c-2.5-8.3-3.8-16.8-3.8-25.4c0-17.3,3.8-35.9,13.8-50
		c10-13.8,25.1-23.8,47-24.1c28.1-0.5,44.5,11.3,53.5,28.1c9,17.3,11.6,38.4,11.6,56.2L215.8,94.2z"/>
	<path class="st1" d="M352.6,326.5h-36.2L273.6,9.1h43.2l18.6,164.9l0.8,10.3h3.5l1.3-10.3L360.7,9.1h33.7l19.8,164.9l1.3,10.3h3.5
		l0.8-10.3L438.5,9.1h43.2L439,326.5h-36.2L381,176.3l-2.5-18.6h-1.7l-2.5,18.6L352.6,326.5z"/>
</g>
</svg>
