<?xml version="1.0" encoding="utf-8"?>
<!-- Generator: Adobe Illustrator 22.1.0, SVG Export Plug-In . SVG Version: 6.00 Build 0)  -->
<svg version="1.1" id="svg" xmlns="http://www.w3.org/2000/svg" xmlns:xlink="http://www.w3.org/1999/xlink" x="0px" y="0px"
	 viewBox="0 0 817 248.7" style="enable-background:new 0 0 817 248.7;" xml:space="preserve">
<style type="text/css">
	.st0{fill:#0072A7;}
</style>
<path id="path4" class="st0" d="M118.7,6.5c-1,0.7-2.4,2.2-3.1,3.1c-0.7,1.2-1.7,2.4-2.2,2.7c-0.2,0.2-0.5,0.7-0.5,1
	c0,0.2-0.7,1-1.7,1.9s-1.7,2.2-1.9,2.7c-0.2,0.5-0.5,1-0.7,1c-0.2,0-0.7,0.7-1.2,1.5c-1,1.7-1.7,2.7-4.1,5.3c-1,1-1.7,1.9-1.7,2.2
	s-0.2,0.7-0.5,1c-0.2,0.2-1.5,1.5-2.2,2.7c-1,1.2-2.2,2.7-2.9,3.4c-0.7,0.7-1.7,2.2-2.4,2.9c-0.7,0.7-1.7,2.2-2.4,2.9
	c-0.7,0.7-1.5,1.5-1.5,1.7s-1.2,1.5-2.4,2.9c-1.5,1.5-3.1,3.1-3.6,4.1c-4.1,5.1-28.1,29.3-32,32.2c-0.5,0.5-1,1-0.7,1.2
	c0.2,0.2,0,0.5-0.5,0.5c-0.5,0-1.9,1.2-3.6,2.7s-3.6,3.4-4.6,4.1c-1,0.7-2.2,1.7-2.7,2.2c-1.2,1.2-2.7,2.4-5.6,4.6
	c-1.2,1-2.4,2.2-2.9,2.4c-0.5,0.5-1,1-1.2,1c-0.2,0-0.5,0.2-0.7,0.5c0,0.2-1.2,1.2-2.4,1.9c-1.2,1-2.4,1.9-2.9,2.2
	c-0.2,0.2-1,0.7-1.2,0.7s-1,0.5-1.2,1c-0.7,1-1.2,1.2-6.3,4.6c-1.7,1.2-2.9,2.2-2.9,2.4s-0.2,0.5-0.5,0.5c-0.5,0-2.9,1.7-5.1,3.6
	c-2.2,1.9-3.9,9.4-1.9,9.4c0.2,0,0.5,0.2,0.5,0.7c0,0.7,3.1,3.6,3.6,3.6c0.2,0,1,0.5,1.7,1.2s1.5,1.2,1.7,1.2c0.2,0,1.2,0.5,1.9,1.2
	s1.5,1.2,1.7,1.2c0.2,0,0.5,0.2,0.5,0.5s0.7,0.7,1.7,1.2s1.7,1,1.7,1.2s0.7,0.7,1.7,1.2c1.7,1,2.7,1.7,5.3,4.1
	c1,0.7,1.7,1.2,1.9,1.5c0.2,0,1,0.5,1.5,1.2s1.2,1.2,1.5,1.2c0.2,0,1,0.5,1.7,1.2c0.7,0.7,1.5,1.2,1.7,1.2c0.2,0,1.5,1,2.9,2.4
	c1.5,1.2,2.7,2.4,2.9,2.4c0.2,0,1.5,1,2.9,2.4c1.2,1.2,2.4,2.4,2.7,2.4s1.2,0.7,2.2,1.9c1,1,2.7,2.7,3.9,3.4c1.2,1,4.4,3.9,7.3,6.8
	c2.9,2.7,5.3,5.1,5.6,5.1c0.2,0,0.2,0.2,0.2,0.5s0,0.5,0,0.5c0.7,0,7.3,6.8,7,7c-0.2,0.2,0,0.2,0.5,0.2c0.5,0,0.7,0.2,0.7,0.5
	s1.7,2.2,4.1,4.6c2.2,2.2,4.8,5.1,5.8,6.3c2.7,2.9,9,9.9,10.7,11.9c0.7,0.7,1.2,1.5,1.2,1.7s0.5,1,1.2,1.7c0.5,0.7,1.7,1.9,2.2,2.9
	c0.7,1,1.5,1.9,1.9,2.2c0.2,0.2,0.5,0.7,0.5,1s0.2,0.5,0.5,1c0.2,0.2,1.5,1.5,2.4,2.7c1,1.2,1.9,2.4,2.2,2.7c0.2,0.2,0.7,0.7,0.7,1
	c0.2,0.5,1.5,2.2,3.6,5.1c0.5,0.7,1,1.7,1,1.9c0,0.2,0.2,0.7,0.5,1c0.7,0.5,1.5,1.7,2.2,3.1c0.2,0.5,0.5,0.7,0.7,1
	c0.2,0.2,0.5,0.5,0.5,1c0.2,1,2.7,3.4,3.6,3.4c0.5,0,0.7,0.2,0.7,0.5c0,1.5,7.3,0.5,8.7-1.2c2.2-2.4,2.9-3.1,2.9-3.4s0.5-1,1.2-1.7
	s1.2-1.7,1.2-1.9s0.2-0.7,0.5-0.7c0.2,0,1-1,1.9-2.4c0.7-1.2,2.2-3.1,2.9-3.9c0.7-1,1.5-1.9,1.5-1.9c0-0.2,0.7-1,1.5-1.7
	c0.7-0.7,1.5-1.7,1.5-1.9c0-0.2,0.2-0.5,0.2-0.5c0.2,0,1-0.7,1.5-1.7c0.7-1,1.7-2.2,2.2-2.9c0.5-0.7,1.9-2.2,2.9-3.6
	c1-1.2,2.4-2.9,2.9-3.4s1.2-1.2,1.5-1.7c0.5-1,5.3-6.3,9.4-10.7c1.7-1.7,4.4-4.6,5.8-6.3s2.9-3.1,3.1-3.4c0.2,0,0.7-0.5,1-1
	c0.7-1,10.9-10.9,13.1-12.8c0.7-0.7,3.1-2.9,5.1-4.6c1.9-1.9,3.6-3.4,3.6-3.4s1.5-1.2,2.9-2.7s2.9-2.7,3.1-2.7c0.2,0,1.5-1,2.7-2.2
	c1.2-1.2,3.4-2.9,4.4-3.6c1-0.7,2.2-1.9,2.7-2.4c0.5-0.5,1.2-1,1.7-1.2c0.5-0.2,1.2-0.7,1.5-1.2c0.2-0.5,0.5-1,1-1
	c0.2,0,1.2-0.5,1.7-1.2c0.5-0.7,2.2-1.9,3.4-2.7c1.2-1,2.2-1.9,2.4-1.9c0-0.2,0.5-0.5,0.7-0.5c0.5,0,0.7-0.2,0.7-0.5
	c0-0.2,0.5-0.5,0.7-0.7c0.5-0.2,1.5-0.7,2.2-1.5c0.7-0.7,1.9-1.7,2.9-2.4c1-0.7,1.9-1.5,2.2-1.9c0.2-0.2,0.7-0.5,1.2-0.5
	c0.2,0,0.5-0.2,0.5-0.5c0-0.2,0.5-0.5,1-0.5s1.2-0.2,1.7-0.7c0.5-0.5,1-0.7,1.2-0.7s0.5-0.2,0.5-0.5s0.2-0.5,0.5-0.5
	c0.7,0,2.2-1.7,3.4-3.6c1-1.5,1.5-5.6,0.5-5.6c-0.2,0-0.5-0.5-0.5-1c0-0.5-0.2-1.2-0.5-1.7c-1.7-2.2-2.9-3.1-4.6-4.1
	c-1-0.5-1.9-1-1.9-1.2s-0.7-0.7-1.7-1.2c-1-0.5-1.7-1-1.7-1.2s-0.2-0.5-0.5-0.5s-1.7-1-2.9-1.9c-2.9-2.4-2.9-2.4-5.3-4.1
	c-1-0.7-1.9-1.7-2.2-1.9c0-0.2-0.5-0.5-0.7-0.5c-0.2,0-1.2-0.7-1.9-1.5c-0.7-0.7-1.7-1.5-1.9-1.5c-0.2,0-1-0.5-1.5-1.2
	s-1.9-1.7-2.9-2.4c-1-0.7-1.9-1.5-2.2-1.7c-0.2-0.2-0.7-0.7-1.2-1c-1-0.7-5.8-4.6-8-6.8c-0.7-0.7-2.7-2.4-4.4-3.6
	c-1.7-1.5-4.1-3.6-5.3-4.8c-1.2-1.5-2.7-2.4-3.1-2.4c-0.2,0-0.5-0.2-0.2-0.2c0.2-0.2-0.2-0.7-1-1.2c-1.9-1.5-13.8-13.8-29.6-30.8
	c-1.2-1.2-1.9-2.4-1.9-2.7c0-0.2-1-1.2-1.9-2.4c-1-1-1.9-2.2-1.9-2.4s-0.5-0.7-1-1.2c-0.5-0.5-1.7-1.7-2.4-2.9
	c-2.4-3.1-2.4-2.9-3.6-4.6c-0.7-0.7-2.2-2.7-3.1-4.1s-2.4-3.6-2.9-4.1c-0.5-0.5-1-1.5-1.2-1.9c-0.2-0.5-0.5-1-0.7-1
	s-0.5-0.2-0.5-0.5c0-0.2,0-0.7-0.2-1c-2.2-2.9-2.9-3.6-2.9-4.1c0-0.2-0.2-0.7-0.7-0.7c-0.5-0.2-1-0.7-1-1c0-0.7-1.7-2.4-3.1-3.4
	C126,4.8,120.9,5,118.7,6.5 M273.5,36.3c-0.5,0.2-0.5,19.1-0.7,89.9v89.6h25.4c16.7,0,25.4-0.2,25.4-0.5s0-40.5,0-89.4
	s0-89.1,0-89.4C323.6,35.8,274.7,35.8,273.5,36.3 M348.8,125.7v89.9h68.6H486v-17.7v-17.7h-43.1l-43.4-0.2l-0.2-17.9l-0.2-17.9
	l40-0.2l39.7-0.2l0.2-17.9l0.2-18.2h-39.7h-39.7V89.8V72.1l43.4-0.2l43.4-0.2V53.7V35.8l-68.3-0.2l-68.3-0.2v90.4 M512.6,36.8
	c-0.2,0.5-0.2,40.9-0.2,89.9v89.1h68.8H650l-0.2-17.4l-0.2-17.4l-43.1-0.2l-42.9-0.5V162v-18.2H603h39.5v-18.2v-18.2H603h-39.5V89.8
	V72.1h43.1h43.1V54V35.8h-68.6C519.4,35.8,512.8,36,512.6,36.8 M675.9,125.7v89.9h68.6H813l-0.2-17.7l-0.2-17.7h-43.1h-43.1V162
	v-18.2H766c29.8,0,39.2-0.2,39.7-0.5c0.5-0.5,0.5-5.1,0.5-18.2v-17.7h-39.7h-39.7V89.8V72.1h43.1H813V54V35.8h-68.6h-68.6
	L675.9,125.7 M126.2,36.8c0.2,0.5,1,0.5,1.5,0.5c0.7,0,1.2,0.2,1.5,0.5s1,0.5,1.7,0.7c0.7,0.2,1.5,0.5,1.5,0.7
	c0,0.2,0.2,0.5,0.7,0.5c0.5,0,0.7,0.2,0.7,0.5c0,0.2,0.5,0.5,1,0.7c1.2,0.5,3.9,2.2,5.6,3.9c0.7,0.5,1.5,1,1.9,1s0.7,0.2,0.5,0.2
	c-0.2,0.2,0.5,1,1.7,1.7c1.2,0.7,2.7,1.9,3.4,2.7c0.7,0.7,1.9,1.7,2.7,2.2c0.7,0.5,2.9,2.4,4.8,4.1c1.9,1.7,3.6,3.1,3.9,3.1
	c0.2,0,0.2,0.2,0,0.5c-0.2,0.2,0,0.5,0.2,0.5c1,0,23.7,22.3,25.9,25.4c0.5,0.7,1.7,1.9,2.4,2.9c2.9,2.9,6.3,7.3,6.8,8
	c0.2,0.5,0.7,1.2,1.2,1.7c0.5,0.5,1.2,1.5,1.9,2.4c0.7,1,1.7,2.2,2.4,2.7c0.7,0.5,1,1.2,1,1.5c0,0.2,0.7,1.2,1.5,1.9
	c0.7,1,1.5,1.7,1.5,1.9c0,0.2,0.5,1,1,1.7c1.7,1.9,2.2,2.7,2.2,3.1c0,0.2,0.2,0.5,0.5,0.5c0.2,0,0.5,0.5,0.7,1.2
	c0.2,0.5,0.7,1.7,1.5,2.4c1.2,1.5,1.5,8.2,0.5,9c-0.2,0.2-1.2,1.7-1.9,3.1c-0.7,1.5-1.5,2.9-1.7,2.9s-0.2,1.2-0.2,1.7
	s-0.5,1.2-0.7,1.2c-0.2,0-0.5,0.2-0.5,0.5c0,0.5-0.5,1-1.9,2.7c-0.2,0.5-0.5,0.7-0.5,1s-0.5,0.7-0.7,1.2c-0.5,0.5-1.2,1.5-1.9,2.2
	c-0.7,0.7-1.5,1.9-2.2,2.7c-1.2,1.5-4.4,5.1-6.1,7.3c-0.5,0.7-2.2,2.7-3.9,4.1c-1.7,1.7-3.4,3.4-3.6,4.1c-0.7,1-3.6,4.1-6.3,6.5
	c-0.2,0.2-3.1,2.9-6.1,6.1c-2.9,3.1-6.1,6.1-7,6.8c-0.7,0.7-3.4,3.1-6.1,5.3c-2.4,2.4-4.6,4.1-4.8,4.4c-0.2,0-1.2,1-2.4,1.9
	c-3.9,3.4-4.4,3.9-7,5.8c-2.9,2.2-2.9,2.2-4.8,3.9c-0.7,0.5-2.7,1.9-4.6,3.1c-1.9,1.2-3.4,2.4-3.6,2.4c-0.2,0.2-1.5,0.7-2.9,1.2
	s-3.1,1.2-3.9,1.5c-0.7,0.5-1.2,0.2-1.7,0c-0.2-0.2-1-0.5-1.5-0.5c-1,0-7-3.4-9.4-5.1c-0.7-0.7-1.7-1.2-1.9-1.2
	c-0.2,0-1-0.5-1.7-1.2c-0.7-0.7-1.5-1.2-1.7-1.2s-1-0.5-1.5-1c-0.7-0.5-2.4-2.2-4.1-3.6c-1.7-1.2-3.9-3.4-5.1-4.4
	c-1.2-1-3.6-3.1-5.3-4.8c-1.7-1.7-3.9-3.4-4.6-4.1c-0.7-0.7-2.4-2.2-3.6-3.4c-3.9-3.4-17.4-17-22.5-22.3c-7.8-8.5-8.7-9.4-8.7-9.9
	c0-0.2-0.7-1-1.7-1.9c-1-1-1.7-1.9-1.7-2.2c0-0.2-0.5-1-1.2-1.7c-0.7-0.7-1.2-1.5-1.2-1.7c0-0.2-0.2-0.5-0.5-0.5
	c-0.5,0-2.4-2.9-6.5-9c-3.1-4.8-3.4-9.7-0.5-14.3c0.7-1,1.2-1.9,1.2-1.9c0-0.2,1.2-1.9,2.4-3.1c0.5-0.5,1-1,1-1.2
	c0-0.5,3.4-4.6,5.6-7.3c1.2-1.2,2.2-2.4,2.2-2.7s0.7-1.2,1.7-1.9c1-1,1.7-1.7,1.7-1.9s0.7-1.2,1.9-2.2c3.9-3.9,7.8-8.2,7.8-8.5
	s2.9-3.1,6.8-6.8c3.6-3.6,6.8-6.8,7-7c0.7-0.7,1.2-1.2,4.8-4.4c1.9-1.7,4.4-4.1,5.6-5.3c2.2-1.9,4.6-4.1,9-7.8
	c0.7-0.7,1.9-1.7,2.4-2.2s1.9-1.7,3.1-2.7c1.2-1,2.4-1.9,2.7-2.2c0.2-0.2,1.2-1,2.2-1.7c1-0.7,1.7-1.5,1.7-1.7
	c0-0.2,0.2-0.2,0.7-0.2c0.5,0,1-0.2,1-0.7c0.2-0.5,0.5-0.7,0.7-0.7s1.5-0.7,2.4-1.7c1-1,2.4-1.9,2.9-1.9c0.5-0.2,1.2-0.5,1.2-0.7
	c0-0.2,0.5-0.5,1.2-0.5s1.2-0.2,1.5-0.5c0.2-0.2,1.5-0.5,2.7-0.5C125,36.3,126.2,36.5,126.2,36.8 M121.6,41.4
	c-0.7,0.2-1.9,0.7-2.9,1.2c-1,0.5-1.9,1-1.9,1.2s-0.2,0.5-0.7,0.5c-0.7,0-2.7,1.5-4.4,2.9c-0.5,0.5-1,1-1.2,1s-1,0.5-1.7,1.2
	s-1.5,1.2-1.7,1.2s-0.5,0.2-1,0.5c-0.2,0.2-1.2,1.2-2.2,1.9c-1,0.7-2.2,1.7-2.7,2.2c-0.5,0.5-1.5,1.2-1.9,1.5
	c-1.2,0.7-5.3,4.1-8.2,7c-1.5,1.5-3.4,3.1-4.4,3.9c-1.5,1.5-23,23-24.7,25c-0.7,1-2.2,2.7-3.4,3.9c-1.2,1.2-2.2,2.4-2.4,2.7
	c0,0.2-1,1.5-2.4,2.9c-3.4,3.6-5.3,6.3-5.3,6.8c0,0.2-0.2,0.7-0.7,0.7c-0.2,0.2-1.7,1.7-2.9,3.6c-1.2,1.9-2.4,3.4-2.7,3.6
	c-0.2,0.2-0.5,1.2-0.7,2.4c-0.2,1.2-0.5,1.9-0.7,1.9c-0.2,0-0.5,1-0.5,2.4c0,1.2,0.2,2.4,0.5,2.4c0.2,0,0.5,0.7,0.7,1.7
	c0.2,1.5,2.9,5.8,4.4,7.3c0.2,0.2,1.5,1.7,2.4,2.7c1,1.2,1.9,2.4,2.2,2.7s0.5,0.7,0.5,1c0,0.2,0.5,1,1.2,1.7
	c0.7,0.7,1.5,1.7,1.9,2.2c0.5,0.5,1.9,2.4,3.4,3.9c1.5,1.7,3.4,3.9,4.4,4.8c1,1,1.9,2.2,2.4,2.7c0.2,0.2,1,1,1.2,1.2
	c0.2,0.2,1,1,1.2,1.2c0.2,0.2,1,1,1.2,1.2s1.9,2.2,3.9,4.1c1.7,1.9,3.1,3.4,2.9,3.4c-0.2,0,0.5,0.5,1.5,1.2c1,0.7,1.5,1.2,1.2,1.2
	s0.7,1,2.2,2.2c3.1,2.7,3.4,2.9,4.1,3.6c0.2,0.2,2.2,2.2,4.4,4.1c1.9,1.9,4.6,4.4,5.8,5.3c1.2,1.2,2.2,2.2,2.4,2.2s0.7,0.5,3.6,2.9
	c1.2,1,2.7,2.4,3.4,2.7c0.7,0.5,1.5,1.2,1.9,1.7c0.2,0.5,1,1,1.2,1c0.2,0,1.2,0.7,1.9,1.5c0.7,0.7,1.7,1.5,1.9,1.5
	c0.2,0,0.7,0.5,1.2,1c1.5,1.5,6.1,4.8,8,5.6c3.4,1.5,12.4,0.5,12.4-1.2c0-0.2,0.2-0.5,0.7-0.5c0.5,0,1.2-0.5,1.9-1.2
	c0.7-0.7,1.5-1.2,1.7-1.2c0.5,0,5.3-3.9,5.6-4.4c0-0.2,0.5-0.5,0.7-0.5s1.2-0.5,1.9-1.2s1.5-1.2,1.7-1.2c0.2,0,1-0.5,1.7-1.5
	c0.7-0.7,1.9-1.7,2.7-2.2c0.7-0.5,2.4-1.9,3.6-3.1c1.2-1.2,2.9-2.7,3.9-3.4c1.9-1.9,31.5-32,31.5-32.5c0-0.2,1.2-1.9,3.9-4.8
	c1-1.2,1.9-2.2,1.9-2.4s0.7-1,1.5-1.7s1.5-1.5,1.5-1.7c0-0.2,0.7-1.2,1.7-2.2s1.7-1.9,1.7-2.2c0-0.2,0.2-0.5,0.5-0.5s0.5-0.5,0.7-1
	c0.2-0.5,0.5-1.2,0.7-1.5c2.7-1.9,4.1-10.2,2.2-13.8c-0.5-0.7-0.7-1.7-0.7-1.9s-0.5-1-1.2-1.7s-1.2-1.5-1.2-1.7c0-0.2-0.5-0.7-1-1.2
	s-1-1-1-1.2c0-0.2-0.7-1.2-1.5-2.2c-0.7-1-1.5-1.7-1.5-1.9s-0.5-1-1.2-1.9c-0.7-1-2.4-2.7-3.6-4.1c-1.2-1.5-2.9-3.6-3.9-4.6
	c-1-1-1.7-1.9-1.5-1.9c0.2,0-0.2-0.5-0.7-1c-0.5-0.5-2.4-2.7-4.4-4.6c-5.3-5.8-17.7-18.2-18.2-18.2c-0.2,0-0.2-0.2-0.2-0.5
	c0.2-0.2,0-0.5-0.2-0.5s-1.2-0.7-2.2-1.7s-3.1-2.9-5.1-4.4c-1.9-1.7-4.4-3.9-5.6-4.8c-1.2-1.2-2.4-2.2-2.4-2.2c-0.2,0-1.2-1-2.4-1.9
	c-2.9-2.7-4.4-3.9-6.1-5.1c-0.7-0.5-1.7-1.2-2.2-1.7C132.5,43.1,125,39.9,121.6,41.4 M124,63.9c0,0.5,0.2,1.2,0.5,1.2
	c0.2,0,0.5,0.5,0.5,1c0,0.5,0.2,1,0.5,1.2c0.2,0.2,0.5,1.2,0.7,2.2s0.5,1.9,0.7,2.2s0.5,0.7,0.5,1.5c0,0.7,0.2,1.2,0.5,1.2
	s0.5,0.7,0.7,1.7c0.2,1,0.5,2.2,0.7,2.7c1.2,2.2,1.9,4.4,1.9,5.3c0,0.5,0.2,1,0.5,1s0.5,0.5,0.5,1.2s0.2,1.2,0.5,1.2
	s0.7,1.5,1.2,2.9c0.5,1.7,1,3.1,1.2,3.4c0.2,0.2,0.5,1.2,0.7,2.2l0.2,1.5h-4.4c-3.1,0-4.6,0.2-4.8,0.7c-0.5,0.7-0.5,4.4,0,5.3
	c0.2,0.2,0.2,4.8,0.5,10.2c0,5.6,0.2,9.7,0.5,9.7s0.5,2.2,0.5,5.1v5.1h-5.1h-5.1l0.2-7.5c0.2-4.1,0.5-12.4,0.5-18.2l0.2-10.7h-4.1
	c-3.9,0-4.1,0-3.9-0.7c0.2-0.5,0.5-1.5,0.5-2.2c0.2-0.7,0.5-1.2,0.5-1.2c0.2,0,0.7-1.5,1.2-2.9c0.5-1.7,1-3.4,1.2-3.9
	c0.2-0.5,0.7-1.9,1.2-3.1c0.5-1.2,1-2.4,1.2-2.9s0.5-1.7,0.7-2.7c0.2-1,0.5-1.9,0.7-1.9c0.2-0.2,0.5-0.7,0.5-1.5s0.2-1.2,0.5-1.5
	s1-1.9,1.2-3.6c0-0.2,0.2-0.5,0.5-0.7c0.2-0.2,0.5-1,0.5-1.5s0.2-1.2,0.5-1.5c0.2-0.2,0.5-1,0.7-1.9C123.3,61.2,124,61.7,124,63.9
	 M98.4,106.5c0.5,0.2,1,0.5,0.7,0.7c-0.2,0.2,0.7,0.7,1.7,1.2c1,0.5,1.9,1,1.9,1.2s0.2,0.5,0.7,0.5c0.5,0,0.7,0.2,0.7,0.5
	s0.5,0.7,1.2,0.7c1.5,0.2,1.7,1.2,0.5,1.2c-1,0-3.9,1-4.8,1.5c-0.2,0.2-1.2,0.5-2.2,0.7c-1,0.2-1.7,0.5-1.7,0.7c0,0.2-0.7,0.7-1.7,1
	c-3.9,1.5-7.8,7-6.8,9.7c0.5,1.9,4.1,5.8,5.3,5.8c0.5,0,0.7,0.2,0.7,0.5c0,0.2,0.7,0.5,1.7,0.7c1.5,0.2,2.9,0.7,4.8,1.7
	c0.5,0.2,2.4,0.5,4.4,0.7c1.9,0.2,3.4,0.5,3.4,0.7c0,1.5,29.3,1.5,32.7,0c0.5-0.2,2.2-0.5,3.6-0.7s2.9-0.5,3.1-0.7s1-0.5,1.7-0.5
	s1.5-0.2,1.7-0.5c0.2-0.2,1.2-0.5,2.2-0.7c1-0.2,1.9-0.5,1.9-0.7c0-0.2,0.7-0.7,1.5-1c4.8-2.2,7.3-7.8,4.8-11.6
	c-1-1.7-2.4-2.9-3.4-2.9c-0.2,0-0.7-0.2-0.7-0.5c0-0.5-3.6-1.9-4.6-1.9c-0.5,0-0.7-0.2-0.7-0.5c0-0.5-0.2-0.5-0.5,0
	c-0.2,0.2-1.9,0.7-3.4,0.7c-2.9,0-3.1,0-3.9-2.2c-0.5-1.7-1.9-5.3-2.4-5.6c-0.2-0.2-0.2-0.2,0-0.5c0.2,0,0.7,0.2,1,0.5
	c0.2,0.2,1,0.5,1.7,0.5s1.5,0.2,1.7,0.5c0.2,0.2,1.7,0.7,3.1,0.7c1.7,0.2,2.9,0.5,2.9,0.7s0.5,0.5,1.2,0.5c2.2,0,7.5,1.9,5.6,1.9
	c-1.5,0-1.5,1.5,0,2.2c5.1,2.4,9.4,7.3,9.4,10.2c0,1.9-5.3,8.5-6.8,8.5c-0.2,0-0.5,0.2-0.5,0.5s-0.2,0.5-0.5,0.5
	c-0.2,0-1.2,0.2-2.2,0.7s-2.2,1-2.7,1.2c-2.2,1-5.3,1.9-6.5,1.9c-0.7,0-1.5,0.2-1.7,0.5c-0.2,0.2-3.9,1-7,1.2
	c-0.2,0-0.5,0.2-0.7,0.5c-0.2,0.2-1.5,0.2-2.7,0.2c-1.2,0-2.4,0.2-2.7,0.5c-0.2,0.2-5.1,0.5-13.6,0.5c-8.2,0-13.1-0.2-13.1-0.5
	c0.2-0.2-1-0.5-2.7-0.5c-1.7,0-2.9-0.2-2.9-0.5c0-0.2-1.5-0.5-3.4-0.5c-1.9-0.2-3.6-0.5-3.9-0.7c-0.2-0.2-1-0.5-1.7-0.5
	s-1.5-0.2-1.7-0.5c-0.2-0.2-1.2-0.5-2.4-0.7c-1.2-0.2-2.2-0.5-2.2-0.7s-0.5-0.5-1.2-0.5s-1.2-0.2-1.5-0.5c-0.2-0.2-1-0.5-1.5-0.7
	c-1.7-0.5-7.5-4.4-9-5.8c-3.9-4.6-1.9-10.4,5.1-15c3.1-2.2,3.9-2.4,5.8-3.4c1-0.5,2.4-1,3.1-1.5c0.7-0.5,1.7-0.7,1.9-0.7
	c0.5,0,0.7-0.2,0.7-0.5C91.1,106.3,96.2,105.8,98.4,106.5 M129.1,149.9c0,6.5,0,6.8,0.5,7.5c0.2,0.2,0.5,4.6,0.5,9.4
	c0,5.1,0.2,9,0.5,9s0.5,1,0.5,2.2v2.2h-2.2c-1.2,0-3.1,0-4.4,0c-1,0-3.4,0-5.1,0h-3.1l0.2-1.9c0-1,0.2-6.3,0.5-11.6
	c0.2-5.3,0.5-10.4,0.7-11.4c0.2-1,0.2-3.6,0.2-6.1v-4.6h5.6h5.3L129.1,149.9"/>
</svg>
