<?xml version="1.0" encoding="utf-8"?>
<!-- Generator: Adobe Illustrator 22.1.0, SVG Export Plug-In . SVG Version: 6.00 Build 0)  -->
<svg version="1.1" id="Layer_1" xmlns="http://www.w3.org/2000/svg" xmlns:xlink="http://www.w3.org/1999/xlink" x="0px" y="0px"
	 viewBox="0 0 780 330.7" style="enable-background:new 0 0 780 330.7;" xml:space="preserve">
<style type="text/css">
	.st0{fill:#5B5478;}
	.st1{fill:#A9A9AA;}
	.st2{fill:#DCC554;}
</style>
<path class="st0" d="M187.9,102.1l26.7-15.1c0,0,5.4,7.9,15,10.2c9.6,2.3,24,1.1,26.2,1.3c2.3,0.2,13.3,0.3,13.4,18.9
	c0.2,18.5-3.2,25.4-12.9,25.8c-9.6,0.4-32.6-4.8-45.3,16.2s-3.8,33.3,0.4,40.7c4.3,7.5,16.5,19.6-4.5,31.9
	c-21,12.2-25.5,6.9-31.7-4.8c-6.4-12.1-14.9-23.5-25.4-24v-30.9c0,0,24.8-4,35.9-27.2C196.9,121.8,189.7,106.6,187.9,102.1z"/>
<path class="st1" d="M135.2,172.4l-0.3,30.7c0,0-12.2,1.3-19,8.4c-6.8,7.2-12.9,20.2-14.2,22.1c-1.3,1.9-6.9,11.4-23,2.1
	c-16.2-9.2-20.4-15.5-15.9-24s20.4-25.8,8.6-47.3s-26.9-20-35.5-20s-25.2,4.5-25.3-19.8c-0.2-24.3,6.8-25.6,20-25.1
	c13.6,0.5,27.9-1.2,33.5-10l26.8,15.5c0,0-8.8,23.4,5.6,44.7S127.7,172.1,135.2,172.4z"/>
<path class="st2" d="M98.2,92.4L71.6,76.8c0,0,5.8-11.8,3-21.2c-2.8-9.4-11-21.3-12.1-23.4c-1-2-6.4-11.5,9.6-21s23.6-9.9,28.7-1.8
	c5.2,8,12.2,30.6,36.8,31c24.5,0.4,30.7-13.4,35-20.8s8.7-24.1,29.8-12.1s18.8,18.6,11.8,29.8c-7.2,11.5-12.9,24.8-6.8,36.8
	l-26.8,15.5c0,0-17.1-22.2-42.8-20.3C112.2,71.4,102.9,85.5,98.2,92.4z"/>
<path class="st0" d="M349.9,171.9c0,0-8.3,13.5-9.1,14.6c-0.8,1.1-4.4,5.2-12.1,1.3c-7.7-3.9-16.6-8.8-27.1-9.6
	c-10.5-0.9-22,0.4-29.2,7.1s-7.7,17.1-3.7,22.7c3.9,5.6,12.7,9.9,23.6,13.4c10.9,3.6,26.3,7.4,37.4,14s21.1,15.8,21.9,30.6
	s-2.5,30.9-12.6,41.1c-10,10.3-23.6,18.4-42.6,19.8c-19,1.3-45.4-0.9-69-20.4c0,0,8.8-15.2,9.9-16.3c1.2-1,7.1-5.3,13.7-1.2
	s14.5,9.8,24.7,11.8c10.2,2,27,1.7,35.7-6.5c8.8-8.2,9.2-18.4,4.1-26.3c-5-8-17.2-11.1-27.9-14.5c-10.7-3.5-30.4-9.6-39.9-17.3
	c-9.5-7.7-16.8-21.5-15.5-36.2c1.3-14.7,5.5-26.4,21.8-37.6s33.1-11.1,43.3-10.8C307.7,151.8,327.7,152.5,349.9,171.9z"/>
<path class="st0" d="M358,154l54.7,170.3c0,0,27.1,0,29.1,0s4.5-1.6,5.7-5c1.2-3.5,39.7-124.7,39.7-124.7s38,123.2,38.6,124.7
	c0.6,1.4,2.4,4.9,6.1,5c3.7,0.2,29.1,0,29.1,0L615.5,154c0,0-26.8-0.2-28.4,0c-1.6,0.2-7.3,1.6-8.8,7.3
	c-1.6,5.7-34.8,125.1-34.8,125.1s-37.1-124.1-37.9-125.8c-0.8-1.7-3.3-6.6-10-6.5c-6.7,0.1-14.9-0.1-16.6,0
	c-1.7,0.1-6.9,0.7-8.8,6.2c-1.9,5.5-39.4,125.9-39.4,125.9s-33.3-123.9-33.8-125.5c-0.6-1.7-3.9-6.6-9-6.7
	C382.9,153.9,358,154,358,154z"/>
<path class="st0" d="M762.7,184.8c-10.4-15.2-18.1-25-45.5-31.6c-27.4-6.6-53.4,4.3-64.7,12.6c-11.3,8.4-28.7,26.4-32.2,56.3
	c-3.6,29.9,3.9,57.1,17,75.1c13,18,33.1,26.8,51.5,29c18.5,2.2,59.2,2.1,82.1-26.4c0,0-10.7-13.5-11.4-14.4c-0.7-0.9-5.1-3.8-10.3-1
	c-5.1,2.8-23.1,14.8-40.9,14.7c-17.8-0.2-26.7-3.8-34-9.4c-7.3-5.6-13.9-18.1-16.4-27.4c-2.5-9.2-2.8-16.6-2.8-20.4
	c0,0,108.5,0,110.4,0c1.9,0,6.9-0.6,7.3-7.5C773.3,227.6,773,200,762.7,184.8z M740.8,219.8h-84.7c0.2-2.8,4.3-42.4,43.8-42.4
	C743.2,177.3,740.8,219.8,740.8,219.8z"/>
</svg>
