<?xml version="1.0" encoding="utf-8"?>
<!-- Generator: Adobe Illustrator 22.1.0, SVG Export Plug-In . SVG Version: 6.00 Build 0)  -->
<svg version="1.1" id="Layer_1" xmlns="http://www.w3.org/2000/svg" xmlns:xlink="http://www.w3.org/1999/xlink" x="0px" y="0px"
	 viewBox="0 0 535.2 669" style="enable-background:new 0 0 535.2 669;" xml:space="preserve">
<style type="text/css">
	.st0{fill:#D3B02A;}
	.st1{fill:#4772A0;}
</style>
<polygon class="st0" points="124,662.2 171.2,662.2 327.2,201 399.5,228.8 441.2,201 451.4,104.6 428.4,93.5 402.9,185.1 
	341.7,162.4 381.9,15.5 353.8,5.9 298.9,146.5 236.2,126.4 274.5,39.7 251.5,32.2 197,115.9 210.4,161.9 285.2,185.4 "/>
<polygon class="st1" points="3.1,243 3.1,291 56.3,291 56.3,294.9 39.1,306.9 83.2,433.3 2.9,662.2 56.5,662.2 123.3,462.6 
	125.8,462.6 191.5,662.2 245.1,662.2 165.9,433.3 230.7,243 177.9,243 125.6,404.3 123.1,404 70.5,243 "/>
<path class="st1" d="M457.2,502l45.6-49.4L502,308.3L437.5,243H285.2v51.8h50.9v4.5L316,312l-0.4,350.1h50.9V521.7h43.9l65.2,140.5
	h55.8L457.2,502z M451.9,433.5l-34.5,37.3h-50.9v-176h51.7l33.6,34L451.9,433.5L451.9,433.5z"/>
<title>UCSD XR Logo</title>
</svg>
