<?xml version="1.0" encoding="utf-8"?>
<!-- Generator: Adobe Illustrator 22.1.0, SVG Export Plug-In . SVG Version: 6.00 Build 0)  -->
<svg version="1.1" id="Layer_1" xmlns="http://www.w3.org/2000/svg" xmlns:xlink="http://www.w3.org/1999/xlink" x="0px" y="0px"
	 viewBox="0 0 497.4 706.6" style="enable-background:new 0 0 497.4 706.6;" xml:space="preserve">
<style type="text/css">
	.st0{fill:#026996;}
	.st1{fill:#C69214;}
</style>
<path class="st0" d="M157.8,678c0,13,10.7,22.1,19.3,22.5c8.5,0.4,135.4,0,141.4,0c5.9,0,19.3-8.5,19.3-23.4s-14.7-20.9-20-21.1
	c-5.3-0.1-136.2-0.1-139.8,0C174.3,656.1,157.8,661.7,157.8,678z"/>
<path class="st0" d="M113.7,618.5c0,13,10.7,22.1,19.3,22.5c8.5,0.4,223.6,0,229.5,0c5.9,0,19.3-8.5,19.3-23.4s-14.7-20.9-20-21.1
	s-224.3-0.1-228,0C130.2,596.6,113.7,602.2,113.7,618.5z"/>
<g id="XMLID_1_">
	<g>
		<path class="st0" d="M445.1,103.3c43.2,58.3,54.1,121.1,47.3,176.8s-29.3,91-39.3,106.5c-10,15.5-20.6,23.1-38.1,63.3
			c-17.6,40.2-19.3,75-20.5,86.7c-1.3,11.7-11.7,26-14.7,28.9c-2.9,2.9-15.1,15.9-39.8,15.9c0,0-173.9,0-188.1,0s-28.5-8-38.1-18.4
			s-13.1-24.3-13.1-36.4s-7.1-43.2-13.8-61.2S75.9,434,43.3,386.2S1.7,291.5,2.6,236.6S31.9,112.2,85.1,66.1s122.8-68.7,189-60.3
			C340.3,14.1,401.9,45.1,445.1,103.3z M428.7,336.8c9.2-20.6,24.8-53.6,18.4-111.1c-6.3-57.4-43.2-114.4-91.4-144.6
			s-116.8-43.5-181-17.6C110.7,89.5,69.6,139.4,53.2,201s0.4,120.2,26.4,158.8s41.9,63.7,53.6,101.4s11.4,57.4,11.7,62.9
			c0.6,10.7,3.9,13.2,23.1,12.9c0,0,27.8,0.1,61,0.1v-0.3h37.6v0.4c35.3,0,67.3,0,70.7-0.1c8-0.4,12.6-5.8,12.9-15.5
			c0.4-9.6,5.5-47.3,21.3-85.5C387.6,398,419.5,357.3,428.7,336.8z"/>
		<path class="st1" d="M354.2,220.6c9.1,7.9,5.8,18.3,0,24.1c-5.9,5.8-13.1,18.6-16.2,34.2c-3.1,15.6-1.7,23.1-1.5,29.7
			c0.3,6.7,4.4,21.9,6.3,25.5c1.8,3.6,2.8,16.7-5.8,21.6c-8.7,4.9-13.4,7.3-23.9,3.3c-10.5-4-9.7-11.3-46.3-17.7l-0.1,195.6h-37.6
			V341.8c0,0-5.3,0.1-17.6,3.5s-22.6,10.2-27.3,13.6c-4.8,3.3-17.4,3.1-22.1-0.8c-4.8-3.8-13.9-9.9-8.8-24.1
			c5.1-14.3,8-24.4,6.7-41.1c-1.4-16.8-6.3-32.8-13.7-42.9c-7.5-10.1-9.6-9.2-10.2-17.5c-0.6-8.3,7.9-14.8,12.7-15.4
			s13.7-4,25.3,12.5c11.5,16.5,16.5,27.7,19.6,46.5c3.1,18.7,1.6,32.8,0.8,40.8c0,0,20.3-6.1,34.9-7.3c0,0-0.2-128.5-0.2-132.3
			c0-3.8,5-19.4,18.9-19.4c13.9,0,18.6,13.1,18.9,18.6c0.3,5.6,0,132.5,0,132.5s19.5,2.7,35.8,8.3c0,0-3.8-28,0.9-45.6
			c4.8-17.6,9.3-29,15.1-37c5.8-8,11-13.4,12.5-14.8C332.6,218.5,345.1,212.8,354.2,220.6z"/>
	</g>
</g>
</svg>
