<?xml version="1.0" encoding="utf-8"?>
<!-- Generator: Adobe Illustrator 22.1.0, SVG Export Plug-In . SVG Version: 6.00 Build 0)  -->
<svg version="1.1" xmlns="http://www.w3.org/2000/svg" xmlns:xlink="http://www.w3.org/1999/xlink" x="0px" y="0px"
	 viewBox="0 0 2192 1334" style="enable-background:new 0 0 2192 1334;" xml:space="preserve">
<style type="text/css">
	.st0{fill:#FBFFA5;}
	.st1{fill:#6DB5CF;}
	.st2{fill:#4592AD;}
	.st3{opacity:0.31;}
	.st4{fill:#784228;}
	.st5{fill:#955D36;}
	.st6{fill:#8F5A2C;}
	.st7{fill:#A26735;}
	.st8{opacity:0.16;}
	.st9{fill:#997A61;}
	.st10{fill:#CEA980;}
	.st11{fill:#C19D7A;}
	.st12{fill:#BE9C79;}
	.st13{fill:#AF8E71;}
	.st14{fill:#8E705B;}
	.st15{fill:#B48A66;}
	.st16{fill:#A57856;}
	.st17{fill:#AF8F77;}
	.st18{fill:#1A1A1A;}
	.st19{fill:#333333;}
	.st20{fill:#D6D0C3;}
	.st21{fill:#AA8166;}
	.st22{fill:#7E979C;}
	.st23{opacity:0.17;}
	.st24{fill:#666666;}
	.st25{fill:#808080;}
	.st26{fill:#F2F2F2;}
	.st27{fill:#4D4D4D;}
	.st28{fill:none;}
</style>
<g id="Layer_1">
	<circle class="st0" cx="952.84" cy="558.094" r="222.331"/>
	<g id="XMLID_5_">
		<g>
			<path class="st1" d="M1956.502,1279.024c90.311-8.175,180.622,8.21,269.596,26.986l0.369,28.498H-23.831l-0.299-18.846
				c158.224-6.434,608.003-16.42,650.952-21.448c49.489-5.784,99.541-11.568,148.994-5.591
				c37.482,4.536,73.926,15.77,111.443,19.831c50.878,5.52,102.125-2.268,153.02-7.56c210.649-21.958,423.091-1.547,634.848,2.743
				c47.52,0.967,95.216,1.108,142.437-4.325C1864.064,1293.968,1909.879,1283.244,1956.502,1279.024z"/>
			<path class="st2" d="M2226.099,1306.01c-88.975-18.776-179.286-35.161-269.596-26.986
				c-46.623,4.219-92.438,14.943-138.938,20.288c-47.221,5.432-94.917,5.292-142.437,4.325
				c-211.757-4.29-424.199-24.701-634.848-2.743c-50.895,5.292-102.143,13.08-153.02,7.56
				c-37.517-4.061-73.961-15.295-111.443-19.831c-49.454-5.977-99.505-0.193-148.994,5.591
				c-42.949,5.028-492.728,15.014-650.952,21.448l-10.935-706.875c0,0,11.199-8.421,31.944-11.005
				c21.958-2.743,43.916,10.953,90.557,10.953c27.443,0,72.818-16.086,96.06-19.18c41.156-5.485,90.557,2.742,120.743,13.695
				c61.901,22.485,76.844,19.198,112.515,19.198c24.701,0,109.157-23.241,150.928-27.408c27.443-2.743,96.06,10.953,128.988,13.695
				s57.629-16.438,112.515-21.923c52.53-5.239,85.072,24.665,148.186,27.408s121.217-15.998,150.946-21.923
				c27.443-5.485,46.641,19.18,82.329,16.438c35.671-2.743,74.084-10.953,102.195-12.746c28.129-1.776,65.188,7.261,89.889,12.746
				s71.359-2.743,99.769-12.746c28.428-9.986,106.063,4.518,141.734,10.003s63.114-19.18,98.099-19.18s83.015,24.665,111.566,16.174
				c28.533-8.491,51.036-16.174,75.737-16.174s65.856,2.743,87.814,8.228c21.958,5.468,68.071-5.186,87.814-8.228
				c35.688-5.485,46.659,5.485,76.844,8.228s54.886-6.856,54.886-6.856L2226.099,1306.01z"/>
		</g>
	</g>
	<g>
		<g class="st3">
			<g id="XMLID_1_">
				<g>
					<path class="st0" d="M1218.04,605.79c-11.62,31.66-27.78,63.9-58.84,74.8c-29.75,10.44-62.34-2.94-93.83-1.48
						c-28.4,1.32-54.65,14.63-81.86,22.89c-27.21,8.26-59.45,10.59-81.56-7.29c-8.16-6.6-14.29-15.5-22.75-21.72
						c-24.74-18.17-59.13-8.07-89.78-9.62c-36.61-1.86-71.27-23.42-90.44-54.49c27.7,1.47,50.1-12.3,90.84-19.42
						c1.79-0.31,3.63-0.61,5.51-0.89c4.4-0.68,9-1.27,13.85-1.76c10.65-1.06,20.48-0.66,29.91,0.64c4.77,0.67,9.44,1.56,14.07,2.63
						c31.28,7.23,60.37,22.23,104.21,24.14c62.31,2.7,119.7-15.5,149.76-21.68c0.39-0.08,0.8-0.17,1.18-0.25
						c6.51-1.3,12.56-0.89,18.48,0.44c19.01,4.26,36.64,18.1,63.85,16.01C1199.67,608.04,1208.87,607,1218.04,605.79z"/>
					<path class="st0" d="M1407.25,610.39c3.16,37.06,4.22,75.16-11.16,108.66c-8.26,18-21.04,33.99-26.62,53
						c-5.87,20.02-3.27,41.86-9.72,61.7c-10.19,31.36-41.36,51.81-73.26,60.15c-31.9,8.34-65.39,7-98.28,9.14
						c-41.92,2.72-83.46,11.21-123.09,25.14c-30.25,10.63-60.38,24.62-92.45,24.61c-17.44-0.01-34.57-4.19-51.51-8.35
						c-69.27-17.02-138.54-34.03-207.81-51.05c-51.4-12.63-107.42-28.33-137.39-71.97c-12.31-17.94-18.96-39.08-28.59-58.59
						c-15.67-31.74-39.12-58.99-56.43-89.86c-10.22-18.23-18.24-38.75-20.62-59.36c33.31-7.04,72.75-16.12,97.37-18.58
						c10.18-1.01,26.02,0.23,43.61,2.34c-18.49,14.66-20.52,45.43-10.79,68.13c10.82,25.25,31.61,44.76,46.13,68.08
						c4.77,7.66,8.91,15.81,14.96,22.51c15.9,17.62,41.89,21.99,65.61,21.01c23.71-0.99,47.42-6.23,70.99-3.43
						c19.18,2.28,37.29,9.77,55.84,15.17c43.96,12.8,91.31,13.79,135.77,2.84c48.77-12.02,94.77-38.15,145-38.69
						c19.11-0.21,38.67,3.31,57.08-1.84c13.75-3.85,25.72-12.26,37.22-20.73c26.3-19.35,52.96-41.39,64.16-72.06
						c7.27-19.87,7.26-41.3,5.47-62.58c27.24-0.34,60.99,7.85,83.99,12.96C1389.52,610.24,1397.98,610.71,1407.25,610.39z"/>
					<path class="st0" d="M611.3,597.37c29.82,3.58,64.65,9.64,85.37,11.37c0.78,0.06,1.54,0.1,2.31,0.14
						c19.17,31.07,53.83,52.63,90.44,54.49c30.65,1.55,65.04-8.55,89.78,9.62c8.46,6.22,14.59,15.12,22.75,21.72
						c22.11,17.88,54.35,15.55,81.56,7.29c27.21-8.26,53.46-21.57,81.86-22.89c31.49-1.46,64.08,11.92,93.83,1.48
						c31.06-10.9,47.22-43.14,58.84-74.8c27.06-3.54,53.81-8.47,74.81-9.79c1.92-0.13,3.89-0.19,5.89-0.22
						c1.79,21.28,1.8,42.71-5.47,62.58c-11.2,30.67-37.86,52.71-64.16,72.06c-11.5,8.47-23.47,16.88-37.22,20.73
						c-18.41,5.15-37.97,1.63-57.08,1.84c-50.23,0.54-96.23,26.67-145,38.69c-44.46,10.95-91.81,9.96-135.77-2.84
						c-18.55-5.4-36.66-12.89-55.84-15.17c-23.57-2.8-47.28,2.44-70.99,3.43c-23.72,0.98-49.71-3.39-65.61-21.01
						c-6.05-6.7-10.19-14.85-14.96-22.51c-14.52-23.32-35.31-42.83-46.13-68.08C590.78,642.8,592.81,612.03,611.3,597.37z"/>
				</g>
			</g>
		</g>
		<g class="st3">
			<g id="XMLID_7_">
				<g>
					<path class="st0" d="M1298.74,595.78c1.79,21.28,1.8,42.71-5.47,62.58c-11.2,30.67-37.86,52.71-64.16,72.06
						c-11.5,8.47-23.47,16.88-37.22,20.73c-18.41,5.15-37.97,1.63-57.08,1.84c-50.23,0.54-96.23,26.67-145,38.69
						c-44.46,10.95-91.81,9.96-135.77-2.84c-18.55-5.4-36.66-12.89-55.84-15.17c-23.57-2.8-47.28,2.44-70.99,3.43
						c-23.72,0.98-49.71-3.39-65.61-21.01c-6.05-6.7-10.19-14.85-14.96-22.51c-14.52-23.32-35.31-42.83-46.13-68.08
						c-9.73-22.7-7.7-53.47,10.79-68.13c29.82,3.58,64.65,9.64,85.37,11.37c0.78,0.06,1.54,0.1,2.31,0.14
						c19.17,31.07,53.83,52.63,90.44,54.49c30.65,1.55,65.04-8.55,89.78,9.62c8.46,6.22,14.59,15.12,22.75,21.72
						c22.11,17.88,54.35,15.55,81.56,7.29c27.21-8.26,53.46-21.57,81.86-22.89c31.49-1.46,64.08,11.92,93.83,1.48
						c31.06-10.9,47.22-43.14,58.84-74.8c27.06-3.54,53.81-8.47,74.81-9.79C1294.77,595.87,1296.74,595.81,1298.74,595.78z"/>
					<path class="st0" d="M1218.04,605.79c-11.62,31.66-27.78,63.9-58.84,74.8c-29.75,10.44-62.34-2.94-93.83-1.48
						c-28.4,1.32-54.65,14.63-81.86,22.89c-27.21,8.26-59.45,10.59-81.56-7.29c-8.16-6.6-14.29-15.5-22.75-21.72
						c-24.74-18.17-59.13-8.07-89.78-9.62c-36.61-1.86-71.27-23.42-90.44-54.49c27.7,1.47,50.1-12.3,90.84-19.42
						c1.79-0.31,3.63-0.61,5.51-0.89c4.4-0.68,9-1.27,13.85-1.76c10.65-1.06,20.48-0.66,29.91,0.64c4.77,0.67,9.44,1.56,14.07,2.63
						c31.28,7.23,60.37,22.23,104.21,24.14c62.31,2.7,119.7-15.5,149.76-21.68c0.39-0.08,0.8-0.17,1.18-0.25
						c6.51-1.3,12.56-0.89,18.48,0.44c19.01,4.26,36.64,18.1,63.85,16.01C1199.67,608.04,1208.87,607,1218.04,605.79z"/>
				</g>
			</g>
		</g>
		<g class="st3">
			<g id="XMLID_8_">
				<g>
					<path class="st0" d="M1218.04,605.79c-11.62,31.66-27.78,63.9-58.84,74.8c-29.75,10.44-62.34-2.94-93.83-1.48
						c-28.4,1.32-54.65,14.63-81.86,22.89c-27.21,8.26-59.45,10.59-81.56-7.29c-8.16-6.6-14.29-15.5-22.75-21.72
						c-24.74-18.17-59.13-8.07-89.78-9.62c-36.61-1.86-71.27-23.42-90.44-54.49c27.7,1.47,50.1-12.3,90.84-19.42
						c1.79-0.31,3.63-0.61,5.51-0.89c4.4-0.68,9-1.27,13.85-1.76c10.65-1.06,20.48-0.66,29.91,0.64c4.77,0.67,9.44,1.56,14.07,2.63
						c31.28,7.23,60.37,22.23,104.21,24.14c62.31,2.7,119.7-15.5,149.76-21.68c0.39-0.08,0.8-0.17,1.18-0.25
						c6.51-1.3,12.56-0.89,18.48,0.44c19.01,4.26,36.64,18.1,63.85,16.01C1199.67,608.04,1208.87,607,1218.04,605.79z"/>
				</g>
			</g>
		</g>
	</g>
	<g id="XMLID_2_">
		<g>
			<path class="st4" d="M761.481,942.967c37.2,18.586,110.138,59.716,118.104,59.716s92.932-7.966,100.898-5.31
				s119.484,18.586,124.795,23.897s50.449,26.552,50.449,26.552l124.795,2.655v7.966h-116.829
				c7.966,7.966,77.001,55.759,100.898,58.415c23.897,2.655,223.038,2.655,223.038,2.655s5.31,10.621,0,10.621
				s-254.9,5.31-276.142,7.966c-21.242,2.655-159.313,23.897-172.589,23.897c-13.276,0-233.659-10.621-233.659-10.621
				l-29.207,29.207l18.586,21.242l-330.521,28.597l-464.556-38.713h-4.036V983.513h0.982l178.138,70.947l53.104-39.828h108.864
				c0,0-111.519-71.691-116.829-79.656c-3.85-5.788-14.71-22.755-33.562-48.909c0,0,214.116,32.978,222.082,32.978
				s31.863,29.207,31.863,29.207l148.692-13.276l-31.863-34.518c0,0,238.969,21.242,244.279,21.242s134.088-73.018,134.088-78.329
				l18.586,29.207c0,0-122.14,79.656-146.037,77.001C784.741,947.003,762.835,943.18,761.481,942.967z M1169.003,1119.512
				c0,0-63.725-26.552-66.38-31.863c-2.655-5.31-13.276-18.586-13.276-18.586H980.483c0,0,13.276,15.931,21.242,15.931
				c0,0-26.552,0-45.139-10.621l-124.795,2.655c13.276,10.621,71.691,63.725,77.001,63.725s127.45,5.31,135.416,2.655
				C1052.173,1140.754,1169.003,1119.512,1169.003,1119.512z M680.444,1124.823h95.588l-42.483-34.518l-13.276-37.173
				l-58.415-37.173l-87.622-2.655c0,7.966,7.966,45.139,7.966,45.139L680.444,1124.823z M534.407,1031.891l34.518,29.207
				c-2.655-2.655-13.276-31.863-13.276-39.828L534.407,1031.891z M187.902,1059.77l257.556,18.587l-92.932-47.794l-122.14-5.31
				L187.902,1059.77z"/>
			<path class="st5" d="M1479.663,1111.547l7.966,7.966c0,0-199.141,0-223.038-2.655c-23.897-2.655-92.932-50.449-100.898-58.415
				h116.829h10.621c0,0,18.586,23.897,26.552,26.552C1325.66,1087.65,1479.663,1111.547,1479.663,1111.547z"/>
			<path class="st6" d="M1280.522,1050.477l-124.795-2.655c0,0-45.139-21.242-50.449-26.552s-116.829-21.242-124.795-23.897
				s-92.932,5.31-100.898,5.31s-80.904-41.129-118.104-59.716c1.354,0.212,23.26,4.036,46.413,6.612
				c23.897,2.655,146.037-77.001,146.037-77.001s35.049,51.511,47.794,61.07c21.242,15.931,132.761,42.483,161.968,55.759
				s63.725,23.897,79.656,29.207S1280.522,1050.477,1280.522,1050.477z"/>
			<path class="st5" d="M1102.623,1087.65c2.655,5.31,66.38,31.863,66.38,31.863s-116.829,21.242-124.795,23.897
				c-7.966,2.655-130.105-2.655-135.416-2.655s-63.725-53.104-77.001-63.725l124.795-2.655
				c18.586,10.621,45.139,10.621,45.139,10.621c-7.966,0-21.242-15.931-21.242-15.931h108.864
				C1089.346,1069.063,1099.967,1082.339,1102.623,1087.65z"/>
			<path class="st7" d="M935.344,843.37c0,5.31-128.778,78.329-134.088,78.329s-244.279-21.242-244.279-21.242l31.863,34.518
				l-148.692,13.276c0,0-23.897-29.207-31.863-29.207s-222.082-32.978-222.082-32.978l-0.053-0.053
				c-7.116-9.851-15.347-21.003-24.8-33.349C137.984,822.102,95.023,796.4,53.23,772.29c55.892-3.903,370.641-61.999,393.555-69.646
				c23.897-7.966,331.901-7.966,345.178-7.966S935.344,838.06,935.344,843.37z"/>
			<path class="st5" d="M776.031,1124.823h-95.588l-98.243-66.38c0,0-7.966-37.173-7.966-45.139l87.622,2.655l58.415,37.173
				l13.276,37.173L776.031,1124.823z"/>
			<path class="st5" d="M568.925,1061.098l-34.518-29.207l21.242-10.621C555.649,1029.235,566.27,1058.443,568.925,1061.098z"/>
			<polygon class="st5" points="445.458,1078.357 187.902,1059.77 230.385,1025.252 352.525,1030.563 			"/>
			<path class="st6" d="M336.594,1014.632H227.73l-53.104,39.828L-3.512,983.513V738.49c17.153,11.152,36.828,22.304,56.742,33.801
				c-2.416,0.186-4.328,0.239-5.735,0.212l138.655,113.51l0.053,0.053c18.852,26.154,29.712,43.121,33.562,48.909
				C225.075,942.941,336.594,1014.632,336.594,1014.632z"/>
			<path class="st6" d="M186.15,886.013L47.494,772.503c1.407,0.027,3.319-0.027,5.735-0.212
				c41.793,24.109,84.754,49.812,108.12,80.373C170.803,865.01,179.034,876.162,186.15,886.013z"/>
		</g>
	</g>
	<g id="XMLID_4_">
		<g>
			<path class="st2" d="M1720.972,1163.157l5.449,17.539l-91.137-1.787l-11.107-9.693c5.837,0.402,11.39,0.476,15.902-0.104
				C1666.061,1165.763,1693.799,1165.911,1720.972,1163.157z"/>
			<path class="st5" d="M1719.99,1160l0.983,3.156c-27.173,2.754-54.911,2.606-80.893,5.956c-4.511,0.581-10.065,0.506-15.902,0.104
				l-14.472-12.626l-43.268-3.484l-11.718-36.27c8.263-4.854,16.244-10.705,22.393-17.584l59.81,10.542L1719.99,1160z"/>
			<path class="st2" d="M1635.285,1178.91l-153.209-3.008l6.953-9.857c26.22-0.521,52.454-1.072,78.674-1.608
				c11.762-0.238,15.768,1.057,27.5,1.965c7.876,0.61,18.85,2.174,28.974,2.814L1635.285,1178.91z"/>
			<path class="st4" d="M1609.705,1156.591l14.472,12.626c-10.125-0.64-21.098-2.204-28.974-2.814
				c-11.733-0.908-15.738-2.204-27.5-1.965c-26.22,0.536-52.455,1.087-78.674,1.608l21.887-31.014c0,0,22.84-5.896,43.804-18.195
				l11.718,36.27L1609.705,1156.591z"/>
			<path class="st2" d="M1310.702,1263.808l13.758,20.681l-81.861,1.578l-0.045-2.084l-38.012-20.636
				C1239.799,1262.557,1277.335,1262.78,1310.702,1263.808z"/>
			<path class="st5" d="M1287.638,1229.131l23.063,34.677c-33.367-1.027-70.902-1.251-106.16-0.462l-1.668-0.908l-8.933-29.778
				l-64.023-20.845l-18.909-43.64l31.386-33.888L1287.638,1229.131z"/>
			<path class="st2" d="M1242.554,1283.982l0.045,2.084l-254.694,4.928l5.658-27.322c49.402,12.105,71.944,9.648,129.655,3.975
				c22.795-2.233,51.234-3.633,81.325-4.303L1242.554,1283.982z"/>
			<path class="st4" d="M1202.874,1262.438l1.668,0.908c-30.091,0.67-58.529,2.07-81.325,4.303
				c-57.71,5.673-80.253,8.129-129.655-3.975l0.506-2.412l63.16-85.896l53.661-7.057l0.119-0.134l18.909,43.64l64.023,20.845
				L1202.874,1262.438z"/>
		</g>
	</g>
	<g>
		<path class="st8" d="M561.431,767.415c16.27,10.145,64.102,39.95,49.591,73.679c-14.511,33.728-65.3,12.046-91.904,12.046
			s-82.23,7.227-128.182,4.818c-45.952-2.409-169.297-16.864-181.39-14.455c-12.093,2.409-41.115-19.273-62.882-14.455
			c-21.767,4.818-41.115,24.092-62.882,14.455s-14.549-35.933-4.837-43.365s77.393-31.319,91.904-33.728
			C185.36,764,516.677,739.51,561.431,767.415z"/>
		<g id="XMLID_3_">
			<g>
				<path class="st9" d="M123.467,787.28c-0.242-2.819-0.363-8.408,1.113-15.66c-1.016-0.265-2.152-0.145-3.531,0.361
					c-6.772,2.481-15.89,5.902-26.386,10.094c-24.185,9.637-29.022,14.455-21.767,31.319c7.256,16.864,14.511,24.092,29.022,21.682
					c14.511-2.409,26.604-9.637,33.859-36.137c0,0,0.121-0.337,0.314-0.891c-9.166-4.794-12.407-8.745-12.407-8.745
					S123.564,788.581,123.467,787.28z"/>
				<path class="st9" d="M124.58,771.621c-1.475,7.252-1.354,12.841-1.113,15.66c3.725-0.819,7.497-1.494,11.319-2.048
					C129.9,776.969,127.845,772.392,124.58,771.621z"/>
				<path class="st9" d="M123.467,787.28c0.097,1.301,0.218,2.024,0.218,2.024s3.241,3.951,12.407,8.745
					c0.653-2.096,1.959-7.372-0.314-11.154c-0.339-0.578-0.677-1.132-0.992-1.662C130.965,785.787,127.192,786.461,123.467,787.28z"
					/>
				<path class="st10" d="M124.58,771.621c3.265,0.771,5.321,5.348,10.206,13.612c23.968-3.517,49.169-2.096,73.378,0.723
					c40.462,4.698,81.432,12.769,121.604,5.951c8.634-1.445,17.413-3.734,24.427-8.914c-3.555-2.795-7.086-5.589-10.521-8.528
					c-13.302-11.347-25.612-25.513-28.297-42.763c-2.322-14.816,2.999-30.187,12.189-42.064
					c7.788-10.07,18.163-17.876,29.361-24.068c-10.472,3.71-23.944,5.999-42.179,4.481c-29.022-2.409-41.115-2.409-120.927,31.319
					C142.815,722.932,128.377,752.829,124.58,771.621z"/>
				<path class="st11" d="M134.786,785.233c0.314,0.53,0.653,1.084,0.992,1.662c2.273,3.782,0.967,9.058,0.314,11.154
					c14.535,7.613,43.945,17.298,98.846,16.551c40.535-0.554,67.719,0,99.16,7.227c5.466,1.253,12.504,1.903,20.533,2.072
					c8.562-6.962,13.326-11.709,13.326-11.709c3.168-3.156,6.578-6.312,9.166-9.709c-7.014-7.107-15.019-13.25-22.928-19.49
					c-7.014,5.18-15.793,7.468-24.427,8.914c-40.172,6.818-81.142-1.253-121.604-5.951
					C183.955,783.137,158.754,781.715,134.786,785.233z"/>
				<path class="st12" d="M327.567,689.637c-9.19,11.877-14.511,27.248-12.189,42.064c2.685,17.25,14.995,31.415,28.297,42.763
					c3.434,2.939,6.965,5.734,10.521,8.528c0.073-0.048,0.169-0.12,0.242-0.169c5.176-3.855,9.19-9.637,10.351-15.804
					c-9.408-12.504-9.529-23.032-1.669-36.74c2.152-3.734,4.644-6.89,7.449-9.348c-0.073-0.12-0.145-0.193-0.193-0.289
					c-4.232-6.336-7.256-16.864-7.256-24.092c0-5.951,1.645-23.321,7.594-37.342c-3.991,2.289-8.513,4.505-13.786,6.36
					C345.731,671.761,335.355,679.567,327.567,689.637z"/>
				<path class="st9" d="M354.413,824.068c-10.255,8.312-8.223,12.214-3.386,14.624c0.097,0.048,0.193,0.096,0.314,0.145
					c13.036-3.445,25.395-9.058,36.979-16.19c-11.948,0.94-23.605,1.47-33.69,1.253
					C354.558,823.948,354.486,823.996,354.413,824.068z"/>
				<path class="st13" d="M354.437,782.823c-0.073,0.048-0.169,0.12-0.242,0.169c7.909,6.24,15.914,12.383,22.928,19.49
					c5.321-7.011,7.062-15.081-4.329-26.429c-3.168-3.156-5.829-6.143-8.005-9.034C363.628,773.187,359.613,778.969,354.437,782.823
					z"/>
				<path class="st9" d="M377.123,802.482c-2.588,3.397-5.998,6.553-9.166,9.709c0,0-4.764,4.746-13.326,11.709
					c10.085,0.217,21.743-0.313,33.69-1.253c15.188-9.323,29.095-21.249,41.478-34.355c-25.951-25.055-55.191-61.602-59.23-67.36
					c-2.806,2.457-5.297,5.613-7.449,9.348c-7.86,13.708-7.739,24.236,1.669,36.74c2.177,2.891,4.837,5.878,8.005,9.034
					C384.185,787.401,382.444,795.471,377.123,802.482z"/>
				<path class="st14" d="M351.342,838.836c5.2,2.361,21.646,4.674,31.127,4.674c9.674,0,43.534-2.409,58.045-14.455
					c6.53-5.445,10.134-9.396,11.44-14.551c-16.688,2.915-40.752,6.312-63.632,8.143
					C376.736,829.778,364.377,835.391,351.342,838.836z"/>
				<path class="st15" d="M363.12,696.551c0,7.228,3.023,17.756,7.256,24.092c0.048,0.096,0.121,0.169,0.193,0.289
					c9.843-8.697,23.436-9.131,38.503,2.12c16.035,11.974,27.088,28.934,34.513,49.484c2.999-3.638,5.877-7.348,8.683-11.13
					c-26.652-46.449-71.758-108.003-79.473-103.401c-0.677,0.41-1.379,0.819-2.08,1.205
					C364.764,673.231,363.12,690.601,363.12,696.551z"/>
				<path class="st15" d="M370.714,659.209c0.701-0.385,1.403-0.795,2.08-1.205c7.715-4.602,52.821,56.953,79.473,103.401
					c40.728-54.64,64.551-121.639,67.356-189.649c0,0,0,0,0-0.024c-4.74-11.275-9.408-22.068-13.229-31.199
					c0.967,8.721,0.774,23.706-10.255,31.945c-19.348,14.455-56.183,11.684-70.138,9.637c-15.551-2.313-25.612-13.058-34.875-25.272
					c0.121,4.12,0.435,8.528,1.016,13.226c2.419,19.273-7.256,66.252-16.93,80.707C373.495,653.331,372.02,656.198,370.714,659.209z
					"/>
				<path class="st9" d="M409.072,723.052c-15.067-11.251-28.66-10.817-38.503-2.12c4.039,5.758,33.279,42.305,59.23,67.36
					c4.232-4.433,8.271-9.034,12.117-13.684c0.58-0.699,1.137-1.373,1.669-2.072C436.16,751.986,425.107,735.026,409.072,723.052z"
					/>
				<path class="st14" d="M429.799,788.292c-12.383,13.106-26.289,25.031-41.478,34.355c22.879-1.831,46.944-5.228,63.632-8.143
					c0.556-2.144,0.701-4.529,0.484-7.276C445.809,802.94,437.973,796.194,429.799,788.292z"/>
				<path class="st16" d="M391.779,535.86c-0.387,5.662-0.895,12.72-0.653,20.984c9.263,12.214,19.324,22.959,34.875,25.272
					c13.955,2.048,50.789,4.818,70.138-9.637c11.029-8.239,11.222-23.224,10.255-31.945c-1.209-2.915-2.346-5.637-3.386-8.167
					c0.266,3.566,0.387,6.962,0.387,9.998c0,19.273-12.093,26.501-24.185,31.319c-12.093,4.818-21.767,2.409-38.697,2.409
					c0,0-45.952-2.409-48.371-33.728C391.973,540.1,391.852,537.932,391.779,535.86z"/>
				<path class="st17" d="M397.536,502.782c-4.426,8.625-6.264,19.008-5.756,33.078c0.193-3.06,0.363-5.71,0.363-7.95
					c0-2.096,14.874-6.914,33.545-10.769c-1.427-2.096-2.588-4.602-3.41-7.42h-0.024C413.909,509.841,400.51,505.36,397.536,502.782
					z"/>
				<path class="st17" d="M391.779,535.86c0.073,2.072,0.193,4.24,0.363,6.505c2.419,31.319,48.371,33.728,48.371,33.728
					c16.93,0,26.604,2.409,38.697-2.409c12.093-4.818,24.185-12.046,24.185-31.319c0-3.036-0.121-6.432-0.387-9.998
					c-1.379-3.421-2.588-6.457-3.531-9.034c-0.605,0.193-1.258,0.313-1.959,0.385c-1.669,0.193-3.338,0.169-4.934,0
					c2.128,3.614,3.628,8.095,3.604,13.636c-0.048,13.443-0.048,18.261-11.343,27.127c-15.358,12.022-28.539,6.312-38.576-2.265
					c-14.511-12.383-11.972-22.887-4.523-36.667l-4.958-1.662c-4.692-0.289-8.417-2.795-11.101-6.746
					c-18.671,3.855-33.545,8.673-33.545,10.769C392.142,530.15,391.973,532.8,391.779,535.86z"/>
				<path class="st18" d="M397.536,502.782l24.717,6.938h0.024c-0.822-2.65-1.379-5.589-1.645-8.721l-0.218,0.024
					c-13.761-0.819-15.333-3.108-18.187-5.565C400.414,497.771,398.866,500.204,397.536,502.782z"/>
				<path class="st18" d="M422.253,509.721l-24.717-6.938C400.51,505.36,413.909,509.841,422.253,509.721z"/>
				<path class="st17" d="M402.227,495.458l18.187,5.565l0.218-0.024c-0.145-1.686-0.218-3.421-0.218-5.204
					c0.024-3.927,2.999-7.252,6.941-7.709l53.571-6.24c-17.026-7.131-45.517-13.973-64.599,0.289
					C410.571,486.424,405.904,490.712,402.227,495.458z"/>
				<path class="st18" d="M420.415,501.024l-18.187-5.565C405.081,497.916,406.653,500.204,420.415,501.024z"/>
				<path class="st19" d="M420.415,495.796c0,1.783,0.073,3.517,0.218,5.204c0.266,3.132,0.822,6.071,1.645,8.721
					c0.822,2.819,1.983,5.324,3.41,7.42c3.628-0.747,7.401-1.445,11.222-2.096c-1.379-4.385-2.056-9.54-1.959-15.033
					c0.048-3.59,2.709-6.625,6.288-7.035l47.573-5.541c-2.104-2.337-4.498-4.144-7.183-5.3c-0.242-0.096-0.46-0.193-0.701-0.289
					l-53.571,6.24C423.414,488.544,420.439,491.869,420.415,495.796z"/>
				<path class="st19" d="M436.788,523.887c0.919,0.072,1.886,0.048,2.878-0.072c0.58-0.072,1.161-0.169,1.693-0.289
					c-1.886-2.265-3.386-5.156-4.45-8.48c-3.821,0.651-7.594,1.349-11.222,2.096C428.372,521.092,432.096,523.597,436.788,523.887z"
					/>
				<path d="M434.95,500.012c-0.097,5.493,0.58,10.648,1.959,15.033c5.248-0.891,10.593-1.662,15.841-2.24
					c10.327-5.975,23.557-4.288,25.274-2.578c0.435,0.434,1.354,1.012,2.564,1.807c3.991,0.385,7.546,1.084,10.4,2.144
					c3.265-5.252,2.491-14.142,0.411-23.441c-0.798-1.18-1.669-2.289-2.588-3.301l-47.573,5.541
					C437.659,493.387,434.999,496.422,434.95,500.012z"/>
				<path class="st19" d="M436.788,523.887l4.958,1.662c0.169-0.337,0.363-0.675,0.532-1.012c-0.314-0.313-0.629-0.65-0.919-1.012
					c-0.532,0.12-1.113,0.217-1.693,0.289C438.675,523.935,437.707,523.959,436.788,523.887z"/>
				<path class="st14" d="M441.916,774.608c-3.845,4.65-7.884,9.251-12.117,13.684c8.175,7.902,16.011,14.648,22.638,18.936
					c-0.387-5.276-2.056-11.998-4.668-21.538c-1.233-4.529-2.612-8.938-4.184-13.154
					C443.052,773.235,442.496,773.909,441.916,774.608z"/>
				<path d="M436.909,515.045c1.064,3.325,2.564,6.216,4.45,8.48c0.629-0.12,1.233-0.289,1.79-0.482
					c0.266-0.506,0.556-1.012,0.846-1.518c2.249-3.927,5.345-6.746,8.755-8.721C447.502,513.383,442.158,514.154,436.909,515.045z"
					/>
				<path class="st20" d="M441.746,525.549c-7.449,13.78-9.989,24.284,4.523,36.667c10.037,8.577,23.218,14.286,38.576,2.265
					c11.295-8.866,11.295-13.684,11.343-27.127c0.024-5.541-1.475-10.022-3.604-13.636c-6.046-0.578-11.512-3.252-15.285-4.891
					c-1.741-0.217-3.434-0.602-5.031-1.084c-5.853,2.698-9.287,9.902-18.091,10.889c-3.652,0.41-6.82-0.361-9.456-2.072
					L441.746,525.549z M467.286,530.15c-3.168-3.156-0.75-9.468,6.337-9.468c9.529,0,9.529,6.312,6.337,9.468
					C473.623,536.486,473.623,536.486,467.286,530.15z"/>
				<path class="st19" d="M441.746,525.549l2.975,1.012c-0.871-0.578-1.693-1.253-2.443-2.024
					C442.109,524.874,441.916,525.212,441.746,525.549z"/>
				<path d="M441.359,523.525c0.29,0.361,0.605,0.699,0.919,1.012c0.29-0.482,0.58-0.988,0.871-1.494
					C442.593,523.236,441.988,523.405,441.359,523.525z"/>
				<path d="M444.721,526.561c2.636,1.711,5.805,2.481,9.456,2.072c8.803-0.988,12.238-8.191,18.091-10.889
					c-6.312-1.855-11.367-5.059-13.616-5.059c-0.242,0-0.435,0.024-0.605,0.096c-5.176,2.241-8.417,8.023-14.898,10.263
					c-0.29,0.506-0.58,1.012-0.871,1.494C443.028,525.308,443.85,525.982,444.721,526.561z"/>
				<path d="M443.996,521.526c-0.29,0.506-0.58,1.012-0.846,1.518c6.482-2.241,9.723-8.023,14.898-10.263
					c0.169-0.072,0.363-0.096,0.605-0.096l-0.024-0.434c-1.935,0.145-3.894,0.337-5.877,0.554
					C449.341,514.78,446.245,517.599,443.996,521.526z"/>
				<path class="st21" d="M443.584,772.536c1.572,4.216,2.951,8.625,4.184,13.154c2.612,9.54,4.281,16.262,4.668,21.538
					c4.668,3.011,8.731,4.818,11.875,4.939c2.056-0.434,3.821-0.819,5.224-1.181c7.014-1.735-2.152-23.224-17.268-49.581
					C449.461,765.188,446.583,768.898,443.584,772.536z"/>
				<path class="st21" d="M452.436,807.228c0.218,2.746,0.073,5.132-0.484,7.276c4.789-0.843,8.973-1.638,12.359-2.337
					C461.167,812.047,457.104,810.24,452.436,807.228z"/>
				<path d="M452.751,512.804c1.983-0.217,3.942-0.41,5.877-0.554c8.005-0.675,15.575-0.819,21.96-0.217
					c-1.209-0.795-2.128-1.373-2.564-1.807C476.307,508.516,463.078,506.83,452.751,512.804z"/>
				<path d="M458.628,512.25l0.024,0.434c2.249,0,7.304,3.204,13.616,5.059c0.097-0.048,0.193-0.096,0.29-0.145
					c0.846-0.361,2.515,0.241,4.74,1.229c1.838,0.241,3.773,0.289,5.708,0.072c1.814-0.217,3.338-0.699,4.595-1.421
					c-2.539-2.433-5.127-4.192-7.014-5.445C474.203,511.431,466.633,511.576,458.628,512.25z"/>
				<path class="st21" d="M464.311,812.167c0.145,0.024,0.266,0.024,0.387,0.024c15.406,0,31.997-18.093,48.105-39.751
					c0.242-44.786,32.578-75.142,35.625-77.888c0.967-17.611-1.475-35.222-3.918-51.002c-2.636-17.129-13.979-45.774-24.887-71.793
					c-2.806,68.011-26.628,135.009-67.356,189.649c15.116,26.356,24.282,47.846,17.268,49.581
					C468.133,811.348,466.367,811.733,464.311,812.167z"/>
				<path class="st22" d="M473.623,520.682c-7.086,0-9.505,6.312-6.337,9.468c6.337,6.336,6.337,6.336,12.673,0
					C483.152,526.994,483.152,520.682,473.623,520.682z"/>
				<path class="st20" d="M472.558,517.599c-0.097,0.048-0.193,0.096-0.29,0.145c1.596,0.482,3.289,0.867,5.031,1.084
					C475.074,517.84,473.405,517.237,472.558,517.599z"/>
				<path d="M483.007,518.9c-1.935,0.217-3.87,0.169-5.708-0.072c3.773,1.638,9.239,4.312,15.285,4.891
					c-1.451-2.457-3.217-4.529-4.982-6.24C486.344,518.201,484.82,518.683,483.007,518.9z"/>
				<path class="st19" d="M480.927,481.847c0.242,0.096,0.46,0.193,0.701,0.289c2.685,1.156,5.079,2.963,7.183,5.3l1.766-0.193
					c-0.605-2.409-2.37-4.288-4.595-5.107l-0.266-0.096c-1.016-0.361-2.152-0.482-3.289-0.361L480.927,481.847z"/>
				<path class="st19" d="M485.715,482.039l0.266,0.096C485.909,482.088,485.812,482.063,485.715,482.039z"/>
				<path class="st19" d="M498.8,486.52l-12.818-4.385c2.225,0.819,3.991,2.698,4.595,5.107l6.361-0.747
					C497.566,486.424,498.195,486.424,498.8,486.52z"/>
				<path d="M480.588,512.033c1.886,1.253,4.474,3.011,7.014,5.445c1.451-0.819,2.564-1.927,3.386-3.301
					C488.134,513.118,484.579,512.419,480.588,512.033z"/>
				<path class="st18" d="M490.577,487.243l-1.766,0.193c0.919,1.012,1.79,2.12,2.588,3.301c-0.242-1.132-0.508-2.265-0.798-3.421
					C490.601,487.291,490.601,487.267,490.577,487.243z"/>
				<path d="M498.8,486.52c-0.605-0.096-1.233-0.096-1.862-0.024l-6.361,0.747c0.024,0.024,0.024,0.048,0.024,0.072
					c0.29,1.156,0.556,2.289,0.798,3.421c5.611,8.143,8.852,20.165,10.521,31.656c7.86-4.192,6.457-17.25,3.192-30.259
					C504.362,489.098,501.799,486.906,498.8,486.52z"/>
				<path d="M490.988,514.178c-0.822,1.373-1.935,2.481-3.386,3.301c1.766,1.711,3.531,3.782,4.982,6.24
					c1.596,0.169,3.265,0.193,4.934,0c0.701-0.072,1.354-0.193,1.959-0.385c-0.339-0.94-0.653-1.831-0.919-2.65
					C497.566,517.743,494.882,515.623,490.988,514.178z"/>
				<path d="M491.399,490.736c2.08,9.299,2.854,18.189-0.411,23.441c3.894,1.445,6.578,3.566,7.57,6.505
					c0.266,0.819,0.58,1.711,0.919,2.65c0.895-0.217,1.717-0.53,2.443-0.94C500.251,510.901,497.01,498.879,491.399,490.736z"/>
				<path class="st15" d="M501.919,522.393c-0.726,0.41-1.548,0.723-2.443,0.94c0.943,2.578,2.152,5.613,3.531,9.034
					C502.766,529.163,502.403,525.79,501.919,522.393z"/>
				<path class="st14" d="M512.803,772.44c-0.266,46.979,22.033,42.16,38.963,42.16c15.358,0,38.672-21.803,28.442-27.657
					c-1.064-0.602-2.467-1.036-4.257-1.253c-11.464-1.421-20.364-7.902-24.717-17.466c-3.023-6.601-3.87-14.648-1.886-23.489
					c4.837-21.682,2.419-40.956-0.701-50.376c0,0-0.073,0.072-0.218,0.193c-0.943,17.322-5.224,34.644-16.011,50.183
					C526.056,753.889,519.478,763.478,512.803,772.44z"/>
				<path class="st21" d="M548.428,694.552c-3.047,2.746-35.383,33.102-35.625,77.888c6.675-8.962,13.254-18.551,19.614-27.705
					C543.204,729.195,547.485,711.874,548.428,694.552z"/>
				<path class="st9" d="M551.233,768.224l29.168,18.43l0.387,0.241C575.951,777.258,555.538,764.008,551.233,768.224z"/>
				<path class="st9" d="M580.401,786.654l-29.168-18.43c4.353,9.564,13.254,16.045,24.717,17.466
					c1.79,0.217,3.193,0.651,4.257,1.253L580.401,786.654z"/>
			</g>
		</g>
	</g>
	<g>
		<path class="st23" d="M700.26,733.104c-13.145,7.772,11.477,37.068,21.255,55.786c9.778,18.718,45.558,51.331,57.781,68.418
			c7.435,10.394,40.693,17.934,71.786,8.018c38.565-12.299,50.834-32.092,37.738-54.006
			C861.055,773.95,720.936,720.88,700.26,733.104z"/>
		<path class="st24" d="M791.046,707.7l96.219,104.129c3.354,3.629,1.846,10.046-2.727,11.609l-78.818,26.946
			c-2.161,0.739-4.478,0.135-6.063-1.58l-96.219-104.129c-3.354-3.629-1.846-10.046,2.727-11.609l78.818-26.946
			C787.144,705.382,789.462,705.986,791.046,707.7z"/>
		<path class="st25" d="M791.647,705.236l96.219,104.129c3.354,3.629,1.846,10.046-2.727,11.609l-78.818,26.946
			c-2.161,0.739-4.478,0.135-6.063-1.58l-96.219-104.129c-3.354-3.63-1.846-10.046,2.727-11.609l78.818-26.946
			C787.745,702.918,790.062,703.522,791.647,705.236z"/>
		<path class="st19" d="M836.964,619.8l95.504,99.095c2.567,2.664,3.24,6.92,1.663,10.521l-33.626,76.785
			c-2.482,5.667-9.17,7.098-13.126,2.809l-94.427-102.393c-2.478-2.687-3.09-6.884-1.521-10.426l32.549-73.487
			C826.444,617.139,832.988,615.675,836.964,619.8z"/>
		<path class="st24" d="M792.198,722.136l73.385,79.91c1.785,1.944,0.981,5.365-1.458,6.209l-38.144,13.186
			c-1.164,0.402-2.414,0.077-3.265-0.851l-73.385-79.91c-1.785-1.944-0.981-5.365,1.458-6.209l38.144-13.186
			C790.097,720.883,791.347,721.209,792.198,722.136z"/>
		<path class="st24" d="M770.434,771.927l22.601,24.459c1.145,1.239,0.63,3.43-0.931,3.964l-17.985,6.148
			c-0.738,0.252-1.529,0.046-2.07-0.539L749.448,781.5c-1.145-1.239-0.63-3.43,0.931-3.964l17.985-6.148
			C769.101,771.135,769.893,771.342,770.434,771.927z"/>
		<path class="st26" d="M868.616,676.978l51.831,53.615c0.591,0.611,1.561,0.391,1.924-0.436l0.64-1.458
			c0.234-0.534,0.134-1.166-0.247-1.561l-51.831-53.615c-0.59-0.611-1.561-0.391-1.924,0.436l-0.64,1.458
			C868.135,675.952,868.235,676.584,868.616,676.978z"/>
		<path class="st26" d="M840.339,662.498l75.553,78.32c0.596,0.618,1.577,0.396,1.944-0.439l0.629-1.432
			c0.237-0.539,0.136-1.176-0.249-1.575l-75.553-78.32c-0.596-0.618-1.577-0.396-1.944,0.439l-0.629,1.432
			C839.854,661.462,839.954,662.099,840.339,662.498z"/>
		<path class="st26" d="M888.662,727.527l22.768,23.615c0.556,0.576,1.471,0.37,1.813-0.409l0.706-1.607
			c0.221-0.503,0.127-1.097-0.232-1.468l-22.768-23.615c-0.556-0.576-1.471-0.37-1.813,0.409l-0.706,1.608
			C888.21,726.561,888.303,727.155,888.662,727.527z"/>
		<path class="st26" d="M871.258,708.975l11.755,12.1c0.58,0.597,1.53,0.38,1.886-0.43l0.662-1.509
			c0.231-0.525,0.131-1.146-0.245-1.533l-11.755-12.1c-0.58-0.597-1.53-0.38-1.886,0.43l-0.662,1.509
			C870.782,707.966,870.882,708.588,871.258,708.975z"/>
		<path class="st26" d="M881.937,749.731l12.235,12.682c0.625,0.648,1.653,0.415,2.037-0.46l0.574-1.308
			c0.248-0.565,0.142-1.233-0.261-1.651l-12.235-12.682c-0.625-0.648-1.653-0.415-2.037,0.46l-0.574,1.308
			C881.428,748.646,881.534,749.314,881.937,749.731z"/>
		<path class="st26" d="M875.735,728.389l23.001,23.809c0.614,0.636,1.624,0.407,2.001-0.453l0.595-1.356
			c0.244-0.555,0.14-1.212-0.257-1.623l-23.001-23.809c-0.614-0.636-1.624-0.407-2.001,0.453l-0.595,1.356
			C875.235,727.322,875.339,727.979,875.735,728.389z"/>
		<path class="st26" d="M835.311,685.952l34.549,35.727c0.55,0.569,1.455,0.364,1.793-0.406l0.717-1.633
			c0.219-0.498,0.125-1.087-0.23-1.455l-34.549-35.727c-0.55-0.569-1.455-0.364-1.793,0.406l-0.717,1.633
			C834.862,684.995,834.955,685.584,835.311,685.952z"/>
		<path class="st26" d="M849.341,716.02l26.893,27.797c0.6,0.62,1.586,0.397,1.955-0.443l0.622-1.417
			c0.238-0.543,0.137-1.185-0.251-1.586l-26.893-27.797c-0.6-0.62-1.586-0.397-1.955,0.443l-0.622,1.417
			C848.852,714.977,848.953,715.619,849.341,716.02z"/>
		<path class="st26" d="M837.969,719.219l51.54,53.315c0.684,0.708,1.808,0.453,2.229-0.505l0.462-1.052
			c0.272-0.619,0.156-1.351-0.286-1.808l-51.541-53.315c-0.684-0.708-1.808-0.453-2.229,0.505l-0.462,1.052
			C837.411,718.03,837.526,718.761,837.969,719.219z"/>
		<path class="st26" d="M809.302,702.378l84.277,87.363c0.656,0.68,1.736,0.436,2.139-0.483l0.514-1.172
			c0.26-0.593,0.15-1.295-0.274-1.733l-84.277-87.363c-0.656-0.68-1.736-0.436-2.139,0.483l-0.514,1.172
			C808.768,701.238,808.878,701.94,809.302,702.378z"/>
		<path class="st26" d="M877.112,784.829l12.57,13.118c0.595,0.621,1.578,0.401,1.945-0.436l0.628-1.432
			c0.236-0.537,0.136-1.172-0.246-1.571l-12.57-13.118c-0.595-0.621-1.578-0.401-1.945,0.436l-0.628,1.432
			C876.631,783.795,876.73,784.43,877.112,784.829z"/>
		<path class="st26" d="M819.86,725.686l50.243,51.878c0.576,0.595,1.522,0.38,1.876-0.426l0.668-1.523
			c0.229-0.521,0.131-1.138-0.242-1.523l-50.243-51.878c-0.576-0.595-1.522-0.38-1.875,0.426l-0.668,1.523
			C819.39,724.684,819.488,725.301,819.86,725.686z"/>
	</g>
	<g>
		<path class="st8" d="M695.866,885.585c-9.774,18.2-12.016,13.998-33.802-4.012c-13.937-11.521-40.74-25.68-30.167-30.381
			c10.573-4.701,39.177,12.094,46.281-3.441c7.104-15.535,37.957-17.829,33.802,4.012
			C707.261,876.559,696.078,885.189,695.866,885.585z"/>
		<path class="st8" d="M674.104,820.274c-11.726,11.748-32.239,9.574-50.791-16.451c-18.552-26.025-32.594-32.158-9.022-39.783
			c23.572-7.625,39.52-4.243,54.604,10.948S686.062,808.293,674.104,820.274z"/>
		<g id="XMLID_6_">
			<g>
				<path class="st18" d="M640.544,756.927c-15.343,14.438-27.171,17.888-23.303,26.194c4.122,8.783,22.33-13.013,22.33-13.013
					C638.682,764.895,638.99,760.226,640.544,756.927z"/>
				<path class="st27" d="M640.544,756.927c-1.554,3.3-1.862,7.968-0.973,13.181c0.765,4.334,2.349,9.019,4.785,13.581
					c6.373,11.923,16.131,18.695,22.475,15.874l2.244-1.55c0.78-0.756,1.428-1.692,1.92-2.824
					c-6.095-0.232-13.761-6.591-19.041-16.554c-5.323-9.953-6.653-20.548-3.883-26.607c-1.336-0.025-2.598,0.213-3.713,0.765
					c-0.274,0.131-0.523,0.28-0.792,0.457C642.286,754.096,641.274,755.346,640.544,756.927z"/>
				<path class="st27" d="M650.393,748.835l-6.035,3.959c1.114-0.553,2.376-0.79,3.713-0.765
					C648.653,750.713,649.421,749.657,650.393,748.835z"/>
				<path class="st19" d="M673.708,794.811c0.62-0.209,1.255-0.491,1.811-0.872c6.279-4.153,5.912-17.776-0.809-30.411
					c-6.426-12.004-16.277-18.801-22.624-15.818l-1.693,1.124c-0.972,0.823-1.74,1.878-2.322,3.194
					c6.095,0.232,13.742,6.619,19.041,16.554c5.323,9.953,6.653,20.548,3.883,26.607
					C671.951,795.183,672.852,795.096,673.708,794.811z"/>
				<path class="st27" d="M650.393,748.835l1.693-1.124c-0.317,0.141-0.653,0.31-0.941,0.514
					C650.877,748.401,650.633,748.595,650.393,748.835z"/>
				<path class="st27" d="M669.075,798.013l-2.244,1.55c0.385-0.133,0.74-0.329,1.09-0.57
					C668.334,798.714,668.741,798.39,669.075,798.013z"/>
				<path class="st27" d="M669.075,798.013l4.633-3.202c-0.856,0.285-1.758,0.372-2.713,0.378
					C670.503,796.321,669.855,797.257,669.075,798.013z"/>
				<path class="st18" d="M644.422,852.664c-5.242,7.567,13.551,15.977,29.638,22.115c-2.5-2.411-3.191-8.225-2.052-15.52
					C672.009,859.258,649.798,844.904,644.422,852.664z"/>
				<path class="st27" d="M694.379,822.635c-5.588-0.276-13.739,9.641-18.856,23.312c-1.731,4.663-2.917,9.228-3.514,13.311
					c-1.139,7.295-0.448,13.109,2.052,15.52c0.392,0.121,0.764,0.269,1.137,0.418l2.337,0.798c0.945-0.096,1.95-0.439,2.992-1.044
					c-2.008-5.286-1-15.455,3.066-26.288c4.061-10.879,10.043-19.355,15.112-22.238c-0.489-1.353-1.183-2.359-2.056-2.999
					l-0.073-0.053l-2.104-0.711L694.379,822.635z"/>
				<path class="st27" d="M694.471,822.661l2.104,0.711c-0.34-0.249-0.669-0.407-1.061-0.528
					C695.19,822.732,694.828,822.674,694.471,822.661z"/>
				<path class="st27" d="M702.473,825.368l-5.825-1.942c0.874,0.64,1.567,1.645,2.056,2.999
					C700.039,825.66,701.31,825.304,702.473,825.368z"/>
				<path class="st19" d="M702.473,825.368c-1.163-0.064-2.434,0.292-3.768,1.057c2.027,5.258,1,15.455-3.066,26.288
					c-4.085,10.861-10.043,19.355-15.112,22.238c0.414,1.091,0.962,1.99,1.677,2.596l3.396,1.118
					c5.5-0.494,13.189-10.167,18.085-23.255c5.104-13.599,5.398-26.115,0.942-29.295l-0.024-0.018L702.473,825.368z"/>
				<path class="st19" d="M702.473,825.368l2.129,0.729c-0.316-0.231-0.669-0.407-1.061-0.528
					C703.192,825.438,702.83,825.38,702.473,825.368z"/>
				<path class="st27" d="M675.198,875.196c-0.373-0.148-0.745-0.297-1.137-0.418c0.477,0.473,1.03,0.837,1.63,1.027
					c0.576,0.172,1.184,0.245,1.844,0.189L675.198,875.196z"/>
				<path class="st27" d="M677.535,875.995l4.668,1.552c-0.714-0.606-1.262-1.505-1.677-2.596
					C679.484,875.556,678.479,875.898,677.535,875.995z"/>
				<path class="st19" d="M682.203,877.546c0.453,0.456,0.976,0.756,1.532,0.956c0.576,0.172,1.184,0.245,1.863,0.162
					L682.203,877.546z"/>
			</g>
		</g>
	</g>
	<path class="st6" d="M-7,738c53.104,34.518,132.169,70.845,166.687,115.983c34.518,45.139,53.104,74.346,58.415,82.312
		s116.829,79.656,116.829,79.656H226.067l-53.104,39.828L-7,984V738z"/>
</g>
<g id="Layer_2">
	<rect class="st28" width="2192" height="1334"/>
</g>
</svg>
