<?xml version="1.0" encoding="utf-8"?>
<!-- Generator: Adobe Illustrator 22.1.0, SVG Export Plug-In . SVG Version: 6.00 Build 0)  -->
<svg version="1.1" id="Layer_1" xmlns="http://www.w3.org/2000/svg" xmlns:xlink="http://www.w3.org/1999/xlink" x="0px" y="0px"
	 viewBox="0 0 2192 1309.5" style="enable-background:new 0 0 2192 1309.5;" xml:space="preserve">
<style type="text/css">
	.st0{fill:#FBFFA5;}
	.st1{fill:#6DB5CF;}
	.st2{fill:#4592AD;}
	.st3{opacity:0.3;fill:#FBFFA5;}
	.st4{fill:#784228;}
	.st5{fill:#955D36;}
	.st6{fill:#8F5A2C;}
	.st7{fill:#A26735;}
	.st8{opacity:0.16;enable-background:new    ;}
	.st9{fill:#CEA980;}
	.st10{fill:#C19D7A;}
	.st11{fill:#997A61;}
	.st12{fill:#BE9C79;}
	.st13{fill:#AF8E71;}
	.st14{fill:#8E705B;}
	.st15{fill:#A57856;}
	.st16{fill:#AF8F77;}
	.st17{fill:#1A1A1A;}
	.st18{fill:#7E979C;}
	.st19{fill:#D6D0C3;}
	.st20{fill:#333333;}
	.st21{fill:#B48A66;}
	.st22{fill:#AA8166;}
	.st23{opacity:0.17;enable-background:new    ;}
	.st24{fill:#666666;}
	.st25{fill:#808080;}
	.st26{fill:#F2F2F2;}
	.st27{fill:#4D4D4D;}
</style>
<circle class="st0" cx="952.8" cy="533.6" r="222.3"/>
<g>
	<path class="st1" d="M1979.1,958.5c90.3-6.7,189.2,102.1,247,191.5l-2.2,1263H-26.4l2.2-1255.2c66.3-73.2,257.6-195.5,300.6-199.6
		C325.9,953.5,1932.5,962,1979.1,958.5z"/>
	<path class="st2" d="M2226.1,1150c-89-15.4-179.3-28.8-269.6-22.1c-46.6,3.4-92.4,12.2-138.9,16.6c-47.2,4.4-94.9,4.3-142.4,3.5
		c-210.8-3.5-423.2-20.3-634.8-2.2c-50.9,4.3-102.1,10.7-153,6.2c-37.5-3.4-74-12.5-111.4-16.2c-49.5-4.9-99.5-0.2-149,4.6
		c-42.9,4.1-492.7,12.3-651,17.5L-34.9,580c0,0,11.2-6.9,31.9-9c22-2.2,43.9,9,90.6,9c27.4,0,72.8-13.2,96.1-15.7
		c41.2-4.5,90.6,2.2,120.7,11.2c61.9,18.4,76.8,15.7,112.5,15.7c24.7,0,109.2-19,150.9-22.4c27.4-2.2,96.1,9,129,11.2
		s57.6-13.4,112.5-17.9c52.5-4.3,85.1,20.2,148.2,22.4s121.2-13.1,150.9-17.9c27.4-4.5,46.6,15.7,82.3,13.4
		c35.7-2.2,74.1-9,102.2-10.4c28.1-1.5,65.2,6,89.9,10.4c24.7,4.4,71.4-2.2,99.8-10.4s106.1,3.7,141.7,8.2s63.1-15.7,98.1-15.7
		s83,20.2,111.6,13.2c28.5-6.9,51-13.2,75.7-13.2s65.9,2.2,87.8,6.7c22,4.5,68.1-4.3,87.8-6.7c35.7-4.5,46.7,4.5,76.8,6.7
		s54.9-5.6,54.9-5.6L2226.1,1150z"/>
</g>
<g>
	<path class="st3" d="M1407.2,581.3c-9.2,0.3-17.7-0.1-24.5-1.5c-23-4.2-56.8-10.8-84-10.6c0,0,0,0.1,0,0.1c-2,0-3.9,0.1-5.8,0.2
		c-21,1.1-47.7,5.1-74.8,8c-10,22.5-10.1,22.5-0.1,0.1c-9.1,1-18.3,1.8-27.5,2.3c-27.2,1.7-44.8-9.6-63.8-13.1
		c-5.9-1-12-1.4-18.5-0.3c-0.4,0-0.8,0.1-1.2,0.2c-30.1,5-87.5,19.9-149.8,17.7c-43.8-1.6-72.9-13.8-104.2-19.7
		c-4.7-0.8-9.3-1.5-14.1-2.1c-9.4-1.1-19.2-1.4-29.9-0.5c-4.8,0.4-9.4,0.9-13.8,1.5c-1.9,0.2-3.7,0.5-5.5,0.7
		c-40.6,5.8-63,17-90.6,15.9c0,0-0.1-0.1-0.1-0.1c-0.8,0-1.5,0-2.3-0.1c-20.7-1.5-62.7-6.8-85.5-9.6c-17.6-1.7-33.4-2.7-43.6-1.9
		c-24.6,2-64.1,9.5-97.4,15.2c2.4,16.9,10.4,33.7,20.6,48.6c17.3,25.3,40.7,47.6,56.4,73.5c9.6,15.9,16.3,33.3,28.6,47.9
		c30,35.8,86,48.6,137.4,58.9c69.3,13.9,138.5,27.8,207.8,41.7c16.9,3.4,34.1,6.8,51.5,6.8c32.1,0,62.3-11.4,92.5-20.1
		c39.6-11.3,81.2-18.3,123.1-20.5c32.9-1.7,66.4-0.5,98.3-7.4s63.1-23.5,73.3-49.2c6.4-16.1,3.8-34,9.7-50.4
		c5.6-15.5,18.3-28.6,26.6-43.3C1411.4,642.8,1410.4,611.6,1407.2,581.3z"/>
	<path class="st3" d="M1298.7,569.4c-2,0-3.9,0.1-5.9,0c-21,1.1-47.7,5.1-74.8,8c0,0.1-0.1,0.1-0.1,0.2c-9.1,1-18.2,1.8-27.4,2.3
		c-27.2,1.7-44.8-9.6-63.8-13.1c-5.9-1-12-1.4-18.5-0.3c-0.4,0-0.8,0.1-1.2,0.2c-30.1,5-87.5,19.9-149.8,17.7
		c-43.8-1.6-72.9-13.8-104.2-19.7c-4.7-0.8-9.3-1.5-14.1-2.1c-9.4-1.1-19.2-1.4-29.9-0.5c-4.8,0.4-9.4,0.9-13.8,1.5
		c-1.9,0.2-3.7,0.5-5.5,0.7c-40.6,5.8-63,17.1-90.6,15.9c-0.1-0.1-0.1-0.1-0.2-0.2c-0.8,0-1.5,0-2.3-0.1
		c-20.7-1.5-55.6-6.4-85.4-9.3c-18.5,12-20.5,37.1-10.8,55.7c10.8,20.7,55.1,68.6,61.1,74.1c15.9,14.4,41.9,18,65.6,17.2
		s47.4-5.1,71-2.8c19.1,1.9,37.3,8,55.8,12.4c44,10.5,91.3,11.3,135.8,2.3c48.8-9.8,94.8-31.2,145-31.6c19.1-0.2,38.7,2.8,57.1-1.5
		c13.7-3.1,25.7-10,37.2-16.9c26.3-15.8,53-33.8,64.2-58.9C1300.5,604.3,1300.5,586.8,1298.7,569.4z"/>
	<path class="st3" d="M1218,577.6c-11.6,25.9-27.8,52.2-58.8,61.2c-29.8,8.5-62.3-2.4-93.8-1.2c-28.4,1.1-54.7,11.9-81.9,18.7
		s-59.5,8.7-81.6-6c-8.2-5.4-14.3-12.7-22.8-17.7c-24.7-14.9-59.1-6.6-89.8-7.8c-36.6-1.6-71.3-19.1-90.4-44.6
		c27.7,1.2,50.1-10.1,90.8-15.9c1.8-0.2,3.6-0.5,5.5-0.7c4.4-0.6,9-1.1,13.8-1.5c10.7-0.9,20.5-0.6,29.9,0.5
		c4.8,0.6,9.4,1.3,14.1,2.1c31.3,5.9,60.4,18.1,104.2,19.7c62.3,2.2,119.7-12.7,149.8-17.7c0.4-0.1,0.8-0.2,1.2-0.2
		c6.5-1.1,12.6-0.7,18.5,0.3c19,3.5,36.6,14.8,63.8,13.1C1199.7,579.4,1208.9,578.6,1218,577.6z"/>
</g>
<g>
	<path class="st4" d="M1012.1,867.2c24.4,6.9,268.4,65.7,268.4,65.7v5.9c0,0-25.7,20.7-1.8,22.6c23.9,2,208.9,22.5,208.9,22.5
		s5.3,7.8,0,7.8s-254.9,3.9-276.1,5.9s-159.3,17.6-172.6,17.6s-233.7-7.8-233.7-7.8l-29.2,21.7l18.6,15.7l-330.5,21.1l-464.6-28.6
		h-4V883.4h1l206-103.3c0,0,558.9,28,564.2,28s168.7-24.1,168.7-28l18.6,21.6C954,801.7,977.1,859.4,1012.1,867.2z"/>
	<path class="st5" d="M1479.7,978l8,5.9c0,0-199.1,0-223-2s-92.9-37.2-100.9-43.1h116.8h10.6c0,0,18.6,17.6,26.6,19.6
		C1325.7,960.4,1479.7,978,1479.7,978z"/>
	<path class="st6" d="M1280.5,932.9l-124.8-2c0,0-45.1-15.7-50.4-19.6s-116.8-15.7-124.8-17.6s-92.9,3.9-100.9,3.9
		s-80.9-30.3-118.1-44.1c1.4,0.1,23.3,3,46.4,4.9c23.9,2,146-56.9,146-56.9s35,38,47.8,45.1c21.2,11.7,132.8,31.4,162,41.2
		s63.7,17.6,79.7,21.6C1259.4,913.3,1280.5,932.9,1280.5,932.9z"/>
	<path class="st5" d="M1102.6,960.4c2.7,3.9,66.4,23.6,66.4,23.6s-116.8,15.7-124.8,17.6c-8,2-130.1-2-135.4-2s-63.7-39.2-77-47
		l124.8-2c18.6,7.8,45.1,7.8,45.1,7.8c-8,0-21.2-11.7-21.2-11.7h108.9C1089.3,946.7,1100,956.4,1102.6,960.4z"/>
	<path class="st7" d="M935.3,780c0,3.9-128.8,57.8-134.1,57.8S557,822.2,557,822.2l31.9,25.5l-148.7,9.8c0,0-23.9-21.6-31.9-21.6
		s-222.1-24.4-222.1-24.4l-0.1-0.1c-7.1-7.3-15.3-15.5-24.8-24.6C138,764.3,95,745.3,53.2,727.5c55.9-2.9,370.6-45.8,393.6-51.4
		c23.9-5.9,331.9-5.9,345.2-5.9S935.3,776.1,935.3,780z"/>
	<path class="st5" d="M776,987.8h-95.6l-98.2-49c0,0-8-27.5-8-33.3l87.6,2l58.4,27.5l13.3,27.5L776,987.8z"/>
	<path class="st5" d="M568.9,940.7l-34.5-21.6l21.2-7.8C555.6,917.2,566.3,938.8,568.9,940.7z"/>
	<polygon class="st5" points="445.5,953.5 187.9,939.8 230.4,914.3 352.5,918.2 	"/>
	<path class="st6" d="M219.8,847.6c-3.9-4.3-14.7-16.8-33.6-36.1l-0.1-0.1l-0.2-0.1c-7-7.2-15.2-15.5-24.6-24.4
		C138,764.3,95,745.3,53.2,727.5c-19.9-8.5-39.5-16.7-56.7-25v180.9l178.1,52.4l53.1-29.4h108.9
		C336.6,906.4,225.1,853.5,219.8,847.6z"/>
</g>
<g>
	<path class="st5" d="M1725.7,1007.3l1,3.2c-27.2,2.8-54.9,2.6-80.9,6c-4.5,0.6-10.1,0.5-15.9,0.1l-22.7-7.4l-56.1-5.4l9.3-39.6
		c8.3-4.9,16.2-10.7,22.4-17.6l59.8,10.5L1725.7,1007.3z"/>
	<path class="st4" d="M1615.4,1004l14.5,12.6c-10.1-0.6-21.1-2.2-29-2.8c-11.7-0.9-15.7-2.2-27.5-2c-26.2,0.5-52.5,1.1-78.7,1.6
		l21.9-31c0,0,22.8-5.9,43.8-18.2l11.7,36.3L1615.4,1004z"/>
	<path class="st5" d="M1293.3,1076.5l23.1,34.7c-33.4-1-70.9-1.3-106.2-0.5l-1.7-0.9l-36.6-26.3l-47.7-17.6l-7.5-50.3l31.4-33.9
		L1293.3,1076.5z"/>
	<path class="st4" d="M1208.6,1109.8l1.7,0.9c-30.1,0.7-58.5,2.1-81.3,4.3c-57.7,5.7-80.3,8.1-129.7-4l0.5-2.4l63.2-85.9l53.7-7.1
		l0.1-0.1l18.9,43.6l64,20.8L1208.6,1109.8z"/>
</g>
<g>
	<path class="st8" d="M561.4,742.9c16.3,10.1,64.1,40,49.6,73.7s-65.3,12-91.9,12s-82.2,7.2-128.2,4.8s-169.3-16.9-181.4-14.5
		c-12.1,2.4-41.1-19.3-62.9-14.5s-41.1,24.1-62.9,14.5s-14.5-35.9-4.8-43.4s77.4-31.3,91.9-33.7C185.4,739.5,516.7,715,561.4,742.9z
		"/>
	<path class="st9" d="M122.4,753.7c3.3,0.8,1.5,0.8,6.4,9.1c24-3.5,54.9,1.5,79.1,4.3c40.5,4.7,79.8,9.8,120,3
		c8.6-1.4,30.8-6.2,37.8-11.4c-3.6-2.8-15.3-11.3-18.7-14.2c-13.3-11.3-21.8-19.4-24.5-36.7c-2.3-14.8-1.1-25.6,8.1-37.5
		c7.8-10.1,15.1-23,26.3-29.2c-10.5,3.7-23.9,6-42.2,4.5c-29-2.4-41.1-2.4-120.9,31.3C142.8,698.4,127.2,727.5,122.4,753.7z"/>
	<path class="st10" d="M134.8,760.7c0.3,0.5-2.2,8.8-2.9,10.9c14.5,7.6,48.1,19.3,103,18.6c40.5-0.6,67.7,0,99.2,7.2
		c5.5,1.3,12.5,1.9,20.5,2.1c8.6-7,13.3-11.7,13.3-11.7c3.2-3.2,6.6-6.3,9.2-9.7c-7-7.1-15-13.2-22.9-19.5c-7,5.2-15.8,7.5-24.4,8.9
		c-40.2,6.8-81.1-1.3-121.6-6C184,758.6,158.8,757.2,134.8,760.7z"/>
	<path class="st11" d="M135.8,762.3c-0.3-0.6-0.7-1.1-1-1.7c0,0-0.1,0-0.1,0c-4.8-8.2-6.9-12.7-10.1-13.5c-1-0.3-2.2-0.1-3.5,0.4
		c-6.8,2.5-15.9,5.9-26.4,10.1c-24.2,9.6-29,14.5-21.8,31.3c7.3,16.9,14.5,24.1,29,21.7c14.5-2.4,26.6-9.6,33.9-36.1
		C135.8,774.5,138.5,767.5,135.8,762.3z"/>
	<path class="st12" d="M327.6,665.1c-9.2,11.9-14.5,27.2-12.2,42.1c2.7,17.2,15,31.4,28.3,42.8c3.4,2.9,7,5.7,10.5,8.5
		c0.1,0,0.2-0.1,0.2-0.2c17.8,4.5,51.1-49.6,29.6-61.6c-4.2-6.3-9.2-55.6-13.4-61.8c-4,2.3-8.5,4.5-13.8,6.4
		C345.7,647.3,335.4,655.1,327.6,665.1z"/>
	<path class="st13" d="M354.4,758.3c-0.1,0-0.2,0.1-0.2,0.2c7.9,6.2,15.9,12.4,22.9,19.5c5.6-2.1,13.9-18.7,2.5-30
		c-3.2-3.2-5.9-11.8-14.8-5.4C363.6,748.7,359.6,754.5,354.4,758.3z"/>
	<path class="st14" d="M452.4,782.8c-0.1,0-0.1-0.1-0.2-0.1c0.1,0,0.1,0,0.2,0c-0.4-5.3-2.1-12-4.7-21.5c-1.2-4.5-2.6-8.9-4.2-13.2
		c-0.4,0.7-79.1,62.9-92.2,66.3c5.2,2.4,21.6,4.7,31.1,4.7c9.7,0,43.5-2.4,58-14.5c6.4-5.3,10-9.3,11.3-14.4c0.1,0,0.1,0,0.2,0
		C452.5,788,452.6,785.6,452.4,782.8z"/>
	<path class="st11" d="M409.1,698.6c-15.1-11.3-28.6-10.8-38.4-2.2c0,0-0.1-0.1-0.1-0.1c-2.8,2.5-5.3,5.6-7.4,9.3
		c-7.9,13.7-7.7,24.2,1.7,36.7c2.2,2.9,4.8,5.9,8,9c11.3,11.6,9.5,19.7,4.2,26.7c-2.6,3.4-6,6.6-9.2,9.7c0,0-4.8,4.7-13.3,11.7
		c0,0,0,0,0,0c0,0-0.1,0.1-0.2,0.2c-10.3,8.3-8.2,12.2-3.4,14.6c0.1,0,0.2,0.1,0.3,0.1c13-3.4,25.4-9.1,37-16.2c0,0,0,0,0,0
		c15.2-9.3,29-21.1,41.4-34.3c0,0,0.1,0.1,0.1,0.1c4.2-4.4,8.3-9,12.1-13.7c0.6-0.7,1.1-1.4,1.7-2.1
		C436.2,727.5,425.1,710.5,409.1,698.6z"/>
	<path class="st15" d="M391.8,511.4c-0.4,5.7-0.9,12.7-0.7,21c6.4,13.4,19,31.2,34.6,33.5c14,2,58.5-1.2,77.8-15.6
		c11-8.2,6-26.9,2.9-34c-1.2-2.9-2.3-5.6-3.4-8.2c0.3,3.6,0.5,42.2-45.7,41.8C457.3,549.8,398.2,533.4,391.8,511.4z"/>
	<path class="st16" d="M400.9,472.6l18.4,7.2c0,0,9.9-6.3,9.9-8.1c0-3.9,0.6-4.1,4.5-4.5l52.7-7.7c-17-7.1-51.1-16.1-70.2-1.8
		C410.6,461.9,404.6,467.8,400.9,472.6z"/>
	<path class="st17" d="M422.6,486.6c0,0-0.4-1.4-0.4-1.4c0,0,1.9-4.4,1.7-7.5c0,0-17.9-5.5-21.7-6.8c-1.8,2.4-3.3,4.8-4.7,7.4v2.1
		C412.6,491.9,422.6,486.6,422.6,486.6z"/>
	<path class="st18" d="M473.6,495.2c-8.1,0-10.8,7.2-7.2,10.8c7.2,7.2,7.2,7.2,14.5,0C484.5,502.4,484.5,495.2,473.6,495.2z"/>
	<path class="st19" d="M494.2,497.2c-6-0.6-19-6.7-19.1-6.7c-5.9,2.7-24.8,10.6-27.5,8.9l-5.9,1.5c-7.4,13.8-13.9,25.3,0.6,37.7
		c10,8.6,30.1,14.7,45.5,2.7c11.3-8.9,11-16.5,11-29.9C498.9,505.8,496.3,500.8,494.2,497.2z M479.9,505.7c-6.3,6.3-6.3,6.3-12.6,0
		c-3.2-3.2-0.8-9.5,6.3-9.5C483.1,496.2,483.1,502.5,479.9,505.7z"/>
	<path class="st16" d="M501.9,497.9c-0.7,0.4-1.5,0.7-2.4,0.9c0,0,0,0.1,0,0.1c-0.6,0.2-1.3,0.3-1.9,0.4c-1.7,0.2-3.3,0.2-4.9,0
		c2.1,3.6,3.6,8.1,3.6,13.6c0,13.4,0,18.3-11.3,27.1c-15.4,12-28.5,6.3-38.6-2.3c-14.5-12.4-12-22.9-4.5-36.7l-5-1.7
		c-4.7-0.3-8.4-2.8-11.1-6.7c-0.1,0-0.1,0-0.2,0c0,0,0,0,0,0c-1.4-2.1-2.2-3.2-3-6c-8.3,0.1-22.1-5.7-25.1-8.3
		c-4.1,7.9-5.8,19.5-5.7,32.3c0,0.3,0,0.5,0,0.8c0,0.8,0.1,1.6,0.1,2.4c0,0,0,0,0,0.1c0,0,0,0,0,0c0.1,1.3,0.2,2.7,0.3,4.1
		c2.4,31.3,48.4,33.7,48.4,33.7c16.9,0,26.6,2.4,38.7-2.4c12.1-4.8,24.2-12,24.2-31.3C503.5,514.9,502.8,501.2,501.9,497.9z"/>
	<path class="st20" d="M485.7,458.1c-1-0.4-2.2-0.5-3.3-0.4l-55.2,6.5c-3.8,0.4-6.8,3.8-6.8,7.7c0,1.8,0.1,3.5,0.2,5.2
		c0.3,3.1,0.8,6.1,1.6,8.7c0.8,2.8,2.9,10.4,3,10.4c2,5.8,21.8,7.7,21.8,7.7c-0.9-0.6-3.9-2.6-4.6-3.3c0,0,0,0,0,0.1
		c-0.3-0.3-0.6-0.7-0.9-1c0,0-0.1,0-0.1-0.1c0,0,0.1,0,0.1,0c-1.9-2.3-3.2-18.6-3.1-24.1c0-3.6,3.1-4.2,6.7-4.6
		c0,0,55.3-6.4,56.3-7.4L485.7,458.1z"/>
	<path d="M504.6,468.1c-0.6-3-3.2-5.2-6.2-5.6c-0.6-0.1-1.2-0.1-1.9,0l-55.6,6.4c-3.6,0.5-6.1,3.5-6.3,7.1c-0.4,6.3,1.9,14.9,1.9,15
		c1.1,3.3,2.6,6.2,4.5,8.5c0.3,0.4,2.5,2.5,3.3,3.1c2.6,1.7,5.8,2.5,9.5,2.1c8.8-1,12.2-8.2,18.1-10.9c1.3-0.4,2.7,0,4.9,1
		c0,0,0.1,0,0.1,0c3.8,1.6,9.2,4.3,15.3,4.9l0,0l0,0c1.6,0.2,3.3,0.2,4.9,0c0.7-0.1,3.7-0.9,4.4-1.3c0,0,0,0,0-0.1
		C509.3,494.1,507.9,481.2,504.6,468.1z"/>
	<path class="st11" d="M581.7,763.7c-4.8-9.5-26.2-24.2-30.5-20v1.6c2,10.1,12.8,14.9,24.2,16.4c1.8,0.2,3.7,0.3,4.8,0.9
		L581.7,763.7z"/>
	<path class="st14" d="M512.8,747.9c-0.3,47,22,42.2,39,42.2c15.4,0,38.7-21.8,28.4-27.7c-1.1-0.6-2.5-1-4.3-1.3
		c-11.5-1.4-20.4-7.9-24.7-17.5c-3-6.6-3.9-14.6-1.9-23.5c4.8-21.7,2.4-41-0.7-50.4c0,0-0.1,0.1-0.2,0.2c-0.9,17.3-5.2,34.6-16,50.2
		C526.1,729.4,519.5,739,512.8,747.9z"/>
	<path class="st21" d="M519.7,547.3c-4.7-11.3-9.3-21.6-13.1-30.7c1,8.7,0.7,23.2-10.4,31.4c-19.3,14.5-56.2,11.7-70.1,9.6
		c-15.6-2.3-25.6-13.1-34.9-25.3c0.1,4.1,0.4,8.5,1,13.2c2.4,19.3-7.7,66.1-16.9,80.7c-12.2,19.3-12.2,39.9-12.2,45.9
		c0,7.2,3,17.8,7.3,24.1c0,0.1,0.1,0.2,0.2,0.3c9.8-8.7,23.4-9.1,38.5,2.1c16,12,27.1,28.9,34.5,49.5
		C450.7,748.1,512.8,681.9,519.7,547.3z"/>
	<path class="st22" d="M548.4,670c1-17.6-1.5-35.2-3.9-51c-2.6-17.1-14-45.8-24.9-71.8c-2.8,68-26.6,135-67.4,189.6c0,0,0,0.1,0,0.1
		c-2.8,3.9-5.7,7.5-8.6,11.1c1.6,4.2,3,8.6,4.2,13.2c2.6,9.5,4.3,16.2,4.7,21.4c0,0-0.1,0-0.1,0.1c0.2,2.7,0.1,5.1-0.5,7.3
		c4.8-0.8,12.2-1.3,21.3-4.3c14.8-4.8,23.5-16.1,39.6-37.8c0,0,0,0,0,0.1c6.7-9,13.3-18.6,19.6-27.7
		C543.2,704.7,547.5,687.4,548.4,670c-0.3,0.3-0.5,0.6-0.8,0.8C547.9,670.4,548.2,670.2,548.4,670z"/>
</g>
<g>
	<path class="st23" d="M700.3,708.6c-13.1,7.8,11.5,37.1,21.3,55.8s45.6,51.3,57.8,68.4c7.4,10.4,40.7,17.9,71.8,8
		c38.6-12.3,50.8-32.1,37.7-54C861.1,749.5,720.9,696.4,700.3,708.6z"/>
	<path class="st24" d="M791,683.2l96.2,104.1c3.4,3.6,1.8,10-2.7,11.6l-78.8,26.9c-2.2,0.7-4.5,0.1-6.1-1.6l-96.2-104.1
		c-3.4-3.6-1.8-10,2.7-11.6l78.8-26.9C787.1,680.9,789.5,681.5,791,683.2z"/>
	<path class="st25" d="M791.6,680.7l96.2,104.1c3.4,3.6,1.8,10-2.7,11.6l-78.8,26.9c-2.2,0.7-4.5,0.1-6.1-1.6l-96.2-104
		c-3.4-3.6-1.8-10,2.7-11.6l78.8-26.9C787.7,678.4,790.1,679,791.6,680.7z"/>
	<path class="st20" d="M837,595.3l95.5,99.1c2.6,2.7,3.2,6.9,1.7,10.5l-33.6,76.8c-2.5,5.7-9.2,7.1-13.1,2.8L793,682.1
		c-2.5-2.7-3.1-6.9-1.5-10.4l32.5-73.5C826.4,592.6,833,591.2,837,595.3z"/>
	<path class="st24" d="M792.2,697.6l73.4,79.9c1.8,1.9,1,5.4-1.5,6.2L826,796.9c-1.2,0.4-2.4,0.1-3.3-0.9l-73.4-79.9
		c-1.8-1.9-1-5.4,1.5-6.2l38.1-13.2C790.1,696.4,791.3,696.7,792.2,697.6z"/>
	<path class="st24" d="M770.4,747.4l22.6,24.5c1.1,1.2,0.6,3.4-0.9,4l-18,6.1c-0.7,0.3-1.5,0-2.1-0.5L749.4,757
		c-1.1-1.2-0.6-3.4,0.9-4l18-6.1C769.1,746.6,769.9,746.8,770.4,747.4z"/>
	<path class="st26" d="M868.6,652.5l51.8,53.6c0.6,0.6,1.6,0.4,1.9-0.4l0.6-1.5c0.2-0.5,0.1-1.2-0.2-1.6L870.9,649
		c-0.6-0.6-1.6-0.4-1.9,0.4l-0.6,1.5C868.1,651.5,868.2,652.1,868.6,652.5z"/>
	<path class="st26" d="M840.3,638l75.6,78.3c0.6,0.6,1.6,0.4,1.9-0.4l0.6-1.4c0.2-0.5,0.1-1.2-0.2-1.6l-75.6-78.3
		c-0.6-0.6-1.6-0.4-1.9,0.4l-0.6,1.4C839.9,637,840,637.6,840.3,638z"/>
	<path class="st26" d="M888.7,703l22.8,23.6c0.6,0.6,1.5,0.4,1.8-0.4l0.7-1.6c0.2-0.5,0.1-1.1-0.2-1.5l-22.9-23.6
		c-0.6-0.6-1.5-0.4-1.8,0.4l-0.7,1.6C888.2,702.1,888.3,702.7,888.7,703z"/>
	<path class="st26" d="M871.3,684.5l11.8,12.1c0.6,0.6,1.5,0.4,1.9-0.4l0.7-1.5c0.2-0.5,0.1-1.1-0.2-1.5l-11.8-12.1
		c-0.6-0.6-1.5-0.4-1.9,0.4l-0.7,1.5C870.8,683.5,870.9,684.1,871.3,684.5z"/>
	<path class="st26" d="M881.9,725.2l12.2,12.7c0.6,0.6,1.7,0.4,2-0.5l0.6-1.3c0.2-0.6,0.1-1.2-0.3-1.7l-12.2-12.7
		c-0.6-0.6-1.7-0.4-2,0.5l-0.6,1.3C881.4,724.1,881.5,724.8,881.9,725.2z"/>
	<path class="st26" d="M875.7,703.9l23,23.8c0.6,0.6,1.6,0.4,2-0.5l0.6-1.4c0.2-0.6,0.1-1.2-0.3-1.6l-23-23.8
		c-0.6-0.6-1.6-0.4-2,0.5l-0.6,1.4C875.2,702.8,875.3,703.5,875.7,703.9z"/>
	<path class="st26" d="M835.3,661.5l34.5,35.7c0.5,0.6,1.5,0.4,1.8-0.4l0.7-1.6c0.2-0.5,0.1-1.1-0.2-1.5L837.6,658
		c-0.5-0.6-1.5-0.4-1.8,0.4l-0.7,1.6C834.9,660.5,835,661.1,835.3,661.5z"/>
	<path class="st26" d="M849.3,691.5l26.9,27.8c0.6,0.6,1.6,0.4,2-0.4l0.6-1.4c0.2-0.5,0.1-1.2-0.3-1.6l-26.9-27.8
		c-0.6-0.6-1.6-0.4-2,0.4l-0.6,1.4C848.9,690.5,849,691.1,849.3,691.5z"/>
	<path class="st26" d="M838,694.7l51.5,53.3c0.7,0.7,1.8,0.5,2.2-0.5l0.5-1.1c0.3-0.6,0.2-1.4-0.3-1.8l-51.5-53.3
		c-0.7-0.7-1.8-0.5-2.2,0.5l-0.5,1.1C837.4,693.5,837.5,694.3,838,694.7z"/>
	<path class="st26" d="M809.3,677.9l84.3,87.4c0.7,0.7,1.7,0.4,2.1-0.5l0.5-1.2c0.3-0.6,0.2-1.3-0.3-1.7l-84.2-87.4
		c-0.7-0.7-1.7-0.4-2.1,0.5l-0.5,1.2C808.8,676.7,808.9,677.4,809.3,677.9z"/>
	<path class="st26" d="M877.1,760.3l12.6,13.1c0.6,0.6,1.6,0.4,1.9-0.4l0.6-1.4c0.2-0.5,0.1-1.2-0.2-1.6l-12.6-13.1
		c-0.6-0.6-1.6-0.4-1.9,0.4l-0.6,1.4C876.6,759.3,876.7,759.9,877.1,760.3z"/>
	<path class="st26" d="M819.9,701.2l50.2,51.9c0.6,0.6,1.5,0.4,1.9-0.4l0.7-1.5c0.2-0.5,0.1-1.1-0.2-1.5l-50.2-51.9
		c-0.6-0.6-1.5-0.4-1.9,0.4l-0.7,1.5C819.4,700.2,819.5,700.8,819.9,701.2z"/>
</g>
<g>
	<path class="st8" d="M654.6,747.7c-11.7,11.7-32.2,9.6-50.8-16.5c-18.6-26-32.6-32.2-9-39.8s39.5-4.2,54.6,10.9
		C664.5,717.4,666.6,735.7,654.6,747.7z"/>
	<path class="st8" d="M676.4,813c-9.8,18.2-12,14-33.8-4c-13.9-11.5-40.7-25.7-30.2-30.4s39.2,12.1,46.3-3.4s38-17.8,33.8,4
		C687.8,804,676.6,812.6,676.4,813z"/>
	<path class="st17" d="M623.2,682.2c-15.3,14.4-29.4,20-25.5,28.3c4.1,8.8,23.7-14.5,23.7-14.5C620.6,690.8,621.7,685.5,623.2,682.2
		z"/>
	<path class="st20" d="M654.2,722.2c0.6-0.2,1.3-0.5,1.8-0.9c6.3-4.2,5.9-17.8-0.8-30.4c-6.4-12-16.3-18.8-22.6-15.8l-1.7,1.1
		c-2.1,1.4-3.6,3.5-2.3,3.2c6.1,0.2,13.7,6.6,19,16.6s6.7,20.5,3.9,26.6C652.5,722.6,653.4,722.5,654.2,722.2z"/>
	<path class="st27" d="M656,721.3c-0.9,0.3-3.6,1.3-4.5,1.3c-6.1-0.2-13.9-6.5-19.1-16.5c-5.2-9.8-6.6-20.1-4-26.3
		c0.6-1.3,1.6-2.8,2.5-3.6l-6.5,4.3c-0.1,0.1-0.3,0.2-0.4,0.3c-1.2,0.7-2.2,1.9-3,3.5c-1.6,3.3-1.9,8-1,13.2c0.8,4.3,2.3,9,4.8,13.6
		c6.4,11.8,16,18.6,22.4,15.9c0,0,2.1-1.4,2.1-1.3L656,721.3z"/>
	<path class="st17" d="M624.9,780.1c-5.2,7.6,15.1,16.4,31.1,22.5c1.1-3.2-2.3-8.9-3.6-15.9C652.5,786.7,630.3,772.3,624.9,780.1z"
		/>
	<path class="st20" d="M685.1,753.5l-2.6-0.9c-1.2-0.1-2.1,0.2-3.5,1c2,5.3,1,15.5-3.1,26.3c-4.1,10.9-10,19.4-15.1,22.2
		c0.4,1.1,1,2,1.7,2.6c0,0,1.1,0.7,1.5,0.9c0.6,0.2,1.2,0.2,1.9,0.2l0,0l0,0c5.5-0.5,13.2-10.2,18.1-23.3
		C689.1,769,689.6,756.7,685.1,753.5z"/>
	<path class="st27" d="M675.6,750.1l-0.7-0.1c-5.6-0.3-13.7,9.6-18.9,23.3c-1.7,4.7-2.9,9.2-3.5,13.3c-1.1,7.3-0.4,13.1,2.1,15.5
		c0,0,0,0,0,0c0.5,0.5,1,0.8,1.6,1s6.5,1.8,6.5,1.8c-0.7-0.6-1.3-1.5-1.7-2.6c0,0,0,0,0,0c-2-5.3-1-15.5,3.1-26.3
		c4.1-10.8,9.9-19.3,15-22.1c1.3-0.7,2.8-1.2,3.9-1.1L675.6,750.1z"/>
</g>
<path class="st6" d="M-7,702.2c53.1,25.5,132.2,52.3,166.7,85.7c34.5,33.3,53.1,54.9,58.4,60.8c5.3,5.9,116.8,58.8,116.8,58.8H226.1
	L173,936.8l-180-53V702.2z"/>
</svg>
