<?xml version="1.0" encoding="utf-8"?>
<!-- Generator: Adobe Illustrator 22.1.0, SVG Export Plug-In . SVG Version: 6.00 Build 0)  -->
<svg version="1.1" id="Layer_1" xmlns="http://www.w3.org/2000/svg" xmlns:xlink="http://www.w3.org/1999/xlink" x="0px" y="0px"
	 viewBox="0 0 363 332" style="enable-background:new 0 0 363 332;" xml:space="preserve">
<style type="text/css">
	.st0{fill:#FFFFFF;}
	.st1{fill:#19A2C4;}
	.st2{fill:#FEFEFE;}
	.st3{fill:#48B0B5;}
	.st4{fill:#47CFDD;}
	.st5{fill:#3E979C;}
	.st6{enable-background:new    ;}
</style>
<path class="st0" d="M291,73.14L213.55,27.8c-16.48-9.57-31.19-9.57-31.21-9.57s-14.85,0-31.33,9.57L72.88,73.14
	c0,0-24.4,15-24.4,41v100.47c0,26,24.46,41,24.46,41l78.06,45.3c16.49,9.57,31.51,9.57,31.53,9.57s15,0,31.49-9.57L291,255.57
	c0,0,23.23-15,23.23-41V114.1C314.18,88.13,291,73.14,291,73.14z"/>
<path class="st1" d="M65.65,207.92c0,22.5,20.95,35.48,20.95,35.48l67.48,39.27c14.28,8.33,27.24,8.33,27.25,8.33s13,0,27.24-8.29
	l67.48-39.27c0,0,20.95-13,20.95-35.48v-87c0-22.5-20.95-35.48-20.95-35.48l-67.48-39.35c-14.27-8.29-27.23-8.29-27.24-8.29
	s-13,0-27.25,8.29L86.6,85.4c0,0-20.95,13-20.95,35.48L65.65,207.92z"/>
<path class="st2" d="M182.15,108.64c0-5.79,0-11.59,0-17.38c0-1.51,0.45-2,1.94-1.94c11.51,0.12,23,0,34.52,0.26
	c24.56,0.5,38.58,21.15,40.44,37.43c1.1,9.62,0.87,19.09-2.12,28.39c-5,15.74-15.91,25-32,27.69c-6.3,1.06-12.8,1.16-19.21,1.34
	c-7.22,0.21-14.45,0-21.67,0c-1.61,0-1.87-0.6-1.85-2c0.07-5.65,0.09-11.3,0-17c0-1.66,0.38-2.19,2.11-2.17
	c8.59,0.09,17.17,0.12,25.75,0c3.287-0.029,6.566-0.34,9.8-0.93c8.51-1.62,13.7-6.86,15.77-15.25c2.43-9.83,1.36-19.15-4-27.83
	c-3.5-5.66-8.54-8.69-15.28-8.69c-4.36,0-8.73,0.07-13.09,0c-1.5,0-1.75,0.54-1.73,1.86c0.07,4.43,0,8.87,0.05,13.3
	c0,1.49-0.2,2.14-1.93,2.09c-5.22-0.13-10.45-0.1-15.67,0c-1.45,0-1.79-0.45-1.77-1.82C182.19,120.23,182.15,114.44,182.15,108.64z"
	/>
<path class="st2" d="M175.57,89.67c-3.1,3.43-5.8,6.44-8.53,9.43c-2.26,2.48-4.61,4.89-6.81,7.43
	c-1.011,1.225-2.544,1.897-4.13,1.81c-5.51,0-11,0-16.52,0.1c-3.014,0.02-5.767,1.716-7.14,4.4c-2,3.41-1.31,6.23,2.19,8.06
	c6,3.11,12.05,5.93,18,9c3.098,1.646,6.103,3.462,9,5.44c9.32,6.32,11.84,15.42,9.94,25.94c-2.37,13-12.14,21.45-25.76,22.71
	c-1.84,0.17-3.7,0.38-5.55,0.38c-12.3,0-24.59,0-37.17,0c0.237-0.477,0.511-0.935,0.82-1.37c4.74-5.72,9.53-11.41,14.24-17.17
	c0.97-1.254,2.498-1.946,4.08-1.85c6.22,0,12.45,0.11,18.67-0.12c4.159,0.026,7.551-3.325,7.577-7.483
	c0.005-0.793-0.115-1.582-0.357-2.337c-0.554-1.738-1.729-3.212-3.3-4.14c-5.5-2.87-11.22-5.31-16.81-8
	c-3.459-1.511-6.801-3.276-10-5.28c-12.89-8.87-13.57-27.28-1.58-37.58c5.081-4.216,11.013-7.286,17.39-9
	c0.902-0.221,1.823-0.361,2.75-0.42c0.5-0.03,1-0.03,1.5,0L175.57,89.67z"/>
<path class="st2" d="M110,207.45c0-3.65,0-7.29,0-10.94c0-1.51,0.43-1.88,1.89-1.45c2.91,0.85,4.66,3.15,4.83,6.57
	c0.07,1.55-0.42,3.8,0.4,4.47c1.53,0.74,3.09,0.36,4.71,0.45h1c1.673,0.109,3.352,0.008,5-0.3c1-0.79,0.52-3.48,0.68-5.33
	c0.256-2.864,2.306-5.248,5.1-5.93c1.11-0.25,1.64,0,1.64,1.19c0,7.43,0.08,14.87-0.07,22.3c0.051,2.833-1.807,5.347-4.53,6.13
	c-1.48,0.51-2.26,0.36-2.17-1.52c0.13-2.63,0-5.29,0.06-7.93c0-1.32-0.41-1.73-1.71-1.69c-2.86,0.08-5.72,0.06-8.58,0
	c-1.1,0-1.51,0.35-1.48,1.47c0.06,2.78-0.06,5.58,0,8.36c0.06,1.49-0.61,1.69-1.8,1.46c-2.914-0.626-4.996-3.2-5-6.18
	c-0.09-3.72,0-7.44,0-11.15L110,207.45z"/>
<path class="st2" d="M231.18,218.4c2.15,0,4.29,0,6.44,0s3.33-1.06,3.18-2.66c-0.17-1.85-1.39-2.51-3.12-2.49s-3.44,0-5.15,0
	c-5.19-0.07-9.15-3.78-9.3-8.71c-0.383-4.956,3.325-9.283,8.281-9.666c0.156-0.012,0.313-0.02,0.469-0.024
	c3.79-0.18,7.58,0,11.37-0.09c1.56,0,1.6,0.73,1.41,1.83c-0.43,2.5-3.22,4.77-6.08,4.88c-1.72,0.07-3.43,0-5.15,0
	c-2.42,0-3.5,0.8-3.53,2.48s1.06,2.54,3.63,2.59c2.072-0.037,4.145,0.036,6.21,0.22c4.496,0.679,7.801,4.573,7.74,9.12
	c0,4.44-3.34,8.55-7.69,8.93c-3.698,0.275-7.412,0.275-11.11,0c-2.736-0.289-4.94-2.374-5.38-5.09c-0.2-1,0-1.42,1.13-1.39
	C226.75,218.45,229,218.4,231.18,218.4z"/>
<path class="st2" d="M195.66,206.05c0-3.21-0.06-6.43-0.11-9.65c0-1.42,0.53-1.71,1.82-1.39c2.68,0.65,4.35,2.87,4.89,6.6
	c0.13,0.589,0.304,1.167,0.52,1.73c0.543-0.326,1.059-0.698,1.54-1.11c1.89-1.84,3.71-3.76,5.62-5.59c2.03-2.058,5.201-2.471,7.69-1
	c1.08,0.61,1.48,1.06,0.34,2.14c-3.41,3.24-6.69,6.64-10.09,9.91c-0.9,0.86-0.83,1.33,0,2.17c4,3.89,7.86,7.91,11.87,11.78
	c1.21,1.16,1,1.74-0.3,2.5c-2.556,1.653-5.93,1.231-8-1c-2.53-2.42-5-4.94-7.46-7.39c-0.372-0.269-0.783-0.479-1.22-0.62
	c-0.116,0.395-0.193,0.8-0.23,1.21c0,2.35-0.09,4.72,0,7.07c0.06,1.46-0.58,1.7-1.81,1.48c-2.929-0.574-5.032-3.156-5-6.14
	c-0.05-4.21-0.11-8.42-0.11-12.64L195.66,206.05z"/>
<path class="st2" d="M181.29,194.79c3.962,0.152,7.711,1.833,10.46,4.69c1,1,0.82,1.63-0.19,2.38c-2.09,1.55-4.23,1.52-6.68,0.79
	c-1.99-0.702-4.113-0.944-6.21-0.71c-4.69,0.87-7.31,5.73-6,10.38c1.322,4.451,5.996,6.991,10.45,5.68c0.68-0.21,1.31-0.6,2-0.76
	c1-0.25,2.2-0.73,3.11-0.45c1.472,0.578,2.88,1.309,4.2,2.18c-0.738,1.081-1.582,2.086-2.52,3c-5.28,4.21-12.35,4.27-18.13,0.28
	c-5-3.45-7.37-10.61-5.54-16.57C168.259,199.094,174.403,194.648,181.29,194.79z"/>
<path class="st2" d="M151.35,209.89c-1.45,3.05-2.7,5.66-4,8.51c1.62,0,3,0,4.29,0c1.12-0.06,1.34,0.45,1.17,1.43
	c-0.39,2.25-2.52,4.78-4.77,5c-3.48,0.28-7,0.26-10.49,0.28c-1.64,0-0.75-1-0.46-1.57c2.34-4.73,4.72-9.45,7.08-14.18
	s4.73-9.44,7.19-14.38c0.38,0.63,0.67,1.06,0.9,1.52c4.45,8.88,8.84,17.78,13.36,26.62c1,1.87,0.4,2-1.35,2
	c-3.56,0-6.12-1.18-7.61-4.68S153.26,213.69,151.35,209.89z"/>
<path class="st3" d="M327.93,209L342,225.28l-21.27,7.09V194.2l-6.19-1.08l-0.07-3.84c0,0,15.21-1.79,17.89-3.58L327.93,209z"/>
<path class="st4" d="M320.77,232.37v7c-91.23,47.41-186.5,51.79-280,0.9v-9.67l7.58,1.46v-30.48c69.43,44.18,188.74,44,266.27-3.47
	l0.56,36.11L320.77,232.37z"/>
<path class="st4" d="M320.77,194.2v38.17l-5.56,1.85l-0.56-36.11C316.72,196.84,318.76,195.53,320.77,194.2z"/>
<path class="st5" d="M320.77,194.2c-2,1.33-4,2.64-6.12,3.91l-0.07-5L320.77,194.2z"/>
<path class="st4" d="M48.38,201.58v30.48l-7.58-1.46v-34.16C43.253,198.22,45.78,199.933,48.38,201.58z"/>
<path class="st5" d="M48.38,194.2v7.38c-2.6-1.647-5.127-3.36-7.58-5.14L48.38,194.2z"/>
<path class="st3" d="M48.38,190.3v3.9l-7.58,2.24v34.16l-20.14-3.9l13.88-16.85l-6.26-22.36C31,189.28,48.38,190.3,48.38,190.3z"/>
<g class="st6">
	<path class="st0" d="M84.046,235l-5.28-1.876l-0.859,1.585c0.252,0.06,0.483,0.115,0.692,0.167c0.21,0.051,0.422,0.116,0.639,0.192
		c0.769,0.273,1.436,0.662,2.001,1.166c0.563,0.505,0.999,1.078,1.304,1.717c0.304,0.641,0.474,1.338,0.509,2.095
		c0.035,0.756-0.087,1.526-0.365,2.309c-0.292,0.823-0.707,1.511-1.245,2.064c-0.539,0.552-1.167,0.964-1.885,1.232
		c-0.719,0.269-1.521,0.387-2.404,0.353c-0.885-0.032-1.812-0.221-2.783-0.566c-0.918-0.326-1.751-0.747-2.502-1.265
		c-0.75-0.518-1.408-1.135-1.974-1.852l1.91-3.516c0.468,0.821,0.999,1.507,1.593,2.059c0.593,0.553,1.206,0.942,1.841,1.168
		c0.809,0.287,1.527,0.295,2.155,0.025c0.628-0.271,1.057-0.729,1.287-1.378c0.269-0.756,0.168-1.478-0.301-2.168
		c-0.469-0.691-1.216-1.218-2.24-1.582c-0.459-0.163-0.949-0.279-1.47-0.353c-0.521-0.071-1.057-0.082-1.605-0.034l4.186-7.741
		l7.991,2.839L84.046,235z"/>
</g>
<g class="st6">
	<path class="st0" d="M84.85,240.771l5.889,1.815l-0.955,3.099l-5.889-1.814L84.85,240.771z"/>
</g>
<g class="st6">
	<path class="st0" d="M95.665,243.527l-3.538-9.698L97,235.136l1.765,5.071l4.046-3.514l4.873,1.306l-7.937,6.623l-2.021,7.539
		l-4.082-1.095L95.665,243.527z"/>
</g>
<g class="st6">
	<path class="st0" d="M107.693,249.527c-0.352,1.643,0.244,2.628,1.787,2.959c0.827,0.177,1.523-0.025,2.088-0.609l3.683,0.789
		c-1.273,2.31-3.396,3.146-6.37,2.509c-0.911-0.195-1.717-0.511-2.416-0.947s-1.265-0.964-1.696-1.585
		c-0.432-0.62-0.72-1.312-0.864-2.078c-0.144-0.764-0.124-1.581,0.063-2.451c0.192-0.896,0.506-1.677,0.941-2.34
		c0.436-0.662,0.967-1.189,1.595-1.584c0.625-0.393,1.338-0.648,2.133-0.764c0.795-0.116,1.655-0.074,2.581,0.124
		c0.912,0.195,1.703,0.508,2.374,0.938s1.203,0.958,1.597,1.585c0.394,0.628,0.644,1.346,0.749,2.153
		c0.105,0.808,0.058,1.681-0.144,2.62l-0.086,0.4L107.693,249.527z M112.627,248.274c-0.012-0.56-0.18-1.043-0.503-1.45
		c-0.325-0.406-0.767-0.67-1.327-0.791c-0.589-0.126-1.104-0.074-1.541,0.155c-0.438,0.229-0.766,0.612-0.984,1.153L112.627,248.274
		z"/>
</g>
<g class="st6">
	<path class="st0" d="M127.483,247.064l3.854,0.64l-1.803,10.865l-3.854-0.64l0.2-1.208c-0.99,0.896-2.184,1.227-3.582,0.995
		c-0.79-0.131-1.493-0.397-2.109-0.797s-1.127-0.901-1.534-1.506c-0.408-0.604-0.69-1.282-0.85-2.034
		c-0.157-0.752-0.168-1.544-0.029-2.377c0.129-0.776,0.385-1.492,0.77-2.147c0.384-0.653,0.86-1.202,1.427-1.645
		s1.207-0.761,1.921-0.956c0.714-0.193,1.474-0.223,2.278-0.089c1.355,0.225,2.399,0.885,3.133,1.978L127.483,247.064z
		 M121.759,251.663c-0.059,0.354-0.05,0.691,0.026,1.017c0.077,0.325,0.206,0.618,0.388,0.881c0.181,0.262,0.412,0.481,0.695,0.659
		c0.282,0.178,0.601,0.295,0.953,0.354c0.339,0.057,0.671,0.047,0.995-0.03c0.325-0.077,0.615-0.21,0.872-0.399
		c0.256-0.189,0.477-0.422,0.659-0.696c0.184-0.274,0.304-0.579,0.359-0.919c0.057-0.34,0.043-0.671-0.041-0.998
		c-0.084-0.326-0.217-0.619-0.397-0.882c-0.182-0.262-0.414-0.481-0.696-0.66c-0.282-0.177-0.593-0.294-0.932-0.351
		c-0.354-0.059-0.692-0.049-1.017,0.027c-0.325,0.078-0.615,0.211-0.871,0.4c-0.257,0.19-0.473,0.418-0.647,0.687
		C121.93,251.021,121.814,251.325,121.759,251.663z"/>
</g>
<g class="st6">
	<path class="st0" d="M133.904,248.016l3.856,0.481l-0.223,1.788c0.493-0.602,1.06-1.038,1.7-1.313
		c0.64-0.273,1.357-0.36,2.153-0.261c0.099,0.012,0.209,0.025,0.33,0.041c0.121,0.015,0.258,0.046,0.41,0.095l-0.459,3.686
		c-0.479-0.319-1.018-0.517-1.614-0.591c-0.895-0.112-1.599,0.071-2.113,0.549c-0.514,0.475-0.834,1.226-0.962,2.248l-0.584,4.688
		l-3.856-0.481L133.904,248.016z"/>
</g>
<g class="st6">
	<path class="st0" d="M160.781,258.738l-6.001-0.355l-1.131,2.751l-4.479-0.266l7.108-15.796l4.587,0.272l5.194,16.524l-4.479-0.266
		L160.781,258.738z M159.856,255.479l-1.568-5.491l-2.204,5.268L159.856,255.479z"/>
</g>
<g class="st6">
	<path class="st0" d="M168.34,250.861l3.886,0.042l-0.015,1.396c0.537-0.639,1.078-1.065,1.625-1.282
		c0.545-0.216,1.184-0.319,1.914-0.312c0.773,0.009,1.434,0.141,1.982,0.396c0.548,0.257,1.014,0.617,1.395,1.079
		c0.311,0.375,0.521,0.793,0.63,1.252c0.11,0.459,0.161,0.982,0.155,1.569L179.835,262l-3.886-0.042l0.06-5.56
		c0.006-0.544-0.029-0.985-0.104-1.321c-0.076-0.337-0.212-0.607-0.411-0.811c-0.169-0.174-0.361-0.297-0.575-0.371
		c-0.214-0.074-0.443-0.111-0.686-0.114c-0.659-0.007-1.165,0.184-1.52,0.573c-0.355,0.39-0.536,0.95-0.544,1.68l-0.063,5.882
		l-3.886-0.042L168.34,250.861z"/>
</g>
<g class="st6">
	<path class="st0" d="M182.553,250.959l3.885-0.126l0.045,1.395c0.508-0.662,1.03-1.11,1.567-1.351
		c0.536-0.24,1.169-0.371,1.898-0.395c0.772-0.025,1.438,0.078,1.997,0.311s1.04,0.571,1.44,1.017
		c0.327,0.362,0.555,0.771,0.685,1.224c0.129,0.454,0.203,0.975,0.223,1.562l0.227,6.995l-3.884,0.126l-0.18-5.558
		c-0.019-0.544-0.072-0.982-0.161-1.316c-0.09-0.332-0.238-0.596-0.445-0.791c-0.177-0.166-0.374-0.281-0.591-0.346
		c-0.218-0.064-0.447-0.093-0.69-0.085c-0.658,0.021-1.156,0.234-1.494,0.64c-0.338,0.404-0.494,0.972-0.471,1.701l0.191,5.88
		l-3.885,0.126L182.553,250.959z"/>
</g>
<g class="st6">
	<path class="st0" d="M196.269,246.162c-0.019-0.301,0.022-0.586,0.121-0.859c0.099-0.27,0.241-0.513,0.431-0.725
		c0.188-0.213,0.411-0.384,0.67-0.516c0.258-0.129,0.537-0.203,0.838-0.221c0.3-0.019,0.586,0.021,0.857,0.119
		c0.271,0.1,0.514,0.243,0.727,0.432c0.213,0.188,0.383,0.412,0.514,0.668c0.131,0.26,0.205,0.538,0.223,0.839
		c0.019,0.301-0.021,0.587-0.121,0.858c-0.098,0.271-0.242,0.514-0.43,0.727c-0.188,0.212-0.412,0.383-0.67,0.514
		s-0.537,0.205-0.838,0.223c-0.301,0.019-0.586-0.021-0.857-0.121c-0.272-0.099-0.514-0.242-0.727-0.43
		c-0.213-0.188-0.384-0.412-0.515-0.67C196.361,246.742,196.287,246.463,196.269,246.162z M200.666,250.143l0.661,11.016
		l-3.886,0.232l-0.661-11.014L200.666,250.143z"/>
</g>
<g class="st6">
	<path class="st0" d="M206.449,249.618l3.184,5.386l2.098-5.914l4.337-0.434l-4.632,11.588l-2.598,0.26l-6.77-10.448
		L206.449,249.618z"/>
</g>
<g class="st6">
	<path class="st0" d="M221.113,254.266c0.231,1.659,1.127,2.38,2.687,2.162c0.836-0.116,1.419-0.545,1.75-1.285l3.721-0.52
		c-0.403,2.6-2.107,4.11-5.112,4.529c-0.922,0.129-1.783,0.108-2.588-0.062c-0.805-0.169-1.515-0.473-2.132-0.905
		c-0.617-0.434-1.124-0.984-1.521-1.652c-0.396-0.667-0.656-1.439-0.779-2.319c-0.127-0.907-0.1-1.746,0.082-2.516
		c0.182-0.769,0.499-1.446,0.952-2.029c0.454-0.584,1.033-1.066,1.739-1.445c0.705-0.38,1.525-0.637,2.461-0.767
		c0.922-0.129,1.771-0.106,2.546,0.067c0.775,0.172,1.456,0.486,2.039,0.939c0.584,0.453,1.063,1.04,1.438,1.761
		c0.375,0.722,0.629,1.557,0.762,2.506l0.057,0.403L221.113,254.266z M225.31,251.404c-0.203-0.521-0.525-0.917-0.968-1.188
		c-0.443-0.271-0.948-0.367-1.515-0.288c-0.596,0.084-1.06,0.309-1.392,0.673s-0.508,0.836-0.528,1.418L225.31,251.404z"/>
</g>
<g class="st6">
	<path class="st0" d="M230.502,246.646l3.824-0.688l0.319,1.773c0.292-0.722,0.702-1.308,1.232-1.76
		c0.529-0.45,1.188-0.747,1.978-0.89c0.099-0.018,0.208-0.037,0.327-0.059c0.12-0.021,0.26-0.032,0.421-0.031l0.656,3.655
		c-0.553-0.163-1.125-0.19-1.717-0.084c-0.888,0.159-1.506,0.543-1.854,1.151c-0.349,0.607-0.432,1.42-0.249,2.434l0.835,4.649
		l-3.824,0.688L230.502,246.646z"/>
</g>
<g class="st6">
	<path class="st0" d="M248,246.08c-0.78-0.214-1.506-0.249-2.18-0.105c-0.351,0.076-0.619,0.207-0.807,0.393
		c-0.188,0.188-0.256,0.4-0.205,0.639c0.027,0.126,0.066,0.225,0.119,0.295c0.051,0.069,0.144,0.126,0.278,0.17
		c0.134,0.045,0.323,0.07,0.566,0.076c0.244,0.008,0.564,0.012,0.961,0.016c1.097-0.016,1.962,0.191,2.598,0.62
		c0.634,0.429,1.042,1.063,1.222,1.905c0.136,0.631,0.131,1.227-0.013,1.785c-0.145,0.561-0.404,1.06-0.779,1.5
		c-0.376,0.439-0.858,0.822-1.449,1.146c-0.591,0.325-1.265,0.569-2.022,0.731c-1.459,0.312-2.984,0.207-4.579-0.318l0.812-2.99
		c1.223,0.501,2.311,0.649,3.265,0.445c0.351-0.075,0.621-0.215,0.813-0.416c0.19-0.203,0.262-0.423,0.21-0.661
		c-0.03-0.141-0.073-0.253-0.127-0.337c-0.055-0.083-0.146-0.151-0.274-0.204c-0.13-0.054-0.31-0.089-0.54-0.106
		c-0.231-0.016-0.53-0.021-0.896-0.017c-1.229,0.015-2.129-0.163-2.699-0.532c-0.571-0.369-0.945-0.967-1.122-1.795
		c-0.13-0.604-0.134-1.171-0.013-1.703s0.355-1.012,0.704-1.438s0.801-0.796,1.358-1.104c0.557-0.311,1.2-0.544,1.93-0.7
		c1.191-0.255,2.398-0.272,3.621-0.05L248,246.08z"/>
</g>
<g class="st6">
	<path class="st0" d="M259.034,240.311l3.79-1.017l2.864,10.683l-3.791,1.016l-0.317-1.186c-0.534,1.229-1.488,2.027-2.863,2.396
		c-0.777,0.208-1.531,0.258-2.259,0.149c-0.729-0.11-1.405-0.357-2.029-0.74s-1.163-0.887-1.62-1.508s-0.795-1.342-1.015-2.16
		c-0.205-0.766-0.268-1.525-0.188-2.283c0.079-0.758,0.286-1.457,0.621-2.098c0.334-0.641,0.787-1.196,1.36-1.671
		c0.572-0.473,1.254-0.815,2.045-1.028c1.333-0.357,2.562-0.187,3.686,0.508L259.034,240.311z M255.709,246.894
		c0.093,0.347,0.242,0.652,0.447,0.917c0.205,0.266,0.444,0.48,0.719,0.645c0.275,0.164,0.579,0.27,0.91,0.314
		c0.333,0.045,0.672,0.021,1.02-0.072c0.333-0.09,0.632-0.236,0.897-0.441c0.265-0.205,0.475-0.447,0.63-0.729
		c0.156-0.279,0.261-0.581,0.314-0.91c0.055-0.326,0.036-0.656-0.053-0.989c-0.09-0.333-0.24-0.632-0.452-0.896
		c-0.212-0.262-0.455-0.477-0.729-0.641c-0.275-0.164-0.578-0.269-0.91-0.314c-0.333-0.044-0.665-0.021-0.998,0.067
		c-0.348,0.093-0.653,0.242-0.918,0.446c-0.266,0.206-0.477,0.449-0.631,0.729c-0.156,0.279-0.258,0.578-0.307,0.896
		S255.619,246.56,255.709,246.894z"/>
</g>
<g class="st6">
	<path class="st0" d="M265.283,238.606l3.707-1.17l0.542,1.719c0.198-0.752,0.53-1.386,0.998-1.902
		c0.468-0.515,1.084-0.893,1.849-1.134c0.096-0.03,0.201-0.063,0.316-0.101c0.116-0.036,0.254-0.064,0.413-0.085l1.118,3.542
		c-0.568-0.091-1.141-0.046-1.714,0.135c-0.86,0.271-1.424,0.731-1.692,1.38c-0.269,0.646-0.247,1.462,0.062,2.444l1.423,4.505
		l-3.706,1.17L265.283,238.606z"/>
</g>
<g class="st6">
	<path class="st0" d="M282.47,242.906l-8.321-7.041l4.223-1.58l4.734,4.256l0.695-6.289l4.183-1.564l-2.497,18.562l-4.082,1.527
		L282.47,242.906z"/>
</g>
</svg>
