<?xml version="1.0" encoding="utf-8"?>
<!-- Generator: Adobe Illustrator 22.1.0, SVG Export Plug-In . SVG Version: 6.00 Build 0)  -->
<svg version="1.1" id="Layer_1" xmlns="http://www.w3.org/2000/svg" xmlns:xlink="http://www.w3.org/1999/xlink" x="0px" y="0px"
	 viewBox="0 0 923 141" style="enable-background:new 0 0 923 141;" xml:space="preserve">
<style type="text/css">
	.st0{fill:#979797;}
</style>
<g>
	<g>
		<path class="st0" d="M115.4,29.2c0-8.4,0.1-16.9,0-25.3c0-2.2,0.6-2.8,2.8-2.8c16.8,0.2,33.6,0,50.3,0.4
			c35.8,0.7,56.3,30.8,59,54.6c1.6,14,1.3,27.9-3.1,41.4c-7.4,23-23.2,36.4-46.7,40.4c-9.2,1.6-18.7,1.7-28,2
			c-10.5,0.3-21.1-0.1-31.6,0c-2.3,0-2.7-0.9-2.7-2.9c0.1-8.2,0.1-16.5,0-24.7c0-2.4,0.6-3.2,3.1-3.2c12.5,0.1,25,0.2,37.6,0
			c4.8-0.1,9.6-0.5,14.3-1.4c12.4-2.4,20-10,23-22.2c3.5-14.3,2-27.9-5.8-40.6c-5.1-8.2-12.5-12.7-22.3-12.7
			c-6.4,0-12.7,0.1-19.1-0.1c-2.2-0.1-2.6,0.8-2.5,2.7c0.1,6.5,0,12.9,0.1,19.4c0,2.2-0.3,3.1-2.8,3c-7.6-0.2-15.2-0.1-22.8,0
			c-2.1,0-2.6-0.7-2.6-2.7C115.4,46.1,115.4,37.7,115.4,29.2z"/>
		<path class="st0" d="M105.8,1.6c-4.5,5-8.5,9.4-12.4,13.8c-3.3,3.6-6.7,7.1-9.9,10.8c-1.7,1.9-3.6,2.6-6,2.6c-8,0-16.1,0-24.1,0.1
			c-4.7,0.1-8.1,2.5-10.4,6.4c-2.9,5-1.9,9.1,3.2,11.8c8.7,4.5,17.6,8.6,26.2,13.2c4.5,2.4,8.9,5.1,13.1,7.9
			C99,77.4,102.6,90.7,99.9,106c-3.5,19-17.7,31.3-37.6,33.1c-2.7,0.2-5.4,0.5-8.1,0.6c-17.9,0-35.8,0-54.2,0c0.5-0.9,0.8-1.5,1.2-2
			c6.9-8.3,13.9-16.6,20.8-25c1.6-2,3.5-2.7,5.9-2.7c9.1,0,18.2,0.2,27.2-0.2c7.7-0.3,12.6-6.9,10.5-14.3c-0.6-2.3-2.7-4.9-4.8-6
			c-8-4.2-16.4-7.7-24.5-11.7c-5-2.4-10.1-4.6-14.6-7.7C2.9,57.1,1.9,30.3,19.4,15.3C26.8,8.9,35.5,4.9,44.8,2.2
			c1.3-0.4,2.7-0.5,4-0.6c0.7-0.1,1.5,0,2.2,0C68.9,1.6,86.8,1.6,105.8,1.6z"/>
	</g>
	<path class="st0" d="M309.2,58.2c0-16.7,0.2-33.4-0.1-50c-0.1-6.9,2-8.6,8.6-6.6c13.3,3.9,21.4,14.4,22.1,30.1
		c0.3,7.1-1.9,17.4,1.8,20.5c7,3.4,14.1,1.6,21.6,2.1c0.7,0,3.9,0,4.6,0c8.8-0.1,16.1,0.6,23-1.4c4.6-3.6,2.4-15.9,3.1-24.4
		c1.1-13.2,10.9-24.3,23.3-27.1c5.1-1.1,7.5,0,7.5,5.4c-0.1,34,0.4,68.1-0.3,102.1c-0.3,13.4-7.3,23.4-20.7,28.1
		c-6.8,2.3-10.3,1.6-9.9-6.9c0.6-12.1-0.1-24.2,0.3-36.3c0.2-6.1-1.9-7.9-7.8-7.8c-13.1,0.4-26.2,0.3-39.2,0
		c-5.1-0.1-6.9,1.6-6.8,6.7c0.3,12.7-0.3,25.5,0.2,38.3c0.3,6.8-2.8,7.7-8.3,6.7c-12.6-2.4-22.4-14-22.8-28.3
		C309,92.3,309.3,75.3,309.2,58.2C309.3,58.2,309.2,58.2,309.2,58.2z"/>
	<path class="st0" d="M847.9,108.4c9.8,0,19.6,0.1,29.4,0c9.5-0.2,15.2-4.9,14.6-12.2c-0.8-8.5-6.3-11.5-14.3-11.4
		c-7.9,0.1-15.7,0.1-23.6,0c-23.7-0.3-41.8-17.3-42.6-39.9c-0.8-24.3,15.9-43.2,40.1-44.3c17.3-0.8,34.7,0.1,52-0.4
		c7.2-0.2,7.3,3.4,6.5,8.4c-2,11.4-14.8,21.8-27.9,22.3c-7.8,0.3-15.7,0-23.6,0.1c-11.1,0.1-16,3.7-16.2,11.4
		c-0.2,8.1,4.9,11.6,16.6,11.8c9.5,0.2,19-0.2,28.4,1c20.3,2.6,35.6,21,35.5,41.8c-0.1,20.3-15.3,39.1-35.2,40.9
		c-16.8,1.5-34,1.2-50.9,0.1c-12.7-0.8-22.2-11.2-24.6-23.3c-0.9-4.7,0.1-6.5,5.2-6.3C827.6,108.6,837.8,108.4,847.9,108.4z"/>
	<path class="st0" d="M689.9,51.9c0-14.7-0.2-29.4-0.5-44.2c-0.1-6.5,2.4-7.8,8.4-6.4c12.2,3,19.9,13.1,22.4,30.2
		c0.4,2.7,1.6,5.3,2.4,7.9c2.4-1.7,5-3.1,7-5.1c8.7-8.4,17-17.2,25.8-25.6c10.2-9.7,23.5-11.2,35.2-4.7c4.9,2.8,6.8,4.8,1.6,9.8
		c-15.6,14.9-30.6,30.4-46.2,45.4c-4.1,3.9-3.8,6.1,0.1,9.9c18.2,17.8,36,36.2,54.3,53.9c5.5,5.3,4.5,8-1.4,11.5
		c-12.3,7.3-25.5,6-36.7-4.7c-11.6-11.1-22.7-22.6-34.1-33.9c-1.4-1.4-3.7-1.9-5.6-2.8c-0.4,1.8-1.1,3.7-1.1,5.5
		c-0.1,10.8-0.4,21.6,0.1,32.4c0.3,6.7-2.7,7.8-8.3,6.8c-12.7-2.2-22.5-13.9-22.7-28.1C690.2,90.4,689.9,71.1,689.9,51.9
		C689.6,51.9,690.2,51.9,689.9,51.9z"/>
	<path class="st0" d="M627.9,0.3c17.2,0.9,34.1,7.2,47.9,21.4c4.4,4.5,3.7,7.5-0.9,10.9c-9.6,7.1-19.4,6.9-30.5,3.6
		c-9.1-2.7-19.4-4.9-28.4-3.2c-21.4,4-33.5,26.2-27.6,47.5c5.6,20.2,27.6,32.1,48,26c3.1-0.9,6-2.7,9.1-3.5
		c4.7-1.1,10.1-3.3,14.2-2.1c6.8,2,12.8,6.5,19.2,10c-3.8,4.6-7,10-11.5,13.6c-24.2,19.3-56.5,19.6-82.9,1.3
		C561.6,110.1,550.6,77.3,559,50C568.2,20.3,595.2,0.2,627.9,0.3z"/>
	<path class="st0" d="M494.5,69.4c-6.6,14-12.3,25.9-18.5,39c7.4,0,13.5,0.2,19.7-0.1c5.1-0.3,6.1,2.1,5.3,6.5
		c-1.8,10.3-11.5,21.9-21.8,22.7c-15.9,1.3-32,1.2-48,1.3c-7.5,0.1-3.4-4.5-2.1-7.2c10.7-21.7,21.6-43.3,32.4-64.9
		C472.2,45.2,483,23.6,494.3,1c1.7,2.9,3.1,4.8,4.1,7c20.3,40.6,40.5,81.4,61.1,121.8c4.4,8.6,1.8,9.3-6.2,9.4
		c-16.3,0.1-28-5.4-34.8-21.4C511.8,101.9,503.2,86.8,494.5,69.4z"/>
</g>
</svg>
