<?xml version="1.0" encoding="utf-8"?>
<!-- Generator: Adobe Illustrator 22.1.0, SVG Export Plug-In . SVG Version: 6.00 Build 0)  -->
<svg version="1.1" id="Layer_1" xmlns="http://www.w3.org/2000/svg" xmlns:xlink="http://www.w3.org/1999/xlink" x="0px" y="0px"
	 viewBox="0 0 2192 998.2" style="enable-background:new 0 0 2192 998.2;" xml:space="preserve">
<style type="text/css">
	.st0{fill:#FBFFA5;}
	.st1{fill:#6DB5CF;}
	.st2{fill:#4592AD;}
	.st3{opacity:0.31;}
	.st4{fill:#784228;}
	.st5{fill:#955D36;}
	.st6{fill:#8F5A2C;}
	.st7{fill:#A26735;}
	.st8{opacity:0.16;enable-background:new    ;}
	.st9{fill:#997A61;}
	.st10{fill:#CEA980;}
	.st11{fill:#C19D7A;}
	.st12{fill:#BE9C79;}
	.st13{fill:#AF8E71;}
	.st14{fill:#8E705B;}
	.st15{fill:#B48A66;}
	.st16{fill:#A57856;}
	.st17{fill:#AF8F77;}
	.st18{fill:#1A1A1A;}
	.st19{fill:#333333;}
	.st20{fill:#D6D0C3;}
	.st21{fill:#AA8166;}
	.st22{fill:#7E979C;}
	.st23{opacity:0.17;enable-background:new    ;}
	.st24{fill:#666666;}
	.st25{fill:#808080;}
	.st26{fill:#F2F2F2;}
	.st27{fill:#4D4D4D;}
</style>
<g id="Layer_1_1_">
	<circle class="st0" cx="952.8" cy="222.3" r="222.3"/>
	<g id="XMLID_5_">
		<g>
			<path class="st1" d="M1956.5,816.6c90.3-6.7,180.6,6.7,269.6,22.1l16,3245.4H-8.2l-16-3237.6c158.2-5.2,608-13.4,651-17.5
				c49.5-4.7,99.5-9.5,149-4.6c37.5,3.7,73.9,12.9,111.4,16.2c50.9,4.5,102.1-1.9,153-6.2c210.6-18,423.1-1.2,634.8,2.2
				c47.5,0.8,95.2,0.9,142.4-3.5C1864.1,828.9,1909.9,820.1,1956.5,816.6z"/>
			<path class="st2" d="M2226.1,838.7c-89-15.4-179.3-28.8-269.6-22.1c-46.6,3.4-92.4,12.2-138.9,16.6c-47.2,4.4-94.9,4.3-142.4,3.5
				c-210.8-3.5-423.2-20.3-634.8-2.2c-50.9,4.3-102.1,10.7-153,6.2c-37.5-3.4-74-12.5-111.4-16.2c-49.5-4.9-99.5-0.2-149,4.6
				c-42.9,4.1-492.7,12.3-651,17.5l-10.9-577.9c0,0,11.2-6.9,31.9-9c22-2.2,43.9,9,90.6,9c27.4,0,72.8-13.2,96.1-15.7
				c41.2-4.5,90.6,2.2,120.7,11.2c61.9,18.4,76.8,15.7,112.5,15.7c24.7,0,109.2-19,150.9-22.4c27.4-2.2,96.1,9,129,11.2
				c32.9,2.2,57.6-13.4,112.5-17.9c52.5-4.3,85.1,20.2,148.2,22.4c63.1,2.2,121.2-13.1,150.9-17.9c27.4-4.5,46.6,15.7,82.3,13.4
				c35.7-2.2,74.1-9,102.2-10.4c28.1-1.5,65.2,6,89.9,10.4c24.7,4.4,71.4-2.2,99.8-10.4s106.1,3.7,141.7,8.2s63.1-15.7,98.1-15.7
				s83,20.2,111.6,13.2c28.5-6.9,51-13.2,75.7-13.2s65.9,2.2,87.8,6.7c22,4.5,68.1-4.3,87.8-6.7c35.7-4.5,46.7,4.5,76.8,6.7
				c30.1,2.2,54.9-5.6,54.9-5.6L2226.1,838.7z"/>
		</g>
	</g>
	<g>
		<g class="st3">
			<g id="XMLID_1_">
				<g>
					<path class="st0" d="M1218,266.3c-11.6,25.9-27.8,52.2-58.8,61.2c-29.8,8.5-62.3-2.4-93.8-1.2c-28.4,1.1-54.7,11.9-81.9,18.7
						s-59.5,8.7-81.6-6c-8.2-5.4-14.3-12.7-22.8-17.7c-24.7-14.9-59.1-6.6-89.8-7.8c-36.6-1.6-71.3-19.1-90.4-44.6
						c27.7,1.2,50.1-10.1,90.8-15.9c1.8-0.2,3.6-0.5,5.5-0.7c4.4-0.6,9-1.1,13.8-1.5c10.7-0.9,20.5-0.6,29.9,0.5
						c4.8,0.6,9.4,1.3,14.1,2.1c31.3,5.9,60.4,18.1,104.2,19.7c62.3,2.2,119.7-12.7,149.8-17.7c0.4-0.1,0.8-0.2,1.2-0.2
						c6.5-1.1,12.6-0.7,18.5,0.3c19,3.5,36.6,14.8,63.8,13.1C1199.7,268.1,1208.9,267.3,1218,266.3z"/>
					<path class="st0" d="M1407.2,270c3.2,30.3,4.2,61.5-11.2,88.9c-8.3,14.7-21,27.8-26.6,43.3c-5.9,16.4-3.3,34.3-9.7,50.4
						c-10.2,25.7-41.4,42.3-73.3,49.2s-65.4,5.7-98.3,7.4c-41.9,2.2-83.5,9.2-123.1,20.5c-30.2,8.7-60.4,20.1-92.5,20.1
						c-17.4,0-34.6-3.4-51.5-6.8c-69.3-13.9-138.5-27.8-207.8-41.7c-51.4-10.3-107.4-23.1-137.4-58.9c-12.3-14.6-19-32-28.6-47.9
						c-15.7-25.9-39.1-48.2-56.4-73.5c-10.2-14.9-18.2-31.7-20.6-48.6c33.3-5.7,72.8-13.2,97.4-15.2c10.2-0.8,26,0.2,43.6,1.9
						c-18.5,12-20.5,37.1-10.8,55.7c10.8,20.6,31.6,36.6,46.1,55.7c4.8,6.3,8.9,12.9,15,18.4c15.9,14.4,41.9,18,65.6,17.2
						c23.7-0.8,47.4-5.1,71-2.8c19.2,1.9,37.3,8,55.8,12.4c44,10.5,91.3,11.3,135.8,2.3c48.8-9.8,94.8-31.2,145-31.6
						c19.1-0.2,38.7,2.7,57.1-1.5c13.8-3.1,25.7-10.1,37.2-16.9c26.3-15.8,53-33.8,64.2-58.9c7.3-16.3,7.3-33.8,5.5-51.2
						c27.2-0.2,61,6.4,84,10.6C1389.5,269.9,1398,270.3,1407.2,270z"/>
					<path class="st0" d="M611.3,259.4c29.8,2.9,64.7,7.8,85.4,9.3c0.8,0.1,1.5,0.1,2.3,0.1c19.2,25.4,53.8,43,90.4,44.6
						c30.7,1.2,65-6.9,89.8,7.8c8.5,5.1,14.6,12.3,22.8,17.7c22.1,14.6,54.3,12.7,81.6,6c27.3-6.7,53.5-17.7,81.9-18.7
						c31.5-1.2,64.1,9.7,93.8,1.2c31.1-8.9,47.2-35.2,58.8-61.2c27.1-2.9,53.8-6.9,74.8-8c1.9-0.1,3.9-0.2,5.9-0.2
						c1.8,17.4,1.8,34.9-5.5,51.2c-11.2,25.1-37.9,43.1-64.2,58.9c-11.5,6.9-23.5,13.8-37.2,16.9c-18.4,4.3-38,1.3-57.1,1.5
						c-50.2,0.4-96.2,21.8-145,31.6c-44.5,9-91.8,8.2-135.8-2.3c-18.5-4.4-36.7-10.5-55.8-12.4c-23.6-2.3-47.3,2-71,2.8
						c-23.7,0.8-49.7-2.8-65.6-17.2c-6-5.5-10.2-12.1-15-18.4c-14.5-19-35.3-35-46.1-55.7C590.8,296.5,592.8,271.3,611.3,259.4z"/>
				</g>
			</g>
		</g>
		<g class="st3">
			<g id="XMLID_7_">
				<g>
					<path class="st0" d="M1298.7,258.1c1.8,17.4,1.8,34.9-5.5,51.2c-11.2,25.1-37.9,43.1-64.2,58.9c-11.5,6.9-23.5,13.8-37.2,16.9
						c-18.4,4.3-38,1.3-57.1,1.5c-50.2,0.4-96.2,21.8-145,31.6c-44.5,9-91.8,8.2-135.8-2.3c-18.5-4.4-36.7-10.5-55.8-12.4
						c-23.6-2.3-47.3,2-71,2.8c-23.7,0.8-49.7-2.8-65.6-17.2c-6-5.5-10.2-12.1-15-18.4c-14.5-19-35.3-35-46.1-55.7
						c-9.7-18.6-7.7-43.7,10.8-55.7c29.8,2.9,64.7,7.8,85.4,9.3c0.8,0.1,1.5,0.1,2.3,0.1c19.2,25.4,53.8,43,90.4,44.6
						c30.7,1.2,65-6.9,89.8,7.8c8.5,5.1,14.6,12.3,22.8,17.7c22.1,14.6,54.3,12.7,81.6,6c27.3-6.7,53.5-17.7,81.9-18.7
						c31.5-1.2,64.1,9.7,93.8,1.2c31.1-8.9,47.2-35.2,58.8-61.2c27.1-2.9,53.8-6.9,74.8-8C1294.8,258.2,1296.7,258.1,1298.7,258.1z"
						/>
					<path class="st0" d="M1218,266.3c-11.6,25.9-27.8,52.2-58.8,61.2c-29.8,8.5-62.3-2.4-93.8-1.2c-28.4,1.1-54.7,11.9-81.9,18.7
						s-59.5,8.7-81.6-6c-8.2-5.4-14.3-12.7-22.8-17.7c-24.7-14.9-59.1-6.6-89.8-7.8c-36.6-1.6-71.3-19.1-90.4-44.6
						c27.7,1.2,50.1-10.1,90.8-15.9c1.8-0.2,3.6-0.5,5.5-0.7c4.4-0.6,9-1.1,13.8-1.5c10.7-0.9,20.5-0.6,29.9,0.5
						c4.8,0.6,9.4,1.3,14.1,2.1c31.3,5.9,60.4,18.1,104.2,19.7c62.3,2.2,119.7-12.7,149.8-17.7c0.4-0.1,0.8-0.2,1.2-0.2
						c6.5-1.1,12.6-0.7,18.5,0.3c19,3.5,36.6,14.8,63.8,13.1C1199.7,268.1,1208.9,267.3,1218,266.3z"/>
				</g>
			</g>
		</g>
		<g class="st3">
			<g id="XMLID_8_">
				<g>
					<path class="st0" d="M1218,266.3c-11.6,25.9-27.8,52.2-58.8,61.2c-29.8,8.5-62.3-2.4-93.8-1.2c-28.4,1.1-54.7,11.9-81.9,18.7
						s-59.5,8.7-81.6-6c-8.2-5.4-14.3-12.7-22.8-17.7c-24.7-14.9-59.1-6.6-89.8-7.8c-36.6-1.6-71.3-19.1-90.4-44.6
						c27.7,1.2,50.1-10.1,90.8-15.9c1.8-0.2,3.6-0.5,5.5-0.7c4.4-0.6,9-1.1,13.8-1.5c10.7-0.9,20.5-0.6,29.9,0.5
						c4.8,0.6,9.4,1.3,14.1,2.1c31.3,5.9,60.4,18.1,104.2,19.7c62.3,2.2,119.7-12.7,149.8-17.7c0.4-0.1,0.8-0.2,1.2-0.2
						c6.5-1.1,12.6-0.7,18.5,0.3c19,3.5,36.6,14.8,63.8,13.1C1199.7,268.1,1208.9,267.3,1218,266.3z"/>
				</g>
			</g>
		</g>
	</g>
	<g id="XMLID_2_">
		<g>
			<path class="st4" d="M761.5,542.2c37.2,13.7,110.1,44.1,118.1,44.1s92.9-5.9,100.9-3.9s119.5,13.7,124.8,17.6
				c5.3,3.9,50.4,19.6,50.4,19.6l124.8,2v5.9h-116.8c8,5.9,77,41.2,100.9,43.1c23.9,2,223,2,223,2s5.3,7.8,0,7.8
				s-254.9,3.9-276.1,5.9s-159.3,17.6-172.6,17.6s-233.7-7.8-233.7-7.8L776,717.8l18.6,15.7l-330.5,21.1L-0.5,726h-4V572.1h1
				l178.1,52.4l53.1-29.4h108.9c0,0-111.5-52.9-116.8-58.8c-3.9-4.3-14.7-16.8-33.6-36.1c0,0,214.1,24.4,222.1,24.4
				s31.9,21.6,31.9,21.6l148.6-9.7L557,510.9c0,0,239,15.7,244.3,15.7s134.1-53.9,134.1-57.8l18.6,21.6c0,0-122.1,58.8-146,56.9
				C784.7,545.2,762.8,542.4,761.5,542.2z M1169,672.6c0,0-63.7-19.6-66.4-23.6c-2.7-3.9-13.3-13.7-13.3-13.7H980.5
				c0,0,13.3,11.7,21.2,11.7c0,0-26.6,0-45.1-7.8l-124.8,2c13.3,7.8,71.7,47,77,47s127.4,3.9,135.4,2
				C1052.2,688.3,1169,672.6,1169,672.6z M680.4,676.5H776L733.5,651l-13.3-27.5l-58.4-27.5l-87.6-2c0,5.9,8,33.3,8,33.3
				L680.4,676.5z M534.4,607.9l34.5,21.6c-2.7-2-13.3-23.6-13.3-29.4L534.4,607.9z M187.9,628.5l257.6,13.7l-92.9-35.3L230.5,603
				L187.9,628.5z"/>
			<path class="st5" d="M1479.7,666.7l8,5.9c0,0-199.1,0-223-2c-23.9-2-92.9-37.2-100.9-43.1h116.8h10.6c0,0,18.6,17.6,26.6,19.6
				C1325.7,649.1,1479.7,666.7,1479.7,666.7z"/>
			<path class="st6" d="M1280.5,621.6l-124.8-2c0,0-45.1-15.7-50.4-19.6s-116.8-15.7-124.8-17.6s-92.9,3.9-100.9,3.9
				s-80.9-30.3-118.1-44.1c1.4,0.1,23.3,3,46.4,4.9c23.9,2,146-56.9,146-56.9s35,38,47.8,45.1c21.2,11.7,132.8,31.4,162,41.2
				s63.7,17.6,79.7,21.6C1259.4,602,1280.5,621.6,1280.5,621.6z"/>
			<path class="st5" d="M1102.6,649.1c2.7,3.9,66.4,23.6,66.4,23.6s-116.8,15.7-124.8,17.6c-8,2-130.1-2-135.4-2s-63.7-39.2-77-47
				l124.8-2c18.6,7.8,45.1,7.8,45.1,7.8c-8,0-21.2-11.7-21.2-11.7h108.9C1089.3,635.4,1100,645.1,1102.6,649.1z"/>
			<path class="st7" d="M935.3,468.7c0,3.9-128.8,57.8-134.1,57.8S557,510.9,557,510.9l31.9,25.5l-148.7,9.8
				c0,0-23.9-21.6-31.9-21.6s-222.1-24.4-222.1-24.4l-0.1-0.1c-7.1-7.3-15.3-15.5-24.8-24.6C138,453,95,434,53.2,416.2
				c55.9-2.9,370.6-45.8,393.6-51.4c23.9-5.9,331.9-5.9,345.2-5.9S935.3,464.8,935.3,468.7z"/>
			<path class="st5" d="M776,676.5h-95.6l-98.2-49c0,0-8-27.5-8-33.3l87.6,2l58.4,27.5l13.3,27.5L776,676.5z"/>
			<path class="st5" d="M568.9,629.4l-34.5-21.6l21.2-7.8C555.6,605.9,566.3,627.5,568.9,629.4z"/>
			<polygon class="st5" points="445.5,642.2 187.9,628.5 230.4,603 352.5,606.9 			"/>
			<path class="st6" d="M336.6,595.1H227.7l-53.1,29.4L-3.5,572.1V391.2c17.2,8.3,36.8,16.5,56.7,25c-2.4,0.1-4.3,0.1-5.7,0.1
				l138.6,83.8l0.1,0.1c18.9,19.3,29.7,31.8,33.6,36.1C225.1,542.2,336.6,595.1,336.6,595.1z"/>
			<path class="st6" d="M186.1,500.2L47.5,416.3c1.4,0,3.3,0,5.7-0.1C95,434,138,453,161.3,475.6C170.8,484.6,179,492.9,186.1,500.2
				z"/>
		</g>
	</g>
	<g id="XMLID_4_">
		<g>
			<path class="st2" d="M1726.7,699.3l5.4,17.5L1641,715l-11.1-9.7c5.8,0.4,11.4,0.5,15.9-0.1C1671.8,701.9,1699.5,702,1726.7,699.3
				z"/>
			<path class="st5" d="M1725.7,696.1l1,3.2c-27.2,2.8-54.9,2.6-80.9,6c-4.5,0.6-10.1,0.5-15.9,0.1l-14.5-12.6l-43.3-3.5l-11.7-36.3
				c8.3-4.9,16.2-10.7,22.4-17.6l59.8,10.5L1725.7,696.1z"/>
			<path class="st2" d="M1641,715l-153.2-3l7-9.9c26.2-0.5,52.5-1.1,78.7-1.6c11.8-0.2,15.8,1.1,27.5,2c7.9,0.6,18.8,2.2,29,2.8
				L1641,715z"/>
			<path class="st4" d="M1615.4,692.7l14.5,12.6c-10.1-0.6-21.1-2.2-29-2.8c-11.7-0.9-15.7-2.2-27.5-2c-26.2,0.5-52.5,1.1-78.7,1.6
				l21.9-31c0,0,22.8-5.9,43.8-18.2l11.7,36.3L1615.4,692.7z"/>
			<path class="st2" d="M1316.4,799.9l13.8,20.7l-81.9,1.6v-2.1l-38-20.6C1245.5,798.7,1283,798.9,1316.4,799.9z"/>
			<path class="st5" d="M1293.3,765.2l23.1,34.7c-33.4-1-70.9-1.3-106.2-0.5l-1.7-0.9l-8.9-29.8l-64-20.8l-18.9-43.6l31.4-33.9
				L1293.3,765.2z"/>
			<path class="st2" d="M1248.3,820.1v2.1l-254.7,4.9l5.7-27.3c49.4,12.1,71.9,9.6,129.7,4c22.8-2.2,51.2-3.6,81.3-4.3L1248.3,820.1
				z"/>
			<path class="st4" d="M1208.6,798.5l1.7,0.9c-30.1,0.7-58.5,2.1-81.3,4.3c-57.7,5.7-80.3,8.1-129.7-4l0.5-2.4l63.2-85.9l53.7-7.1
				l0.1-0.1l18.9,43.6l64,20.8L1208.6,798.5z"/>
		</g>
	</g>
	<g>
		<path class="st8" d="M561.4,431.6c16.3,10.1,64.1,40,49.6,73.7s-65.3,12-91.9,12s-82.2,7.2-128.2,4.8s-169.3-16.9-181.4-14.5
			s-41.1-19.3-62.9-14.5s-41.1,24.1-62.9,14.5s-14.5-35.9-4.8-43.4s77.4-31.3,91.9-33.7C185.4,428.2,516.7,403.7,561.4,431.6z"/>
		<g id="XMLID_3_">
			<g>
				<path class="st9" d="M123.5,451.5c-0.2-2.8-0.4-8.4,1.1-15.7c-1-0.3-2.2-0.1-3.5,0.4c-6.8,2.5-15.9,5.9-26.4,10.1
					c-24.2,9.6-29,14.5-21.8,31.3c7.3,16.9,14.5,24.1,29,21.7c14.5-2.4,26.6-9.6,33.9-36.1c0,0,0.1-0.3,0.3-0.9
					c-9.2-4.8-12.4-8.7-12.4-8.7S123.6,452.8,123.5,451.5z"/>
				<path class="st9" d="M124.6,435.8c-1.5,7.3-1.4,12.8-1.1,15.7c3.7-0.8,7.5-1.5,11.3-2C129.9,441.2,127.8,436.6,124.6,435.8z"/>
				<path class="st9" d="M123.5,451.5c0.1,1.3,0.2,2,0.2,2s3.2,4,12.4,8.7c0.7-2.1,2-7.4-0.3-11.2c-0.3-0.6-0.7-1.1-1-1.7
					C131,450,127.2,450.7,123.5,451.5z"/>
				<path class="st10" d="M124.6,435.8c3.3,0.8,5.3,5.3,10.2,13.6c24-3.5,49.2-2.1,73.4,0.7c40.5,4.7,81.4,12.8,121.6,6
					c8.6-1.4,17.4-3.7,24.4-8.9c-3.6-2.8-7.1-5.6-10.5-8.5c-13.3-11.3-25.6-25.5-28.3-42.8c-2.3-14.8,3-30.2,12.2-42.1
					c7.8-10.1,18.2-17.9,29.4-24.1c-10.5,3.7-23.9,6-42.2,4.5c-29-2.4-41.1-2.4-120.9,31.3C142.8,387.1,128.4,417,124.6,435.8z"/>
				<path class="st11" d="M134.8,449.4c0.3,0.5,0.7,1.1,1,1.7c2.3,3.8,1,9.1,0.3,11.2c14.5,7.6,43.9,17.3,98.8,16.6
					c40.5-0.6,67.7,0,99.2,7.2c5.5,1.3,12.5,1.9,20.5,2.1c8.6-7,13.3-11.7,13.3-11.7c3.2-3.2,6.6-6.3,9.2-9.7
					c-7-7.1-15-13.2-22.9-19.5c-7,5.2-15.8,7.5-24.4,8.9c-40.2,6.8-81.1-1.3-121.6-6C184,447.3,158.8,445.9,134.8,449.4z"/>
				<path class="st12" d="M327.6,353.8c-9.2,11.9-14.5,27.2-12.2,42.1c2.7,17.2,15,31.4,28.3,42.8c3.4,2.9,7,5.7,10.5,8.5
					c0.1,0,0.2-0.1,0.2-0.2c5.2-3.9,9.2-9.6,10.4-15.8c-9.4-12.5-9.5-23-1.7-36.7c2.2-3.7,4.6-6.9,7.4-9.3c-0.1-0.1-0.1-0.2-0.2-0.3
					c-4.2-6.3-7.3-16.9-7.3-24.1c0-6,1.6-23.3,7.6-37.3c-4,2.3-8.5,4.5-13.8,6.4C345.7,336,335.4,343.8,327.6,353.8z"/>
				<path class="st9" d="M354.4,488.3c-10.3,8.3-8.2,12.2-3.4,14.6c0.1,0,0.2,0.1,0.3,0.1c13-3.4,25.4-9.1,37-16.2
					c-11.9,0.9-23.6,1.5-33.7,1.3C354.6,488.1,354.5,488.2,354.4,488.3z"/>
				<path class="st13" d="M354.4,447c-0.1,0-0.2,0.1-0.2,0.2c7.9,6.2,15.9,12.4,22.9,19.5c5.3-7,7.1-15.1-4.3-26.4
					c-3.2-3.2-5.8-6.1-8-9C363.6,437.4,359.6,443.2,354.4,447z"/>
				<path class="st9" d="M377.1,466.7c-2.6,3.4-6,6.6-9.2,9.7c0,0-4.8,4.7-13.3,11.7c10.1,0.2,21.7-0.3,33.7-1.3
					c15.2-9.3,29.1-21.2,41.5-34.4c-26-25.1-55.2-61.6-59.2-67.4c-2.8,2.5-5.3,5.6-7.4,9.3c-7.9,13.7-7.7,24.2,1.7,36.7
					c2.2,2.9,4.8,5.9,8,9C384.2,451.6,382.4,459.7,377.1,466.7z"/>
				<path class="st14" d="M351.3,503c5.2,2.4,21.6,4.7,31.1,4.7c9.7,0,43.5-2.4,58-14.5c6.5-5.4,10.1-9.4,11.4-14.6
					c-16.7,2.9-40.8,6.3-63.6,8.1C376.7,494,364.4,499.6,351.3,503z"/>
				<path class="st15" d="M363.1,360.8c0,7.2,3,17.8,7.3,24.1c0,0.1,0.1,0.2,0.2,0.3c9.8-8.7,23.4-9.1,38.5,2.1
					c16,12,27.1,28.9,34.5,49.5c3-3.6,5.9-7.3,8.7-11.1c-26.7-46.4-71.8-108-79.5-103.4c-0.7,0.4-1.4,0.8-2.1,1.2
					C364.8,337.4,363.1,354.8,363.1,360.8z"/>
				<path class="st15" d="M370.7,323.4c0.7-0.4,1.4-0.8,2.1-1.2c7.7-4.6,52.8,57,79.5,103.4C493,371,516.9,304,519.7,236l0,0
					c-4.7-11.3-9.4-22.1-13.2-31.2c1,8.7,0.8,23.7-10.3,31.9c-19.3,14.5-56.2,11.7-70.1,9.6c-15.6-2.3-25.6-13.1-34.9-25.3
					c0.1,4.1,0.4,8.5,1,13.2c2.4,19.3-7.3,66.3-16.9,80.7C373.5,317.5,372,320.4,370.7,323.4z"/>
				<path class="st9" d="M409.1,387.3c-15.1-11.3-28.7-10.8-38.5-2.1c4,5.8,33.3,42.3,59.2,67.4c4.2-4.4,8.3-9,12.1-13.7
					c0.6-0.7,1.1-1.4,1.7-2.1C436.2,416.2,425.1,399.2,409.1,387.3z"/>
				<path class="st14" d="M429.8,452.5c-12.4,13.1-26.3,25-41.5,34.4c22.9-1.8,46.9-5.2,63.6-8.1c0.6-2.1,0.7-4.5,0.5-7.3
					C445.8,467.1,438,460.4,429.8,452.5z"/>
				<path class="st16" d="M391.8,200.1c-0.4,5.7-0.9,12.7-0.7,21c9.3,12.2,19.3,23,34.9,25.3c14,2,50.8,4.8,70.1-9.6
					c11-8.2,11.2-23.2,10.3-31.9c-1.2-2.9-2.3-5.6-3.4-8.2c0.3,3.6,0.4,7,0.4,10c0,19.3-12.1,26.5-24.2,31.3s-21.8,2.4-38.7,2.4
					c0,0-46-2.4-48.4-33.7C392,204.3,391.9,202.1,391.8,200.1z"/>
				<path class="st17" d="M397.5,167c-4.4,8.6-6.3,19-5.8,33.1c0.2-3.1,0.4-5.7,0.4-8c0-2.1,14.9-6.9,33.5-10.8
					c-1.4-2.1-2.6-4.6-3.4-7.4l0,0C413.9,174,400.5,169.6,397.5,167z"/>
				<path class="st17" d="M391.8,200.1c0.1,2.1,0.2,4.2,0.4,6.5c2.4,31.3,48.4,33.7,48.4,33.7c16.9,0,26.6,2.4,38.7-2.4
					s24.2-12,24.2-31.3c0-3-0.1-6.4-0.4-10c-1.4-3.4-2.6-6.5-3.5-9c-0.6,0.2-1.3,0.3-2,0.4c-1.7,0.2-3.3,0.2-4.9,0
					c2.1,3.6,3.6,8.1,3.6,13.6c0,13.4,0,18.3-11.3,27.1c-15.4,12-28.5,6.3-38.6-2.3c-14.5-12.4-12-22.9-4.5-36.7l-5-1.7
					c-4.7-0.3-8.4-2.8-11.1-6.7c-18.7,3.9-33.5,8.7-33.5,10.8C392.1,194.4,392,197,391.8,200.1z"/>
				<path class="st18" d="M397.5,167l24.7,6.9l0,0c-0.8-2.6-1.4-5.6-1.6-8.7h-0.2c-13.8-0.8-15.3-3.1-18.2-5.6
					C400.4,162,398.9,164.4,397.5,167z"/>
				<path class="st18" d="M422.3,173.9l-24.7-6.9C400.5,169.6,413.9,174,422.3,173.9z"/>
				<path class="st17" d="M402.2,159.7l18.2,5.6h0.2c-0.1-1.7-0.2-3.4-0.2-5.2c0-3.9,3-7.3,6.9-7.7l53.6-6.2
					c-17-7.1-45.5-14-64.6,0.3C410.6,150.6,405.9,154.9,402.2,159.7z"/>
				<path class="st18" d="M420.4,165.2l-18.2-5.6C405.1,162.1,406.7,164.4,420.4,165.2z"/>
				<path class="st19" d="M420.4,160c0,1.8,0.1,3.5,0.2,5.2c0.3,3.1,0.8,6.1,1.6,8.7c0.8,2.8,2,5.3,3.4,7.4
					c3.6-0.7,7.4-1.4,11.2-2.1c-1.4-4.4-2.1-9.5-2-15c0-3.6,2.7-6.6,6.3-7l47.6-5.5c-2.1-2.3-4.5-4.1-7.2-5.3
					c-0.2-0.1-0.5-0.2-0.7-0.3l-53.6,6.2C423.4,152.7,420.4,156.1,420.4,160z"/>
				<path class="st19" d="M436.8,188.1c0.9,0.1,1.9,0,2.9-0.1c0.6-0.1,1.2-0.2,1.7-0.3c-1.9-2.3-3.4-5.2-4.5-8.5
					c-3.8,0.7-7.6,1.3-11.2,2.1C428.4,185.3,432.1,187.8,436.8,188.1z"/>
				<path d="M435,164.2c-0.1,5.5,0.6,10.6,2,15c5.2-0.9,10.6-1.7,15.8-2.2c10.3-6,23.6-4.3,25.3-2.6c0.4,0.4,1.4,1,2.6,1.8
					c4,0.4,7.5,1.1,10.4,2.1c3.3-5.3,2.5-14.1,0.4-23.4c-0.8-1.2-1.7-2.3-2.6-3.3l-47.6,5.5C437.7,157.6,435,160.6,435,164.2z"/>
				<path class="st19" d="M436.8,188.1l5,1.7c0.2-0.3,0.4-0.7,0.5-1c-0.3-0.3-0.6-0.7-0.9-1c-0.5,0.1-1.1,0.2-1.7,0.3
					C438.7,188.1,437.7,188.2,436.8,188.1z"/>
				<path class="st14" d="M441.9,438.8c-3.8,4.7-7.9,9.3-12.1,13.7c8.2,7.9,16,14.6,22.6,18.9c-0.4-5.3-2.1-12-4.7-21.5
					c-1.2-4.5-2.6-8.9-4.2-13.2C443.1,437.4,442.5,438.1,441.9,438.8z"/>
				<path d="M436.9,179.2c1.1,3.3,2.6,6.2,4.5,8.5c0.6-0.1,1.2-0.3,1.8-0.5c0.3-0.5,0.6-1,0.8-1.5c2.2-3.9,5.3-6.7,8.8-8.7
					C447.5,177.6,442.2,178.4,436.9,179.2z"/>
				<path class="st20" d="M441.7,189.7c-7.4,13.8-10,24.3,4.5,36.7c10,8.6,23.2,14.3,38.6,2.3c11.3-8.9,11.3-13.7,11.3-27.1
					c0-5.5-1.5-10-3.6-13.6c-6-0.6-11.5-3.3-15.3-4.9c-1.7-0.2-3.4-0.6-5-1.1c-5.9,2.7-9.3,9.9-18.1,10.9c-3.7,0.4-6.8-0.4-9.5-2.1
					L441.7,189.7z M467.3,194.4c-3.2-3.2-0.8-9.5,6.3-9.5c9.5,0,9.5,6.3,6.3,9.5C473.6,200.7,473.6,200.7,467.3,194.4z"/>
				<path class="st19" d="M441.7,189.7l3,1c-0.9-0.6-1.7-1.3-2.4-2C442.1,189.1,441.9,189.4,441.7,189.7z"/>
				<path d="M441.4,187.7c0.3,0.4,0.6,0.7,0.9,1c0.3-0.5,0.6-1,0.9-1.5C442.6,187.4,442,187.6,441.4,187.7z"/>
				<path d="M444.7,190.8c2.6,1.7,5.8,2.5,9.5,2.1c8.8-1,12.2-8.2,18.1-10.9c-6.3-1.9-11.4-5.1-13.6-5.1c-0.2,0-0.4,0-0.6,0.1
					c-5.2,2.2-8.4,8-14.9,10.3c-0.3,0.5-0.6,1-0.9,1.5C443,189.5,443.9,190.2,444.7,190.8z"/>
				<path d="M444,185.7c-0.3,0.5-0.6,1-0.8,1.5c6.5-2.2,9.7-8,14.9-10.3c0.2-0.1,0.4-0.1,0.6-0.1v-0.4c-1.9,0.1-3.9,0.3-5.9,0.6
					C449.3,179,446.2,181.8,444,185.7z"/>
				<path class="st21" d="M443.6,436.7c1.6,4.2,3,8.6,4.2,13.2c2.6,9.5,4.3,16.3,4.7,21.5c4.7,3,8.7,4.8,11.9,4.9
					c2.1-0.4,3.8-0.8,5.2-1.2c7-1.7-2.2-23.2-17.3-49.6C449.5,429.4,446.6,433.1,443.6,436.7z"/>
				<path class="st21" d="M452.4,471.4c0.2,2.7,0.1,5.1-0.5,7.3c4.8-0.8,9-1.6,12.4-2.3C461.2,476.2,457.1,474.4,452.4,471.4z"/>
				<path d="M452.8,177c2-0.2,3.9-0.4,5.9-0.6c8-0.7,15.6-0.8,22-0.2c-1.2-0.8-2.1-1.4-2.6-1.8C476.3,172.7,463.1,171,452.8,177z"/>
				<path d="M458.6,176.4v0.4c2.2,0,7.3,3.2,13.6,5.1c0.1,0,0.2-0.1,0.3-0.1c0.8-0.4,2.5,0.2,4.7,1.2c1.8,0.2,3.8,0.3,5.7,0.1
					c1.8-0.2,3.3-0.7,4.6-1.4c-2.5-2.4-5.1-4.2-7-5.4C474.2,175.6,466.6,175.8,458.6,176.4z"/>
				<path class="st21" d="M464.3,476.4c0.1,0,0.3,0,0.4,0c15.4,0,32-18.1,48.1-39.8c0.2-44.8,32.6-75.1,35.6-77.9
					c1-17.6-1.5-35.2-3.9-51c-2.6-17.1-14-45.8-24.9-71.8c-2.8,68-26.6,135-67.4,189.6c15.1,26.4,24.3,47.8,17.3,49.6
					C468.1,475.5,466.4,475.9,464.3,476.4z"/>
				<path class="st22" d="M473.6,184.9c-7.1,0-9.5,6.3-6.3,9.5c6.3,6.3,6.3,6.3,12.7,0C483.2,191.2,483.2,184.9,473.6,184.9z"/>
				<path class="st20" d="M472.6,181.8c-0.1,0-0.2,0.1-0.3,0.1c1.6,0.5,3.3,0.9,5,1.1C475.1,182,473.4,181.4,472.6,181.8z"/>
				<path d="M483,183.1c-1.9,0.2-3.9,0.2-5.7-0.1c3.8,1.6,9.2,4.3,15.3,4.9c-1.5-2.5-3.2-4.5-5-6.2
					C486.3,182.4,484.8,182.9,483,183.1z"/>
				<path class="st19" d="M480.9,146c0.2,0.1,0.5,0.2,0.7,0.3c2.7,1.2,5.1,3,7.2,5.3l1.8-0.2c-0.6-2.4-2.4-4.3-4.6-5.1l-0.3-0.1
					c-1-0.4-2.2-0.5-3.3-0.4L480.9,146z"/>
				<path class="st19" d="M485.7,146.2l0.3,0.1C485.9,146.3,485.8,146.3,485.7,146.2z"/>
				<path class="st19" d="M498.8,150.7l-12.8-4.4c2.2,0.8,4,2.7,4.6,5.1l6.4-0.7C497.6,150.6,498.2,150.6,498.8,150.7z"/>
				<path d="M480.6,176.2c1.9,1.3,4.5,3,7,5.4c1.5-0.8,2.6-1.9,3.4-3.3C488.1,177.3,484.6,176.6,480.6,176.2z"/>
				<path class="st18" d="M490.6,151.4l-1.8,0.2c0.9,1,1.8,2.1,2.6,3.3C491.2,153.8,490.9,152.7,490.6,151.4
					C490.6,151.5,490.6,151.5,490.6,151.4z"/>
				<path d="M498.8,150.7c-0.6-0.1-1.2-0.1-1.9,0l-6.4,0.7c0,0,0,0,0,0.1c0.3,1.2,0.6,2.3,0.8,3.4c5.6,8.1,8.9,20.2,10.5,31.7
					c7.9-4.2,6.5-17.2,3.2-30.3C504.4,153.3,501.8,151.1,498.8,150.7z"/>
				<path d="M491,178.4c-0.8,1.4-1.9,2.5-3.4,3.3c1.8,1.7,3.5,3.8,5,6.2c1.6,0.2,3.3,0.2,4.9,0c0.7-0.1,1.4-0.2,2-0.4
					c-0.3-0.9-0.7-1.8-0.9-2.7C497.6,181.9,494.9,179.8,491,178.4z"/>
				<path d="M491.4,154.9c2.1,9.3,2.9,18.2-0.4,23.4c3.9,1.4,6.6,3.6,7.6,6.5c0.3,0.8,0.6,1.7,0.9,2.7c0.9-0.2,1.7-0.5,2.4-0.9
					C500.3,175.1,497,163.1,491.4,154.9z"/>
				<path class="st15" d="M501.9,186.6c-0.7,0.4-1.5,0.7-2.4,0.9c0.9,2.6,2.2,5.6,3.5,9C502.8,193.4,502.4,190,501.9,186.6z"/>
				<path class="st14" d="M512.8,436.6c-0.3,47,22,42.2,39,42.2c15.4,0,38.7-21.8,28.4-27.7c-1.1-0.6-2.5-1-4.3-1.3
					c-11.5-1.4-20.4-7.9-24.7-17.5c-3-6.6-3.9-14.6-1.9-23.5c4.8-21.7,2.4-41-0.7-50.4c0,0-0.1,0.1-0.2,0.2
					c-0.9,17.3-5.2,34.6-16,50.2C526.1,418.1,519.5,427.7,512.8,436.6z"/>
				<path class="st21" d="M548.4,358.8c-3,2.7-35.4,33.1-35.6,77.9c6.7-9,13.3-18.6,19.6-27.7C543.2,393.4,547.5,376.1,548.4,358.8z
					"/>
				<path class="st9" d="M551.2,432.4l29.2,18.4l0.4,0.2C576,441.5,555.5,428.2,551.2,432.4z"/>
				<path class="st9" d="M580.4,450.9l-29.2-18.4c4.4,9.6,13.3,16,24.7,17.5c1.8,0.2,3.2,0.7,4.3,1.3L580.4,450.9z"/>
			</g>
		</g>
	</g>
	<g>
		<path class="st23" d="M700.3,397.3c-13.1,7.8,11.5,37.1,21.3,55.8s45.6,51.3,57.8,68.4c7.4,10.4,40.7,17.9,71.8,8
			c38.6-12.3,50.8-32.1,37.7-54C861.1,438.2,720.9,385.1,700.3,397.3z"/>
		<path class="st24" d="M791,371.9L887.2,476c3.4,3.6,1.8,10-2.7,11.6l-78.8,26.9c-2.2,0.7-4.5,0.1-6.1-1.6l-96.2-104.1
			c-3.4-3.6-1.8-10,2.7-11.6l78.8-26.9C787.1,369.6,789.5,370.2,791,371.9z"/>
		<path class="st25" d="M791.6,369.4l96.2,104.1c3.4,3.6,1.8,10-2.7,11.6L806.3,512c-2.2,0.7-4.5,0.1-6.1-1.6l-96.2-104
			c-3.4-3.6-1.8-10,2.7-11.6l78.8-26.9C787.7,367.1,790.1,367.7,791.6,369.4z"/>
		<path class="st19" d="M837,284l95.5,99.1c2.6,2.7,3.2,6.9,1.7,10.5l-33.6,76.8c-2.5,5.7-9.2,7.1-13.1,2.8L793,370.8
			c-2.5-2.7-3.1-6.9-1.5-10.4l32.5-73.5C826.4,281.3,833,279.9,837,284z"/>
		<path class="st24" d="M792.2,386.3l73.4,79.9c1.8,1.9,1,5.4-1.5,6.2L826,485.6c-1.2,0.4-2.4,0.1-3.3-0.9l-73.4-79.9
			c-1.8-1.9-1-5.4,1.5-6.2l38.1-13.2C790.1,385.1,791.3,385.4,792.2,386.3z"/>
		<path class="st24" d="M770.4,436.1l22.6,24.5c1.1,1.2,0.6,3.4-0.9,4l-18,6.1c-0.7,0.3-1.5,0-2.1-0.5l-22.6-24.5
			c-1.1-1.2-0.6-3.4,0.9-4l18-6.1C769.1,435.3,769.9,435.5,770.4,436.1z"/>
		<path class="st26" d="M868.6,341.2l51.8,53.6c0.6,0.6,1.6,0.4,1.9-0.4l0.6-1.5c0.2-0.5,0.1-1.2-0.2-1.6l-51.8-53.6
			c-0.6-0.6-1.6-0.4-1.9,0.4l-0.6,1.5C868.1,340.2,868.2,340.8,868.6,341.2z"/>
		<path class="st26" d="M840.3,326.7l75.6,78.3c0.6,0.6,1.6,0.4,1.9-0.4l0.6-1.4c0.2-0.5,0.1-1.2-0.2-1.6l-75.6-78.3
			c-0.6-0.6-1.6-0.4-1.9,0.4l-0.6,1.4C839.9,325.7,840,326.3,840.3,326.7z"/>
		<path class="st26" d="M888.7,391.7l22.8,23.6c0.6,0.6,1.5,0.4,1.8-0.4l0.7-1.6c0.2-0.5,0.1-1.1-0.2-1.5l-22.9-23.6
			c-0.6-0.6-1.5-0.4-1.8,0.4l-0.7,1.6C888.2,390.8,888.3,391.4,888.7,391.7z"/>
		<path class="st26" d="M871.3,373.2l11.8,12.1c0.6,0.6,1.5,0.4,1.9-0.4l0.7-1.5c0.2-0.5,0.1-1.1-0.2-1.5l-11.8-12.1
			c-0.6-0.6-1.5-0.4-1.9,0.4l-0.7,1.5C870.8,372.2,870.9,372.8,871.3,373.2z"/>
		<path class="st26" d="M881.9,413.9l12.2,12.7c0.6,0.6,1.7,0.4,2-0.5l0.6-1.3c0.2-0.6,0.1-1.2-0.3-1.7l-12.2-12.7
			c-0.6-0.6-1.7-0.4-2,0.5l-0.6,1.3C881.4,412.8,881.5,413.5,881.9,413.9z"/>
		<path class="st26" d="M875.7,392.6l23,23.8c0.6,0.6,1.6,0.4,2-0.5l0.6-1.4c0.2-0.6,0.1-1.2-0.3-1.6l-23-23.8
			c-0.6-0.6-1.6-0.4-2,0.5l-0.6,1.4C875.2,391.5,875.3,392.2,875.7,392.6z"/>
		<path class="st26" d="M835.3,350.2l34.5,35.7c0.5,0.6,1.5,0.4,1.8-0.4l0.7-1.6c0.2-0.5,0.1-1.1-0.2-1.5l-34.5-35.7
			c-0.5-0.6-1.5-0.4-1.8,0.4l-0.7,1.6C834.9,349.2,835,349.8,835.3,350.2z"/>
		<path class="st26" d="M849.3,380.2l26.9,27.8c0.6,0.6,1.6,0.4,2-0.4l0.6-1.4c0.2-0.5,0.1-1.2-0.3-1.6l-26.9-27.8
			c-0.6-0.6-1.6-0.4-2,0.4l-0.6,1.4C848.9,379.2,849,379.8,849.3,380.2z"/>
		<path class="st26" d="M838,383.4l51.5,53.3c0.7,0.7,1.8,0.5,2.2-0.5l0.5-1.1c0.3-0.6,0.2-1.4-0.3-1.8L840.4,380
			c-0.7-0.7-1.8-0.5-2.2,0.5l-0.5,1.1C837.4,382.2,837.5,383,838,383.4z"/>
		<path class="st26" d="M809.3,366.6l84.3,87.4c0.7,0.7,1.7,0.4,2.1-0.5l0.5-1.2c0.3-0.6,0.2-1.3-0.3-1.7l-84.2-87.4
			c-0.7-0.7-1.7-0.4-2.1,0.5l-0.5,1.2C808.8,365.4,808.9,366.1,809.3,366.6z"/>
		<path class="st26" d="M877.1,449l12.6,13.1c0.6,0.6,1.6,0.4,1.9-0.4l0.6-1.4c0.2-0.5,0.1-1.2-0.2-1.6l-12.6-13.1
			c-0.6-0.6-1.6-0.4-1.9,0.4l-0.6,1.4C876.6,448,876.7,448.6,877.1,449z"/>
		<path class="st26" d="M819.9,389.9l50.2,51.9c0.6,0.6,1.5,0.4,1.9-0.4l0.7-1.5c0.2-0.5,0.1-1.1-0.2-1.5l-50.2-51.9
			c-0.6-0.6-1.5-0.4-1.9,0.4l-0.7,1.5C819.4,388.9,819.5,389.5,819.9,389.9z"/>
	</g>
	<g>
		<path class="st8" d="M676.4,501.7c-9.8,18.2-12,14-33.8-4c-13.9-11.5-40.7-25.7-30.2-30.4s39.2,12.1,46.3-3.4s38-17.8,33.8,4
			C687.8,492.7,676.6,501.3,676.4,501.7z"/>
		<path class="st8" d="M654.6,436.4c-11.7,11.7-32.2,9.6-50.8-16.5c-18.6-26-32.6-32.2-9-39.8s39.5-4.2,54.6,10.9
			S666.6,424.4,654.6,436.4z"/>
		<g id="XMLID_6_">
			<g>
				<path class="st18" d="M621,373c-15.3,14.4-27.2,17.9-23.3,26.2c4.1,8.8,22.3-13,22.3-13C619.2,381,619.5,376.3,621,373z"/>
				<path class="st27" d="M621,373c-1.6,3.3-1.9,8-1,13.2c0.8,4.3,2.3,9,4.8,13.6c6.4,11.9,16.1,18.7,22.5,15.9l2.2-1.5
					c0.8-0.8,1.4-1.7,1.9-2.8c-6.1-0.2-13.8-6.6-19-16.6c-5.3-10-6.7-20.5-3.9-26.6c-1.3,0-2.6,0.2-3.7,0.8
					c-0.3,0.1-0.5,0.3-0.8,0.5C622.8,370.2,621.8,371.4,621,373z"/>
				<path class="st27" d="M630.9,364.9l-6,4c1.1-0.6,2.4-0.8,3.7-0.8C629.2,366.8,629.9,365.8,630.9,364.9z"/>
				<path class="st19" d="M654.2,410.9c0.6-0.2,1.3-0.5,1.8-0.9c6.3-4.2,5.9-17.8-0.8-30.4c-6.4-12-16.3-18.8-22.6-15.8l-1.7,1.1
					c-1,0.8-1.7,1.9-2.3,3.2c6.1,0.2,13.7,6.6,19,16.6s6.7,20.5,3.9,26.6C652.5,411.3,653.4,411.2,654.2,410.9z"/>
				<path class="st27" d="M630.9,364.9l1.7-1.1c-0.3,0.1-0.7,0.3-0.9,0.5C631.4,364.5,631.1,364.7,630.9,364.9z"/>
				<path class="st27" d="M649.6,414.1l-2.2,1.5c0.4-0.1,0.7-0.3,1.1-0.6C648.8,414.8,649.2,414.5,649.6,414.1z"/>
				<path class="st27" d="M649.6,414.1l4.6-3.2c-0.9,0.3-1.8,0.4-2.7,0.4C651,412.4,650.4,413.4,649.6,414.1z"/>
				<path class="st18" d="M624.9,468.8c-5.2,7.6,13.6,16,29.6,22.1c-2.5-2.4-3.2-8.2-2.1-15.5C652.5,475.4,630.3,461,624.9,468.8z"
					/>
				<path class="st27" d="M674.9,438.7c-5.6-0.3-13.7,9.6-18.9,23.3c-1.7,4.7-2.9,9.2-3.5,13.3c-1.1,7.3-0.4,13.1,2.1,15.5
					c0.4,0.1,0.8,0.3,1.1,0.4l2.3,0.8c0.9-0.1,2-0.4,3-1c-2-5.3-1-15.5,3.1-26.3c4.1-10.9,10-19.4,15.1-22.2c-0.5-1.4-1.2-2.4-2.1-3
					l-0.1-0.1L674.9,438.7L674.9,438.7z"/>
				<path class="st27" d="M675,438.8l2.1,0.7c-0.3-0.2-0.7-0.4-1.1-0.5C675.7,438.8,675.3,438.8,675,438.8z"/>
				<path class="st27" d="M683,441.5l-5.8-1.9c0.9,0.6,1.6,1.6,2.1,3C680.5,441.8,681.8,441.4,683,441.5z"/>
				<path class="st19" d="M683,441.5c-1.2-0.1-2.4,0.3-3.8,1.1c2,5.3,1,15.5-3.1,26.3c-4.1,10.9-10,19.4-15.1,22.2
					c0.4,1.1,1,2,1.7,2.6l3.4,1.1c5.5-0.5,13.2-10.2,18.1-23.3c5.1-13.6,5.4-26.1,0.9-29.3l0,0L683,441.5z"/>
				<path class="st19" d="M683,441.5l2.1,0.7c-0.3-0.2-0.7-0.4-1.1-0.5C683.7,441.5,683.3,441.5,683,441.5z"/>
				<path class="st27" d="M655.7,491.3c-0.4-0.1-0.7-0.3-1.1-0.4c0.5,0.5,1,0.8,1.6,1s1.2,0.2,1.8,0.2L655.7,491.3z"/>
				<path class="st27" d="M658,492.1l4.7,1.6c-0.7-0.6-1.3-1.5-1.7-2.6C660,491.7,659,492,658,492.1z"/>
				<path class="st19" d="M662.7,493.6c0.5,0.5,1,0.8,1.5,1c0.6,0.2,1.2,0.2,1.9,0.2L662.7,493.6z"/>
			</g>
		</g>
	</g>
	<path class="st6" d="M-7,390.9c53.1,25.5,132.2,52.3,166.7,85.7c34.5,33.3,53.1,54.9,58.4,60.8c5.3,5.9,116.8,58.8,116.8,58.8
		H226.1L173,625.5l-180-53V390.9z"/>
</g>
</svg>
