<svg width="1366" height="825" xmlns="http://www.w3.org/2000/svg">
 <style type="text/css">.st0{fill:#FBFFA5;}
	.st1{fill:#6DB5CF;}
	.st2{fill:#4592AD;}
	.st3{opacity:0.31;}
	.st4{fill:#784228;}
	.st5{fill:#955D36;}
	.st6{fill:#8F5A2C;}
	.st7{fill:#A26735;}
	.st8{opacity:0.16;enable-background:new    ;}
	.st9{fill:#997A61;}
	.st10{fill:#CEA980;}
	.st11{fill:#C19D7A;}
	.st12{fill:#BE9C79;}
	.st13{fill:#AF8E71;}
	.st14{fill:#8E705B;}
	.st15{fill:#B48A66;}
	.st16{fill:#A57856;}
	.st17{fill:#AF8F77;}
	.st18{fill:#1A1A1A;}
	.st19{fill:#333333;}
	.st20{fill:#D6D0C3;}
	.st21{fill:#AA8166;}
	.st22{fill:#7E979C;}
	.st23{opacity:0.17;enable-background:new    ;}
	.st24{fill:#666666;}
	.st25{fill:#808080;}
	.st26{fill:#F2F2F2;}
	.st27{fill:#4D4D4D;}</style>

 <g>
  <title>background</title>
  <rect fill="none" id="canvas_background" height="827" width="1368" y="-1" x="-1"/>
 </g>
 <g>
  <title>Layer 1</title>
  <g stroke="null" transform="translate(-133.33692932128906,604.1829223632812) " id="Layer_1_1_">
   <circle stroke="null" id="svg_1" r="139.720367" cy="-306.852346" cx="710.89422" class="st0"/>
   <g stroke="null" id="XMLID_5_">
    <g stroke="null" id="svg_2">
     <path stroke="null" id="svg_3" d="m1341.741532,66.678148c56.755517,-4.211096 113.511034,4.211096 169.449472,13.890331l10.056349,2039.804589l-1414.362565,0l-10.056349,-2034.902119c99.432146,-3.268313 382.141243,-8.422192 409.16768,-10.999131c31.111828,-2.954052 62.537917,-5.970957 93.649745,-2.8912c23.569567,2.325531 46.44776,8.107931 70.017326,10.182053c31.991759,2.828348 64.172074,-1.194191 96.163833,-3.896835c132.366687,-11.313392 265.927566,-0.754226 398.985627,1.382748c29.854785,0.502817 59.835274,0.56567 89.501502,-2.199826c29.351967,-2.639791 58.138265,-8.170783 87.42738,-10.370609z" class="st1"/>
     <path stroke="null" id="svg_4" d="m1511.191004,80.56848c-55.938439,-9.679235 -112.693955,-18.101427 -169.449472,-13.890331c-29.289115,2.136974 -58.075413,7.667966 -87.301675,10.433462c-29.666228,2.765496 -59.646717,2.702644 -89.501502,2.199826c-132.492392,-2.199826 -265.990418,-12.758992 -398.985627,-1.382748c-31.991759,2.702644 -64.172074,6.725183 -96.163833,3.896835c-23.569567,-2.136974 -46.510612,-7.856522 -70.017326,-10.182053c-31.111828,-3.079757 -62.537917,-0.125704 -93.649745,2.8912c-26.963584,2.576939 -309.672682,7.730818 -409.16768,10.999131l-6.850887,-363.222737c0,0 7.039444,-4.3368 20.049845,-5.656696c13.827479,-1.382748 27.592106,5.656696 56.944073,5.656696c17.221497,0 45.756386,-8.296488 60.400943,-9.867792c25.895097,-2.828348 56.944073,1.382748 75.862579,7.039444c38.905498,11.564801 48.270473,9.867792 70.7087,9.867792c15.524488,0 68.634579,-11.941914 94.843937,-14.078888c17.221497,-1.382748 60.400943,5.656696 81.07931,7.039444c20.678367,1.382748 36.202855,-8.422192 70.7087,-11.25054c32.997394,-2.702644 53.487204,12.69614 93.146928,14.078888c39.659724,1.382748 76.17684,-8.233635 94.843937,-11.25054c17.221497,-2.828348 29.289115,9.867792 51.727343,8.422192c22.438228,-1.382748 46.573464,-5.656696 64.234926,-6.536627c17.661462,-0.942783 40.97962,3.771131 56.504108,6.536627c15.524488,2.765496 44.876455,-1.382748 62.726474,-6.536627s66.686161,2.325531 89.061536,5.153879s39.659724,-9.867792 61.657987,-9.867792s52.167308,12.69614 70.143031,8.296488c17.912871,-4.3368 32.054611,-8.296488 47.579099,-8.296488s41.419585,1.382748 55.184212,4.211096c13.827479,2.828348 42.802333,-2.702644 55.184212,-4.211096c22.438228,-2.828348 29.351967,2.828348 48.270473,4.211096c18.918506,1.382748 34.505846,-3.519722 34.505846,-3.519722l5.719548,368.816581z" class="st2"/>
    </g>
   </g>
   <g stroke="null" id="svg_5">
    <g stroke="null" id="svg_6" class="st3">
     <g stroke="null" id="XMLID_1_">
      <g stroke="null" id="svg_7">
       <path stroke="null" id="svg_8" d="m877.578196,-279.197388c-7.290853,16.278714 -17.472906,32.808837 -36.957081,38.465533c-18.729949,5.342435 -39.156907,-1.508452 -58.955343,-0.754226c-17.850019,0.691374 -34.380141,7.479409 -51.475934,11.753357s-37.397046,5.468139 -51.287377,-3.771131c-5.153879,-3.394018 -8.987861,-7.982227 -14.330297,-11.124836c-15.524488,-9.364975 -37.145637,-4.148244 -56.441256,-4.90247c-23.003897,-1.005635 -44.813603,-12.004766 -56.818369,-28.032071c17.410053,0.754226 31.488941,-6.34807 57.069778,-9.993496c1.131339,-0.125704 2.262678,-0.314261 3.45687,-0.439965c2.765496,-0.377113 5.656696,-0.691374 8.673601,-0.942783c6.725183,-0.56567 12.884697,-0.377113 18.792801,0.314261c3.016905,0.377113 5.908105,0.817078 8.862157,1.319896c19.672732,3.708279 37.962716,11.376244 65.49197,12.381879c39.156907,1.382748 75.234057,-7.982227 94.152563,-11.124836c0.251409,-0.062852 0.502817,-0.125704 0.754226,-0.125704c4.085392,-0.691374 7.919374,-0.439965 11.627653,0.188557c11.941914,2.199826 23.003897,9.302122 40.09969,8.233635c5.7824,-0.314261 11.564801,-0.817078 17.284349,-1.4456z" class="st0"/>
       <path stroke="null" id="svg_9" d="m996.494517,-276.871857c2.01127,19.04421 2.639791,38.65409 -7.039444,55.875586c-5.216731,9.23927 -13.198957,17.472906 -16.718679,27.214993c-3.708279,10.307757 -2.074122,21.558297 -6.096661,31.677498c-6.410922,16.15301 -26.020802,26.586471 -46.070647,30.923272s-41.105325,3.582574 -61.783691,4.651061c-26.335063,1.382748 -52.481569,5.7824 -77.371031,12.884697c-18.981358,5.468139 -37.962716,12.633288 -58.138265,12.633288c-10.936279,0 -21.746854,-2.136974 -32.368872,-4.273948c-43.556559,-8.736453 -87.050267,-17.472906 -130.606826,-26.209358c-32.30602,-6.473774 -67.503239,-14.518853 -86.358893,-37.019933c-7.730818,-9.176418 -11.941914,-20.112697 -17.975723,-30.106193c-9.867792,-16.278714 -24.575202,-30.29475 -35.448628,-46.196351c-6.410922,-9.364975 -11.439096,-19.92414 -12.947549,-30.546159c20.929775,-3.582574 45.756386,-8.296488 61.218022,-9.553531c6.410922,-0.502817 16.341566,0.125704 27.40355,1.194191c-11.627653,7.542261 -12.884697,23.318158 -6.788035,35.008663c6.788035,12.947549 19.861288,23.003897 28.974854,35.008663c3.016905,3.959687 5.593844,8.107931 9.427827,11.564801c9.993496,9.050714 26.335063,11.313392 41.231029,10.810575c14.895966,-0.502817 29.791932,-3.205461 44.625046,-1.759861c12.067618,1.194191 23.443862,5.028174 35.071515,7.79367c27.654958,6.599479 57.384039,7.102296 85.353258,1.4456c30.671863,-6.159513 59.583865,-19.60988 91.135658,-19.861288c12.004766,-0.125704 24.323793,1.697009 35.888594,-0.942783c8.673601,-1.948418 16.15301,-6.34807 23.38101,-10.622018c16.530123,-9.930644 33.311654,-21.244036 40.351098,-37.019933c4.588209,-10.244905 4.588209,-21.244036 3.45687,-32.180315c17.095792,-0.125704 38.339829,4.022539 52.79583,6.662331c4.273948,0.87993 9.616383,1.131339 15.398784,0.942783z" class="st0"/>
       <path stroke="null" id="svg_10" d="m496.254032,-283.534188c18.729949,1.822713 40.665359,4.90247 53.67576,5.845253c0.502817,0.062852 0.942783,0.062852 1.4456,0.062852c12.067618,15.964453 33.814472,27.026437 56.818369,28.032071c19.295619,0.754226 40.853916,-4.3368 56.441256,4.90247c5.342435,3.205461 9.176418,7.730818 14.330297,11.124836c13.890331,9.176418 34.128733,7.982227 51.287377,3.771131c17.158645,-4.211096 33.625915,-11.124836 51.475934,-11.753357c19.798436,-0.754226 40.288246,6.096661 58.955343,0.754226c19.547027,-5.593844 29.666228,-22.123967 36.957081,-38.465533c17.03294,-1.822713 33.814472,-4.3368 47.013429,-5.028174c1.194191,-0.062852 2.451235,-0.125704 3.708279,-0.125704c1.131339,10.936279 1.131339,21.93541 -3.45687,32.180315c-7.039444,15.775897 -23.820976,27.089289 -40.351098,37.019933c-7.228,4.3368 -14.770262,8.673601 -23.38101,10.622018c-11.564801,2.702644 -23.883828,0.817078 -35.888594,0.942783c-31.551793,0.251409 -60.463795,13.701775 -91.135658,19.861288c-27.969219,5.656696 -57.6983,5.153879 -85.353258,-1.4456c-11.627653,-2.765496 -23.066749,-6.599479 -35.071515,-7.79367c-14.833114,-1.4456 -29.72908,1.257044 -44.625046,1.759861c-14.895966,0.502817 -31.237533,-1.759861 -41.231029,-10.810575c-3.771131,-3.45687 -6.410922,-7.605114 -9.427827,-11.564801c-9.113566,-11.941914 -22.186819,-21.998262 -28.974854,-35.008663c-6.096661,-11.564801 -4.839618,-27.40355 6.788035,-34.882959z" class="st0"/>
      </g>
     </g>
    </g>
    <g stroke="null" id="svg_11" class="st3">
     <g stroke="null" id="XMLID_7_">
      <g stroke="null" id="svg_12">
       <path stroke="null" id="svg_13" d="m928.299904,-284.351266c1.131339,10.936279 1.131339,21.93541 -3.45687,32.180315c-7.039444,15.775897 -23.820976,27.089289 -40.351098,37.019933c-7.228,4.3368 -14.770262,8.673601 -23.38101,10.622018c-11.564801,2.702644 -23.883828,0.817078 -35.888594,0.942783c-31.551793,0.251409 -60.463795,13.701775 -91.135658,19.861288c-27.969219,5.656696 -57.6983,5.153879 -85.353258,-1.4456c-11.627653,-2.765496 -23.066749,-6.599479 -35.071515,-7.79367c-14.833114,-1.4456 -29.72908,1.257044 -44.625046,1.759861c-14.895966,0.502817 -31.237533,-1.759861 -41.231029,-10.810575c-3.771131,-3.45687 -6.410922,-7.605114 -9.427827,-11.564801c-9.113566,-11.941914 -22.186819,-21.998262 -28.974854,-35.008663c-6.096661,-11.690505 -4.839618,-27.466402 6.788035,-35.008663c18.729949,1.822713 40.665359,4.90247 53.67576,5.845253c0.502817,0.062852 0.942783,0.062852 1.4456,0.062852c12.067618,15.964453 33.814472,27.026437 56.818369,28.032071c19.295619,0.754226 40.853916,-4.3368 56.441256,4.90247c5.342435,3.205461 9.176418,7.730818 14.330297,11.124836c13.890331,9.176418 34.128733,7.982227 51.287377,3.771131c17.158645,-4.211096 33.625915,-11.124836 51.475934,-11.753357c19.798436,-0.754226 40.288246,6.096661 58.955343,0.754226c19.547027,-5.593844 29.666228,-22.123967 36.957081,-38.465533c17.03294,-1.822713 33.814472,-4.3368 47.013429,-5.028174c1.257044,0.062852 2.451235,0 3.708279,0z" class="st0"/>
       <path stroke="null" id="svg_14" d="m877.578196,-279.197388c-7.290853,16.278714 -17.472906,32.808837 -36.957081,38.465533c-18.729949,5.342435 -39.156907,-1.508452 -58.955343,-0.754226c-17.850019,0.691374 -34.380141,7.479409 -51.475934,11.753357s-37.397046,5.468139 -51.287377,-3.771131c-5.153879,-3.394018 -8.987861,-7.982227 -14.330297,-11.124836c-15.524488,-9.364975 -37.145637,-4.148244 -56.441256,-4.90247c-23.003897,-1.005635 -44.813603,-12.004766 -56.818369,-28.032071c17.410053,0.754226 31.488941,-6.34807 57.069778,-9.993496c1.131339,-0.125704 2.262678,-0.314261 3.45687,-0.439965c2.765496,-0.377113 5.656696,-0.691374 8.673601,-0.942783c6.725183,-0.56567 12.884697,-0.377113 18.792801,0.314261c3.016905,0.377113 5.908105,0.817078 8.862157,1.319896c19.672732,3.708279 37.962716,11.376244 65.49197,12.381879c39.156907,1.382748 75.234057,-7.982227 94.152563,-11.124836c0.251409,-0.062852 0.502817,-0.125704 0.754226,-0.125704c4.085392,-0.691374 7.919374,-0.439965 11.627653,0.188557c11.941914,2.199826 23.003897,9.302122 40.09969,8.233635c5.7824,-0.314261 11.564801,-0.817078 17.284349,-1.4456z" class="st0"/>
      </g>
     </g>
    </g>
    <g stroke="null" id="svg_15" class="st3">
     <g stroke="null" id="XMLID_8_">
      <g stroke="null" id="svg_16">
       <path stroke="null" id="svg_17" d="m877.578196,-279.197388c-7.290853,16.278714 -17.472906,32.808837 -36.957081,38.465533c-18.729949,5.342435 -39.156907,-1.508452 -58.955343,-0.754226c-17.850019,0.691374 -34.380141,7.479409 -51.475934,11.753357s-37.397046,5.468139 -51.287377,-3.771131c-5.153879,-3.394018 -8.987861,-7.982227 -14.330297,-11.124836c-15.524488,-9.364975 -37.145637,-4.148244 -56.441256,-4.90247c-23.003897,-1.005635 -44.813603,-12.004766 -56.818369,-28.032071c17.410053,0.754226 31.488941,-6.34807 57.069778,-9.993496c1.131339,-0.125704 2.262678,-0.314261 3.45687,-0.439965c2.765496,-0.377113 5.656696,-0.691374 8.673601,-0.942783c6.725183,-0.56567 12.884697,-0.377113 18.792801,0.314261c3.016905,0.377113 5.908105,0.817078 8.862157,1.319896c19.672732,3.708279 37.962716,11.376244 65.49197,12.381879c39.156907,1.382748 75.234057,-7.982227 94.152563,-11.124836c0.251409,-0.062852 0.502817,-0.125704 0.754226,-0.125704c4.085392,-0.691374 7.919374,-0.439965 11.627653,0.188557c11.941914,2.199826 23.003897,9.302122 40.09969,8.233635c5.7824,-0.314261 11.564801,-0.817078 17.284349,-1.4456z" class="st0"/>
      </g>
     </g>
    </g>
   </g>
   <g stroke="null" id="XMLID_2_">
    <g stroke="null" id="svg_18">
     <path stroke="null" id="svg_19" d="m590.658003,-105.788228c23.38101,8.610748 69.200248,27.717811 74.228422,27.717811s58.389673,-3.708279 63.417848,-2.451235s75.108353,8.610748 78.439518,11.061983c3.331165,2.451235 31.677498,12.319027 31.677498,12.319027l78.439518,1.257044l0,3.708279l-73.411344,0c5.028174,3.708279 48.396177,25.895097 63.417848,27.089289c15.021671,1.257044 140.160357,1.257044 140.160357,1.257044s3.331165,4.90247 0,4.90247s-160.210202,2.451235 -173.534864,3.708279s-100.12352,11.061983 -108.482859,11.061983s-146.88554,-4.90247 -146.88554,-4.90247l-18.352836,13.638923l11.690505,9.867792l-207.726449,13.26181l-292.01122,-17.975723l-2.514087,0l0,-96.729502l0.628522,0l111.939729,32.934541l33.374507,-18.47854l68.446022,0c0,0 -70.080179,-33.248802 -73.411344,-36.957081c-2.451235,-2.702644 -9.23927,-10.559166 -21.118332,-22.689636c0,0 134.566513,15.335931 139.594688,15.335931s20.049845,13.57607 20.049845,13.57607l93.398337,-6.096661l-19.986993,-16.090158c0,0 150.216706,9.867792 153.547871,9.867792s84.284771,-33.877324 84.284771,-36.328559l11.690505,13.57607c0,0 -76.74251,36.957081 -91.76418,35.762889c-14.644558,-1.319896 -28.409185,-3.079757 -29.226263,-3.205461zm256.122626,81.95924c0,0 -40.036837,-12.319027 -41.733846,-14.833114c-1.697009,-2.451235 -8.35934,-8.610748 -8.35934,-8.610748l-68.38317,0c0,0 8.35934,7.353705 13.324662,7.353705c0,0 -16.718679,0 -28.346332,-4.90247l-78.439518,1.257044c8.35934,4.90247 45.065012,29.540524 48.396177,29.540524s80.073675,2.451235 85.101849,1.257044c5.028174,-1.194191 78.439518,-11.061983 78.439518,-11.061983zm-307.095742,2.451235l60.086682,0l-26.712176,-16.027305l-8.35934,-17.284349l-36.705672,-17.284349l-55.058508,-1.257044c0,3.708279 5.028174,20.929775 5.028174,20.929775l61.720839,30.923272zm-91.76418,-43.116594l21.684001,13.57607c-1.697009,-1.257044 -8.35934,-14.833114 -8.35934,-18.47854l-13.324662,4.90247zm-217.782797,12.947549l161.907211,8.610748l-58.389673,-22.186819l-76.74251,-2.451235l-26.775028,16.027305z" class="st4"/>
     <path stroke="null" id="svg_20" d="m1042.062347,-27.537267l5.028174,3.708279c0,0 -125.138687,0 -140.160357,-1.257044c-15.021671,-1.257044 -58.389673,-23.38101 -63.417848,-27.089289l73.411344,0l6.662331,0c0,0 11.690505,11.061983 16.718679,12.319027c4.965322,1.257044 101.757676,12.319027 101.757676,12.319027z" class="st5"/>
     <path stroke="null" id="svg_21" d="m916.860808,-55.883599l-78.439518,-1.257044c0,0 -28.346332,-9.867792 -31.677498,-12.319027s-73.411344,-9.867792 -78.439518,-11.061983s-58.389673,2.451235 -63.417848,2.451235s-50.847412,-19.04421 -74.228422,-27.717811c0.87993,0.062852 14.644558,1.885565 29.163411,3.079757c15.021671,1.257044 91.76418,-35.762889 91.76418,-35.762889s21.998262,23.883828 30.043341,28.346332c13.324662,7.353705 83.467693,19.735584 101.820529,25.895097s40.036837,11.061983 50.093186,13.57607c10.056349,2.451235 23.318158,14.770262 23.318158,14.770262z" class="st6"/>
     <path stroke="null" id="svg_22" d="m805.046783,-38.59925c1.697009,2.451235 41.733846,14.833114 41.733846,14.833114s-73.411344,9.867792 -78.439518,11.061983c-5.028174,1.257044 -81.770684,-1.257044 -85.101849,-1.257044s-40.036837,-24.638054 -48.396177,-29.540524l78.439518,-1.257044c11.690505,4.90247 28.346332,4.90247 28.346332,4.90247c-5.028174,0 -13.324662,-7.353705 -13.324662,-7.353705l68.446022,0c-0.062852,0 6.662331,6.096661 8.296488,8.610748z" class="st5"/>
     <path stroke="null" id="svg_23" d="m699.895089,-151.984579c0,2.451235 -80.953605,36.328559 -84.284771,36.328559s-153.485019,-9.80494 -153.485019,-9.80494l20.049845,16.027305l-93.461189,6.159513c0,0 -15.021671,-13.57607 -20.049845,-13.57607s-139.594688,-15.335931 -139.594688,-15.335931l-0.062852,-0.062852c-4.462505,-4.588209 -9.616383,-9.742088 -15.58734,-15.461636c-14.644558,-14.14174 -41.670994,-26.083654 -67.943205,-37.271342c35.134368,-1.822713 232.930172,-28.786298 247.386173,-32.30602c15.021671,-3.708279 208.606379,-3.708279 216.965719,-3.708279s90.067171,66.560457 90.067171,69.011692z" class="st7"/>
     <path stroke="null" id="svg_24" d="m599.771569,-21.377753l-60.086682,0l-61.720839,-30.797567c0,0 -5.028174,-17.284349 -5.028174,-20.929775l55.058508,1.257044l36.705672,17.284349l8.35934,17.284349l26.712176,15.901601z" class="st5"/>
     <path stroke="null" id="svg_25" d="m469.604708,-50.981129l-21.684001,-13.57607l13.324662,-4.90247c0,3.708279 6.725183,17.284349 8.35934,18.47854z" class="st5"/>
     <polygon stroke="null" id="svg_26" points="392.0451354980469,-42.935791015625 230.13790893554688,-51.546875 256.8500671386719,-67.57421875 333.5925750732422,-65.122802734375 " class="st5"/>
     <path stroke="null" id="svg_27" d="m323.599098,-72.539426l-68.446022,0l-33.374507,18.47854l-111.939729,-32.934541l0,-113.69959c10.810575,5.216731 23.129602,10.370609 35.637185,15.713045c-1.508452,0.062852 -2.702644,0.062852 -3.582574,0.062852l87.113119,52.670125l0.062852,0.062852c11.879062,12.13047 18.667097,19.986993 21.118332,22.689636c3.331165,3.708279 73.411344,36.957081 73.411344,36.957081z" class="st6"/>
     <path stroke="null" id="svg_28" d="m229.00657,-132.186143l-87.113119,-52.732977c0.87993,0 2.074122,0 3.582574,-0.062852c26.27221,11.187688 53.298647,23.129602 67.943205,37.334194c5.970957,5.656696 11.124836,10.873427 15.58734,15.461636z" class="st6"/>
    </g>
   </g>
   <g stroke="null" id="XMLID_4_">
    <g stroke="null" id="svg_29">
     <path stroke="null" id="svg_30" d="m1197.307227,-7.047456l3.394018,10.999131l-57.258334,-1.131339l-6.976592,-6.096661c3.645426,0.251409 7.165148,0.314261 9.993496,-0.062852c16.341566,-2.074122 33.75162,-2.01127 50.847412,-3.708279z" class="st2"/>
     <path stroke="null" id="svg_31" d="m1196.678705,-9.058726l0.628522,2.01127c-17.095792,1.759861 -34.505846,1.634157 -50.847412,3.771131c-2.828348,0.377113 -6.34807,0.314261 -9.993496,0.062852l-9.113566,-7.919374l-27.214993,-2.199826l-7.353705,-22.815341c5.216731,-3.079757 10.182053,-6.725183 14.078888,-11.061983l37.585603,6.599479l52.23016,31.551793z" class="st5"/>
     <path stroke="null" id="svg_32" d="m1143.44291,2.820335l-96.289537,-1.885565l4.399652,-6.222366c16.467271,-0.314261 32.997394,-0.691374 49.464664,-1.005635c7.416557,-0.125704 9.930644,0.691374 17.284349,1.257044c4.965322,0.377113 11.816209,1.382748 18.227132,1.759861l6.91374,6.096661z" class="st2"/>
     <path stroke="null" id="svg_33" d="m1127.352752,-11.1957l9.113566,7.919374c-6.34807,-0.377113 -13.26181,-1.382748 -18.227132,-1.759861c-7.353705,-0.56567 -9.867792,-1.382748 -17.284349,-1.257044c-16.467271,0.314261 -32.997394,0.691374 -49.464664,1.005635l13.764627,-19.484175c0,0 14.330297,-3.708279 27.529254,-11.439096l7.353705,22.815341l27.214993,2.199826z" class="st4"/>
     <path stroke="null" id="svg_34" d="m939.42474,56.181835l8.673601,13.010401l-51.475934,1.005635l0,-1.319896l-23.883828,-12.947549c22.123967,-0.502817 45.693534,-0.377113 66.686161,0.251409z" class="st2"/>
     <path stroke="null" id="svg_35" d="m924.905886,34.372129l14.518853,21.809706c-20.992627,-0.628522 -44.562194,-0.817078 -66.749013,-0.314261l-1.068487,-0.56567l-5.593844,-18.729949l-40.225394,-13.073253l-11.879062,-27.40355l19.735584,-21.306888l91.261363,59.583865z" class="st5"/>
     <path stroke="null" id="svg_36" d="m896.622406,68.877975l0,1.319896l-160.084498,3.079757l3.582574,-17.158645c31.048976,7.605114 45.190716,6.033809 81.519275,2.514087c14.330297,-1.382748 32.180315,-2.262678 51.098821,-2.702644l23.883828,12.947549z" class="st2"/>
     <path stroke="null" id="svg_37" d="m871.670092,55.301904l1.068487,0.56567c-18.918506,0.439965 -36.768524,1.319896 -51.098821,2.702644c-36.265707,3.582574 -50.470299,5.091026 -81.519275,-2.514087l0.314261,-1.508452l39.722577,-53.990021l33.75162,-4.462505l0.062852,-0.062852l11.879062,27.40355l40.225394,13.073253l5.593844,18.792801z" class="st4"/>
    </g>
   </g>
   <g stroke="null" id="svg_38">
    <path stroke="null" id="svg_39" d="m464.890795,-175.302737c10.244905,6.34807 40.288246,25.140871 31.17468,46.322055s-41.042472,7.542261 -57.761152,7.542261s-51.66449,4.525357 -80.576492,3.016905s-106.408738,-10.622018 -114.013851,-9.113566s-25.832245,-12.13047 -39.53402,-9.113566s-25.832245,15.147375 -39.53402,9.113566s-9.113566,-22.563932 -3.016905,-27.277845s48.647586,-19.672732 57.761152,-21.181184c9.176418,-1.4456 217.405684,-16.844384 245.500608,0.691374z" class="st8"/>
    <g stroke="null" id="XMLID_3_">
     <g stroke="null" id="svg_40">
      <path stroke="null" id="svg_41" d="m189.661107,-162.795154c-0.125704,-1.759861 -0.251409,-5.279583 0.691374,-9.867792c-0.628522,-0.188557 -1.382748,-0.062852 -2.199826,0.251409c-4.273948,1.571304 -9.993496,3.708279 -16.592975,6.34807c-15.210227,6.033809 -18.227132,9.113566 -13.701775,19.672732c4.588209,10.622018 9.113566,15.147375 18.227132,13.638923c9.113566,-1.508452 16.718679,-6.033809 21.306888,-22.689636c0,0 0.062852,-0.188557 0.188557,-0.56567c-5.7824,-3.016905 -7.79367,-5.468139 -7.79367,-5.468139s-0.062852,-0.502817 -0.125704,-1.319896z" class="st9"/>
      <path stroke="null" id="svg_42" d="m190.352481,-172.662946c-0.942783,4.588209 -0.87993,8.045079 -0.691374,9.867792c2.325531,-0.502817 4.713913,-0.942783 7.102296,-1.257044c-3.079757,-5.216731 -4.399652,-8.107931 -6.410922,-8.610748z" class="st9"/>
      <path stroke="null" id="svg_43" d="m189.661107,-162.795154c0.062852,0.817078 0.125704,1.257044 0.125704,1.257044s2.01127,2.514087 7.79367,5.468139c0.439965,-1.319896 1.257044,-4.651061 -0.188557,-7.039444c-0.188557,-0.377113 -0.439965,-0.691374 -0.628522,-1.068487c-2.388383,0.439965 -4.776766,0.87993 -7.102296,1.382748z" class="st9"/>
      <path stroke="null" id="svg_44" d="m190.352481,-172.662946c2.074122,0.502817 3.331165,3.331165 6.410922,8.547896c15.084523,-2.199826 30.923272,-1.319896 46.133499,0.439965c25.455132,2.954052 51.161673,8.045079 76.428249,3.771131c5.405287,-0.87993 10.936279,-2.325531 15.335931,-5.593844c-2.262678,-1.759861 -4.462505,-3.519722 -6.599479,-5.342435c-8.35934,-7.102296 -16.090158,-16.027305 -17.787166,-26.900732c-1.4456,-9.302122 1.885565,-18.981358 7.667966,-26.460767c4.90247,-6.34807 11.439096,-11.25054 18.47854,-15.147375c-6.599479,2.325531 -15.021671,3.771131 -26.523619,2.828348c-18.227132,-1.508452 -25.832245,-1.508452 -75.988283,19.672732c-32.117463,13.57607 -41.168177,32.368872 -43.556559,44.185081z" class="st10"/>
      <path stroke="null" id="svg_45" d="m196.763403,-164.11505c0.188557,0.314261 0.439965,0.691374 0.628522,1.068487c1.4456,2.388383 0.628522,5.719548 0.188557,7.039444c9.113566,4.776766 27.592106,10.873427 62.097952,10.433462c25.455132,-0.377113 42.550925,0 62.349361,4.525357c3.45687,0.817078 7.856522,1.194191 12.884697,1.319896c5.405287,-4.399652 8.35934,-7.353705 8.35934,-7.353705c2.01127,-2.01127 4.148244,-3.959687 5.7824,-6.096661c-4.399652,-4.462505 -9.427827,-8.296488 -14.393149,-12.256175c-4.399652,3.268313 -9.930644,4.713913 -15.335931,5.593844c-25.266576,4.273948 -50.973116,-0.817078 -76.428249,-3.771131c-15.210227,-1.822713 -31.048976,-2.702644 -46.133499,-0.502817z" class="st11"/>
      <path stroke="null" id="svg_46" d="m317.942402,-224.201732c-5.7824,7.479409 -9.113566,17.095792 -7.667966,26.460767c1.697009,10.810575 9.427827,19.735584 17.787166,26.900732c2.136974,1.822713 4.399652,3.582574 6.599479,5.342435c0.062852,0 0.125704,-0.062852 0.125704,-0.125704c3.268313,-2.451235 5.7824,-6.033809 6.536627,-9.930644c-5.908105,-7.856522 -5.970957,-14.456001 -1.068487,-23.066749c1.382748,-2.325531 2.8912,-4.3368 4.651061,-5.845253c-0.062852,-0.062852 -0.062852,-0.125704 -0.125704,-0.188557c-2.639791,-3.959687 -4.588209,-10.622018 -4.588209,-15.147375c0,-3.771131 1.005635,-14.644558 4.776766,-23.443862c-2.514087,1.4456 -5.342435,2.828348 -8.673601,4.022539c-6.976592,3.833983 -13.450366,8.736453 -18.352836,15.021671z" class="st12"/>
      <path stroke="null" id="svg_47" d="m334.786786,-139.665552c-6.473774,5.216731 -5.153879,7.667966 -2.136974,9.176418c0.062852,0 0.125704,0.062852 0.188557,0.062852c8.170783,-2.136974 15.964453,-5.719548 23.255306,-10.182053c-7.479409,0.56567 -14.833114,0.942783 -21.181184,0.817078c0,0 -0.062852,0.062852 -0.125704,0.125704z" class="st9"/>
      <path stroke="null" id="svg_48" d="m334.786786,-165.623502c-0.062852,0 -0.125704,0.062852 -0.125704,0.125704c4.965322,3.896835 9.993496,7.79367 14.393149,12.256175c3.331165,-4.399652 4.462505,-9.490679 -2.702644,-16.592975c-2.01127,-2.01127 -3.645426,-3.833983 -5.028174,-5.656696c-0.754226,3.833983 -3.268313,7.479409 -6.536627,9.867792z" class="st13"/>
      <path stroke="null" id="svg_49" d="m349.05423,-153.241623c-1.634157,2.136974 -3.771131,4.148244 -5.7824,6.096661c0,0 -3.016905,2.954052 -8.35934,7.353705c6.34807,0.125704 13.638923,-0.188557 21.181184,-0.817078c9.553531,-5.845253 18.289984,-13.324662 26.083654,-21.621149c-16.341566,-15.775897 -34.694402,-38.716942 -37.208489,-42.362368c-1.759861,1.571304 -3.331165,3.519722 -4.651061,5.845253c-4.965322,8.610748 -4.839618,15.210227 1.068487,23.066749c1.382748,1.822713 3.016905,3.708279 5.028174,5.656696c7.102296,7.290853 5.970957,12.381879 2.639791,16.781532z" class="st9"/>
      <path stroke="null" id="svg_50" d="m332.838368,-130.426282c3.268313,1.508452 13.57607,2.954052 19.547027,2.954052c6.096661,0 27.340697,-1.508452 36.454263,-9.113566c4.085392,-3.394018 6.34807,-5.908105 7.165148,-9.176418c-10.496314,1.822713 -25.643689,3.959687 -39.973985,5.091026c-7.228,4.588209 -14.958818,8.107931 -23.192454,10.244905z" class="st14"/>
      <path stroke="null" id="svg_51" d="m340.254925,-219.802079c0,4.525357 1.885565,11.187688 4.588209,15.147375c0,0.062852 0.062852,0.125704 0.125704,0.188557c6.159513,-5.468139 14.70741,-5.719548 24.198089,1.319896c10.056349,7.542261 17.03294,18.164279 21.684001,31.111828c1.885565,-2.262678 3.708279,-4.588209 5.468139,-6.976592c-16.781532,-29.163411 -45.127864,-67.880352 -49.967482,-64.989152c-0.439965,0.251409 -0.87993,0.502817 -1.319896,0.754226c-3.708279,8.736453 -4.776766,19.672732 -4.776766,23.443862z" class="st15"/>
      <path stroke="null" id="svg_52" d="m345.031691,-243.308794c0.439965,-0.251409 0.87993,-0.502817 1.319896,-0.754226c4.839618,-2.8912 33.18595,35.825742 49.967482,64.989152c25.580837,-34.317289 40.602507,-76.428249 42.362368,-119.16773l0,0c-2.954052,-7.102296 -5.908105,-13.890331 -8.296488,-19.60988c0.628522,5.468139 0.502817,14.895966 -6.473774,20.049845c-12.13047,9.113566 -35.322924,7.353705 -44.059377,6.033809c-9.80494,-1.4456 -16.090158,-8.233635 -21.93541,-15.901601c0.062852,2.576939 0.251409,5.342435 0.628522,8.296488c1.508452,12.13047 -4.588209,41.670994 -10.622018,50.721708c-1.131339,1.634157 -2.074122,3.45687 -2.8912,5.342435z" class="st15"/>
      <path stroke="null" id="svg_53" d="m369.166927,-203.146252c-9.490679,-7.102296 -18.038575,-6.788035 -24.198089,-1.319896c2.514087,3.645426 20.929775,26.586471 37.208489,42.362368c2.639791,-2.765496 5.216731,-5.656696 7.605114,-8.610748c0.377113,-0.439965 0.691374,-0.87993 1.068487,-1.319896c-4.651061,-12.947549 -11.627653,-23.632419 -21.684001,-31.111828z" class="st9"/>
      <path stroke="null" id="svg_54" d="m382.177328,-162.166632c-7.79367,8.233635 -16.530123,15.713045 -26.083654,21.621149c14.393149,-1.131339 29.477672,-3.268313 39.973985,-5.091026c0.377113,-1.319896 0.439965,-2.828348 0.314261,-4.588209c-4.148244,-2.765496 -9.050714,-6.976592 -14.204592,-11.941914z" class="st14"/>
      <path stroke="null" id="svg_55" d="m358.293501,-320.80553c-0.251409,3.582574 -0.56567,7.982227 -0.439965,13.198957c5.845253,7.667966 12.13047,14.456001 21.93541,15.901601c8.799305,1.257044 31.928906,3.016905 44.059377,-6.033809c6.91374,-5.153879 7.039444,-14.581705 6.473774,-20.049845c-0.754226,-1.822713 -1.4456,-3.519722 -2.136974,-5.153879c0.188557,2.262678 0.251409,4.399652 0.251409,6.285218c0,12.13047 -7.605114,16.655827 -15.210227,19.672732s-13.701775,1.508452 -24.323793,1.508452c0,0 -28.912002,-1.508452 -30.420454,-21.181184c-0.062852,-1.508452 -0.125704,-2.8912 -0.188557,-4.148244z" class="st16"/>
      <path stroke="null" id="svg_56" d="m361.876075,-341.609601c-2.765496,5.405287 -3.959687,11.941914 -3.645426,20.804071c0.125704,-1.948418 0.251409,-3.582574 0.251409,-5.028174c0,-1.319896 9.364975,-4.3368 21.05548,-6.788035c-0.87993,-1.319896 -1.634157,-2.8912 -2.136974,-4.651061l0,0c-5.216731,0.062852 -13.638923,-2.702644 -15.524488,-4.3368z" class="st17"/>
      <path stroke="null" id="svg_57" d="m358.293501,-320.80553c0.062852,1.319896 0.125704,2.639791 0.251409,4.085392c1.508452,19.672732 30.420454,21.181184 30.420454,21.181184c10.622018,0 16.718679,1.508452 24.323793,-1.508452s15.210227,-7.542261 15.210227,-19.672732c0,-1.885565 -0.062852,-4.022539 -0.251409,-6.285218c-0.87993,-2.136974 -1.634157,-4.085392 -2.199826,-5.656696c-0.377113,0.125704 -0.817078,0.188557 -1.257044,0.251409c-1.068487,0.125704 -2.074122,0.125704 -3.079757,0c1.319896,2.262678 2.262678,5.091026 2.262678,8.547896c0,8.422192 0,11.501949 -7.102296,17.03294c-9.679235,7.542261 -17.912871,3.959687 -24.260941,-1.4456c-9.113566,-7.79367 -7.542261,-14.393149 -2.828348,-23.066749l-3.142609,-1.068487c-2.954052,-0.188557 -5.279583,-1.759861 -6.976592,-4.211096c-11.753357,2.451235 -21.05548,5.468139 -21.05548,6.788035c-0.125704,1.4456 -0.188557,3.079757 -0.314261,5.028174z" class="st17"/>
      <path stroke="null" id="svg_58" d="m361.876075,-341.609601l15.524488,4.3368l0,0c-0.502817,-1.634157 -0.87993,-3.519722 -1.005635,-5.468139l-0.125704,0c-8.673601,-0.502817 -9.616383,-1.948418 -11.439096,-3.519722c-1.131339,1.508452 -2.074122,3.016905 -2.954052,4.651061z" class="st18"/>
      <path stroke="null" id="svg_59" d="m377.463415,-337.2728l-15.524488,-4.3368c1.822713,1.634157 10.244905,4.399652 15.524488,4.3368z" class="st18"/>
      <path stroke="null" id="svg_60" d="m364.830127,-346.19781l11.439096,3.519722l0.125704,0c-0.062852,-1.068487 -0.125704,-2.136974 -0.125704,-3.268313c0,-2.451235 1.885565,-4.588209 4.3368,-4.839618l33.688767,-3.896835c-10.68487,-4.462505 -28.597741,-8.799305 -40.602507,0.188557c-3.582574,2.576939 -6.536627,5.279583 -8.862157,8.296488z" class="st17"/>
      <path stroke="null" id="svg_61" d="m376.269224,-342.74094l-11.439096,-3.519722c1.822713,1.571304 2.828348,3.016905 11.439096,3.519722z" class="st18"/>
      <path stroke="null" id="svg_62" d="m376.269224,-346.009253c0,1.131339 0.062852,2.199826 0.125704,3.268313c0.188557,1.948418 0.502817,3.833983 1.005635,5.468139c0.502817,1.759861 1.257044,3.331165 2.136974,4.651061c2.262678,-0.439965 4.651061,-0.87993 7.039444,-1.319896c-0.87993,-2.765496 -1.319896,-5.970957 -1.257044,-9.427827c0,-2.262678 1.697009,-4.148244 3.959687,-4.399652l29.917637,-3.45687c-1.319896,-1.4456 -2.828348,-2.576939 -4.525357,-3.331165c-0.125704,-0.062852 -0.314261,-0.125704 -0.439965,-0.188557l-33.688767,3.896835c-2.388383,0.251409 -4.273948,2.388383 -4.273948,4.839618z" class="st19"/>
      <path stroke="null" id="svg_63" d="m386.576981,-328.347791c0.56567,0.062852 1.194191,0 1.822713,-0.062852c0.377113,-0.062852 0.754226,-0.125704 1.068487,-0.188557c-1.194191,-1.4456 -2.136974,-3.268313 -2.828348,-5.342435c-2.388383,0.439965 -4.776766,0.817078 -7.039444,1.319896c1.697009,2.514087 4.022539,4.085392 6.976592,4.273948z" class="st19"/>
      <path stroke="null" id="svg_64" d="m385.445642,-343.369462c-0.062852,3.45687 0.377113,6.662331 1.257044,9.427827c3.268313,-0.56567 6.662331,-1.068487 9.930644,-1.382748c6.473774,-3.771131 14.833114,-2.702644 15.901601,-1.634157c0.251409,0.251409 0.87993,0.628522 1.634157,1.131339c2.514087,0.251409 4.713913,0.691374 6.536627,1.319896c2.074122,-3.331165 1.571304,-8.862157 0.251409,-14.70741c-0.502817,-0.754226 -1.068487,-1.4456 -1.634157,-2.074122l-29.917637,3.45687c-2.262678,0.314261 -3.959687,2.199826 -3.959687,4.462505z"/>
      <path stroke="null" id="svg_65" d="m386.576981,-328.347791l3.142609,1.068487c0.125704,-0.188557 0.251409,-0.439965 0.314261,-0.628522c-0.188557,-0.188557 -0.377113,-0.439965 -0.56567,-0.628522c-0.314261,0.062852 -0.691374,0.125704 -1.068487,0.188557c-0.628522,0 -1.257044,0.062852 -1.822713,0z" class="st19"/>
      <path stroke="null" id="svg_66" d="m389.782442,-170.777381c-2.388383,2.954052 -4.965322,5.845253 -7.605114,8.610748c5.153879,4.965322 10.056349,9.176418 14.204592,11.879062c-0.251409,-3.331165 -1.319896,-7.542261 -2.954052,-13.513218c-0.754226,-2.828348 -1.634157,-5.593844 -2.639791,-8.296488c-0.251409,0.439965 -0.628522,0.87993 -1.005635,1.319896z" class="st14"/>
      <path stroke="null" id="svg_67" d="m386.639833,-333.941635c0.691374,2.074122 1.634157,3.896835 2.828348,5.342435c0.377113,-0.062852 0.754226,-0.188557 1.131339,-0.314261c0.188557,-0.314261 0.377113,-0.628522 0.502817,-0.942783c1.382748,-2.451235 3.331165,-4.211096 5.530992,-5.468139c-3.331165,0.377113 -6.662331,0.87993 -9.993496,1.382748z"/>
      <path stroke="null" id="svg_68" d="m389.656737,-327.342156c-4.651061,8.673601 -6.285218,15.273079 2.828348,23.066749c6.285218,5.405287 14.581705,8.987861 24.260941,1.4456c7.102296,-5.593844 7.102296,-8.610748 7.102296,-17.03294c0,-3.45687 -0.942783,-6.285218 -2.262678,-8.547896c-3.771131,-0.377113 -7.228,-2.074122 -9.616383,-3.079757c-1.068487,-0.125704 -2.136974,-0.377113 -3.142609,-0.691374c-3.708279,1.697009 -5.845253,6.222366 -11.376244,6.850887c-2.325531,0.251409 -4.273948,-0.251409 -5.970957,-1.319896l-1.822713,-0.691374zm16.090158,2.954052c-2.01127,-2.01127 -0.502817,-5.970957 3.959687,-5.970957c5.970957,0 5.970957,3.959687 3.959687,5.970957c-3.959687,3.959687 -3.959687,3.959687 -7.919374,0z" class="st20"/>
      <path stroke="null" id="svg_69" d="m389.656737,-327.342156l1.885565,0.628522c-0.56567,-0.377113 -1.068487,-0.817078 -1.508452,-1.257044c-0.125704,0.251409 -0.251409,0.439965 -0.377113,0.628522z" class="st19"/>
      <path stroke="null" id="svg_70" d="m389.468181,-328.5992c0.188557,0.251409 0.377113,0.439965 0.56567,0.628522c0.188557,-0.314261 0.377113,-0.628522 0.56567,-0.942783c-0.377113,0.125704 -0.754226,0.251409 -1.131339,0.314261z"/>
      <path stroke="null" id="svg_71" d="m391.542303,-326.650782c1.634157,1.068487 3.645426,1.571304 5.970957,1.319896c5.530992,-0.628522 7.667966,-5.153879 11.376244,-6.850887c-3.959687,-1.194191 -7.165148,-3.205461 -8.547896,-3.205461c-0.125704,0 -0.251409,0 -0.377113,0.062852c-3.268313,1.382748 -5.279583,5.028174 -9.364975,6.473774c-0.188557,0.314261 -0.377113,0.628522 -0.56567,0.942783c0.439965,0.439965 1.005635,0.87993 1.508452,1.257044z"/>
      <path stroke="null" id="svg_72" d="m391.102338,-329.856243c-0.188557,0.314261 -0.377113,0.628522 -0.502817,0.942783c4.085392,-1.382748 6.096661,-5.028174 9.364975,-6.473774c0.125704,-0.062852 0.251409,-0.062852 0.377113,-0.062852l0,-0.251409c-1.194191,0.062852 -2.451235,0.188557 -3.708279,0.377113c-2.199826,1.257044 -4.148244,3.016905 -5.530992,5.468139z"/>
      <path stroke="null" id="svg_73" d="m390.850929,-172.097276c1.005635,2.639791 1.885565,5.405287 2.639791,8.296488c1.634157,5.970957 2.702644,10.244905 2.954052,13.513218c2.954052,1.885565 5.468139,3.016905 7.479409,3.079757c1.319896,-0.251409 2.388383,-0.502817 3.268313,-0.754226c4.399652,-1.068487 -1.382748,-14.581705 -10.873427,-31.17468c-1.759861,2.451235 -3.582574,4.776766 -5.468139,7.039444z" class="st21"/>
      <path stroke="null" id="svg_74" d="m396.381921,-150.28757c0.125704,1.697009 0.062852,3.205461 -0.314261,4.588209c3.016905,-0.502817 5.656696,-1.005635 7.79367,-1.4456c-1.948418,-0.125704 -4.525357,-1.257044 -7.479409,-3.142609z" class="st21"/>
      <path stroke="null" id="svg_75" d="m396.633329,-335.324383c1.257044,-0.125704 2.451235,-0.251409 3.708279,-0.377113c5.028174,-0.439965 9.80494,-0.502817 13.827479,-0.125704c-0.754226,-0.502817 -1.319896,-0.87993 -1.634157,-1.131339c-1.131339,-1.068487 -9.427827,-2.136974 -15.901601,1.634157z"/>
      <path stroke="null" id="svg_76" d="m400.278756,-335.701496l0,0.251409c1.382748,0 4.588209,2.01127 8.547896,3.205461c0.062852,0 0.125704,-0.062852 0.188557,-0.062852c0.502817,-0.251409 1.571304,0.125704 2.954052,0.754226c1.131339,0.125704 2.388383,0.188557 3.582574,0.062852c1.131339,-0.125704 2.074122,-0.439965 2.8912,-0.87993c-1.571304,-1.508452 -3.205461,-2.639791 -4.399652,-3.394018c-3.959687,-0.439965 -8.736453,-0.314261 -13.764627,0.062852z"/>
      <path stroke="null" id="svg_77" d="m403.86133,-147.144962c0.062852,0 0.188557,0 0.251409,0c9.679235,0 20.112697,-11.376244 30.231898,-25.015167c0.125704,-28.157776 20.48981,-47.201986 22.375375,-48.961847c0.628522,-11.061983 -0.942783,-22.123967 -2.451235,-32.054611c-1.634157,-10.747722 -8.799305,-28.786298 -15.650192,-45.127864c-1.759861,42.739481 -16.718679,84.85044 -42.362368,119.16773c9.490679,16.592975 15.273079,30.043341 10.873427,31.17468c-0.87993,0.251409 -1.948418,0.502817 -3.268313,0.817078z" class="st21"/>
      <path stroke="null" id="svg_78" d="m409.706582,-330.359061c-4.462505,0 -5.970957,3.959687 -3.959687,5.970957c3.959687,3.959687 3.959687,3.959687 7.982227,0c2.01127,-2.01127 2.01127,-5.970957 -4.022539,-5.970957z" class="st22"/>
      <path stroke="null" id="svg_79" d="m409.078061,-332.307478c-0.062852,0 -0.125704,0.062852 -0.188557,0.062852c1.005635,0.314261 2.074122,0.56567 3.142609,0.691374c-1.382748,-0.628522 -2.451235,-1.005635 -2.954052,-0.754226z" class="st20"/>
      <path stroke="null" id="svg_80" d="m415.614687,-331.4904c-1.194191,0.125704 -2.451235,0.125704 -3.582574,-0.062852c2.388383,1.005635 5.7824,2.702644 9.616383,3.079757c-0.942783,-1.571304 -2.01127,-2.828348 -3.142609,-3.896835c-0.817078,0.439965 -1.759861,0.754226 -2.8912,0.87993z"/>
      <path stroke="null" id="svg_81" d="m414.294791,-354.808558c0.125704,0.062852 0.314261,0.125704 0.439965,0.188557c1.697009,0.754226 3.205461,1.885565 4.525357,3.331165l1.131339,-0.125704c-0.377113,-1.508452 -1.508452,-2.702644 -2.8912,-3.205461l-0.188557,-0.062852c-0.628522,-0.251409 -1.382748,-0.314261 -2.074122,-0.251409l-0.942783,0.125704z" class="st19"/>
      <path stroke="null" id="svg_82" d="m417.311696,-354.682854l0.188557,0.062852c-0.062852,0 -0.125704,0 -0.188557,-0.062852z" class="st19"/>
      <path stroke="null" id="svg_83" d="m425.545331,-351.854506l-8.045079,-2.765496c1.382748,0.502817 2.514087,1.697009 2.8912,3.205461l4.022539,-0.439965c0.377113,-0.062852 0.754226,-0.062852 1.131339,0z" class="st19"/>
      <path stroke="null" id="svg_84" d="m414.106235,-335.8272c1.194191,0.817078 2.828348,1.885565 4.399652,3.394018c0.942783,-0.502817 1.634157,-1.194191 2.136974,-2.074122c-1.822713,-0.628522 -4.022539,-1.068487 -6.536627,-1.319896z"/>
      <path stroke="null" id="svg_85" d="m420.391453,-351.414541l-1.131339,0.125704c0.56567,0.628522 1.131339,1.319896 1.634157,2.074122c-0.125704,-0.691374 -0.314261,-1.382748 -0.502817,-2.199826c0,0.062852 0,0.062852 0,0z" class="st18"/>
      <path stroke="null" id="svg_86" d="m425.545331,-351.854506c-0.377113,-0.062852 -0.754226,-0.062852 -1.194191,0l-4.022539,0.439965c0,0 0,0 0,0.062852c0.188557,0.754226 0.377113,1.4456 0.502817,2.136974c3.519722,5.091026 5.593844,12.69614 6.599479,19.92414c4.965322,-2.639791 4.085392,-10.810575 2.01127,-19.04421c-0.377113,-1.885565 -2.01127,-3.268313 -3.896835,-3.519722z"/>
      <path stroke="null" id="svg_87" d="m420.642861,-334.444452c-0.502817,0.87993 -1.194191,1.571304 -2.136974,2.074122c1.131339,1.068487 2.199826,2.388383 3.142609,3.896835c1.005635,0.125704 2.074122,0.125704 3.079757,0c0.439965,-0.062852 0.87993,-0.125704 1.257044,-0.251409c-0.188557,-0.56567 -0.439965,-1.131339 -0.56567,-1.697009c-0.628522,-1.822713 -2.325531,-3.142609 -4.776766,-4.022539z"/>
      <path stroke="null" id="svg_88" d="m420.89427,-349.214714c1.319896,5.845253 1.822713,11.439096 -0.251409,14.70741c2.451235,0.87993 4.148244,2.262678 4.776766,4.085392c0.188557,0.502817 0.377113,1.068487 0.56567,1.697009c0.56567,-0.125704 1.068487,-0.314261 1.508452,-0.56567c-1.005635,-7.228 -3.079757,-14.770262 -6.599479,-19.92414z"/>
      <path stroke="null" id="svg_89" d="m427.493749,-329.290574c-0.439965,0.251409 -0.942783,0.439965 -1.508452,0.56567c0.56567,1.634157 1.382748,3.519722 2.199826,5.656696c-0.125704,-1.948418 -0.377113,-4.085392 -0.691374,-6.222366z" class="st15"/>
      <path stroke="null" id="svg_90" d="m434.344636,-172.160128c-0.188557,29.540524 13.827479,26.523619 24.512349,26.523619c9.679235,0 24.323793,-13.701775 17.850019,-17.410053c-0.691374,-0.377113 -1.571304,-0.628522 -2.702644,-0.817078c-7.228,-0.87993 -12.821844,-4.965322 -15.524488,-10.999131c-1.885565,-4.148244 -2.451235,-9.176418 -1.194191,-14.770262c3.016905,-13.638923 1.508452,-25.769393 -0.439965,-31.677498c0,0 -0.062852,0.062852 -0.125704,0.125704c-0.56567,10.873427 -3.268313,21.746854 -10.056349,31.551793c-3.959687,5.845253 -8.107931,11.879062 -12.319027,17.472906z" class="st14"/>
      <path stroke="null" id="svg_91" d="m456.720012,-221.059123c-1.885565,1.697009 -22.249671,20.804071 -22.375375,48.961847c4.211096,-5.656696 8.35934,-11.690505 12.319027,-17.410053c6.788035,-9.80494 9.490679,-20.678367 10.056349,-31.551793z" class="st21"/>
      <path stroke="null" id="svg_92" d="m458.479873,-174.79992l18.352836,11.564801l0.251409,0.125704c-3.016905,-5.970957 -15.901601,-14.330297 -18.604245,-11.690505z" class="st9"/>
      <path stroke="null" id="svg_93" d="m476.832709,-163.172267l-18.352836,-11.564801c2.765496,6.033809 8.35934,10.056349 15.524488,10.999131c1.131339,0.125704 2.01127,0.439965 2.702644,0.817078l0.125704,-0.251409z" class="st9"/>
     </g>
    </g>
   </g>
   <g stroke="null" id="svg_94">
    <path stroke="null" id="svg_95" d="m552.19247,-196.861034c-8.233635,4.90247 7.228,23.318158 13.387514,35.071515s28.660593,32.243167 36.328559,42.99089c4.651061,6.536627 25.580837,11.25054 45.127864,5.028174c24.260941,-7.730818 31.928906,-20.175549 23.695271,-33.940176c-17.472906,-23.443862 -105.591659,-56.818369 -118.539208,-49.150403z" class="st23"/>
    <path stroke="null" id="svg_96" d="m609.199396,-212.825488l60.463795,65.429117c2.136974,2.262678 1.131339,6.285218 -1.697009,7.290853l-49.527516,16.907236c-1.382748,0.439965 -2.828348,0.062852 -3.833983,-1.005635l-60.463795,-65.429117c-2.136974,-2.262678 -1.131339,-6.285218 1.697009,-7.290853l49.527516,-16.907236c1.382748,-0.439965 2.8912,-0.062852 3.833983,1.005635z" class="st24"/>
    <path stroke="null" id="svg_97" d="m609.576509,-214.396792l60.463795,65.429117c2.136974,2.262678 1.131339,6.285218 -1.697009,7.290853l-49.527516,16.907236c-1.382748,0.439965 -2.828348,0.062852 -3.833983,-1.005635l-60.463795,-65.366265c-2.136974,-2.262678 -1.131339,-6.285218 1.697009,-7.290853l49.527516,-16.907236c1.382748,-0.502817 2.8912,-0.125704 3.833983,0.942783z" class="st25"/>
    <path stroke="null" id="svg_98" d="m638.111398,-268.072552l60.02383,62.286509c1.634157,1.697009 2.01127,4.3368 1.068487,6.599479l-21.118332,48.270473c-1.571304,3.582574 -5.7824,4.462505 -8.233635,1.759861l-59.395308,-64.36063c-1.571304,-1.697009 -1.948418,-4.3368 -0.942783,-6.536627l20.426958,-46.196351c1.508452,-3.519722 5.656696,-4.399652 8.170783,-1.822713z" class="st19"/>
    <path stroke="null" id="svg_99" d="m609.953622,-203.774774l46.133499,50.21889c1.131339,1.194191 0.628522,3.394018 -0.942783,3.896835l-23.94668,8.296488c-0.754226,0.251409 -1.508452,0.062852 -2.074122,-0.56567l-46.133499,-50.21889c-1.131339,-1.194191 -0.628522,-3.394018 0.942783,-3.896835l23.94668,-8.296488c0.754226,-0.188557 1.508452,0 2.074122,0.56567z" class="st24"/>
    <path stroke="null" id="svg_100" d="m596.251847,-172.474389l14.204592,15.398784c0.691374,0.754226 0.377113,2.136974 -0.56567,2.514087l-11.313392,3.833983c-0.439965,0.188557 -0.942783,0 -1.319896,-0.314261l-14.204592,-15.398784c-0.691374,-0.754226 -0.377113,-2.136974 0.56567,-2.514087l11.313392,-3.833983c0.502817,-0.188557 1.005635,-0.062852 1.319896,0.314261z" class="st24"/>
    <path stroke="null" id="svg_101" d="m657.972686,-232.121106l32.557428,33.688767c0.377113,0.377113 1.005635,0.251409 1.194191,-0.251409l0.377113,-0.942783c0.125704,-0.314261 0.062852,-0.754226 -0.125704,-1.005635l-32.557428,-33.688767c-0.377113,-0.377113 -1.005635,-0.251409 -1.194191,0.251409l-0.377113,0.942783c-0.188557,0.377113 -0.125704,0.754226 0.125704,1.005635z" class="st26"/>
    <path stroke="null" id="svg_102" d="m640.18552,-241.234672l47.516247,49.213255c0.377113,0.377113 1.005635,0.251409 1.194191,-0.251409l0.377113,-0.87993c0.125704,-0.314261 0.062852,-0.754226 -0.125704,-1.005635l-47.516247,-49.213255c-0.377113,-0.377113 -1.005635,-0.251409 -1.194191,0.251409l-0.377113,0.87993c-0.125704,0.377113 -0.062852,0.754226 0.125704,1.005635z" class="st26"/>
    <path stroke="null" id="svg_103" d="m670.605974,-200.380756l14.330297,14.833114c0.377113,0.377113 0.942783,0.251409 1.131339,-0.251409l0.439965,-1.005635c0.125704,-0.314261 0.062852,-0.691374 -0.125704,-0.942783l-14.393149,-14.833114c-0.377113,-0.377113 -0.942783,-0.251409 -1.131339,0.251409l-0.439965,1.005635c-0.125704,0.377113 -0.062852,0.754226 0.188557,0.942783z" class="st26"/>
    <path stroke="null" id="svg_104" d="m659.669695,-212.008409l7.416557,7.605114c0.377113,0.377113 0.942783,0.251409 1.194191,-0.251409l0.439965,-0.942783c0.125704,-0.314261 0.062852,-0.691374 -0.125704,-0.942783l-7.416557,-7.605114c-0.377113,-0.377113 -0.942783,-0.251409 -1.194191,0.251409l-0.439965,0.942783c-0.188557,0.314261 -0.125704,0.691374 0.125704,0.942783z" class="st26"/>
    <path stroke="null" id="svg_105" d="m666.332026,-186.427573l7.667966,7.982227c0.377113,0.377113 1.068487,0.251409 1.257044,-0.314261l0.377113,-0.817078c0.125704,-0.377113 0.062852,-0.754226 -0.188557,-1.068487l-7.667966,-7.982227c-0.377113,-0.377113 -1.068487,-0.251409 -1.257044,0.314261l-0.377113,0.817078c-0.125704,0.377113 -0.062852,0.817078 0.188557,1.068487z" class="st26"/>
    <path stroke="null" id="svg_106" d="m662.435191,-199.815087l14.456001,14.958818c0.377113,0.377113 1.005635,0.251409 1.257044,-0.314261l0.377113,-0.87993c0.125704,-0.377113 0.062852,-0.754226 -0.188557,-1.005635l-14.456001,-14.958818c-0.377113,-0.377113 -1.005635,-0.251409 -1.257044,0.314261l-0.377113,0.87993c-0.125704,0.314261 -0.062852,0.754226 0.188557,1.005635z" class="st26"/>
    <path stroke="null" id="svg_107" d="m637.042911,-226.46441l21.684001,22.438228c0.314261,0.377113 0.942783,0.251409 1.131339,-0.251409l0.439965,-1.005635c0.125704,-0.314261 0.062852,-0.691374 -0.125704,-0.942783l-21.684001,-22.438228c-0.314261,-0.377113 -0.942783,-0.251409 -1.131339,0.251409l-0.439965,1.005635c-0.125704,0.314261 -0.062852,0.691374 0.125704,0.942783z" class="st26"/>
    <path stroke="null" id="svg_108" d="m645.842216,-207.608757l16.907236,17.472906c0.377113,0.377113 1.005635,0.251409 1.257044,-0.251409l0.377113,-0.87993c0.125704,-0.314261 0.062852,-0.754226 -0.188557,-1.005635l-16.907236,-17.472906c-0.377113,-0.377113 -1.005635,-0.251409 -1.257044,0.251409l-0.377113,0.87993c-0.062852,0.377113 0,0.754226 0.188557,1.005635z" class="st26"/>
    <path stroke="null" id="svg_109" d="m638.739919,-205.597487l32.368872,33.500211c0.439965,0.439965 1.131339,0.314261 1.382748,-0.314261l0.314261,-0.691374c0.188557,-0.377113 0.125704,-0.87993 -0.188557,-1.131339l-32.368872,-33.500211c-0.439965,-0.439965 -1.131339,-0.314261 -1.382748,0.314261l-0.314261,0.691374c-0.188557,0.377113 -0.125704,0.87993 0.188557,1.131339z" class="st26"/>
    <path stroke="null" id="svg_110" d="m620.701344,-216.156653l52.984386,54.932804c0.439965,0.439965 1.068487,0.251409 1.319896,-0.314261l0.314261,-0.754226c0.188557,-0.377113 0.125704,-0.817078 -0.188557,-1.068487l-52.921534,-54.932804c-0.439965,-0.439965 -1.068487,-0.251409 -1.319896,0.314261l-0.314261,0.754226c-0.188557,0.314261 -0.125704,0.754226 0.125704,1.068487z" class="st26"/>
    <path stroke="null" id="svg_111" d="m663.315121,-164.366458l7.919374,8.233635c0.377113,0.377113 1.005635,0.251409 1.194191,-0.251409l0.377113,-0.87993c0.125704,-0.314261 0.062852,-0.754226 -0.125704,-1.005635l-7.919374,-8.233635c-0.377113,-0.377113 -1.005635,-0.251409 -1.194191,0.251409l-0.377113,0.87993c-0.188557,0.377113 -0.125704,0.754226 0.125704,1.005635z" class="st26"/>
    <path stroke="null" id="svg_112" d="m627.363675,-201.512096l31.551793,32.62028c0.377113,0.377113 0.942783,0.251409 1.194191,-0.251409l0.439965,-0.942783c0.125704,-0.314261 0.062852,-0.691374 -0.125704,-0.942783l-31.551793,-32.62028c-0.377113,-0.377113 -0.942783,-0.251409 -1.194191,0.251409l-0.439965,0.942783c-0.188557,0.314261 -0.125704,0.691374 0.125704,0.942783z" class="st26"/>
   </g>
   <g stroke="null" id="svg_113">
    <path stroke="null" id="svg_114" d="m537.1708,-131.24336c-6.159513,11.439096 -7.542261,8.799305 -21.244036,-2.514087c-8.736453,-7.228 -25.580837,-16.15301 -18.981358,-19.107062s24.638054,7.605114 29.100558,-2.136974s23.883828,-11.187688 21.244036,2.514087c-2.954052,15.58734 -9.993496,20.992627 -10.119201,21.244036z" class="st8"/>
    <path stroke="null" id="svg_115" d="m523.469025,-172.285833c-7.353705,7.353705 -20.238401,6.033809 -31.928906,-10.370609c-11.690505,-16.341566 -20.48981,-20.238401 -5.656696,-25.015167s24.82661,-2.639791 34.317289,6.850887s10.810575,20.992627 3.268313,28.534889z" class="st8"/>
    <g stroke="null" id="XMLID_6_">
     <g stroke="null" id="svg_116">
      <path stroke="null" id="svg_117" d="m502.350693,-212.134114c-9.616383,9.050714 -17.095792,11.25054 -14.644558,16.467271c2.576939,5.530992 14.016036,-8.170783 14.016036,-8.170783c-0.502817,-3.268313 -0.314261,-6.222366 0.628522,-8.296488z" class="st18"/>
      <path stroke="null" id="svg_118" d="m502.350693,-212.134114c-1.005635,2.074122 -1.194191,5.028174 -0.628522,8.296488c0.502817,2.702644 1.4456,5.656696 3.016905,8.547896c4.022539,7.479409 10.119201,11.753357 14.14174,9.993496l1.382748,-0.942783c0.502817,-0.502817 0.87993,-1.068487 1.194191,-1.759861c-3.833983,-0.125704 -8.673601,-4.148244 -11.941914,-10.433462c-3.331165,-6.285218 -4.211096,-12.884697 -2.451235,-16.718679c-0.817078,0 -1.634157,0.125704 -2.325531,0.502817c-0.188557,0.062852 -0.314261,0.188557 -0.502817,0.314261c-0.754226,0.439965 -1.382748,1.194191 -1.885565,2.199826z" class="st27"/>
      <path stroke="null" id="svg_119" d="m508.573059,-217.22514l-3.771131,2.514087c0.691374,-0.377113 1.508452,-0.502817 2.325531,-0.502817c0.377113,-0.817078 0.817078,-1.4456 1.4456,-2.01127z" class="st27"/>
      <path stroke="null" id="svg_120" d="m523.217616,-188.313138c0.377113,-0.125704 0.817078,-0.314261 1.131339,-0.56567c3.959687,-2.639791 3.708279,-11.187688 -0.502817,-19.107062c-4.022539,-7.542261 -10.244905,-11.816209 -14.204592,-9.930644l-1.068487,0.691374c-0.628522,0.502817 -1.068487,1.194191 -1.4456,2.01127c3.833983,0.125704 8.610748,4.148244 11.941914,10.433462s4.211096,12.884697 2.451235,16.718679c0.628522,0 1.194191,-0.062852 1.697009,-0.251409z" class="st19"/>
      <path stroke="null" id="svg_121" d="m508.573059,-217.22514l1.068487,-0.691374c-0.188557,0.062852 -0.439965,0.188557 -0.56567,0.314261c-0.188557,0.125704 -0.377113,0.251409 -0.502817,0.377113z" class="st27"/>
      <path stroke="null" id="svg_122" d="m520.326416,-186.301869l-1.382748,0.942783c0.251409,-0.062852 0.439965,-0.188557 0.691374,-0.377113c0.188557,-0.125704 0.439965,-0.314261 0.691374,-0.56567z" class="st27"/>
      <path stroke="null" id="svg_123" d="m520.326416,-186.301869l2.8912,-2.01127c-0.56567,0.188557 -1.131339,0.251409 -1.697009,0.251409c-0.314261,0.691374 -0.691374,1.319896 -1.194191,1.759861z" class="st27"/>
      <path stroke="null" id="svg_124" d="m504.801928,-151.921727c-3.268313,4.776766 8.547896,10.056349 18.604245,13.890331c-1.571304,-1.508452 -2.01127,-5.153879 -1.319896,-9.742088c0.062852,0 -13.890331,-9.050714 -17.284349,-4.148244z" class="st18"/>
      <path stroke="null" id="svg_125" d="m536.228017,-170.840233c-3.519722,-0.188557 -8.610748,6.033809 -11.879062,14.644558c-1.068487,2.954052 -1.822713,5.7824 -2.199826,8.35934c-0.691374,4.588209 -0.251409,8.233635 1.319896,9.742088c0.251409,0.062852 0.502817,0.188557 0.691374,0.251409l1.4456,0.502817c0.56567,-0.062852 1.257044,-0.251409 1.885565,-0.628522c-1.257044,-3.331165 -0.628522,-9.742088 1.948418,-16.530123c2.576939,-6.850887 6.285218,-12.193323 9.490679,-13.953184c-0.314261,-0.87993 -0.754226,-1.508452 -1.319896,-1.885565l-0.062852,-0.062852l-1.319896,-0.439965l0,0z" class="st27"/>
      <path stroke="null" id="svg_126" d="m536.290869,-170.777381l1.319896,0.439965c-0.188557,-0.125704 -0.439965,-0.251409 -0.691374,-0.314261c-0.188557,-0.125704 -0.439965,-0.125704 -0.628522,-0.125704z" class="st27"/>
      <path stroke="null" id="svg_127" d="m541.319043,-169.080372l-3.645426,-1.194191c0.56567,0.377113 1.005635,1.005635 1.319896,1.885565c0.754226,-0.502817 1.571304,-0.754226 2.325531,-0.691374z" class="st27"/>
      <path stroke="null" id="svg_128" d="m541.319043,-169.080372c-0.754226,-0.062852 -1.508452,0.188557 -2.388383,0.691374c1.257044,3.331165 0.628522,9.742088 -1.948418,16.530123c-2.576939,6.850887 -6.285218,12.193323 -9.490679,13.953184c0.251409,0.691374 0.628522,1.257044 1.068487,1.634157l2.136974,0.691374c3.45687,-0.314261 8.296488,-6.410922 11.376244,-14.644558c3.205461,-8.547896 3.394018,-16.404418 0.56567,-18.415688l0,0l-1.319896,-0.439965z" class="st19"/>
      <path stroke="null" id="svg_129" d="m541.319043,-169.080372l1.319896,0.439965c-0.188557,-0.125704 -0.439965,-0.251409 -0.691374,-0.314261c-0.188557,-0.125704 -0.439965,-0.125704 -0.628522,-0.125704z" class="st19"/>
      <path stroke="null" id="svg_130" d="m524.160399,-137.779987c-0.251409,-0.062852 -0.439965,-0.188557 -0.691374,-0.251409c0.314261,0.314261 0.628522,0.502817 1.005635,0.628522s0.754226,0.125704 1.131339,0.125704l-1.4456,-0.502817z" class="st27"/>
      <path stroke="null" id="svg_131" d="m525.605999,-137.27717l2.954052,1.005635c-0.439965,-0.377113 -0.817078,-0.942783 -1.068487,-1.634157c-0.628522,0.377113 -1.257044,0.56567 -1.885565,0.628522z" class="st27"/>
      <path stroke="null" id="svg_132" d="m528.560051,-136.334387c0.314261,0.314261 0.628522,0.502817 0.942783,0.628522c0.377113,0.125704 0.754226,0.125704 1.194191,0.125704l-2.136974,-0.754226z" class="st19"/>
     </g>
    </g>
   </g>
   <path stroke="null" id="svg_133" d="m107.639014,-200.883574c33.374507,16.027305 83.090579,32.871689 104.774581,53.864317c21.684001,20.929775 33.374507,34.505846 36.705672,38.214124c3.331165,3.708279 73.411344,36.957081 73.411344,36.957081l-68.38317,0l-33.374507,18.415688l-113.133921,-33.311654l0,-114.139555z" class="st6"/>
  </g>
 </g>
</svg>