<?xml version="1.0" encoding="utf-8"?>
<!-- Generator: Adobe Illustrator 22.1.0, SVG Export Plug-In . SVG Version: 6.00 Build 0)  -->
<svg version="1.1" id="Layer_1" xmlns="http://www.w3.org/2000/svg" xmlns:xlink="http://www.w3.org/1999/xlink" x="0px" y="0px"
	 viewBox="0 0 1445 3768.5" style="enable-background:new 0 0 1445 3768.5;" xml:space="preserve">
<style type="text/css">
	.st0{fill:#6B6B6B;}
	.st1{fill:#595959;}
	.st2{display:none;fill:#999999;}
	.st3{fill:#4D4D4D;}
	.st4{display:none;fill:#8C8C8C;}
	.st5{display:none;opacity:0.28;fill:#FFFFFF;enable-background:new    ;}
</style>
<path class="st0" d="M743,576.5c34-42,67-205,67-205l-47-69c0,0-112-25-112-48s-52-101-58-123s-96-59-112-73S361.2,0,361.2,0
	l-80.5,11.9l-65.9,2c0.3,0-83.8,8-83.8,8L-23.6,63.8c0,0-16.3,95.1-15.1,165.9c7.8,480.2,13,958,6.2,1438.2l0.5,0
	c-10.9,149.5-21.3,299.2-17.3,449c2.5,95.8,10.9,191.3,15.9,287c8.2,157.2,7.3,314.7,7.6,472.1c0.2,95.9,0.9,191.8,2,287.7l1.4,0
	c-0.2-21.1,506,0,613.1-204.7c21.3-40.7,21.3-69.5,2.1-111.1l3.5,4c-3.3-5-7.3-9.6-12-13.3c-15.2-11.8-38.4-15.8-45.3-33.7
	c-3.9-10-1.1-21.7-4.8-31.8c-7.9-21.2-38-23.4-52.7-40.6c-6.9-8-9.8-18.6-12.5-28.8c-9.8-36.9-19.6-73.8-29.4-110.8
	c13.6-24.6,30.4-47.4,49.9-67.7c-22.4-25.4-1.7-63.8,5.5-96.9c5.7-26.3,2-53.6-1.7-80.2c-4.2-29.9-8.4-59.9-12.6-89.8
	c-2.7-19,1.4-46.2,20.5-45.8c13.3-23.4,27.1-48.8,24.1-75.5c-2.4-21.6-15.5-40.2-23.8-60.2c-8.4-20-11-45.9,4.5-61.1
	c8.9-8.7,21.7-11.9,32.2-18.6c12.6-8.1,21.2-20.9,29.5-33.4c17-25.7,34.1-51.4,51.1-77.2c6-9,12.2-18.8,12.2-29.6
	c0.1-14.8-11.1-26.9-17.2-40.3c-10-22.3-5.7-47.9-5.4-72.3c0.4-31.2-6-62.5-18.8-91c-3.5-7.9-7.5-15.5-12.7-22.4
	c-0.4-0.6-0.9-1.4-1.3-2.6c-15.8,17.2-57-151.9-64-187.2c-11.5-14.5-29-27.2-57.7-33.6c-5.3,0.3,54.7-37.5,72.8-105.9l0.2-0.1
	c-9.7-21.5-38.8-71.7-37.8-76.5c2.3-11.1,11.4-19.2,18.9-27.7c31.1-35.2,40.3-84.1,58.9-127.3c18.6-43.2,54-74.1,103.3-81.7
	c19.9-28.8,36-61.3,39.6-96.1c3.2-31.3-1.4-64.5-21.4-87.8l0,0c-19-25-60-32-60-32C657,769.5,709,618.5,743,576.5z"/>
<path class="st1" d="M526.5,1301.6c2.2,4.9,3.4,8.3,3,9.4c-21,54-24,101-79,96c1,0.2,2,0.4,3,0.6c-5.3,0.3-10.3,0.7-14.8,1.7
	c-13.7,2.8-27.8,2.3-41.7,2.1c-66.1-1.2-144.5-0.4-205.5-9.4c45-3,72.8-6.9,107.5-9c26.8-1.6,54,1.1,80.1-4.9
	c40.4-9.3,73.6-38.3,113.4-50.2c5.7-1.7,11.8-3.2,16.3-7c8.7-7.5,9.1-21.6,17.6-29.2L526.5,1301.6z"/>
<path class="st2" d="M292.5-63.9l-137.3,1.8l-32.1-21.4c0,0-23.2-53.5-53.5-74.9c-27-19-63.8-64.8-71.6-74.8v-0.9
	c22.1,14.7,68.3,45.5,80.5,52.5c12.5,7.1,90.9,30.3,114.1,30.3c0,0,14.3,16.1,14.3,23.2l14.3,23.2L292.5-63.9z"/>
<path class="st3" d="M598,2854l-1.7-2c0,0,0,0,0,0c0,0,0,0,0,0l-3.5-4c19.3,41.6,13.2,93.8-15.2,129.9
	c-19.9,25.3-48.7,41.9-77.5,56.4c-18,9-36.5,17.5-56.1,21.7c-15,3.2-30.4,3.9-45.7,4.3c-38.1,1-76.3,0.1-114.2,4.2
	c-50.5,5.5-99.8,20-150.4,24.9c-46,4.5-92.4,1.1-138.6-0.3c-3.9-0.1-8.2,0-10.9,2.8c-2.1,2.2-2.5,5.6-2.8,8.7
	c-2,20.8-3.9,42.2-3.7,63.3c0.1,6.7,0.3,13.4,0.9,20c-0.5-6.6-0.8-13.3-0.9-20l-1.4,0c2.1,180.1,5.9,360.2,11.4,540.2
	c40.4-37.5,80.9-75,124.6-108.7c40.1-31,85.6-62.5,99.6-111.3c10.8-37.5,0.4-77.7,4.5-116.5c4.7-44.5,28.2-84.5,51.2-122.9
	c5.8-9.8,11.9-19.8,20.7-27.1c7.1-6,15.8-9.8,24.3-13.6c15.6-7,31.3-13.9,46.9-20.9c1.9-0.9,3.8-1.7,5.8-2.6
	c64-28.6,129-58.6,178.9-107.8c31.3-30.9,55.6-71.3,65.2-113.8c0,0,0,0,0,0c0,0,0,0,0,0c0,0,0,0,0,0c3-11.4,4.9-23.2,5.6-35
	C616.3,2899.4,612.4,2873.7,598,2854z"/>
<path class="st4" d="M114.2-46.1l3.4-5.6l2-3.3L92.8-76.4l-33.9,1.8L41.1-62.1c5.3,1.8,17.8,3.6,17.8,3.6C53.6-53.2,7.2-55,7.2-55
	l-10.3,8.6l-0.1,14.6l-0.1,14.2l142.4-19.6L114.2-46.1z"/>
<path class="st4" d="M75-126.3l5.3,32.1L16.1-67.5L-3-69.2l0.6-103.9l14.9,18.2C12.6-154.8,64.3-128.1,75-126.3z"/>
<path class="st1" d="M190,1631.5c69.1,12,85.6,14.8,155.7,18.1c12.8,0.6,26,1.2,38.2-2.8c9.9-3.2,18.6-9.3,27.1-15.4
	c23.4-17,46-35.1,67.6-54.3c9.4-8.3,18.7-17,25.3-27.7c17.3-27.9,14.3-72.8,7.3-108.1c19,23.8,21.9,52.4,32.2,65.8
	c6.9,8.9,23.8,102.7,31.8,121.4c-15.8,17.2-50.8,22.2-55.2,45.1c-1.7,8.5-21.9,19.9-26,27.5c-3.7,6.8-9.3,12.4-15.1,17.5
	c-56.5,50.3-137.3,50.6-211.8,38c-47.6-8-93.6-7-141.3,0.7c-12.7,2.1-25.1,6.2-37.9,7.3c-12.8,1-45,1.4-53.8-8
	c-12.7-13.6,8.1-38.1,11.7-56.4c2.3-11.9,16.9-13.8,19.3-25.6c0.9-4.5-10.5-19.1-8.7-23.3c5.9-13.7,45.9,1.3,60.7-0.7
	S175.3,1629,190,1631.5z"/>
<path class="st1" d="M628.7,677.1c-18.2,27.8-36.4,55.5-54.6,83.3c-1.7,2.6-3.5,5.3-6.3,6.8c-3.5,1.8-7.8,1.2-11.8,0.8
	c-29.2-3-57.6,8.6-85.4,17.8c-73.1,24.1-151.5,32.4-228,24.1c-33-3.6-65.8-10.2-99-10.5c-34.4-0.3-68.4,6.1-102.6,9.9
	c-3.7,0.4-7.7,0.7-10.9-1.2c-3.9-2.4-5.1-7.4-6.1-11.9c-2.9-14.4-5.8-28.9-8.8-43.3c25.4-8.1,52.1-16.4,78.3-11.7
	c9.4,1.7,18.4,4.9,27.8,6.3c11.8,1.7,23.8,0.2,35.6-1.2c24.1-3,48.2-5.9,72.3-8.9c17.5-2.2,35.5-4.3,52.6,0c9.2,2.3,18,6.5,27.5,7.8
	c22.7,3.2,44-10.4,64-21.7c52-29.3,111-46,170.6-48.3c7-0.3,14.2-0.4,20.4-3.4c5.5-2.6,9.7-7.1,13.8-11.5
	c17.2-18.4,34.4-36.9,51.6-55.3c10.2-11,24.2-23,38.4-18c-14.3,27.4-28.6,54.7-42.8,82.1"/>
<path class="st1" d="M509,996.5c-18.6,32.6-36.5,53.2-55.1,85.7c-3.9,6.9-7.9,13.8-13.1,19.9c-6.3,7.4-14.3,13.2-22.1,19
	c-25.8,18.8-51.5,37.6-77.3,56.4c-3,2.2-6.3,5.2-5.7,8.8c0.5,2.8,3.2,4.6,5.7,6c23.6,13.9,50.1,28.2,77,23
	c10.3-2,19.9-6.8,28.7-12.6c43.9-29,66.9-80,87.7-128.3c17.7-41.1,35.5-82.2,53.2-123.3c-26.2,15-52.4,30.1-78.6,45.1"/>
<path class="st1" d="M446.7,2743.5c-49,26.9-102.6,44.3-156.7,58.3c-33.9,8.8-68.2,16.4-103.2,19c-31.5,2.3-63.1,0.5-94.6-1.3
	c-35.3-2-70.5-4.1-105.6-8.1c-4.1-0.5-8.6-1.2-11.2-4.4c-2.3-2.8-2.4-6.8-2.3-10.4c0.3-20.4,2.1-41.1,9.1-60.3
	c9.1-25,26.3-46,43.2-66.5c3.4-4.1,6.9-8.3,11.5-10.9c10.9-6.2,24.9-2.1,35.5,4.5s20,15.6,31.7,20.1c11.3,4.3,24.4,4.1,34.5,10.8
	c9.2,6,14.2,16.6,22.5,23.8c11.1,9.6,26.7,12.1,41.3,11.9c40.8-0.7,79.7-19.2,120.4-19.8c21.5-0.3,43,4.4,64.3,1.4
	c22.1-3.1,44-14.4,65.8-9.4c2,0.5,4.1,1.1,5.6,2.4c4.1,3.6,3,10.2,1.5,15.4C456.9,2731.7,456.7,2737,446.7,2743.5"/>
<path class="st1" d="M288.3,2069.2c-27.4,8.7-55.3,15.9-83.5,21.5c-17,3.4-34.4,6.2-51.6,4.2c-22.5-2.6-46-13.3-66.8-4.4
	c-18.8,74.7-6.8,154.2-22,229.8c-5,25.1-13,49.6-15.6,75c34.1-38.7,68.3-77.3,102.4-116c28-31.7,56.4-64.1,72.8-103
	c8-18.9,13-38.9,21.2-57.7s20.5-36.8,38.5-46.4"/>
<path class="st5" d="M1257.2,106c-89.3-52-217.7,4-274.9,37.6C939.5,168.7,738.7,245.2,650,257.5c8,13,40,24,72.7,34
	c67.2-5.6,146-21.3,202.5-59.6c85.3-57.9,43.1,64.4-42.8,107.7S714.5,433,668,536.5s-112,243-236.5,293
	C313.3,877,147.5,904-12.5,865c0,0-137,113-80,220s521,94,625.2,73.4s281.8-145.4,402.6-227c120.8-81.6,245.2-134.4,381.2-379.4
	S1346.5,158,1257.2,106z"/>
</svg>
