<?xml version="1.0" encoding="utf-8"?>
<!-- Generator: Adobe Illustrator 22.1.0, SVG Export Plug-In . SVG Version: 6.00 Build 0)  -->
<svg version="1.1" id="Layer_1" xmlns="http://www.w3.org/2000/svg" xmlns:xlink="http://www.w3.org/1999/xlink" x="0px" y="0px"
	 viewBox="0 0 363 332" style="enable-background:new 0 0 363 332;" xml:space="preserve">
<style type="text/css">
	.st0{fill:#48B0B5;}
	.st1{fill:#3E979C;}
	.st2{display:none;fill:#47CFDD;}
	.st3{fill:#FFFFFF;}
	.st4{fill:#19A2C4;}
	.st5{fill:#FEFEFE;}
	.st6{fill:#47CFDD;}
</style>
<g>
	<g id="XMLID_15_">
		<path class="st0" d="M327.9,209l14.1,16.3l-21.3,7.1C315,225,320,206,320,196l-5.4-2.9l-0.1-3.8c0,0,15.2-1.8,17.9-3.6L327.9,209z
			"/>
		<path class="st1" d="M320.8,194.2c-0.8,2.8-3.8,4.8-6.1,3.9l-0.1-5L320.8,194.2z"/>
		<path class="st0" d="M48.4,190.3v3.9L44,201l-3.2,29.6l-20.1-3.9l13.9-16.8l-6.3-22.4C31,189.3,48.4,190.3,48.4,190.3z"/>
		<path class="st1" d="M48.4,194.2v7.4c-2.4,2.4-6.4,0.4-7.6-5.1L48.4,194.2z"/>
		<path class="st2" d="M314.6,198.1c-77.5,47.5-196.8,47.6-266.3,3.5c-2.6-1.6-5.1-3.4-7.6-5.1v34.2v9.7
			c93.5,50.9,188.7,46.5,280-0.9c0-2.1,0-4.5,0-7c0-12.3,0-28.2,0-38.2C318.8,195.5,316.7,196.8,314.6,198.1z"/>
	</g>
	<path class="st3" d="M292.1,72.2l-78.2-45.8c-16.7-9.7-31.5-9.7-31.5-9.7c0,0-15,0-31.7,9.7L71.8,72.2c0,0-24.7,15.1-24.7,41.4
		v101.5c0,26.2,24.7,41.4,24.7,41.4l78.9,45.8c16.7,9.7,31.8,9.7,31.9,9.7c0,0,15.2,0,31.8-9.7l77.7-45.8c0,0,23.5-15.1,23.5-41.4
		V113.6C315.6,87.3,292.1,72.2,292.1,72.2z"/>
	<g>
		<polygon class="st4" points="181.3,291 181.3,291 181.3,291 		"/>
		<path class="st4" d="M65.7,207.9c0,22.5,20.9,35.5,20.9,35.5l67.5,39.3c14.3,8.3,27.2,8.3,27.2,8.3c0,0,13,0,27.2-8.3l67.5-39.3
			c0,0,21-13,20.9-35.5v-87c0-22.5-20.9-35.5-20.9-35.5l-67.5-39.3c-14.3-8.3-27.2-8.3-27.2-8.3c0,0-13,0-27.2,8.3L86.6,85.4
			c0,0-21,13-20.9,35.5V207.9z"/>
	</g>
	<g>
		<path class="st5" d="M182.1,108.6c0-5.8,0-11.6,0-17.4c0-1.5,0.4-2,1.9-1.9c11.5,0.1,23,0,34.5,0.3c24.6,0.5,38.6,21.2,40.4,37.4
			c1.1,9.6,0.9,19.1-2.1,28.4c-5.1,15.7-15.9,25-32,27.7c-6.3,1.1-12.8,1.2-19.2,1.3c-7.2,0.2-14.4,0-21.7,0c-1.6,0-1.9-0.6-1.8-2
			c0.1-5.7,0.1-11.3,0-17c0-1.7,0.4-2.2,2.1-2.2c8.6,0.1,17.2,0.1,25.8,0c3.3,0,6.6-0.3,9.8-0.9c8.5-1.6,13.7-6.9,15.8-15.3
			c2.4-9.8,1.4-19.1-4-27.8c-3.5-5.7-8.5-8.7-15.3-8.7c-4.4,0-8.7,0.1-13.1,0c-1.5,0-1.8,0.5-1.7,1.9c0.1,4.4,0,8.9,0.1,13.3
			c0,1.5-0.2,2.1-1.9,2.1c-5.2-0.1-10.4-0.1-15.7,0c-1.4,0-1.8-0.5-1.8-1.8C182.2,120.2,182.1,114.4,182.1,108.6z"/>
		<path class="st5" d="M175.6,89.7c-3.1,3.4-5.8,6.4-8.5,9.4c-2.3,2.5-4.6,4.9-6.8,7.4c-1.1,1.3-2.4,1.8-4.1,1.8
			c-5.5,0-11,0-16.5,0.1c-3.2,0-5.6,1.7-7.1,4.4c-2,3.4-1.3,6.2,2.2,8.1c5.9,3.1,12,5.9,18,9c3.1,1.6,6.1,3.5,9,5.4
			c9.3,6.3,11.8,15.4,9.9,25.9c-2.4,13-12.1,21.5-25.8,22.7c-1.8,0.2-3.7,0.4-5.6,0.4c-12.3,0-24.6,0-37.2,0c0.4-0.6,0.5-1,0.8-1.4
			c4.7-5.7,9.5-11.4,14.2-17.2c1.1-1.4,2.4-1.9,4.1-1.9c6.2,0,12.4,0.1,18.7-0.1c5.3-0.2,8.6-4.7,7.2-9.8c-0.4-1.6-1.8-3.4-3.3-4.1
			c-5.5-2.9-11.2-5.3-16.8-8c-3.4-1.6-6.9-3.2-10-5.3c-12.9-8.9-13.6-27.3-1.6-37.6c5.1-4.4,11-7.1,17.4-9c0.9-0.3,1.8-0.3,2.8-0.4
			c0.5-0.1,1,0,1.5,0C150.3,89.7,162.6,89.7,175.6,89.7z"/>
		<path class="st5" d="M110,207.4c0-3.6,0.1-7.3,0-10.9c0-1.5,0.4-1.9,1.9-1.5c2.9,0.9,4.7,3.2,4.8,6.6c0.1,1.6-0.4,3.8,0.4,4.5
			c1.5,0.7,3.1,0.4,4.7,0.4c0.1,0,0.9,0,1,0c1.9,0,3.5,0.1,5-0.3c1-0.8,0.5-3.5,0.7-5.3c0.2-2.9,2.4-5.3,5.1-5.9
			c1.1-0.2,1.6,0,1.6,1.2c0,7.4,0.1,14.9-0.1,22.3c-0.1,2.9-1.6,5.1-4.5,6.1c-1.5,0.5-2.3,0.4-2.2-1.5c0.1-2.6,0-5.3,0.1-7.9
			c0-1.3-0.4-1.7-1.7-1.7c-2.9,0.1-5.7,0.1-8.6,0c-1.1,0-1.5,0.3-1.5,1.5c0.1,2.8-0.1,5.6,0,8.4c0.1,1.5-0.6,1.7-1.8,1.5
			c-2.8-0.5-4.9-3.1-5-6.2C109.9,214.9,110,211.2,110,207.4C110,207.4,110,207.4,110,207.4z"/>
		<path class="st5" d="M231.2,218.4c2.1,0,4.3,0,6.4,0c2.1,0,3.3-1.1,3.2-2.7c-0.2-1.8-1.4-2.5-3.1-2.5c-1.7,0-3.4,0-5.1,0
			c-5.2-0.1-9.1-3.8-9.3-8.7c-0.2-5.3,3.5-9.4,8.8-9.7c3.8-0.2,7.6,0,11.4-0.1c1.6,0,1.6,0.7,1.4,1.8c-0.4,2.5-3.2,4.8-6.1,4.9
			c-1.7,0.1-3.4,0-5.1,0c-2.4,0-3.5,0.8-3.5,2.5c0,1.8,1.1,2.5,3.6,2.6c2.1,0,4.2,0,6.2,0.2c4.4,0.6,7.8,4.6,7.7,9.1
			c0,4.4-3.3,8.5-7.7,8.9c-3.7,0.3-7.4,0.3-11.1,0c-2.8-0.2-4.9-2.5-5.4-5.1c-0.2-1,0-1.4,1.1-1.4
			C226.7,218.4,229,218.4,231.2,218.4z"/>
		<path class="st5" d="M195.7,206.1c0-3.2-0.1-6.4-0.1-9.6c0-1.4,0.5-1.7,1.8-1.4c2.7,0.7,4.3,2.9,4.9,6.6c0.1,0.6,0.3,1.2,0.5,1.7
			c0.5-0.4,1.1-0.7,1.5-1.1c1.9-1.8,3.7-3.8,5.6-5.6c2.2-2.1,5.1-2.5,7.7-1c1.1,0.6,1.5,1.1,0.3,2.1c-3.4,3.2-6.7,6.6-10.1,9.9
			c-0.9,0.9-0.8,1.3,0,2.2c4,3.9,7.9,7.9,11.9,11.8c1.2,1.2,1,1.7-0.3,2.5c-2.7,1.6-5.6,1.3-8-1c-2.5-2.4-5-4.9-7.5-7.4
			c-0.3-0.3-0.8-0.4-1.2-0.6c-0.1,0.4-0.2,0.8-0.2,1.2c0,2.4-0.1,4.7,0,7.1c0.1,1.5-0.6,1.7-1.8,1.5c-2.8-0.5-4.9-3-5-6.1
			C195.7,214.5,195.7,210.3,195.7,206.1C195.6,206.1,195.7,206.1,195.7,206.1z"/>
		<path class="st5" d="M181.3,194.8c3.8,0.2,7.5,1.6,10.5,4.7c1,1,0.8,1.6-0.2,2.4c-2.1,1.5-4.2,1.5-6.7,0.8c-2-0.6-4.2-1.1-6.2-0.7
			c-4.7,0.9-7.3,5.7-6,10.4c1.2,4.4,6,7,10.5,5.7c0.7-0.2,1.3-0.6,2-0.8c1-0.2,2.2-0.7,3.1-0.4c1.5,0.4,2.8,1.4,4.2,2.2
			c-0.8,1-1.5,2.2-2.5,3c-5.3,4.2-12.3,4.3-18.1,0.3c-5-3.4-7.4-10.6-5.5-16.6C168.2,199.2,174.1,194.8,181.3,194.8z"/>
		<path class="st5" d="M151.3,209.9c-1.4,3-2.7,5.7-4,8.5c1.6,0,3,0,4.3,0c1.1-0.1,1.3,0.4,1.2,1.4c-0.4,2.3-2.5,4.8-4.8,5
			c-3.5,0.3-7,0.3-10.5,0.3c-1.6,0-0.7-1-0.5-1.6c2.3-4.7,4.7-9.5,7.1-14.2c2.4-4.7,4.7-9.4,7.2-14.4c0.4,0.6,0.7,1.1,0.9,1.5
			c4.4,8.9,8.8,17.8,13.4,26.6c1,1.9,0.4,2-1.4,2.1c-3.6,0-6.1-1.2-7.6-4.7C155.1,217,153.3,213.7,151.3,209.9z"/>
	</g>
	<path class="st6" d="M314.6,198.1c-77.5,47.5-196.8,47.6-266.3,3.5c-2.6-1.6-5.1-3.4-7.6-5.1v34.2v9.7
		c93.5,50.9,188.7,46.5,280-0.9c0-2.1,0-4.5,0-7c0-12.3,0-28.2,0-38.2C318.8,195.5,316.7,196.8,314.6,198.1z"/>
	<g>
		<path class="st3" d="M84,235l-5.3-1.9l-0.9,1.6c0.3,0.1,0.5,0.1,0.7,0.2s0.4,0.1,0.6,0.2c0.8,0.3,1.4,0.7,2,1.2
			c0.6,0.5,1,1.1,1.3,1.7c0.3,0.6,0.5,1.3,0.5,2.1c0,0.8-0.1,1.5-0.4,2.3c-0.3,0.8-0.7,1.5-1.2,2.1c-0.5,0.6-1.2,1-1.9,1.2
			c-0.7,0.3-1.5,0.4-2.4,0.4c-0.9,0-1.8-0.2-2.8-0.6c-0.9-0.3-1.8-0.7-2.5-1.3c-0.8-0.5-1.4-1.1-2-1.9l1.9-3.5
			c0.5,0.8,1,1.5,1.6,2.1c0.6,0.6,1.2,0.9,1.8,1.2c0.8,0.3,1.5,0.3,2.2,0c0.6-0.3,1.1-0.7,1.3-1.4c0.3-0.8,0.2-1.5-0.3-2.2
			c-0.5-0.7-1.2-1.2-2.2-1.6c-0.5-0.2-0.9-0.3-1.5-0.4s-1.1-0.1-1.6,0l4.2-7.7l8,2.8L84,235z"/>
		<path class="st3" d="M84.8,240.8l5.9,1.8l-1,3.1l-5.9-1.8L84.8,240.8z"/>
		<path class="st3" d="M95.6,243.5l-3.5-9.7l4.9,1.3l1.8,5l4-3.5l4.9,1.3l-7.9,6.6l-2,7.5l-4.1-1.1L95.6,243.5z"/>
		<path class="st3" d="M107.7,249.6c-0.4,1.6,0.2,2.6,1.8,3c0.8,0.2,1.5,0,2.1-0.6l3.7,0.8c-1.3,2.3-3.4,3.1-6.4,2.5
			c-0.9-0.2-1.7-0.5-2.4-1c-0.7-0.4-1.3-1-1.7-1.6s-0.7-1.3-0.9-2.1c-0.1-0.8-0.1-1.6,0.1-2.4c0.2-0.9,0.5-1.7,0.9-2.3
			c0.4-0.7,1-1.2,1.6-1.6s1.3-0.6,2.1-0.8c0.8-0.1,1.7-0.1,2.6,0.1c0.9,0.2,1.7,0.5,2.4,0.9c0.7,0.4,1.2,1,1.6,1.6
			c0.4,0.6,0.6,1.3,0.7,2.1c0.1,0.8,0.1,1.7-0.1,2.6l-0.1,0.4L107.7,249.6z M112.6,248.3c0-0.6-0.2-1-0.5-1.4
			c-0.3-0.4-0.8-0.7-1.3-0.8c-0.6-0.1-1.1-0.1-1.5,0.2c-0.4,0.2-0.8,0.6-1,1.1L112.6,248.3z"/>
		<path class="st3" d="M127.5,247.1l3.9,0.6l-1.8,10.9l-3.9-0.6l0.2-1.2c-1,0.9-2.2,1.2-3.6,1c-0.8-0.1-1.5-0.4-2.1-0.8
			s-1.1-0.9-1.5-1.5s-0.7-1.3-0.8-2s-0.2-1.5,0-2.4c0.1-0.8,0.4-1.5,0.8-2.1c0.4-0.7,0.9-1.2,1.4-1.6c0.6-0.4,1.2-0.8,1.9-1
			s1.5-0.2,2.3-0.1c1.4,0.2,2.4,0.9,3.1,2L127.5,247.1z M121.8,251.7c-0.1,0.4,0,0.7,0,1c0.1,0.3,0.2,0.6,0.4,0.9
			c0.2,0.3,0.4,0.5,0.7,0.7c0.3,0.2,0.6,0.3,1,0.4c0.3,0.1,0.7,0,1,0s0.6-0.2,0.9-0.4c0.3-0.2,0.5-0.4,0.7-0.7
			c0.2-0.3,0.3-0.6,0.4-0.9c0.1-0.3,0-0.7,0-1c-0.1-0.3-0.2-0.6-0.4-0.9c-0.2-0.3-0.4-0.5-0.7-0.7c-0.3-0.2-0.6-0.3-0.9-0.3
			c-0.4-0.1-0.7,0-1,0c-0.3,0.1-0.6,0.2-0.9,0.4c-0.3,0.2-0.5,0.4-0.6,0.7C121.9,251,121.8,251.3,121.8,251.7z"/>
		<path class="st3" d="M133.9,248l3.9,0.5l-0.2,1.8c0.5-0.6,1.1-1,1.7-1.3c0.6-0.3,1.4-0.4,2.2-0.3c0.1,0,0.2,0,0.3,0
			c0.1,0,0.3,0,0.4,0.1l-0.5,3.7c-0.5-0.3-1-0.5-1.6-0.6c-0.9-0.1-1.6,0.1-2.1,0.5s-0.8,1.2-1,2.2l-0.6,4.7l-3.9-0.5L133.9,248z"/>
		<path class="st3" d="M160.8,258.7l-6-0.4l-1.1,2.8l-4.5-0.3l7.1-15.8l4.6,0.3l5.2,16.5l-4.5-0.3L160.8,258.7z M159.8,255.5
			l-1.6-5.5l-2.2,5.3L159.8,255.5z"/>
		<path class="st3" d="M168.3,250.9l3.9,0l0,1.4c0.5-0.6,1.1-1.1,1.6-1.3c0.5-0.2,1.2-0.3,1.9-0.3c0.8,0,1.4,0.1,2,0.4
			c0.5,0.3,1,0.6,1.4,1.1c0.3,0.4,0.5,0.8,0.6,1.3c0.1,0.5,0.2,1,0.2,1.6l-0.1,7l-3.9,0l0.1-5.6c0-0.5,0-1-0.1-1.3
			c-0.1-0.3-0.2-0.6-0.4-0.8c-0.2-0.2-0.4-0.3-0.6-0.4s-0.4-0.1-0.7-0.1c-0.7,0-1.2,0.2-1.5,0.6c-0.4,0.4-0.5,1-0.5,1.7l-0.1,5.9
			l-3.9,0L168.3,250.9z"/>
		<path class="st3" d="M182.5,251l3.9-0.1l0,1.4c0.5-0.7,1-1.1,1.6-1.4c0.5-0.2,1.2-0.4,1.9-0.4c0.8,0,1.4,0.1,2,0.3s1,0.6,1.4,1
			c0.3,0.4,0.6,0.8,0.7,1.2c0.1,0.5,0.2,1,0.2,1.6l0.2,7l-3.9,0.1l-0.2-5.6c0-0.5-0.1-1-0.2-1.3c-0.1-0.3-0.2-0.6-0.4-0.8
			c-0.2-0.2-0.4-0.3-0.6-0.3c-0.2-0.1-0.4-0.1-0.7-0.1c-0.7,0-1.2,0.2-1.5,0.6c-0.3,0.4-0.5,1-0.5,1.7l0.2,5.9l-3.9,0.1L182.5,251z"
			/>
		<path class="st3" d="M196.2,246.2c0-0.3,0-0.6,0.1-0.9s0.2-0.5,0.4-0.7s0.4-0.4,0.7-0.5c0.3-0.1,0.5-0.2,0.8-0.2
			c0.3,0,0.6,0,0.9,0.1c0.3,0.1,0.5,0.2,0.7,0.4c0.2,0.2,0.4,0.4,0.5,0.7c0.1,0.3,0.2,0.5,0.2,0.8c0,0.3,0,0.6-0.1,0.9
			c-0.1,0.3-0.2,0.5-0.4,0.7c-0.2,0.2-0.4,0.4-0.7,0.5c-0.3,0.1-0.5,0.2-0.8,0.2c-0.3,0-0.6,0-0.9-0.1s-0.5-0.2-0.7-0.4
			s-0.4-0.4-0.5-0.7C196.3,246.8,196.2,246.5,196.2,246.2z M200.6,250.2l0.7,11l-3.9,0.2l-0.7-11L200.6,250.2z"/>
		<path class="st3" d="M206.5,249.7l3.2,5.4l2.1-5.9l4.3-0.4l-4.6,11.5l-2.6,0.2l-6.7-10.4L206.5,249.7z"/>
		<path class="st3" d="M221.1,254.3c0.2,1.7,1.1,2.4,2.7,2.2c0.8-0.1,1.4-0.5,1.7-1.3l3.7-0.5c-0.4,2.6-2.1,4.1-5.1,4.5
			c-0.9,0.1-1.8,0.1-2.6-0.1c-0.8-0.2-1.5-0.5-2.1-0.9c-0.6-0.4-1.1-1-1.5-1.7c-0.4-0.7-0.7-1.4-0.8-2.3c-0.1-0.9-0.1-1.7,0.1-2.5
			c0.2-0.8,0.5-1.4,1-2c0.5-0.6,1-1.1,1.7-1.4c0.7-0.4,1.5-0.6,2.5-0.8c0.9-0.1,1.8-0.1,2.5,0.1c0.8,0.2,1.5,0.5,2,0.9
			s1.1,1,1.4,1.8c0.4,0.7,0.6,1.6,0.8,2.5l0.1,0.4L221.1,254.3z M225.3,251.4c-0.2-0.5-0.5-0.9-1-1.2c-0.4-0.3-0.9-0.4-1.5-0.3
			c-0.6,0.1-1.1,0.3-1.4,0.7c-0.3,0.4-0.5,0.8-0.5,1.4L225.3,251.4z"/>
		<path class="st3" d="M230.5,246.6l3.8-0.7l0.3,1.8c0.3-0.7,0.7-1.3,1.2-1.8c0.5-0.5,1.2-0.7,2-0.9c0.1,0,0.2,0,0.3-0.1
			c0.1,0,0.3,0,0.4,0l0.7,3.7c-0.6-0.2-1.1-0.2-1.7-0.1c-0.9,0.2-1.5,0.5-1.9,1.2c-0.3,0.6-0.4,1.4-0.2,2.4l0.8,4.6l-3.8,0.7
			L230.5,246.6z"/>
		<path class="st3" d="M248,246.1c-0.8-0.2-1.5-0.2-2.2-0.1c-0.3,0.1-0.6,0.2-0.8,0.4c-0.2,0.2-0.3,0.4-0.2,0.6
			c0,0.1,0.1,0.2,0.1,0.3c0.1,0.1,0.1,0.1,0.3,0.2c0.1,0,0.3,0.1,0.6,0.1c0.2,0,0.6,0,1,0c1.1,0,2,0.2,2.6,0.6
			c0.6,0.4,1,1.1,1.2,1.9c0.1,0.6,0.1,1.2,0,1.8c-0.1,0.6-0.4,1.1-0.8,1.5c-0.4,0.4-0.9,0.8-1.4,1.1c-0.6,0.3-1.3,0.6-2,0.7
			c-1.5,0.3-3,0.2-4.6-0.3l0.8-3c1.2,0.5,2.3,0.6,3.3,0.4c0.3-0.1,0.6-0.2,0.8-0.4c0.2-0.2,0.3-0.4,0.2-0.7c0-0.1-0.1-0.3-0.1-0.3
			s-0.1-0.2-0.3-0.2c-0.1-0.1-0.3-0.1-0.5-0.1c-0.2,0-0.5,0-0.9,0c-1.2,0-2.1-0.2-2.7-0.5s-0.9-1-1.1-1.8c-0.1-0.6-0.1-1.2,0-1.7
			s0.4-1,0.7-1.4c0.3-0.4,0.8-0.8,1.4-1.1c0.6-0.3,1.2-0.5,1.9-0.7c1.2-0.3,2.4-0.3,3.6-0.1L248,246.1z"/>
		<path class="st3" d="M259,240.4l3.8-1l2.8,10.6l-3.8,1l-0.3-1.2c-0.5,1.2-1.5,2-2.9,2.4c-0.8,0.2-1.5,0.3-2.2,0.1
			c-0.7-0.1-1.4-0.4-2-0.7c-0.6-0.4-1.2-0.9-1.6-1.5s-0.8-1.3-1-2.2c-0.2-0.8-0.3-1.5-0.2-2.3c0.1-0.8,0.3-1.5,0.6-2.1
			c0.3-0.6,0.8-1.2,1.4-1.7s1.3-0.8,2-1c1.3-0.4,2.6-0.2,3.7,0.5L259,240.4z M255.7,246.9c0.1,0.3,0.2,0.7,0.4,0.9s0.4,0.5,0.7,0.6
			c0.3,0.2,0.6,0.3,0.9,0.3c0.3,0,0.7,0,1-0.1c0.3-0.1,0.6-0.2,0.9-0.4c0.3-0.2,0.5-0.4,0.6-0.7c0.2-0.3,0.3-0.6,0.3-0.9s0-0.7,0-1
			s-0.2-0.6-0.4-0.9s-0.5-0.5-0.7-0.6c-0.3-0.2-0.6-0.3-0.9-0.3c-0.3,0-0.7,0-1,0.1c-0.3,0.1-0.7,0.2-0.9,0.4
			c-0.3,0.2-0.5,0.4-0.6,0.7c-0.2,0.3-0.3,0.6-0.3,0.9S255.6,246.6,255.7,246.9z"/>
		<path class="st3" d="M265.3,238.6l3.7-1.2l0.5,1.7c0.2-0.8,0.5-1.4,1-1.9c0.5-0.5,1.1-0.9,1.8-1.1c0.1,0,0.2-0.1,0.3-0.1
			c0.1,0,0.3-0.1,0.4-0.1l1.1,3.5c-0.6-0.1-1.1,0-1.7,0.1c-0.9,0.3-1.4,0.7-1.7,1.4c-0.3,0.6-0.2,1.5,0.1,2.4l1.4,4.5l-3.7,1.2
			L265.3,238.6z"/>
		<path class="st3" d="M282.5,242.9l-8.3-7l4.2-1.6l4.7,4.3l0.7-6.3l4.2-1.6l-2.5,18.6l-4.1,1.5L282.5,242.9z"/>
	</g>
</g>
</svg>
