<?xml version="1.0" encoding="utf-8"?>
<!-- Generator: Adobe Illustrator 22.1.0, SVG Export Plug-In . SVG Version: 6.00 Build 0)  -->
<svg version="1.1" id="Layer_1" xmlns="http://www.w3.org/2000/svg" xmlns:xlink="http://www.w3.org/1999/xlink" x="0px" y="0px"
	 viewBox="0 0 207.9 22.3" style="enable-background:new 0 0 207.9 22.3;" xml:space="preserve">
<style type="text/css">
	.st0{fill:#FFFFFF;}
</style>
<path class="st0" d="M11.4,15.1v5c0,0.6-0.4,1-1,1h-3l-3-6c-1.1,0-2-0.9-2-2c-1.1,0-2-0.9-2-2v-2c0-1.1,0.9-2,2-2c0-1.1,0.9-2,2-2
	H12l4-4h2.4c1.1,0,2,0.9,2,2v14c0,1.1-0.9,2-2,2H16l-4-4H11.4z M11.4,13.1h1.4l4,4h1.6v-14h-1.6l-4,4h-1.4V13.1z M9.4,13.1v-6h-5v2
	h-2v2h2v2H9.4z M9.4,15.1H6.6l2,4h0.8V15.1z"/>
<g>
	<path class="st0" d="M42.4,21.5c-0.1-0.2-0.2-0.5-0.4-0.9c-0.2-0.4-0.4-0.8-0.6-1.4s-0.4-1.1-0.7-1.7s-0.5-1.2-0.8-1.9h-7.2
		l-2.4,5.8h-3l9-21.3C36.5,0.6,36.7,1,37,1.7c0.3,0.7,0.6,1.5,1,2.5c0.4,1,0.8,2,1.3,3.2c0.5,1.2,1,2.3,1.5,3.5
		c0.5,1.2,1,2.4,1.5,3.5c0.5,1.2,0.9,2.2,1.4,3.2s0.8,1.8,1,2.5c0.3,0.7,0.5,1.2,0.6,1.4H42.4z M33.9,13.1h5.1
		c-0.3-0.6-0.5-1.2-0.7-1.8s-0.4-1.1-0.6-1.6c-0.2-0.5-0.4-0.9-0.5-1.2c-0.1-0.4-0.3-0.6-0.3-0.8c0,0-0.1-0.2-0.1-0.4
		c-0.1-0.2-0.1-0.4-0.2-0.6c0,0.2-0.1,0.4-0.2,0.6c-0.1,0.2-0.1,0.4-0.1,0.4L33.9,13.1z"/>
	<path class="st0" d="M47.1,9.8h2.1c0,0.6,0.1,1.1,0.1,1.6s0.1,0.9,0.1,1.4c0.4-1,1-1.8,1.8-2.4c0.8-0.6,1.8-0.9,2.9-0.9
		c1.2,0,2.1,0.3,2.8,1c0.7,0.7,1.1,1.5,1.1,2.5v8.5h-2.4v-7.4c0-0.6-0.2-1.1-0.6-1.5c-0.4-0.4-1-0.6-1.8-0.7c-0.6,0-1.1,0.1-1.5,0.3
		c-0.5,0.2-0.9,0.5-1.2,0.8s-0.6,0.7-0.8,1.2c-0.2,0.5-0.3,1-0.3,1.5v5.8h-2.4V9.8z"/>
	<path class="st0" d="M61.4,9.8h2.1c0,0.6,0.1,1.1,0.1,1.6s0.1,0.9,0.1,1.4c0.4-1,1-1.8,1.8-2.4c0.8-0.6,1.8-0.9,2.9-0.9
		c1.2,0,2.1,0.3,2.8,1c0.7,0.7,1.1,1.5,1.1,2.5v8.5H70v-7.4c0-0.6-0.2-1.1-0.6-1.5c-0.4-0.4-1-0.6-1.8-0.7c-0.6,0-1.1,0.1-1.5,0.3
		c-0.5,0.2-0.9,0.5-1.2,0.8s-0.6,0.7-0.8,1.2c-0.2,0.5-0.3,1-0.3,1.5v5.8h-2.4V9.8z"/>
	<path class="st0" d="M74.8,15.7c0-0.8,0.2-1.6,0.5-2.4c0.3-0.7,0.8-1.4,1.3-1.9c0.6-0.6,1.2-1,2-1.3c0.8-0.3,1.6-0.5,2.5-0.5
		c0.9,0,1.7,0.2,2.4,0.5c0.8,0.3,1.4,0.8,2,1.3c0.5,0.6,1,1.2,1.3,1.9c0.3,0.7,0.5,1.5,0.5,2.4s-0.2,1.6-0.5,2.4
		c-0.3,0.7-0.7,1.4-1.3,2c-0.6,0.6-1.2,1-2,1.3c-0.8,0.3-1.6,0.5-2.5,0.5c-0.9,0-1.7-0.1-2.4-0.4s-1.4-0.7-2-1.3
		c-0.6-0.5-1-1.2-1.3-1.9C75,17.4,74.8,16.6,74.8,15.7z M77.2,15.7c0,0.5,0.1,1,0.3,1.5s0.5,0.9,0.8,1.2c0.3,0.3,0.7,0.6,1.2,0.8
		c0.5,0.2,0.9,0.3,1.5,0.3c0.5,0,1-0.1,1.5-0.3c0.5-0.2,0.9-0.5,1.2-0.8c0.3-0.3,0.6-0.7,0.8-1.2s0.3-0.9,0.3-1.5s-0.1-1-0.3-1.5
		S84,13.3,83.7,13c-0.3-0.3-0.8-0.6-1.2-0.8c-0.5-0.2-1-0.3-1.5-0.3c-0.5,0-1,0.1-1.5,0.3c-0.5,0.2-0.9,0.5-1.2,0.8
		c-0.3,0.3-0.6,0.8-0.8,1.2S77.2,15.2,77.2,15.7z"/>
	<path class="st0" d="M100.7,21.8h-2l-0.3-3.2c-0.4,1-1,1.7-1.8,2.4c-0.8,0.6-1.8,0.9-3,0.9s-2.1-0.3-2.8-1
		c-0.7-0.6-1.1-1.5-1.1-2.5V9.8H92v7.4c0,0.6,0.2,1.1,0.6,1.5c0.4,0.4,1,0.6,1.8,0.7c0.6,0,1.1-0.1,1.5-0.3c0.5-0.2,0.9-0.5,1.2-0.8
		s0.6-0.7,0.8-1.2c0.2-0.5,0.3-1,0.3-1.5V9.8h2.4V21.8z"/>
	<path class="st0" d="M104,9.8h2.1c0,0.6,0.1,1.1,0.1,1.6s0.1,0.9,0.1,1.4c0.4-1,1-1.8,1.8-2.4c0.8-0.6,1.8-0.9,2.9-0.9
		c1.2,0,2.1,0.3,2.8,1c0.7,0.7,1.1,1.5,1.1,2.5v8.5h-2.4v-7.4c0-0.6-0.2-1.1-0.6-1.5c-0.4-0.4-1-0.6-1.8-0.7c-0.6,0-1.1,0.1-1.5,0.3
		c-0.5,0.2-0.9,0.5-1.2,0.8s-0.6,0.7-0.8,1.2c-0.2,0.5-0.3,1-0.3,1.5v5.8H104V9.8z"/>
	<path class="st0" d="M126.1,18.7c0.3,0.3,0.5,0.6,0.7,0.9c0.2,0.3,0.5,0.6,0.7,0.9c-0.5,0.4-1.1,0.7-1.8,1s-1.4,0.4-2.1,0.4
		c-0.9,0-1.7-0.2-2.4-0.5s-1.4-0.8-2-1.3c-0.6-0.6-1-1.2-1.3-2c-0.3-0.7-0.5-1.5-0.5-2.4s0.2-1.6,0.5-2.4c0.3-0.7,0.8-1.4,1.3-1.9
		c0.6-0.6,1.2-1,2-1.3c0.8-0.3,1.6-0.5,2.4-0.5c0.8,0,1.5,0.1,2.2,0.4c0.7,0.2,1.3,0.6,1.8,1l-1.5,1.8c-0.3-0.3-0.7-0.5-1.1-0.6
		c-0.4-0.1-0.9-0.2-1.3-0.2c-0.6,0-1.1,0.1-1.5,0.3c-0.5,0.2-0.9,0.5-1.2,0.8c-0.3,0.3-0.6,0.7-0.8,1.2c-0.2,0.5-0.3,1-0.3,1.5
		c0,0.5,0.1,1,0.3,1.5c0.2,0.5,0.5,0.9,0.8,1.2c0.3,0.3,0.8,0.6,1.2,0.8c0.5,0.2,1,0.3,1.5,0.3c0.5,0,0.9-0.1,1.3-0.2
		C125.4,19.1,125.8,18.9,126.1,18.7z"/>
	<path class="st0" d="M139.4,20.2c-0.6,0.5-1.2,0.9-2,1.2s-1.6,0.4-2.5,0.4c-0.9,0-1.7-0.2-2.4-0.5s-1.4-0.8-2-1.3
		c-0.6-0.5-1-1.2-1.3-1.9c-0.3-0.7-0.5-1.5-0.5-2.4c0-0.8,0.2-1.6,0.5-2.4c0.3-0.7,0.8-1.4,1.3-2c0.6-0.6,1.2-1,1.9-1.3
		c0.7-0.3,1.5-0.5,2.4-0.5c1.3,0,2.5,0.4,3.5,1.2c1,0.8,1.7,1.8,2.1,3.1c-0.6,0.2-1.2,0.5-2,0.8c-0.7,0.3-1.5,0.6-2.3,0.9
		c-0.8,0.3-1.6,0.6-2.4,1s-1.5,0.6-2.2,0.9c0.3,0.6,0.8,1.1,1.4,1.5c0.6,0.4,1.3,0.6,2,0.6c0.5,0,1-0.1,1.5-0.3s0.9-0.4,1.2-0.8
		L139.4,20.2z M137.4,13.3c-0.2-0.5-0.6-0.8-1.1-1s-1-0.4-1.5-0.4c-0.5,0-1,0.1-1.5,0.3c-0.5,0.2-0.9,0.5-1.2,0.8
		c-0.3,0.3-0.6,0.7-0.8,1.2s-0.3,0.9-0.3,1.4c0,0.1,0,0.2,0,0.2c0,0,0,0.1,0,0.1c0.5-0.2,1-0.4,1.6-0.6c0.6-0.2,1.1-0.5,1.7-0.7
		c0.6-0.2,1.1-0.5,1.6-0.7S137,13.4,137.4,13.3z"/>
	<path class="st0" d="M142.5,9.8h2.1c0,0.6,0.1,1.1,0.1,1.6s0.1,0.9,0.1,1.4c0.4-1,1-1.8,1.7-2.4c0.7-0.6,1.6-0.9,2.8-0.9
		c1.1,0,2.1,0.3,2.7,0.9c0.7,0.6,1.1,1.3,1.2,2.3c0.5-1,1-1.7,1.7-2.3c0.7-0.6,1.6-0.8,2.8-0.9c1.2,0,2.2,0.3,2.9,1
		c0.7,0.7,1.1,1.5,1.1,2.5v8.5h-2.4v-7.4c0-0.6-0.2-1.1-0.6-1.5s-1-0.6-1.8-0.7c-1.1,0-2,0.4-2.6,1.1s-1,1.6-1,2.8v5.8h-2.4v-7.4
		c0-0.6-0.2-1.1-0.6-1.5c-0.4-0.4-1-0.6-1.8-0.7c-0.6,0-1.1,0.1-1.5,0.3c-0.4,0.2-0.8,0.5-1.1,0.8s-0.6,0.7-0.7,1.2
		c-0.2,0.5-0.3,1-0.3,1.5v5.8h-2.4V9.8z"/>
	<path class="st0" d="M174.8,20.2c-0.6,0.5-1.2,0.9-2,1.2s-1.6,0.4-2.5,0.4c-0.9,0-1.7-0.2-2.4-0.5s-1.4-0.8-2-1.3
		c-0.6-0.5-1-1.2-1.3-1.9c-0.3-0.7-0.5-1.5-0.5-2.4c0-0.8,0.2-1.6,0.5-2.4c0.3-0.7,0.8-1.4,1.3-2c0.6-0.6,1.2-1,1.9-1.3
		c0.7-0.3,1.5-0.5,2.4-0.5c1.3,0,2.5,0.4,3.5,1.2c1,0.8,1.7,1.8,2.1,3.1c-0.6,0.2-1.2,0.5-2,0.8c-0.7,0.3-1.5,0.6-2.3,0.9
		c-0.8,0.3-1.6,0.6-2.4,1s-1.5,0.6-2.2,0.9c0.3,0.6,0.8,1.1,1.4,1.5c0.6,0.4,1.3,0.6,2,0.6c0.5,0,1-0.1,1.5-0.3s0.9-0.4,1.2-0.8
		L174.8,20.2z M172.8,13.3c-0.2-0.5-0.6-0.8-1.1-1s-1-0.4-1.5-0.4c-0.5,0-1,0.1-1.5,0.3c-0.5,0.2-0.9,0.5-1.2,0.8
		c-0.3,0.3-0.6,0.7-0.8,1.2s-0.3,0.9-0.3,1.4c0,0.1,0,0.2,0,0.2c0,0,0,0.1,0,0.1c0.5-0.2,1-0.4,1.6-0.6c0.6-0.2,1.1-0.5,1.7-0.7
		c0.6-0.2,1.1-0.5,1.6-0.7S172.4,13.4,172.8,13.3z"/>
	<path class="st0" d="M177.9,9.8h2.1c0,0.6,0.1,1.1,0.1,1.6s0.1,0.9,0.1,1.4c0.4-1,1-1.8,1.8-2.4c0.8-0.6,1.8-0.9,2.9-0.9
		c1.2,0,2.1,0.3,2.8,1c0.7,0.7,1.1,1.5,1.1,2.5v8.5h-2.4v-7.4c0-0.6-0.2-1.1-0.6-1.5c-0.4-0.4-1-0.6-1.8-0.7c-0.6,0-1.1,0.1-1.5,0.3
		c-0.5,0.2-0.9,0.5-1.2,0.8s-0.6,0.7-0.8,1.2c-0.2,0.5-0.3,1-0.3,1.5v5.8h-2.4V9.8z"/>
	<path class="st0" d="M193.1,4.7h2.4v5.2h3.1V12h-3.1v9.5h-2.4V12H191V9.9h2.1V4.7z"/>
	<path class="st0" d="M207.2,10.9l-1.3,1.7c0,0-0.1-0.1-0.2-0.1c-0.1-0.1-0.3-0.1-0.4-0.2c-0.2-0.1-0.4-0.1-0.6-0.2
		s-0.5-0.1-0.7-0.1c-0.3,0-0.6,0.1-0.9,0.2s-0.5,0.4-0.5,0.8c0,0.4,0.1,0.6,0.4,0.9c0.3,0.2,0.6,0.4,0.9,0.6
		c0.4,0.2,0.8,0.4,1.2,0.5c0.4,0.2,0.8,0.4,1.2,0.7c0.4,0.3,0.7,0.6,0.9,1s0.4,0.9,0.4,1.5c0,1-0.4,1.9-1.1,2.6c-0.7,0.7-1.7,1-3,1
		c-0.7,0-1.4-0.1-2.1-0.4c-0.7-0.3-1.3-0.6-1.7-1.1c0.1-0.1,0.3-0.3,0.4-0.5c0.2-0.2,0.3-0.4,0.5-0.6c0.2-0.2,0.3-0.3,0.4-0.5
		c0.1-0.1,0.2-0.2,0.2-0.2c0,0,0.1,0.1,0.2,0.2c0.1,0.1,0.3,0.2,0.5,0.3c0.2,0.1,0.5,0.2,0.8,0.3c0.3,0.1,0.6,0.1,0.8,0.1
		c0.4,0,0.8-0.1,1.1-0.3c0.3-0.2,0.5-0.5,0.5-0.9c0-0.3-0.1-0.6-0.4-0.8s-0.6-0.4-0.9-0.5s-0.8-0.3-1.2-0.5
		c-0.4-0.2-0.9-0.4-1.2-0.7s-0.7-0.6-0.9-1s-0.4-1-0.4-1.6c0-0.6,0.1-1.2,0.3-1.6c0.2-0.4,0.5-0.8,0.9-1c0.4-0.3,0.8-0.5,1.2-0.6
		c0.4-0.1,0.9-0.2,1.3-0.2c0.5,0,1.1,0.1,1.7,0.3C206.2,10.1,206.7,10.4,207.2,10.9z"/>
</g>
</svg>
