<?xml version="1.0" encoding="utf-8"?>
<!-- Generator: Adobe Illustrator 22.1.0, SVG Export Plug-In . SVG Version: 6.00 Build 0)  -->
<svg version="1.1" id="Layer_1" xmlns="http://www.w3.org/2000/svg" xmlns:xlink="http://www.w3.org/1999/xlink" x="0px" y="0px"
	 viewBox="0 0 118.5 24" style="enable-background:new 0 0 118.5 24;" xml:space="preserve">
<style type="text/css">
	.st0{fill:#FFFFFF;}
</style>
<path class="st0" d="M14.7,4h2c1.1,0,2,0.9,2,2v14c0,1.1-0.9,2-2,2h-14c-1.1,0-2-0.9-2-2V6c0-1.1,0.9-2,2-2h2V3c0-0.6,0.4-1,1-1
	s1,0.4,1,1v1h6V3c0-0.6,0.4-1,1-1c0.6,0,1,0.4,1,1V4z M12.7,6h-6v1c0,0.6-0.4,1-1,1s-1-0.4-1-1V6h-2v4h14V6h-2v1c0,0.6-0.4,1-1,1
	c-0.6,0-1-0.4-1-1V6z M16.7,12h-14v8h14V12z"/>
<g>
	<path class="st0" d="M38.9,2.4v2.9h-5.1v17.4h-3.1V5.3h-5V2.4H38.9z"/>
	<path class="st0" d="M39.9,6.6c0-0.4,0.2-0.8,0.5-1.1c0.3-0.3,0.7-0.4,1-0.4c0.4,0,0.7,0.1,1,0.4c0.3,0.3,0.5,0.7,0.5,1.1
		c0,0.4-0.2,0.8-0.5,1.1c-0.3,0.3-0.7,0.4-1,0.4c-0.4,0-0.7-0.1-1-0.4C40.1,7.4,39.9,7,39.9,6.6z M42.6,22.7h-2.4V11h2.4V22.7z"/>
	<path class="st0" d="M45.9,11H48c0,0.6,0.1,1.1,0.1,1.6s0.1,0.9,0.1,1.4c0.4-1,1-1.8,1.7-2.4s1.6-0.9,2.8-0.9
		c1.1,0,2.1,0.3,2.7,0.9c0.7,0.6,1.1,1.3,1.2,2.3c0.5-1,1-1.7,1.7-2.3c0.7-0.6,1.6-0.8,2.8-0.9c1.2,0,2.2,0.3,2.9,1
		c0.7,0.7,1.1,1.5,1.1,2.5v8.5h-2.4v-7.4c0-0.6-0.2-1.1-0.6-1.5c-0.4-0.4-1-0.6-1.8-0.7c-1.1,0-2,0.4-2.6,1.1s-1,1.6-1,2.8v5.8h-2.4
		v-7.4c0-0.6-0.2-1.1-0.6-1.5c-0.4-0.4-1-0.6-1.8-0.7c-0.6,0-1.1,0.1-1.5,0.3c-0.4,0.2-0.8,0.5-1.1,0.8s-0.6,0.7-0.7,1.2
		c-0.2,0.5-0.3,1-0.3,1.5v5.8h-2.4V11z"/>
	<path class="st0" d="M78.3,21.4c-0.6,0.5-1.2,0.9-2,1.2c-0.8,0.3-1.6,0.4-2.5,0.4c-0.9,0-1.7-0.2-2.4-0.5s-1.4-0.8-2-1.3
		c-0.6-0.6-1-1.2-1.3-1.9c-0.3-0.7-0.5-1.5-0.5-2.4s0.2-1.6,0.5-2.4c0.3-0.7,0.8-1.4,1.3-2c0.6-0.6,1.2-1,1.9-1.3
		c0.7-0.3,1.5-0.5,2.4-0.5c1.3,0,2.5,0.4,3.5,1.2s1.7,1.8,2.1,3.1c-0.6,0.2-1.2,0.5-2,0.8c-0.7,0.3-1.5,0.6-2.3,0.9
		c-0.8,0.3-1.6,0.6-2.4,1c-0.8,0.3-1.5,0.6-2.2,0.9c0.3,0.6,0.8,1.1,1.4,1.5s1.3,0.6,2,0.6c0.5,0,1-0.1,1.5-0.3s0.9-0.4,1.2-0.8
		L78.3,21.4z M76.3,14.5c-0.2-0.5-0.6-0.8-1.1-1.1c-0.5-0.2-1-0.4-1.5-0.4c-0.5,0-1,0.1-1.5,0.3c-0.5,0.2-0.9,0.5-1.2,0.8
		s-0.6,0.7-0.8,1.2S70,16.3,70,16.8c0,0.1,0,0.2,0,0.2s0,0.1,0,0.1c0.5-0.2,1-0.4,1.6-0.6c0.6-0.2,1.1-0.5,1.7-0.7
		c0.6-0.2,1.1-0.5,1.6-0.7S75.9,14.6,76.3,14.5z"/>
	<path class="st0" d="M83.8,22.7h-2.4V1h2.4V22.7z"/>
	<path class="st0" d="M86.9,6.6c0-0.4,0.2-0.8,0.5-1.1C87.7,5.1,88,5,88.4,5c0.4,0,0.7,0.1,1,0.4c0.3,0.3,0.5,0.7,0.5,1.1
		c0,0.4-0.2,0.8-0.5,1.1c-0.3,0.3-0.7,0.4-1,0.4c-0.4,0-0.7-0.1-1-0.4C87,7.4,86.9,7,86.9,6.6z M89.5,22.7h-2.4V11h2.4V22.7z"/>
	<path class="st0" d="M92.9,11H95c0,0.6,0.1,1.1,0.1,1.6s0.1,0.9,0.1,1.4c0.4-1,1-1.8,1.8-2.4c0.8-0.6,1.8-0.9,2.9-0.9
		c1.2,0,2.1,0.3,2.8,1c0.7,0.7,1.1,1.5,1.1,2.5v8.5h-2.4v-7.4c0-0.6-0.2-1.1-0.6-1.5c-0.4-0.4-1-0.6-1.8-0.7c-0.6,0-1.1,0.1-1.5,0.3
		c-0.5,0.2-0.9,0.5-1.2,0.8s-0.6,0.7-0.8,1.2c-0.2,0.5-0.3,1-0.3,1.5v5.8h-2.4V11z"/>
	<path class="st0" d="M117.1,21.4c-0.6,0.5-1.2,0.9-2,1.2c-0.8,0.3-1.6,0.4-2.5,0.4c-0.9,0-1.7-0.2-2.4-0.5s-1.4-0.8-2-1.3
		c-0.6-0.6-1-1.2-1.3-1.9c-0.3-0.7-0.5-1.5-0.5-2.4s0.2-1.6,0.5-2.4c0.3-0.7,0.8-1.4,1.3-2c0.6-0.6,1.2-1,1.9-1.3
		c0.7-0.3,1.5-0.5,2.4-0.5c1.3,0,2.5,0.4,3.5,1.2s1.7,1.8,2.1,3.1c-0.6,0.2-1.2,0.5-2,0.8c-0.7,0.3-1.5,0.6-2.3,0.9
		c-0.8,0.3-1.6,0.6-2.4,1c-0.8,0.3-1.5,0.6-2.2,0.9c0.3,0.6,0.8,1.1,1.4,1.5s1.3,0.6,2,0.6c0.5,0,1-0.1,1.5-0.3s0.9-0.4,1.2-0.8
		L117.1,21.4z M115,14.5c-0.2-0.5-0.6-0.8-1.1-1.1c-0.5-0.2-1-0.4-1.5-0.4c-0.5,0-1,0.1-1.5,0.3c-0.5,0.2-0.9,0.5-1.2,0.8
		s-0.6,0.7-0.8,1.2s-0.3,0.9-0.3,1.4c0,0.1,0,0.2,0,0.2s0,0.1,0,0.1c0.5-0.2,1-0.4,1.6-0.6c0.6-0.2,1.1-0.5,1.7-0.7
		c0.6-0.2,1.1-0.5,1.6-0.7S114.6,14.6,115,14.5z"/>
</g>
</svg>
