<?xml version="1.0" encoding="utf-8"?>
<!-- Generator: Adobe Illustrator 22.1.0, SVG Export Plug-In . SVG Version: 6.00 Build 0)  -->
<svg version="1.1" id="Layer_1" xmlns="http://www.w3.org/2000/svg" xmlns:xlink="http://www.w3.org/1999/xlink" x="0px" y="0px"
	 viewBox="0 0 155.5 23.4" style="enable-background:new 0 0 155.5 23.4;" xml:space="preserve">
<style type="text/css">
	.st0{fill:#FFFFFF;}
</style>
<path class="st0" d="M10.6,22.2c-2.7,0-5.2-1.1-7.1-3c-1.9-1.9-3-4.6-3-7.4s1.1-5.4,3-7.4s4.5-3,7.1-3s5.2,1.1,7.1,3s3,4.6,3,7.4
	s-1.1,5.4-3,7.4C15.9,21.1,13.3,22.2,10.6,22.2z M10.6,20.1c2.1,0,4.2-0.9,5.7-2.4c1.5-1.6,2.4-3.7,2.4-5.9s-0.8-4.3-2.4-5.9
	c-1.5-1.6-3.6-2.4-5.7-2.4S6.4,4.3,4.9,5.9c-1.5,1.6-2.4,3.7-2.4,5.9s0.8,4.3,2.4,5.9C6.4,19.2,8.5,20.1,10.6,20.1z M11.6,11.3
	l2.6,2.6c0.2,0.2,0.3,0.5,0.3,0.7c0,0.3-0.1,0.5-0.3,0.7s-0.4,0.3-0.7,0.3c-0.3,0-0.5-0.1-0.7-0.3l-2.8-3c-0.2-0.2-0.3-0.5-0.3-0.7
	V7.6c0-0.3,0.1-0.5,0.3-0.7c0.2-0.2,0.4-0.3,0.7-0.3c0.3,0,0.5,0.1,0.7,0.3c0.2,0.2,0.3,0.5,0.3,0.7V11.3z"/>
<g>
	<path class="st0" d="M44.2,20.8c-0.2,0.2-0.5,0.3-0.9,0.5s-0.9,0.4-1.4,0.5c-0.5,0.2-1.1,0.3-1.8,0.4c-0.7,0.1-1.4,0.2-2.1,0.2
		c-1.6,0-3-0.3-4.3-0.8c-1.3-0.5-2.3-1.3-3.2-2.2c-0.9-0.9-1.5-2-2-3.2c-0.5-1.2-0.7-2.5-0.7-3.9c0-1.5,0.3-2.9,0.8-4.2
		s1.3-2.4,2.3-3.3c1-0.9,2.1-1.7,3.3-2.2c1.3-0.5,2.6-0.8,4.1-0.8c0.5,0,1.1,0,1.7,0.1C40.4,2,41,2.1,41.4,2.2
		c0.5,0.1,0.9,0.3,1.3,0.5c0.4,0.2,0.7,0.4,0.9,0.5c-0.2,0.2-0.3,0.4-0.4,0.6c-0.1,0.1-0.2,0.3-0.3,0.5c-0.1,0.2-0.2,0.3-0.3,0.5
		c-0.1,0.2-0.3,0.5-0.4,0.8c-0.2-0.2-0.5-0.3-0.9-0.4c-0.3-0.1-0.7-0.2-1-0.3c-0.4-0.1-0.7-0.1-1.1-0.2c-0.4,0-0.7-0.1-1-0.1
		c-1.1,0-2.1,0.2-3,0.6c-0.9,0.4-1.7,0.9-2.4,1.6c-0.7,0.7-1.2,1.5-1.6,2.4s-0.6,1.8-0.6,2.8c0,1,0.2,1.9,0.5,2.7
		c0.4,0.9,0.9,1.7,1.5,2.4c0.6,0.7,1.4,1.2,2.3,1.7c0.9,0.4,1.9,0.6,3,0.6c0.6,0,1.1-0.1,1.7-0.2c0.5-0.1,1-0.2,1.5-0.4
		c0.4-0.1,0.8-0.3,1.1-0.4c0.3-0.1,0.5-0.3,0.5-0.3L44.2,20.8z"/>
	<path class="st0" d="M45,16.4c0-0.8,0.2-1.6,0.5-2.4c0.3-0.7,0.8-1.4,1.3-1.9c0.6-0.6,1.2-1,2-1.3c0.8-0.3,1.6-0.5,2.5-0.5
		c0.9,0,1.7,0.2,2.4,0.5c0.8,0.3,1.4,0.8,2,1.3c0.5,0.6,1,1.2,1.3,1.9c0.3,0.7,0.5,1.5,0.5,2.4c0,0.8-0.2,1.6-0.5,2.4
		c-0.3,0.7-0.7,1.4-1.3,2c-0.6,0.6-1.2,1-2,1.3c-0.8,0.3-1.6,0.5-2.5,0.5c-0.9,0-1.7-0.1-2.4-0.4c-0.8-0.3-1.4-0.7-2-1.3
		c-0.6-0.5-1-1.2-1.3-1.9C45.2,18.2,45,17.3,45,16.4z M47.4,16.4c0,0.5,0.1,1,0.3,1.5c0.2,0.5,0.5,0.9,0.8,1.2
		c0.3,0.3,0.7,0.6,1.2,0.8c0.5,0.2,0.9,0.3,1.5,0.3c0.5,0,1-0.1,1.5-0.3s0.9-0.5,1.2-0.8c0.3-0.3,0.6-0.7,0.8-1.2
		c0.2-0.5,0.3-0.9,0.3-1.5c0-0.5-0.1-1-0.3-1.5s-0.5-0.9-0.8-1.2c-0.3-0.3-0.8-0.6-1.2-0.8s-1-0.3-1.5-0.3c-0.5,0-1,0.1-1.5,0.3
		c-0.5,0.2-0.9,0.5-1.2,0.8c-0.3,0.3-0.6,0.8-0.8,1.2S47.4,15.9,47.4,16.4z"/>
	<path class="st0" d="M70.9,22.5h-2l-0.3-3.2c-0.4,1-1,1.7-1.8,2.4c-0.8,0.6-1.8,0.9-3,0.9c-1.2,0-2.1-0.3-2.8-1
		c-0.7-0.6-1.1-1.5-1.1-2.5v-8.5h2.4V18c0,0.6,0.2,1.1,0.6,1.5c0.4,0.4,1,0.6,1.8,0.7c0.6,0,1.1-0.1,1.5-0.3
		c0.5-0.2,0.9-0.5,1.2-0.8s0.6-0.7,0.8-1.2c0.2-0.5,0.3-1,0.3-1.5v-5.8h2.4V22.5z"/>
	<path class="st0" d="M74.2,10.6h2.1c0,0.6,0.1,1.1,0.1,1.6s0.1,0.9,0.1,1.4c0.4-1,1-1.8,1.8-2.4c0.8-0.6,1.8-0.9,2.9-0.9
		c1.2,0,2.1,0.3,2.8,1c0.7,0.7,1.1,1.5,1.1,2.5v8.5h-2.4v-7.4c0-0.6-0.2-1.1-0.6-1.5c-0.4-0.4-1-0.6-1.8-0.7c-0.6,0-1.1,0.1-1.5,0.3
		c-0.5,0.2-0.9,0.5-1.2,0.8s-0.6,0.7-0.8,1.2c-0.2,0.5-0.3,1-0.3,1.5v5.8h-2.4V10.6z"/>
	<path class="st0" d="M89.5,5.4h2.4v5.2H95v2.1h-3.1v9.5h-2.4v-9.5h-2.1v-2.1h2.1V5.4z"/>
	<path class="st0" d="M96,16.4c0-0.9,0.2-1.8,0.5-2.5c0.3-0.8,0.7-1.4,1.3-1.9c0.5-0.5,1.2-1,1.9-1.3c0.7-0.3,1.5-0.4,2.4-0.4
		c0.6,0,1.1,0.1,1.6,0.2c0.5,0.1,0.8,0.3,1.2,0.5c0.3,0.2,0.6,0.4,0.8,0.7c0.2,0.2,0.4,0.5,0.5,0.6V0.5h2.4v21.8h-2.4v-0.9
		c0-0.1,0-0.2,0-0.4c0-0.1,0-0.3,0-0.4c-0.2,0.2-0.4,0.4-0.7,0.7c-0.3,0.2-0.5,0.4-0.9,0.6c-0.3,0.2-0.7,0.3-1.2,0.4
		c-0.4,0.1-0.9,0.2-1.5,0.2c-0.9,0-1.8-0.2-2.5-0.5s-1.4-0.8-1.9-1.3c-0.5-0.5-0.9-1.2-1.2-1.9C96.1,18.1,96,17.3,96,16.4z
		 M98.4,16.4c0,0.5,0.1,1,0.3,1.5c0.2,0.5,0.5,0.9,0.8,1.2c0.3,0.3,0.7,0.6,1.2,0.8s1,0.3,1.5,0.3c0.6,0,1.1-0.1,1.6-0.3
		c0.5-0.2,0.9-0.5,1.2-0.8c0.3-0.3,0.6-0.7,0.8-1.2c0.2-0.5,0.3-1,0.3-1.5c0-0.5-0.1-1-0.3-1.5s-0.5-0.9-0.8-1.2s-0.8-0.6-1.2-0.8
		c-0.5-0.2-1-0.3-1.6-0.3c-0.6,0-1.1,0.1-1.5,0.3s-0.9,0.5-1.2,0.8c-0.3,0.3-0.6,0.7-0.8,1.2C98.5,15.4,98.4,15.9,98.4,16.4z"/>
	<path class="st0" d="M111,16.4c0-0.8,0.2-1.6,0.5-2.4c0.3-0.7,0.8-1.4,1.3-1.9c0.6-0.6,1.2-1,2-1.3c0.8-0.3,1.6-0.5,2.5-0.5
		c0.9,0,1.7,0.2,2.4,0.5c0.8,0.3,1.4,0.8,2,1.3c0.5,0.6,1,1.2,1.3,1.9c0.3,0.7,0.5,1.5,0.5,2.4c0,0.8-0.2,1.6-0.5,2.4
		c-0.3,0.7-0.7,1.4-1.3,2c-0.6,0.6-1.2,1-2,1.3c-0.8,0.3-1.6,0.5-2.5,0.5c-0.9,0-1.7-0.1-2.4-0.4c-0.8-0.3-1.4-0.7-2-1.3
		c-0.6-0.5-1-1.2-1.3-1.9C111.2,18.2,111,17.3,111,16.4z M113.4,16.4c0,0.5,0.1,1,0.3,1.5c0.2,0.5,0.5,0.9,0.8,1.2
		c0.3,0.3,0.7,0.6,1.2,0.8c0.5,0.2,0.9,0.3,1.5,0.3c0.5,0,1-0.1,1.5-0.3s0.9-0.5,1.2-0.8c0.3-0.3,0.6-0.7,0.8-1.2
		c0.2-0.5,0.3-0.9,0.3-1.5c0-0.5-0.1-1-0.3-1.5s-0.5-0.9-0.8-1.2c-0.3-0.3-0.8-0.6-1.2-0.8s-1-0.3-1.5-0.3c-0.5,0-1,0.1-1.5,0.3
		c-0.5,0.2-0.9,0.5-1.2,0.8c-0.3,0.3-0.6,0.8-0.8,1.2S113.4,15.9,113.4,16.4z"/>
	<path class="st0" d="M132,12.5l-0.9-1.9h2.1c0.5,1.2,1,2.2,1.4,3c0.4,0.8,0.7,1.6,1,2.2s0.5,1.2,0.6,1.6s0.3,0.8,0.4,1.1
		c0.1-0.6,0.2-1.1,0.4-1.5c0.2-0.5,0.4-1,0.6-1.5c0.2-0.6,0.5-1.2,0.9-2s0.8-1.7,1.2-2.9h2.4L136.6,23c-0.3-0.7-0.6-1.4-0.9-2.1
		c-0.3-0.7-0.6-1.4-0.8-2c-0.3-0.7-0.6-1.3-0.8-2c-0.3-0.7-0.6-1.4-0.9-2.1l-3.6,8.2l-5.3-12.4h2.4c0.5,1.2,0.9,2.1,1.2,2.9
		c0.3,0.8,0.6,1.4,0.8,2c0.2,0.6,0.4,1.1,0.5,1.5c0.1,0.5,0.3,1,0.4,1.5c0.1-0.2,0.2-0.5,0.3-0.8s0.2-0.6,0.4-1.1
		c0.2-0.4,0.4-1,0.7-1.7C131.2,14.3,131.6,13.5,132,12.5z"/>
	<path class="st0" d="M144,10.6h2.1c0,0.6,0.1,1.1,0.1,1.6s0.1,0.9,0.1,1.4c0.4-1,1-1.8,1.8-2.4c0.8-0.6,1.8-0.9,2.9-0.9
		c1.2,0,2.1,0.3,2.8,1c0.7,0.7,1.1,1.5,1.1,2.5v8.5h-2.4v-7.4c0-0.6-0.2-1.1-0.6-1.5c-0.4-0.4-1-0.6-1.8-0.7c-0.6,0-1.1,0.1-1.5,0.3
		c-0.5,0.2-0.9,0.5-1.2,0.8s-0.6,0.7-0.8,1.2c-0.2,0.5-0.3,1-0.3,1.5v5.8H144V10.6z"/>
</g>
</svg>
