<?xml version="1.0" encoding="utf-8"?>
<!-- Generator: Adobe Illustrator 22.1.0, SVG Export Plug-In . SVG Version: 6.00 Build 0)  -->
<svg version="1.1" id="Layer_1" xmlns="http://www.w3.org/2000/svg" xmlns:xlink="http://www.w3.org/1999/xlink" x="0px" y="0px"
	 viewBox="0 0 67 67" style="enable-background:new 0 0 67 67;" xml:space="preserve">
<style type="text/css">
	.st0{fill:#31A7C4;}
	.st1{fill:#FFFFFF;}
</style>
<path class="st0" d="M33.5,67C52,67,67,52,67,33.5S52,0,33.5,0S0,15,0,33.5S15,67,33.5,67z"/>
<path class="st1" d="M33.5,19.2c4.7,0,5.2,0,7.1,0.1c1.7,0.1,2.6,0.4,3.2,0.6c0.8,0.3,1.4,0.7,2,1.3s1,1.2,1.3,2
	c0.2,0.6,0.5,1.5,0.6,3.3c0.1,1.8,0.1,2.4,0.1,7.1c0,4.7,0,5.2-0.1,7.1c-0.1,1.7-0.4,2.6-0.6,3.3c-0.3,0.8-0.7,1.4-1.3,2
	c-0.6,0.6-1.2,1-2,1.3c-0.6,0.2-1.5,0.5-3.2,0.6c-1.8,0.1-2.4,0.1-7.1,0.1c-4.7,0-5.2,0-7.1-0.1c-1.7-0.1-2.6-0.4-3.2-0.6
	c-0.8-0.3-1.4-0.7-2-1.3c-0.6-0.6-1-1.2-1.3-2c-0.2-0.6-0.5-1.5-0.6-3.3c-0.1-1.8-0.1-2.4-0.1-7.1c0-4.7,0-5.2,0.1-7.1
	c0.1-1.7,0.4-2.6,0.6-3.3c0.3-0.8,0.7-1.4,1.3-2c0.6-0.6,1.2-1,2-1.3c0.6-0.2,1.5-0.5,3.2-0.6C28.3,19.2,28.8,19.2,33.5,19.2z
	 M33.5,16c-4.8,0-5.3,0-7.2,0.1c-1.9,0.1-3.1,0.4-4.2,0.8c-1.2,0.4-2.1,1-3.1,2c-1,1-1.6,2-2,3.1c-0.4,1.1-0.7,2.4-0.8,4.3
	C16,28.1,16,28.7,16,33.5c0,4.8,0,5.3,0.1,7.2c0.1,1.9,0.4,3.1,0.8,4.3c0.4,1.2,1,2.1,2,3.1s2,1.6,3.1,2c1.1,0.4,2.4,0.7,4.2,0.8
	c1.9,0.1,2.5,0.1,7.2,0.1s5.3,0,7.2-0.1c1.9-0.1,3.1-0.4,4.2-0.8c1.2-0.4,2.1-1,3.1-2s1.6-2,2-3.1c0.4-1.1,0.7-2.4,0.8-4.3
	c0.1-1.9,0.1-2.5,0.1-7.2s0-5.3-0.1-7.2c-0.1-1.9-0.4-3.1-0.8-4.3c-0.4-1.2-1-2.1-2-3.1c-1-1-2-1.6-3.1-2c-1.1-0.4-2.4-0.7-4.2-0.8
	C38.8,16,38.2,16,33.5,16z"/>
<path class="st1" d="M33.5,23.9c-5.3,0-9.6,4.3-9.6,9.6s4.3,9.6,9.6,9.6s9.6-4.3,9.6-9.6S38.8,23.9,33.5,23.9z M33.5,39.7
	c-3.5,0-6.2-2.8-6.2-6.2s2.8-6.2,6.2-6.2s6.2,2.8,6.2,6.2S37,39.7,33.5,39.7z"/>
<path class="st1" d="M42.7,26.5c1.2,0,2.2-1,2.2-2.2s-1-2.2-2.2-2.2s-2.2,1-2.2,2.2S41.5,26.5,42.7,26.5z"/>
</svg>
