<?xml version="1.0" encoding="utf-8"?>
<!-- Generator: Adobe Illustrator 22.1.0, SVG Export Plug-In . SVG Version: 6.00 Build 0)  -->
<svg version="1.1" id="Layer_1" xmlns="http://www.w3.org/2000/svg" xmlns:xlink="http://www.w3.org/1999/xlink" x="0px" y="0px"
	 viewBox="0 0 67 67" style="enable-background:new 0 0 67 67;" xml:space="preserve">
<style type="text/css">
	.st0{fill:#31A7C4;}
	.st1{fill:#FFFFFF;}
</style>
<path class="st0" d="M33.5,67C52,67,67,52,67,33.5S52,0,33.5,0S0,15,0,33.5S15,67,33.5,67z"/>
<path class="st1" d="M27.4,51.2c14.9,0,23-12.3,23-23c0-0.4,0-0.7,0-1c1.6-1.1,2.9-2.6,4-4.2c-1.4,0.6-3,1.1-4.6,1.3
	c1.7-1,2.9-2.6,3.6-4.5c-1.6,0.9-3.3,1.6-5.1,2c-1.5-1.6-3.6-2.5-5.9-2.5c-4.5,0-8.1,3.6-8.1,8.1c0,0.6,0.1,1.3,0.2,1.8
	c-6.7-0.3-12.7-3.6-16.6-8.4c-0.7,1.2-1.1,2.6-1.1,4.1c0,2.8,1.4,5.3,3.6,6.7c-1.3,0-2.6-0.4-3.7-1c0,0,0,0.1,0,0.1
	c0,3.9,2.8,7.2,6.5,7.9c-0.7,0.2-1.4,0.3-2.1,0.3c-0.5,0-1-0.1-1.5-0.2c1,3.2,4,5.5,7.5,5.6c-2.8,2.2-6.2,3.5-10,3.5
	c-0.7,0-1.3,0-1.9-0.1C18.6,49.8,22.8,51.2,27.4,51.2z"/>
</svg>
