<?xml version="1.0" encoding="utf-8"?>
<!-- Generator: Adobe Illustrator 22.1.0, SVG Export Plug-In . SVG Version: 6.00 Build 0)  -->
<svg version="1.1" id="Layer_1" xmlns="http://www.w3.org/2000/svg" xmlns:xlink="http://www.w3.org/1999/xlink" x="0px" y="0px"
	 viewBox="0 0 795.3 133.8" style="enable-background:new 0 0 795.3 133.8;" xml:space="preserve">
<style type="text/css">
	.st0{fill:#333643;}
	.st1{fill:#FC671A;}
</style>
<title>activbody Logo</title>
<desc>Created with Sketch.</desc>
<g>
	<g id="activbody-Logo_1_" transform="translate(24.000000, 19.000000)">
		<path id="Fill-1_1_" class="st0" d="M246,63.3l1.1-4.8c-1.7,1.7-4.5,2.2-9.3,3.1c-5.6,0.8-8.4,1.7-10.4,2.8
			c-2,1.1-2.8,2.5-3.4,4.8c-0.6,3.9,1.7,6.2,6.7,6.2C238.7,75.4,244.6,69.8,246,63.3 M244.3,79.1c-4.2,6.5-11,11.2-22.7,11.2
			c-14.9,0-20.8-8.7-18.8-19.4c1.1-6.5,4.5-11,9.5-14c5.1-2.8,12.1-4.5,22.2-5.9s14-2.5,14.9-6.5c0.6-3.7-1.4-6.2-8.1-6.2
			c-7.9,0-11.2,3.4-11.8,9.3h-20.5c3.1-16.3,13.2-24.7,33.1-24.7c21.3,0,28.9,9.3,25.8,25.6L264.8,65c-1.1,5.9-0.6,6.7,4.2,6.7h1.1
			l-3.1,17.1h-7.6C249.1,88.6,244.9,85.8,244.3,79.1"/>
		<path id="Fill-3_1_" class="st0" d="M303.6,90.3c-23.3,0-32.6-16-28.9-36.8v-0.6c3.7-19.1,16.6-30.3,35.4-30.3
			c21.1,0,29.8,12.1,29.5,30h-20.8c0.8-8.1-2-12.9-9.8-12.9c-7.6,0-12.4,4.8-14.3,16V56c-2,10.7,2.2,16.8,10.4,16.8
			c6.7,0,10.1-3.1,12.4-10.7h21.1v0.6C334.2,81,322.9,90.3,303.6,90.3"/>
		<path id="Fill-5_1_" class="st0" d="M379.9,88.6h-9.8c-18.5,0-23-8.7-19.4-27.8l3.4-18.8h-11.2l3.1-16.8c2.8,0,5.9-0.3,8.4-1.1
			c3.1-0.6,4.5-2.2,6.2-7c0.6-1.4,2-7.9,2.2-9.3h16.3L376.3,24h15.2l-3.1,18h-15.2l-2.5,14.6c-2,11-1.1,13.5,8.4,13.5h4.5
			L379.9,88.6z"/>
		<path id="Fill-7_1_" class="st0" d="M402.1,9.7c1.1-7,5.3-9.5,13.5-9.5c7.9,0,11.8,3.1,10.4,10.7c-1.4,7-5.6,9.5-13.5,9.5
			C403.8,20.4,400.4,17.6,402.1,9.7L402.1,9.7z M401,24.6c1.1,0.8,6.7,1.1,10.1,1.1c3.7,0,9.3-0.6,10.7-1.4l-11.2,64.3h-20.8
			L401,24.6z"/>
		<polygon id="Fill-9_1_" class="st0" points="439.5,88.6 427.4,24 447.6,24 453,63 472.3,24 493.7,24 458,88.6 		"/>
		<path id="Fill-11_1_" class="st0" d="M536.1,57.7c2.2-11.8-2-17.7-9.8-17.7c-7.6,0-12.4,5.3-14.3,16c-1.7,10.7,1.4,17.1,10.1,17.1
			C529.6,73.2,534.4,67.8,536.1,57.7 M508.3,76.2l-3.7,12.4h-17.7l14.6-84h19.7l-5.3,30c3.7-7.3,10.1-11.8,19.4-11.8
			c14.3,0,24.7,12.4,20.5,35.9c-3.7,20.8-14,31.2-28.6,31.2C516.4,90,510,84.7,508.3,76.2"/>
		<path id="Fill-13_1_" class="st0" d="M604.9,57.7L604.9,57.7c2.2-12.1-2-18-10.1-18c-7.6,0-12.4,4.8-14.3,16V56
			c-2,10.7,2.2,16.8,10.7,16.8C598.1,72.9,602.9,67.8,604.9,57.7 M560.5,53.5v-0.6c3.7-19.1,16.6-30.3,34.5-30.3
			c23,0,32.9,15.2,28.9,37.6v0.6c-3.4,18-13.8,29.5-34.3,29.5C565.8,90.3,557.1,74.6,560.5,53.5"/>
		<path id="Fill-15_1_" class="st0" d="M673.1,57.1v-0.6c2-11-1.7-16.8-10.1-16.8c-7.6,0-12.6,5.1-14.3,16.3
			c-2,11.5,3.1,16.8,10.1,16.8C666.4,72.9,671.4,68.1,673.1,57.1L673.1,57.1z M670,78.5c-3.7,7.3-9.5,11.5-19.4,11.5
			c-17.4,0-25.3-14-21.6-35.9c3.7-20.2,14.3-31.4,28.6-31.4c11,0,17.1,5.6,18.5,14.3l5.6-32.6h19.7l-14.6,84H670V78.5z"/>
		<path id="Fill-17_1_" class="st0" d="M689.7,113.3l3.1-17.1h8.1c7.6,0,9.5-1.1,13.2-7.9l1.7-3.1L702,24H722l7,38.2L748.4,24h21.3
			l-37.1,68.2c-10.1,18.5-13.8,21.1-32,21.1H689.7z"/>
		<path id="Fill-19_1_" class="st0" d="M180-13.1c5.9-3.7,10.4-1.4,9.3,4.8c-2,12.4-7.9,45.8-7.9,45.8c-2.8,8.4-15.7,3.1-15.7,3.1
			l-44.9-18.8L180-13.1z"/>
		<path id="Fill-21_1_" class="st1" d="M178.6,52.9c-8.1,6.7-20.8,0-20.8,0L18.8-4.3l133.9,111.5c0,0,0.8,0.8,2.5,2
			c1.4,1.1,3.1,1.7,4.8,1.7c4.2,0,7.9-2.2,9.3-7C170.5,99,175.8,68.9,178.6,52.9"/>
		<g id="Group-25_1_" transform="translate(0.000000, 21.578622)">
			<g id="Clip-24_1_">
			</g>
			<path id="Fill-23_1_" class="st0" d="M79.2,24.3c-53.4,30.3-96.3,55-101.1,57.8c-0.3,0,0,0,0,0l134.5-30L79.2,24.3z"/>
		</g>
		<polygon id="Fill-26_1_" class="st0" points="750.6,84.4 749.8,89.7 748.1,89.7 748.9,84.4 747.2,84.4 747.5,83 752.6,83 
			752.3,84.4 		"/>
		<polygon id="Fill-28_1_" class="st0" points="754.8,85.5 754,89.7 752.3,89.7 753.4,83 755.1,83 756.2,85.2 758.2,83 759.9,83 
			758.7,89.7 757.1,89.7 757.6,85.5 755.9,87.5 755.7,87.5 		"/>
	</g>
</g>
</svg>
