<?xml version="1.0" encoding="utf-8"?>
<!-- Generator: Adobe Illustrator 22.1.0, SVG Export Plug-In . SVG Version: 6.00 Build 0)  -->
<svg version="1.1" id="Layer_1" xmlns="http://www.w3.org/2000/svg" xmlns:xlink="http://www.w3.org/1999/xlink" x="0px" y="0px"
	 viewBox="0 0 290.3 52.8" style="enable-background:new 0 0 290.3 52.8;" xml:space="preserve">
<style type="text/css">
	.st0{fill:#333643;stroke:#FFFFFF;stroke-width:2;stroke-linecap:round;stroke-linejoin:round;stroke-miterlimit:10;}
	.st1{fill:#FC671A;stroke:#FFFFFF;stroke-width:2;stroke-linecap:round;stroke-linejoin:round;stroke-miterlimit:10;}
	.st2{filter:url(#Adobe_OpacityMaskFilter);}
	.st3{fill:#FFFFFF;}
	
		.st4{mask:url(#mask-2_1_);fill:#333643;stroke:#FFFFFF;stroke-width:2;stroke-linecap:round;stroke-linejoin:round;stroke-miterlimit:10;}
	.st5{fill:#333643;}
	.st6{fill:#FC671A;}
	.st7{filter:url(#Adobe_OpacityMaskFilter_1_);}
	.st8{mask:url(#mask-2_2_);fill:#333643;}
</style>
<title>activbody Logo</title>
<desc>Created with Sketch.</desc>
<g>
	<g id="activbody-Logo" transform="translate(24.000000, 19.000000)">
		<path id="Fill-1" class="st0" d="M76.2,11.7l0.4-1.7c-0.6,0.6-1.6,0.8-3.3,1.1c-2,0.3-3,0.6-3.7,1c-0.7,0.4-1,0.9-1.2,1.7
			C68.2,15.2,69,16,70.8,16C73.6,16,75.7,14,76.2,11.7 M75.6,17.3c-1.5,2.3-3.9,4-8.1,4c-5.3,0-7.4-3.1-6.7-6.9
			c0.4-2.3,1.6-3.9,3.4-5c1.8-1,4.3-1.6,7.9-2.1c3.6-0.5,5-0.9,5.3-2.3c0.2-1.3-0.5-2.2-2.9-2.2c-2.8,0-4,1.2-4.2,3.3h-7.3
			c1.1-5.8,4.7-8.8,11.8-8.8c7.6,0,10.3,3.3,9.2,9.1l-1.1,5.9c-0.4,2.1-0.2,2.4,1.5,2.4h0.4l-1.1,6.1H81
			C77.3,20.7,75.8,19.7,75.6,17.3"/>
		<path id="Fill-3" class="st0" d="M96.7,21.3c-8.3,0-11.6-5.7-10.3-13.1l0-0.2c1.3-6.8,5.9-10.8,12.6-10.8
			c7.5,0,10.6,4.3,10.5,10.7h-7.4c0.3-2.9-0.7-4.6-3.5-4.6c-2.7,0-4.4,1.7-5.1,5.7v0.1c-0.7,3.8,0.8,6,3.7,6c2.4,0,3.6-1.1,4.4-3.8
			h7.5l0,0.2C107.6,18,103.6,21.3,96.7,21.3"/>
		<path id="Fill-5" class="st0" d="M123.9,20.7h-3.5c-6.6,0-8.2-3.1-6.9-9.9l1.2-6.7h-4l1.1-6c1,0,2.1-0.1,3-0.4
			c1.1-0.2,1.6-0.8,2.2-2.5c0.2-0.5,0.7-2.8,0.8-3.3h5.8l-1,5.8h5.4l-1.1,6.4h-5.4l-0.9,5.2c-0.7,3.9-0.4,4.8,3,4.8h1.6L123.9,20.7z
			"/>
		<path id="Fill-7" class="st0" d="M131.8-7.4c0.4-2.5,1.9-3.4,4.8-3.4c2.8,0,4.2,1.1,3.7,3.8c-0.5,2.5-2,3.4-4.8,3.4
			C132.4-3.6,131.2-4.6,131.8-7.4L131.8-7.4z M131.4-2.1c0.4,0.3,2.4,0.4,3.6,0.4c1.3,0,3.3-0.2,3.8-0.5l-4,22.9h-7.4L131.4-2.1z"/>
		<polygon id="Fill-9" class="st0" points="145.1,20.7 140.8,-2.3 148,-2.3 149.9,11.6 156.8,-2.3 164.4,-2.3 151.7,20.7 		"/>
		<path id="Fill-11" class="st0" d="M179.5,9.7c0.8-4.2-0.7-6.3-3.5-6.3c-2.7,0-4.4,1.9-5.1,5.7c-0.6,3.8,0.5,6.1,3.6,6.1
			C177.2,15.2,178.9,13.3,179.5,9.7 M169.6,16.3l-1.3,4.4H162l5.2-29.9h7l-1.9,10.7c1.3-2.6,3.6-4.2,6.9-4.2c5.1,0,8.8,4.4,7.3,12.8
			c-1.3,7.4-5,11.1-10.2,11.1C172.5,21.2,170.2,19.3,169.6,16.3"/>
		<path id="Fill-13" class="st0" d="M204,9.7L204,9.7c0.8-4.3-0.7-6.4-3.6-6.4c-2.7,0-4.4,1.7-5.1,5.7v0.1c-0.7,3.8,0.8,6,3.8,6
			C201.6,15.1,203.3,13.3,204,9.7 M188.2,8.2l0-0.2c1.3-6.8,5.9-10.8,12.3-10.8c8.2,0,11.7,5.4,10.3,13.4l0,0.2
			c-1.2,6.4-4.9,10.5-12.2,10.5C190.1,21.3,187,15.7,188.2,8.2"/>
		<path id="Fill-15" class="st0" d="M228.3,9.5V9.3c0.7-3.9-0.6-6-3.6-6c-2.7,0-4.5,1.8-5.1,5.8c-0.7,4.1,1.1,6,3.6,6
			C225.9,15.1,227.7,13.4,228.3,9.5L228.3,9.5z M227.2,17.1c-1.3,2.6-3.4,4.1-6.9,4.1c-6.2,0-9-5-7.7-12.8
			c1.3-7.2,5.1-11.2,10.2-11.2c3.9,0,6.1,2,6.6,5.1l2-11.6h7l-5.2,29.9h-6L227.2,17.1z"/>
		<path id="Fill-17" class="st0" d="M234.2,29.5l1.1-6.1h2.9c2.7,0,3.4-0.4,4.7-2.8l0.6-1.1l-4.9-21.8h7.1l2.5,13.6l6.9-13.6h7.6
			L249.5,22c-3.6,6.6-4.9,7.5-11.4,7.5H234.2z"/>
		<path id="Fill-19" class="st0" d="M52.7-15.5c2.1-1.3,3.7-0.5,3.3,1.7c-0.7,4.4-2.8,16.3-2.8,16.3c-1,3-5.6,1.1-5.6,1.1l-16-6.7
			L52.7-15.5z"/>
		<path id="Fill-21" class="st1" d="M52.2,8c-2.9,2.4-7.4,0-7.4,0L-4.7-12.4l47.7,39.7c0,0,0.3,0.3,0.9,0.7c0.5,0.4,1.1,0.6,1.7,0.6
			c1.5,0,2.8-0.8,3.3-2.5C49.3,24.4,51.2,13.7,52.2,8"/>
		<g id="Group-25" transform="translate(0.000000, 21.578622)">
			<g id="Clip-24">
			</g>
			<defs>
				<filter id="Adobe_OpacityMaskFilter" filterUnits="userSpaceOnUse" x="-20.3" y="-17.1" width="50" height="22.7">
					<feColorMatrix  type="matrix" values="1 0 0 0 0  0 1 0 0 0  0 0 1 0 0  0 0 0 1 0"/>
				</filter>
			</defs>
			<mask maskUnits="userSpaceOnUse" x="-20.3" y="-17.1" width="50" height="22.7" id="mask-2_1_">
				<g class="st2">
					<polygon id="path-1_1_" class="st3" points="-19.3,-16.1 28.7,-16.1 28.7,4.6 -19.3,4.6 					"/>
				</g>
			</mask>
			<path id="Fill-23" class="st4" d="M16.8-16.1c-19,10.8-34.3,19.6-36,20.6c-0.1,0,0,0,0,0L28.7-6.2L16.8-16.1z"/>
		</g>
		<polygon id="Fill-26" class="st0" points="255.9,19.2 255.6,21.1 255,21.1 255.3,19.2 254.7,19.2 254.8,18.7 256.6,18.7 
			256.5,19.2 		"/>
		<polygon id="Fill-28" class="st0" points="257.4,19.6 257.1,21.1 256.5,21.1 256.9,18.7 257.5,18.7 257.9,19.5 258.6,18.7 
			259.2,18.7 258.8,21.1 258.2,21.1 258.4,19.6 257.8,20.3 257.7,20.3 		"/>
	</g>
	<g id="activbody-Logo_1_" transform="translate(24.000000, 19.000000)">
		<path id="Fill-1_1_" class="st5" d="M76.2,11.7l0.4-1.7c-0.6,0.6-1.6,0.8-3.3,1.1c-2,0.3-3,0.6-3.7,1c-0.7,0.4-1,0.9-1.2,1.7
			C68.2,15.2,69,16,70.8,16C73.6,16,75.7,14,76.2,11.7 M75.6,17.3c-1.5,2.3-3.9,4-8.1,4c-5.3,0-7.4-3.1-6.7-6.9
			c0.4-2.3,1.6-3.9,3.4-5c1.8-1,4.3-1.6,7.9-2.1c3.6-0.5,5-0.9,5.3-2.3c0.2-1.3-0.5-2.2-2.9-2.2c-2.8,0-4,1.2-4.2,3.3h-7.3
			c1.1-5.8,4.7-8.8,11.8-8.8c7.6,0,10.3,3.3,9.2,9.1l-1.1,5.9c-0.4,2.1-0.2,2.4,1.5,2.4h0.4l-1.1,6.1H81
			C77.3,20.7,75.8,19.7,75.6,17.3"/>
		<path id="Fill-3_1_" class="st5" d="M96.7,21.3c-8.3,0-11.6-5.7-10.3-13.1l0-0.2c1.3-6.8,5.9-10.8,12.6-10.8
			c7.5,0,10.6,4.3,10.5,10.7h-7.4c0.3-2.9-0.7-4.6-3.5-4.6c-2.7,0-4.4,1.7-5.1,5.7v0.1c-0.7,3.8,0.8,6,3.7,6c2.4,0,3.6-1.1,4.4-3.8
			h7.5l0,0.2C107.6,18,103.6,21.3,96.7,21.3"/>
		<path id="Fill-5_1_" class="st5" d="M123.9,20.7h-3.5c-6.6,0-8.2-3.1-6.9-9.9l1.2-6.7h-4l1.1-6c1,0,2.1-0.1,3-0.4
			c1.1-0.2,1.6-0.8,2.2-2.5c0.2-0.5,0.7-2.8,0.8-3.3h5.8l-1,5.8h5.4l-1.1,6.4h-5.4l-0.9,5.2c-0.7,3.9-0.4,4.8,3,4.8h1.6L123.9,20.7z
			"/>
		<path id="Fill-7_1_" class="st5" d="M131.8-7.4c0.4-2.5,1.9-3.4,4.8-3.4c2.8,0,4.2,1.1,3.7,3.8c-0.5,2.5-2,3.4-4.8,3.4
			C132.4-3.6,131.2-4.6,131.8-7.4L131.8-7.4z M131.4-2.1c0.4,0.3,2.4,0.4,3.6,0.4c1.3,0,3.3-0.2,3.8-0.5l-4,22.9h-7.4L131.4-2.1z"/>
		<polygon id="Fill-9_1_" class="st5" points="145.1,20.7 140.8,-2.3 148,-2.3 149.9,11.6 156.8,-2.3 164.4,-2.3 151.7,20.7 		"/>
		<path id="Fill-11_1_" class="st5" d="M179.5,9.7c0.8-4.2-0.7-6.3-3.5-6.3c-2.7,0-4.4,1.9-5.1,5.7c-0.6,3.8,0.5,6.1,3.6,6.1
			C177.2,15.2,178.9,13.3,179.5,9.7 M169.6,16.3l-1.3,4.4H162l5.2-29.9h7l-1.9,10.7c1.3-2.6,3.6-4.2,6.9-4.2c5.1,0,8.8,4.4,7.3,12.8
			c-1.3,7.4-5,11.1-10.2,11.1C172.5,21.2,170.2,19.3,169.6,16.3"/>
		<path id="Fill-13_1_" class="st5" d="M204,9.7L204,9.7c0.8-4.3-0.7-6.4-3.6-6.4c-2.7,0-4.4,1.7-5.1,5.7v0.1c-0.7,3.8,0.8,6,3.8,6
			C201.6,15.1,203.3,13.3,204,9.7 M188.2,8.2l0-0.2c1.3-6.8,5.9-10.8,12.3-10.8c8.2,0,11.7,5.4,10.3,13.4l0,0.2
			c-1.2,6.4-4.9,10.5-12.2,10.5C190.1,21.3,187,15.7,188.2,8.2"/>
		<path id="Fill-15_1_" class="st5" d="M228.3,9.5V9.3c0.7-3.9-0.6-6-3.6-6c-2.7,0-4.5,1.8-5.1,5.8c-0.7,4.1,1.1,6,3.6,6
			C225.9,15.1,227.7,13.4,228.3,9.5L228.3,9.5z M227.2,17.1c-1.3,2.6-3.4,4.1-6.9,4.1c-6.2,0-9-5-7.7-12.8
			c1.3-7.2,5.1-11.2,10.2-11.2c3.9,0,6.1,2,6.6,5.1l2-11.6h7l-5.2,29.9h-6L227.2,17.1z"/>
		<path id="Fill-17_1_" class="st5" d="M234.2,29.5l1.1-6.1h2.9c2.7,0,3.4-0.4,4.7-2.8l0.6-1.1l-4.9-21.8h7.1l2.5,13.6l6.9-13.6h7.6
			L249.5,22c-3.6,6.6-4.9,7.5-11.4,7.5H234.2z"/>
		<path id="Fill-19_1_" class="st5" d="M52.7-15.5c2.1-1.3,3.7-0.5,3.3,1.7c-0.7,4.4-2.8,16.3-2.8,16.3c-1,3-5.6,1.1-5.6,1.1
			l-16-6.7L52.7-15.5z"/>
		<path id="Fill-21_1_" class="st6" d="M52.2,8c-2.9,2.4-7.4,0-7.4,0L-4.7-12.4l47.7,39.7c0,0,0.3,0.3,0.9,0.7
			c0.5,0.4,1.1,0.6,1.7,0.6c1.5,0,2.8-0.8,3.3-2.5C49.3,24.4,51.2,13.7,52.2,8"/>
		<g id="Group-25_1_" transform="translate(0.000000, 21.578622)">
			<g id="Clip-24_1_">
			</g>
			<defs>
				<filter id="Adobe_OpacityMaskFilter_1_" filterUnits="userSpaceOnUse" x="-19.3" y="-16.1" width="48" height="20.7">
					<feColorMatrix  type="matrix" values="1 0 0 0 0  0 1 0 0 0  0 0 1 0 0  0 0 0 1 0"/>
				</filter>
			</defs>
			<mask maskUnits="userSpaceOnUse" x="-19.3" y="-16.1" width="48" height="20.7" id="mask-2_2_">
				<g class="st7">
					<polygon id="path-1_2_" class="st3" points="-19.3,-16.1 28.7,-16.1 28.7,4.6 -19.3,4.6 					"/>
				</g>
			</mask>
			<path id="Fill-23_1_" class="st8" d="M16.8-16.1c-19,10.8-34.3,19.6-36,20.6c-0.1,0,0,0,0,0L28.7-6.2L16.8-16.1z"/>
		</g>
		<polygon id="Fill-26_1_" class="st5" points="255.9,19.2 255.6,21.1 255,21.1 255.3,19.2 254.7,19.2 254.8,18.7 256.6,18.7 
			256.5,19.2 		"/>
		<polygon id="Fill-28_1_" class="st5" points="257.4,19.6 257.1,21.1 256.5,21.1 256.9,18.7 257.5,18.7 257.9,19.5 258.6,18.7 
			259.2,18.7 258.8,21.1 258.2,21.1 258.4,19.6 257.8,20.3 257.7,20.3 		"/>
	</g>
</g>
</svg>
