<?xml version="1.0" encoding="utf-8"?>
<!-- Generator: Adobe Illustrator 22.1.0, SVG Export Plug-In . SVG Version: 6.00 Build 0)  -->
<svg version="1.1" id="Layer_1" xmlns="http://www.w3.org/2000/svg" xmlns:xlink="http://www.w3.org/1999/xlink" x="0px" y="0px"
	 viewBox="0 0 345.6 225.6" style="enable-background:new 0 0 345.6 225.6;" xml:space="preserve">
<style type="text/css">
	.st0{fill:#252F3E;stroke:#FFFFFF;stroke-width:0.5;stroke-miterlimit:10;}
	.st1{fill:#FF9900;stroke:#FFFFFF;stroke-width:0.5;stroke-miterlimit:10;}
</style>
<title>AWS-Logo_Full-Color</title>
<g>
	<g>
		<path class="st0" d="M280,121.1c-0.4,0-0.8,0-1.2,0h-0.1c-5.6,0-11.2-0.6-16.7-1.9c-4.4-0.9-8.6-2.4-12.7-4.4
			c-3.3-1.4-5.3-4.6-5.3-8.2v-5.3c0-4.3,2.5-5.8,4.9-5.8c1,0,2,0.2,2.9,0.5l2.7,1.1c3.6,1.6,7.4,2.8,11.2,3.5c3.9,0.8,8,1.2,12,1.2
			h0.3h0.1c0.5,0,1,0,1.5,0c4.4,0,8.7-1.1,12.5-3.2c2.6-1.6,4.3-4.5,4.2-7.7v-0.1c0.1-2-0.7-4-2.1-5.5c-2.9-2.4-6.3-4.1-9.9-5h-0.2
			l-15.3-4.8c-6.9-1.9-13-5.9-17.6-11.4c-3.8-4.8-5.8-10.8-5.8-16.9c-0.1-4.5,1-9,3.2-12.9c2.1-3.7,4.9-6.9,8.2-9.5
			c3.5-2.7,7.4-4.6,11.6-5.9c4.5-1.3,9.1-1.9,13.7-1.9h0.3c2.5,0,5,0.2,7.4,0.5c2.5,0.3,4.9,0.7,7.1,1.3c2.2,0.5,4.3,1.1,6.2,1.7
			c1.7,0.5,3.3,1.2,4.8,2s2.8,1.9,3.9,3.3l0.1,0.1L312,26c0.9,1.5,1.4,3.2,1.4,4.9v5c0,4.3-2.5,5.8-4.9,5.8h-0.1h-0.1
			c-1.7-0.2-3.3-0.7-4.9-1.5c-5.9-2.5-12.1-3.8-18.5-3.8c-0.2,0-0.8,0-0.8,0H284c-0.4,0-0.9,0-1.3,0c-3.9,0-7.9,0.9-11.4,2.7
			c-2.5,1.5-3.9,4.2-3.7,7v0.1v0.1c0,2.1,0.8,4.1,2.3,5.5c3.1,2.5,6.7,4.3,10.6,5.3l15.1,4.5c6.8,1.8,12.8,5.5,17.5,10.9l0.1,0.1
			c3.7,4.8,5.6,10.7,5.5,16.8c0.1,4.6-1,9.2-3.1,13.3c-2,4-4.9,7.5-8.4,10.2c-3.8,2.9-8,5-12.6,6.3
			C289.7,120.4,284.8,121.1,280,121.1z M53,120.6c-7.9,0-15.4-2.9-21.2-8.3l-0.1-0.1c-5.7-5.8-8.8-13.9-8.5-22.1
			c-0.3-9,3.3-17.5,10.1-23.4l0.1-0.1c7.2-5.7,16.2-8.8,25.3-8.8c0.7,0,1.4,0,2.2,0.1c3.8,0,7.7,0.3,11.5,0.9c3,0.4,6.1,1,9.3,1.6
			v-4.8v-0.1c0.5-5.3-1-10.6-4.3-14.8c-3.7-2.8-8.3-4.3-13-4.3c-0.7,0-1.5,0-2.2,0.1h-0.1H62c-3.6,0-7.3,0.5-10.8,1.3
			c-3.7,0.9-7.4,2.1-11,3.5c-1.3,0.6-2.6,1.1-3.9,1.5L35.9,43h-2c-2.3,0-4.7-1.5-4.7-5.8v-4.9c-0.1-1.7,0.3-3.4,1-4.9l0.1-0.2
			l0.2-0.2c1-1.3,2.4-2.3,3.9-2.9c4.4-2.1,9-3.7,13.7-4.9c5.4-1.4,11-2.1,16.7-2.1H65c1.1-0.1,2.3-0.1,3.5-0.1
			c9.4,0,18.6,3.3,25.8,9.3l0.1,0.1l0.1,0.1c6.7,7.5,10.2,17.6,9.4,27.7v34.2c-0.1,3,0.3,5.8,1.1,8.6c0.9,2.4,1.9,4.8,3.2,7
			c0.7,1.1,1.1,2.3,1.1,3.6v0.2v0.2c-0.2,2.1-1.4,3.9-3.2,5l-6.3,4.4c-1.2,0.8-2.6,1.3-4.1,1.4h-0.1h-0.1c-1.8-0.1-3.6-0.9-4.8-2.2
			c-1.6-1.6-3-3.4-4.2-5.3c-0.6-0.9-1.1-2-1.7-3.1c-7.8,8.1-18.4,12.6-29.8,12.6c-0.2,0-0.4,0-0.6,0C54,120.6,53.5,120.6,53,120.6z
			 M49.5,98.6c2.3,2.1,5.3,3.2,8.5,3.2c0.2,0,0.4,0,0.6,0c3.5-0.1,6.9-0.7,10.2-1.8c3.5-1.2,6.5-3.3,8.9-6.1c1.4-1.6,2.4-3.4,3-5.4
			c0.7-2.8,1-5.6,0.9-8.4v-2.5c-2.5-0.5-5-1-7.5-1.3c-3.2-0.4-6.4-0.6-9.6-0.6h-0.1h-0.1c-0.5,0-1.1-0.1-1.6-0.1
			c-4.4,0-8.7,1.3-12.3,3.8c-2.7,2.5-4.2,6-4.1,9.7v0.1v0.1C46.1,92.8,47.2,96.1,49.5,98.6z M197,118.4c-1.8,0-3.5-0.5-5-1.6
			l-0.2-0.2l-0.2-0.2c-1.4-1.5-2.3-3.4-2.6-5.5l-14-57.7l-13.8,57.7c-0.3,2-1.2,3.9-2.6,5.5l-0.2,0.2l-0.2,0.2c-1.5,1-3.2,1.6-5,1.6
			c-0.3,0-0.5,0-0.8,0h-8.8c-0.2,0-0.5,0-0.7,0c-1.7,0-3.4-0.5-4.9-1.5l-0.2-0.1l-0.2-0.2c-1.4-1.5-2.4-3.3-2.9-5.3L110,29.8
			c-0.5-1.5-0.9-3.1-1.1-4.7c-0.4-2.6,1.4-5,4-5.4c0.2,0,0.5-0.1,0.7-0.1s0.3,0,0.5,0h10.1c0.2,0,0.5,0,0.7,0c1.7,0,3.4,0.5,4.9,1.5
			l0.3,0.2l0.2,0.2c1.3,1.5,2.3,3.3,2.7,5.2l15.2,59.8l14.1-59.8c0.4-2,1.3-3.9,2.8-5.3l0.2-0.2l0.2-0.2c1.5-0.9,3.2-1.4,5-1.4
			c0.2,0,0.5,0,0.7,0h8.3c0.2,0,0.5,0,0.7,0c1.8,0,3.5,0.5,5,1.4l0.3,0.2l0.2,0.2c1.4,1.5,2.4,3.4,2.7,5.4l14.2,60.7l15.7-60.8
			c0.4-1.9,1.4-3.7,2.7-5.2l0.2-0.2l0.3-0.2c1.4-1,3.1-1.5,4.9-1.5c0.2,0,0.5,0,0.7,0h9.5c0.2,0,0.3,0,0.5,0c2.3,0,4.4,1.7,4.7,4.1
			c0.1,0.4,0.1,0.7,0,1.1c0,0.6,0,1.2,0,1.9v0.2v0.2c-0.2,1-0.5,1.9-0.8,2.8l-25.3,81.4c-0.4,2-1.4,3.8-2.9,5.2l-0.2,0.2l-0.2,0.1
			c-1.4,0.9-3.1,1.5-4.9,1.5c-0.2,0-0.5,0-0.7,0h-9C197.5,118.3,197.2,118.4,197,118.4z"/>
	</g>
	<g>
		<path class="st1" d="M169.2,212.3c-58.2,0-114.1-21.5-157.3-60.5c-2-1.8-2.7-4.3-1.9-6.4c0.8-2,2.7-3.3,4.9-3.3
			c1.1,0,2.3,0.3,3.4,1c47.3,27.1,101.1,41.4,155.6,41.4h0.2c41-0.2,80.9-8.4,118.7-24.4c1.2-0.5,2.4-0.8,3.6-0.8
			c3.3,0,6.2,2,7.1,4.9c1,3-0.2,6.1-3.3,8.3c-33.2,24.5-82.8,39.8-129.6,39.8C170.2,212.3,169.7,212.3,169.2,212.3z"/>
	</g>
	<g>
		<path class="st1" d="M305.6,199.4c-1.5,0-2.8-0.7-3.6-1.8c-0.5-0.8-1.2-2.4-0.2-4.9l0.1-0.4c8.5-21.4,11.7-33.8,9.3-36.8
			c-0.4-0.6-2.7-2.4-13.1-2.4c-8.5,0-18.7,1.2-24.9,2h-0.4c-0.3,0-0.6,0.1-0.9,0.1c-2.3,0-4-1.1-4.6-3c-0.7-2.1,0.4-4.6,2.8-6.3
			c12.5-8.8,28.4-10.1,36.7-10.1c9.3,0,19.9,1.6,22.9,5.3c4.9,6.1-0.8,40.4-19.9,56.4C308.6,198.8,307,199.4,305.6,199.4z"/>
	</g>
</g>
</svg>
