<?xml version="1.0" encoding="utf-8"?>
<!-- Generator: Adobe Illustrator 22.1.0, SVG Export Plug-In . SVG Version: 6.00 Build 0)  -->
<svg version="1.1" id="Layer_1" xmlns="http://www.w3.org/2000/svg" xmlns:xlink="http://www.w3.org/1999/xlink" x="0px" y="0px"
	 viewBox="0 0 800 487" style="enable-background:new 0 0 800 487;" xml:space="preserve">
<style type="text/css">
	.st0{fill:#252F3E;}
	.st1{fill:#FF9900;}
</style>
<title>AWS-Logo_Full-Color</title>
<path class="st0" d="M228.2,178.2c-0.3,7.9,0.7,15.7,3.1,23.3c2.3,6.6,5.1,12.8,8.6,18.8c1.2,1.7,1.7,3.9,1.9,6
	c-0.3,3.2-2.2,6.1-5.1,7.7l-15.7,11.1c-2,1.5-4.5,2.2-7,2.3c-2.9-0.1-5.8-1.5-7.7-3.6c-3.6-3.6-6.8-7.7-9.5-12.1
	c-2.6-4.4-5.4-9.8-8-15.7c-18.8,23.4-47.2,36.8-77.2,36.3c-19.2,1-38.1-5.7-52.4-18.8c-13.2-13.4-20.2-31.7-19.2-50.5
	c-0.9-20.5,7.6-40.2,23-53.7c18.3-14.4,41.2-21.7,64.3-20.4c9.3,0,18.6,0.7,27.8,2c9.8,1.3,19.8,3.2,30.1,5.7V97.4
	c1.6-15.1-2.9-30.1-12.5-41.9c-12.2-9.3-27.5-13.7-42.8-12.1c-9.5,0-19.1,1.2-28.2,3.5c-9.6,2.3-19.1,5.2-28.2,9
	c-2.9,1.3-6,2.5-9.2,3.5h-4.1c-3.6,0-5.5-2.8-5.5-8.2V38.8c-0.3-3.2,0.4-6.4,1.9-9.2c2-2.5,4.5-4.4,7.4-5.5c10.6-5.1,21.7-9,33-11.8
	c13.2-3.8,26.9-5.4,40.8-5.4c24.7-2.2,49.5,5.4,68.7,21.3c15.7,17.6,23.6,40.9,21.8,64.5L228.2,178.2z M121.8,218.1
	c9.3-0.1,18.5-1.7,27.1-4.9c9.6-3.3,18.2-9.2,24.7-16.9c4.1-4.5,7.1-9.9,8.9-15.7c1.7-7.4,2.6-15.1,2.5-22.7v-11.1
	c-8-1.9-16-3.3-24.2-4.4c-8.2-1-16.5-1.6-24.6-1.6c-13.8-1-27.5,2.8-39,10.6c-8.3,7.4-13,18.1-12.5,29.3
	c-0.7,10.2,2.8,20.2,9.6,27.8C101.8,215.1,111.7,218.6,121.8,218.1z M332.4,246.5c-3.5,0.3-7.1-0.6-10-2.5
	c-2.8-2.8-4.7-6.4-5.5-10.2L255.4,30.8c-1.2-3.5-2-7-2.3-10.6c-0.4-3.1,1.6-6,4.8-6.4c0.6-0.1,1.2-0.1,1.7,0h25.8
	c3.6-0.3,7.3,0.6,10.2,2.5c2.6,2.9,4.4,6.4,5.2,10.2l44.1,173.7l40.6-173.5c0.6-3.8,2.5-7.4,5.2-10c3.2-1.9,6.8-2.8,10.6-2.5h21.1
	c3.6-0.3,7.4,0.6,10.6,2.5c2.8,2.8,4.5,6.4,5.1,10.2l41.2,175.9l45.4-175.9c0.9-3.8,2.6-7.4,5.4-10.2c3.1-2,6.7-2.9,10.2-2.5h24.3
	c3.1-0.4,6,1.6,6.4,4.8c0.1,0.6,0.1,1.2,0,1.7c0.1,1.3,0.1,2.8,0,4.1c-0.4,2.2-1.2,4.4-1.9,6.4L506.1,234c-0.9,3.9-2.8,7.4-5.5,10.2
	c-3.1,1.9-6.6,2.9-10,2.5h-23c-3.8,0.4-7.4-0.6-10.6-2.6c-2.8-2.9-4.5-6.6-5.1-10.6L411,64.4l-40.5,168.9c-0.6,3.9-2.3,7.6-5.1,10.6
	c-3.1,2.2-6.8,3.1-10.6,2.6H332.4z M669.6,253.5c-13.5,0-27.2-1.5-40.5-4.5c-10.5-2.2-20.7-5.7-30.3-10.6c-5.8-2.5-9.8-8.3-9.6-14.7
	v-13.2c0-5.5,2-8.2,6-8.2c1.7,0,3.3,0.3,4.9,1l6.7,2.6c9.3,4.1,18.9,7.1,28.8,9.2c10.3,2.2,21,3.2,31.6,3.2
	c13.4,0.7,26.6-2.2,38.3-8.7c8.7-5.2,13.8-14.7,13.5-24.7c0.1-6.8-2.3-13.4-7.1-18.3c-8-6.7-17.3-11.5-27.5-13.8l-38-11.9
	c-16-4.5-30.3-13.7-40.9-26.5c-8.4-10.9-13.1-24.3-13.1-38c-0.3-10.2,2.2-20.2,7.1-29.3c4.7-8.4,11.1-15.7,18.8-21.7
	c8-6.1,17.2-10.8,26.8-13.5c10.8-3.1,21.8-4.7,33-4.5c6,0,11.8,0.3,17.6,1.2c6,0.7,11.6,1.7,17,3.1s10.3,2.6,15,4.1
	c3.8,1.2,7.6,2.8,11.1,4.5c3.1,1.6,5.7,3.8,7.7,6.4c1.6,2.6,2.5,5.7,2.3,8.7v12.5c0,5.5-2,8.2-6,8.2c-3.5-0.4-7-1.5-10-3.2
	c-15.9-7-33.2-10.3-50.5-10c-12.1-0.6-24.2,1.9-34.9,7.4c-8.3,4.8-13.1,13.8-12.5,23.3c-0.1,7,2.6,13.8,7.7,18.6
	c8.4,6.8,18.3,11.8,28.8,14.6l37.3,11.2c15.7,4.1,30,13,40.6,25.2c8.3,10.8,12.7,24.2,12.4,37.9c0.1,10.6-2.2,21-7,30.4
	c-4.7,9-11.1,16.9-19.1,23.1c-8.7,6.7-18.6,11.6-29.3,14.7C694.6,252.2,682.1,253.8,669.6,253.5z"/>
<path class="st1" d="M719.3,382.8c-86.5,63.8-211.7,97.7-318.8,97.7c-144.4,1-283.9-52.1-391.2-148.8c-8-7.3-1-17.2,8.9-11.6
	C137,388,271.7,423.8,408.9,423.7c102.3-0.6,203.5-21.3,297.9-61.1C721.3,356.4,733.5,372.2,719.3,382.8z"/>
<path class="st1" d="M755.2,341.7c-11.1-14.3-73.1-6.7-100.9-3.3c-8.3,1-9.8-6.3-2.2-11.6c49.4-34.8,130.6-24.7,139.9-13.1
	c9.3,11.6-2.5,93-48.8,131.8c-7.1,6-13.8,2.9-10.8-5.1C742.8,414.2,766.3,356,755.2,341.7z"/>
<path class="st0" d="M228.2,178.2c-0.3,7.9,0.7,15.7,3.1,23.3c2.3,6.6,5.1,12.8,8.6,18.8c1.2,1.7,1.7,3.9,1.9,6
	c-0.3,3.2-2.2,6.1-5.1,7.7l-15.7,11.1c-2,1.5-4.5,2.2-7,2.3c-2.9-0.1-5.8-1.5-7.7-3.6c-3.6-3.6-6.8-7.7-9.5-12.1
	c-2.6-4.4-5.4-9.8-8-15.7c-18.8,23.4-47.2,36.8-77.2,36.3c-19.2,1-38.1-5.7-52.4-18.8c-13.2-13.4-20.2-31.7-19.2-50.5
	c-0.9-20.5,7.6-40.2,23-53.7c18.3-14.4,41.2-21.7,64.3-20.4c9.3,0,18.6,0.7,27.8,2c9.8,1.3,19.8,3.2,30.1,5.7V97.4
	c1.6-15.1-2.9-30.1-12.5-41.9c-12.2-9.3-27.5-13.7-42.8-12.1c-9.5,0-19.1,1.2-28.2,3.5c-9.6,2.3-19.1,5.2-28.2,9
	c-2.9,1.3-6,2.5-9.2,3.5h-4.1c-3.6,0-5.5-2.8-5.5-8.2V38.8c-0.3-3.2,0.4-6.4,1.9-9.2c2-2.5,4.5-4.4,7.4-5.5c10.6-5.1,21.7-9,33-11.8
	c13.2-3.8,26.9-5.4,40.8-5.4c24.7-2.2,49.5,5.4,68.7,21.3c15.7,17.6,23.6,40.9,21.8,64.5L228.2,178.2z M121.8,218.1
	c9.3-0.1,18.5-1.7,27.1-4.9c9.6-3.3,18.2-9.2,24.7-16.9c4.1-4.5,7.1-9.9,8.9-15.7c1.7-7.4,2.6-15.1,2.5-22.7v-11.1
	c-8-1.9-16-3.3-24.2-4.4c-8.2-1-16.5-1.6-24.6-1.6c-13.8-1-27.5,2.8-39,10.6c-8.3,7.4-13,18.1-12.5,29.3
	c-0.7,10.2,2.8,20.2,9.6,27.8C101.8,215.1,111.7,218.6,121.8,218.1z M332.4,246.5c-3.5,0.3-7.1-0.6-10-2.5
	c-2.8-2.8-4.7-6.4-5.5-10.2L255.4,30.8c-1.2-3.5-2-7-2.3-10.6c-0.4-3.1,1.6-6,4.8-6.4c0.6-0.1,1.2-0.1,1.7,0h25.8
	c3.6-0.3,7.3,0.6,10.2,2.5c2.6,2.9,4.4,6.4,5.2,10.2l44.1,173.7l40.6-173.5c0.6-3.8,2.5-7.4,5.2-10c3.2-1.9,6.8-2.8,10.6-2.5h21.1
	c3.6-0.3,7.4,0.6,10.6,2.5c2.8,2.8,4.5,6.4,5.1,10.2l41.2,175.9l45.4-175.9c0.9-3.8,2.6-7.4,5.4-10.2c3.1-2,6.7-2.9,10.2-2.5h24.3
	c3.1-0.4,6,1.6,6.4,4.8c0.1,0.6,0.1,1.2,0,1.7c0.1,1.3,0.1,2.8,0,4.1c-0.4,2.2-1.2,4.4-1.9,6.4L506.1,234c-0.9,3.9-2.8,7.4-5.5,10.2
	c-3.1,1.9-6.6,2.9-10,2.5h-23c-3.8,0.4-7.4-0.6-10.6-2.6c-2.8-2.9-4.5-6.6-5.1-10.6L411,64.4l-40.5,168.9c-0.6,3.9-2.3,7.6-5.1,10.6
	c-3.1,2.2-6.8,3.1-10.6,2.6H332.4z M669.6,253.5c-13.5,0-27.2-1.5-40.5-4.5c-10.5-2.2-20.7-5.7-30.3-10.6c-5.8-2.5-9.8-8.3-9.6-14.7
	v-13.2c0-5.5,2-8.2,6-8.2c1.7,0,3.3,0.3,4.9,1l6.7,2.6c9.3,4.1,18.9,7.1,28.8,9.2c10.3,2.2,21,3.2,31.6,3.2
	c13.4,0.7,26.6-2.2,38.3-8.7c8.7-5.2,13.8-14.7,13.5-24.7c0.1-6.8-2.3-13.4-7.1-18.3c-8-6.7-17.3-11.5-27.5-13.8l-38-11.9
	c-16-4.5-30.3-13.7-40.9-26.5c-8.4-10.9-13.1-24.3-13.1-38c-0.3-10.2,2.2-20.2,7.1-29.3c4.7-8.4,11.1-15.7,18.8-21.7
	c8-6.1,17.2-10.8,26.8-13.5c10.8-3.1,21.8-4.7,33-4.5c6,0,11.8,0.3,17.6,1.2c6,0.7,11.6,1.7,17,3.1s10.3,2.6,15,4.1
	c3.8,1.2,7.6,2.8,11.1,4.5c3.1,1.6,5.7,3.8,7.7,6.4c1.6,2.6,2.5,5.7,2.3,8.7v12.5c0,5.5-2,8.2-6,8.2c-3.5-0.4-7-1.5-10-3.2
	c-15.9-7-33.2-10.3-50.5-10c-12.1-0.6-24.2,1.9-34.9,7.4c-8.3,4.8-13.1,13.8-12.5,23.3c-0.1,7,2.6,13.8,7.7,18.6
	c8.4,6.8,18.3,11.8,28.8,14.6l37.3,11.2c15.7,4.1,30,13,40.6,25.2c8.3,10.8,12.7,24.2,12.4,37.9c0.1,10.6-2.2,21-7,30.4
	c-4.7,9-11.1,16.9-19.1,23.1c-8.7,6.7-18.6,11.6-29.3,14.7C694.6,252.2,682.1,253.8,669.6,253.5z"/>
<path class="st1" d="M719.3,382.8c-86.5,63.8-211.7,97.7-318.8,97.7c-144.4,1-283.9-52.1-391.2-148.8c-8-7.3-1-17.2,8.9-11.6
	C137,388,271.7,423.8,408.9,423.7c102.3-0.6,203.5-21.3,297.9-61.1C721.3,356.4,733.5,372.2,719.3,382.8z"/>
<path class="st1" d="M755.2,341.7c-11.1-14.3-73.1-6.7-100.9-3.3c-8.3,1-9.8-6.3-2.2-11.6c49.4-34.8,130.6-24.7,139.9-13.1
	c9.3,11.6-2.5,93-48.8,131.8c-7.1,6-13.8,2.9-10.8-5.1C742.8,414.2,766.3,356,755.2,341.7z"/>
</svg>
