<?xml version="1.0" encoding="utf-8"?>
<!-- Generator: Adobe Illustrator 22.1.0, SVG Export Plug-In . SVG Version: 6.00 Build 0)  -->
<svg version="1.1" id="Layer_1" xmlns="http://www.w3.org/2000/svg" xmlns:xlink="http://www.w3.org/1999/xlink" x="0px" y="0px"
	 viewBox="0 0 818 247" style="enable-background:new 0 0 818 247;" xml:space="preserve">
<style type="text/css">
	.st0{fill:#0A0B09;}
	.st1{fill:#252F58;}
</style>
<path id="WORDFORM_1_" class="st0" d="M715.4,151.4l-27.4,8.7c-5.5,1.7-8.6,4.9-8.6,11c0,9.1,5.6,13.7,14.3,13.7
	c9.2,0,14.4-4.1,21.7-9.9V151.4L715.4,151.4z M743.4,184.5c0.5,1.7,1.6,4.3,2,5.4c-4.9,4.4-9.5,6.3-14.8,6.3
	c-8.1,0-12.2-5.7-14.7-14.5c-5.8,6.5-14.7,14.5-29.3,14.5c-15.5,0-23.8-9.4-23.8-21.8c0-14.8,10.3-18.3,22.4-21.8l30.2-9.1v-3.3
	c0-13-5.9-23.2-19.4-23.2c-8.8,0-13,3.7-13,11.8c0,1.6,0.3,4.5,0.8,7.6l-13,1.6c-2.2-2.2-3.4-4.8-3.4-8.6
	c0-13.1,14.1-20.7,31.6-20.7c19.3,0,32.1,8.1,32.1,30.6v35c0,7,2.7,10.8,7.4,10.8C739.5,185.1,741.5,184.9,743.4,184.5L743.4,184.5z
	 M803.5,108.7c-11.4,0-18.5,11.2-25.8,24.4l0.8-24.4H773l-22.7,8v3.8l11.7,5.6v53.3c0,7.3-5.3,8.1-12.5,9.1v6.2h43.8v-6.2
	c-11.6-1.3-15.7-1.8-15.7-9.7v-38.2c10.5-12.4,17.1-14.8,27.1-14.8h6.4v-14.8C809.6,109.7,807.3,108.7,803.5,108.7L803.5,108.7z
	 M646.3,184.8c-9.6,0-14.4-5.1-14.4-16.5V119h24.4v-8.7h-24.4V92.2h-4.7c-8,10.2-14.7,16.2-23,21.3v5.6h12.1v54.6
	c0,16.4,10.8,22.6,22.7,22.6c9.5,0,16.1-4.3,20.2-8.4c-0.7-1.6-1.5-3.2-2.2-5C653.4,184.3,649.9,184.8,646.3,184.8L646.3,184.8z
	 M364.5,186.5c-31.8,0-45.6-28.7-45.6-58.1c0-27.1,11.4-49.7,42.7-49.7c18,0,30,6.8,37.1,27.9h5.9l-0.9-27
	c-7.3-4.6-19.9-10.7-41-10.7c-34.9,0-63.4,25.4-63.4,66c0,32.2,22.9,61.3,61.9,61.3c19.3,0,33-4,45.4-9.6l3.3-30.1h-6.2
	C396.6,176.3,387.7,186.5,364.5,186.5L364.5,186.5z M489.5,156.3c0-20.5-11-37.7-29.7-37.7c-15.6,0-23.5,12.7-23.5,30.1
	c0,20.5,11,37.7,29.7,37.7C481.7,186.4,489.5,173.6,489.5,156.3L489.5,156.3z M506.1,150.9c0,27.8-20.7,45.3-44.8,45.3
	c-24.7,0-41.6-17.7-41.6-42.2c0-27.8,20.7-45.4,44.8-45.4C489.2,108.7,506.1,126.4,506.1,150.9L506.1,150.9z M599.4,160.7
	c0,22.8-20.8,35.5-46.2,35.5c-15,0-28.2-4.3-36-10.8l-1.3-29.8h5.8c4.9,17.2,15.5,31.2,34,31.2c17.2,0,28.8-8.3,28.8-22
	c0-12.1-9.4-17.3-22.4-22.6l-17.1-6.8c-15-6-27.9-13-27.9-33.1c0-17.3,17.4-33.4,41.7-33.4c14.1,0,27.4,4.1,35.4,10.5v27h-5.5
	c-4.1-17.2-13.3-28.2-31.4-28.2c-14.6,0-25.4,7.8-25.4,20.5c0,10.5,7.2,15.3,19.2,20l18.3,7.3C586.9,133.2,599.4,140.2,599.4,160.7
	L599.4,160.7z"/>
<path id="MARK_1_" class="st1" d="M40.2,57.2l78.1,21.9c1.6,0.4,3.6-0.3,4.5-1.6l28.5-39.9c0.9-1.4,0.6-3.2-0.7-4.2L110.1,5.9
	C108.8,5,106.7,5,105.4,6L39.7,54.6C38.4,55.5,38.6,56.7,40.2,57.2L40.2,57.2z M167.5,20.9l3.6,82.4c0.1,1.6,1.3,3.4,2.9,3.9
	l46,15.3c1.6,0.5,3.2-0.4,3.7-2l13.3-47.7c0.4-1.5-0.3-3.6-1.6-4.6l-65.6-48.6C168.5,18.7,167.4,19.2,167.5,20.9L167.5,20.9z
	 M240.7,133l-75.8,29c-1.5,0.6-2.7,2.3-2.7,4l-0.1,49.3c0,1.6,1.4,3,3,2.9l48.6-1.9c1.6-0.1,3.3-1.4,3.8-2.9l25.1-78.6
	C243.1,133.2,242.2,132.4,240.7,133L240.7,133z M158.7,238.6l-50.5-64.5c-1-1.3-3-1.9-4.5-1.4l-46.1,15.2c-1.5,0.5-2.3,2.2-1.8,3.8
	l16.8,46.5c0.6,1.5,2.3,2.7,3.9,2.7l81.1,0.1C159.2,240.9,159.7,239.9,158.7,238.6L158.7,238.6z M32.2,191.4l-25-78.6
	c-0.5-1.6,0.1-3.6,1.4-4.6l38.2-30.6c1.3-1,3.1-0.7,4.1,0.6L79.3,118c0.9,1.3,1,3.5,0.1,4.8l-44.6,68.9
	C33.9,193.1,32.7,192.9,32.2,191.4L32.2,191.4z"/>
</svg>
