<?xml version="1.0" encoding="utf-8"?>
<!-- Generator: Adobe Illustrator 22.1.0, SVG Export Plug-In . SVG Version: 6.00 Build 0)  -->
<svg version="1.1" id="Layer_1" xmlns="http://www.w3.org/2000/svg" xmlns:xlink="http://www.w3.org/1999/xlink" x="0px" y="0px"
	 viewBox="0 0 802 260.9" style="enable-background:new 0 0 802 260.9;" xml:space="preserve">
<style type="text/css">
	.st0{fill:#12284C;}
	.st1{fill:#C89211;}
</style>
<g>
	<path class="st0" d="M80.1,68.9c0,18.6-2.7,32.6-30.9,32.6c-28,0-32.4-13.5-32.4-32.6V23.7c0-10.2-4.3-11.1-11.8-11.1V9.9h35.6v2.7
		c-7.4,0.1-11.9,1-11.9,11.1v45.1c0,13.8,3.3,27.3,20.9,27.3c19.5,0,22.6-11.2,22.6-27.3V23.7c0-10.2-4.4-11.1-11.8-11.1V9.9h31.3
		v2.7c-7.4,0-11.8,1-11.8,11.1L80.1,68.9L80.1,68.9z"/>
	<path class="st0" d="M155,97.9c-6.6,2.5-14.2,3.6-24.2,3.6c-27.1,0-40.1-20.6-40.1-49.4c0-25,8.1-43.5,37.1-43.5
		c10.9,0,20.1,2.2,26,3.8l1.2,21.3h-3.4c-1.8-7.6-7.2-19.8-24-19.8C106,13.8,104.2,37,104.2,51c0,17.5,3.8,44.4,33.4,44.4
		c9.1,0,14-2,17.5-3.4v5.8H155z"/>
	<path class="st0" d="M227.8,29.5c-1.2-7.2-6.6-15.6-21.1-15.6c-9.1,0-17.1,5.8-17.1,14.8c0,12,16.1,16,27.9,22.9
		c10.7,6.2,17.9,11.8,17.9,24.7c0,17.2-14.9,25.3-33.4,25.3c-9.2,0-19.9-2-23.3-2.6l-1-19.1h3.4c1.1,7.2,7.4,15.6,21.9,15.6
		c11.9,0,19.6-7.7,19.6-17.1c0-14.6-22.5-19.1-35.1-28.7c-5.9-4.6-8.8-9.5-8.8-18.1c0-16.3,13.4-22.9,30.5-22.9
		c9.1,0,14.9,1.1,21,2.3l1,18.6C231.3,29.5,227.8,29.5,227.8,29.5z"/>
	<path class="st0" d="M290.7,100.3c-1.4,0.4-4.4,1.1-8.8,1.1c-7,0-9-3.6-9-8.8h-0.3c-3.7,5.4-8.9,8.8-17.1,8.8
		c-8.3,0-14.4-5.7-14.4-13.6c0-17.5,22.6-17.5,31.8-18.3v-4.6c0-8.4-0.1-17.3-10.3-17.3c-7.4,0-8.4,3.1-8.4,7c0,5-3.6,6.3-5.7,6.3
		c-3.3,0-5.7-2.2-5.7-5.4c0-7.9,11.7-11.9,20-11.9c16.5,0,19.5,8,19.5,19.2v29.9c0,4.2,1.4,5.7,5.2,5.7c1.1,0,2.2-0.3,3.3-0.4v2.5
		H290.7z M272.9,73.5c-5.7,0.1-21.1,1.2-21.1,12.4c0,6.3,4.1,10.4,8.2,10.4c7.9,0,12.9-7.6,12.9-15.7V73.5z"/>
	<path class="st0" d="M293.3,98.1c5,0,9.1-1.1,9.1-8.9V56.3c0-7.3-5.7-7.6-9.1-7.9v-2l18.6-2.9v15.9h0.3c1.7-4.4,7.1-15.9,19-15.9
		c12.8,0,14,7,14,18.2v27.5c0,7.9,4.1,8.9,9.1,8.9v2h-27.7v-2c5,0,9.2-1.1,9.2-8.9V64.3c0-10.3-0.1-15-8-15
		c-7.1,0-15.7,13.6-15.7,25v14.9c0,7.9,4.1,8.9,9.2,8.9v2h-27.9V98.1z"/>
	<path class="st0" d="M368.2,97.4c7.3,0,11.8-1,11.8-11.1V23.7c0-10.2-4.5-11.1-11.8-11.1V9.9h31.8c22.5,0,46.3,4.9,46.3,45.3
		c0,40.2-25,45-46.3,45h-31.8L368.2,97.4L368.2,97.4z M391.9,83.5c0,9.9,1.1,11.4,7.9,11.4c23.3,0,32.9-12.5,32.9-39.7
		c0-24.9-7.2-40-32.9-40c-6.8,0-7.9,0.8-7.9,11.4V83.5z"/>
	<path class="st0" d="M451.1,98.1c5,0,9.2-1.1,9.2-8.9V56.3c0-7.3-5.6-7.6-9.2-7.9v-2l18.6-2.9v45.6c0,7.9,4.1,8.9,9.1,8.9v2h-27.7
		V98.1z M457.7,25.6c0-3.9,3-6.9,6.9-6.9c3.9,0,6.9,3,6.9,6.9s-3,6.9-6.9,6.9C460.8,32.4,457.7,29.4,457.7,25.6z"/>
	<path class="st0" d="M522.5,99.2c-2.9,1.1-7,2.2-14.3,2.2c-18.7,0-29.2-10.3-29.2-30.5c0-17.6,7.1-27.3,24.5-27.3
		c10.9,0,20.6,6,20.6,20v2.7H489c0,10.1,5,30.7,25,30.7c2.7,0,6-0.4,8.4-1.6L522.5,99.2L522.5,99.2z M513.3,62.2
		c0-6.4-2.2-14.7-11.4-14.7c-9.2,0-12.9,10.3-12.9,14.7H513.3z"/>
	<path class="st0" d="M563.2,90.5c5.7,0,19.2,0.3,19.2,13.6c0,13.7-13.5,21.4-29.5,21.4c-11.9,0-24.1-4.4-24.1-15.3
		c0-7.4,5.6-10.7,9.4-12.6c-2-1.2-5.2-3.4-5.2-8.6c0-4.4,3.9-9,5.2-10.5c-2.7-2.3-7-5.9-7-16.2c0-15.6,11.3-18.9,22.7-18.9
		c5.6,0,8.6,1,12.5,3c1.9-4.6,4.8-12.9,12.1-12.9c3.4,0,5.7,2.2,5.7,5.7c0,3.3-2,5.4-5.7,5.4c-3.1,0-3.9-1.7-5.4-1.7
		c-2.7,0-3.7,3.5-4.3,5.4c1.4,1.6,5.4,6,5.4,14.5c0,12.2-7.6,19-22,19c-4.9,0-8.3-0.6-11-1.8c-0.7,1-2.2,2.7-2.2,5.4
		c0,4.9,6,4.9,9.9,4.9h14.2V90.5z M542.3,99.1c-2.4,1.8-5.7,3.9-5.7,9.3c0,7.1,6.4,13.3,16.9,13.3c11,0,21.1-5.7,21.1-14.3
		c0-6.2-5-8.2-11.1-8.2C563.5,99.1,542.3,99.1,542.3,99.1z M552.8,78.1c10.2,0,11.4-8,11.4-14.3c0-9-3.1-16.3-11.9-16.3
		c-9.6,0-11.3,7-11.3,14C541.2,70.6,544.2,78.1,552.8,78.1z"/>
	<path class="st0" d="M582.5,72.5c0-18.1,9.7-28.9,25.2-28.9c15.5,0,25.2,10.9,25.2,28.9s-9.7,28.9-25.2,28.9
		C592.2,101.4,582.5,90.5,582.5,72.5z M607.7,97.4c12,0,14.5-14.9,14.5-24.9s-2.4-24.9-14.5-24.9c-12,0-14.4,14.9-14.4,24.9
		C593.2,82.5,595.6,97.4,607.7,97.4z"/>
	<g id="line_9_">
		<path class="st1" d="M522.6,120.9H5v3.1h520.5C524.3,123.1,523.4,122,522.6,120.9z"/>
		<path class="st1" d="M631.9,120.9h-47.6c-1.1,1.1-2.3,2.1-3.6,3.1h51.2V120.9L631.9,120.9z"/>
	</g>
</g>
<g>
	<path class="st0" d="M25.9,156.4h7.7v21.7c0,9.7-4.7,13.2-12.2,13.2c-1.8,0-4.2-0.3-5.7-0.8l0.9-6.3c1.1,0.4,2.5,0.6,4,0.6
		c3.3,0,5.3-1.5,5.3-6.8V156.4z"/>
	<path class="st0" d="M47.3,181.9l-2.5,8.8h-8l10.4-34.2h10.2L68,190.6h-8.3l-2.7-8.8H47.3z M55.9,176.1l-2.1-7.3
		c-0.6-2-1.2-4.6-1.8-6.6H52c-0.5,2-1,4.6-1.6,6.6l-2,7.3H55.9z"/>
	<path class="st0" d="M96.5,189.8c-1.4,0.7-4.6,1.5-8.8,1.5c-11.9,0-18-7.3-18-17.2c0-11.7,8.3-18.2,18.7-18.2c4,0,7.1,0.8,8.4,1.5
		l-1.6,6.2c-1.6-0.6-3.8-1.2-6.5-1.2c-6.2,0-11,3.7-11,11.3c0,6.9,4.1,11.1,11,11.1c2.3,0,5-0.5,6.5-1.1L96.5,189.8z"/>
	<path class="st0" d="M132.1,173.2c0,11.2-6.8,18-16.8,18c-10.2,0-16.1-7.7-16.1-17.4c0-10.3,6.5-18,16.6-18
		C126.3,155.9,132.1,163.8,132.1,173.2z M107.3,173.7c0,6.7,3.2,11.4,8.3,11.4c5.2,0,8.2-5,8.2-11.7c0-6.2-2.9-11.4-8.3-11.4
		C110.3,162.1,107.3,167,107.3,173.7z"/>
	<path class="st0" d="M137.7,156.9c2-0.4,6.2-0.7,10-0.7c4.7,0,7.6,0.4,10.1,1.9c2.4,1.2,4.2,3.6,4.2,6.7c0,3-1.8,5.9-5.7,7.3v0.1
		c3.9,1.1,6.8,4,6.8,8.4c0,3.1-1.4,5.6-3.5,7.3c-2.5,1.9-6.6,3.1-13.4,3.1c-3.8,0-6.6-0.3-8.4-0.5V156.9z M145.3,170h2.6
		c4.1,0,6.3-1.7,6.3-4.2s-1.9-4-5.5-4c-1.7,0-2.7,0.1-3.3,0.2L145.3,170L145.3,170z M145.3,185.2c0.8,0.1,1.7,0.1,3,0.1
		c3.5,0,6.6-1.3,6.6-5c0-3.4-3.1-4.9-7-4.9h-2.7V185.2z"/>
	<path class="st0" d="M168.4,182.7c2.1,1.1,5.3,2.1,8.6,2.1c3.5,0,5.4-1.5,5.4-3.7c0-2.1-1.6-3.4-5.7-4.9c-5.7-1.9-9.4-5.1-9.4-10.1
		c0-5.8,4.9-10.3,13-10.3c3.9,0,6.7,0.8,8.8,1.8l-1.8,6.3c-1.4-0.6-3.8-1.6-7.2-1.6s-5,1.5-5,3.3c0,2.2,1.9,3.2,6.4,4.9
		c6,2.2,8.9,5.4,8.9,10.2c0,5.7-4.4,10.6-13.8,10.6c-3.9,0-7.8-1-9.7-2.1L168.4,182.7z"/>
	<path class="st0" d="M207.2,182.7c2.1,1.1,5.3,2.1,8.6,2.1c3.5,0,5.4-1.5,5.4-3.7c0-2.1-1.6-3.4-5.7-4.9c-5.7-1.9-9.4-5.1-9.4-10.1
		c0-5.8,4.9-10.3,13-10.3c3.9,0,6.7,0.8,8.8,1.8l-1.8,6.3c-1.4-0.6-3.8-1.6-7.2-1.6c-3.4,0-5,1.5-5,3.3c0,2.2,1.9,3.2,6.4,4.9
		c6,2.2,8.9,5.4,8.9,10.2c0,5.7-4.4,10.6-13.8,10.6c-3.9,0-7.8-1-9.7-2.1L207.2,182.7z"/>
	<path class="st0" d="M259.5,189.8c-1.4,0.7-4.6,1.5-8.8,1.5c-11.9,0-18-7.3-18-17.2c0-11.7,8.3-18.2,18.7-18.2c4,0,7.1,0.8,8.4,1.5
		l-1.6,6.2c-1.6-0.6-3.8-1.2-6.5-1.2c-6.2,0-11,3.7-11,11.3c0,6.9,4.1,11.1,11,11.1c2.3,0,5-0.5,6.5-1.1L259.5,189.8z"/>
	<path class="st0" d="M272.5,156.4v13.2h12.7v-13.2h7.7v34.2h-7.7v-14.2h-12.7v14.3h-7.8v-34.2L272.5,156.4L272.5,156.4z"/>
	<path class="st0" d="M331.4,173.2c0,11.2-6.8,18-16.8,18c-10.2,0-16.1-7.7-16.1-17.4c0-10.3,6.5-18,16.6-18
		C325.8,155.9,331.4,163.8,331.4,173.2z M306.8,173.7c0,6.7,3.2,11.4,8.3,11.4c5.2,0,8.2-5,8.2-11.7c0-6.2-2.9-11.4-8.3-11.4
		C309.8,162.1,306.8,167,306.8,173.7z"/>
	<path class="st0" d="M368.3,173.2c0,11.2-6.8,18-16.8,18c-10.2,0-16.1-7.7-16.1-17.4c0-10.3,6.5-18,16.6-18
		C362.6,155.9,368.3,163.8,368.3,173.2z M343.6,173.7c0,6.7,3.2,11.4,8.3,11.4c5.2,0,8.2-5,8.2-11.7c0-6.2-2.9-11.4-8.3-11.4
		C346.6,162.1,343.6,167,343.6,173.7z"/>
	<path class="st0" d="M373.9,156.4h7.8v27.8h13.6v6.5h-21.4L373.9,156.4L373.9,156.4z"/>
	<path class="st0" d="M440.5,173.2c0,11.2-6.8,18-16.8,18c-10.2,0-16.1-7.7-16.1-17.4c0-10.3,6.5-18,16.6-18
		C434.8,155.9,440.5,163.8,440.5,173.2z M415.7,173.7c0,6.7,3.2,11.4,8.3,11.4c5.2,0,8.2-5,8.2-11.7c0-6.2-2.9-11.4-8.3-11.4
		C418.7,162.1,415.7,167,415.7,173.7z"/>
	<path class="st0" d="M446.1,156.4h21v6.4h-13.2v7.9h12.3v6.3h-12.3v13.8h-7.8V156.4z"/>
	<path class="st0" d="M504.4,176.2h-12.6v8.1H506v6.4h-21.8v-34.2h21.1v6.4h-13.4v7.1h12.6L504.4,176.2L504.4,176.2z"/>
	<path class="st0" d="M512,190.7v-34.2h9l7.1,12.6c2,3.6,4.1,7.9,5.6,11.8h0.2c-0.5-4.5-0.6-9.1-0.6-14.2v-10h7.1v34.2h-8.1
		l-7.3-13.2c-2-3.6-4.2-8-5.9-12.1l-0.2,0.1c0.2,4.5,0.3,9.4,0.3,14.9v10.3h-7V190.7z"/>
	<path class="st0" d="M575.9,189.1c-2.4,0.8-6.9,1.9-11.4,1.9c-6.3,0-10.8-1.6-13.9-4.6c-3.2-2.9-4.9-7.4-4.9-12.5
		c0.1-11.4,8.3-17.9,19.5-17.9c4.4,0,7.8,0.9,9.5,1.7l-1.6,6.2c-1.9-0.8-4.2-1.5-8-1.5c-6.5,0-11.3,3.6-11.3,11.1
		c0,7.1,4.4,11.2,10.8,11.2c1.8,0,3.2-0.2,3.8-0.5v-7.2h-5.3v-6h12.7V189.1z"/>
	<path class="st0" d="M590.4,156.4v34.2h-7.8v-34.2H590.4z"/>
	<path class="st0" d="M597.5,190.7v-34.2h9l7.1,12.6c2,3.6,4.1,7.9,5.6,11.8h0.2c-0.5-4.5-0.6-9.1-0.6-14.2v-10h7.1v34.2h-8.1
		l-7.3-13.2c-2-3.6-4.2-8-5.9-12.1l-0.2,0.1c0.2,4.5,0.3,9.4,0.3,14.9v10.3h-7V190.7z"/>
	<path class="st0" d="M653.5,176.2h-12.6v8.1H655v6.4h-21.8v-34.2h21.1v6.4h-13.4v7.1h12.6V176.2z"/>
	<path class="st0" d="M681.3,176.2h-12.6v8.1h14.1v6.4H661v-34.2h21.1v6.4h-13.4v7.1h12.6L681.3,176.2L681.3,176.2z"/>
	<path class="st0" d="M688.8,156.9c2.5-0.4,6.2-0.7,10.3-0.7c5,0,8.7,0.8,11.1,2.7c2,1.6,3.2,4,3.2,7.2c0,4.3-3.1,7.3-6,8.4v0.2
		c2.4,1,3.7,3.3,4.6,6.4c1.1,3.9,2.1,8.3,2.8,9.6h-8c-0.5-1-1.4-3.8-2.4-8c-0.9-4.2-2.4-5.4-5.6-5.5h-2.3v13.4h-7.7L688.8,156.9
		L688.8,156.9z M696.5,171.6h3c3.9,0,6.2-1.9,6.2-5c0-3.2-2.1-4.7-5.7-4.8c-1.9,0-2.9,0.2-3.5,0.3V171.6z"/>
	<path class="st0" d="M727.2,156.4v34.2h-7.8v-34.2H727.2z"/>
	<path class="st0" d="M734.4,190.7v-34.2h9l7.1,12.6c2,3.6,4.1,7.9,5.6,11.8h0.2c-0.5-4.5-0.6-9.1-0.6-14.2v-10h7.1v34.2h-8.1
		l-7.3-13.2c-2-3.6-4.2-8-5.9-12.1l-0.2,0.1c0.2,4.5,0.3,9.4,0.3,14.9v10.3h-7V190.7z"/>
	<path class="st0" d="M798.3,189.1c-2.4,0.8-6.9,1.9-11.4,1.9c-6.3,0-10.8-1.6-13.9-4.6c-3.2-2.9-4.9-7.4-4.9-12.5
		c0.1-11.4,8.3-17.9,19.5-17.9c4.4,0,7.8,0.9,9.5,1.7l-1.6,6.2c-1.9-0.8-4.2-1.5-8-1.5c-6.5,0-11.3,3.6-11.3,11.1
		c0,7.1,4.4,11.2,10.8,11.2c1.8,0,3.2-0.2,3.8-0.5v-7.2h-5.3v-6h12.7V189.1z"/>
</g>
<g>
	<path class="st0" d="M41.3,244.1c-1.6,0.8-4.9,1.6-9,1.6c-9.6,0-16.9-6.1-16.9-17.3c0-10.7,7.3-18,17.9-18c4.2,0,7,0.9,8.1,1.5
		l-1.1,3.6c-1.7-0.8-4.1-1.4-6.9-1.4c-8,0-13.4,5.1-13.4,14.2c0,8.4,4.9,13.8,13.2,13.8c2.7,0,5.4-0.5,7.3-1.4L41.3,244.1z"/>
	<path class="st0" d="M68.1,232.7c0,9.1-6.3,13.1-12.2,13.1c-6.6,0-11.8-4.9-11.8-12.6c0-8.2,5.4-13.1,12.2-13.1
		C63.4,220,68.1,225.1,68.1,232.7z M48.7,232.9c0,5.4,3.1,9.5,7.4,9.5c4.2,0,7.4-4,7.4-9.6c0-4.2-2.1-9.5-7.3-9.5
		S48.7,228.2,48.7,232.9z"/>
	<path class="st0" d="M73.9,227.2c0-2.6-0.1-4.6-0.2-6.6h3.9l0.2,4H78c1.4-2.3,3.6-4.5,7.7-4.5c3.4,0,5.9,2,7,5h0.1
		c0.8-1.4,1.8-2.5,2.7-3.2c1.5-1.1,3.1-1.8,5.4-1.8c3.3,0,8,2.1,8,10.7v14.5h-4.3v-14c0-4.7-1.8-7.6-5.3-7.6c-2.6,0-4.5,1.9-5.3,4.1
		c-0.2,0.6-0.4,1.4-0.4,2.2v15.2h-4.3v-14.8c0-3.9-1.8-6.7-5.1-6.7c-2.8,0-4.9,2.2-5.6,4.5c-0.3,0.6-0.4,1.4-0.4,2.2v14.9h-4.3
		L73.9,227.2L73.9,227.2z"/>
	<path class="st0" d="M116.2,228.6c0-3.2-0.1-5.7-0.2-8h4l0.2,4.2h0.1c1.9-3,4.7-4.8,8.8-4.8c5.9,0,10.4,5,10.4,12.5
		c0,8.8-5.4,13.2-11.1,13.2c-3.3,0-6.1-1.4-7.6-3.9h-0.1v13.4h-4.4L116.2,228.6L116.2,228.6z M120.6,235.1c0,0.6,0.1,1.2,0.2,1.9
		c0.8,3.1,3.5,5.2,6.7,5.2c4.7,0,7.4-3.9,7.4-9.5c0-5-2.6-9.1-7.3-9.1c-3,0-5.9,2.2-6.7,5.6c-0.2,0.5-0.3,1.2-0.3,1.9L120.6,235.1
		L120.6,235.1z"/>
	<path class="st0" d="M165.8,238.4c0,2.6,0.1,4.8,0.2,6.7h-4l-0.3-4h-0.1c-1.1,1.9-3.8,4.6-8.1,4.6c-3.9,0-8.5-2.1-8.5-10.8v-14.4
		h4.5v13.6c0,4.7,1.4,7.8,5.5,7.8c3,0,5-2.1,5.9-4.1c0.3-0.6,0.4-1.5,0.4-2.3v-15.1h4.5L165.8,238.4L165.8,238.4z"/>
	<path class="st0" d="M178.5,213.5v7.1h6.4v3.4h-6.4v13.3c0,3,0.9,4.8,3.4,4.8c1.1,0,2-0.2,2.6-0.3l0.2,3.4c-0.9,0.4-2.2,0.6-4,0.6
		c-2.1,0-3.8-0.6-4.9-1.9c-1.2-1.3-1.8-3.5-1.8-6.4V224h-3.6v-3.4h3.8v-5.9L178.5,213.5z"/>
	<path class="st0" d="M192,233.6c0.1,6,4,8.6,8.4,8.6c3.2,0,5.1-0.5,6.8-1.2l0.8,3.2c-1.6,0.7-4.2,1.5-8.1,1.5
		c-7.6,0-12.1-5-12.1-12.4s4.3-13.3,11.5-13.3c8,0,10.2,7.1,10.2,11.6c0,0.9-0.1,1.6-0.2,2.1L192,233.6L192,233.6z M205.1,230.4
		c0.1-2.8-1.1-7.3-6.2-7.3c-4.5,0-6.5,4.2-6.9,7.3H205.1z"/>
	<path class="st0" d="M215,228.2c0-2.9-0.1-5.4-0.2-7.7h3.9l0.2,4.9h0.2c1.1-3.3,3.8-5.4,6.8-5.4c0.5,0,0.9,0.1,1.2,0.2v4.2
		c-0.4-0.1-0.9-0.2-1.5-0.2c-3.2,0-5.4,2.4-6,5.7c-0.1,0.6-0.2,1.3-0.2,2.1v13.1H215L215,228.2L215,228.2z"/>
	<path class="st0" d="M240.9,239.7c1.9,1.2,4.9,2.2,8,2.2c4.5,0,7.2-2.4,7.2-5.8c0-3.2-1.9-5-6.5-6.8c-5.6-1.9-9-4.9-9-9.7
		c0-5.3,4.4-9.3,11.1-9.3c3.5,0,6,0.8,7.6,1.7l-1.2,3.6c-1.1-0.6-3.4-1.6-6.5-1.6c-4.7,0-6.5,2.8-6.5,5.1c0,3.2,2.1,4.8,6.8,6.6
		c5.7,2.2,8.8,5,8.8,10.1c0,5.3-3.9,9.8-12,9.8c-3.3,0-6.9-1-8.8-2.2L240.9,239.7z"/>
	<path class="st0" d="M284.1,244.2c-1.1,0.6-3.8,1.4-7.1,1.4c-7.4,0-12.2-5-12.2-12.6c0-7.6,5.2-13.1,13.2-13.1c2.7,0,5,0.6,6.2,1.2
		l-1,3.4c-1.1-0.6-2.7-1.1-5.2-1.1c-5.7,0-8.7,4.2-8.7,9.3c0,5.7,3.6,9.2,8.6,9.2c2.6,0,4.2-0.6,5.5-1.2L284.1,244.2z"/>
	<path class="st0" d="M294,213.6c0.1,1.5-1.1,2.7-2.8,2.7c-1.6,0-2.7-1.2-2.7-2.7c0-1.6,1.1-2.8,2.8-2.8
		C293,210.8,294,212,294,213.6z M289.1,245.1v-24.6h4.5v24.6H289.1z"/>
	<path class="st0" d="M303.4,233.6c0.1,6,4,8.6,8.4,8.6c3.2,0,5.1-0.5,6.8-1.2l0.8,3.2c-1.6,0.7-4.2,1.5-8.1,1.5
		c-7.6,0-12.1-5-12.1-12.4s4.3-13.3,11.5-13.3c8,0,10.2,7.1,10.2,11.6c0,0.9-0.1,1.6-0.2,2.1L303.4,233.6L303.4,233.6z M316.6,230.4
		c0.1-2.8-1.1-7.3-6.2-7.3c-4.5,0-6.5,4.2-6.9,7.3H316.6z"/>
	<path class="st0" d="M326.5,227.2c0-2.6-0.1-4.6-0.2-6.6h4l0.3,4.1h0.1c1.2-2.3,4.1-4.6,8.1-4.6c3.4,0,8.7,2,8.7,10.4v14.7h-4.5
		V231c0-4-1.5-7.3-5.7-7.3c-2.9,0-5.2,2.1-6,4.6c-0.2,0.5-0.3,1.3-0.3,2.1v14.8h-4.5V227.2z"/>
	<path class="st0" d="M372.2,244.2c-1.1,0.6-3.8,1.4-7.1,1.4c-7.4,0-12.2-5-12.2-12.6c0-7.6,5.2-13.1,13.2-13.1c2.7,0,5,0.6,6.2,1.2
		l-1,3.4c-1.1-0.6-2.7-1.1-5.2-1.1c-5.7,0-8.7,4.2-8.7,9.3c0,5.7,3.6,9.2,8.6,9.2c2.6,0,4.2-0.6,5.5-1.2L372.2,244.2z"/>
	<path class="st0" d="M379.3,233.6c0.1,6,4,8.6,8.4,8.6c3.2,0,5.1-0.5,6.8-1.2l0.8,3.2c-1.6,0.7-4.2,1.5-8.2,1.5
		c-7.6,0-12.1-5-12.1-12.4s4.3-13.3,11.5-13.3c8,0,10.2,7.1,10.2,11.6c0,0.9-0.1,1.6-0.2,2.1L379.3,233.6L379.3,233.6z M392.4,230.4
		c0.1-2.8-1.1-7.3-6.2-7.3c-4.5,0-6.5,4.2-6.9,7.3H392.4z"/>
	<path class="st0" d="M426.7,245.1l-0.4-3.1h-0.2c-1.4,1.9-4,3.6-7.5,3.6c-5,0-7.5-3.5-7.5-7.1c0-5.9,5.3-9.2,14.8-9.1v-0.5
		c0-2-0.5-5.7-5.6-5.7c-2.3,0-4.7,0.7-6.4,1.9l-1-2.9c2-1.3,5-2.2,8-2.2c7.5,0,9.4,5.1,9.4,10.1v9.2c0,2.1,0.1,4.2,0.4,5.9
		L426.7,245.1L426.7,245.1z M426,232.6c-4.9-0.1-10.4,0.8-10.4,5.6c0,2.9,1.9,4.2,4.2,4.2c3.2,0,5.2-2,5.9-4.2
		c0.2-0.4,0.3-1,0.3-1.4V232.6z"/>
	<path class="st0" d="M437.4,227.2c0-2.6-0.1-4.6-0.2-6.6h4l0.3,4.1h0.1c1.2-2.3,4.1-4.6,8.1-4.6c3.4,0,8.7,2,8.7,10.4v14.7h-4.5
		V231c0-4-1.5-7.3-5.7-7.3c-2.9,0-5.2,2.1-6,4.6c-0.2,0.5-0.3,1.3-0.3,2.1v14.8h-4.5V227.2z"/>
	<path class="st0" d="M486.9,209v29.7c0,2.2,0.1,4.7,0.2,6.4h-4l-0.2-4.2h-0.1c-1.3,2.7-4.3,4.9-8.4,4.9c-5.9,0-10.5-5-10.5-12.5
		c-0.1-8.2,5-13.2,11.1-13.2c3.8,0,6.3,1.8,7.4,3.7h0.1v-14.7L486.9,209L486.9,209z M482.4,230.5c0-0.5-0.1-1.3-0.2-1.9
		c-0.6-2.8-3.1-5.2-6.5-5.2c-4.6,0-7.3,4.1-7.3,9.5c0,5,2.5,9.1,7.3,9.1c3,0,5.7-1.9,6.5-5.3c0.2-0.6,0.2-1.2,0.2-1.9L482.4,230.5
		L482.4,230.5z"/>
	<path class="st0" d="M521,229.1h-13.4v12.4h14.9v3.7h-19.3v-34.3h18.5v3.7h-14.1v10.8H521V229.1z"/>
	<path class="st0" d="M527.6,227.2c0-2.6-0.1-4.6-0.2-6.6h4l0.3,4.1h0.1c1.2-2.3,4.1-4.6,8.1-4.6c3.4,0,8.7,2,8.7,10.4v14.7h-4.5
		V231c0-4-1.5-7.3-5.7-7.3c-2.9,0-5.2,2.1-6,4.6c-0.2,0.5-0.3,1.3-0.3,2.1v14.8h-4.5V227.2z"/>
	<path class="st0" d="M577.1,220.5c-0.1,1.8-0.2,3.8-0.2,6.7v14.2c0,5.7-1.1,9.1-3.5,11.2c-2.4,2.2-5.8,2.9-8.9,2.9
		c-2.9,0-6.2-0.7-8.1-2l1.1-3.4c1.6,1,4.2,1.9,7.3,1.9c4.6,0,8-2.4,8-8.6V241h-0.1c-1.4,2.3-4,4.2-7.8,4.2c-6.1,0-10.4-5.2-10.4-12
		c0-8.3,5.4-13.1,11.1-13.1c4.2,0,6.6,2.2,7.7,4.2h0.1l0.2-3.7L577.1,220.5L577.1,220.5z M572.5,230.3c0-0.8-0.1-1.4-0.3-2
		c-0.8-2.6-3-4.7-6.3-4.7c-4.2,0-7.3,3.6-7.3,9.3c0,4.9,2.5,8.8,7.3,8.8c2.7,0,5.2-1.8,6.2-4.6c0.3-0.8,0.4-1.6,0.4-2.4L572.5,230.3
		L572.5,230.3z"/>
	<path class="st0" d="M589.1,213.6c0.1,1.5-1.1,2.7-2.8,2.7c-1.6,0-2.7-1.2-2.7-2.7c0-1.6,1.1-2.8,2.8-2.8
		C588,210.8,589.1,212,589.1,213.6z M584.1,245.1v-24.6h4.5v24.6H584.1z"/>
	<path class="st0" d="M595.8,227.2c0-2.6-0.1-4.6-0.2-6.6h4l0.3,4.1h0.1c1.2-2.3,4.1-4.6,8.1-4.6c3.4,0,8.7,2,8.7,10.4v14.7h-4.5
		V231c0-4-1.5-7.3-5.7-7.3c-2.9,0-5.2,2.1-6,4.6c-0.2,0.5-0.3,1.3-0.3,2.1v14.8h-4.5V227.2z"/>
	<path class="st0" d="M626.6,233.6c0.1,6,4,8.6,8.4,8.6c3.2,0,5.1-0.5,6.8-1.2l0.8,3.2c-1.6,0.7-4.2,1.5-8.1,1.5
		c-7.6,0-12.1-5-12.1-12.4s4.3-13.3,11.5-13.3c8,0,10.2,7.1,10.2,11.6c0,0.9-0.1,1.6-0.2,2.1L626.6,233.6L626.6,233.6z M639.8,230.4
		c0.1-2.8-1.1-7.3-6.2-7.3c-4.5,0-6.5,4.2-6.9,7.3H639.8z"/>
	<path class="st0" d="M652.5,233.6c0.1,6,4,8.6,8.4,8.6c3.2,0,5.1-0.5,6.8-1.2l0.8,3.2c-1.6,0.7-4.2,1.5-8.2,1.5
		c-7.6,0-12.1-5-12.1-12.4s4.3-13.3,11.5-13.3c8,0,10.2,7.1,10.2,11.6c0,0.9-0.1,1.6-0.2,2.1L652.5,233.6L652.5,233.6z M665.6,230.4
		c0.1-2.8-1.1-7.3-6.2-7.3c-4.5,0-6.5,4.2-6.9,7.3H665.6z"/>
	<path class="st0" d="M675.5,228.2c0-2.9-0.1-5.4-0.2-7.7h3.9l0.2,4.9h0.2c1.1-3.3,3.8-5.4,6.8-5.4c0.5,0,0.9,0.1,1.2,0.2v4.2
		c-0.4-0.1-0.9-0.2-1.5-0.2c-3.2,0-5.4,2.4-6,5.7c-0.1,0.6-0.2,1.3-0.2,2.1v13.1h-4.4L675.5,228.2L675.5,228.2z"/>
	<path class="st0" d="M697.2,213.6c0.1,1.5-1.1,2.7-2.8,2.7c-1.6,0-2.7-1.2-2.7-2.7c0-1.6,1.1-2.8,2.8-2.8
		C696,210.8,697.2,212,697.2,213.6z M692.1,245.1v-24.6h4.5v24.6H692.1z"/>
	<path class="st0" d="M703.8,227.2c0-2.6-0.1-4.6-0.2-6.6h4l0.3,4.1h0.1c1.2-2.3,4.1-4.6,8.1-4.6c3.4,0,8.7,2,8.7,10.4v14.7h-4.5
		V231c0-4-1.5-7.3-5.7-7.3c-2.9,0-5.2,2.1-6,4.6c-0.2,0.5-0.3,1.3-0.3,2.1v14.8h-4.5V227.2z"/>
	<path class="st0" d="M753.2,220.5c-0.1,1.8-0.2,3.8-0.2,6.7v14.2c0,5.7-1.1,9.1-3.5,11.2c-2.4,2.2-5.8,2.9-8.9,2.9
		c-2.9,0-6.2-0.7-8.1-2l1.1-3.4c1.6,1,4.2,1.9,7.3,1.9c4.6,0,8-2.4,8-8.6V241h-0.1c-1.3,2.3-4,4.2-7.8,4.2c-6.1,0-10.4-5.2-10.4-12
		c0-8.3,5.4-13.1,11.1-13.1c4.2,0,6.6,2.2,7.7,4.2h0.1l0.2-3.7L753.2,220.5L753.2,220.5z M748.6,230.3c0-0.8-0.1-1.4-0.3-2
		c-0.8-2.6-3-4.7-6.3-4.7c-4.2,0-7.3,3.6-7.3,9.3c0,4.9,2.5,8.8,7.3,8.8c2.7,0,5.2-1.8,6.2-4.6c0.3-0.8,0.4-1.6,0.4-2.4L748.6,230.3
		L748.6,230.3z"/>
</g>
</svg>
