<?xml version="1.0" encoding="utf-8"?>
<!-- Generator: Adobe Illustrator 22.1.0, SVG Export Plug-In . SVG Version: 6.00 Build 0)  -->
<svg version="1.1" id="Layer_1" xmlns="http://www.w3.org/2000/svg" xmlns:xlink="http://www.w3.org/1999/xlink" x="0px" y="0px"
	 viewBox="0 0 819 266.2" style="enable-background:new 0 0 819 266.2;" xml:space="preserve">
<style type="text/css">
	.st0{fill:#12284C;}
	.st1{fill:#C89211;}
</style>
<g>
	<g>
		<path class="st0" d="M79.1,68.8c0,19-2.8,33.5-31.7,33.5c-28.8,0-33.2-13.9-33.2-33.5V22.5C14.1,12,9.6,11,2,11V8.2h36.5V11
			c-7.5,0-12.1,1-12.1,11.4v46.3c0,14.2,3.3,28.1,21.4,28.1c20,0,23.2-11.6,23.2-28.1V22.5C71.1,12,66.6,11,59,11V8.2h32.2V11
			c-7.6,0-12.1,1-12.1,11.4L79.1,68.8L79.1,68.8z"/>
		<path class="st0" d="M156,98.5c-6.8,2.5-14.6,3.7-24.9,3.7c-27.8,0-41.2-21.2-41.2-50.8c0-25.7,8.4-44.6,38.1-44.6
			c11.2,0,20.6,2.2,26.7,3.9l1.2,21.8h-3.5c-1.8-7.8-7.4-20.3-24.6-20.3c-22.4,0-24.2,23.8-24.2,38.1c0,17.9,3.9,45.6,34.4,45.6
			c9.3,0,14.3-2.1,17.9-3.5V98.5z"/>
		<path class="st0" d="M230.7,28.3c-1.2-7.4-6.9-16-21.7-16c-9.3,0-17.5,6-17.5,15.1c0,12.4,16.5,16.5,28.7,23.5
			c11,6.4,18.4,12.1,18.4,25.3c0,17.7-15.3,26-34.3,26c-9.4,0-20.4-2.1-23.9-2.6L179.2,80h3.5c1.1,7.4,7.6,16,22.5,16
			c12.2,0,20.2-7.9,20.2-17.5c0-15-23.1-19.6-36-29.5c-6.1-4.7-9-9.8-9-18.6c0-16.7,13.8-23.5,31.3-23.5c9.3,0,15.3,1.1,21.6,2.4
			l1,19L230.7,28.3L230.7,28.3z"/>
		<path class="st0" d="M295.3,101c-1.5,0.4-4.5,1.1-9,1.1c-7.2,0-9.3-3.7-9.3-9h-0.2c-3.8,5.5-9.2,9-17.5,9c-8.5,0-14.8-6-14.8-14
			c0-17.9,23.2-17.9,32.7-18.9v-4.7c0-8.7-0.2-17.8-10.5-17.8c-7.7,0-8.7,3.2-8.7,7.2c0,5-3.7,6.4-5.8,6.4c-3.3,0-6-2.2-6-5.5
			c0-8,12-12.2,20.5-12.2c16.9,0,20,8.2,20,19.7v30.7c0,4.3,1.5,5.8,5.3,5.8c1.1,0,2.2-0.2,3.3-0.5L295.3,101L295.3,101z M277,73.4
			c-5.8,0.2-21.7,1.2-21.7,12.7c0,6.4,4.2,10.7,8.4,10.7c8,0,13.2-7.8,13.2-16.2V73.4z"/>
		<path class="st0" d="M298,98.8c5.2,0,9.4-1.1,9.4-9.2V55.9c0-7.4-5.8-7.8-9.4-8v-2.1l19-3v16.3h0.2c1.7-4.5,7.3-16.3,19.5-16.3
			c13.1,0,14.4,7.2,14.4,18.7v28.2c0,8,4.2,9.2,9.4,9.2v2.1h-28.4v-2.1c5.2,0,9.4-1.1,9.4-9.2V64.1c0-10.7-0.1-15.5-8.3-15.5
			c-7.3,0-16.2,14-16.2,25.7v15.2c0,8,4.2,9.2,9.4,9.2v2.1H298V98.8z"/>
		<path class="st0" d="M374.8,98.1c7.5,0,12.1-1,12.1-11.4V22.5c0-10.4-4.6-11.4-12.1-11.4V8.2h32.6c23.1,0,47.5,5,47.5,46.5
			c0,41.3-25.7,46.2-47.5,46.2h-32.6V98.1z M399.3,83.8c0,10.2,1.2,11.7,8.1,11.7c23.9,0,33.8-12.8,33.8-40.8c0-25.6-7.4-41-33.8-41
			c-6.9,0-8.1,0.8-8.1,11.7L399.3,83.8L399.3,83.8z"/>
		<path class="st0" d="M460,98.8c5.2,0,9.4-1.1,9.4-9.2V55.9c0-7.4-5.7-7.8-9.4-8v-2.1l19.1-3v46.9c0,8,4.2,9.2,9.4,9.2v2.1H460
			L460,98.8L460,98.8z M466.7,24.3c0-4,3.1-7,7-7c4,0,7,3.1,7,7s-3.1,7-7,7C469.8,31.4,466.7,28.2,466.7,24.3z"/>
		<path class="st0" d="M533.2,99.9c-3,1.2-7.2,2.2-14.7,2.2c-19.2,0-29.9-10.5-29.9-31.3c0-18.1,7.3-28.1,25.1-28.1
			c11.2,0,21.2,6.2,21.2,20.5v2.7h-36c0,10.4,5,31.6,25.7,31.6c2.8,0,6.2-0.4,8.7-1.6L533.2,99.9L533.2,99.9z M523.8,61.9
			c0-6.5-2.2-15.1-11.7-15.1c-9.4,0-13.2,10.5-13.2,15.1H523.8z"/>
		<path class="st0" d="M575,91c6,0,19.7,0.2,19.7,14c0,14.1-13.9,22-30.3,22c-12.2,0-24.7-4.5-24.7-15.7c0-7.7,5.7-11,9.7-13
			c-2.1-1.2-5.3-3.6-5.3-8.8c0-4.5,4-9.3,5.3-10.7c-2.9-2.3-7.2-6-7.2-16.5c0-16,11.7-19.4,23.4-19.4c5.7,0,8.8,1,12.7,3.1
			c2-4.7,5-13.2,12.5-13.2c3.5,0,6,2.2,6,6c0,3.4-2.1,5.5-5.8,5.5c-3.2,0-4-1.7-5.5-1.7c-2.7,0-3.8,3.6-4.5,5.5
			c1.5,1.6,5.5,6.2,5.5,14.9c0,12.5-7.8,19.5-22.7,19.5c-5,0-8.5-0.7-11.2-1.8c-0.7,1-2.2,2.8-2.2,5.5c0,5,6.2,5,10.2,5
			C560.4,91,575,91,575,91z M553.6,99.8c-2.5,1.8-6,4-6,9.5c0,7.3,6.5,13.6,17.3,13.6c11.2,0,21.7-5.8,21.7-14.7
			c0-6.3-5.2-8.4-11.4-8.4C575.1,99.8,553.6,99.8,553.6,99.8z M564.4,78.3c10.4,0,11.7-8.2,11.7-14.7c0-9.3-3.2-16.7-12.2-16.7
			c-9.8,0-11.7,7.2-11.7,14.4C552.3,70.6,555.5,78.3,564.4,78.3z"/>
		<path class="st0" d="M594.8,72.5c0-18.6,10-29.7,25.9-29.7c15.9,0,25.9,11.2,25.9,29.7s-10,29.7-25.9,29.7
			C604.8,102.2,594.8,91,594.8,72.5z M620.6,98c12.4,0,14.9-15.3,14.9-25.6c0-10.3-2.5-25.6-14.9-25.6c-12.4,0-14.8,15.4-14.8,25.6
			C605.8,82.7,608.3,98,620.6,98z"/>
		<g id="line_8_">
			<path class="st1" d="M533.3,122.3H2v3.1h534.3C535.2,124.4,534.1,123.3,533.3,122.3z"/>
			<path class="st1" d="M645.5,122.3h-48.9c-1.1,1.2-2.3,2.1-3.7,3.1h52.6V122.3z"/>
		</g>
	</g>
	<g>
		<g>
			<path class="st0" d="M23.5,158.6h7.9v22.2c0,10-4.8,13.5-12.5,13.5c-1.8,0-4.2-0.3-5.8-0.8l0.9-6.4c1.1,0.3,2.5,0.7,4.1,0.7
				c3.3,0,5.5-1.5,5.5-7L23.5,158.6L23.5,158.6z"/>
			<path class="st0" d="M45.4,184.8l-2.5,9h-8.3l10.7-35.1h10.4l10.9,35.1h-8.6l-2.7-9H45.4z M54.3,178.8l-2.1-7.4
				c-0.7-2.1-1.2-4.7-1.7-6.8h-0.1c-0.5,2.1-1.1,4.7-1.7,6.8l-2.1,7.4H54.3z"/>
			<path class="st0" d="M95.8,192.9c-1.5,0.7-4.7,1.5-9,1.5c-12.2,0-18.4-7.5-18.4-17.6c0-12,8.5-18.7,19.2-18.7
				c4.1,0,7.3,0.8,8.7,1.6l-1.7,6.3c-1.7-0.7-3.9-1.3-6.7-1.3c-6.3,0-11.2,3.8-11.2,11.7c0,7,4.1,11.5,11.2,11.5
				c2.4,0,5-0.5,6.6-1.2L95.8,192.9z"/>
			<path class="st0" d="M132.5,175.8c0,11.5-7,18.5-17.3,18.5c-10.4,0-16.5-7.9-16.5-17.9c0-10.5,6.7-18.4,17.1-18.4
				C126.5,158.1,132.5,166.2,132.5,175.8z M107,176.3c0,6.9,3.2,11.7,8.5,11.7c5.4,0,8.4-5.1,8.4-11.9c0-6.3-3.1-11.7-8.5-11.7
				C110.1,164.4,107,169.5,107,176.3z"/>
			<path class="st0" d="M138.2,159.1c2.1-0.4,6.3-0.7,10.3-0.7c4.9,0,7.9,0.5,10.4,2c2.5,1.3,4.2,3.7,4.2,6.9s-1.8,6-5.8,7.5v0.1
				c4.1,1.1,7,4.1,7,8.7c0,3.1-1.5,5.7-3.6,7.4c-2.6,2.1-6.9,3.1-13.8,3.1c-3.9,0-6.9-0.2-8.6-0.5L138.2,159.1L138.2,159.1z
				 M146,172.6h2.6c4.1,0,6.4-1.7,6.4-4.3c0-2.6-2.1-4.1-5.6-4.1c-1.7,0-2.7,0.1-3.4,0.2L146,172.6L146,172.6z M146,188.1
				c0.7,0.1,1.7,0.1,3.1,0.1c3.6,0,6.8-1.3,6.8-5c0-3.6-3.1-5-7.1-5H146L146,188.1L146,188.1z"/>
			<path class="st0" d="M169.8,185.6c2.1,1.1,5.5,2.2,8.8,2.2c3.6,0,5.6-1.5,5.6-3.8c0-2.1-1.7-3.5-5.9-5c-5.9-2.1-9.7-5.3-9.7-10.4
				c0-6,5-10.6,13.3-10.6c4,0,6.9,0.8,9,1.7l-1.7,6.4c-1.4-0.7-3.9-1.7-7.4-1.7s-5.1,1.6-5.1,3.4c0,2.2,2,3.2,6.5,5
				c6.2,2.3,9.1,5.5,9.1,10.5c0,5.9-4.5,10.9-14.2,10.9c-4.1,0-8-1.1-9.9-2.1L169.8,185.6z"/>
			<path class="st0" d="M209.5,185.6c2.1,1.1,5.5,2.2,8.8,2.2c3.6,0,5.6-1.5,5.6-3.8c0-2.1-1.7-3.5-5.9-5c-5.9-2.1-9.7-5.3-9.7-10.4
				c0-6,5-10.6,13.3-10.6c4,0,6.9,0.8,9,1.7l-1.7,6.4c-1.4-0.7-3.9-1.7-7.4-1.7c-3.5,0-5.1,1.6-5.1,3.4c0,2.2,2,3.2,6.5,5
				c6.2,2.3,9.1,5.5,9.1,10.5c0,5.9-4.5,10.9-14.2,10.9c-4.1,0-8-1.1-9.9-2.1L209.5,185.6z"/>
			<path class="st0" d="M263.4,192.9c-1.5,0.7-4.7,1.5-9,1.5c-12.2,0-18.4-7.5-18.4-17.6c0-12,8.5-18.7,19.2-18.7
				c4.1,0,7.3,0.8,8.7,1.6l-1.7,6.3c-1.7-0.7-3.9-1.3-6.7-1.3c-6.3,0-11.2,3.8-11.2,11.7c0,7,4.1,11.5,11.2,11.5
				c2.4,0,5-0.5,6.6-1.2L263.4,192.9z"/>
			<path class="st0" d="M276.6,158.6v13.5h13.1v-13.5h7.9v35.1h-7.9v-14.7h-13.1v14.7h-8v-35.1H276.6z"/>
			<path class="st0" d="M337.2,175.8c0,11.5-7,18.5-17.3,18.5c-10.4,0-16.5-7.9-16.5-17.9c0-10.5,6.7-18.4,17.1-18.4
				C331.2,158.1,337.2,166.2,337.2,175.8z M311.7,176.3c0,6.9,3.2,11.7,8.5,11.7c5.4,0,8.4-5.1,8.4-11.9c0-6.3-3.1-11.7-8.5-11.7
				C314.9,164.4,311.7,169.5,311.7,176.3z"/>
			<path class="st0" d="M375,175.8c0,11.5-7,18.5-17.3,18.5c-10.4,0-16.5-7.9-16.5-17.9c0-10.5,6.7-18.4,17.1-18.4
				C369,158.1,375,166.2,375,175.8z M349.6,176.3c0,6.9,3.2,11.7,8.5,11.7c5.4,0,8.4-5.1,8.4-11.9c0-6.3-3.1-11.7-8.5-11.7
				C352.6,164.4,349.6,169.5,349.6,176.3z"/>
			<path class="st0" d="M380.7,158.6h8v28.4h14v6.7h-22V158.6z"/>
			<path class="st0" d="M449.1,175.8c0,11.5-7,18.5-17.3,18.5c-10.4,0-16.5-7.9-16.5-17.9c0-10.5,6.7-18.4,17.1-18.4
				C443.1,158.1,449.1,166.2,449.1,175.8z M423.6,176.3c0,6.9,3.2,11.7,8.5,11.7c5.4,0,8.4-5.1,8.4-11.9c0-6.3-3.1-11.7-8.5-11.7
				C426.7,164.4,423.6,169.5,423.6,176.3z"/>
			<path class="st0" d="M454.8,158.6h21.5v6.5h-13.5v8h12.7v6.4h-12.7v14.1h-8V158.6z"/>
			<path class="st0" d="M514.7,179h-12.9v8.4h14.5v6.5h-22.4v-35.1h21.7v6.5h-13.7v7.3h12.9L514.7,179L514.7,179z"/>
			<path class="st0" d="M522.4,193.8v-35.1h9.3l7.3,12.9c2.1,3.7,4.1,8.1,5.7,12.1h0.2c-0.5-4.6-0.7-9.4-0.7-14.6v-10.3h7.3v35.1
				h-8.4l-7.5-13.6c-2.1-3.7-4.4-8.3-6.1-12.4l-0.2,0.1c0.2,4.6,0.3,9.6,0.3,15.4v10.6h-7.2V193.8z"/>
			<path class="st0" d="M588,192.2c-2.5,0.8-7.1,2-11.7,2c-6.4,0-11.1-1.7-14.3-4.7c-3.2-3.1-5-7.6-5-12.8
				c0.1-11.7,8.5-18.4,20.1-18.4c4.5,0,8,0.9,9.8,1.7l-1.7,6.4c-1.9-0.8-4.3-1.5-8.2-1.5c-6.6,0-11.7,3.7-11.7,11.4
				c0,7.3,4.5,11.5,11.1,11.5c1.8,0,3.3-0.2,3.9-0.5V180H575v-6.2H588V192.2z"/>
			<path class="st0" d="M602.9,158.6v35.1h-8v-35.1H602.9z"/>
			<path class="st0" d="M610.3,193.8v-35.1h9.3l7.3,12.9c2.1,3.7,4.1,8.1,5.7,12.1h0.2c-0.5-4.6-0.7-9.4-0.7-14.6v-10.3h7.3v35.1
				h-8.4l-7.5-13.6c-2.1-3.7-4.4-8.3-6.1-12.4l-0.2,0.1c0.2,4.6,0.3,9.6,0.3,15.4v10.6h-7.2V193.8z"/>
			<path class="st0" d="M667.7,179h-12.9v8.4h14.5v6.5h-22.4v-35.1h21.7v6.5h-13.7v7.3h12.9L667.7,179L667.7,179z"/>
			<path class="st0" d="M696.3,179h-13v8.4h14.5v6.5h-22.4v-35.1H697v6.5h-13.7v7.3h12.9L696.3,179L696.3,179z"/>
			<path class="st0" d="M703.9,159.1c2.6-0.4,6.4-0.7,10.6-0.7c5.2,0,8.8,0.7,11.4,2.7c2.1,1.7,3.2,4.1,3.2,7.4
				c0,4.5-3.1,7.5-6.2,8.7v0.2c2.5,1,3.8,3.3,4.7,6.5c1.1,4,2.1,8.5,2.9,9.9h-8.1c-0.6-1-1.4-3.9-2.5-8.2c-0.9-4.4-2.5-5.5-5.7-5.6
				h-2.4v13.8H704L703.9,159.1L703.9,159.1z M711.8,174.3h3.1c4,0,6.3-2,6.3-5c0-3.2-2.1-4.9-5.9-4.9c-1.9,0-3.1,0.2-3.6,0.2
				L711.8,174.3L711.8,174.3z"/>
			<path class="st0" d="M743.4,158.6v35.1h-8v-35.1H743.4z"/>
			<path class="st0" d="M750.8,193.8v-35.1h9.3l7.3,12.9c2.1,3.7,4.1,8.1,5.7,12.1h0.2c-0.5-4.6-0.7-9.4-0.7-14.6v-10.3h7.3v35.1
				h-8.4l-7.5-13.6c-2.1-3.7-4.4-8.3-6.1-12.4l-0.2,0.1c0.2,4.6,0.3,9.6,0.3,15.4v10.6h-7.2V193.8z"/>
			<path class="st0" d="M816.4,192.2c-2.5,0.8-7.1,2-11.7,2c-6.4,0-11.1-1.7-14.3-4.7c-3.2-3.1-5-7.6-5-12.8
				c0.1-11.7,8.5-18.4,20.1-18.4c4.5,0,8,0.9,9.8,1.7l-1.7,6.4c-1.9-0.8-4.3-1.5-8.2-1.5c-6.6,0-11.7,3.7-11.7,11.4
				c0,7.3,4.5,11.5,11.1,11.5c1.8,0,3.3-0.2,3.9-0.5V180h-5.5v-6.2h13.1V192.2z"/>
			<path class="st0" d="M35.3,233.2H21.6v12.7h15.2v3.8H17.1v-35.1h19v3.8H21.6v11.1h13.6L35.3,233.2L35.3,233.2z"/>
			<path class="st0" d="M42.3,212.7h4.6v37h-4.6V212.7z"/>
			<path class="st0" d="M57.2,237.9c0.1,6.2,4.1,8.8,8.7,8.8c3.3,0,5.3-0.6,7-1.3l0.7,3.3c-1.7,0.7-4.4,1.6-8.4,1.6
				c-7.8,0-12.4-5.1-12.4-12.7c0-7.6,4.5-13.6,11.8-13.6c8.3,0,10.4,7.3,10.4,11.9c0,0.9-0.1,1.7-0.2,2.1H57.2z M70.7,234.6
				c0.1-2.9-1.2-7.4-6.4-7.4c-4.6,0-6.7,4.3-7,7.4H70.7z"/>
			<path class="st0" d="M99.2,248.8c-1.2,0.7-3.9,1.5-7.3,1.5c-7.6,0-12.6-5.1-12.6-12.9c0-7.8,5.3-13.4,13.6-13.4
				c2.7,0,5.1,0.7,6.4,1.3l-1.1,3.6c-1.1-0.7-2.8-1.2-5.3-1.2c-5.8,0-8.9,4.3-8.9,9.5c0,5.9,3.7,9.4,8.8,9.4c2.6,0,4.3-0.7,5.6-1.2
				L99.2,248.8z"/>
			<path class="st0" d="M111.3,217.3v7.3h6.5v3.5h-6.5v13.6c0,3.1,0.9,4.9,3.5,4.9c1.2,0,2.1-0.2,2.6-0.3l0.2,3.5
				c-0.9,0.3-2.3,0.7-4.1,0.7c-2.1,0-3.9-0.7-5-1.9c-1.3-1.3-1.7-3.6-1.7-6.6V228h-4.1v-3.5h3.9v-6L111.3,217.3z"/>
			<path class="st0" d="M122.9,232.3c0-3-0.1-5.5-0.2-7.9h4.1l0.2,5h0.2c1.2-3.4,3.9-5.5,7-5.5c0.5,0,0.9,0.1,1.3,0.2v4.3
				c-0.5-0.1-0.9-0.2-1.6-0.2c-3.2,0-5.5,2.5-6.1,5.9c-0.1,0.7-0.2,1.3-0.2,2.1v13.5H123L122.9,232.3L122.9,232.3z"/>
			<path class="st0" d="M145,217.3c0.1,1.6-1.1,2.8-2.9,2.8c-1.7,0-2.7-1.2-2.7-2.8c0-1.7,1.2-2.9,2.9-2.9
				C144,214.5,145,215.8,145,217.3z M139.9,249.7v-25.2h4.6v25.2H139.9z"/>
			<path class="st0" d="M170.1,248.8c-1.2,0.7-3.9,1.5-7.3,1.5c-7.6,0-12.6-5.1-12.6-12.9c0-7.8,5.3-13.4,13.6-13.4
				c2.7,0,5.1,0.7,6.4,1.3l-1.1,3.6c-1.1-0.7-2.8-1.2-5.3-1.2c-5.8,0-8.9,4.3-8.9,9.5c0,5.9,3.7,9.4,8.8,9.4c2.6,0,4.3-0.7,5.6-1.2
				L170.1,248.8z"/>
			<path class="st0" d="M189.6,249.7l-0.3-3.1h-0.2c-1.4,2-4.1,3.7-7.7,3.7c-5.1,0-7.7-3.6-7.7-7.3c0-6.1,5.5-9.4,15.2-9.4v-0.5
				c0-2.1-0.6-5.9-5.7-5.9c-2.3,0-4.8,0.7-6.5,1.9l-1.1-3.1c2.1-1.3,5.1-2.2,8.3-2.2c7.7,0,9.6,5.3,9.6,10.3v9.4
				c0,2.1,0.1,4.3,0.4,6L189.6,249.7L189.6,249.7z M188.9,236.8c-5-0.1-10.7,0.7-10.7,5.7c0,3,2,4.4,4.3,4.4c3.3,0,5.4-2.1,6.1-4.2
				c0.2-0.5,0.2-1,0.2-1.5V236.8z"/>
			<path class="st0" d="M200.7,212.7h4.6v37h-4.6V212.7z"/>
			<path class="st0" d="M237,249.7l-0.3-3.1h-0.2c-1.4,2-4.1,3.7-7.7,3.7c-5.1,0-7.7-3.6-7.7-7.3c0-6.1,5.5-9.4,15.2-9.4v-0.5
				c0-2.1-0.6-5.9-5.7-5.9c-2.3,0-4.8,0.7-6.5,1.9l-1.1-3.1c2.1-1.3,5.1-2.2,8.3-2.2c7.7,0,9.6,5.3,9.6,10.3v9.4
				c0,2.1,0.1,4.3,0.4,6L237,249.7L237,249.7z M236.3,236.8c-5-0.1-10.7,0.7-10.7,5.7c0,3,2,4.4,4.3,4.4c3.3,0,5.4-2.1,6.1-4.2
				c0.2-0.5,0.2-1,0.2-1.5V236.8z"/>
			<path class="st0" d="M248,231.3c0-2.6-0.1-4.7-0.2-6.9h4.1l0.2,4.1h0.1c1.2-2.4,4.1-4.7,8.4-4.7c3.5,0,8.9,2.1,8.9,10.7v15h-4.6
				v-14.6c0-4.1-1.5-7.4-5.9-7.4c-3.1,0-5.4,2.1-6.1,4.7c-0.2,0.6-0.3,1.3-0.3,2.1v15.2h-4.6v-18.4H248z"/>
			<path class="st0" d="M298.8,212.7v30.5c0,2.2,0.1,4.8,0.2,6.5h-4.1l-0.2-4.4h-0.1c-1.4,2.8-4.5,5-8.6,5
				c-6.1,0-10.8-5.1-10.8-12.8c-0.1-8.4,5.1-13.6,11.3-13.6c3.9,0,6.4,1.8,7.6,3.9h0.1v-15L298.8,212.7L298.8,212.7z M294.2,234.8
				c0-0.6-0.1-1.3-0.2-1.9c-0.7-2.9-3.1-5.3-6.6-5.3c-4.7,0-7.5,4.1-7.5,9.8c0,5.1,2.5,9.3,7.4,9.3c3.1,0,5.9-2.1,6.7-5.5
				c0.2-0.7,0.2-1.2,0.2-2V234.8z"/>
			<path class="st0" d="M342.2,248.6c-1.7,0.8-5,1.7-9.3,1.7c-9.9,0-17.4-6.3-17.4-17.8c0-11,7.4-18.4,18.4-18.4
				c4.4,0,7.1,0.9,8.4,1.6l-1.1,3.7c-1.7-0.8-4.1-1.5-7.1-1.5c-8.3,0-13.7,5.3-13.7,14.5c0,8.6,5,14.1,13.5,14.1
				c2.7,0,5.5-0.6,7.4-1.5L342.2,248.6z"/>
			<path class="st0" d="M369.8,236.8c0,9.3-6.4,13.4-12.6,13.4c-6.9,0-12.1-5-12.1-13c0-8.4,5.5-13.4,12.5-13.4
				C364.9,223.9,369.8,229.2,369.8,236.8z M349.8,237.2c0,5.5,3.1,9.7,7.7,9.7c4.4,0,7.7-4.1,7.7-9.8c0-4.3-2.1-9.7-7.5-9.7
				C352.2,227.3,349.8,232.3,349.8,237.2z"/>
			<path class="st0" d="M375.7,231.3c0-2.6-0.1-4.7-0.2-6.9h4.1l0.2,4.1h0.2c1.4-2.4,3.7-4.6,7.9-4.6c3.5,0,6,2.1,7.1,5h0.1
				c0.7-1.4,1.7-2.5,2.8-3.3c1.5-1.2,3.1-1.7,5.6-1.7c3.3,0,8.3,2.1,8.3,10.9v14.9h-4.5v-14.2c0-4.9-1.7-7.8-5.5-7.8
				c-2.6,0-4.6,1.9-5.5,4.1c-0.2,0.7-0.3,1.5-0.3,2.3v15.6h-4.5v-15.1c0-4.1-1.7-6.9-5.3-6.9c-2.9,0-5,2.3-5.7,4.6
				c-0.2,0.7-0.3,1.5-0.3,2.2v15.2h-4.5V231.3z"/>
			<path class="st0" d="M419,232.7c0-3.2-0.1-5.9-0.2-8.3h4.1l0.2,4.3h0.1c1.9-3.1,4.9-4.9,9-4.9c6.1,0,10.7,5.1,10.7,12.8
				c0,9.1-5.5,13.6-11.5,13.6c-3.3,0-6.3-1.5-7.8-4h-0.1V260H419V232.7z M423.6,239.4c0,0.7,0.1,1.3,0.2,1.9
				c0.8,3.1,3.6,5.4,6.9,5.4c4.9,0,7.7-4,7.7-9.8c0-5-2.6-9.4-7.5-9.4c-3.1,0-6,2.2-6.9,5.7c-0.2,0.6-0.3,1.2-0.3,1.9L423.6,239.4
				L423.6,239.4z"/>
			<path class="st0" d="M470,242.8c0,2.6,0.1,4.9,0.2,6.9h-4.1l-0.2-4.1h-0.1c-1.2,2.1-3.9,4.7-8.4,4.7c-4,0-8.7-2.1-8.7-11.1v-14.8
				h4.6v14c0,4.8,1.5,8,5.6,8c3.1,0,5.2-2.1,6-4.1c0.2-0.7,0.4-1.5,0.4-2.3v-15.5h4.6v18.4H470z"/>
			<path class="st0" d="M483.1,217.3v7.3h6.5v3.5h-6.5v13.6c0,3.1,0.9,4.9,3.5,4.9c1.2,0,2.1-0.2,2.6-0.3l0.2,3.5
				c-0.9,0.3-2.3,0.7-4.1,0.7c-2.1,0-3.9-0.7-5-1.9c-1.3-1.3-1.7-3.6-1.7-6.6V228h-3.9v-3.5h3.9v-6L483.1,217.3z"/>
			<path class="st0" d="M496.9,237.9c0.1,6.2,4.1,8.8,8.7,8.8c3.3,0,5.3-0.6,7-1.3l0.7,3.3c-1.7,0.7-4.4,1.6-8.4,1.6
				c-7.8,0-12.4-5.1-12.4-12.7c0-7.6,4.5-13.6,11.8-13.6c8.3,0,10.4,7.3,10.4,11.9c0,0.9-0.1,1.7-0.2,2.1H496.9z M510.4,234.6
				c0.1-2.9-1.2-7.4-6.4-7.4c-4.6,0-6.7,4.3-7,7.4H510.4z"/>
			<path class="st0" d="M520.5,232.3c0-3-0.1-5.5-0.2-7.9h4.1l0.2,5h0.2c1.2-3.4,3.9-5.5,7-5.5c0.5,0,0.9,0.1,1.3,0.2v4.3
				c-0.5-0.1-0.9-0.2-1.6-0.2c-3.2,0-5.5,2.5-6.1,5.9c-0.1,0.7-0.2,1.3-0.2,2.1v13.5h-4.5L520.5,232.3L520.5,232.3z"/>
			<path class="st0" d="M566,233.2h-13.6v12.7h15.2v3.8h-19.8v-35.1h19v3.8h-14.5v11.1H566V233.2z"/>
			<path class="st0" d="M572.8,231.3c0-2.6-0.1-4.7-0.2-6.9h4.1l0.2,4.1h0.1c1.2-2.4,4.1-4.7,8.4-4.7c3.5,0,8.9,2.1,8.9,10.7v15
				h-4.6v-14.6c0-4.1-1.5-7.4-5.9-7.4c-3.1,0-5.4,2.1-6.1,4.7c-0.2,0.6-0.3,1.3-0.3,2.1v15.2h-4.6v-18.4H572.8z"/>
			<path class="st0" d="M623.6,224.4c-0.1,1.8-0.2,3.9-0.2,6.9V246c0,5.8-1.2,9.3-3.6,11.5c-2.5,2.3-6,3.1-9.2,3.1
				c-3.1,0-6.4-0.7-8.4-2.1l1.2-3.5c1.7,1.1,4.3,2,7.4,2c4.7,0,8.1-2.5,8.1-8.8v-2.8l0,0c-1.4,2.3-4.1,4.2-8,4.2
				c-6.3,0-10.7-5.3-10.7-12.3c0-8.5,5.6-13.4,11.4-13.4c4.4,0,6.8,2.3,7.9,4.4h0.1l0.2-3.8L623.6,224.4L623.6,224.4z M618.8,234.4
				c0-0.7-0.1-1.5-0.2-2.1c-0.8-2.6-3.1-4.9-6.4-4.9c-4.4,0-7.5,3.7-7.5,9.5c0,5,2.5,9.1,7.4,9.1c2.8,0,5.4-1.7,6.4-4.7
				c0.2-0.7,0.3-1.7,0.3-2.5L618.8,234.4L618.8,234.4z"/>
			<path class="st0" d="M635.9,217.3c0.1,1.6-1.1,2.8-2.9,2.8c-1.7,0-2.7-1.2-2.7-2.8c0-1.7,1.2-2.9,2.9-2.9
				C634.8,214.5,635.9,215.8,635.9,217.3z M630.8,249.7v-25.2h4.6v25.2H630.8z"/>
			<path class="st0" d="M642.8,231.3c0-2.6-0.1-4.7-0.2-6.9h4.1l0.2,4.1h0.1c1.2-2.4,4.1-4.7,8.4-4.7c3.5,0,8.9,2.1,8.9,10.7v15
				h-4.6v-14.6c0-4.1-1.5-7.4-5.9-7.4c-3.1,0-5.4,2.1-6.1,4.7c-0.2,0.6-0.3,1.3-0.3,2.1v15.2h-4.5V231.3z"/>
			<path class="st0" d="M674.4,237.9c0.1,6.2,4.1,8.8,8.7,8.8c3.3,0,5.3-0.6,7-1.3l0.7,3.3c-1.7,0.7-4.4,1.6-8.4,1.6
				c-7.8,0-12.4-5.1-12.4-12.7c0-7.6,4.5-13.6,11.8-13.6c8.3,0,10.4,7.3,10.4,11.9c0,0.9-0.1,1.7-0.2,2.1H674.4z M687.9,234.6
				c0.1-2.9-1.2-7.4-6.4-7.4c-4.6,0-6.7,4.3-7,7.4H687.9z"/>
			<path class="st0" d="M701,237.9c0.1,6.2,4.1,8.8,8.7,8.8c3.3,0,5.3-0.6,7-1.3l0.7,3.3c-1.7,0.7-4.4,1.6-8.4,1.6
				c-7.8,0-12.4-5.1-12.4-12.7c0-7.6,4.5-13.6,11.8-13.6c8.3,0,10.4,7.3,10.4,11.9c0,0.9-0.1,1.7-0.2,2.1H701z M714.5,234.6
				c0.1-2.9-1.2-7.4-6.4-7.4c-4.6,0-6.7,4.3-7,7.4H714.5z"/>
			<path class="st0" d="M724.6,232.3c0-3-0.1-5.5-0.2-7.9h4.1l0.2,5h0.2c1.2-3.4,3.9-5.5,7-5.5c0.5,0,0.9,0.1,1.3,0.2v4.3
				c-0.5-0.1-0.9-0.2-1.6-0.2c-3.2,0-5.5,2.5-6.1,5.9c-0.1,0.7-0.2,1.3-0.2,2.1v13.5h-4.6V232.3z"/>
			<path class="st0" d="M746.8,217.3c0.1,1.6-1.1,2.8-2.9,2.8c-1.7,0-2.7-1.2-2.7-2.8c0-1.7,1.2-2.9,2.9-2.9
				C745.7,214.5,746.8,215.8,746.8,217.3z M741.7,249.7v-25.2h4.6v25.2H741.7z"/>
			<path class="st0" d="M753.6,231.3c0-2.6-0.1-4.7-0.2-6.9h4.1l0.2,4.1h0.1c1.2-2.4,4.1-4.7,8.4-4.7c3.5,0,8.9,2.1,8.9,10.7v15
				h-4.6v-14.6c0-4.1-1.5-7.4-5.9-7.4c-3.1,0-5.4,2.1-6.1,4.7c-0.2,0.6-0.3,1.3-0.3,2.1v15.2h-4.6v-18.4H753.6z"/>
			<path class="st0" d="M804.4,224.4c-0.1,1.8-0.2,3.9-0.2,6.9V246c0,5.8-1.2,9.3-3.6,11.5c-2.5,2.3-6,3.1-9.2,3.1
				c-3.1,0-6.4-0.7-8.4-2.1l1.2-3.5c1.7,1.1,4.3,2,7.4,2c4.7,0,8.1-2.5,8.1-8.8v-2.8h-0.1c-1.4,2.3-4.1,4.2-8,4.2
				c-6.3,0-10.7-5.3-10.7-12.3c0-8.5,5.6-13.4,11.4-13.4c4.4,0,6.8,2.3,7.9,4.4h0.1l0.2-3.8L804.4,224.4L804.4,224.4z M799.7,234.4
				c0-0.7-0.1-1.5-0.2-2.1c-0.8-2.6-3.1-4.9-6.4-4.9c-4.4,0-7.5,3.7-7.5,9.5c0,5,2.5,9.1,7.4,9.1c2.8,0,5.4-1.7,6.4-4.7
				c0.2-0.7,0.3-1.7,0.3-2.5L799.7,234.4L799.7,234.4z"/>
		</g>
	</g>
</g>
</svg>
