<?xml version="1.0" encoding="utf-8"?>
<!-- Generator: Adobe Illustrator 22.1.0, SVG Export Plug-In . SVG Version: 6.00 Build 0)  -->
<svg version="1.1" id="Layer_1" xmlns="http://www.w3.org/2000/svg" xmlns:xlink="http://www.w3.org/1999/xlink" x="0px" y="0px"
	 viewBox="0 0 813 196.7" style="enable-background:new 0 0 813 196.7;" xml:space="preserve">
<style type="text/css">
	.st0{fill:#12284C;}
	.st1{fill:#C89211;}
</style>
<g>
	<g>
		<path class="st0" d="M78.4,66.4c0,18.9-2.7,33.2-31.4,33.2c-28.5,0-33-13.8-33-33.2v-46C14,10.1,9.6,9.1,2,9.1V6.4h36.3v2.7
			c-7.4,0-12,1-12,11.3v46c0,14.1,3.3,27.9,21.2,27.9c19.9,0,23-11.5,23-27.9v-46c0-10.3-4.5-11.3-12-11.3V6.4h31.8v2.7
			c-7.6,0-12,1-12,11.3L78.4,66.4L78.4,66.4z"/>
		<path class="st0" d="M154.7,95.9c-6.8,2.5-14.5,3.7-24.7,3.7c-27.6,0-40.8-21-40.8-50.3C89.2,23.8,97.4,5,127,5
			c11.1,0,20.4,2.2,26.5,3.9l1.2,21.7h-3.5c-1.8-7.8-7.3-20.1-24.4-20.1c-22.2,0-24,23.6-24,37.8c0,17.8,3.9,45.2,34.1,45.2
			c9.2,0,14.2-2.1,17.8-3.5V95.9z"/>
		<path class="st0" d="M228.8,26.2c-1.2-7.3-6.8-15.8-21.5-15.8c-9.2,0-17.4,5.9-17.4,15c0,12.3,16.4,16.3,28.5,23.3
			c10.9,6.4,18.2,12,18.2,25.1c0,17.5-15.2,25.8-34.1,25.8c-9.4,0-20.3-2.1-23.8-2.6l-1-19.5h3.5c1.1,7.3,7.6,15.8,22.4,15.8
			c12.1,0,20-7.8,20-17.4c0-14.8-22.9-19.5-35.7-29.2c-6-4.7-9-9.7-9-18.5c0-16.6,13.7-23.3,31-23.3c9.2,0,15.2,1.1,21.4,2.3l1,18.9
			C232.2,26.2,228.8,26.2,228.8,26.2z"/>
		<path class="st0" d="M292.9,98.4c-1.5,0.3-4.5,1.1-8.9,1.1c-7.1,0-9.2-3.7-9.2-8.9h-0.2c-3.8,5.5-9.1,8.9-17.4,8.9
			c-8.5,0-14.7-5.9-14.7-13.9c0-17.8,23.1-17.8,32.4-18.6v-4.6c0-8.6-0.2-17.7-10.4-17.7c-7.6,0-8.6,3.2-8.6,7.1
			c0,5-3.7,6.4-5.8,6.4c-3.3,0-5.9-2.2-5.9-5.5c0-8,11.9-12,20.4-12c16.8,0,19.9,8.1,19.9,19.5v30.4c0,4.3,1.5,5.8,5.3,5.8
			c1.1,0,2.2-0.2,3.3-0.5v2.6H292.9z M274.7,71c-5.8,0.2-21.4,1.2-21.4,12.6c0,6.4,4.2,10.6,8.3,10.6c8,0,13.1-7.8,13.1-16.1V71z"/>
		<path class="st0" d="M295.5,96.2c5.1,0,9.3-1.1,9.3-9.1V53.6c0-7.3-5.8-7.8-9.3-8v-2.1l18.9-3v16.2h0.2
			c1.7-4.5,7.3-16.2,19.4-16.2c13,0,14.3,7.1,14.3,18.6v28c0,8,4.2,9.1,9.3,9.1v2.1h-28.2v-2.1c5.1,0,9.3-1.1,9.3-9.1V61.8
			c0-10.6-0.1-15.3-8.2-15.3c-7.3,0-16.1,13.9-16.1,25.5V87c0,8,4.1,9.1,9.3,9.1v2.1h-28.2L295.5,96.2L295.5,96.2z"/>
		<path class="st0" d="M371.7,95.5c7.4,0,12-1,12-11.3V20.4c0-10.3-4.5-11.3-12-11.3V6.4h32.3c22.9,0,47.2,4.9,47.2,46
			c0,40.9-25.5,45.8-47.2,45.8h-32.3V95.5z M395.9,81.3c0,10.1,1.1,11.5,8,11.5c23.8,0,33.5-12.7,33.5-40.4
			c0-25.4-7.3-40.7-33.5-40.7c-6.9,0-8,0.8-8,11.5L395.9,81.3L395.9,81.3z"/>
		<path class="st0" d="M456.1,96.2c5.2,0,9.3-1.1,9.3-9.1V53.6c0-7.3-5.6-7.8-9.3-8v-2.1l18.9-3v46.5c0,8,4.1,9.1,9.3,9.1v2.1h-28.2
			V96.2z M462.9,22.2c0-4,3.1-7,7-7c4,0,7,3.1,7,7s-3.1,7-7,7C466,29.3,462.9,26.2,462.9,22.2z"/>
		<path class="st0" d="M528.7,97.2c-3,1.1-7.1,2.2-14.6,2.2c-19,0-29.7-10.4-29.7-31c0-17.9,7.3-27.8,24.9-27.8
			c11.1,0,21,6.1,21,20.4v2.7h-35.7c0,10.3,5,31.3,25.5,31.3c2.8,0,6.1-0.3,8.6-1.6L528.7,97.2L528.7,97.2z M519.4,59.6
			c0-6.5-2.2-14.9-11.6-14.9c-9.3,0-13.1,10.4-13.1,14.9H519.4z"/>
		<path class="st0" d="M570.2,88.4c5.9,0,19.5,0.2,19.5,13.9c0,14-13.8,21.9-30,21.9c-12,0-24.5-4.5-24.5-15.6
			c0-7.6,5.6-10.9,9.6-12.9c-2.1-1.2-5.3-3.5-5.3-8.7c0-4.5,4-9.2,5.3-10.6c-2.8-2.3-7.1-6-7.1-16.4c0-15.8,11.5-19.2,23.2-19.2
			c5.7,0,8.7,1,12.6,3.1c2-4.6,4.9-13.1,12.4-13.1c3.5,0,5.9,2.2,5.9,5.9c0,3.3-2.1,5.5-5.8,5.5c-3.2,0-4-1.7-5.5-1.7
			c-2.7,0-3.8,3.5-4.4,5.5c1.5,1.6,5.5,6.1,5.5,14.8c0,12.4-7.8,19.4-22.4,19.4c-4.9,0-8.5-0.7-11.1-1.8c-0.7,1-2.2,2.8-2.2,5.5
			c0,4.9,6.1,4.9,10.1,4.9h14.4V88.4z M549,97.1c-2.5,1.8-5.9,4-5.9,9.5c0,7.3,6.5,13.5,17.2,13.5c11.1,0,21.4-5.8,21.4-14.6
			c0-6.3-5.1-8.3-11.3-8.3L549,97.1L549,97.1z M559.7,75.8c10.3,0,11.6-8.1,11.6-14.6c0-9.2-3.2-16.6-12-16.6
			c-9.7,0-11.5,7.1-11.5,14.3C547.8,68.2,550.8,75.8,559.7,75.8z"/>
		<path class="st0" d="M589.9,70c0-18.4,9.9-29.5,25.7-29.5s25.7,11.1,25.7,29.5s-9.9,29.5-25.7,29.5S589.9,88.4,589.9,70z
			 M615.5,95.4c12.3,0,14.8-15.2,14.8-25.4c0-10.2-2.5-25.4-14.8-25.4c-12.3,0-14.7,15.2-14.7,25.4
			C600.8,80.2,603.2,95.4,615.5,95.4z"/>
		<g id="line_3_">
			<path class="st1" d="M528.9,119.4H2v3.1h529.9C530.7,121.6,529.7,120.5,528.9,119.4z"/>
			<path class="st1" d="M640.2,119.4h-48.4c-1.1,1.2-2.3,2.1-3.6,3.1h52.1L640.2,119.4L640.2,119.4z"/>
		</g>
	</g>
	<g>
		<g>
			<path class="st0" d="M23.3,155.6h7.8v22c0,9.9-4.8,13.4-12.4,13.4c-1.8,0-4.2-0.3-5.8-0.8l0.9-6.4c1.1,0.3,2.5,0.7,4,0.7
				c3.3,0,5.4-1.5,5.4-6.9V155.6z"/>
			<path class="st0" d="M45.1,181.5l-2.5,8.9h-8.2l10.6-34.9h10.3l10.8,34.9h-8.5l-2.7-8.9H45.1z M53.9,175.5l-2.1-7.4
				c-0.7-2.1-1.2-4.6-1.7-6.8h-0.2c-0.5,2.1-1.1,4.7-1.6,6.8l-2.1,7.4H53.9z"/>
			<path class="st0" d="M95.1,189.4c-1.5,0.7-4.7,1.5-8.9,1.5c-12,0-18.2-7.5-18.2-17.4c0-11.9,8.5-18.6,19.1-18.6
				c4.1,0,7.2,0.8,8.6,1.6l-1.6,6.3c-1.6-0.7-3.8-1.3-6.6-1.3c-6.3,0-11.1,3.8-11.1,11.5c0,7,4.1,11.4,11.1,11.4
				c2.4,0,5-0.5,6.6-1.2L95.1,189.4z"/>
			<path class="st0" d="M131.4,172.5c0,11.5-6.9,18.4-17.2,18.4c-10.3,0-16.4-7.8-16.4-17.7c0-10.5,6.7-18.2,17-18.2
				C125.5,155,131.4,163,131.4,172.5z M106.2,173c0,6.8,3.2,11.6,8.5,11.6c5.4,0,8.4-5,8.4-11.9c0-6.3-3-11.6-8.4-11.6
				C109.2,161.2,106.2,166.3,106.2,173z"/>
			<path class="st0" d="M137,156c2.1-0.4,6.3-0.7,10.2-0.7c4.8,0,7.8,0.5,10.3,2c2.4,1.3,4.2,3.7,4.2,6.8s-1.8,6-5.8,7.4v0.1
				c4,1.1,6.9,4.1,6.9,8.6c0,3.1-1.5,5.6-3.6,7.4c-2.6,2-6.8,3.1-13.7,3.1c-3.9,0-6.8-0.2-8.5-0.5L137,156L137,156z M144.8,169.3
				h2.6c4.1,0,6.4-1.7,6.4-4.3c0-2.6-2-4-5.6-4c-1.7,0-2.7,0.1-3.4,0.2L144.8,169.3L144.8,169.3z M144.8,184.8
				c0.7,0.1,1.7,0.1,3.1,0.1c3.5,0,6.8-1.3,6.8-5c0-3.5-3.1-4.9-7.1-4.9h-2.7L144.8,184.8L144.8,184.8z"/>
			<path class="st0" d="M168.4,182.3c2.1,1.1,5.4,2.1,8.7,2.1c3.6,0,5.5-1.5,5.5-3.8c0-2.1-1.6-3.4-5.9-4.9c-5.8-2-9.6-5.2-9.6-10.3
				c0-5.9,4.9-10.5,13.2-10.5c4,0,6.8,0.8,8.9,1.7l-1.7,6.4c-1.4-0.7-3.9-1.6-7.3-1.6c-3.4,0-5,1.6-5,3.4c0,2.2,2,3.2,6.4,4.9
				c6.2,2.3,9.1,5.4,9.1,10.4c0,5.9-4.5,10.8-14.1,10.8c-4,0-7.9-1.1-9.9-2.1L168.4,182.3z"/>
			<path class="st0" d="M207.8,182.3c2.1,1.1,5.4,2.1,8.7,2.1c3.6,0,5.5-1.5,5.5-3.8c0-2.1-1.6-3.4-5.9-4.9c-5.8-2-9.6-5.2-9.6-10.3
				c0-5.9,4.9-10.5,13.2-10.5c4,0,6.8,0.8,8.9,1.7L227,163c-1.4-0.7-3.9-1.6-7.3-1.6c-3.4,0-5,1.6-5,3.4c0,2.2,2,3.2,6.4,4.9
				c6.2,2.3,9.1,5.4,9.1,10.4c0,5.9-4.5,10.8-14.1,10.8c-4,0-7.9-1.1-9.9-2.1L207.8,182.3z"/>
			<path class="st0" d="M261.1,189.4c-1.5,0.7-4.7,1.5-8.9,1.5c-12,0-18.2-7.5-18.2-17.4c0-11.9,8.5-18.6,19.1-18.6
				c4.1,0,7.2,0.8,8.6,1.6l-1.6,6.3c-1.6-0.7-3.8-1.3-6.6-1.3c-6.3,0-11.1,3.8-11.1,11.5c0,7,4.1,11.4,11.1,11.4
				c2.4,0,5-0.5,6.6-1.2L261.1,189.4z"/>
			<path class="st0" d="M274.3,155.6v13.4h13v-13.4h7.8v34.9h-7.8v-14.6h-13v14.6h-7.9v-34.9H274.3z"/>
			<path class="st0" d="M334.4,172.5c0,11.5-6.9,18.4-17.2,18.4c-10.3,0-16.4-7.8-16.4-17.7c0-10.5,6.7-18.2,17-18.2
				C328.5,155,334.4,163,334.4,172.5z M309.2,173c0,6.8,3.2,11.6,8.5,11.6c5.4,0,8.4-5,8.4-11.9c0-6.3-3-11.6-8.4-11.6
				C312.3,161.2,309.2,166.3,309.2,173z"/>
			<path class="st0" d="M371.8,172.5c0,11.5-6.9,18.4-17.2,18.4c-10.3,0-16.4-7.8-16.4-17.7c0-10.5,6.7-18.2,17-18.2
				C366,155,371.8,163,371.8,172.5z M346.7,173c0,6.8,3.2,11.6,8.5,11.6c5.4,0,8.4-5,8.4-11.9c0-6.3-3-11.6-8.4-11.6
				C349.8,161.2,346.7,166.3,346.7,173z"/>
			<path class="st0" d="M377.5,155.6h7.9v28.2h13.9v6.6h-21.8V155.6z"/>
			<path class="st0" d="M445.3,172.5c0,11.5-6.9,18.4-17.2,18.4c-10.3,0-16.4-7.8-16.4-17.7c0-10.5,6.7-18.2,17-18.2
				C439.5,155,445.3,163,445.3,172.5z M420.1,173c0,6.8,3.2,11.6,8.5,11.6c5.4,0,8.4-5,8.4-11.9c0-6.3-3-11.6-8.4-11.6
				C423.2,161.2,420.1,166.3,420.1,173z"/>
			<path class="st0" d="M450.9,155.6h21.3v6.4h-13.4v8h12.5v6.4h-12.5v14h-7.9V155.6z"/>
			<path class="st0" d="M510.5,175.6h-12.9v8.2H512v6.4h-22.3v-34.9h21.5v6.4h-13.6v7.3h12.9V175.6z"/>
			<path class="st0" d="M518.1,190.4v-34.9h9.2l7.3,12.8c2.1,3.7,4.1,8,5.7,12h0.2c-0.5-4.6-0.7-9.3-0.7-14.5v-10.2h7.3v34.9h-8.2
				l-7.4-13.4c-2.1-3.7-4.4-8.2-6-12.3l-0.2,0.1c0.2,4.6,0.3,9.5,0.3,15.2v10.5H518.1z"/>
			<path class="st0" d="M583.2,188.8c-2.4,0.8-7,2-11.6,2c-6.4,0-11-1.6-14.2-4.7c-3.2-3-4.9-7.6-4.9-12.7
				c0.1-11.5,8.5-18.2,19.9-18.2c4.5,0,8,0.9,9.7,1.7l-1.6,6.3c-1.9-0.8-4.3-1.5-8.1-1.5c-6.6,0-11.5,3.7-11.5,11.3
				c0,7.2,4.5,11.5,11,11.5c1.8,0,3.2-0.2,3.9-0.5v-7.3h-5.4v-6.2h13L583.2,188.8L583.2,188.8z"/>
			<path class="st0" d="M598,155.6v34.9H590v-34.9H598z"/>
			<path class="st0" d="M605.2,190.4v-34.9h9.2l7.3,12.8c2.1,3.7,4.1,8,5.7,12h0.2c-0.5-4.6-0.7-9.3-0.7-14.5v-10.2h7.3v34.9h-8.2
				l-7.4-13.4c-2.1-3.7-4.4-8.2-6-12.3l-0.2,0.1c0.2,4.6,0.3,9.5,0.3,15.2v10.5H605.2z"/>
			<path class="st0" d="M662.1,175.6h-12.9v8.2h14.4v6.4h-22.3v-34.9h21.5v6.4h-13.6v7.3h12.9V175.6z"/>
			<path class="st0" d="M690.5,175.6h-12.9v8.2H692v6.4h-22.3v-34.9h21.5v6.4h-13.6v7.3h12.9V175.6z"/>
			<path class="st0" d="M698.1,156c2.6-0.4,6.3-0.7,10.5-0.7c5.2,0,8.8,0.7,11.3,2.7c2.1,1.6,3.2,4.1,3.2,7.3c0,4.5-3.1,7.5-6.2,8.6
				v0.2c2.4,1,3.8,3.3,4.6,6.5c1.1,4,2.1,8.5,2.9,9.8h-8.1c-0.6-1-1.4-3.8-2.4-8.1c-0.9-4.4-2.4-5.5-5.6-5.6h-2.4v13.7h-7.8V156z
				 M705.9,171h3.1c4,0,6.3-2,6.3-5c0-3.2-2.1-4.8-5.8-4.9c-1.9,0-3,0.2-3.5,0.2L705.9,171L705.9,171z"/>
			<path class="st0" d="M737.3,155.6v34.9h-7.9v-34.9H737.3z"/>
			<path class="st0" d="M744.5,190.4v-34.9h9.2l7.3,12.8c2.1,3.7,4.1,8,5.7,12h0.2c-0.5-4.6-0.7-9.3-0.7-14.5v-10.2h7.3v34.9h-8.2
				l-7.4-13.4c-2.1-3.7-4.4-8.2-6-12.3l-0.2,0.1c0.2,4.6,0.3,9.5,0.3,15.2v10.5H744.5z"/>
			<path class="st0" d="M809.6,188.8c-2.4,0.8-7,2-11.6,2c-6.4,0-11-1.6-14.2-4.7c-3.2-3-4.9-7.6-4.9-12.7
				c0.1-11.5,8.5-18.2,19.9-18.2c4.5,0,8,0.9,9.7,1.7l-1.6,6.3c-1.9-0.8-4.3-1.5-8.1-1.5c-6.6,0-11.5,3.7-11.5,11.3
				c0,7.2,4.5,11.5,11,11.5c1.8,0,3.2-0.2,3.9-0.5v-7.3h-5.4v-6.2h13V188.8z"/>
		</g>
	</g>
</g>
</svg>
