<?xml version="1.0" encoding="utf-8"?>
<!-- Generator: Adobe Illustrator 22.1.0, SVG Export Plug-In . SVG Version: 6.00 Build 0)  -->
<svg version="1.1" id="MS-symbol" xmlns="http://www.w3.org/2000/svg" xmlns:xlink="http://www.w3.org/1999/xlink" x="0px" y="0px"
	 viewBox="0 0 831.7 191.8" style="enable-background:new 0 0 831.7 191.8;" xml:space="preserve">
<style type="text/css">
	.st0{fill:#737373;}
	.st1{fill:#F25022;}
	.st2{fill:#7FBA00;}
	.st3{fill:#00A4EF;}
	.st4{fill:#FFB900;}
</style>
<path class="st0" d="M346.1,43.4v106h-18.4V66.2h-0.2l-32.9,83.2h-12.3l-33.6-83.2h-0.2v83.2h-16.9v-106H258l30.4,78.6h0.5
	l32.2-78.6C321.1,43.4,346.1,43.4,346.1,43.4z M361.6,51.2c0-2.9,1-5.4,3.2-7.4s4.7-2.9,7.6-2.9c3.2,0,5.9,1,7.9,3.2
	c2,2,3.2,4.4,3.2,7.4c0,2.9-1,5.4-3.2,7.4c-2.2,2-4.7,2.9-7.9,2.9s-5.6-1-7.6-2.9C362.6,56.6,361.6,54.2,361.6,51.2z M381.2,73.3
	v76.1h-17.9V73.3C363.3,73.3,381.2,73.3,381.2,73.3z M435.5,136.4c2.7,0,5.6-0.7,8.8-2s6.1-2.9,8.8-4.9v16.7
	c-2.9,1.7-6.1,2.9-9.8,3.7c-3.7,0.7-7.6,1.2-12,1.2c-11.3,0-20.4-3.4-27.2-10.6c-7.1-7.1-10.6-16.2-10.6-27
	c0-12.3,3.7-22.3,10.8-30.2c7.1-7.9,17.2-11.8,30.4-11.8c3.4,0,6.6,0.5,10.1,1.2c3.4,1,6.1,2,8.1,2.9V93c-2.7-2-5.6-3.7-8.3-4.7
	c-2.9-1.2-5.9-1.7-8.8-1.7c-7.1,0-12.8,2.2-17.2,6.9c-4.4,4.7-6.6,10.8-6.6,18.7c0,7.6,2,13.7,6.1,17.9
	C422.7,134.2,428.4,136.4,435.5,136.4z M504.2,72.1c1.5,0,2.7,0,3.9,0.2c1.2,0.2,2.2,0.5,2.9,0.7v18.2c-1-0.7-2.2-1.2-4.2-2
	c-1.7-0.7-3.9-1-6.6-1c-4.4,0-8.1,2-11,5.6c-2.9,3.7-4.7,9.3-4.7,17.2v38.3h-17.9V73.3h17.9v12h0.2c1.7-4.2,4.2-7.4,7.4-9.8
	C495.6,73.3,499.6,72.1,504.2,72.1z M511.8,112.3c0-12.5,3.4-22.6,10.6-29.9c7.1-7.4,16.9-11,29.7-11c11.8,0,21.1,3.4,27.7,10.6
	s10.1,16.7,10.1,28.7c0,12.3-3.4,22.1-10.6,29.5s-16.7,11-29,11c-11.8,0-21.1-3.4-28-10.3C515.3,133.9,511.8,124.4,511.8,112.3z
	 M530.5,111.9c0,7.9,1.7,14,5.4,18.2s8.8,6.4,15.5,6.4c6.6,0,11.5-2.2,15-6.4c3.4-4.2,5.2-10.3,5.2-18.7c0-8.1-1.7-14.2-5.4-18.4
	c-3.4-4.2-8.3-6.1-14.7-6.1c-6.6,0-11.5,2.2-15.2,6.6C532.5,97.6,530.5,103.8,530.5,111.9z M616.6,93.2c0,2.5,0.7,4.7,2.5,6.1
	c1.7,1.5,5.2,3.2,10.8,5.4c7.1,2.9,12.3,6.1,15,9.6c2.9,3.7,4.4,7.9,4.4,13c0,7.1-2.7,13-8.3,17.2c-5.4,4.4-13,6.6-22.3,6.6
	c-3.2,0-6.6-0.5-10.6-1.2c-3.9-0.7-7.1-1.7-9.8-2.9v-17.4c3.2,2.2,6.9,4.2,10.6,5.4c3.7,1.2,7.1,2,10.3,2c3.9,0,7.1-0.5,8.8-1.7
	c2-1.2,2.9-2.9,2.9-5.6c0-2.5-1-4.7-2.9-6.1c-2-1.5-5.9-3.7-11.3-5.9c-6.6-2.7-11.3-5.9-14-9.3c-2.7-3.4-4.2-7.9-4.2-13.3
	c0-6.9,2.7-12.5,8.1-16.9c5.4-4.4,12.5-6.6,21.1-6.6c2.7,0,5.6,0.2,8.8,1c3.2,0.5,6.1,1.5,8.3,2.2v16.9c-2.5-1.5-5.2-2.9-8.3-4.2
	c-3.2-1.2-6.4-1.7-9.3-1.7c-3.4,0-6.1,0.7-7.9,2C617.6,89,616.6,91,616.6,93.2z M656.9,112.3c0-12.5,3.4-22.6,10.6-29.9
	c7.1-7.4,16.9-11,29.7-11c11.8,0,21.1,3.4,27.7,10.6c6.6,7.1,10.1,16.7,10.1,28.7c0,12.3-3.4,22.1-10.6,29.5c-7.1,7.4-16.7,11-29,11
	c-11.8,0-21.1-3.4-28-10.3C660.3,133.9,656.9,124.4,656.9,112.3z M675.6,111.9c0,7.9,1.7,14,5.4,18.2s8.8,6.4,15.5,6.4
	c6.6,0,11.5-2.2,15-6.4c3.4-4.2,5.2-10.3,5.2-18.7c0-8.1-1.7-14.2-5.4-18.4c-3.4-4.2-8.3-6.1-14.7-6.1c-6.6,0-11.5,2.2-15.2,6.6
	C677.3,97.6,675.6,103.8,675.6,111.9z M794.4,88h-26.8v61.4h-17.9V88h-12.8V73.3h12.8V62.8c0-8.1,2.7-14.5,7.9-19.6
	c5.2-5.2,11.8-7.6,19.9-7.6c2.2,0,4.2,0,5.9,0.2c1.7,0.2,3.2,0.5,4.4,1v15.5c-0.5-0.2-1.7-0.7-3.2-1.2c-1.5-0.5-3.2-0.7-5.2-0.7
	c-3.7,0-6.6,1.2-8.6,3.4c-2,2.5-2.9,5.9-2.9,10.3v9.1h26.8V55.9l17.9-5.4v22.6h18.2v14.7h-18.2v35.6c0,4.7,0.7,8.1,2.5,9.8
	c1.7,2,4.4,2.9,8.1,2.9c1,0,2.2-0.2,3.7-0.7c1.5-0.5,2.7-1,3.9-1.7v14.7c-1.2,0.7-2.9,1.2-5.6,1.7c-2.7,0.5-5.2,0.7-7.9,0.7
	c-7.6,0-13.3-2-16.9-6.1c-3.7-3.9-5.6-10.1-5.6-18.2V88H794.4z"/>
<g>
	<rect x="1.5" y="8" class="st1" width="84" height="84"/>
	<rect x="94.3" y="8" class="st2" width="84" height="84"/>
	<rect x="1.5" y="100.6" class="st3" width="84" height="84"/>
	<rect x="94.3" y="100.6" class="st4" width="84" height="84"/>
</g>
</svg>
