<?xml version="1.0" encoding="utf-8"?>
<!-- Generator: Adobe Illustrator 22.1.0, SVG Export Plug-In . SVG Version: 6.00 Build 0)  -->
<svg version="1.1" id="Layer_1" xmlns="http://www.w3.org/2000/svg" xmlns:xlink="http://www.w3.org/1999/xlink" x="0px" y="0px"
	 viewBox="0 0 805 650.9" style="enable-background:new 0 0 805 650.9;" xml:space="preserve">
<style type="text/css">
	.st0{fill:#0C0C0C;}
	.st1{fill:#0B0B0B;}
	.st2{fill:#0A0A0A;}
	.st3{fill:#F5C02A;}
	.st4{fill:#F9BE2C;}
	.st5{fill:#14477A;}
	.st6{fill:#D11E47;}
</style>
<g>
	<g>
		<path class="st0" d="M240.2,644.8c11.5-17.3,22.7-34.6,34-51.5c5.2-8,10.8-15.8,15.6-23.9c2.4-4,5-5.3,9.6-4.9
			c4,0.4,8.3,0.1,13.2,0.1c1.4,27.2,2.9,53.9,4.3,81c-6.3,0-11.9,0-18.4,0c0-5.3,0-10.5,0-16.5c-10,0-19.5,0-28.8,0.1
			c-1,0-2.2,1.1-3,1.9c-0.9,0.9-1.6,2-2.2,3.2C260.3,645.4,251.8,647.8,240.2,644.8z M297.2,584.7c-0.6-0.1-1-0.4-1.6-0.6
			c-6,9.8-12.2,19.6-18.8,30c7.6,0,14.1,0,20.2,0C297.2,604.1,297.2,594.5,297.2,584.7z"/>
		<path class="st0" d="M625.5,590.6c-5,0-10.2,0-15.3,0c-4.4-14.3-16.6-18.5-28.8-9c-12.2,9.3-17.2,22.8-17.1,37.6
			c0.1,12.6,12.2,18.2,24.5,11.6c3.3-1.7,6.6-4,8.3-7.2c2.9-4.9,6.5-6.3,11.8-5.7c2.4,0.3,4.9,0,8.6,0
			c-5.4,11.8-13.3,19.9-24.1,25.4c-8.5,4.2-17.3,5.2-26.7,3.9c-11.9-1.9-18.8-9-20.2-20.9c-3.6-28.2,19.6-59.6,47.7-63.2
			c7-0.9,14.9,0.7,21.5,3.4C625,569.8,628.5,580.4,625.5,590.6z"/>
		<path class="st0" d="M410.1,590.6c-5,0-10.2,0-15.2,0c-2.6-16.6-16.1-16.1-26.8-10.5c-11.5,6-21.4,27.5-19.5,40.1
			c1.9,11.9,12.9,16.8,24.7,10.5c2.6-1.4,4.7-3.3,6.9-5.3c8.2-8.2,8-8.2,20.9-7.3c0,0.7,0.1,1.6-0.1,2.3c-8,17.3-27,28.4-45.9,27.2
			c-15.8-1-25.2-10.8-24.2-26.4c1.4-20.5,9.3-38.1,26.7-50.6c11-7.9,23.4-10.3,36.6-7.3C406.8,566.1,414,578,410.1,590.6z"/>
		<path class="st1" d="M202.9,564.4c13.2,0,25.8-0.3,38.1,0c14.1,0.3,20.4,9,17.3,22.8c-3.7,16.2-16.5,27.4-33.1,28.8
			c-1.7,0.1-3.3,0.1-4.9,0.1c-16.3,0.1-16.3,0.1-21.1,15.9c-1.3,4.3-2.7,8.7-4,12.9c-5.6,0-10.9,0-16.8,0
			C186.7,618.1,194.7,591.3,202.9,564.4z M208.2,602.1c6.2,0,11.8,0.1,17.2,0c8.9-0.1,14.9-6,15.9-14.9c0.6-5-1.7-8.2-6.6-8.6
			c-5.4-0.6-11.2-0.6-16.6-0.4c-1.1,0-3,1.4-3.4,2.6C212.4,587.4,210.6,594.3,208.2,602.1z"/>
		<path class="st2" d="M456.1,645.4c-5.4,0-10.6,0-16.8,0c3.3-10.6,6.2-20.6,9.3-31c4.6-15.2,9.2-30.5,13.9-45.7c0.6-1.7,2.7-4,4-4
			c16.2-0.3,32.4-0.1,48.6-0.1c1.9,0,3.7,0,6.2,0c-1,3.9-2.2,6.9-2.9,10.2c-0.7,3.3-2.4,4.2-5.6,4c-10.9-0.1-21.5,0-32.4-0.1
			c-3.3,0-4.9,0.7-5.6,4c-1,4.6-2.7,9-4,14.2c12,0,23.4,0,35.7,0c-1.3,4.4-2.2,8.6-3.9,12c-0.6,1.3-3.3,2-4.9,2.2
			c-8.7,0.1-17.5,0.3-26.1,0c-4-0.1-5.9,1.6-6.9,5.2C462,625.7,459.1,635.2,456.1,645.4z"/>
		<path class="st1" d="M548.6,564.4c-8,26.7-15.6,52.3-23.5,78c-0.4,1.4-2.7,3-4.2,3.2c-4,0.4-8.2,0.1-13.2,0.1
			c2.7-9.3,5.2-17.9,7.7-26.5c4.9-16.5,10.2-32.8,14.8-49.3c1.3-4.4,3.3-6,7.7-5.6C541.1,564.6,544.3,564.4,548.6,564.4z"/>
		<path class="st1" d="M447.4,564.4c-5,16.6-9.8,32.3-14.3,47.9c-2.9,9.3-5.9,18.6-8.3,28c-1.1,4-2.7,6-7.2,5.4
			c-3.4-0.4-6.9-0.1-11.3-0.1c4.4-15.2,8.9-29.5,13-43.9c3.2-10.3,6.6-20.4,9.2-31c1.3-5.4,3.9-7,9-6.5
			C440.3,564.6,443.2,564.4,447.4,564.4z"/>
	</g>
	<g>
		<path class="st3" d="M647.1,200.7C569.8,309.8,493.3,418,416.3,526.8C410,519,404.4,512,398.8,505c-27.2-34.4-54.5-69-81.9-103.2
			c-3.7-4.6-4-7.9-0.3-12.8c43.6-60.8,87-121.6,130.3-182.7c3-4.2,6.2-5.9,11.5-5.9c60.2,0.1,120.4,0.1,180.7,0.1
			C641.2,200.4,643.4,200.6,647.1,200.7z M625,212.1c-2.6-0.1-3.9-0.3-5-0.3c-52.8,0-105.5,0-158.3-0.1c-4.2,0-6.2,1.9-8.2,4.7
			c-39.1,55.1-78.3,110.3-117.6,165.3c-2.9,4.2-5.7,8.2-8.6,12.3c29.7,37.4,58.9,74.7,88.9,112.4C485.9,408.1,555.2,310.6,625,212.1
			z"/>
		<path class="st4" d="M299.8,379.7c-47.6-59.8-94.3-118.9-142-178.8c89.8,0,178.2,0,268,0C383.7,260.7,342.1,319.9,299.8,379.7z
			 M403.8,212.5c-73.6,0-146.3,0-219.8,0c38.9,49,76.9,97.2,115.6,146.3C334.4,309.7,368.9,261.2,403.8,212.5z"/>
		<path class="st5" d="M625,212.1c-69.8,98.5-139.1,196-208.9,294.2c-29.8-37.7-59.1-74.8-88.9-112.4c2.9-4.2,5.7-8.2,8.6-12.3
			c39.3-55.1,78.3-110.1,117.6-165.3c2-3,4.2-4.7,8.2-4.7c52.8,0.1,105.5,0.1,158.3,0.1C621.2,211.6,622.4,211.9,625,212.1z"/>
		<path class="st6" d="M403.8,212.5c-34.7,48.9-69.3,97.1-104.2,146.3c-38.7-48.9-76.7-97.1-115.6-146.3
			C257.7,212.5,330.2,212.5,403.8,212.5z"/>
	</g>
	<g>
		<polygon class="st0" points="6,73.4 19.5,6 34.8,6 52.1,51.9 60.2,6 75.9,6 61.4,73.4 46.5,73.4 29.4,27.7 20.5,73.4 		"/>
		<path class="st0" d="M106.7,21.5c-12-0.7-24.2,1.7-28.5,17.2h13.6c0,0,3.3-7,9.6-6.7c6.3,0.3,6,3.4,4.3,11.8
			c0,0-11.8-3.9-25.2,3.2c-12,6.3-7.3,23.8-1,25.4c6.3,1.7,17.5,2,22.9-3.7v3.7H117c0,0-2.4-4.3,2.6-26
			C124.2,26.9,118.7,22.2,106.7,21.5z M98.9,63.4c-6.5,3-12.2,3.7-13.5-1.7c-1.1-5.4,1.1-7.9,5.4-9.5c5.3-2,14.2-2.2,14.2-2.2
			C105.1,50,104.2,60.9,98.9,63.4z"/>
		<polygon class="st0" points="130.8,21.6 145.5,21.6 148.6,58.1 168.5,21.6 182.7,21.6 153.3,73.4 138.9,73.4 		"/>
		<polygon class="st0" points="230.4,73.4 245.3,73.4 259.5,4.6 245.6,4.6 		"/>
		<polygon class="st0" points="297.1,4.6 312.7,4.6 298.3,73.4 282.9,73.4 		"/>
		<path class="st0" d="M320.5,21.5l-11,51.9h14.6c0,0,4.9-29.5,6.5-32.4c6.3-10.8,19.5-9.2,18.4-3c-0.7,4.4-7.3,35.4-7.3,35.4h14.3
			c0,0,9-36.1,8.3-43.2c-0.9-7-7.6-10.3-15.3-10.3s-14.2,5.6-16.6,9.9l1.1-8.3H320.5z"/>
		<path class="st0" d="M370.4,73.4H383l8.5-40.7h8.9l1.6-10.2H394c0,0,0.9-7.3,5.4-7.5c4.6-0.1,5.9,0,5.9,0l2-11
			c0,0-12.6-1.3-16.6,1.4c-3.6,2.6-7,4.4-9.2,17.1H372l-1,10.2h8.5L370.4,73.4z"/>
		<path class="st0" d="M451.8,31.2c-3-9.9-12.8-12-18.6-11.8c-5.9,0.3-14.1,2.3-21.4,9c-7.3,6.7-10.2,13.6-10.2,25.1
			c0,13,9.6,19.4,20.2,19.6c10.6,0.3,21.1-5,26.8-13.5C453.5,52,454.7,40.7,451.8,31.2z M437.1,53.5c-2.3,4.6-7.9,9.5-13.5,9.5
			c-6.6,0-7.7-3.2-8.9-6.3c-1.1-3.2,0.1-10.6,2.2-14.2s7.6-11.6,14.6-11.9c3.9-0.1,8,3.4,8.6,8.2C440.6,43.4,439.3,48.7,437.1,53.5z
			"/>
		<path class="st0" d="M468.3,21.8l-11.2,51.6h13.3c0,0,4.2-23.5,6.9-31c2.9-7.3,9-7.6,16.8-7.3l3.6-13.3c0,0-15.9-2.4-18.9,8.5
			l1.6-8.7L468.3,21.8z"/>
		<path class="st0" d="M504.3,21.5l-10.8,51.9h14.2c0,0,5.6-33.6,7.2-35.6s5.2-5.3,8.6-5c3.4,0.1,7.3,1.1,6.5,5.7s-6.9,35-6.9,35
			h13.6c0,0,7-34.3,8.9-36.6s4.9-4.2,8.6-4c3.7,0.1,6.6,1.6,4.9,7.9c-1.7,6.5-7,32.7-7,32.7h14.1c0,0,7.5-35.1,7.5-37.3
			c0-2.2,0.1-8.5-2.9-10.8c-3-2.3-4.9-3.7-9.6-3.7s-11.6,1.9-17.3,8.6c0,0,0-4.4-2.3-6.6c-2.3-2.2-5-2.2-8.6-2
			c-3.6,0-8.9-0.9-16.5,8.5l1.7-8.5h-13.8V21.5z"/>
		<path class="st0" d="M740.9,31.2c-3-9.9-12.8-12-18.6-11.8c-5.9,0.3-14.1,2.3-21.4,9c-7.3,6.7-10.2,13.6-10.2,25.1
			c0,13,9.6,19.4,20.2,19.6c10.6,0.3,21.1-5,26.8-13.5C742.8,52,743.8,40.7,740.9,31.2z M726.1,53.5c-2.3,4.6-7.9,9.5-13.5,9.5
			c-6.6,0-7.7-3.2-8.9-6.3c-1.1-3.2,0.1-10.6,2.2-14.2c2-3.6,7.6-11.6,14.6-11.9c3.9-0.1,8,3.4,8.6,8.2
			C729.7,43.4,728.6,48.7,726.1,53.5z"/>
		<g>
			<polygon class="st0" points="676.9,4.7 674.2,16.9 687.8,16.9 690.6,4.7 			"/>
			<polygon class="st0" points="673.2,21.9 686.3,21.9 676.1,73.4 662.7,73.4 			"/>
		</g>
		<polygon class="st0" points="72.6,96.5 76.9,165.2 90.9,165.2 112.9,114.7 112,165.2 126,165.2 159.9,96.5 145,96.5 123,145.1 
			123.6,96.5 109.1,96.5 87.9,145.1 87.5,96.5 		"/>
		<path class="st0" d="M404.1,148.8c-6.7,13.8-25.1,20.1-37.7,13.9c-5-2.4-7.5-6.5-7.7-11.8c-1-14.3,8.7-38.7,32.1-39.9
			c6.9-0.3,13.6,0.4,17.3,6.9c4.2,7,2.4,14.3,0.1,21.5c-0.3,1-2.9,1.9-4.6,1.9c-8.6,0.1-17.3,0-25.8,0.1c-2.4,0-6.3-1-5.7,3.2
			c0.4,3,2.2,7.7,4.2,8.3c3.4,1.1,8.9,1,11.5-1.1C393,147.7,398.3,149.5,404.1,148.8z M375.7,133.2c6.5,0,11.8-0.1,16.9,0
			c4.6,0.1,5.2-2.2,4.2-5.7c-1.3-4.6-4.9-6-9-5.3C382,123,378.1,126.3,375.7,133.2z"/>
		<path class="st0" d="M552.2,148.8c-6.7,13.8-25.1,20.1-37.7,13.9c-5-2.4-7.5-6.5-7.7-11.8c-1-14.3,8.7-38.7,32.1-39.9
			c6.9-0.3,13.6,0.4,17.3,6.9c4.2,7,2.4,14.3,0.1,21.5c-0.3,1-2.9,1.9-4.6,1.9c-8.6,0.1-17.3,0-25.8,0.1c-2.4,0-6.3-1-5.7,3.2
			c0.4,3,2.2,7.7,4.2,8.3c3.4,1.1,8.9,1,11.5-1.1C541.1,147.7,546.5,149.5,552.2,148.8z M523.8,133.2c6.5,0,11.8-0.1,16.9,0
			c4.6,0.1,5.2-2.2,4.2-5.7c-1.3-4.6-4.9-6-9-5.3C530.1,123,526.2,126.3,523.8,133.2z"/>
		<path class="st0" d="M694,148.8c-6.7,13.8-25.1,20.1-37.7,13.9c-5-2.4-7.5-6.5-7.7-11.8c-1-14.3,8.7-38.7,32.1-39.9
			c6.9-0.3,13.6,0.4,17.3,6.9c4.2,7,2.4,14.3,0.1,21.5c-0.3,1-2.9,1.9-4.6,1.9c-8.6,0.1-17.3,0-25.8,0.1c-2.4,0-6.3-1-5.7,3.2
			c0.4,3,2.2,7.7,4.2,8.3c3.4,1.1,8.9,1,11.5-1.1C683,147.7,688.3,149.5,694,148.8z M665.6,133.2c6.5,0,11.8-0.1,16.9,0
			c4.6,0.1,5.2-2.2,4.2-5.7c-1.3-4.6-4.9-6-9-5.3C671.9,123,668,126.3,665.6,133.2z"/>
		<path class="st0" d="M492.7,118h14.9c0,0,1.4-11.6-5.9-17.9c-7.5-6.3-14.8-7-19.6-6.7c-4.9,0.3-16.9,2.3-23.7,9.5
			c-6.7,7.2-13.9,18.2-15.2,27.7c-1.3,9.5-0.3,20.8,4.3,26.8c4.6,5.9,14.1,8,19.4,7.9c5.3-0.1,26.2-0.4,35-24.2h-14.6
			c0,0-5,11.2-13.5,12.2s-12.8-2.4-15.6-7.6c-2.9-5.2-0.4-16.5,3.2-23.5c3.6-7,8.7-15.1,17.3-15.9
			C487.2,105.2,494.1,109.4,492.7,118z"/>
		<path class="st0" d="M634.4,99.4h11.3l-2.6,13.9h8.9l-2.3,10.6h-8.3c0,0-5.3,23.2-5.6,25.8c-0.4,2.6-1,4.7,1,4.7
			c1.9,0,6.7-1,6.7-1s0.7,10.9-2.9,11.2c-3.6,0.1-18.1,2.9-18.1-4.6c0-7.3,6.9-36,6.9-36h-7.7l2.6-10.6h7.2L634.4,99.4z"/>
		<path class="st0" d="M211.6,21.5c-12-0.7-24.2,1.7-28.5,17.2h13.6c0,0,3.3-7,9.6-6.7c6.3,0.3,6,3.4,4.3,11.8
			c0,0-11.8-3.9-25.2,3.2c-12,6.3-7.3,23.8-1,25.4c6.3,1.7,17.5,2,22.9-3.7v3.7H222c0,0-2.7-4.3,2.6-26
			C229,28.5,223.7,22.2,211.6,21.5z M203.9,63.4c-6.5,3-12.2,3.7-13.5-1.7c-1.1-5.4,1.1-7.9,5.4-9.5c5.3-2,14.2-2.2,14.2-2.2
			C210.1,50,209.2,60.9,203.9,63.4z"/>
		<path class="st0" d="M611.7,21.5c-12-0.7-24.2,1.7-28.5,17.2h13.6c0,0,3.3-7,9.6-6.7c6.3,0.3,6,3.4,4.3,11.8
			c0,0-11.8-3.9-25.2,3.2c-12,6.3-7.3,23.8-1,25.4c6.3,1.7,17.5,2,22.9-3.7v3.7H622c0,0-3.2-4.4,2.6-26
			C629.3,28.7,623.6,22.2,611.7,21.5z M603.8,63.4c-6.5,3-12.2,3.7-13.5-1.7c-1.1-5.4,1.1-7.9,5.4-9.5c5.3-2,14.2-2.2,14.2-2.2
			C610,50,609.1,60.9,603.8,63.4z"/>
		<path class="st0" d="M303.3,113.4c-12-0.7-24.2,1.7-28.5,17.2h13.6c0,0,3.3-7,9.6-6.7c6.3,0.3,6,3.4,4.3,11.8
			c0,0-11.8-3.9-25.2,3.2c-12,6.3-7.3,23.8-1,25.4c6.3,1.7,17.5,2,22.9-3.7v3.7h14.6c0,0-2-4.2,2.6-26
			C320.3,118.7,315.3,114.1,303.3,113.4z M295.4,155.1c-6.5,3-12.2,3.7-13.5-1.7c-1.1-5.4,1.1-7.9,5.4-9.5c5.3-2,14.2-2.2,14.2-2.2
			C301.7,141.8,300.7,152.7,295.4,155.1z"/>
		<path class="st0" d="M181.4,113.4c-12-0.7-24.2,1.7-28.5,17.2h13.6c0,0,3.3-7,9.6-6.7c6.3,0.3,6,3.4,4.3,11.8
			c0,0-11.8-3.9-25.2,3.2c-12,6.3-7.3,23.8-1,25.4c6.3,1.7,17.5,2,22.9-3.7v3.7h14.6c0,0-2.6-4.3,2.6-26
			C198.7,120,193.4,114.1,181.4,113.4z M173.6,155.1c-6.5,3-12.2,3.7-13.5-1.7c-1.1-5.4,1.1-7.9,5.4-9.5c5.3-2,14.2-2.2,14.2-2.2
			C179.8,141.8,179,152.7,173.6,155.1z"/>
		<path class="st0" d="M755.4,21.5l-11,51.9h14.5c0,0,4.9-29.5,6.5-32.4c6.3-10.8,19.5-9.2,18.4-3c-0.7,4.4-7.3,35.4-7.3,35.4h14.3
			c0,0,9-36.1,8.3-43.2c-0.9-7-7.6-10.3-15.3-10.3c-7.7,0-14.2,5.6-16.6,9.9l1.1-8.3H755.4z"/>
		<path class="st0" d="M572.1,113.3l-11,51.9h14.6c0,0,4.9-29.5,6.5-32.4c6.3-10.8,19.5-9.2,18.4-3c-0.7,4.4-7.3,35.4-7.3,35.4h14.3
			c0,0,9-36.1,8.3-43.2c-0.9-7-7.6-10.3-15.3-10.3s-14.2,5.6-16.6,9.9l1.1-8.3L572.1,113.3z"/>
		<path class="st0" d="M712.1,113.5l-11.2,51.6h13.3c0,0,4.2-23.5,6.9-31c2.9-7.3,9-7.6,16.8-7.3l3.6-13.3c0,0-15.9-2.4-18.9,8.5
			l1.6-8.7L712.1,113.5z"/>
		<path class="st0" d="M208.8,113.5l-11.2,51.6h13.3c0,0,4.2-23.5,6.9-31c2.9-7.3,9-7.6,16.8-7.3l3.6-13.3c0,0-15.9-2.4-18.9,8.5
			l1.6-8.7L208.8,113.5z"/>
		<path class="st0" d="M332.5,113.5l-11.2,51.6h13.3c0,0,4.2-23.5,6.9-31c2.9-7.3,9-7.6,16.8-7.3l3.6-13.3c0,0-15.9-2.4-18.9,8.5
			l1.6-8.7L332.5,113.5z"/>
		<path class="st0" d="M241,165.2h12.6l8.5-40.7h8.9l1.6-10.2h-7.9c0,0,0.9-7.3,5.4-7.5c4.6-0.1,5.9,0,5.9,0l2-11
			c0,0-12.6-1.3-16.6,1.4c-3.6,2.6-7,4.4-9.2,17.1h-9.6l-1,10.2h8.5L241,165.2z"/>
		<path class="st0" d="M647.1,7.6h11.3l-2.6,13.9h8.9l-2.3,10.6h-8.3c0,0-5.3,23.2-5.6,25.8c-0.4,2.6-1,4.7,1,4.7c1.9,0,6.7-1,6.7-1
			s0.7,10.9-2.9,11.2c-3.6,0.1-18.1,2.9-18.1-4.6s6.9-36,6.9-36h-7.7l2.6-10.6h7.2L647.1,7.6z"/>
	</g>
</g>
</svg>
