<?xml version="1.0" encoding="utf-8"?>
<!-- Generator: Adobe Illustrator 22.1.0, SVG Export Plug-In . SVG Version: 6.00 Build 0)  -->
<svg version="1.1" id="Layer_1" xmlns="http://www.w3.org/2000/svg" xmlns:xlink="http://www.w3.org/1999/xlink" x="0px" y="0px"
	 viewBox="0 0 571.8 99.4" style="enable-background:new 0 0 571.8 99.4;" xml:space="preserve">
<style type="text/css">
	.st0{fill:#0060A9;}
	.st1{fill:#FFFFFF;}
</style>
<g>
	<g>
		<path class="st0" d="M224.1,28.1c-5.7,0-10.1-2.2-11.8-5.9c-1-2.2-1-4.8,0-7.5c1.8-4.9,6.6-9.5,12.9-12.3
			c3.8-1.7,7.8-2.7,11.5-2.7c5.7,0,10.1,2.2,11.8,5.9c2.8,6.3-2.9,15.2-12.8,19.8C231.8,27.2,227.8,28.1,224.1,28.1L224.1,28.1z
			 M232.7,8.5c-1.4,0-2.9,0.4-4.4,1c-2.4,1.1-4.3,2.9-4.9,4.8c-0.4,1-0.3,1.9,0,2.7c0.7,1.4,2.3,2.2,4.5,2.2c1.4,0,2.9-0.4,4.4-1
			c2.4-1.1,4.3-2.9,4.9-4.8c0.4-1,0.3-1.9,0-2.7C236.5,9.3,234.8,8.5,232.7,8.5z"/>
		<path class="st1" d="M236.6,0c5.4,0,9.9,2,11.6,5.7c2.8,6.2-2.9,14.9-12.7,19.5c-3.9,1.8-7.8,2.6-11.4,2.6c-5.4,0-9.9-2-11.6-5.7
			c-2.9-6.3,2.8-15,12.7-19.5C229.1,0.8,233,0,236.6,0 M227.9,19.4c1.4,0,3-0.3,4.5-1c3.9-1.8,6.2-5.3,5-7.8
			c-0.7-1.5-2.5-2.3-4.7-2.3c-1.4,0-3,0.3-4.5,1c-3.9,1.8-6.2,5.3-5,7.8C223.9,18.6,225.7,19.4,227.9,19.4 M236.6-0.5
			c-3.8,0-7.8,0.9-11.6,2.7c-6.3,2.9-11.2,7.5-13,12.4c-1,2.8-1,5.4,0,7.7c1.8,3.8,6.3,6,12.1,6c3.8,0,7.8-0.9,11.6-2.7
			c10-4.7,15.8-13.8,12.9-20.2C246.9,1.7,242.4-0.5,236.6-0.5L236.6-0.5z M227.9,18.9c-2.1,0-3.7-0.8-4.3-2.1
			c-0.3-0.7-0.4-1.6,0-2.5c0.6-1.8,2.5-3.5,4.8-4.6c1.4-0.7,2.9-1,4.3-1c2.1,0,3.7,0.8,4.3,2.1c0.3,0.7,0.4,1.6,0,2.5
			c-0.6,1.8-2.5,3.5-4.8,4.6C230.8,18.6,229.3,18.9,227.9,18.9L227.9,18.9z"/>
	</g>
	<g>
		<path class="st0" d="M55.3,28.1c-5.7,0-10.1-2.2-11.8-5.9c-1-2.2-1-4.8,0-7.5c1.8-4.9,6.6-9.5,12.9-12.3c3.8-1.7,7.8-2.7,11.5-2.7
			c5.7,0,10.1,2.2,11.8,5.9c1,2.2,1,4.7,0.1,7.4c-1.8,4.9-6.6,9.5-12.9,12.5C63,27.2,59,28.1,55.3,28.1L55.3,28.1z M64,8.5
			c-1.4,0-2.9,0.4-4.4,1c-2.4,1.1-4.3,2.9-4.9,4.8c-0.4,1-0.3,1.9,0,2.7c0.6,1.4,2.3,2.2,4.5,2.2c1.4,0,3-0.4,4.4-1
			c2.4-1.1,4.3-2.9,4.9-4.8c0.4-1,0.3-1.9,0-2.7C67.8,9.3,66.1,8.5,64,8.5z"/>
		<path class="st1" d="M67.8,0c5.4,0,9.9,2,11.6,5.7c2.9,6.2-2.8,14.9-12.7,19.5c-3.9,1.8-7.8,2.6-11.4,2.6c-5.4,0-9.9-2-11.6-5.7
			c-2.9-6.3,2.8-15,12.7-19.5C60.3,0.8,64.2,0,67.8,0 M59.2,19.4c1.4,0,3-0.3,4.5-1c3.9-1.8,6.2-5.3,5-7.8C68,9.1,66.2,8.3,64,8.3
			c-1.4,0-3,0.3-4.5,1c-3.9,1.8-6.2,5.3-5,7.8C55.2,18.6,57,19.4,59.2,19.4 M67.8-0.5C64-0.5,60,0.4,56.2,2.1
			C49.9,5,45,9.7,43.2,14.6c-1,2.8-1,5.4,0,7.7c1.8,3.8,6.3,6,12.1,6c3.8,0,7.8-0.9,11.6-2.7c6.4-3,11.2-7.7,13-12.6
			c1-2.7,1-5.3-0.1-7.6C78.1,1.7,73.6-0.5,67.8-0.5L67.8-0.5z M59.2,18.9c-2.1,0-3.7-0.8-4.2-2c-0.4-0.7-0.4-1.6,0-2.5
			c0.6-1.8,2.5-3.5,4.8-4.6c1.4-0.7,2.9-1,4.3-1c2.1,0,3.7,0.8,4.3,2.1c0.3,0.7,0.4,1.6,0,2.5c-0.6,1.8-2.5,3.5-4.8,4.6
			C62.1,18.6,60.6,18.9,59.2,18.9L59.2,18.9z"/>
	</g>
	<g>
		<polygon class="st0" points="542.8,27.5 533.9,14.3 527.8,27.5 516.6,27.5 529.2,0.5 539.7,0.5 548.4,13.6 554.4,0.5 565.5,0.5 
			552.9,27.5 		"/>
		<path class="st1" d="M565.1,0.8l-12.4,26.5h-9.8l-9-13.5l-6.3,13.5H517l12.4-26.5h10.2l8.8,13.3l6.2-13.3L565.1,0.8 M565.9,0.3
			h-0.8h-10.5h-0.3l-0.1,0.3l-5.8,12.5L540,0.5l-0.1-0.2h-0.3h-10.2h-0.3L529,0.6l-12.4,26.5l-0.3,0.7h0.8h10.6h0.3l0.1-0.3
			l5.9-12.7l8.5,12.8l0.1,0.2h0.3h9.8h0.3l0.1-0.3L565.6,1L565.9,0.3L565.9,0.3z"/>
	</g>
	<g>
		<polygon class="st0" points="25.7,27.5 16.8,14.3 10.7,27.5 -0.4,27.5 12.2,0.5 22.7,0.5 31.4,13.6 37.4,0.5 48.5,0.5 35.8,27.5 
					"/>
		<path class="st1" d="M48.1,0.8L35.6,27.3h-9.8l-9-13.5l-6.3,13.5H0L12.4,0.8h10.2l8.8,13.3l6.2-13.3L48.1,0.8 M48.9,0.3h-0.8H37.6
			h-0.3l-0.1,0.3l-5.8,12.5L23,0.5l-0.1-0.2h-0.3H12.4h-0.3L12,0.6L-0.5,27.1l-0.3,0.7H0h10.5h0.3l0.1-0.3l5.9-12.7l8.5,12.8
			l0.1,0.2h0.3h9.8h0.3l0.1-0.3L48.6,1L48.9,0.3L48.9,0.3z"/>
	</g>
	<g>
		<path class="st0" d="M243.4,27.5l12.5-27h14.5c4.9,0,8.2,0.7,10,2.2s2,3.6,0.7,6.5c-1.4,2.9-3.6,5.1-6.7,6.6
			c-3,1.5-6.9,2.2-11.6,2.2h-3.5l-4.4,9.5H243.4z M263.3,12.5c1.8,0,3.3-0.3,4.4-0.9c1-0.4,1.8-1.3,2.5-2.6c0.5-1.1,0.6-1.9,0.1-2.4
			c-0.3-0.4-1.1-0.8-3.3-0.8h-2.1l-3.3,6.7H263.3z"/>
		<path class="st1" d="M270.4,0.8c4.7,0,8.1,0.7,9.8,2.1c1.7,1.4,1.9,3.4,0.6,6.2c-1.4,2.9-3.6,5-6.6,6.5s-6.9,2.2-11.5,2.2H259
			l-4.4,9.5h-10.8l12.3-26.5L270.4,0.8 M261.2,12.8h2.1c1.9,0,3.4-0.3,4.5-0.9c1.2-0.5,2-1.5,2.6-2.7s0.6-2.1,0.1-2.7
			s-1.7-0.9-3.5-0.9h-2.3L261.2,12.8 M270.4,0.3h-14.3h-0.3l-0.1,0.3l-12.3,26.5l-0.3,0.7h0.8h10.8h0.3l0.1-0.3l4.3-9.2h3.4
			c4.8,0,8.7-0.8,11.7-2.3c3.2-1.6,5.4-3.8,6.8-6.7c1.4-3,1.2-5.2-0.7-6.8C278.7,1,275.3,0.3,270.4,0.3L270.4,0.3z M265,6.1h2
			c2.2,0,2.9,0.5,3.1,0.7c0.4,0.5,0.3,1.2-0.2,2.2c-0.6,1.3-1.4,2.1-2.3,2.5l0,0l0,0c-1,0.6-2.5,0.8-4.3,0.8H262L265,6.1L265,6.1z"
			/>
	</g>
	<g>
		<polygon class="st0" points="160.3,27.5 165.1,17.8 154.1,17.8 149.3,27.5 137.4,27.5 150.5,0.5 162.5,0.5 157.8,10.2 168.8,10.2 
			173.5,0.5 185.5,0.5 172.3,27.5 		"/>
		<path class="st1" d="M185.1,0.8l-13,26.5h-11.4l4.8-9.8h-11.6l-4.8,9.8h-11.3l12.9-26.5h11.4l-4.7,9.7H169l4.7-9.7L185.1,0.8
			 M185.9,0.3h-0.8h-11.4h-0.3l-0.1,0.3l-4.6,9.4h-10.5l4.4-9l0.3-0.7h-0.8h-11.4h-0.3l-0.1,0.3l-12.9,26.5l-0.3,0.7h0.8h11.3h0.3
			l0.1-0.3l4.7-9.5h10.5l-4.4,9.1l-0.4,0.7h0.8h11.4h0.3l0.1-0.3l13-26.5L185.9,0.3L185.9,0.3z"/>
	</g>
	<g>
		<polygon class="st0" points="114.7,27.5 124.4,8 114.6,8 118.2,0.5 149,0.5 145.4,8 135.6,8 125.9,27.5 		"/>
		<path class="st1" d="M148.6,0.8l-3.4,6.9h-9.8l-9.7,19.6h-10.6l9.7-19.6H115l3.4-6.9L148.6,0.8 M149.4,0.3h-0.8h-30.2h-0.3
			L118,0.6l-3.4,6.9l-0.4,0.7h0.8h9l-9.3,18.9l-0.4,0.7h0.8h10.6h0.3l0.1-0.3l9.6-19.3h9.5h0.3l0.1-0.3L149,1L149.4,0.3L149.4,0.3z"
			/>
	</g>
	<g>
		<path class="st0" d="M378,28c-5.6,0-9.4-1.1-11.3-3.3s-1.9-5.4,0.1-9.7l6.6-14.5H385l-6.7,14.6c-0.8,1.7-1,3.1-0.5,4
			c0.5,0.8,1.7,1.3,3.5,1.3s3.4-0.4,4.9-1.4c1.3-0.9,2.4-2.2,3.3-4.1l6.6-14.3h11.5l-6.8,14.8c-1.9,4.1-4.8,7.3-8.6,9.5
			C388.2,27,383.5,28,378,28z"/>
		<path class="st1" d="M407.1,0.8l-6.6,14.4c-1.9,4.2-4.8,7.3-8.5,9.4c-3.8,2.1-8.5,3.2-14,3.2c-5.6,0-9.3-1.1-11.1-3.2
			c-1.8-2.1-1.8-5.2,0.1-9.4l6.5-14.4h11L378,15c-0.9,1.9-1,3.3-0.5,4.2c0.5,0.9,1.8,1.4,3.7,1.4c2,0,3.6-0.5,5-1.4s2.5-2.3,3.4-4.2
			l6.5-14.2L407.1,0.8 M407.9,0.3h-0.8h-11h-0.3l-0.1,0.3l-6.5,14.2c-0.9,1.9-1.9,3.2-3.2,4c-1.4,0.9-2.9,1.3-4.7,1.3
			c-1.7,0-2.9-0.4-3.3-1.1c-0.4-0.8-0.3-2.1,0.5-3.7L385,1l0.3-0.7h-0.8h-11h-0.3L373,0.6L366.5,15c-2,4.3-2,7.7,0,9.9
			c1.9,2.2,5.8,3.4,11.5,3.4c5.5,0,10.3-1.1,14.2-3.3c3.9-2.2,6.8-5.4,8.7-9.6L407.6,1L407.9,0.3L407.9,0.3z"/>
	</g>
	<g>
		<path class="st0" d="M504.6,27.5l0.1-4.5h-13.4l-4.3,4.5h-11.4l27.2-27h11.5l1.4,27H504.6z M504.9,17.5l0.2-8.9l-8.5,8.9H504.9z"
			/>
		<path class="st1" d="M514.1,0.8l1.4,26.5h-10.6l0.1-4.5h-13.8l-4.3,4.5h-10.7l26.7-26.5L514.1,0.8 M496,17.7h9.1l0.2-9.8L496,17.7
			 M514.6,0.3h-0.5h-11.2h-0.2l-0.1,0.1l-26.7,26.5l-0.9,0.9h1.2h10.7h0.2l0.1-0.2l4.2-4.3h13.1l-0.1,4v0.5h0.5h10.6h0.5v-0.5
			l-1.4-26.5V0.3L514.6,0.3z M497.2,17.2l7.6-8l-0.2,8H497.2L497.2,17.2z"/>
	</g>
	<g>
		<polygon class="st0" points="397.2,27.6 397.2,27.2 409.8,0.5 420.5,0.5 423.8,10.8 436.6,0.5 447.5,0.5 434.8,27.5 423.6,27.5 
			430.4,13.2 417.9,23.4 414.7,13.5 408,27.6 		"/>
		<path class="st1" d="M447.1,0.8l-12.5,26.5H424l7.1-15L418,23l-3.3-10.2l-6.9,14.6h-10.3v-0.1l0,0L410,0.8h10.3l3.4,10.4l13-10.4
			L447.1,0.8 M447.9,0.3h-0.8h-10.4h-0.2l-0.1,0.1l-12.4,10l-3.2-9.7l-0.1-0.3h-0.4H410h-0.3l-0.1,0.3L397,27.1v0.1v0.1v0.1v0.5h0.5
			h10.3h0.3l0.1-0.3l6.4-13.5l2.9,9l0.2,0.7l0.6-0.5l11.4-9.3l-6.2,13l-0.3,0.7h0.8h10.6h0.3l0.1-0.3L447.6,1L447.9,0.3L447.9,0.3z"
			/>
	</g>
	<g>
		<polygon class="st0" points="437.5,27.6 437.5,27.2 450,0.5 460.7,0.5 464,10.8 476.8,0.5 487.7,0.5 474.9,27.5 463.7,27.5 
			470.5,13.2 458,23.4 454.8,13.5 448.1,27.6 		"/>
		<path class="st1" d="M487.3,0.8l-12.6,26.5h-10.6l7.1-15L458.1,23l-3.3-10.2l-6.9,14.6h-10.2v-0.1l12.5-26.5h10.3l3.4,10.4
			l13-10.4L487.3,0.8 M488.1,0.3h-0.8h-10.4h-0.2l-0.1,0.1l-12.4,9.9L461,0.6l-0.1-0.3h-0.4h-10.3h-0.3l-0.1,0.3l-12.5,26.5v0.1v0.1
			v0.1v0.5h0.5H448h0.3l0.1-0.3l6.4-13.5l2.9,9l0.2,0.7l0.6-0.5l11.4-9.3l-6.2,13l-0.3,0.7h0.8h10.6h0.3l0.1-0.3L487.8,1L488.1,0.3
			L488.1,0.3z"/>
	</g>
	<g>
		<path class="st0" d="M57.1,97.1l0.7-0.5c79.9-56,283.2-62.5,429.1-62.5c15.7,0,30.5,0.1,43.5,0.1l41.7,0.1l-0.1,3.2l-40.8-0.1
			c-13-0.1-29.2-0.2-46.4-0.2c-60.1,0-149.5,1-232.2,9.8C159.9,56.8,94.9,74.4,59.5,99.2l-0.7,0.6L57.1,97.1z"/>
		<path class="st1" d="M486.9,34.4c16.1,0,31,0.1,44.3,0.1l40.6,0.1l-0.1,2.7l-40.6-0.1c-13.9-0.1-29.5-0.2-46.4-0.2
			c-132.9,0-344.5,5.4-425.3,62l-0.5,0.4l-1.5-2.2l0.5-0.4C139.7,39.4,353.7,34.4,486.9,34.4 M486.9,33.9c-60.7,0-150.9,1-233.8,9.7
			C159.3,53.4,93.6,71.2,57.6,96.4l-0.5,0.4l-0.4,0.3l0.3,0.4l1.5,2.2l0.3,0.4l0.4-0.3l0.5-0.4C95,74.6,159.9,57.1,252.5,47.3
			c82.7-8.7,172.1-9.8,232.2-9.8c17.2,0,33.4,0.1,46.4,0.2l40.6,0.1h0.5v-0.5l0.1-2.7v-0.5h-0.5L531.2,34h-0.8
			C517.4,33.9,502.6,33.9,486.9,33.9L486.9,33.9z"/>
	</g>
	<g>
		<path class="st0" d="M313.8,28c-2.7,0-5-0.3-6.6-0.9c-4.5-1.6-7-4-7.6-7.3C298.9,15,302.9,9.1,307,6c5.4-4,11.4-6.1,18-6.1
			c6.7,0,11.5,2.2,11.6,2.3l0.2,0.1l-2.9,6.8L333.7,9c0,0-3.8-2.1-8.6-2.1c-1,0-2.1,0.1-3.1,0.3c-6.5,1.1-10.6,6.9-10.1,10
			c0.6,3,3.3,3.6,5.5,3.6c1.2,0,2.2-0.2,2.5-0.3l1.3-2.5H317l3.2-6h12.5l-6.9,14.8h-0.1C325.6,26.8,319.5,28,313.8,28z"/>
		<path class="st1" d="M325,0.2c6.7,0,11.5,2.2,11.5,2.2l-2.7,6.3c0,0-3.8-2.1-8.8-2.1c-1,0-2.1,0.1-3.1,0.3
			c-6.8,1.2-10.8,7.1-10.3,10.3c0.7,3.2,3.5,3.8,5.7,3.8c1.5,0,2.7-0.3,2.7-0.3l1.6-3h-4.2l2.9-5.5h12l-6.7,14.3
			c0,0-6.1,1.2-11.8,1.2c-2.4,0-4.7-0.2-6.5-0.8c-13.3-4.6-6-16.3-0.1-20.7C313.5,1.5,319.8,0.2,325,0.2 M325-0.3
			c-6.6,0-12.7,2.1-18.1,6.1c-3.5,2.6-8.4,8.5-7.5,14c0.5,3.4,3.1,6,7.7,7.5c1.7,0.6,3.9,0.9,6.7,0.9c5.7,0,11.8-1.2,11.9-1.3
			l0.2-0.1l0.1-0.2l6.7-14.3l0.3-0.7h-0.8h-12H320l-0.1,0.3l-2.9,5.5l-0.4,0.7h0.8h3.4l-1.1,2.1c-0.4,0.1-1.3,0.2-2.4,0.2
			c-3,0-4.8-1.1-5.2-3.4c-0.5-3,3.6-8.6,9.9-9.7c1-0.2,2-0.3,3.1-0.3c4.8,0,8.5,2,8.5,2l0.5,0.3l0.2-0.5l2.7-6.3l0.2-0.4l-0.4-0.2
			C336.5,1.9,331.8-0.3,325-0.3L325-0.3z"/>
	</g>
	<g>
		<path class="st0" d="M351.6,27.6v-0.3c0,0,0.2-2.4,0.1-4.5c0-2.4-0.5-6.5-3.8-6.5h-2.6L340,27.5h-11.7l12.9-27.1h15.4
			c5.7,0,9.3,1,10.7,3c0.8,1,0.9,2.3,0.4,3.8c-1.6,4.7-5.7,7-7.3,7.6c0.6,0.4,1.6,1.2,1.8,3c0.2,2.1,0.5,9.5,0.5,9.6v0.3L351.6,27.6
			L351.6,27.6z M349.2,12c3.3,0,7-1.3,7.5-3.6c0.1-0.8,0-1.5-0.4-2c-0.6-0.8-1.9-1.2-3.8-1.2h-2.1l-3.2,6.8H349.2z"/>
		<path class="st1" d="M356.6,0.7c10.3,0,11.9,3.3,10.9,6.4c-1.9,5.8-7.7,7.7-7.7,7.7s1.9,0.4,2.2,3c0.2,2.1,0.5,9.6,0.5,9.6h-10.6
			c0,0,0.2-2.4,0.1-4.5c0-2.1-0.4-6.7-4.1-6.7c-1.2,0-2.8,0-2.8,0l-5.3,11.1h-11.1l12.7-26.6C341.4,0.7,352.3,0.7,356.6,0.7
			 M346.7,12.2c0,0,1.2,0,2.5,0c3.3,0,7.2-1.3,7.7-3.8c0.4-2.5-1.6-3.4-4.5-3.5c-1.8,0-2.3,0-2.3,0L346.7,12.2 M356.6,0.2h-15.2
			h-0.3L341,0.5l-12.7,26.6l-0.3,0.7h0.8h11.1h0.3l0.1-0.3l5.2-10.8h2.5c3.1,0,3.6,3.9,3.6,6.2c0.1,2.1-0.1,4.4-0.1,4.5v0.5h0.5
			h10.6h0.5v-0.5c0-0.3-0.3-7.5-0.5-9.6c-0.2-1.6-0.9-2.4-1.5-2.9c1.8-0.9,5.5-3.1,7-7.6c0.5-1.5,0.3-2.9-0.5-4
			C366,1.2,362.4,0.2,356.6,0.2L356.6,0.2z M350.4,5.4h2c1.8,0.1,3.1,0.5,3.6,1.2c0.4,0.4,0.5,1,0.4,1.8c-0.4,2.1-4,3.4-7.2,3.4
			h-1.7L350.4,5.4L350.4,5.4z"/>
	</g>
	<g>
		<path class="st0" d="M198.6,27.6v-0.3c0,0,0.2-2.4,0.1-4.5c0-2.4-0.5-6.5-3.9-6.5h-2.6L187,27.5h-11.7l12.8-27.1h15.4
			c5.6,0,9.2,1,10.7,3c0.8,1,0.9,2.3,0.5,3.8c-1.6,4.8-5.7,7-7.3,7.6c0.6,0.4,1.6,1.2,1.8,3c0.2,2.1,0.5,9.5,0.5,9.6v0.3L198.6,27.6
			L198.6,27.6z M196.1,12c3.3,0,7-1.3,7.5-3.6c0.2-0.8,0.1-1.5-0.3-1.9c-0.6-0.8-1.9-1.2-3.9-1.3h-2.1L194,12H196.1z"/>
		<path class="st1" d="M203.5,0.7c10.3,0,11.9,3.3,11,6.4c-1.9,5.8-7.7,7.7-7.7,7.7s1.9,0.4,2.2,3c0.2,2.1,0.5,9.6,0.5,9.6h-10.6
			c0,0,0.2-2.4,0.1-4.5c0-2.1-0.4-6.7-4.1-6.7c-1.2,0-2.8,0-2.8,0l-5.3,11.1h-11.1l12.6-26.6C188.3,0.7,199.2,0.7,203.5,0.7
			 M193.6,12.2c0,0,1.2,0,2.5,0c3.3,0,7.2-1.3,7.7-3.8s-1.5-3.4-4.5-3.5c-1.8,0-2.3,0-2.3,0L193.6,12.2 M203.5,0.2h-15.2H188
			l-0.1,0.3l-12.6,26.6l-0.3,0.7h0.8h11.1h0.3l0.1-0.3l5.2-10.8h2.5c3.1,0,3.6,3.9,3.6,6.2c0.1,2.1-0.1,4.4-0.1,4.5v0.5h0.5h10.6
			h0.5v-0.5c0-0.3-0.3-7.5-0.5-9.6c-0.2-1.6-0.9-2.4-1.5-2.9c1.8-0.9,5.5-3.1,7-7.6c0.5-1.6,0.3-2.9-0.6-4
			C212.9,1.2,209.2,0.2,203.5,0.2L203.5,0.2z M197.3,5.4h2c1.9,0.1,3.2,0.5,3.7,1.2c0.3,0.4,0.4,1,0.3,1.7c-0.4,2.1-4,3.4-7.2,3.4
			h-1.7L197.3,5.4L197.3,5.4z"/>
	</g>
	<g>
		<path class="st0" d="M97.7,27.6v-0.3c0,0,0.2-2.4,0.1-4.5c0-2.4-0.5-6.5-3.9-6.5h-2.6L86,27.4H74.4L87.3,0.5h15.4
			c5.7,0,9.3,1,10.7,3c0.8,1,0.9,2.3,0.4,3.8c-1.6,4.7-5.7,7-7.3,7.6c0.6,0.4,1.6,1.2,1.8,3c0.2,2.1,0.5,9.5,0.5,9.6v0.3H97.7V27.6z
			 M95.3,12c3.3,0,7-1.3,7.5-3.6c0.1-0.8,0-1.5-0.4-2c-0.6-0.8-1.9-1.2-3.8-1.2h-2.1L93.2,12H95.3z"/>
		<path class="st1" d="M102.7,0.7c10.3,0,11.9,3.3,10.9,6.4c-1.9,5.8-7.7,7.7-7.7,7.7s1.9,0.4,2.2,3c0.2,2.1,0.5,9.6,0.5,9.6H98
			c0,0,0.2-2.4,0.1-4.5c0-2.1-0.4-6.7-4.1-6.7c-1.2,0-2.8,0-2.8,0l-5.3,11.1H74.8L87.5,0.7C87.5,0.7,98.4,0.7,102.7,0.7 M92.8,12.2
			c0,0,1.2,0,2.5,0c3.3,0,7.2-1.3,7.7-3.8c0.4-2.5-1.6-3.4-4.5-3.5c-1.8,0-2.3,0-2.3,0L92.8,12.2 M102.7,0.2H87.5h-0.3L87,0.5
			L74.3,27.1L74,27.8h0.8h11.1h0.3l0.1-0.3l5.2-10.8H94c3.1,0,3.6,3.9,3.6,6.2c0.1,2.1-0.1,4.4-0.1,4.5v0.5H98h10.6h0.5v-0.5
			c0-0.3-0.3-7.5-0.5-9.6c-0.2-1.6-0.9-2.4-1.5-2.9c1.8-0.9,5.5-3.1,7-7.6c0.5-1.5,0.3-2.9-0.5-4C112.1,1.2,108.5,0.2,102.7,0.2
			L102.7,0.2z M96.5,5.4h2c1.8,0.1,3.1,0.5,3.6,1.2c0.4,0.4,0.5,1,0.4,1.8c-0.4,2.1-4,3.4-7.2,3.4h-1.7L96.5,5.4L96.5,5.4z"/>
	</g>
</g>
</svg>
