<?xml version="1.0" encoding="utf-8"?>
<!-- Generator: Adobe Illustrator 22.1.0, SVG Export Plug-In . SVG Version: 6.00 Build 0)  -->
<svg version="1.1" id="Layer_1" xmlns="http://www.w3.org/2000/svg" xmlns:xlink="http://www.w3.org/1999/xlink" x="0px" y="0px"
	 viewBox="0 0 825.2 144.8" style="enable-background:new 0 0 825.2 144.8;" xml:space="preserve">
<style type="text/css">
	.st0{fill:#0060A9;}
</style>
<g>
	<path class="st0" d="M323.8,41.2c-8.1,0-14.4-3.1-16.8-8.4c-1.4-3.1-1.4-6.8,0-10.7c2.6-7,9.4-13.5,18.4-17.5
		c5.4-2.4,11.1-3.8,16.4-3.8c8.1,0,14.4,3.1,16.8,8.4c4,9-4.1,21.7-18.3,28.2C334.8,39.9,329.1,41.2,323.8,41.2L323.8,41.2z
		 M336.1,13.2c-2,0-4.1,0.6-6.3,1.4c-3.4,1.6-6.1,4.1-7,6.8c-0.6,1.4-0.4,2.7,0,3.8c1,2,3.3,3.1,6.4,3.1c2,0,4.1-0.6,6.3-1.4
		c3.4-1.6,6.1-4.1,7-6.8c0.6-1.4,0.4-2.7,0-3.8C341.5,14.4,339.1,13.2,336.1,13.2z"/>
	<path class="st0" d="M83.1,41.2c-8.1,0-14.4-3.1-16.8-8.4c-1.4-3.1-1.4-6.8,0-10.7c2.6-7,9.4-13.5,18.4-17.5
		c5.4-2.4,11.1-3.8,16.4-3.8c8.1,0,14.4,3.1,16.8,8.4c1.4,3.1,1.4,6.7,0.1,10.6c-2.6,7-9.4,13.5-18.4,17.8
		C94.1,39.9,88.4,41.2,83.1,41.2L83.1,41.2z M95.5,13.2c-2,0-4.1,0.6-6.3,1.4c-3.4,1.6-6.1,4.1-7,6.8c-0.6,1.4-0.4,2.7,0,3.8
		c0.9,2,3.3,3.1,6.4,3.1c2,0,4.3-0.6,6.3-1.4c3.4-1.6,6.1-4.1,7-6.8c0.6-1.4,0.4-2.7,0-3.8C100.9,14.4,98.5,13.2,95.5,13.2z"/>
	<polygon class="st0" points="778.2,40.3 765.5,21.5 756.8,40.3 740.9,40.3 758.8,1.8 773.8,1.8 786.2,20.5 794.8,1.8 810.6,1.8 
		792.6,40.3 	"/>
	<polygon class="st0" points="40.9,40.3 28.2,21.5 19.5,40.3 3.7,40.3 21.7,1.8 36.6,1.8 49,20.5 57.6,1.8 73.4,1.8 55.3,40.3 	"/>
	<path class="st0" d="M351.3,40.3l17.8-38.5h20.7c7,0,11.7,1,14.3,3.1c2.6,2.1,2.9,5.1,1,9.3c-2,4.1-5.1,7.3-9.6,9.4
		c-4.3,2.1-9.8,3.1-16.5,3.1h-5l-6.3,13.5H351.3z M379.7,19c2.6,0,4.7-0.4,6.3-1.3c1.4-0.6,2.6-1.9,3.6-3.7c0.7-1.6,0.9-2.7,0.1-3.4
		c-0.4-0.6-1.6-1.1-4.7-1.1h-3l-4.7,9.6H379.7z"/>
	<polygon class="st0" points="232.8,40.3 239.7,26.5 224,26.5 217.1,40.3 200.2,40.3 218.9,1.8 236,1.8 229.3,15.7 245,15.7 
		251.7,1.8 268.8,1.8 249.9,40.3 	"/>
	<polygon class="st0" points="167.8,40.3 181.6,12.5 167.7,12.5 172.8,1.8 216.7,1.8 211.6,12.5 197.6,12.5 183.8,40.3 	"/>
	<path class="st0" d="M543.2,41.1c-8,0-13.4-1.6-16.1-4.7s-2.7-7.7,0.1-13.8l9.4-20.7h16.5l-9.6,20.8c-1.1,2.4-1.4,4.4-0.7,5.7
		c0.7,1.1,2.4,1.9,5,1.9c2.6,0,4.8-0.6,7-2c1.9-1.3,3.4-3.1,4.7-5.8L569.1,2h16.4l-9.7,21.1c-2.7,5.8-6.8,10.4-12.3,13.5
		C557.8,39.6,551.1,41.1,543.2,41.1z"/>
	<path class="st0" d="M723.8,40.3l0.1-6.4h-19.1l-6.1,6.4h-16.3l38.8-38.5h16.4l2,38.5H723.8z M724.2,26.1l0.3-12.7l-12.1,12.7
		H724.2z"/>
	<polygon class="st0" points="570.6,40.5 570.6,39.9 588.6,1.8 603.8,1.8 608.5,16.5 626.8,1.8 642.3,1.8 624.2,40.3 608.3,40.3 
		618,19.9 600.1,34.5 595.6,20.4 586,40.5 	"/>
	<polygon class="st0" points="628.1,40.5 628.1,39.9 645.9,1.8 661.2,1.8 665.9,16.5 684.1,1.8 699.7,1.8 681.4,40.3 665.4,40.3 
		675.1,19.9 657.3,34.5 652.7,20.4 643.2,40.5 	"/>
	<path class="st0" d="M85.7,139.6l1-0.7C200.6,59,490.5,49.7,698.5,49.7c22.4,0,43.5,0.1,62,0.1L820,50l-0.1,4.6l-58.2-0.1
		c-18.5-0.1-41.6-0.3-66.2-0.3c-85.7,0-213.2,1.4-331.1,14c-132.2,14-224.9,39.1-275.3,74.4l-1,0.9L85.7,139.6z"/>
	<path class="st0" d="M451.7,41.1c-3.8,0-7.1-0.4-9.4-1.3c-6.4-2.3-10-5.7-10.8-10.4c-1-6.8,4.7-15.3,10.6-19.7
		C449.7,4,458.3,1,467.7,1c9.6,0,16.4,3.1,16.5,3.3l0.3,0.1l-4.1,9.7l-0.3-0.1c0,0-5.4-3-12.3-3c-1.4,0-3,0.1-4.4,0.4
		c-9.3,1.6-15.1,9.8-14.4,14.3c0.9,4.3,4.7,5.1,7.8,5.1c1.7,0,3.1-0.3,3.6-0.4l1.9-3.6h-6l4.6-8.6h17.8l-9.8,21.1h-0.1
		C468.5,39.3,459.8,41.1,451.7,41.1z"/>
	<path class="st0" d="M505.6,40.5v-0.4c0,0,0.3-3.4,0.1-6.4c0-3.4-0.7-9.3-5.4-9.3h-3.7l-7.6,16h-16.7l18.4-38.6h22
		c8.1,0,13.3,1.4,15.3,4.3c1.1,1.4,1.3,3.3,0.6,5.4c-2.3,6.7-8.1,10-10.4,10.8c0.9,0.6,2.3,1.7,2.6,4.3c0.3,3,0.7,13.5,0.7,13.7v0.4
		L505.6,40.5L505.6,40.5z M502.2,18.2c4.7,0,10-1.9,10.7-5.1c0.1-1.1,0-2.1-0.6-2.9c-0.9-1.1-2.7-1.7-5.4-1.7h-3l-4.6,9.7
		C499.3,18.2,502.2,18.2,502.2,18.2z"/>
	<path class="st0" d="M287.4,40.5v-0.4c0,0,0.3-3.4,0.1-6.4c0-3.4-0.7-9.3-5.6-9.3h-3.7l-7.4,16h-16.7l18.3-38.6h22
		c8,0,13.1,1.4,15.3,4.3c1.1,1.4,1.3,3.3,0.7,5.4c-2.3,6.8-8.1,10-10.4,10.8c0.9,0.6,2.3,1.7,2.6,4.3c0.3,3,0.7,13.5,0.7,13.7v0.4
		L287.4,40.5L287.4,40.5z M283.9,18.2c4.7,0,10-1.9,10.7-5.1c0.3-1.1,0.1-2.1-0.4-2.7c-0.9-1.1-2.7-1.7-5.6-1.9h-3l-4.7,9.7
		C280.9,18.2,283.9,18.2,283.9,18.2z"/>
	<path class="st0" d="M143.6,40.5v-0.4c0,0,0.3-3.4,0.1-6.4c0-3.4-0.7-9.3-5.6-9.3h-3.7l-7.6,15.8h-16.5l18.4-38.4h22
		c8.1,0,13.3,1.4,15.3,4.3c1.1,1.4,1.3,3.3,0.6,5.4c-2.3,6.7-8.1,10-10.4,10.8c0.9,0.6,2.3,1.7,2.6,4.3c0.3,3,0.7,13.5,0.7,13.7v0.4
		h-15.8V40.5z M140.2,18.2c4.7,0,10-1.9,10.7-5.1c0.1-1.1,0-2.1-0.6-2.9c-0.9-1.1-2.7-1.7-5.4-1.7h-3l-4.7,9.7
		C137.2,18.2,140.2,18.2,140.2,18.2z"/>
</g>
</svg>
