<?xml version="1.0" encoding="utf-8"?>
<!-- Generator: Adobe Illustrator 22.1.0, SVG Export Plug-In . SVG Version: 6.00 Build 0)  -->
<svg version="1.1" id="Layer_1" xmlns="http://www.w3.org/2000/svg" xmlns:xlink="http://www.w3.org/1999/xlink" x="0px" y="0px"
	 viewBox="0 0 573.2 100.6" style="enable-background:new 0 0 573.2 100.6;" xml:space="preserve">
<style type="text/css">
	.st0{fill:#0060A9;}
	.st1{fill:#FFFFFF;}
</style>
<g>
	<g>
		<path class="st0" d="M224.1,29.3c-5.7,0-10.1-2.2-11.8-5.9c-1-2.2-1-4.8,0-7.5c1.8-4.9,6.6-9.5,12.9-12.3
			c3.8-1.7,7.8-2.7,11.5-2.7c5.7,0,10.1,2.2,11.8,5.9c2.8,6.3-2.9,15.2-12.8,19.8C231.8,28.4,227.8,29.3,224.1,29.3L224.1,29.3z
			 M232.7,9.7c-1.4,0-2.9,0.4-4.4,1c-2.4,1.1-4.3,2.9-4.9,4.8c-0.4,1-0.3,1.9,0,2.7c0.7,1.4,2.3,2.2,4.5,2.2c1.4,0,2.9-0.4,4.4-1
			c2.4-1.1,4.3-2.9,4.9-4.8c0.4-1,0.3-1.9,0-2.7C236.5,10.5,234.8,9.7,232.7,9.7z"/>
		<path class="st1" d="M236.6,1.2c5.4,0,9.9,2,11.6,5.7c2.8,6.2-2.9,14.9-12.7,19.5c-3.9,1.8-7.8,2.6-11.4,2.6
			c-5.4,0-9.9-2-11.6-5.7c-2.9-6.3,2.8-15,12.7-19.5C229.1,2,233,1.2,236.6,1.2 M227.9,20.6c1.4,0,3-0.3,4.5-1
			c3.9-1.8,6.2-5.3,5-7.8c-0.7-1.5-2.5-2.3-4.7-2.3c-1.4,0-3,0.3-4.5,1c-3.9,1.8-6.2,5.3-5,7.8C223.9,19.8,225.7,20.6,227.9,20.6
			 M236.6,0.7c-3.8,0-7.8,0.9-11.6,2.7c-6.3,2.9-11.2,7.5-13,12.4c-1,2.8-1,5.4,0,7.7c1.8,3.8,6.3,6,12.1,6c3.8,0,7.8-0.9,11.6-2.7
			c10-4.7,15.8-13.8,12.9-20.2C246.9,2.9,242.4,0.7,236.6,0.7L236.6,0.7z M227.9,20.1c-2.1,0-3.7-0.8-4.3-2.1
			c-0.3-0.7-0.4-1.6,0-2.5c0.6-1.8,2.5-3.5,4.8-4.6c1.4-0.7,2.9-1,4.3-1c2.1,0,3.7,0.8,4.3,2.1c0.3,0.7,0.4,1.6,0,2.5
			c-0.6,1.8-2.5,3.5-4.8,4.6C230.8,19.8,229.3,20.1,227.9,20.1L227.9,20.1z"/>
	</g>
	<g>
		<path class="st0" d="M55.3,29.3c-5.7,0-10.1-2.2-11.8-5.9c-1-2.2-1-4.8,0-7.5c1.8-4.9,6.6-9.5,12.9-12.3c3.8-1.7,7.8-2.7,11.5-2.7
			c5.7,0,10.1,2.2,11.8,5.9c1,2.2,1,4.7,0.1,7.4c-1.8,4.9-6.6,9.5-12.9,12.5C63,28.4,59,29.3,55.3,29.3L55.3,29.3z M64,9.7
			c-1.4,0-2.9,0.4-4.4,1c-2.4,1.1-4.3,2.9-4.9,4.8c-0.4,1-0.3,1.9,0,2.7c0.6,1.4,2.3,2.2,4.5,2.2c1.4,0,3-0.4,4.4-1
			c2.4-1.1,4.3-2.9,4.9-4.8c0.4-1,0.3-1.9,0-2.7C67.8,10.5,66.1,9.7,64,9.7z"/>
		<path class="st1" d="M67.8,1.2c5.4,0,9.9,2,11.6,5.7c2.9,6.2-2.8,14.9-12.7,19.5c-3.9,1.8-7.8,2.6-11.4,2.6c-5.4,0-9.9-2-11.6-5.7
			c-2.9-6.3,2.8-15,12.7-19.5C60.3,2,64.2,1.2,67.8,1.2 M59.2,20.6c1.4,0,3-0.3,4.5-1c3.9-1.8,6.2-5.3,5-7.8
			C68,10.3,66.2,9.5,64,9.5c-1.4,0-3,0.3-4.5,1c-3.9,1.8-6.2,5.3-5,7.8C55.2,19.8,57,20.6,59.2,20.6 M67.8,0.7
			C64,0.7,60,1.6,56.2,3.3c-6.3,2.9-11.2,7.6-13,12.5c-1,2.8-1,5.4,0,7.7c1.8,3.8,6.3,6,12.1,6c3.8,0,7.8-0.9,11.6-2.7
			c6.4-3,11.2-7.7,13-12.6c1-2.7,1-5.3-0.1-7.6C78.1,2.9,73.6,0.7,67.8,0.7L67.8,0.7z M59.2,20.1c-2.1,0-3.7-0.8-4.2-2
			c-0.4-0.7-0.4-1.6,0-2.5c0.6-1.8,2.5-3.5,4.8-4.6c1.4-0.7,2.9-1,4.3-1c2.1,0,3.7,0.8,4.3,2.1c0.3,0.7,0.4,1.6,0,2.5
			c-0.6,1.8-2.5,3.5-4.8,4.6C62.1,19.8,60.6,20.1,59.2,20.1L59.2,20.1z"/>
	</g>
	<g>
		<polygon class="st0" points="542.8,28.7 533.9,15.5 527.8,28.7 516.6,28.7 529.2,1.7 539.7,1.7 548.4,14.8 554.4,1.7 565.5,1.7 
			552.9,28.7 		"/>
		<path class="st1" d="M565.1,2l-12.4,26.5h-9.8l-9-13.5l-6.3,13.5H517L529.4,2h10.2l8.8,13.3L554.6,2L565.1,2 M565.9,1.5h-0.8
			h-10.5h-0.3l-0.1,0.3l-5.8,12.5L540,1.7l-0.1-0.2h-0.3h-10.2h-0.3L529,1.8l-12.4,26.5l-0.3,0.7h0.8h10.6h0.3l0.1-0.3L534,16
			l8.5,12.8l0.1,0.2h0.3h9.8h0.3l0.1-0.3l12.5-26.5L565.9,1.5L565.9,1.5z"/>
	</g>
	<g>
		<polygon class="st0" points="25.7,28.7 16.8,15.5 10.7,28.7 -0.4,28.7 12.2,1.7 22.7,1.7 31.4,14.8 37.4,1.7 48.5,1.7 35.8,28.7 
					"/>
		<path class="st1" d="M48.1,2L35.6,28.5h-9.8l-9-13.5l-6.3,13.5H0L12.4,2h10.2l8.8,13.3L37.6,2L48.1,2 M48.9,1.5h-0.8H37.6h-0.3
			l-0.1,0.3l-5.8,12.5L23,1.7l-0.1-0.2h-0.3H12.4h-0.3L12,1.8L-0.5,28.3L-0.8,29H0h10.5h0.3l0.1-0.3L16.8,16l8.5,12.8l0.1,0.2h0.3
			h9.8h0.3l0.1-0.3L48.6,2.2L48.9,1.5L48.9,1.5z"/>
	</g>
	<g>
		<path class="st0" d="M243.4,28.7l12.5-27h14.5c4.9,0,8.2,0.7,10,2.2s2,3.6,0.7,6.5c-1.4,2.9-3.6,5.1-6.7,6.6
			c-3,1.5-6.9,2.2-11.6,2.2h-3.5l-4.4,9.5H243.4z M263.3,13.7c1.8,0,3.3-0.3,4.4-0.9c1-0.4,1.8-1.3,2.5-2.6c0.5-1.1,0.6-1.9,0.1-2.4
			C270,7.4,269.2,7,267,7h-2.1l-3.3,6.7H263.3z"/>
		<path class="st1" d="M270.4,2c4.7,0,8.1,0.7,9.8,2.1c1.7,1.4,1.9,3.4,0.6,6.2c-1.4,2.9-3.6,5-6.6,6.5c-3,1.5-6.9,2.2-11.5,2.2H259
			l-4.4,9.5h-10.8L256.1,2L270.4,2 M261.2,14h2.1c1.9,0,3.4-0.3,4.5-0.9c1.2-0.5,2-1.5,2.6-2.7s0.6-2.1,0.1-2.7s-1.7-0.9-3.5-0.9
			h-2.3L261.2,14 M270.4,1.5h-14.3h-0.3l-0.1,0.3l-12.3,26.5l-0.3,0.7h0.8h10.8h0.3l0.1-0.3l4.3-9.2h3.4c4.8,0,8.7-0.8,11.7-2.3
			c3.2-1.6,5.4-3.8,6.8-6.7c1.4-3,1.2-5.2-0.7-6.8C278.7,2.2,275.3,1.5,270.4,1.5L270.4,1.5z M265,7.3h2c2.2,0,2.9,0.5,3.1,0.7
			c0.4,0.5,0.3,1.2-0.2,2.2c-0.6,1.3-1.4,2.1-2.3,2.5l0,0l0,0c-1,0.6-2.5,0.8-4.3,0.8H262L265,7.3L265,7.3z"/>
	</g>
	<g>
		<polygon class="st0" points="160.3,28.7 165.1,19 154.1,19 149.3,28.7 137.4,28.7 150.5,1.7 162.5,1.7 157.8,11.4 168.8,11.4 
			173.5,1.7 185.5,1.7 172.3,28.7 		"/>
		<path class="st1" d="M185.1,2l-13,26.5h-11.4l4.8-9.8h-11.6l-4.8,9.8h-11.3L150.7,2h11.4l-4.7,9.7H169l4.7-9.7L185.1,2 M185.9,1.5
			h-0.8h-11.4h-0.3l-0.1,0.3l-4.6,9.4h-10.5l4.4-9l0.3-0.7h-0.8h-11.4h-0.3l-0.1,0.3l-12.9,26.5l-0.3,0.7h0.8h11.3h0.3l0.1-0.3
			l4.7-9.5h10.5l-4.4,9.1L160,29h0.8h11.4h0.3l0.1-0.3l13-26.5L185.9,1.5L185.9,1.5z"/>
	</g>
	<g>
		<polygon class="st0" points="114.7,28.7 124.4,9.2 114.6,9.2 118.2,1.7 149,1.7 145.4,9.2 135.6,9.2 125.9,28.7 		"/>
		<path class="st1" d="M148.6,2l-3.4,6.9h-9.8l-9.7,19.6h-10.6l9.7-19.6H115l3.4-6.9L148.6,2 M149.4,1.5h-0.8h-30.2h-0.3L118,1.8
			l-3.4,6.9l-0.4,0.7h0.8h9l-9.3,18.9l-0.4,0.7h0.8h10.6h0.3l0.1-0.3l9.6-19.3h9.5h0.3l0.1-0.3l3.4-6.9L149.4,1.5L149.4,1.5z"/>
	</g>
	<g>
		<path class="st0" d="M378,29.2c-5.6,0-9.4-1.1-11.3-3.3s-1.9-5.4,0.1-9.7l6.6-14.5H385l-6.7,14.6c-0.8,1.7-1,3.1-0.5,4
			c0.5,0.8,1.7,1.3,3.5,1.3s3.4-0.4,4.9-1.4c1.3-0.9,2.4-2.2,3.3-4.1l6.6-14.3h11.5l-6.8,14.8c-1.9,4.1-4.8,7.3-8.6,9.5
			C388.2,28.2,383.5,29.2,378,29.2z"/>
		<path class="st1" d="M407.1,2l-6.6,14.4c-1.9,4.2-4.8,7.3-8.5,9.4c-3.8,2.1-8.5,3.2-14,3.2c-5.6,0-9.3-1.1-11.1-3.2
			c-1.8-2.1-1.8-5.2,0.1-9.4L373.5,2h11L378,16.2c-0.9,1.9-1,3.3-0.5,4.2c0.5,0.9,1.8,1.4,3.7,1.4c2,0,3.6-0.5,5-1.4
			s2.5-2.3,3.4-4.2L396.1,2L407.1,2 M407.9,1.5h-0.8h-11h-0.3l-0.1,0.3L389.2,16c-0.9,1.9-1.9,3.2-3.2,4c-1.4,0.9-2.9,1.3-4.7,1.3
			c-1.7,0-2.9-0.4-3.3-1.1c-0.4-0.8-0.3-2.1,0.5-3.7L385,2.2l0.3-0.7h-0.8h-11h-0.3L373,1.8l-6.5,14.4c-2,4.3-2,7.7,0,9.9
			c1.9,2.2,5.8,3.4,11.5,3.4c5.5,0,10.3-1.1,14.2-3.3c3.9-2.2,6.8-5.4,8.7-9.6l6.7-14.4L407.9,1.5L407.9,1.5z"/>
	</g>
	<g>
		<path class="st0" d="M504.6,28.7l0.1-4.5h-13.4l-4.3,4.5h-11.4l27.2-27h11.5l1.4,27H504.6z M504.9,18.7l0.2-8.9l-8.5,8.9H504.9z"
			/>
		<path class="st1" d="M514.1,2l1.4,26.5h-10.6L505,24h-13.8l-4.3,4.5h-10.7L502.9,2L514.1,2 M496,18.9h9.1l0.2-9.8L496,18.9
			 M514.6,1.5h-0.5h-11.2h-0.2l-0.1,0.1l-26.7,26.5L475,29h1.2h10.7h0.2l0.1-0.2l4.2-4.3h13.1l-0.1,4V29h0.5h10.6h0.5v-0.5L514.6,2
			V1.5L514.6,1.5z M497.2,18.4l7.6-8l-0.2,8H497.2L497.2,18.4z"/>
	</g>
	<g>
		<polygon class="st0" points="397.2,28.8 397.2,28.4 409.8,1.7 420.5,1.7 423.8,12 436.6,1.7 447.5,1.7 434.8,28.7 423.6,28.7 
			430.4,14.4 417.9,24.6 414.7,14.7 408,28.8 		"/>
		<path class="st1" d="M447.1,2l-12.5,26.5H424l7.1-15L418,24.2L414.7,14l-6.9,14.6h-10.3v-0.1l0,0L410,2h10.3l3.4,10.4l13-10.4
			L447.1,2 M447.9,1.5h-0.8h-10.4h-0.2l-0.1,0.1l-12.4,10l-3.2-9.7l-0.1-0.3h-0.4H410h-0.3l-0.1,0.3L397,28.3v0.1v0.1v0.1v0.5h0.5
			h10.3h0.3l0.1-0.3l6.4-13.5l2.9,9l0.2,0.7l0.6-0.5l11.4-9.3l-6.2,13l-0.3,0.7h0.8h10.6h0.3l0.1-0.3l12.6-26.4L447.9,1.5L447.9,1.5
			z"/>
	</g>
	<g>
		<polygon class="st0" points="437.5,28.8 437.5,28.4 450,1.7 460.7,1.7 464,12 476.8,1.7 487.7,1.7 474.9,28.7 463.7,28.7 
			470.5,14.4 458,24.6 454.8,14.7 448.1,28.8 		"/>
		<path class="st1" d="M487.3,2l-12.6,26.5h-10.6l7.1-15l-13.1,10.7L454.8,14l-6.9,14.6h-10.2v-0.1L450.2,2h10.3l3.4,10.4l13-10.4
			L487.3,2 M488.1,1.5h-0.8h-10.4h-0.2l-0.1,0.1l-12.4,9.9L461,1.8l-0.1-0.3h-0.4h-10.3h-0.3l-0.1,0.3l-12.5,26.5v0.1v0.1v0.1v0.5
			h0.5H448h0.3l0.1-0.3l6.4-13.5l2.9,9l0.2,0.7l0.6-0.5l11.4-9.3l-6.2,13l-0.3,0.7h0.8h10.6h0.3l0.1-0.3l12.6-26.4L488.1,1.5
			L488.1,1.5z"/>
	</g>
	<g>
		<path class="st0" d="M57.1,98.3l0.7-0.5c79.9-56,283.2-62.5,429.1-62.5c15.7,0,30.5,0.1,43.5,0.1l41.7,0.1l-0.1,3.2l-40.8-0.1
			c-13-0.1-29.2-0.2-46.4-0.2c-60.1,0-149.5,1-232.2,9.8C159.9,58,94.9,75.6,59.5,100.4l-0.7,0.6L57.1,98.3z"/>
		<path class="st1" d="M486.9,35.6c16.1,0,31,0.1,44.3,0.1l40.6,0.1l-0.1,2.7l-40.6-0.1c-13.9-0.1-29.5-0.2-46.4-0.2
			c-132.9,0-344.5,5.4-425.3,62l-0.5,0.4l-1.5-2.2l0.5-0.4C139.7,40.6,353.7,35.6,486.9,35.6 M486.9,35.1c-60.7,0-150.9,1-233.8,9.7
			C159.3,54.6,93.6,72.4,57.6,97.6L57.1,98l-0.4,0.3l0.3,0.4l1.5,2.2l0.3,0.4l0.4-0.3l0.5-0.4C95,75.8,159.9,58.3,252.5,48.5
			c82.7-8.7,172.1-9.8,232.2-9.8c17.2,0,33.4,0.1,46.4,0.2l40.6,0.1h0.5v-0.5l0.1-2.7v-0.5h-0.5l-40.6-0.1h-0.8
			C517.4,35.1,502.6,35.1,486.9,35.1L486.9,35.1z"/>
	</g>
	<g>
		<path class="st0" d="M313.8,29.2c-2.7,0-5-0.3-6.6-0.9c-4.5-1.6-7-4-7.6-7.3c-0.7-4.8,3.3-10.7,7.4-13.8c5.4-4,11.4-6.1,18-6.1
			c6.7,0,11.5,2.2,11.6,2.3l0.2,0.1l-2.9,6.8l-0.2-0.1c0,0-3.8-2.1-8.6-2.1c-1,0-2.1,0.1-3.1,0.3c-6.5,1.1-10.6,6.9-10.1,10
			c0.6,3,3.3,3.6,5.5,3.6c1.2,0,2.2-0.2,2.5-0.3l1.3-2.5H317l3.2-6h12.5L325.8,28h-0.1C325.6,28,319.5,29.2,313.8,29.2z"/>
		<path class="st1" d="M325,1.4c6.7,0,11.5,2.2,11.5,2.2l-2.7,6.3c0,0-3.8-2.1-8.8-2.1c-1,0-2.1,0.1-3.1,0.3
			c-6.8,1.2-10.8,7.1-10.3,10.3c0.7,3.2,3.5,3.8,5.7,3.8c1.5,0,2.7-0.3,2.7-0.3l1.6-3h-4.2l2.9-5.5h12l-6.7,14.3
			c0,0-6.1,1.2-11.8,1.2c-2.4,0-4.7-0.2-6.5-0.8c-13.3-4.6-6-16.3-0.1-20.7C313.5,2.7,319.8,1.4,325,1.4 M325,0.9
			c-6.6,0-12.7,2.1-18.1,6.1c-3.5,2.6-8.4,8.5-7.5,14c0.5,3.4,3.1,6,7.7,7.5c1.7,0.6,3.9,0.9,6.7,0.9c5.7,0,11.8-1.2,11.9-1.3
			l0.2-0.1l0.1-0.2l6.7-14.3l0.3-0.7h-0.8h-12H320l-0.1,0.3l-2.9,5.5l-0.4,0.7h0.8h3.4l-1.1,2.1c-0.4,0.1-1.3,0.2-2.4,0.2
			c-3,0-4.8-1.1-5.2-3.4c-0.5-3,3.6-8.6,9.9-9.7c1-0.2,2-0.3,3.1-0.3c4.8,0,8.5,2,8.5,2l0.5,0.3l0.2-0.5l2.7-6.3l0.2-0.4l-0.4-0.2
			C336.5,3.1,331.8,0.9,325,0.9L325,0.9z"/>
	</g>
	<g>
		<path class="st0" d="M351.6,28.8v-0.3c0,0,0.2-2.4,0.1-4.5c0-2.4-0.5-6.5-3.8-6.5h-2.6L340,28.7h-11.7l12.9-27.1h15.4
			c5.7,0,9.3,1,10.7,3c0.8,1,0.9,2.3,0.4,3.8c-1.6,4.7-5.7,7-7.3,7.6c0.6,0.4,1.6,1.2,1.8,3c0.2,2.1,0.5,9.5,0.5,9.6v0.3L351.6,28.8
			L351.6,28.8z M349.2,13.2c3.3,0,7-1.3,7.5-3.6c0.1-0.8,0-1.5-0.4-2c-0.6-0.8-1.9-1.2-3.8-1.2h-2.1l-3.2,6.8H349.2z"/>
		<path class="st1" d="M356.6,1.9c10.3,0,11.9,3.3,10.9,6.4c-1.9,5.8-7.7,7.7-7.7,7.7s1.9,0.4,2.2,3c0.2,2.1,0.5,9.6,0.5,9.6h-10.6
			c0,0,0.2-2.4,0.1-4.5c0-2.1-0.4-6.7-4.1-6.7c-1.2,0-2.8,0-2.8,0l-5.3,11.1h-11.1l12.7-26.6C341.4,1.9,352.3,1.9,356.6,1.9
			 M346.7,13.4c0,0,1.2,0,2.5,0c3.3,0,7.2-1.3,7.7-3.8c0.4-2.5-1.6-3.4-4.5-3.5c-1.8,0-2.3,0-2.3,0L346.7,13.4 M356.6,1.4h-15.2
			h-0.3L341,1.7l-12.7,26.6L328,29h0.8h11.1h0.3l0.1-0.3l5.2-10.8h2.5c3.1,0,3.6,3.9,3.6,6.2c0.1,2.1-0.1,4.4-0.1,4.5v0.5h0.5h10.6
			h0.5v-0.5c0-0.3-0.3-7.5-0.5-9.6c-0.2-1.6-0.9-2.4-1.5-2.9c1.8-0.9,5.5-3.1,7-7.6c0.5-1.5,0.3-2.9-0.5-4
			C366,2.4,362.4,1.4,356.6,1.4L356.6,1.4z M350.4,6.6h2c1.8,0.1,3.1,0.5,3.6,1.2c0.4,0.4,0.5,1,0.4,1.8c-0.4,2.1-4,3.4-7.2,3.4
			h-1.7L350.4,6.6L350.4,6.6z"/>
	</g>
	<g>
		<path class="st0" d="M198.6,28.8v-0.3c0,0,0.2-2.4,0.1-4.5c0-2.4-0.5-6.5-3.9-6.5h-2.6L187,28.7h-11.7l12.8-27.1h15.4
			c5.6,0,9.2,1,10.7,3c0.8,1,0.9,2.3,0.5,3.8c-1.6,4.8-5.7,7-7.3,7.6c0.6,0.4,1.6,1.2,1.8,3c0.2,2.1,0.5,9.5,0.5,9.6v0.3L198.6,28.8
			L198.6,28.8z M196.1,13.2c3.3,0,7-1.3,7.5-3.6c0.2-0.8,0.1-1.5-0.3-1.9c-0.6-0.8-1.9-1.2-3.9-1.3h-2.1l-3.3,6.8H196.1z"/>
		<path class="st1" d="M203.5,1.9c10.3,0,11.9,3.3,11,6.4c-1.9,5.8-7.7,7.7-7.7,7.7s1.9,0.4,2.2,3c0.2,2.1,0.5,9.6,0.5,9.6h-10.6
			c0,0,0.2-2.4,0.1-4.5c0-2.1-0.4-6.7-4.1-6.7c-1.2,0-2.8,0-2.8,0l-5.3,11.1h-11.1l12.6-26.6C188.3,1.9,199.2,1.9,203.5,1.9
			 M193.6,13.4c0,0,1.2,0,2.5,0c3.3,0,7.2-1.3,7.7-3.8s-1.5-3.4-4.5-3.5c-1.8,0-2.3,0-2.3,0L193.6,13.4 M203.5,1.4h-15.2H188
			l-0.1,0.3l-12.6,26.6L175,29h0.8h11.1h0.3l0.1-0.3l5.2-10.8h2.5c3.1,0,3.6,3.9,3.6,6.2c0.1,2.1-0.1,4.4-0.1,4.5v0.5h0.5h10.6h0.5
			v-0.5c0-0.3-0.3-7.5-0.5-9.6c-0.2-1.6-0.9-2.4-1.5-2.9c1.8-0.9,5.5-3.1,7-7.6c0.5-1.6,0.3-2.9-0.6-4
			C212.9,2.4,209.2,1.4,203.5,1.4L203.5,1.4z M197.3,6.6h2c1.9,0.1,3.2,0.5,3.7,1.2c0.3,0.4,0.4,1,0.3,1.7c-0.4,2.1-4,3.4-7.2,3.4
			h-1.7L197.3,6.6L197.3,6.6z"/>
	</g>
	<g>
		<path class="st0" d="M97.7,28.8v-0.3c0,0,0.2-2.4,0.1-4.5c0-2.4-0.5-6.5-3.9-6.5h-2.6L86,28.6H74.4L87.3,1.7h15.4
			c5.7,0,9.3,1,10.7,3c0.8,1,0.9,2.3,0.4,3.8c-1.6,4.7-5.7,7-7.3,7.6c0.6,0.4,1.6,1.2,1.8,3c0.2,2.1,0.5,9.5,0.5,9.6V29H97.7V28.8z
			 M95.3,13.2c3.3,0,7-1.3,7.5-3.6c0.1-0.8,0-1.5-0.4-2c-0.6-0.8-1.9-1.2-3.8-1.2h-2.1l-3.3,6.8H95.3z"/>
		<path class="st1" d="M102.7,1.9c10.3,0,11.9,3.3,10.9,6.4c-1.9,5.8-7.7,7.7-7.7,7.7s1.9,0.4,2.2,3c0.2,2.1,0.5,9.6,0.5,9.6H98
			c0,0,0.2-2.4,0.1-4.5c0-2.1-0.4-6.7-4.1-6.7c-1.2,0-2.8,0-2.8,0l-5.3,11.1H74.8L87.5,1.9C87.5,1.9,98.4,1.9,102.7,1.9 M92.8,13.4
			c0,0,1.2,0,2.5,0c3.3,0,7.2-1.3,7.7-3.8c0.4-2.5-1.6-3.4-4.5-3.5c-1.8,0-2.3,0-2.3,0L92.8,13.4 M102.7,1.4H87.5h-0.3L87,1.7
			L74.3,28.3L74,29h0.8h11.1h0.3l0.1-0.3l5.2-10.8H94c3.1,0,3.6,3.9,3.6,6.2c0.1,2.1-0.1,4.4-0.1,4.5v0.5H98h10.6h0.5v-0.5
			c0-0.3-0.3-7.5-0.5-9.6c-0.2-1.6-0.9-2.4-1.5-2.9c1.8-0.9,5.5-3.1,7-7.6c0.5-1.5,0.3-2.9-0.5-4C112.1,2.4,108.5,1.4,102.7,1.4
			L102.7,1.4z M96.5,6.6h2c1.8,0.1,3.1,0.5,3.6,1.2c0.4,0.4,0.5,1,0.4,1.8c-0.4,2.1-4,3.4-7.2,3.4h-1.7L96.5,6.6L96.5,6.6z"/>
	</g>
</g>
</svg>
