<?xml version="1.0" encoding="utf-8"?>
<!-- Generator: Adobe Illustrator 22.1.0, SVG Export Plug-In . SVG Version: 6.00 Build 0)  -->
<svg version="1.1" id="Layer_1" xmlns="http://www.w3.org/2000/svg" xmlns:xlink="http://www.w3.org/1999/xlink" x="0px" y="0px"
	 viewBox="0 0 481.3 143.1" style="enable-background:new 0 0 481.3 143.1;" xml:space="preserve">
<style type="text/css">
	.st0{fill:#222555;stroke:#FFFFFF;stroke-miterlimit:10;}
	.st1{fill:#6DC8C2;stroke:#FFFFFF;stroke-miterlimit:10;}
	.st2{fill:#21BEE7;stroke:#FFFFFF;stroke-miterlimit:10;}
	.st3{fill:#86C440;stroke:#FFFFFF;stroke-miterlimit:10;}
</style>
<path class="st0" d="M172.9,60.8L166,71.5c0,0-14.6-9.4-19.1-1s17.1,5.6,23.8,15s2.8,23.6-7.5,28.1s-25.1,6-38.3-6.9l7.7-10.3
	c0,0,14.8,12.5,21.3,5.3c5-5.5-4.3-7.6-13.5-10.7c-8.3-2.9-13.2-9.7-12.7-19.5c0.4-9.8,11.4-16.2,21.8-16.7S167.2,57.4,172.9,60.8z"
	/>
<path class="st0" d="M186.3,57.1h18.4v36.7c0,2.1,0.8,4.2,2.2,5.7c1.3,1.4,3.3,2.7,5.9,2.7c5.6,0,13.2-7.2,13.3-14.4
	c0.2-7.2,0-30.8,0-30.8h18.4v58h-18V107c0,0-6.3,10.4-16.9,11.2c-13.4,1.1-23.2-3.1-23.2-14.6S186.3,57.1,186.3,57.1z"/>
<path class="st0" d="M260,57.1v57.8h18.6V88.4c0,0,4.9-15.3,20.7-15.3V54.4c0,0-13.7,2.5-20.7,15.7l0.2-13H260z"/>
<path class="st0" d="M351.5,75.5l9.2-11.9c0,0-6.8-7.4-18.2-7.9c-11.3-0.5-20.5,0.9-28.3,9.9S303,89.4,309.5,102
	s18.7,14.6,27.4,14.8s18.6-2.9,23.8-6.5l-9.9-12.4c0,0-3.6,4.7-14.2,3.6s-11.8-8.5-11.5-16.8c0.2-5.4,4.3-13.2,14.6-13.2
	C348.5,71.5,351.5,75.5,351.5,75.5z"/>
<rect x="372.6" y="11" class="st0" width="18.7" height="103.9"/>
<path class="st0" d="M463.9,67.2c-6.6-8.4-18.6-17.5-38.6-10.6c-20,6.9-20.5,21.8-20.5,33.9c0,10.6,11.5,31.9,44.3,26.3l-3.2-16.4
	c0-0.1-15.5,5-21.6-8h44.5C468.8,92.4,471.3,76.5,463.9,67.2z M424.7,81.2c2.3-8.4,6.2-12.9,15.9-12.3c9.7,0.6,10.4,12.3,10.4,12.3
	H424.7z"/>
<path class="st0" d="M49.1,83.4c1.6-2.9,3.4-7,6-7s4.3,3.3,6.5,7s5,7.6,3.6,9.9c-1.6,2.4-6.3,1.8-9.6,1.8c-3.4,0-8.3,0.7-9.8-1.9
	S47.3,86.8,49.1,83.4z"/>
<path class="st1" d="M73.8,94c3.6-4,7.1-4.2,10-3.8c2.9,0.4,4.6,2.7,6.1,2.1s2.5-5.4,0.6-12.5c-0.9-3.4-2.4-8.3-0.5-10.5
	s5.8-2.4,7.8,0s3.3,13.1,3.2,18.6s-1.2,13.7-6.4,21.9c-5.2,8.1-10.9,13.3-19.4,17.6c-8.6,4.3-15.6,4.1-15.9-0.8
	c-0.4-4.9,2.8-5.2,7.3-6.6s12.6-5.7,12.3-8c-0.3-2.3-2.9-1.1-5.3-4.9S70.5,97.7,73.8,94z"/>
<path class="st2" d="M53.6,65.4c-5.2-1.2-7.1-4.2-8.2-6.9c-1.1-2.7,0.1-5.3-1.2-6.3s-5.9,0.4-11.2,5.5c-2.5,2.4-6.1,6.2-9,5.5
	s-4.9-3.9-3.8-6.8c1.1-2.9,9.9-9.3,14.8-11.8s12.6-5.6,22.3-5s16.9,3.1,24.8,8.5s11.1,11.6,7,14.3s-5.9,0.1-9.3-3.2
	S68.7,51,66.9,52.3s0.5,3.1-1.7,7C63.2,63.3,58.5,66.6,53.6,65.4z"/>
<path class="st3" d="M38.5,97.4c1.5,5.1-0.3,8.3-2.1,10.5s-4.7,2.5-5,4.1s3.3,5,10.3,7.1c3.4,1,8.4,2.3,9.1,5.2s-1.1,6.2-4.1,6.6
	s-12.9-4.1-17.5-7.2s-11-8.3-15.2-17S8.6,90.4,9.4,80.8s4.8-15.4,9.1-13.1s3,5.2,1.7,9.7C19,82,18.4,91.1,20.5,92.1s2.5-1.9,7-1.9
	S37.2,92.6,38.5,97.4z"/>
</svg>
