<?xml version="1.0" encoding="utf-8"?>
<!-- Generator: Adobe Illustrator 22.1.0, SVG Export Plug-In . SVG Version: 6.00 Build 0)  -->
<svg version="1.1" id="Layer_1" xmlns="http://www.w3.org/2000/svg" xmlns:xlink="http://www.w3.org/1999/xlink" x="0px" y="0px"
	 viewBox="0 0 795.3 215" style="enable-background:new 0 0 795.3 215;" xml:space="preserve">
<style type="text/css">
	.st0{fill:#222555;}
	.st1{fill:#6DC8C2;}
	.st2{fill:#21BEE7;}
	.st3{fill:#86C440;}
</style>
<g>
	<path class="st0" d="M283,89.6l-11.8,18.3c0,0-24.9-16.1-32.6-1.7c-7.7,14.3,29.2,9.6,40.6,25.6c11.4,16.1,4.8,40.3-12.8,48
		c-17.6,7.7-42.9,10.2-65.4-11.8l13.1-17.6c0,0,25.3,21.3,36.4,9.1c8.5-9.4-7.3-13-23.1-18.3c-14.2-5-22.5-16.6-21.7-33.3
		c0.7-16.7,19.5-27.7,37.2-28.5C260.8,78.5,273.3,83.8,283,89.6z"/>
	<path class="st0" d="M305.9,83.3h31.4V146c0,3.6,1.4,7.2,3.8,9.7c2.2,2.4,5.6,4.6,10.1,4.6c9.6,0,22.5-12.3,22.7-24.6
		c0.3-12.3,0-52.6,0-52.6h31.4v99h-30.7v-13.7c0,0-10.8,17.8-28.9,19.1c-22.9,1.9-39.6-5.3-39.6-24.9S305.9,83.3,305.9,83.3z"/>
	<path class="st0" d="M431.7,83.3V182h31.8v-45.3c0,0,8.4-26.1,35.4-26.1V78.7c0,0-23.4,4.3-35.4,26.8l0.3-22.2H431.7z"/>
	<path class="st0" d="M588,114.7l15.7-20.3c0,0-11.6-12.6-31.1-13.5c-19.3-0.9-35,1.5-48.3,16.9c-13.3,15.4-19.1,40.6-8,62.2
		c11.1,21.5,31.9,24.9,46.8,25.3s31.8-5,40.6-11.1L586.8,153c0,0-6.1,8-24.2,6.1c-18.1-1.9-20.2-14.5-19.6-28.7
		c0.3-9.2,7.3-22.5,24.9-22.5C582.9,107.9,588,114.7,588,114.7z"/>
	<rect x="624" y="4.6" class="st0" width="31.9" height="177.4"/>
	<path class="st0" d="M779.9,100.5c-11.3-14.3-31.8-29.9-65.9-18.1c-34.2,11.8-35,37.2-35,57.9c0,18.1,19.6,54.5,75.7,44.9l-5.5-28
		c0-0.2-26.5,8.5-36.9-13.7h76C788.3,143.6,792.6,116.4,779.9,100.5z M713,124.4c3.9-14.3,10.6-22,27.2-21c16.6,1,17.8,21,17.8,21
		H713z"/>
	<path class="st0" d="M71.6,128.2c2.7-5,5.8-12,10.2-12s7.3,5.6,11.1,12c3.8,6.3,8.5,13,6.1,16.9c-2.7,4.1-10.8,3.1-16.4,3.1
		c-5.8,0-14.2,1.2-16.7-3.2C63.4,140.5,68.5,134,71.6,128.2z"/>
	<path class="st1" d="M113.7,146.3c6.1-6.8,12.1-7.2,17.1-6.5c5,0.7,7.9,4.6,10.4,3.6c2.6-1,4.3-9.2,1-21.3
		c-1.5-5.8-4.1-14.2-0.9-17.9s9.9-4.1,13.3,0c3.4,4.1,5.6,22.4,5.5,31.8c-0.2,9.4-2,23.4-10.9,37.4c-8.9,13.8-18.6,22.7-33.1,30.1
		c-14.7,7.3-26.6,7-27.2-1.4c-0.7-8.4,4.8-8.9,12.5-11.3c7.7-2.4,21.5-9.7,21-13.7c-0.5-3.9-5-1.9-9.1-8.4
		C109.3,162.2,108.1,152.6,113.7,146.3z"/>
	<path class="st2" d="M79.3,97.5c-8.9-2-12.1-7.2-14-11.8c-1.9-4.6,0.2-9.1-2-10.8c-2.2-1.7-10.1,0.7-19.1,9.4
		c-4.3,4.1-10.4,10.6-15.4,9.4c-5-1.2-8.4-6.7-6.5-11.6c1.9-5,16.9-15.9,25.3-20.2s21.5-9.6,38.1-8.5c16.6,1,28.9,5.3,42.4,14.5
		s19,19.8,12,24.4s-10.1,0.2-15.9-5.5c-5.8-5.6-19-14-22-11.8c-3.1,2.2,0.9,5.3-2.9,12C95.6,93.9,87.6,99.5,79.3,97.5z"/>
	<path class="st3" d="M53.5,152.1c2.6,8.7-0.5,14.2-3.6,17.9c-3.1,3.8-8,4.3-8.5,7c-0.5,2.7,5.6,8.5,17.6,12.1
		c5.8,1.7,14.3,3.9,15.5,8.9c1.2,5-1.9,10.6-7,11.3c-5.1,0.7-22-7-29.9-12.3s-18.8-14.2-26-29s-9.2-27.8-7.9-44.2
		s8.2-26.3,15.5-22.4s5.1,8.9,2.9,16.6c-2,7.9-3.1,23.4,0.5,25.1c3.6,1.7,4.3-3.2,12-3.2S51.2,143.9,53.5,152.1z"/>
</g>
</svg>
