<?xml version="1.0" encoding="utf-8"?>
<!-- Generator: Adobe Illustrator 22.1.0, SVG Export Plug-In . SVG Version: 6.00 Build 0)  -->
<svg version="1.1" id="Layer_1" xmlns="http://www.w3.org/2000/svg" xmlns:xlink="http://www.w3.org/1999/xlink" x="0px" y="0px"
	 viewBox="0 0 810.9 192.2" style="enable-background:new 0 0 810.9 192.2;" xml:space="preserve">
<style type="text/css">
	.st0{fill:#231F20;}
	.st1{fill:#DD1100;}
</style>
<g>
	<polygon class="st0" points="201.1,55 217.6,136.7 241.4,136.7 256.5,86 272.2,136.7 295.4,136.7 311.9,55 292.8,55 282.1,110.6 
		264.9,55 247.4,55 233,110.4 221.8,55 	"/>
	<polygon class="st0" points="408.3,55 429.7,55 429.7,120.5 462.7,120.5 462.7,136.7 408.3,136.7 	"/>
	<polygon class="st0" points="471.8,55 471.8,136.7 492.3,136.7 492.3,103.3 523.7,103.3 523.7,88.6 492.2,88.7 492.2,69.9 
		524.9,69.9 524.9,55 	"/>
	<path class="st0" d="M595.7,112.5c-5.5-11.5-6.5-13.2-10.7-16.6c0,0,6.9-0.9,10.2-5.3c3.4-4.4,5.2-7.3,5-13.9
		c-0.2-6.7-2.6-12.4-8.4-16.9c-4.4-3.5-8.6-4.6-11.7-4.7c-3.1-0.1-43.8,0-43.8,0v81.7h21.2v-33.1c0,0,8.1,0,8.9,0
		c0.8,0,4.4,2.9,6.9,7.9c2.5,5,8.1,20.4,8.1,25.1h21.9C603.4,136.7,601.2,123.9,595.7,112.5z M571.1,89.4c-2.3,0-13.6,0-13.6,0V70.3
		c0,0,11.2,0,12.4,0s9.6,2.1,9.6,9.6S573.4,89.4,571.1,89.4z"/>
	<path class="st0" d="M662.1,55h-25.1l-30.4,81.8h20.8l6.7-17.6h30l7,17.6h22.4L662.1,55z M639.1,103.8l10.3-32.3l10.3,32.3H639.1z"
		/>
	<polygon class="st0" points="697.2,136.7 716.9,136.7 726.5,81.6 744.2,136.7 762.5,136.7 777.1,81.6 787.3,136.7 807.9,136.7 
		791.7,55 768.3,55 752.5,107.1 737,55 714.7,55 	"/>
	<path class="st0" d="M356.2,55c-22.1,0-40.1,8.5-40.1,40.9c0,30.6,17.9,40.9,40.1,40.9s40.1-9.6,40.1-40.9
		C396.3,66,378.3,55,356.2,55z M356.2,122.8c-12.9,0-18.3-11.9-18.3-26.7s4.5-26.7,18.3-26.7c13.8,0,18.3,11.9,18.3,26.7
		S368.4,122.8,356.2,122.8z"/>
	<path class="st1" d="M152.5,95.9L178,67.5l-37.2-7.7l3.6-37.5l-34.7,14.6L90.4,4.4L71,36.7L36.5,21.4l3.7,38.6L3.1,67.3l25.8,29.2
		L4,124.2l36.5,8.3L37.3,170l33.8-15.9l19.4,34.3l19.1-33.7l35.1,15.9l-4.1-38l37.4-8.5L152.5,95.9z M159,114.2l-15.9-4.9
		l-11.7-15.6l14.9,5.4L159,114.2z M164,72.6L147,92l-21-7.7l13-17.9L164,72.6z M134.8,60.8l-10.7,13V55.3l10.7-14.5V60.8z
		 M112.6,43.2l17-6.8l-10.3,14.3l-17.6,5.6L112.6,43.2z M117.5,58v25.1l-23.7,8.4V66.4L117.5,58z M90.6,18.6l13.3,22.1L90.6,58
		L77.3,41.5L90.6,18.6z M70.9,43.9l8.7,12.3l-17.5-5.6l-9.4-14.2L70.9,43.9z M86.9,67v24.5l-23.1-8.7c0,0,0-21.8,0-24.2L86.9,67z
		 M56.9,53.5V74l-9.4-12.4l-2-21.1L56.9,53.5z M16.7,71.9l25.1-5.5l13.5,18.1l-20.8,6.9L16.7,71.9z M33.8,100.2L50,93.8l-10,14.6
		l-17.6,5.9L33.8,100.2z M23.9,121.7l17.8-6.3l17.8,6.3l-16.6,5.4L23.9,121.7z M68.9,148.3l-24.1,11.5l2.6-27.2l21.6-7.2V148.3z
		 M69.9,117l-22.4-7.5L62.7,90l21.5,8.3L69.9,117z M87.3,168.1l-10.9-17.3v-17.3l10.9,14.8V168.1z M76.4,120.9l14.3-18.9l14.2,19
		l-14.2,20.3L76.4,120.9z M105.3,150.4l-11.7,17.7v-18.8l11.7-15.8V150.4z M96.2,97.6l22.6-7.6l15.6,19.4l-23.1,7.7L96.2,97.6z
		 M112.3,149v-23.4l21.7,7.2l2.4,26.1L112.3,149z M138.8,126.2l-16.2-4.9l17.9-5.7l17.2,5.7L138.8,126.2z"/>
</g>
</svg>
