<?xml version="1.0" encoding="utf-8"?>
<!-- Generator: Adobe Illustrator 22.1.0, SVG Export Plug-In . SVG Version: 6.00 Build 0)  -->
<svg version="1.1" id="Layer_1" xmlns="http://www.w3.org/2000/svg" xmlns:xlink="http://www.w3.org/1999/xlink" x="0px" y="0px"
	 viewBox="0 0 408.4 504.3" style="enable-background:new 0 0 408.4 504.3;" xml:space="preserve">
<style type="text/css">
	.st0{opacity:0.5;fill:#FFFFFF;enable-background:new    ;}
	.st1{fill:#754C24;}
	.st2{fill:#999999;}
	.st3{fill:#8C8C8C;}
	.st4{fill:#CCCCCC;}
	.st5{fill:#E6E6E6;}
	.st6{fill:#AF835A;}
	.st7{fill:#FBF0CD;}
	.st8{fill:#653012;}
	.st9{fill:#A77B52;}
	.st10{fill:#E0CA9D;}
	.st11{fill:#935B3E;}
	.st12{fill:#FFFFFF;}
	.st13{fill:#B4DCFA;}
	.st14{fill:#DFEEFA;}
	.st15{fill:#E8F2FF;}
</style>
<circle class="st0" cx="192.2" cy="156.2" r="96.5"/>
<g id="XMLID_9_">
	<g>
		<path class="st1" d="M247.1,182.3l0.1-0.1l-8.9-73l-2.5-2.8l8.2-4.6l10.6,82l-52.4,29.3c-8.5-4-17.4,0.9-17.4,0.9l-54.7-21.2
			l0.8-80.9l9.3,3.5l-2.5,3.9l1.6,70.4l0.1,0l44.6,18.8c0,0,4.2-2.7,8.9-3c2.6-0.2,5.3,0.4,7.6,2.5L247.1,182.3z"/>
		<polygon class="st2" points="238.3,109.3 247.2,182.3 247.1,182.3 233.3,179.5 230,109.7 235.8,106.5 		"/>
		<path class="st3" d="M247.1,182.3l-46.6,25.8c-2.3-2.1-5-2.7-7.6-2.5c0,0,5.2-8.8,13.2-13.4c8-4.5,20.6-5.9,27.1-12.8L247.1,182.3
			z"/>
		<path class="st4" d="M230,109.7l3.2,69.8c-6.5,6.9-19.1,8.3-27.1,12.8c-8,4.5-13.2,13.4-13.2,13.4c0-0.2-0.1-0.4-0.2-0.6
			l-3.9-72.2L230,109.7z"/>
		<polygon class="st2" points="229.6,99.5 235.8,106.5 230,109.7 		"/>
		<path class="st4" d="M229.6,99.5l0.5,10.2l-41.2,23.1l-0.2-3.3c0,0,7-12.2,17.3-12C216.1,117.7,229.6,99.5,229.6,99.5z"/>
		<path class="st3" d="M192.7,205c0.1,0.2,0.2,0.4,0.2,0.6c-4.7,0.3-8.9,3-8.9,3l-44.6-18.8l10-7.5c4.2,2.2,9.8,4.6,19.3,6.9
			C177.6,191.4,191.1,201.6,192.7,205z"/>
		<path class="st5" d="M188.8,132.8l3.9,72.2c-1.7-3.4-15.1-13.6-24.1-15.7c-9.5-2.3-15.1-4.7-19.3-6.9l-4.3-65l42.7,16.1
			L188.8,132.8z"/>
		<path class="st5" d="M188.6,129.5l0.2,3.3l-1,0.6l-42.7-16.1l-0.6-8.4c2.1,5.1,13.7,9,23.1,9.1
			C176.9,118.1,186.5,124.8,188.6,129.5z"/>
		<polygon class="st2" points="145.1,117.3 149.4,182.4 139.4,189.8 139.3,189.8 137.7,119.3 140.2,115.5 		"/>
		<polygon class="st2" points="144.5,108.9 145.1,117.3 140.2,115.5 		"/>
	</g>
</g>
<g>
	<g>
		<g id="XMLID_16_">
			<g>
				<path class="st6" d="M294.7,76.1c-0.6,2.8-0.6,5.6-0.7,8.5c0,1.4,0.1,3.1,1.4,3.8c0.9,0.4,1.9,0.2,2.8-0.1
					c3.2-0.9,6.6-1.5,9.9-1.7c-2.4-4.8-7-8-11.7-10.4L294.7,76.1z M395.3,120.2c6,40-6,103-64,162c-1,1-2,2-3,3
					c-17.5,10.7-36.5,18.9-56.3,24.1c-15.9,4.2-32.2,6.6-48.5,9.2c-45.6,7.2-98.5,18.1-132.5-6.8c0.8-4.6,1.7-9,2.7-13.1
					c1.4-5.8,3-11.2,4.9-16h0c0.6-1.7,1.3-3.3,2-4.8c5.2-11.2,12.2-19.6,22.5-26c3.6-2.2,7.5-4.2,11.9-6
					c18.4,17.5,52.6,22.8,77.8,25.8c17,2,53.8-5.7,64-13.3c5.6-4.2,11.1-8.8,15-14.7c7.1-10.6,12.9-28.3,12-41
					c-0.4-6.1-0.8-14.9-1.6-24.5c0.5-0.1,1-0.2,1.5-0.4c6.1-1.2,12.4-0.9,18.6-1.5c12-1.2,23.5-6.4,32.4-14.4
					c7.8-7.1,13.9-17.8,11-27.9c-1.3-4.6-4.2-8.6-7.3-12.2c-8.1-9.5-18-17.5-28.9-23.6c0.3,4.9-0.1,11.1-4.6,13
					c-2.2,0.9-7.8,1.2-10.1,0.6c-5.4-1.6-8.8-3.2-13-7c-2.5-2.3-6.8-9.4-9-12c-4.2-5-9.6-6.4-13.3-11c5.8-15,13.4-5.2,28.8-20.5
					c16-16,40-10,46-8C387,64.1,389.3,80.2,395.3,120.2z M331.8,90.7c3,0,5-7,5-9s-7.2-2.4-12,0C320.8,83.7,328.8,90.7,331.8,90.7z
					 M313.8,71.7c2-1,4-6,2-8s-7,0-8,3C307.8,66.7,311.8,72.7,313.8,71.7z"/>
				<path class="st7" d="M365.7,133.9c2.8,10.2-3.2,20.9-11,27.9c-8.9,8.1-20.5,13.2-32.4,14.4c-6.2,0.6-12.5,0.3-18.6,1.5
					c-0.5,0.1-1,0.2-1.5,0.4c-1.4-16.2-4.1-34.4-10.4-44.5l-0.2,0c0.5-6.3,0.4-11.7-0.3-15.5c-3-16-15.5-25.5-12.5-34.5
					c0.2-0.7,0.5-1.4,0.7-2c3.6,4.5,9.1,6,13.3,11c2.2,2.6,6.5,9.7,9,12c4.2,3.8,7.6,5.4,13,7c2.3,0.7,7.9,0.4,10.1-0.6
					c4.5-1.9,4.9-8.1,4.6-13c10.9,6.1,20.7,14.1,28.9,23.6C361.5,125.4,364.4,129.3,365.7,133.9z"/>
				<path class="st8" d="M336.8,81.7c0,2-2,9-5,9s-11-7-7-9C329.6,79.2,336.8,79.7,336.8,81.7z"/>
				<path class="st8" d="M315.8,63.7c2,2,0,7-2,8s-6-5-6-5C308.8,63.7,313.8,61.7,315.8,63.7z"/>
				<path class="st9" d="M88.2,330.1c0-0.3,0.1-0.6,0.1-0.9c0.8-6.2,1.7-12,2.7-17.4c34,24.9,87,14,132.5,6.8
					c16.3-2.6,32.6-5,48.5-9.2c19.8-5.3,38.8-13.5,56.3-24.1c-56.4,56.3-96.4,66.2-123,79c-20.8,10-83.8,19.5-107.9-4.2
					C90.3,353,86.6,343.3,88.2,330.1z"/>
				<path class="st8" d="M296.4,76.2c4.8,2.4,9.4,5.6,11.7,10.4c-3.4,0.2-6.7,0.8-9.9,1.7c-0.9,0.3-2,0.6-2.8,0.1
					c-1.2-0.6-1.4-2.3-1.4-3.8c0.1-2.8,0.1-5.7,0.7-8.5L296.4,76.2z"/>
				<path class="st10" d="M291.8,133.7c6.3,10.1,9,28.3,10.4,44.5c-5.3,1.4-10.3,3.9-14.6,7.5c-2.4-0.6-5.5-1-8.9-6.3
					c7.8-15.4,11.8-32.5,12.9-45.6L291.8,133.7z"/>
				<path class="st11" d="M290.7,187.7c2.2,3.9,2.2,6.8-1.5,6.6c-1.8-0.4-2.7-0.5-1.4-0.2c0.5,0.1,1,0.2,1.4,0.2
					c4.6,1.1,14.6,4.6-0.4,10c0,0,8.1,4.5-15.8,3.9c0.9-2.7,1.8-5.3,3-7.9c2.6-5.7,6.6-10.9,11.5-14.8
					C288.9,185.9,290,186.4,290.7,187.7z"/>
				<path class="st11" d="M289.3,194.4c-0.4,0-0.9-0.1-1.4-0.2C286.5,193.9,287.5,193.9,289.3,194.4z"/>
				<path class="st11" d="M287.6,185.6c-4.9,4-8.8,9.1-11.5,14.8c-1.2,2.6-2.1,5.2-3,7.9c-1,0-2.1-0.1-3.3-0.1
					c-3.4-0.8-6.5-2.3-9.3-4.4c0.9-0.9,1.8-1.7,2.7-2.6c6.3-6.3,11.4-13.8,15.5-21.9C282.1,184.6,285.2,185,287.6,185.6z"/>
				<path class="st11" d="M276.5,175.1c0.8,1.7,1.5,3,2.2,4.2c-4.1,8-9.2,15.6-15.5,21.9c-0.9,0.9-1.8,1.8-2.7,2.6
					c-10.8-8-16.6-24-19.6-37.4c-3.6-16.8,7.2-54.6,12.8-57.6s4.9-1.2,5.5,2.4c0,0,5.3-9.7,6.7-0.4c0,0,5-6.6,4.6,2
					c0,0,6.8-5.8,3.9,6C271.7,130.6,270.3,161.6,276.5,175.1z"/>
				<path class="st10" d="M273.2,208.3c-1.2,3.6-2.3,7.3-3.8,10.8c-5.1,11.8-14.7,20.9-26.6,25.6s-43.2,12.1-55,7
					c-6.6-2.9-21.2-7.4-19-14l-0.1-0.6c57.4-9.6,69.7-11.8,91.9-33.3c2.8,2.1,5.9,3.6,9.3,4.4C271,208.2,272.1,208.3,273.2,208.3z"
					/>
				<path class="st9" d="M168.8,237.7c-2.2,6.6,12.4,11.1,19,14c11.8,5.1,43.1-2.3,55-7s21.5-13.9,26.6-25.6
					c1.5-3.5,2.6-7.1,3.8-10.8c23.8,0.6,15.8-3.9,15.8-3.9c15-5.4,5-8.9,0.4-10c3.6,0.2,3.6-2.7,1.5-6.6c-0.8-1.4-1.8-1.8-3.1-2.1
					c4.3-3.5,9.2-6.1,14.6-7.5c0.8,9.6,1.2,18.4,1.6,24.5c0.9,12.7-4.9,30.4-12,41c-3.9,5.9-9.4,10.5-15,14.7
					c-10.2,7.6-47,15.3-64,13.3c-25.2-3-59.4-8.3-77.8-25.8c9.1-3.7,20-6.5,33.3-8.7c0.1,0,0.3-0.1,0.4-0.1L168.8,237.7z"/>
				<path class="st11" d="M123.1,251.8c-10.3,6.4-17.4,14.8-22.5,26c-45.7-11.3-53.3-56.7-54.3-68.7s8-6,8-6c0-15,9-4,9-4
					c-1-3-1-7,2-8s12,25,21,38S108.3,249.2,123.1,251.8z"/>
				<path class="st9" d="M98.5,282.7c-1.9,4.8-3.5,10.2-4.9,16l-1.6-0.4c-1.6-1-3.6-2.3-5.8-3.7C90.8,288.5,95.1,284.1,98.5,282.7z"
					/>
				<path class="st9" d="M93.3,431.2c9,29-3,45-9,52s-18,15-21,11s3-6,8-12s9-23-5-44s-20-42-18-63c1-10.6,9.8-32.2,20.3-52
					c6.2,2.4,12.8,4.9,19.6,6.9c-1.6,13.3,2.2,23,9.2,29.9C80.4,388.7,84.3,402.2,93.3,431.2z"/>
				<path class="st11" d="M90.9,311.8c-1,5.4-1.8,11.2-2.7,17.4c0,0.3-0.1,0.6-0.1,0.9c-6.8-2-13.4-4.5-19.6-6.9
					c5.7-10.8,11.9-21,17.6-28.5c2.2,1.4,4.2,2.7,5.8,3.7l1.6,0.4C92.6,302.8,91.7,307.1,90.9,311.8z"/>
				<path class="st11" d="M50.3,265.2c6.7,10,24.6,22.1,35.9,29.5c-5.7,7.5-11.9,17.8-17.6,28.5c-4.4-1.8-8.6-3.5-12.3-5
					c-15-6-40-37-42-52c-2-15,8-7,8-7c-3-13,8-7,8-7C27.3,237.2,42.3,253.2,50.3,265.2z"/>
			</g>
		</g>
		<path class="st12" d="M300.2,82c-2.2,0.2-4.1-0.6-4.3-2.6C295.7,77.4,303.2,81.7,300.2,82z"/>
		<path class="st12" d="M314.3,69.2c0.7,0.7,2-2,1-2S313.3,68.2,314.3,69.2z"/>
		<path class="st12" d="M334.2,84.2c-1.3,0-2.5,1-1.3,2C333.8,86.9,335.4,84.2,334.2,84.2"/>
	</g>
	<g>
		<path class="st13" d="M259.1,18.9c-2.5,2.5-4.3,6.8-2,9c0.5,0.5,2.4,0.8,3,1.2c0.4,0.2,0.8,0.2,1.2,0.1c1.2-0.2,2.3-0.8,3-1.8
			C268.4,22,263.1,17,259.1,18.9"/>
	</g>
	<g>
		<path class="st13" d="M260.2,58.6c0.6,3.1,4.5,5.1,7.3,3.8s3.9-5.5,2-8s-6.9,1.5-8.9,4"/>
	</g>
	<g>
		<path class="st14" d="M279.1,40.9c2,1.1,5.4,0.1,5.5-2.2s-2.7-4.1-4.8-3.2C278.1,37.9,277.1,38.9,279.1,40.9"/>
	</g>
	<g>
		<path class="st15" d="M281.6,16.4c1,4,6.6,2.5,8.2-0.5s-0.5-7.1-3.8-7.7C282.7,7.6,279.6,12.4,281.6,16.4"/>
	</g>
</g>
</svg>
