<?xml version="1.0" encoding="utf-8"?>
<!-- Generator: Adobe Illustrator 22.1.0, SVG Export Plug-In . SVG Version: 6.00 Build 0)  -->
<svg version="1.1" id="Layer_1" xmlns="http://www.w3.org/2000/svg" xmlns:xlink="http://www.w3.org/1999/xlink" x="0px" y="0px"
	 viewBox="0 0 408.4 504.3" style="enable-background:new 0 0 408.4 504.3;" xml:space="preserve">
<style type="text/css">
	.st0{opacity:0.5;fill:#FFFFFF;enable-background:new    ;}
	.st1{fill:#8C8C8C;}
	.st2{fill:#754C24;stroke:#754C24;stroke-miterlimit:10;}
	.st3{fill:#999999;}
	.st4{fill:#CCCCCC;}
	.st5{fill:#E6E6E6;}
	.st6{fill:#FBF0CD;}
	.st7{fill:#653012;stroke:#653012;stroke-miterlimit:10;}
	.st8{fill:#E0CA9D;}
	.st9{fill:#A77B52;}
	.st10{fill:#935B3E;stroke:#935B3E;stroke-miterlimit:10;}
	.st11{fill:#AF835A;}
	.st12{fill:#FFFFFF;}
	.st13{fill:#B4DCFA;}
	.st14{fill:#DFEEFA;}
	.st15{fill:#E8F2FF;}
</style>
<circle class="st0" cx="192.2" cy="156.2" r="96.5"/>
<g>
	<path class="st1" d="M247.1,182.3l-46.6,25.8c-2.3-2.1-5-2.7-7.6-2.5c0,0,5.2-8.8,13.2-13.4c8-4.5,20.6-5.9,27.1-12.8L247.1,182.3z
		"/>
	<path class="st1" d="M192.7,205c0.1,0.2,0.2,0.4,0.2,0.6c-4.7,0.3-8.9,3-8.9,3l-44.6-18.8l10-7.5c4.2,2.2,9.8,4.6,19.3,6.9
		C177.6,191.4,191.1,201.6,192.7,205z"/>
	<g>
		<path class="st2" d="M247.1,182.3l0.1-0.1l-8.9-73l-2.5-2.8l8.2-4.6l10.6,82l-52.4,29.3c-8.5-4-17.4,0.9-17.4,0.9l-54.7-21.2
			l0.8-80.9l9.3,3.5l-2.5,3.9l1.6,70.4h0.1l44.6,18.8c0,0,4.2-2.7,8.9-3c2.6-0.2,5.3,0.4,7.6,2.5L247.1,182.3z"/>
		<polygon class="st3" points="238.3,109.3 229.6,99.5 233.3,179.5 247.1,182.3 247.2,182.3 		"/>
		<path class="st4" d="M229.6,99.5c0,0-13.5,18.2-23.6,18c-10.3-0.2-17.5,12.2-17.5,12.2v2.6l0.1,1l4.1,71.8
			c0.1,0.2,0.2,0.4,0.2,0.6c0,0,5.2-8.9,13.2-13.4s20.7-5.9,27.2-12.8L229.6,99.5z"/>
		<path class="st5" d="M188.8,132.8l-0.2-3.3c-2.1-4.7-11.7-11.4-21-11.5c-9.4-0.1-21-4-23.1-9.1l0.6,8.4v0.4l4.2,64.7
			c4.2,2.2,9.8,4.6,19.3,6.9c9,2.1,22.4,12.3,24.1,15.7L188.8,132.8z"/>
		<polygon class="st3" points="144.5,108.9 137.7,119.3 139.3,189.8 139.4,189.8 149.4,182.4 		"/>
	</g>
</g>
<g>
	<path class="st6" d="M371.5,128.3c2.8,10.2-1.1,26.1-8.9,33.1c-8.9,8.1-26.7,17.6-38.6,18.8c-6.2,0.6-14.2-3.7-20.3-2.5
		c-0.5,0.1-1,0.2-1.5,0.4c-4.5-16.7-6.3-30.1-10.4-44.5h-0.2c0.5-6.3,0.4-11.7-0.3-15.5c-3-16-15.5-25.5-12.5-34.5
		c0.2-0.7,1.2-3,1.4-3.6c3.6,4.5,8.2,3.6,12.4,8.6c2.2,2.6,9.2,10.9,11.7,13.2c4.2,3.8,6,4.7,11.4,6.3c2.3,0.7,4.6-0.3,6.8-1.3
		c4.5-1.9,5.8-5.6,5.5-10.5c10.9,6.1,22.2,8.2,30.4,17.7C361.5,117.7,370.2,123.7,371.5,128.3z"/>
	<path class="st7" d="M336.8,81.7c0,2-2,9-5,9s-11-7-7-9C329.6,79.2,336.8,79.7,336.8,81.7z"/>
	<path class="st7" d="M315.8,63.7c2,2,0,7-2,8s-6-5-6-5C308.8,63.7,313.8,61.7,315.8,63.7z"/>
	<path class="st7" d="M296.4,76.2c4.8,2.4,9.4,5.6,11.7,10.4c-3.4,0.2-6.7,0.8-9.9,1.7c-0.9,0.3-2,0.6-2.8,0.1
		c-1.2-0.6-1.4-2.3-1.4-3.8c0.1-2.8,0.1-5.7,0.7-8.5L296.4,76.2z"/>
	<path class="st8" d="M291.8,133.7c6.3,10.1,9,28.3,10.4,44.5c-5.3,1.4-10.3,3.9-14.6,7.5c-2.4-0.6-5.5-1-8.9-6.3
		c7.8-15.4,11.8-32.5,12.9-45.6L291.8,133.7z"/>
	<path class="st8" d="M273.2,208.3c-1.2,3.6,4.3,8.1,2.8,11.6c-5.1,11.8-19,23.4-30.9,28.1s-49.8,12-61.6,6.9
		c-6.6-2.9-17-10.7-14.8-17.3l-0.1-0.6c57.4-9.6,69.7-11.8,91.9-33.3c2.8,2.1,5.9,3.6,9.3,4.4C271,208.2,272.1,208.3,273.2,208.3z"
		/>
	<path class="st9" d="M168.8,237.7c-2.2,6.6,12.4,11.1,19,14c11.8,5.1,43.1-2.3,55-7s21.5-13.9,26.6-25.6c1.5-3.5,2.6-7.1,3.8-10.8
		c23.8,0.6,15.8-3.9,15.8-3.9c15-5.4,5-8.9,0.4-10c3.8-0.1,3.6-2.7,1.5-6.6c-0.8-1.4-1.8-1.8-3.1-2.1c4.3-3.5,9.2-6.1,14.6-7.5
		c0.8,9.6,11.9,19.5,12.3,25.6c0.9,12.7,0.2,27.6-6.9,38.2c-3.9,5.9-11.8,13-17.4,17.2c-10.2,7.6-64.5,20.1-81.5,18.1
		c-25.2-3-55.4-13.9-73.8-31.4c9.1-3.7,20-6.5,33.3-8.7c0.1,0,0.3-0.1,0.4-0.1L168.8,237.7z"/>
	<path class="st10" d="M123.1,251.8c-10.3,6.4-17.4,14.8-22.5,26c-45.7-11.3-53.3-56.7-54.3-68.7s8-6,8-6c0-15,9-4,9-4c-1-3-1-7,2-8
		c3-1,12,25,21,38S108.3,249.2,123.1,251.8z"/>
	<path class="st10" d="M91.9,298.4c-1.6-1-3.6-2.3-5.7-3.7l0,0c-11.3-7.4-29.2-19.5-35.9-29.5c-8-12-23-28-20-13c0,0-11-6-8,7
		c0,0-10-8-8,7s27,46,42,52c3.7,1.5,7.8,3.2,12.2,5l0,0c6.2,2.4,12.8,4.9,19.6,6.9c0-0.3,0.1-0.6,0.1-0.9c0.9-6.2,1.7-12,2.7-17.4
		c0.8-4.7,1.7-9,2.6-13L91.9,298.4z"/>
	<path class="st9" d="M98.5,282.7c-1.9,4.8-3.5,10.2-4.9,16l-1.6-0.4c-1.6-1-3.6-2.3-5.8-3.7C90.8,288.5,95.1,284.1,98.5,282.7z"/>
	<path class="st10" d="M289.2,194.3c3.7,0.2,3.7-2.7,1.5-6.6c-0.7-1.3-1.8-1.8-3.2-2.2c0,0-5.5-1-8.8-6.2c-1.1-1.7-1.4-2.5-2.2-4.2
		c-6.2-13.5-4.8-44.5-2.1-56.3c2.9-11.8-3.9-6-3.9-6c0.4-8.6-4.6-2-4.6-2c-1.4-9.3-6.7,0.4-6.7,0.4c-0.6-3.6,0.1-5.4-5.5-2.4
		s-16.4,40.8-12.8,57.6c3,13.4,8.8,29.4,19.6,37.4l0,0l0,0c2.8,2.1,5.9,3.6,9.3,4.4c1.2,0,3.4,0.1,3.4,0.1c23.7,0.6,15.6-4,15.6-4
		C303.8,198.9,294.6,195.7,289.2,194.3z"/>
	<path class="st11" d="M294.7,76.1c-0.6,2.8-0.6,5.6-0.7,8.5c0,1.4,0.1,3.1,1.4,3.8c0.9,0.4,1.9,0.2,2.8-0.1
		c3.2-0.9,6.6-1.5,9.9-1.7c-2.4-4.8-7-8-11.7-10.4L294.7,76.1z M395.3,120.2c6,40-6,103-64,162c-1,1-2,2-3,3
		c-17.5,10.7-32.4,21.5-52.2,26.7c-15.9,4.2-45.5,9.9-61.8,12.5C168.7,331.6,91,336,91,311.7c0.9-13.3,9-33.9,9-33.9
		c3.6-11.5,12.8-19.6,23.1-26c3.6-2.2,7.5-4.2,11.9-6c18.4,17.5,52.6,22.8,77.8,25.8c17,2,53.8-5.7,64-13.3
		c5.6-4.2,11.1-8.8,15-14.7c7.1-10.6,12.9-28.3,12-41c-0.4-6.1-0.8-14.9-1.6-24.5c0.5-0.1,1-0.2,1.5-0.4c6.1-1.2,12.4-0.9,18.6-1.5
		c12-1.2,23.5-6.4,32.4-14.4c7.8-7.1,13.9-17.8,11-27.9c-1.3-4.6-4.2-8.6-7.3-12.2c-8.1-9.5-18-17.5-28.9-23.6
		c0.3,4.9-0.1,11.1-4.6,13c-2.2,0.9-7.8,1.2-10.1,0.6c-5.4-1.6-8.8-3.2-13-7c-2.5-2.3-6.8-9.4-9-12c-4.2-5-9.6-6.4-13.3-11
		c5.8-15,13.4-5.2,28.8-20.5c16-16,40-10,46-8C387,64.1,389.3,80.2,395.3,120.2z M331.8,90.7c3,0,5-7,5-9s-7.2-2.4-12,0
		C320.8,83.7,328.8,90.7,331.8,90.7z M313.8,71.7c2-1,4-6,2-8s-7,0-8,3C307.8,66.7,311.8,72.7,313.8,71.7z"/>
	<path class="st9" d="M272,309.4c-15.9,4.2-32.2,6.6-48.5,9.2C178,325.8,125,336.7,91,311.8c-1,5.4-1.9,11.2-2.7,17.4
		c0,0.3-0.1,0.6-0.1,0.9c-6.8-2-13.4-4.5-19.6-6.9c-10.5,19.8-19.3,41.4-20.3,52c-2,21,4,42,18,63s10,38,5,44s-11,8-8,12s15-4,21-11
		s18-23,9-52s-12.9-42.5,4.1-71.1l0,0c24.1,23.7,87.1,14.2,107.9,4.2c26.6-12.8,66.6-22.7,123-79C310.8,295.9,291.8,304.1,272,309.4
		z"/>
	<path class="st12" d="M300.2,82c-2.2,0.2-4.1-0.6-4.3-2.6C295.7,77.4,303.2,81.7,300.2,82z"/>
	<path class="st12" d="M314.3,69.2c0.7,0.7,2-2,1-2S313.3,68.2,314.3,69.2z"/>
	<path class="st12" d="M334.2,84.2c-1.3,0-2.5,1-1.3,2C333.8,86.9,335.4,84.2,334.2,84.2"/>
</g>
<path class="st13" d="M259.1,18.9c-2.5,2.5-4.3,6.8-2,9c0.5,0.5,2.4,0.8,3,1.2c0.4,0.2,0.8,0.2,1.2,0.1c1.2-0.2,2.3-0.8,3-1.8
	C268.4,22,263.1,17,259.1,18.9"/>
<path class="st13" d="M260.2,58.6c0.6,3.1,4.5,5.1,7.3,3.8s3.9-5.5,2-8s-6.9,1.5-8.9,4"/>
<path class="st14" d="M279.1,40.9c2,1.1,5.4,0.1,5.5-2.2s-2.7-4.1-4.8-3.2C278.1,37.9,277.1,38.9,279.1,40.9"/>
<path class="st15" d="M281.6,16.4c1,4,6.6,2.5,8.2-0.5s-0.5-7.1-3.8-7.7C282.7,7.6,279.6,12.4,281.6,16.4"/>
</svg>
