<?xml version="1.0" encoding="utf-8"?>
<!-- Generator: Adobe Illustrator 22.1.0, SVG Export Plug-In . SVG Version: 6.00 Build 0)  -->
<svg version="1.1" id="Layer_1" xmlns="http://www.w3.org/2000/svg" xmlns:xlink="http://www.w3.org/1999/xlink" x="0px" y="0px"
	 viewBox="0 0 193 193" style="enable-background:new 0 0 193 193;" xml:space="preserve">
<style type="text/css">
	.st0{opacity:0.5;fill:#FFFFFF;}
	.st1{fill:#007809;}
	.st2{fill:#00840A;}
</style>
<circle class="st0" cx="96.5" cy="96.5" r="96.5"/>
<g id="XMLID_7_">
	<g>
		<path class="st1" d="M179.6,77c-6.2,6.9-20.3,29.4-37.9,29.4c-18.9,0-28.8-13.1-30.1-14.9c6.6,0.8,13.2,1.6,19.8,2.5
			c6.7,0.8,13.7,1.6,20.1-0.7c5.4-1.9,9.7-5.9,14.4-9.1C170.1,81.2,174.7,78.8,179.6,77z"/>
		<path class="st2" d="M108.5,169.9c-2.7-6.9-6.2-13.4-9.1-20.2c-1.5-3.4-3.4-7.4-5-11.5c-1.1-5.9-1.9-11.8-2.3-16.7
			c-1.3-17.9-17.8-16.7-17.8-16.7c-0.8,0.7-1.7,1.3-2.5,2c-8.2-1.8-16.3-3.5-24.5-5.2c-4.2-0.9-8.3-1.8-12.2-3.7
			c-3.2-1.5-6-3.7-8.8-5.8c-5.2-4-10.4-7.9-15.5-11.9c-1.1-3.4-1.3-6-0.2-7.2c3.7-4.2,26.1-9.4,41.8-3.1
			c15.7,6.3,21.9,24.5,21.9,24.5c13.1,2.1,19.3,14.1,19.3,14.1c1-15.7,16.2-22.4,16.2-22.4c-1.6-5.2,11-23.5,28.7-26.1
			c17.8-2.6,29.8,5.2,32.4,8.4c1.8,2.2,6.5,4.6,9.1,5.9c0.8,0.4,0.9,1.4,0.3,2c-0.2,0.2-0.5,0.5-0.8,0.8c-4.9,1.8-9.5,4.2-13.7,7.1
			c-4.7,3.2-9,7.2-14.4,9.1c-6.4,2.3-13.4,1.5-20.1,0.7c-6.6-0.8-13.2-1.6-19.8-2.5c-0.1-0.1-0.2-0.2-0.2-0.2
			c-16.7,10.4-11,23.5-10.4,40.2c0.5,16.7,9.9,35,8.9,37.1C109.6,169.1,109.1,169.5,108.5,169.9z"/>
		<path class="st1" d="M102.6,171.1c-0.7,0.4-5.2-16.6-8.2-32.9c1.6,4.1,3.5,8.1,5,11.5c2.9,6.8,6.4,13.3,9.1,20.2
			C106.8,171,104.1,171.5,102.6,171.1z"/>
		<path class="st1" d="M47.4,101.6c8.2,1.7,16.3,3.5,24.5,5.2c-13.9,10-32.6,9.5-42.9,0.1c-7.7-6.9-15.4-18.8-18-26.7
			c5.2,4,10.4,7.9,15.5,11.9c2.8,2.1,5.6,4.3,8.8,5.8C39.1,99.8,43.3,100.7,47.4,101.6z"/>
	</g>
</g>
</svg>
