<?xml version="1.0" encoding="utf-8"?>
<!-- Generator: Adobe Illustrator 22.1.0, SVG Export Plug-In . SVG Version: 6.00 Build 0)  -->
<svg version="1.1" id="Layer_1" xmlns="http://www.w3.org/2000/svg" xmlns:xlink="http://www.w3.org/1999/xlink" x="0px" y="0px"
	 viewBox="0 0 193 193" style="enable-background:new 0 0 193 193;" xml:space="preserve">
<style type="text/css">
	.st0{opacity:0.5;fill:#FFFFFF;}
	.st1{fill:#999999;}
	.st2{fill:#808080;}
	.st3{fill:none;stroke:#808080;stroke-width:0.25;stroke-miterlimit:10;}
</style>
<circle class="st0" cx="96.5" cy="96.5" r="96.5"/>
<g id="XMLID_8_">
	<g>
		<path d="M163.9,136.5c1.8,1.8,2.1,3.5,0.7,6.4c-1.4,2.8-6.4,5.7-16.3,6.4c-9.9,0.7-15.6-2.1-17-5c-0.6-1.1-0.1-2.4,1-3.6
			c-0.7,1-0.9,1.9-0.5,2.8c1.4,2.7,6.9,5.5,16.5,4.8c9.6-0.7,14.4-3.4,15.8-6.2C165.4,139.7,165.2,138.1,163.9,136.5z"/>
		<path class="st1" d="M163.9,136.5c1.3,1.6,1.4,3.2,0.2,5.6c-1.4,2.7-6.2,5.5-15.8,6.2c-9.6,0.7-15.1-2.1-16.5-4.8
			c-0.4-0.9-0.2-1.8,0.5-2.8c1.6-1.7,4.5-3.3,7.5-4.1c-0.1,2-2.6,4.5-3.2,5.2c0,0-0.7,0.7,0,0.7s3.8-4.4,4-6.1
			c1.9,0.5,4,0.8,5.5,0.8c2.2,0,6.5-0.5,9.5-1.9c-0.1,1.2,2.2,3.7,3.6,4.4c0.7,0,0.7-0.7,0.7-0.7s-0.7,0-2.1-1.4
			c-1.4-1.4-1.4-2.1-1.5-2.7v0c0.3-0.2,0.6-0.3,0.8-0.5C158.5,134.4,162.2,134.8,163.9,136.5C163.9,136.5,163.9,136.5,163.9,136.5z"
			/>
		<path class="st2" d="M160,139c0,0,0,0.7-0.7,0.7c-1.4-0.7-3.6-3.2-3.6-4.4c0.2-0.1,0.5-0.2,0.7-0.4v0c0.1,0.5,0.1,1.2,1.5,2.7
			C159.3,139,160,139,160,139z"/>
		<path d="M157.2,134.4c-0.2,0.2-0.5,0.4-0.8,0.5c-0.2,0.1-0.5,0.2-0.7,0.4c-3,1.4-7.4,1.9-9.5,1.9c-1.6,0-3.7-0.3-5.5-0.8
			c-0.3-0.1-0.6-0.2-0.8-0.2c-1.1-0.3-2-0.7-2.6-1.2c0.8,0,1.2,0.1,1.2,0.1l0.2-0.6c1.4,1.2,5.4,2,7.8,2c3,0,10.8-1.2,10.8-4.8
			c0-3.6-11.4-3-15-1.8c0,0-1.3,0.4-2.5,1.1l0.1-0.3c0,0-0.6,0-1.7,0.1c1.4-1,3.1-1.5,3.1-1.5c4.3-1.4,17.7-2.1,17.7,2.1
			c0,1-0.5,1.8-1.2,2.4C157.6,134.1,157.4,134.3,157.2,134.4z"/>
		<path class="st1" d="M157.2,131.7c0,3.6-7.8,4.8-10.8,4.8c-2.4,0-6.4-0.8-7.8-2l1.1-3.4c1.2-0.8,2.5-1.1,2.5-1.1
			C145.8,128.7,157.2,128.1,157.2,131.7z"/>
		<path class="st2" d="M139.8,136.7c0-0.2,0-0.3,0-0.5c0.3,0.1,0.6,0.2,0.8,0.2c-0.2,1.7-3.3,6.1-4,6.1s0-0.7,0-0.7
			C137.3,141.2,139.8,138.7,139.8,136.7z"/>
		<path class="st1" d="M139.8,136.2c0,0.1,0,0.3,0,0.5c-3,0.8-5.9,2.3-7.5,4.1C133.6,138.9,136.6,137.1,139.8,136.2z"/>
		<path d="M139.8,130.8l-0.1,0.3c-0.9,0.6-1.7,1.4-1.7,2.4c0,0.3,0.2,0.7,0.6,1l-0.2,0.6c0,0-0.4,0-1.2-0.1
			c-0.6-0.4-0.9-0.9-0.9-1.4c0-1.2,0.8-2.1,1.8-2.8C139.2,130.8,139.8,130.8,139.8,130.8z"/>
		<path class="st1" d="M139.7,131.1l-1.1,3.4c-0.3-0.3-0.6-0.6-0.6-1C138,132.5,138.8,131.7,139.7,131.1z"/>
		<path d="M137.2,135c-2.6-0.1-8.9,0.1-14.4,2.9c-7.1,3.5-13.5,9.2-16.3,12.1c-2.8,2.8-9.9,9.9-16.3,12.8c-6.4,2.8-15.6,6.2-24.8,5
			c-10.6-1.4-21.3-7.8-21.3-16.3c0-9.9,7.1-15.6,12.8-17s17-0.6,20.6,0c4.3,0.7,7.8,0,8.5-3.5c0.7-3.5,1.4-7.1,0.7-9.2
			s-1.4-4.6-1.4-4.6c1.4,0.6,3.1,1,4.9,1.1c1.7,0.1,3.2,0.1,4.5-0.1c-0.1,0.2-2.4,3.7-3.1,5.8c-0.7,2.1-0.3,9.6-4.3,13.5
			c-4.3,4.3-22.7-0.7-29.1,1.4c-6.4,2.1-9.9,7.8-9.9,12.1c0,4.3,7.8,12.1,15.6,12.8s22.7-1.4,32.6-10.6s19.2-19.2,29.1-20.6
			c6.4-0.9,10.4-1.2,12.5-1.3c-1,0.7-1.8,1.6-1.8,2.8C136.2,134.2,136.6,134.6,137.2,135z"/>
		<path class="st1" d="M123.5,25.8c5,3.5,6.4,11.4,6.4,17c0,5.7-2.8,19.2-7.1,28.4c-2.5,5.4-4.3,9.9-5.7,13.1
			c-1.3-1-3.2-1.9-4.6-2.3c1.5-3.1,3.2-6.8,4-8.7c1.4-3.5,8.5-19.2,8.5-28.4c0-9.9-1.4-14.9-5-16.3c-3.4-1.3-11.5-1.7-11.5-1.7
			l0.3-4.6l0.1,0C113.5,22.3,119.8,23.2,123.5,25.8z"/>
		<path d="M117,84.3c0.9,0.7,1.5,1.3,1.5,1.8c0,1.4-7.8,14.9-12.1,21.3c-3.5,5.3-5.6,9.6-11.8,10.5c0,0,0,0,0,0
			c-1.3,0.2-2.8,0.2-4.5,0.1c-1.9-0.1-3.5-0.5-4.9-1.1c-6-2.4-8-7.8-8.5-9.6c-0.7-2.1-9.2-19.9-7.8-21.3c0.3-0.3,0.7-0.7,1.2-1.1
			c0.8,3.3,1.3,5,1.3,5l5-2.1l1.9-0.4c0.4,2.2,1,4.7,2,7.1c2.1,5,3.5,12.8,10.6,13.5c7.1,0.7,11.4-7.1,13.5-12.8
			c1.1-3,2.5-6.6,3.8-9.4l1.9,0.8c0,0,2.1,4.3,4.3,2.1C115.1,88.1,116,86.5,117,84.3z"/>
		<path d="M112.4,82c1.4,0.3,3.3,1.3,4.6,2.3c-1,2.2-1.9,3.8-2.8,4.7c-2.1,2.1-4.3-2.1-4.3-2.1S111.1,84.7,112.4,82z"/>
		<path d="M111.4,81.9c0.3,0,0.6,0.1,1,0.1c-1.3,2.7-2.4,4.8-2.4,4.8l-1.9-0.8C109.3,83.6,110.4,81.9,111.4,81.9z"/>
		<path d="M108.8,21.2l-0.1,1.1l-0.3,4.6l-0.1,1.2l-1.5-0.1c-0.1,0.8-2.4,1.4-4,1.3c-1.5-0.1-3-1-3.6-3.3c-0.4-1.5,0.2-3.1,1.9-4.5
			c1.7-1.4,4.7-1.2,5.5-0.4L108.8,21.2z"/>
		<path d="M86.7,21.6c1.6,0.8,2.4,2.4,2.4,4s-0.8,4.8-3.2,4.8c-2.4,0-4.8-1.6-4.8-1.6h-1.6V24v-0.8h1.6
			C81.9,21.6,85.1,20.8,86.7,21.6z"/>
		<path class="st1" d="M79.5,24v4.8L79.1,29c-4.3,0-8.5,5-9.9,8.5c-2.5,6.2,0,21.3,0.7,24.8c0.5,2.4,3.2,13.2,5,19.9
			c-1.5,0.3-3.4,1.6-4.8,2.8c-1-3.8-2.5-9.8-4.4-17.7c-3.5-14.9-4.3-26.3,0-34.1S76.3,24.8,79.5,24z"/>
		<path d="M78.2,87.5l-1.9,0.4c0,0-0.6-2.3-1.4-5.6c0.8-0.2,1.4-0.1,1.8,0.3C77.4,83.3,77.7,85.2,78.2,87.5z"/>
		<path d="M76.3,87.9l-5,2.1c0,0-0.5-1.7-1.3-5c1.5-1.2,3.4-2.4,4.8-2.8C75.7,85.6,76.3,87.9,76.3,87.9z"/>
	</g>
	<g>
		<path class="st3" d="M156.4,134.9c0.1,0.5,0.1,1.2,1.5,2.7c1.4,1.4,2.1,1.4,2.1,1.4s0,0.7-0.7,0.7c-1.4-0.7-3.6-3.2-3.6-4.4"/>
		<path class="st3" d="M139.8,136.2c0,0.1,0,0.3,0,0.5c-0.1,2-2.6,4.5-3.2,5.2c0,0-0.7,0.7,0,0.7s3.8-4.4,4-6.1"/>
	</g>
</g>
</svg>
