<?xml version="1.0" encoding="utf-8"?>
<!-- Generator: Adobe Illustrator 22.1.0, SVG Export Plug-In . SVG Version: 6.00 Build 0)  -->
<svg version="1.1" id="Layer_1" xmlns="http://www.w3.org/2000/svg" xmlns:xlink="http://www.w3.org/1999/xlink" x="0px" y="0px"
	 viewBox="0 0 193 193" style="enable-background:new 0 0 193 193;" xml:space="preserve">
<style type="text/css">
	.st0{opacity:0.5;fill:#FFFFFF;enable-background:new    ;}
	.st1{fill:#999999;}
	.st2{fill:#808080;}
</style>
<circle class="st0" cx="96.5" cy="96.5" r="96.5"/>
<g>
	<path class="st1" d="M163.9,136.5c-1.7-1.7-5.4-2.1-6.8-2.1c-0.2,0.2-0.5,0.3-0.8,0.5c0.1,0.6,0.1,1.3,1.5,2.7
		c1.4,1.4,2.1,1.4,2.1,1.4s0,0.7-0.7,0.7c-1.4-0.7-3.7-3.2-3.6-4.4c-3,1.4-7.3,1.9-9.5,1.9c-1.5,0-3.6-0.3-5.5-0.8
		c-0.2,1.7-3.3,6.1-4,6.1c-0.7,0,0-0.7,0-0.7c0.6-0.7,3-3.1,3.2-5.1c0,0,0,0,0,0c0-0.2,0-0.4,0-0.5c-3,0.8-5.7,2.4-7.2,4.2
		c-0.1,0.1-0.2,0.2-0.3,0.3c-0.7,1-0.9,1.9-0.5,2.8c1.4,2.7,6.9,5.5,16.5,4.8c9.6-0.7,14.4-3.5,15.8-6.2
		C165.3,139.7,165.2,138.1,163.9,136.5z"/>
	<path d="M163.9,136.5c1.8,1.8,2.1,3.5,0.7,6.4c-1.4,2.8-6.4,5.7-16.3,6.4c-9.9,0.7-15.6-2.1-17-5c-0.6-1.1-0.1-2.4,1-3.6
		c-0.7,1-0.9,1.9-0.5,2.8c1.4,2.7,7.5,5.5,16.5,4.8c9-0.7,14.2-3.2,15.6-6C165.2,139.9,165.2,138.1,163.9,136.5z"/>
	<path class="st1" d="M141.8,130.1c0,0-1.3,0.3-2.6,1.1c-0.9,0.6-1.8,1.4-1.8,2.5c0,0.4,0.3,0.7,0.6,1c1.4,1.2,5.6,2.1,8.1,2.1
		c3.1,0,11.2-1.2,11.2-5C157.3,128.2,145.5,128.8,141.8,130.1z"/>
	<path class="st1" d="M123.5,25.8c5,3.5,6.4,11.4,6.4,17c0,5.7-2.8,19.2-7.1,28.4c-2.5,5.4-4.3,9.9-5.7,13.1c-1.3-1-3.2-1.9-4.6-2.3
		c1.5-3.1,3.2-6.8,4-8.7c1.4-3.5,8.5-19.2,8.5-28.4c0-9.9-1.4-14.9-5-16.3c-3.4-1.3-11.5-1.7-11.5-1.7l0.3-4.6h0.1
		C113.5,22.3,119.8,23.2,123.5,25.8z"/>
	<path class="st1" d="M79.5,24v4.8L79.1,29c-4.3,0-8.5,5-9.9,8.5c-2.5,6.2,0,21.3,0.7,24.8c0.5,2.4,3.2,13.2,5,19.9
		c-1.5,0.3-3.4,1.6-4.8,2.8c-1-3.8-2.5-9.8-4.4-17.7c-3.5-14.9-4.3-26.3,0-34.1S76.3,24.8,79.5,24z"/>
	<path d="M109.8,21.2l-0.1,1.1l-0.3,4.6l-0.1,1.2l-1.5-0.1c-0.1,0.8-2.4,1.4-4,1.3c-1.5-0.1-3-1-3.6-3.3c-0.4-1.5,0.2-3.1,1.9-4.5
		c1.7-1.4,4.7-1.2,5.5-0.4L109.8,21.2z"/>
	<path d="M85.7,22.2c1.6,0.8,2.4,2.4,2.4,4S87.3,31,84.9,31c-2.4,0-4.8-1.6-4.8-1.6h-1.6v-4.8v-0.8h1.6
		C80.9,22.2,84.1,21.4,85.7,22.2z"/>
	<path class="st2" d="M156.3,134.8c0.1,0.5,0.1,1.3,1.6,2.9c1.5,1.5,2.1,1.3,2.1,1.3s0.1,0.9-0.7,0.9c-1.5-0.7-3.8-3.1-3.8-4.6"/>
	<path class="st2" d="M139.7,136.1c0,0.1,0,0.3,0,0.5c-0.1,2.1-2.7,4.6-3.3,5.3c0,0-0.7,0.7,0,0.7s4.2-4.5,4.2-6.3"/>
	<path d="M141,129.5c0,0-1.8,0.5-3.2,1.5c0,0,0,0,0,0c0,0,0,0,0,0c0,0,0,0,0,0c0,0,0,0,0,0c-0.1,0.1-0.2,0.2-0.3,0.2
		c-2.2,0.1-6,0.4-11.9,1.3c-9.9,1.4-19.2,11.4-29.1,20.6c-9.9,9.2-24.8,11.3-32.6,10.6c-7.8-0.7-15.6-8.5-15.6-12.8s3.5-10,9.9-12.1
		c6.4-2.1,24.8,2.9,29.1-1.4c4-3.9,3.6-11.4,4.3-13.5c0.7-2.1,3.4-6.2,3.3-6.2c5.9-1,8-5.2,11.5-10.4c4.3-6.4,12.1-19.9,12.1-21.3
		c0-0.5-0.6-1.1-1.5-1.8c-1.3-1-3.2-2-4.6-2.3c-0.4,0-0.7-0.1-1-0.1c-1,0-2,1.6-3.2,3.9l0,0c0,0,0,0,0,0c0,0.1-0.1,0.1-0.1,0.2l0,0
		c-1.3,2.8-2.6,6.3-3.7,9.2c-2.1,5.7-6.4,13.5-13.5,12.8c-7.1-0.7-8.5-8.5-10.6-13.5c-1-2.4-1.6-4.9-2-7.1c-0.5-2.3-0.8-4.4-1.5-5.1
		c-0.4-0.4-1.2-0.3-2-0.1c-1.4,0.4-3,1.3-4.7,2.7c-0.5,0.4-0.9,0.8-1.2,1.1c-1.4,1.4,7.1,19.2,7.8,21.3c0.5,1.8,2.5,7.2,8.5,9.6
		c0,0,0.8,2.8,1.5,4.9c0.7,2.1,0,5.7-0.7,9.2s-4.2,4.2-8.5,3.5c-3.6-0.6-14.9-1.4-20.6,0c-5.7,1.4-12.8,7.1-12.8,17
		c0,8.5,10.7,14.9,21.3,16.3c9.2,1.2,18.4-2.2,24.8-5c6.4-2.9,13.5-10,16.3-12.8c2.8-2.9,9.2-8.6,16.3-12.1c5.1-2.6,11-3,13.8-2.9
		c0.1,0.1,0.2,0.2,0.3,0.3c0.6,0.5,1.6,0.9,2.7,1.2c0.2,0.1,4.7,1,6.3,1c2.1,0,6.5-0.5,9.5-1.9c0.2-0.2,0.5-0.3,0.7-0.4
		c0.3-0.1,0.6-0.3,0.8-0.5c0.2-0.1,0.4-0.3,0.6-0.6c0.7-0.6,1.2-1.4,1.2-2.4C158.8,127.4,145.3,128.1,141,129.5z M146.2,136.7
		c-2.4,0-6.5-0.8-7.9-2c-0.4-0.3-0.6-0.7-0.6-1c0-1,0.8-1.8,1.7-2.4c1.2-0.7,2.6-1.2,2.6-1.2c3.6-1.2,15-1.8,15,1.8
		C157,135.5,149.2,136.7,146.2,136.7z"/>
</g>
</svg>
